<svg width="152" height="48" viewBox="0 0 152 48" fill="none" xmlns="http://www.w3.org/2000/svg">
<g clip-path="url(#clip0_7402_12326)">
<path d="M6.28256 23.1191L6.26939 23.1073V23.1027L6.28256 23.1191Z" fill="white"/>
<path fill-rule="evenodd" clip-rule="evenodd" d="M30.1381 10.5633C31.7747 10.052 33.3214 9.29001 34.7214 8.30335C33.6621 9.87135 32.2434 11.1667 30.5834 12.0833C30.6234 12.2533 30.6621 12.4227 30.6967 12.596C30.8927 13.648 30.9867 14.716 30.9767 15.7853C30.9607 16.8553 30.8394 17.92 30.6141 18.9667C30.4947 19.4887 30.3487 20.0053 30.1774 20.5133C30.0107 21.0213 29.8187 21.5193 29.6007 22.008C29.1627 22.9807 28.6287 23.9087 28.0061 24.7753C27.6914 25.206 27.3594 25.6227 27.0047 26.018C25.2447 28.002 23.0021 29.5033 20.4914 30.3767C18.5214 31.0607 16.4261 31.316 14.3481 31.1233C15.3647 31.052 16.3734 30.8933 17.3627 30.65C18.3374 30.408 19.2887 30.078 20.2021 29.6633C22.0041 28.8413 23.6341 27.69 25.0087 26.27C25.3521 25.9207 25.6767 25.5533 25.9834 25.1713C26.2974 24.7887 26.5861 24.3973 26.8567 23.9893C27.3914 23.1767 27.8481 22.3147 28.2201 21.4167C28.4074 20.9707 28.5727 20.5153 28.7134 20.0527C28.8567 19.5893 28.9761 19.1193 29.0721 18.6447C29.4601 16.7427 29.4854 14.7853 29.1467 12.8747L29.1067 12.6833C28.9541 12.7313 28.8007 12.77 28.6434 12.8047C28.5251 12.831 28.4046 12.8537 28.2819 12.8731C28.5212 14.7008 28.391 16.5633 27.8927 18.3493C27.3734 20.18 26.4894 21.8887 25.2927 23.372C24.9914 23.7413 24.6721 24.0933 24.3401 24.4367C23.6627 25.1093 22.9207 25.7147 22.1247 26.244C21.3287 26.7727 20.4807 27.2207 19.5954 27.5827C19.1541 27.7607 18.6994 27.9213 18.2407 28.052C17.7821 28.182 17.3187 28.2953 16.8474 28.382C15.4387 28.6367 14.0001 28.6793 12.5787 28.508C12.1114 28.4473 11.6434 28.3647 11.1807 28.2607L11.1462 28.2529C11.2036 28.2687 11.2615 28.2842 11.3201 28.2993C12.1681 28.5273 13.0354 28.672 13.9114 28.734C14.3481 28.7647 14.7847 28.7733 15.2221 28.7647C15.6594 28.7553 16.0954 28.7253 16.5327 28.6733C19.2127 28.352 21.7481 27.2893 23.8507 25.6053C24.5661 25.0387 25.2281 24.4087 25.8301 23.724C24.8367 25.304 23.5134 26.654 21.9501 27.682C19.9534 28.996 17.6494 29.774 15.2614 29.942C14.7834 29.9793 14.3034 29.9913 13.8234 29.9767C12.8614 29.948 11.9041 29.8227 10.9667 29.6027C10.4981 29.492 10.0354 29.3573 9.58139 29.1987C9.10939 29.0427 8.67273 28.86 8.23606 28.6607C7.36206 28.2507 6.53139 27.7573 5.75406 27.1873C4.97806 26.6147 4.26206 25.9653 3.61739 25.2493C2.00073 23.458 0.872725 21.284 0.340725 18.936C0.236059 18.4707 0.156725 18.0013 0.0967254 17.532C-0.133275 15.648 0.0300588 13.7373 0.576725 11.9187C1.11139 10.1307 2.02606 8.47868 3.25939 7.07335V7.07401L3.29406 7.07801C2.81006 7.85001 2.39473 8.66268 2.05339 9.50735C1.71673 10.34 1.45939 11.2033 1.28473 12.0833C0.935392 13.8247 0.917392 15.616 1.23206 17.3627C1.30806 17.7947 1.40539 18.2227 1.52473 18.6447C1.64273 19.066 1.77806 19.4833 1.93539 19.892C2.24673 20.7073 2.63606 21.492 3.09739 22.234C3.32939 22.6033 3.57406 22.964 3.84073 23.3113C3.88009 23.3631 3.91985 23.4146 3.95999 23.4657C4.07288 23.5721 4.18736 23.6769 4.30339 23.78C4.36239 23.832 4.4218 23.8835 4.48163 23.9345C3.88874 22.8379 3.45696 21.6592 3.20273 20.4347C3.11473 20 3.04539 19.566 3.00139 19.1313C2.97742 18.9068 2.95977 18.6819 2.94819 18.4567C2.84857 18.1181 2.76285 17.7749 2.69139 17.428C2.59939 16.9973 2.53073 16.5627 2.48606 16.124C2.43873 15.6813 2.41539 15.236 2.41606 14.7907C2.41473 13.8973 2.50539 13.006 2.68673 12.1313C2.77606 11.6907 2.89006 11.256 3.02806 10.828C3.16339 10.402 3.32073 9.98068 3.49539 9.56801C4.21073 7.92001 5.25073 6.43068 6.55339 5.18801C6.88006 4.88135 7.22339 4.59068 7.58006 4.31868C7.93473 4.04468 8.30406 3.79001 8.68606 3.55468C9.44873 3.08268 10.2587 2.69001 11.1021 2.38135C11.5127 2.22935 11.9494 2.09401 12.3861 1.98601C12.8181 1.87401 13.2554 1.78535 13.6967 1.72068C15.4574 1.45601 17.2541 1.55401 18.9754 2.00735C20.581 2.43441 22.0818 3.18246 23.3863 4.20457C22.7155 3.83136 22.0159 3.51038 21.2947 3.24601C18.9321 2.38001 16.3727 2.19001 13.9067 2.69801C13.5041 2.78135 13.1061 2.88401 12.7141 3.00668C12.3207 3.13135 11.9341 3.27668 11.5561 3.44135C11.1157 3.62204 10.6856 3.82634 10.2675 4.05282C10.3038 4.03993 10.3402 4.02722 10.3767 4.01468C11.4921 3.61468 12.6614 3.38468 13.8454 3.33268C14.1078 3.31222 14.3719 3.31906 14.6355 3.32588C14.767 3.32928 14.8984 3.33268 15.0294 3.33268C15.4247 3.35401 15.8187 3.39735 16.2094 3.46268C16.9914 3.59001 17.7587 3.79601 18.4987 4.07601C19.2394 4.35801 19.9507 4.71135 20.6221 5.13135C20.9136 5.31868 21.1984 5.51887 21.4735 5.72965C22.0742 6.0055 22.6518 6.33003 23.2001 6.70009C22.7681 6.07843 22.2826 5.49545 21.7494 4.95801C21.1521 4.35135 20.5027 3.79735 19.8094 3.30201C21.3754 4.07668 22.7567 5.17601 23.8594 6.52601C24.9827 7.89935 25.8094 9.48801 26.2887 11.1927C26.3018 11.2408 26.3147 11.2889 26.3274 11.337C26.6468 11.3051 26.9657 11.2667 27.2839 11.2218C27.1539 10.443 26.958 9.67582 26.6994 8.92935C26.4034 8.07735 26.0341 7.25335 25.5941 6.46535C26.6855 7.84324 27.4818 9.42746 27.9353 11.1207C28.0376 11.1034 28.1399 11.0854 28.2421 11.0667C28.3475 11.0455 28.447 11.0205 28.5458 10.9956C28.5901 10.9845 28.6342 10.9734 28.6787 10.9627C28.5867 10.676 28.4867 10.38 28.3774 10.0933C28.0221 9.18668 27.5827 8.31335 27.0667 7.48668C26.8087 7.07401 26.5294 6.66935 26.2321 6.28268C25.9347 5.89601 25.6201 5.51801 25.2881 5.16201C23.9461 3.70668 22.3434 2.51268 20.5607 1.64201C19.6561 1.20335 18.7134 0.848681 17.7427 0.582014C16.7601 0.314014 15.7561 0.130681 14.7414 0.0346811C16.8221 -0.103986 18.9081 0.204014 20.8581 0.938681C22.8461 1.68201 24.6581 2.82735 26.1794 4.30135C26.5594 4.67068 26.9221 5.05735 27.2674 5.46601C27.6114 5.87201 27.9341 6.29535 28.2327 6.73535C28.8347 7.61735 29.3454 8.55735 29.7581 9.54201C29.9021 9.87668 30.0247 10.2193 30.1381 10.5633ZM27.4713 12.9531C27.205 12.9651 26.9324 12.9647 26.656 12.9533C26.6943 13.2354 26.7235 13.5177 26.7434 13.8C26.8067 14.6913 26.7794 15.5867 26.6601 16.472C26.5987 16.9067 26.5161 17.3413 26.4114 17.7753C26.3061 18.2167 26.1774 18.6513 26.0267 19.0793C25.7267 19.9247 25.3427 20.738 24.8821 21.508C24.6082 21.9589 24.3089 22.3934 23.9855 22.8097C24.0743 22.7102 24.1621 22.6094 24.2487 22.5073C24.5281 22.1773 24.7861 21.834 25.0354 21.482C25.5261 20.7693 25.9507 20.0133 26.3021 19.2227C26.4761 18.8227 26.6341 18.4193 26.7694 18.006C26.9094 17.594 27.0274 17.1747 27.1234 16.75C27.414 15.504 27.5303 14.2265 27.4713 12.9531ZM24.5393 11.448C24.4517 11.236 24.3577 11.0261 24.2574 10.8187C24.1014 10.4947 23.9294 10.1787 23.7414 9.87201C23.5541 9.56335 23.3527 9.26335 23.1387 8.97668C22.7087 8.40401 22.2261 7.87135 21.6974 7.38668C21.4586 7.16103 21.2022 6.95997 20.9564 6.76722L20.8707 6.70001C20.6001 6.48735 20.3034 6.28268 19.9974 6.09601C19.6954 5.91071 19.3849 5.73993 19.067 5.58406C18.9661 5.56966 18.8651 5.55641 18.7639 5.5443C19.2224 5.78655 19.6627 6.064 20.0807 6.37468C20.3601 6.58735 20.6307 6.80868 20.8887 7.04801C21.0824 7.22621 21.2686 7.41191 21.4473 7.60514C21.7767 7.87467 22.0891 8.16444 22.3827 8.47268C23.2152 9.342 23.8841 10.3514 24.3589 11.4517C24.419 11.4507 24.4792 11.4495 24.5393 11.448ZM24.8097 12.737C24.8716 12.7485 24.9337 12.7595 24.9957 12.7702C25.3125 13.9018 25.4583 15.0761 25.4266 16.2545L25.4194 16.2987C25.3541 16.6987 25.2707 17.098 25.1701 17.4887C25.0701 17.88 24.9434 18.2667 24.8034 18.6487C24.2401 20.1753 23.3921 21.5813 22.3041 22.794C22.0287 23.0993 21.7374 23.3893 21.4307 23.6633C21.1334 23.9367 20.8187 24.198 20.4954 24.4453C20.3498 24.5572 20.2019 24.6659 20.0518 24.7713C20.4491 24.4846 20.8265 24.171 21.1814 23.8327C21.6927 23.336 22.1547 22.792 22.5614 22.2073C22.7627 21.912 22.9507 21.608 23.1214 21.2953C23.2914 20.982 23.4487 20.6607 23.5881 20.3307C23.8661 19.6747 24.0754 18.9913 24.2134 18.2927C24.2834 17.9453 24.3361 17.5927 24.3707 17.2413C24.4054 16.8893 24.4187 16.5327 24.4187 16.1767C24.4147 15.4729 24.3389 14.7731 24.1934 14.0879C24.1851 13.8917 24.1716 13.6957 24.1527 13.5C24.1169 13.1873 24.0678 12.8764 24.0055 12.5682C24.096 12.5894 24.187 12.6101 24.2782 12.63C24.4667 13.081 24.6246 13.5447 24.7507 14.0173C24.9174 14.6627 25.0281 15.3213 25.0827 15.9853H25.1134C25.2003 14.8915 25.0969 13.7929 24.8097 12.737ZM22.6067 11.4165C21.7352 11.3668 20.8656 11.2691 20.0021 11.1233C20.7065 11.4969 21.7211 11.9164 22.8596 12.2603C22.9736 12.7092 23.0566 13.1655 23.1081 13.626C23.1814 14.258 23.1927 14.8953 23.1434 15.5293C23.1167 15.8467 23.0774 16.1633 23.0254 16.476C22.9727 16.7893 22.8987 17.098 22.8114 17.4067C22.6421 18.0213 22.4154 18.6193 22.1341 19.192C21.9894 19.4787 21.8321 19.7613 21.6661 20.0353C21.5001 20.3087 21.3167 20.574 21.1201 20.83C20.3354 21.87 19.3614 22.754 18.2501 23.4373C17.6881 23.7813 17.0961 24.072 16.4801 24.306C15.8646 24.5412 15.2297 24.722 14.5824 24.8484L14.5534 24.8493V24.854L14.5824 24.8484C15.939 24.8012 17.2701 24.465 18.4854 23.8627C19.7367 23.25 20.8461 22.386 21.7454 21.3253C21.9721 21.056 22.1821 20.7787 22.3827 20.4913C22.4085 20.454 22.4341 20.4166 22.4594 20.3789C22.3871 20.523 22.3122 20.6664 22.2341 20.8087C22.0767 21.0953 21.9021 21.3607 21.7141 21.6253C21.3427 22.1507 20.9214 22.64 20.4561 23.0853C19.9974 23.532 19.4954 23.932 18.9574 24.28C18.6894 24.4567 18.4127 24.6193 18.1274 24.7667C17.8434 24.9147 17.5507 25.0493 17.2541 25.1713C16.8015 25.3547 16.3364 25.5051 15.8627 25.6215C15.5584 25.616 15.2571 25.5924 14.9554 25.5627C14.2667 25.488 13.5867 25.35 12.9241 25.1493C12.5961 25.0493 12.2687 24.936 11.9541 24.806C11.6394 24.6753 11.3207 24.528 11.0141 24.3713C10.4054 24.0527 9.82873 23.676 9.29273 23.246C8.75206 22.8227 8.25473 22.346 7.80739 21.8253C7.58473 21.5647 7.37073 21.2907 7.17406 21.0127C6.97739 20.7347 6.78939 20.4393 6.61939 20.144C6.27739 19.546 5.99406 18.9173 5.77139 18.2667C5.54939 17.612 5.38673 16.9387 5.28673 16.2547C5.12518 15.1084 5.14147 13.9457 5.33446 12.8074C5.6382 12.1655 5.99801 11.5508 6.40939 10.9713C6.87273 10.3027 7.40073 9.68135 7.98672 9.11601C8.27472 8.83335 8.58073 8.56401 8.90006 8.30801C9.21873 8.05135 9.55073 7.81668 9.88673 7.59068C10.0175 7.5062 10.1497 7.42402 10.2833 7.34416C10.5393 7.21713 10.8008 7.10078 11.0667 6.99535C11.3687 6.87801 11.6701 6.77001 11.9754 6.68268C12.2821 6.59135 12.5921 6.51735 12.9061 6.46135C14.1661 6.22335 15.4601 6.22335 16.7207 6.46135C17.0341 6.51801 17.3454 6.59201 17.6514 6.68268C17.9567 6.76935 18.2581 6.87801 18.5554 6.99601C19.1534 7.23001 19.7267 7.52135 20.2687 7.86468C20.4294 7.96755 20.5869 8.07511 20.7415 8.18654C20.8027 8.25841 20.8633 8.33091 20.9234 8.40335C21.0333 8.53871 21.1396 8.67685 21.2421 8.81761C21.2134 8.79091 21.1845 8.76438 21.1554 8.73801C21.2889 8.9067 21.4179 9.07868 21.5423 9.25383C21.6991 9.49534 21.8454 9.74363 21.9807 9.99801C22.1341 10.28 22.2707 10.57 22.3914 10.8667C22.4698 11.0475 22.5416 11.2308 22.6067 11.4165ZM10.4679 26.9812C12.3478 27.2621 14.2736 27.1455 16.1174 26.6307C16.2591 26.592 16.3997 26.5505 16.5395 26.5063C16.4752 26.5112 16.4109 26.5157 16.3467 26.5203C16.2434 26.5277 16.1403 26.5351 16.0374 26.5434C15.8815 26.5749 15.7247 26.6026 15.5674 26.6267C15.2201 26.682 14.8701 26.7187 14.5187 26.7347H13.4654C12.0674 26.6627 10.7001 26.3013 9.45006 25.6747C8.22169 25.0605 7.14047 24.1883 6.28256 23.1191C6.77949 23.5631 7.31305 23.9645 7.87739 24.3193C8.44139 24.67 9.03606 24.9687 9.65606 25.21C10.1846 25.4162 10.7281 25.5782 11.2811 25.6949C11.0274 25.5877 10.7769 25.4718 10.5334 25.3493C9.85739 25.002 9.21673 24.59 8.62006 24.12C8.02406 23.6467 7.47806 23.116 6.99073 22.5333C6.74139 22.2427 6.51806 21.9387 6.30473 21.6253C6.09072 21.312 5.89339 20.9867 5.71473 20.652C5.35339 19.9867 5.06139 19.286 4.84139 18.562C4.73606 18.2013 4.64006 17.8367 4.57473 17.4673C4.50873 17.0973 4.45673 16.724 4.42606 16.3507C4.4043 16.0974 4.39154 15.8438 4.38771 15.5903C4.23056 16.3166 4.13557 17.0553 4.10273 17.7973C4.07622 18.2036 4.08067 18.6091 4.10233 19.0153C4.39717 20.0166 4.81022 20.9821 5.33473 21.8907C5.75139 22.6187 6.23673 23.3053 6.78539 23.9413C7.34073 24.5873 7.95006 25.184 8.60739 25.7273C7.09873 24.8533 5.79673 23.668 4.78873 22.2513C4.72694 22.1642 4.66629 22.0764 4.60678 21.9879C4.90216 23.0017 5.31909 23.9787 5.85006 24.8973C5.87167 24.9349 5.89347 24.9723 5.91543 25.0096C6.09626 25.1283 6.27985 25.2429 6.46606 25.3533C7.71014 26.0974 9.06018 26.6461 10.4679 26.9812ZM5.89406 7.96468C6.04832 7.74174 6.20991 7.52406 6.37853 7.31196C7.34964 6.46051 8.45694 5.77502 9.65539 5.28335C9.99006 5.14335 10.3307 5.02201 10.6781 4.91868C11.0187 4.81468 11.3681 4.72335 11.7221 4.64935C11.9286 4.60675 12.1362 4.56987 12.3446 4.53876C12.99 4.52357 13.6351 4.56352 14.2741 4.65801C14.3435 4.66785 14.4127 4.67839 14.4819 4.68963C14.3921 4.70126 14.3024 4.71383 14.2127 4.72735C13.7714 4.79201 13.3334 4.88068 12.9021 4.99268C11.5947 5.32268 10.3461 5.85201 9.20139 6.56135C8.81939 6.79668 8.45073 7.05201 8.09606 7.32601C7.73806 7.59935 7.39673 7.89468 7.06939 8.19468C5.76673 9.43735 4.72673 10.9267 4.01073 12.5747C3.91709 12.8077 3.82843 13.0306 3.74547 13.2528C3.79326 12.9599 3.85101 12.6685 3.91873 12.3793C4.01073 11.984 4.12473 11.5927 4.25139 11.206C4.37806 10.8193 4.53073 10.446 4.68806 10.076C5.02006 9.33468 5.42406 8.62801 5.89406 7.96468ZM23.3717 6.95284C23.9633 7.83975 24.4438 8.79292 24.804 9.79095C24.7383 9.65737 24.6698 9.52506 24.5981 9.39401C24.4101 9.05068 24.2047 8.71601 23.9821 8.39068C23.5381 7.74068 23.0287 7.13735 22.4621 6.59135C22.4263 6.55614 22.3904 6.52119 22.3542 6.4865C22.6991 6.6292 23.0385 6.7848 23.3717 6.95284ZM16.8762 5.45114C16.9293 5.45005 16.9824 5.44927 17.0355 5.44881C17.0862 5.47106 17.1367 5.49372 17.187 5.51677C17.1016 5.49745 17.016 5.4792 16.9301 5.46201L16.8762 5.45114Z" fill="white"/>
<path d="M23.3863 4.20457C23.4615 4.2464 23.5363 4.28888 23.6107 4.33201L23.5887 4.36668C23.5218 4.3119 23.4543 4.25786 23.3863 4.20457Z" fill="white"/>
<path d="M47.9634 14.452L46.3341 14.6993C46.3474 14.4707 46.3141 14.2407 46.2347 14.026C46.1561 13.81 46.0327 13.6127 45.8741 13.446C45.7147 13.28 45.5234 13.148 45.3107 13.0593C45.0981 12.9693 44.8694 12.9247 44.6387 12.926C43.4587 12.926 42.5241 13.9173 42.5241 15.5773C42.5241 17.4627 43.6561 18.2273 44.8747 18.2273C45.2941 18.2153 45.7041 18.1027 46.0701 17.9007C46.4367 17.6973 46.7487 17.4107 46.9807 17.0633L48.0294 18.154C47.6667 18.6593 47.1854 19.0693 46.6274 19.3473C46.0694 19.6267 45.4514 19.7653 44.8274 19.7527C42.3847 19.7527 40.7414 18.1667 40.7414 15.5773C40.7414 12.9873 42.3627 11.406 44.6167 11.406C47.0814 11.406 47.9634 13.1393 47.9634 14.452Z" fill="white"/>
<path fill-rule="evenodd" clip-rule="evenodd" d="M54.8401 19.6267C54.5687 19.702 54.2881 19.74 54.0067 19.74C53.1981 19.74 52.7607 19.4313 52.6467 18.81C52.4601 19.17 51.9747 19.74 50.7554 19.74C49.5367 19.74 48.7634 19.1093 48.7634 18.132C48.7634 16.6807 50.2927 16.32 52.4861 16.272H52.5594V16.0247C52.5701 15.8853 52.5481 15.746 52.4967 15.616C52.4454 15.4867 52.3654 15.3693 52.2634 15.2747C52.1601 15.18 52.0374 15.1087 51.9034 15.0673C51.7701 15.0253 51.6281 15.014 51.4901 15.034C50.8434 15.034 50.4801 15.2947 50.4801 15.716C50.4761 15.7933 50.4934 15.8707 50.5327 15.938L49.0387 16.1853C48.9887 16 48.9641 15.808 48.9641 15.616C48.9641 14.504 49.9474 13.7607 51.5641 13.7607C53.3114 13.7607 54.2287 14.63 54.2287 16.0987V18.006C54.2287 18.2793 54.3294 18.3927 54.5521 18.3927C54.6254 18.3933 54.6987 18.38 54.7661 18.3533L54.8401 19.6267ZM51.2407 18.488C52.0621 18.488 52.5601 18.0667 52.5601 17.5973V17.128H52.4854C51.0787 17.1633 50.4187 17.3627 50.4187 17.906C50.4187 18.2927 50.7294 18.488 51.2407 18.488Z" fill="white"/>
<path d="M59.2707 13.748C60.7254 13.748 61.4641 14.7473 61.4641 16.0727V19.666H59.7561V16.3727C59.7561 15.6767 59.4107 15.208 58.7247 15.208C57.8514 15.208 57.4794 15.964 57.4794 16.6413V19.6833H55.7714V13.822L57.1041 13.7693C57.2247 14.168 57.2974 14.5793 57.3174 14.9947H57.3661C57.5074 14.6113 57.7687 14.2833 58.1121 14.0593C58.4547 13.8347 58.8607 13.726 59.2707 13.748Z" fill="white"/>
<path fill-rule="evenodd" clip-rule="evenodd" d="M68.5901 19.6267C68.3187 19.702 68.0374 19.74 67.7554 19.74C66.9427 19.74 66.5107 19.4313 66.3967 18.81C66.2087 19.17 65.7234 19.74 64.5047 19.74C63.2861 19.74 62.5127 19.1093 62.5127 18.132C62.5127 16.6807 64.0421 16.32 66.2354 16.272H66.3094V16.0247C66.3194 15.8853 66.2981 15.746 66.2467 15.616C66.1947 15.4867 66.1147 15.3693 66.0121 15.2747C65.9101 15.18 65.7867 15.1087 65.6534 15.0673C65.5194 15.0253 65.3781 15.014 65.2394 15.034C64.5927 15.034 64.2301 15.2947 64.2301 15.716C64.2254 15.7933 64.2434 15.8707 64.2821 15.938L62.7834 16.1853C62.7341 16 62.7094 15.808 62.7094 15.616C62.7094 14.504 63.6967 13.7607 65.3307 13.7607C67.0787 13.7607 67.9961 14.63 67.9961 16.0987V18.006C67.9961 18.2793 68.0967 18.3927 68.3194 18.3927C68.3927 18.3927 68.4654 18.3793 68.5334 18.3533L68.5901 19.6267ZM64.9901 18.488C65.7941 18.488 66.2921 18.0667 66.2921 17.5973H66.3101V17.128H66.2354C64.8287 17.1633 64.1687 17.3627 64.1687 17.906C64.1687 18.2927 64.4787 18.488 64.9901 18.488Z" fill="white"/>
<path fill-rule="evenodd" clip-rule="evenodd" d="M73.5667 10.9027L75.2707 10.9233V19.6667L73.8854 19.714C73.7994 19.3353 73.7454 18.9507 73.7241 18.5627H73.6887C73.5227 18.9347 73.2461 19.2467 72.8961 19.4573C72.5461 19.668 72.1394 19.7667 71.7314 19.7407C70.1414 19.7407 69.1321 18.4887 69.1321 16.768C69.1321 14.8347 70.3247 13.7267 71.8187 13.7267C72.1534 13.7033 72.4887 13.7633 72.7941 13.9013C73.0987 14.0393 73.3647 14.2513 73.5667 14.5173V10.9027ZM73.4627 17.464C73.5301 17.2973 73.5641 17.1207 73.5621 16.9413V16.546C73.5641 16.364 73.5287 16.1833 73.4594 16.0147C73.3901 15.8467 73.2874 15.6933 73.1574 15.5653C73.0274 15.4367 72.8727 15.3353 72.7034 15.2673C72.5334 15.1993 72.3514 15.166 72.1687 15.1687C71.3734 15.1687 70.8574 15.79 70.8574 16.7673C70.8574 17.7453 71.3821 18.314 72.2034 18.314C72.3834 18.3133 72.5614 18.2767 72.7267 18.2073C72.8927 18.1373 73.0434 18.036 73.1694 17.9087C73.2954 17.7807 73.3954 17.63 73.4627 17.464Z" fill="white"/>
<path d="M77.5074 12.9833C77.2267 12.9833 76.9581 12.872 76.7601 12.6753C76.5614 12.478 76.4501 12.2107 76.4501 11.9313C76.4501 11.6527 76.5614 11.3847 76.7601 11.188C76.9581 10.9907 77.2267 10.88 77.5074 10.88C77.6501 10.8753 77.7914 10.8993 77.9247 10.95C78.0581 11 78.1794 11.0767 78.2821 11.1747C78.3854 11.2727 78.4674 11.39 78.5241 11.52C78.5807 11.65 78.6114 11.79 78.6127 11.9313C78.6127 12.074 78.5841 12.2147 78.5281 12.3453C78.4721 12.476 78.3894 12.594 78.2861 12.692C78.1827 12.7907 78.0607 12.8673 77.9267 12.9173C77.7927 12.9673 77.6501 12.9893 77.5074 12.9833Z" fill="white"/>
<path d="M76.6334 13.804L78.3421 13.752V19.6487H76.6334V13.804Z" fill="white"/>
<path fill-rule="evenodd" clip-rule="evenodd" d="M85.4941 19.6267C85.2221 19.702 84.9414 19.74 84.6594 19.74C83.8467 19.74 83.4141 19.4313 83.3007 18.81C83.1127 19.17 82.6281 19.74 81.4087 19.74C80.1901 19.74 79.4167 19.1093 79.4167 18.132C79.4167 16.6807 80.9461 16.32 83.1394 16.272H83.2134V16.0247C83.2234 15.8853 83.2014 15.746 83.1501 15.616C83.0987 15.4867 83.0187 15.3693 82.9161 15.2747C82.8134 15.18 82.6907 15.1087 82.5574 15.0673C82.4234 15.0253 82.2821 15.014 82.1427 15.034C81.4961 15.034 81.1334 15.2947 81.1334 15.716C81.1294 15.7933 81.1474 15.8707 81.1861 15.938L79.6874 16.1853C79.6381 16 79.6127 15.808 79.6134 15.616C79.6134 14.504 80.6007 13.7607 82.2347 13.7607C83.9821 13.7607 84.9001 14.63 84.9001 16.0987V18.006C84.9001 18.2793 85.0001 18.3927 85.2234 18.3927C85.2961 18.3927 85.3687 18.3793 85.4374 18.3533L85.4941 19.6267ZM81.8941 18.488C82.7154 18.488 83.2134 18.0667 83.2134 17.5973V17.128H83.1394C81.7321 17.1633 81.0727 17.3627 81.0727 17.906C81.0727 18.2927 81.3827 18.488 81.8941 18.488Z" fill="white"/>
<path d="M89.9241 13.748C91.3834 13.748 92.1174 14.7473 92.1174 16.0727V19.666H90.4094V16.3727C90.4094 15.6767 90.0594 15.208 89.3781 15.208C88.5041 15.208 88.1327 15.964 88.1327 16.6413V19.6833H86.4247V13.822L87.7574 13.7693C87.8787 14.168 87.9501 14.5793 87.9714 14.9947H88.0194C88.1601 14.6113 88.4214 14.2827 88.7647 14.058C89.1074 13.834 89.5141 13.7247 89.9241 13.748Z" fill="white"/>
<path d="M102.988 14.452L101.358 14.7213C101.372 14.492 101.338 14.2627 101.259 14.0473C101.18 13.8313 101.057 13.634 100.898 13.468C100.739 13.302 100.547 13.17 100.335 13.0807C100.122 12.9913 99.8934 12.946 99.6627 12.9487C98.4787 12.9487 97.5481 13.9393 97.5481 15.5987C97.5481 17.4847 98.6801 18.2493 99.8987 18.2493C100.318 18.2367 100.728 18.1247 101.094 17.922C101.461 17.7193 101.773 17.432 102.005 17.0847L103.053 18.1753C102.691 18.6813 102.209 19.0913 101.651 19.3693C101.093 19.6487 100.475 19.7873 99.8507 19.7747C97.4087 19.7747 95.7654 18.188 95.7654 15.5987C95.7654 13.0093 97.3867 11.4273 99.6367 11.4273C102.105 11.406 102.988 13.1393 102.988 14.452Z" fill="white"/>
<path fill-rule="evenodd" clip-rule="evenodd" d="M109.371 18.714C109.054 19.0633 108.662 19.3373 108.224 19.5147C107.786 19.692 107.313 19.7693 106.841 19.74C104.862 19.74 103.678 18.5013 103.678 16.7413C103.656 16.3433 103.719 15.9453 103.861 15.5727C104.005 15.2 104.225 14.8613 104.508 14.5793C104.791 14.2967 105.131 14.0767 105.505 13.934C105.879 13.7907 106.279 13.7273 106.68 13.7473C108.397 13.7473 109.384 14.9073 109.384 16.5073C109.386 16.7153 109.369 16.9233 109.332 17.128H105.373C105.43 17.5187 105.634 17.8733 105.944 18.1193C106.254 18.366 106.647 18.4853 107.042 18.4533C107.329 18.4627 107.615 18.4067 107.877 18.2913C108.14 18.1753 108.373 18.002 108.559 17.7847L109.371 18.714ZM105.787 15.3847C105.544 15.6093 105.397 15.9173 105.373 16.246H107.825C107.837 16.09 107.816 15.9333 107.763 15.786C107.711 15.638 107.629 15.5027 107.521 15.3887C107.413 15.2753 107.283 15.184 107.138 15.1233C106.993 15.062 106.837 15.032 106.68 15.034C106.348 15.034 106.029 15.1593 105.787 15.3847Z" fill="white"/>
<path d="M113.98 13.748C115.444 13.748 116.178 14.7473 116.178 16.0727V19.666H114.465V16.3727C114.465 15.6767 114.116 15.208 113.43 15.208C112.556 15.208 112.185 15.964 112.185 16.6413V19.6833H110.481V13.822L111.813 13.7693C111.931 14.1687 112.001 14.5793 112.023 14.9947H112.071C112.213 14.6107 112.475 14.2827 112.819 14.058C113.163 13.8333 113.569 13.7247 113.98 13.748Z" fill="white"/>
<path d="M121.893 19.318C121.361 19.6207 120.757 19.7713 120.145 19.7527C118.599 19.7527 117.79 18.9227 117.79 17.2627V15.1207H116.895V13.8173H117.865V12.1707L119.507 12.1053V13.8173H121.574V15.1207H119.507V17.1893C119.507 17.9713 119.809 18.3147 120.469 18.3147C120.809 18.3227 121.143 18.2133 121.412 18.006L121.893 19.318Z" fill="white"/>
<path d="M126.668 13.9173L126.231 15.5553C126.036 15.414 125.8 15.3393 125.559 15.342C124.912 15.342 124.353 15.864 124.353 16.842V19.666H122.644V13.822L123.977 13.7693C124.1 14.194 124.171 14.6313 124.191 15.0733H124.239C124.462 14.33 124.925 13.7693 125.807 13.7693C126.101 13.7607 126.394 13.8107 126.668 13.9173Z" fill="white"/>
<path fill-rule="evenodd" clip-rule="evenodd" d="M132.593 18.714C132.276 19.0633 131.884 19.3373 131.445 19.5147C131.007 19.692 130.535 19.7693 130.063 19.74C128.084 19.74 126.899 18.5013 126.899 16.7413C126.877 16.3433 126.94 15.9453 127.083 15.5727C127.226 15.2 127.446 14.8613 127.729 14.5793C128.013 14.2967 128.352 14.0767 128.726 13.934C129.101 13.7907 129.501 13.7273 129.901 13.7473C131.623 13.7473 132.606 14.9073 132.606 16.5073C132.608 16.7153 132.59 16.9233 132.553 17.128H128.595C128.651 17.5187 128.855 17.8733 129.165 18.1193C129.475 18.366 129.869 18.4853 130.264 18.4533C130.551 18.462 130.837 18.4067 131.101 18.2907C131.363 18.1747 131.597 18.0027 131.784 17.7847L132.593 18.714ZM129.015 15.3787C128.769 15.604 128.618 15.914 128.595 16.246H131.068C131.079 16.09 131.058 15.9327 131.005 15.786C130.953 15.638 130.869 15.5027 130.761 15.3887C130.653 15.2747 130.523 15.184 130.377 15.1233C130.233 15.062 130.076 15.032 129.919 15.034C129.584 15.03 129.261 15.1533 129.015 15.3787Z" fill="white"/>
<path d="M138.539 12.9267C138.494 13.0613 138.479 13.2033 138.495 13.344V13.822H140.335V15.1253H138.495V19.6833H136.8V15.108H135.926V13.804H136.8V13.37C136.775 13.034 136.821 12.6967 136.938 12.3807C137.054 12.0647 137.237 11.7773 137.473 11.5367C137.711 11.2967 137.997 11.11 138.312 10.988C138.627 10.8667 138.966 10.8133 139.303 10.832C139.785 10.822 140.262 10.9233 140.697 11.128L140.199 12.488C140 12.3413 139.761 12.26 139.513 12.2533C139.371 12.248 139.23 12.2733 139.099 12.3267C138.967 12.3813 138.849 12.4627 138.753 12.5667C138.656 12.67 138.583 12.7933 138.539 12.9267Z" fill="white"/>
<path fill-rule="evenodd" clip-rule="evenodd" d="M146.906 16.7413C146.906 18.4793 145.673 19.74 143.817 19.74C141.96 19.74 140.719 18.5013 140.719 16.7413C140.719 14.9813 141.951 13.748 143.817 13.748C145.683 13.748 146.906 14.986 146.906 16.7413ZM145.158 16.7413C145.158 15.8033 144.634 15.134 143.799 15.134C142.965 15.134 142.432 15.8027 142.432 16.7413C142.432 17.68 142.956 18.3533 143.799 18.3533C144.643 18.3533 145.175 17.6973 145.175 16.7413H145.158Z" fill="white"/>
<path d="M151.995 13.9173L151.559 15.5553C151.361 15.414 151.124 15.3393 150.881 15.342C150.235 15.342 149.675 15.864 149.675 16.842V19.666H147.972V13.822L149.304 13.7693C149.424 14.1947 149.494 14.632 149.514 15.0733H149.562C149.789 14.33 150.248 13.7693 151.135 13.7693C151.429 13.7607 151.721 13.8107 151.995 13.9173Z" fill="white"/>
<path d="M47.9634 25.3533L46.3341 25.6013C46.3474 25.372 46.3141 25.1427 46.2347 24.9273C46.1561 24.712 46.0327 24.514 45.8741 24.3487C45.7147 24.182 45.5234 24.05 45.3107 23.9607C45.0981 23.8713 44.8694 23.826 44.6387 23.8287C43.4587 23.8287 42.5241 24.8193 42.5241 26.4787C42.5241 28.36 43.6561 29.1293 44.8747 29.1293C45.2941 29.1167 45.7041 29.0047 46.0701 28.802C46.4367 28.5993 46.7487 28.312 46.9807 27.9647L48.0294 29.0553C47.6667 29.5613 47.1854 29.9713 46.6274 30.25C46.0694 30.5287 45.4514 30.6673 44.8274 30.6547C42.3847 30.6547 40.7414 29.068 40.7414 26.4787C40.7414 23.8893 42.3627 22.3033 44.6167 22.3033C47.0814 22.3033 47.9634 24.0367 47.9634 25.3533Z" fill="white"/>
<path d="M52.5161 24.6453C53.9974 24.6453 54.7314 25.6487 54.7314 26.974V30.5673H53.0147V27.2693C53.0147 26.5787 52.6781 26.1053 51.9787 26.1053C51.1054 26.1053 50.7334 26.852 50.7334 27.5433V30.5847H49.0301V21.8207H50.6987V25.6753H50.7334C50.8921 25.3447 51.1467 25.07 51.4647 24.886C51.7827 24.702 52.1494 24.6187 52.5161 24.6453Z" fill="white"/>
<path d="M60.0834 24.8193L59.6467 26.4527C59.4501 26.3147 59.2147 26.242 58.9734 26.244C58.3267 26.244 57.7634 26.7653 57.7634 27.7433V30.5673H56.0601V24.7147L57.3701 24.6667C57.4901 25.092 57.5607 25.5293 57.5801 25.9707H57.6674C57.8901 25.2267 58.3487 24.6667 59.2361 24.6667C59.5261 24.6587 59.8147 24.71 60.0834 24.8193Z" fill="white"/>
<path d="M61.6214 23.902C61.4827 23.902 61.3447 23.8753 61.2167 23.822C61.0887 23.7693 60.9721 23.692 60.8741 23.594C60.7754 23.4967 60.6974 23.3807 60.6447 23.2533C60.5914 23.1253 60.5647 22.9887 60.5647 22.8507C60.5647 22.7127 60.5914 22.576 60.6447 22.448C60.6981 22.3213 60.7754 22.2047 60.8741 22.1073C60.9721 22.0093 61.0887 21.932 61.2167 21.8793C61.3447 21.826 61.4827 21.7993 61.6214 21.7993C61.7601 21.7993 61.8981 21.826 62.0261 21.8793C62.1541 21.9327 62.2707 22.0093 62.3687 22.1073C62.4674 22.2047 62.5454 22.3207 62.5981 22.448C62.6514 22.576 62.6787 22.7127 62.6787 22.8507C62.6787 22.9887 62.6514 23.1253 62.5987 23.2533C62.5454 23.3807 62.4674 23.4967 62.3694 23.594C62.2707 23.692 62.1541 23.7693 62.0261 23.822C61.8981 23.8753 61.7601 23.902 61.6214 23.902Z" fill="white"/>
<path d="M60.7481 24.7193L62.4514 24.6713V30.5673H60.7474V24.72L60.7481 24.7193Z" fill="white"/>
<path d="M67.0261 26.5527C67.0257 26.0831 66.6765 25.784 66.0821 25.784C65.4887 25.784 65.2087 26.044 65.2087 26.392C65.2087 26.886 65.814 27.009 66.5177 27.152C67.4909 27.3497 68.6523 27.5857 68.6601 28.8947C68.6601 29.946 67.6987 30.6327 66.0954 30.6327C64.386 30.6327 63.5728 29.9498 63.3737 29.7826L63.3514 29.764L64.1514 28.7387C64.6947 29.1507 65.3481 29.3953 66.0301 29.442C66.6281 29.442 66.9034 29.2687 66.9034 29.008C66.9034 28.631 66.3781 28.4956 65.7474 28.333C64.7997 28.0888 63.6141 27.7831 63.6141 26.5047C63.6141 25.3667 64.6101 24.658 66.1301 24.658C67.5501 24.658 68.5467 25.3407 68.5467 26.292C68.5481 26.4273 68.5307 26.5613 68.4941 26.692L66.9907 26.7787C67.0121 26.7053 67.0241 26.6293 67.0261 26.5527Z" fill="white"/>
<path d="M74.2701 30.22C73.7387 30.522 73.1341 30.6727 72.5221 30.6547C70.9801 30.6547 70.1674 29.8247 70.1674 28.1647V26.018H69.2934V24.7147H70.2634V23.068L71.9107 23.0073V24.7147H73.9774V26.018H71.9107V28.0867C71.9107 28.864 72.2074 29.212 72.8674 29.212C73.2094 29.2187 73.5441 29.11 73.8154 28.9033L74.2701 30.22Z" fill="white"/>
<path d="M75.8341 23.902C75.6954 23.902 75.5574 23.8753 75.4294 23.822C75.3014 23.7693 75.1847 23.692 75.0867 23.594C74.9881 23.4967 74.9101 23.3807 74.8574 23.2533C74.8041 23.1253 74.7767 22.9887 74.7767 22.8507C74.7767 22.7127 74.8041 22.576 74.8574 22.448C74.9101 22.3213 74.9881 22.2047 75.0867 22.1073C75.1847 22.0093 75.3014 21.932 75.4294 21.8793C75.5574 21.826 75.6954 21.7993 75.8341 21.7993C75.9727 21.7993 76.1107 21.826 76.2387 21.8793C76.3667 21.9327 76.4834 22.0093 76.5814 22.1073C76.6801 22.2047 76.7581 22.3207 76.8107 22.448C76.8641 22.576 76.8914 22.7127 76.8914 22.8507C76.8914 22.9887 76.8641 23.1253 76.8107 23.2533C76.7581 23.3807 76.6801 23.4967 76.5814 23.594C76.4834 23.692 76.3667 23.7693 76.2387 23.822C76.1107 23.8753 75.9727 23.902 75.8341 23.902Z" fill="white"/>
<path d="M74.9601 24.7193L76.6687 24.6713V30.5673H74.9601V24.7193Z" fill="white"/>
<path fill-rule="evenodd" clip-rule="evenodd" d="M83.8207 30.5287C83.5487 30.604 83.2681 30.642 82.9861 30.642C82.1781 30.642 81.7407 30.3287 81.6274 29.7113C81.4394 30.072 80.9547 30.6413 79.7354 30.6413C78.5167 30.6413 77.7434 30.0073 77.7434 29.0293C77.7434 27.5827 79.2767 27.222 81.4661 27.174H81.5401V26.9133C81.5501 26.774 81.5281 26.6347 81.4767 26.5047C81.4254 26.3753 81.3454 26.258 81.2427 26.1633C81.1401 26.0687 81.0174 25.9973 80.8841 25.956C80.7501 25.914 80.6087 25.9027 80.4694 25.9227C79.8227 25.9227 79.4601 26.1833 79.4601 26.6007C79.4567 26.6793 79.4747 26.7573 79.5127 26.8267L78.0187 27.074C77.9687 26.8887 77.9441 26.6973 77.9441 26.5047C77.9441 25.388 78.9274 24.6447 80.5441 24.6447C82.2914 24.6447 83.2087 25.514 83.2087 26.9873V28.8947C83.2087 29.168 83.3094 29.2773 83.5321 29.2773C83.6054 29.2773 83.6774 29.2653 83.7467 29.2427L83.8207 30.5287ZM80.2207 29.39C81.0421 29.39 81.5401 28.9687 81.5401 28.4993V28.026H81.4661C80.0587 28.0647 79.3994 28.2607 79.3994 28.808C79.3994 29.19 79.7094 29.39 80.2207 29.39Z" fill="white"/>
<path d="M88.2554 24.6407C89.7101 24.6453 90.4354 25.6493 90.4354 26.974V30.5673H88.7274V27.2693C88.7274 26.5787 88.3774 26.1053 87.6961 26.1053C86.8221 26.1053 86.4507 26.8613 86.4507 27.5433V30.5853H84.7554V24.7147L86.0881 24.6667C86.2101 25.0653 86.2814 25.4767 86.3021 25.892H86.3501C86.4914 25.508 86.7521 25.1793 87.0954 24.954C87.4381 24.7287 87.8447 24.6193 88.2554 24.6407Z" fill="white"/>
<path d="M101.315 25.3533L99.6847 25.6013C99.6987 25.372 99.6647 25.1427 99.5854 24.9273C99.5067 24.712 99.3834 24.514 99.2247 24.3487C99.0654 24.182 98.8741 24.05 98.6614 23.9607C98.4487 23.8713 98.2201 23.826 97.9894 23.8287C96.8054 23.8287 95.8747 24.8193 95.8747 26.4787C95.8747 28.36 97.0067 29.1293 98.2254 29.1293C98.6447 29.1167 99.0547 29.0047 99.4207 28.802C99.7874 28.5993 100.099 28.312 100.331 27.9647L101.38 29.0553C101.017 29.5613 100.536 29.9713 99.9781 30.25C99.4201 30.5287 98.8021 30.6673 98.1774 30.6547C95.7354 30.6547 94.0921 29.068 94.0921 26.4787C94.0921 23.8893 95.7134 22.3033 97.9674 22.3033C100.432 22.3033 101.315 24.0367 101.315 25.3533Z" fill="white"/>
<path d="M105.867 24.6453C107.348 24.6453 108.082 25.6487 108.082 26.974V30.5673H106.365V27.2693C106.365 26.5787 106.029 26.1053 105.329 26.1053C104.456 26.1053 104.084 26.852 104.084 27.5433V30.5847H102.381V21.8207H104.049V25.6753H104.084C104.243 25.3447 104.497 25.07 104.815 24.886C105.133 24.702 105.5 24.6187 105.867 24.6453Z" fill="white"/>
<path fill-rule="evenodd" clip-rule="evenodd" d="M115.186 30.5287C114.915 30.604 114.634 30.642 114.352 30.642C113.543 30.642 113.107 30.3287 112.993 29.7113C112.809 30.072 112.32 30.6413 111.101 30.6413C109.882 30.6413 109.109 30.0073 109.109 29.0293C109.109 27.5827 110.643 27.222 112.831 27.174H112.905V26.9133C112.915 26.774 112.894 26.6347 112.843 26.5047C112.791 26.3753 112.711 26.258 112.609 26.1633C112.506 26.0687 112.383 25.9973 112.249 25.956C112.115 25.914 111.974 25.9027 111.835 25.9227C111.189 25.9227 110.826 26.1833 110.826 26.6007C110.823 26.6793 110.841 26.7573 110.879 26.8267L109.384 27.074C109.335 26.8887 109.309 26.6973 109.31 26.5047C109.31 25.388 110.293 24.6447 111.909 24.6447C113.657 24.6447 114.575 25.514 114.575 26.9873V28.8947C114.575 29.168 114.675 29.2773 114.898 29.2773C114.971 29.2773 115.043 29.2653 115.112 29.2427L115.186 30.5287ZM111.586 29.39C112.407 29.39 112.905 28.9687 112.905 28.4993V28.026H112.831C111.425 28.0647 110.765 28.2607 110.765 28.808C110.765 29.19 111.075 29.39 111.586 29.39Z" fill="white"/>
<path d="M120.145 24.8193L119.708 26.4527C119.511 26.3147 119.276 26.2413 119.035 26.244C118.389 26.244 117.829 26.7653 117.829 27.7433V30.5673H116.121V24.7147L117.453 24.6667C117.577 25.0913 117.649 25.5293 117.668 25.9707H117.716C117.939 25.2273 118.402 24.6667 119.284 24.6667C119.579 24.658 119.872 24.7093 120.145 24.8193Z" fill="white"/>
<path d="M121.692 23.902C121.553 23.902 121.415 23.8753 121.287 23.822C121.159 23.7693 121.042 23.692 120.944 23.594C120.846 23.4967 120.768 23.3807 120.715 23.2533C120.662 23.1253 120.635 22.9887 120.635 22.8507C120.635 22.7127 120.662 22.576 120.715 22.448C120.768 22.3213 120.846 22.2047 120.944 22.1073C121.042 22.0093 121.159 21.932 121.287 21.8793C121.415 21.826 121.553 21.7993 121.692 21.7993C121.831 21.7993 121.968 21.826 122.097 21.8793C122.225 21.9327 122.341 22.0093 122.439 22.1073C122.537 22.2047 122.615 22.3207 122.669 22.448C122.722 22.576 122.749 22.7127 122.749 22.8507C122.749 22.9887 122.722 23.1253 122.669 23.2533C122.615 23.3807 122.537 23.4967 122.439 23.594C122.341 23.692 122.225 23.7693 122.097 23.822C121.968 23.8753 121.831 23.902 121.692 23.902Z" fill="white"/>
<path d="M120.818 24.7193L122.526 24.6713V30.5673H120.818V24.7193Z" fill="white"/>
<path d="M128.333 30.22C127.801 30.522 127.197 30.6727 126.585 30.6547C125.039 30.6547 124.23 29.8247 124.23 28.1647V26.018H123.335V24.7147H124.305V23.068L125.951 23.0073V24.7147H128.009V26.018H125.943V28.0867C125.943 28.864 126.24 29.212 126.899 29.212C127.242 29.2187 127.576 29.11 127.848 28.9033L128.333 30.22Z" fill="white"/>
<path d="M129.893 23.902C129.754 23.902 129.616 23.8753 129.488 23.822C129.36 23.7693 129.243 23.692 129.145 23.594C129.047 23.4967 128.969 23.3807 128.916 23.2533C128.863 23.1253 128.835 22.9887 128.835 22.8507C128.835 22.7127 128.863 22.576 128.916 22.448C128.969 22.3213 129.047 22.2047 129.145 22.1073C129.243 22.0093 129.36 21.932 129.488 21.8793C129.616 21.826 129.754 21.7993 129.893 21.7993C130.031 21.7993 130.169 21.826 130.297 21.8793C130.425 21.9327 130.542 22.0093 130.64 22.1073C130.739 22.2047 130.816 22.3207 130.869 22.448C130.923 22.576 130.95 22.7127 130.95 22.8507C130.95 22.9887 130.923 23.1253 130.869 23.2533C130.816 23.3807 130.739 23.4967 130.64 23.594C130.542 23.692 130.425 23.7693 130.297 23.822C130.169 23.8753 130.031 23.902 129.893 23.902Z" fill="white"/>
<path d="M129.019 24.7193L130.723 24.6713V30.5673H129.019V24.7193Z" fill="white"/>
<path fill-rule="evenodd" clip-rule="evenodd" d="M136.629 28.682L137.438 29.6113C137.123 29.962 136.732 30.2367 136.294 30.4153C135.857 30.594 135.385 30.6713 134.913 30.642C132.929 30.642 131.749 29.4033 131.749 27.6433C131.727 27.2447 131.789 26.846 131.931 26.4727C132.074 26.0993 132.294 25.7607 132.577 25.478C132.861 25.1953 133.201 24.9747 133.575 24.8313C133.949 24.688 134.35 24.6247 134.751 24.6447C136.468 24.6447 137.451 25.81 137.451 27.4087C137.453 27.6153 137.437 27.822 137.403 28.0253H133.44C133.497 28.416 133.701 28.7707 134.011 29.0167C134.321 29.2633 134.713 29.3827 135.109 29.3507C135.397 29.36 135.683 29.3047 135.946 29.1893C136.209 29.0733 136.443 28.9 136.629 28.682ZM133.855 26.2847C133.612 26.51 133.463 26.818 133.44 27.148H135.895C135.908 26.992 135.887 26.8347 135.835 26.688C135.783 26.54 135.7 26.4047 135.592 26.2907C135.485 26.1767 135.354 26.086 135.209 26.0247C135.065 25.964 134.908 25.9333 134.751 25.936C134.419 25.9347 134.099 26.0593 133.855 26.2847Z" fill="white"/>
<path d="M141.807 26.5527C141.806 26.0831 141.457 25.784 140.859 25.784C140.261 25.784 139.985 26.044 139.985 26.392C139.985 26.886 140.59 27.009 141.293 27.152C142.265 27.3497 143.425 27.5857 143.432 28.8947C143.432 29.946 142.475 30.6327 140.867 30.6327C139.141 30.6327 138.328 29.9353 138.144 29.7774L138.128 29.764L138.923 28.7387C139.468 29.152 140.123 29.396 140.807 29.442C141.405 29.442 141.68 29.2687 141.68 29.008C141.68 28.631 141.155 28.4956 140.525 28.333C139.579 28.0888 138.395 27.7831 138.395 26.5047C138.395 25.3667 139.391 24.658 140.907 24.658C142.327 24.658 143.323 25.3407 143.323 26.292C143.325 26.4267 143.309 26.5613 143.275 26.692L141.768 26.7787C141.791 26.7053 141.804 26.6293 141.807 26.5527Z" fill="white"/>
<path fill-rule="evenodd" clip-rule="evenodd" d="M42.5334 46.44L42.0441 47.9173H40.4801L43.1367 40.7393H44.5041L47.1821 47.9H45.6094L45.1161 46.44H42.5334ZM43.8174 42.5293L42.9307 45.2407H44.7174L43.8174 42.5293Z" fill="white"/>
<path d="M53.3374 45.51C53.3241 45.8573 53.2394 46.198 53.0894 46.512C52.9394 46.8253 52.7261 47.1053 52.4641 47.3353C51.8954 47.798 51.1747 48.0353 50.4407 48C50.0334 48.0187 49.6261 47.9453 49.2514 47.784C48.8767 47.6227 48.5441 47.3787 48.2781 47.0707C47.7181 46.3407 47.4394 45.436 47.4914 44.5193V44.0853C47.4794 43.458 47.6034 42.8353 47.8547 42.26C48.0727 41.7633 48.4347 41.3433 48.8947 41.052C49.4447 40.7387 50.0767 40.5947 50.7094 40.6387C51.3427 40.6813 51.9487 40.91 52.4507 41.2953C52.9774 41.7807 53.2907 42.4513 53.3241 43.164H51.8521C51.8547 42.792 51.7181 42.4327 51.4674 42.156C51.1847 41.9253 50.8227 41.8133 50.4587 41.8427C50.2447 41.8293 50.0307 41.8707 49.8381 41.964C49.6447 42.0567 49.4794 42.1973 49.3581 42.3733C49.0794 42.8747 48.9487 43.444 48.9814 44.0153V44.5587C48.9387 45.1467 49.0614 45.7347 49.3354 46.2573C49.4554 46.4373 49.6201 46.582 49.8147 46.6767C50.0087 46.7713 50.2254 46.8127 50.4414 46.7967C50.6214 46.824 50.8067 46.8113 50.9814 46.7587C51.1567 46.7053 51.3174 46.614 51.4521 46.4913C51.5867 46.368 51.6921 46.216 51.7601 46.0473C51.8274 45.878 51.8561 45.696 51.8434 45.514L53.3374 45.51Z" fill="white"/>
<path d="M59.9041 45.51C59.8934 45.856 59.8127 46.196 59.6661 46.5093C59.5194 46.8227 59.3107 47.104 59.0527 47.3353C58.4841 47.7973 57.7634 48.034 57.0294 48C56.6214 48.0187 56.2147 47.9453 55.8401 47.784C55.4654 47.6227 55.1321 47.3787 54.8667 47.0707C54.3067 46.3407 54.0281 45.436 54.0801 44.5193V44.0853C54.0661 43.458 54.1901 42.8347 54.4427 42.26C54.6581 41.7633 55.0187 41.342 55.4787 41.052C56.0301 40.7387 56.6621 40.5953 57.2961 40.6387C57.9294 40.6813 58.5361 40.91 59.0394 41.2953C59.5641 41.782 59.8774 42.452 59.9127 43.164H58.4407C58.4414 42.7927 58.3047 42.4333 58.0561 42.156C57.7727 41.9267 57.4114 41.8147 57.0467 41.8427C56.8334 41.8293 56.6194 41.8707 56.4267 41.964C56.2334 42.0567 56.0681 42.1973 55.9461 42.3733C55.6634 42.8733 55.5327 43.4433 55.5701 44.0153V44.5587C55.5287 45.146 55.6501 45.734 55.9201 46.2573C56.0401 46.4373 56.2067 46.582 56.4014 46.6767C56.5961 46.7713 56.8134 46.8127 57.0294 46.7967C57.2101 46.824 57.3954 46.8113 57.5701 46.7587C57.7454 46.7053 57.9061 46.614 58.0407 46.4913C58.1754 46.368 58.2807 46.216 58.3481 46.0473C58.4161 45.878 58.4447 45.696 58.4321 45.514L59.9041 45.51Z" fill="white"/>
<path fill-rule="evenodd" clip-rule="evenodd" d="M64.8241 47.9L63.5041 45.2713H62.3294V47.9H60.8614V40.722H63.5134C64.2114 40.678 64.9027 40.88 65.4667 41.2913C65.6967 41.4873 65.8781 41.7333 65.9974 42.0113C66.1161 42.288 66.1694 42.5893 66.1521 42.89C66.1681 43.32 66.0587 43.746 65.8374 44.1153C65.6027 44.4653 65.2681 44.738 64.8761 44.898L66.4054 47.8307V47.9H64.8241ZM62.3514 41.9213L62.3294 44.0767H63.5174C63.8354 44.0993 64.1501 43.9967 64.3914 43.79C64.4941 43.6887 64.5741 43.5667 64.6261 43.4327C64.6781 43.2993 64.7007 43.1553 64.6927 43.012C64.7087 42.7187 64.6061 42.4307 64.4087 42.212C64.2901 42.108 64.1521 42.0287 64.0021 41.9787C63.8514 41.9287 63.6927 41.9093 63.5354 41.9213H62.3514Z" fill="white"/>
<path fill-rule="evenodd" clip-rule="evenodd" d="M75.1047 47.9087L72.9027 47.9V40.722H75.0867C75.6781 40.7153 76.2601 40.8653 76.7734 41.1567C77.2701 41.4433 77.6734 41.8653 77.9354 42.3733C78.2187 42.9253 78.3614 43.5387 78.3507 44.1587V44.4893C78.3621 45.1053 78.2227 45.716 77.9441 46.2667C77.6841 46.7713 77.2814 47.1913 76.7867 47.474C76.2741 47.764 75.6941 47.914 75.1047 47.9087ZM75.1174 41.9087L74.3747 41.9213V46.7013H75.0867C75.3347 46.7147 75.5827 46.6707 75.8107 46.5713C76.0381 46.4727 76.2394 46.322 76.3974 46.1313C76.7314 45.6587 76.8961 45.088 76.8654 44.5113V44.1327C76.9094 43.5467 76.7554 42.9627 76.4281 42.4727C76.2694 42.2833 76.0681 42.1333 75.8407 42.0353C75.6127 41.9373 75.3654 41.894 75.1174 41.9087Z" fill="white"/>
<path d="M80.9854 40.722L80.9894 47.9H79.5127V40.722H80.9854Z" fill="white"/>
<path d="M87.5827 40.722L87.5781 41.9213H85.3934V47.9H83.9214V41.9213H81.7627V40.722H87.5827Z" fill="white"/>
<path fill-rule="evenodd" clip-rule="evenodd" d="M96.2507 47.9087L94.0487 47.9V40.722H96.2334C96.8241 40.7153 97.4067 40.8653 97.9201 41.1567C98.4167 41.4433 98.8201 41.8653 99.0821 42.3733C99.3654 42.9253 99.5081 43.5387 99.4967 44.1587V44.4893C99.5094 45.106 99.3681 45.716 99.0861 46.2667C98.8287 46.7727 98.4281 47.192 97.9327 47.474C97.4207 47.764 96.8401 47.914 96.2507 47.9087ZM96.2641 41.9087L95.5214 41.9213V46.7013H96.2334C96.4814 46.7147 96.7294 46.6707 96.9567 46.5713C97.1847 46.4727 97.3854 46.322 97.5441 46.1313C97.8781 45.6587 98.0427 45.088 98.0114 44.5113V44.1327C98.0554 43.5467 97.9021 42.9627 97.5747 42.4727C97.4161 42.2833 97.2147 42.1333 96.9867 42.0353C96.7594 41.9373 96.5114 41.894 96.2641 41.9087Z" fill="white"/>
<path d="M104.985 40.722L106.819 45.936L108.646 40.722H110.581V47.9H109.105V45.94L109.249 42.5513L107.322 47.9H106.313L104.386 42.5553L104.535 45.9407V47.9007H103.062V40.7213L104.985 40.722Z" fill="white"/>
<path d="M119.42 40.722L121.255 45.936L123.081 40.722H125.017V47.9H123.54V45.94L123.684 42.5513L121.757 47.9H120.748L118.835 42.5553L118.983 45.9407V47.9007H117.511V40.7213L119.42 40.722Z" fill="white"/>
<path fill-rule="evenodd" clip-rule="evenodd" d="M130.95 47.3567C130.405 47.7453 129.744 47.9367 129.075 47.9H126.292V40.722H128.791C129.486 40.6767 130.178 40.8513 130.766 41.222C130.989 41.394 131.167 41.618 131.285 41.8733C131.401 42.1293 131.455 42.4093 131.439 42.69C131.445 43.02 131.35 43.344 131.168 43.62C130.985 43.8893 130.723 44.094 130.417 44.2067C130.765 44.2847 131.075 44.4833 131.291 44.7667C131.508 45.0633 131.62 45.422 131.609 45.7887C131.629 46.0827 131.579 46.3773 131.465 46.65C131.351 46.922 131.174 47.164 130.95 47.3567ZM127.778 41.9207L127.76 43.7287H128.853C129.595 43.7287 129.967 43.42 129.967 42.838C129.979 42.7067 129.959 42.5747 129.91 42.452C129.861 42.33 129.783 42.2207 129.683 42.134C129.421 41.974 129.115 41.9 128.809 41.9207H127.778ZM129.517 44.814C129.387 44.7707 129.247 44.758 129.111 44.776H127.76V46.714H129.023C129.316 46.732 129.605 46.642 129.835 46.462C129.933 46.376 130.009 46.27 130.06 46.1513C130.111 46.0327 130.134 45.9047 130.129 45.7753C130.145 45.6393 130.13 45.5007 130.085 45.3713C130.039 45.2413 129.964 45.124 129.866 45.0273C129.767 44.9307 129.649 44.858 129.517 44.814Z" fill="white"/>
<path d="M136.975 43.6327L136.992 44.7887H134.165V46.714H137.481V47.9007H132.675V40.7213H137.455V41.9207H134.148V43.6327H136.975Z" fill="white"/>
<path fill-rule="evenodd" clip-rule="evenodd" d="M142.318 47.9L140.981 45.2713H139.806V47.9H138.333V40.722H140.99C141.688 40.678 142.379 40.88 142.943 41.2913C143.173 41.4873 143.355 41.7333 143.474 42.0113C143.593 42.288 143.646 42.5893 143.629 42.89C143.645 43.32 143.535 43.746 143.314 44.1153C143.078 44.4647 142.744 44.7367 142.353 44.898L143.9 47.8307V47.9H142.318ZM141.478 41.9787C141.328 41.9287 141.169 41.9093 141.012 41.9213H139.806V44.0767H140.994C141.312 44.0993 141.627 43.9967 141.868 43.79C141.971 43.6887 142.051 43.5667 142.103 43.4327C142.155 43.2993 142.177 43.1553 142.169 43.012C142.185 42.7187 142.083 42.4307 141.885 42.212C141.767 42.108 141.629 42.0287 141.478 41.9787Z" fill="white"/>
<path d="M71.5614 44.7887H68.7341V46.714H72.0507V47.9007H67.2794V40.7213H72.0414V41.9207H68.7341V43.6327H71.5614V44.7887Z" fill="white"/>
<path d="M92.7074 44.7887H89.8807V46.714H93.1967V47.9007H88.3907V40.7213H93.1881V41.9207H89.8807V43.6327H92.7074V44.7887Z" fill="white"/>
<path d="M116.152 44.7887H113.329V46.714H116.65V47.9007H111.844V40.7213H116.65V41.9207H113.329V43.6327H116.152V44.7887Z" fill="white"/>
</g>
<defs>
<clipPath id="clip0_7402_12326">
<rect width="152" height="48" fill="white"/>
</clipPath>
</defs>
</svg>
