<svg width="128" height="40" viewBox="0 0 128 40" fill="none" xmlns="http://www.w3.org/2000/svg">
<g clip-path="url(#clip0_21485_2274)">
<path d="M6.03796 19.266L6.02698 19.2561V19.2523L6.03796 19.266Z" fill="#17191F"/>
<path fill-rule="evenodd" clip-rule="evenodd" d="M25.9175 8.80281C27.2814 8.3767 28.5703 7.7417 29.737 6.91948C28.8542 8.22614 27.672 9.30559 26.2887 10.0695C26.322 10.2111 26.3542 10.3523 26.3831 10.4967C26.5464 11.3734 26.6248 12.2634 26.6164 13.1545C26.6031 14.0461 26.502 14.9334 26.3142 15.8056C26.2148 16.2406 26.0931 16.6711 25.9503 17.0945C25.8114 17.5178 25.6514 17.9328 25.4698 18.34C25.1048 19.1506 24.6598 19.9239 24.1409 20.6461C23.8787 21.005 23.602 21.3523 23.3064 21.6817C21.8398 23.335 19.9709 24.5861 17.8787 25.3139C16.237 25.8839 14.4909 26.0967 12.7592 25.9361C13.6064 25.8767 14.447 25.7445 15.2714 25.5417C16.0837 25.34 16.8764 25.065 17.6375 24.7195C19.1392 24.0345 20.4975 23.075 21.6431 21.8917C21.9292 21.6006 22.1998 21.2945 22.4553 20.9761C22.717 20.6573 22.9575 20.3311 23.1831 19.9911C23.6287 19.3139 24.0092 18.5956 24.3192 17.8473C24.4753 17.4756 24.6131 17.0961 24.7303 16.7106C24.8498 16.3245 24.9492 15.9328 25.0292 15.5373C25.3525 13.9523 25.3737 12.3211 25.0914 10.7289L25.0581 10.5695C24.9309 10.6095 24.8031 10.6417 24.672 10.6706C24.5734 10.6925 24.473 10.7114 24.3708 10.7276C24.5702 12.2507 24.4617 13.8027 24.0464 15.2911C23.6137 16.8167 22.877 18.2406 21.8798 19.4767C21.6287 19.7845 21.3625 20.0778 21.0859 20.3639C20.5214 20.9245 19.9031 21.4289 19.2398 21.87C18.5764 22.3106 17.8698 22.6839 17.132 22.9856C16.7642 23.1339 16.3853 23.2678 16.0031 23.3767C15.6209 23.485 15.2348 23.5795 14.842 23.6517C13.6681 23.8639 12.4692 23.8995 11.2848 23.7567C10.8953 23.7061 10.5053 23.6373 10.1198 23.5506L10.091 23.5441C10.1389 23.5572 10.1871 23.5702 10.2359 23.5828C10.9425 23.7728 11.6653 23.8934 12.3953 23.945C12.7592 23.9706 13.1231 23.9778 13.4875 23.9706C13.852 23.9628 14.2153 23.9378 14.5798 23.8945C16.8131 23.6267 18.9259 22.7411 20.6781 21.3378C21.2742 20.8656 21.8259 20.3406 22.3275 19.77C21.4998 21.0867 20.397 22.2117 19.0942 23.0684C17.4303 24.1634 15.5103 24.8117 13.5203 24.9517C13.122 24.9828 12.722 24.9928 12.322 24.9806C11.5203 24.9567 10.7225 24.8523 9.94143 24.6689C9.55087 24.5767 9.16532 24.4645 8.78698 24.3323C8.39365 24.2023 8.02976 24.05 7.66587 23.8839C6.93754 23.5423 6.24532 23.1311 5.59754 22.6561C4.95087 22.1789 4.35421 21.6378 3.81698 21.0411C2.46976 19.5484 1.52976 17.7367 1.08643 15.78C0.999206 15.3923 0.933095 15.0011 0.883095 14.61C0.691428 13.04 0.827539 11.4478 1.28309 9.93225C1.72865 8.44225 2.49087 7.06559 3.51865 5.89448V5.89503L3.54754 5.89837C3.14421 6.5417 2.79809 7.21892 2.51365 7.92281C2.23309 8.6167 2.01865 9.33614 1.87309 10.0695C1.58198 11.5206 1.56698 13.0134 1.82921 14.4689C1.89254 14.8289 1.97365 15.1856 2.07309 15.5373C2.17143 15.8884 2.28421 16.2361 2.41532 16.5767C2.67476 17.2561 2.99921 17.91 3.38365 18.5284C3.57698 18.8361 3.78087 19.1367 4.0031 19.4261C4.0359 19.4693 4.06903 19.5122 4.10248 19.5548C4.19656 19.6435 4.29196 19.7308 4.38865 19.8167C4.43781 19.86 4.48732 19.903 4.53718 19.9455C4.0431 19.0316 3.68329 18.0494 3.47143 17.0289C3.39809 16.6667 3.34032 16.305 3.30365 15.9428C3.28367 15.7557 3.26897 15.5683 3.25932 15.3806C3.1763 15.0984 3.10486 14.8124 3.04532 14.5234C2.96865 14.1645 2.91143 13.8023 2.87421 13.4367C2.83476 13.0678 2.81532 12.6967 2.81587 12.3256C2.81476 11.5811 2.89032 10.8384 3.04143 10.1095C3.11587 9.74225 3.21087 9.38003 3.32587 9.02337C3.43865 8.66837 3.56976 8.31725 3.71532 7.97337C4.31143 6.60003 5.1781 5.35892 6.26365 4.32337C6.53587 4.06781 6.82198 3.82559 7.11921 3.59892C7.41476 3.37059 7.72254 3.15837 8.04087 2.96225C8.67643 2.56892 9.35143 2.2417 10.0542 1.98448C10.3964 1.85781 10.7603 1.74503 11.1242 1.65503C11.4842 1.5617 11.8487 1.48781 12.2164 1.43392C13.6837 1.21337 15.1809 1.29503 16.6153 1.67281C17.9533 2.0287 19.204 2.65207 20.2911 3.50383C19.7321 3.19282 19.1491 2.92534 18.5481 2.70503C16.5792 1.98337 14.4464 1.82503 12.3914 2.24837C12.0559 2.31781 11.7242 2.40337 11.3975 2.50559C11.0698 2.60948 10.7475 2.73059 10.4325 2.86781C10.0656 3.01839 9.70712 3.18864 9.35872 3.37737C9.38901 3.36663 9.41935 3.35604 9.44976 3.34559C10.3792 3.01225 11.3537 2.82059 12.3403 2.77725C12.559 2.76021 12.7791 2.7659 12.9987 2.77158C13.1083 2.77442 13.2178 2.77725 13.327 2.77725C13.6564 2.79503 13.9848 2.83114 14.3103 2.88559C14.962 2.9917 15.6014 3.16337 16.2181 3.3967C16.8353 3.6317 17.4281 3.92614 17.9875 4.27614C18.2305 4.43225 18.4679 4.59907 18.697 4.77472C19.1977 5.0046 19.679 5.27505 20.1359 5.58343C19.7759 5.06537 19.3713 4.57956 18.927 4.1317C18.4292 3.62614 17.8881 3.16448 17.3103 2.7517C18.6153 3.39725 19.7664 4.31337 20.6853 5.43837C21.6214 6.58281 22.3103 7.9067 22.7098 9.32725C22.7206 9.36735 22.7314 9.40746 22.742 9.44756C23.0082 9.42094 23.2739 9.38894 23.5391 9.35153C23.4308 8.70254 23.2675 8.0632 23.052 7.44114C22.8053 6.73114 22.4975 6.04448 22.1309 5.38781C23.0404 6.53605 23.704 7.85624 24.0819 9.26729C24.1672 9.25284 24.2524 9.23783 24.3375 9.22225C24.4254 9.2046 24.5083 9.18376 24.5907 9.16304C24.6276 9.15377 24.6643 9.14452 24.7014 9.13559C24.6248 8.8967 24.5414 8.65003 24.4503 8.41114C24.1542 7.65559 23.7881 6.92781 23.3581 6.23892C23.1431 5.89503 22.9103 5.55781 22.6625 5.23559C22.4148 4.91337 22.1525 4.59837 21.8759 4.3017C20.7575 3.08892 19.422 2.09392 17.9364 1.36837C17.1825 1.00281 16.397 0.707255 15.5881 0.485032C14.7692 0.261699 13.9325 0.108921 13.087 0.0289213C14.8209 -0.0866343 16.5592 0.170032 18.1842 0.782255C19.8409 1.4017 21.3509 2.35614 22.6187 3.58448C22.9353 3.89225 23.2375 4.21448 23.5253 4.55503C23.812 4.89337 24.0809 5.24614 24.3298 5.61281C24.8314 6.34781 25.257 7.13114 25.6009 7.9517C25.7209 8.23059 25.8231 8.51614 25.9175 8.80281ZM23.6953 10.7943C23.4733 10.8043 23.2462 10.8039 23.0158 10.7944C23.0477 11.0295 23.0721 11.2648 23.0887 11.5C23.1414 12.2428 23.1187 12.9889 23.0192 13.7267C22.9681 14.0889 22.8992 14.4511 22.812 14.8128C22.7242 15.1806 22.617 15.5428 22.4914 15.8995C22.2414 16.6039 21.9214 17.2817 21.5375 17.9234C21.3094 18.2991 21.0599 18.6612 20.7904 19.0081C20.8644 18.9252 20.9376 18.8412 21.0098 18.7561C21.2425 18.4811 21.4575 18.195 21.6653 17.9017C22.0742 17.3078 22.4281 16.6778 22.7209 16.0189C22.8659 15.6856 22.9975 15.3495 23.1103 15.005C23.227 14.6617 23.3253 14.3123 23.4053 13.9584C23.6475 12.92 23.7444 11.8555 23.6953 10.7943ZM21.2519 9.54005C21.1789 9.36332 21.1006 9.18842 21.017 9.01559C20.887 8.74559 20.7437 8.48225 20.587 8.2267C20.4309 7.96948 20.2631 7.71948 20.0848 7.48059C19.7264 7.00337 19.3242 6.55948 18.8837 6.15559C18.6847 5.96755 18.471 5.79999 18.2661 5.63937L18.1948 5.58337C17.9692 5.40614 17.722 5.23559 17.467 5.08003C17.2153 4.92562 16.9566 4.78329 16.6917 4.6534C16.6076 4.64141 16.5234 4.63036 16.439 4.62027C16.8212 4.82215 17.1881 5.05336 17.5364 5.31225C17.7692 5.48948 17.9948 5.67392 18.2098 5.87337C18.3712 6.02186 18.5263 6.17661 18.6752 6.33764C18.9498 6.56224 19.2101 6.80372 19.4548 7.06059C20.1485 7.78502 20.7059 8.62619 21.1016 9.54314C21.1517 9.5423 21.2018 9.54127 21.2519 9.54005ZM21.4772 10.6142C21.5288 10.6237 21.5805 10.633 21.6323 10.6419C21.8962 11.5849 22.0177 12.5635 21.9913 13.5454L21.9853 13.5823C21.9309 13.9156 21.8614 14.2484 21.7775 14.5739C21.6942 14.9 21.5887 15.2223 21.472 15.5406C21.0025 16.8128 20.2959 17.9845 19.3892 18.995C19.1598 19.2495 18.917 19.4911 18.6614 19.7195C18.4137 19.9473 18.1514 20.165 17.882 20.3711C17.7607 20.4643 17.6374 20.5549 17.5123 20.6428C17.8434 20.4038 18.1579 20.1425 18.4537 19.8606C18.8798 19.4467 19.2648 18.9934 19.6037 18.5061C19.7714 18.26 19.9281 18.0067 20.0703 17.7461C20.212 17.485 20.3431 17.2173 20.4592 16.9423C20.6909 16.3956 20.8653 15.8261 20.9803 15.2439C21.0387 14.9545 21.0825 14.6606 21.1114 14.3678C21.1403 14.0745 21.1514 13.7773 21.1514 13.4806C21.1481 12.8941 21.0849 12.3109 20.9637 11.7399C20.9568 11.5764 20.9455 11.4131 20.9298 11.25C20.8999 10.9894 20.859 10.7304 20.8071 10.4735C20.8825 10.4912 20.9583 10.5084 21.0343 10.525C21.1914 10.9008 21.323 11.2873 21.4281 11.6811C21.567 12.2189 21.6592 12.7678 21.7048 13.3211H21.7303C21.8027 12.4096 21.7166 11.4941 21.4772 10.6142ZM19.6414 9.51379C18.9151 9.47239 18.1905 9.39097 17.4709 9.26948C18.0579 9.58078 18.9034 9.93038 19.8521 10.217C19.9471 10.5911 20.0163 10.9713 20.0592 11.355C20.1203 11.8817 20.1298 12.4128 20.0887 12.9411C20.0664 13.2056 20.0336 13.4695 19.9903 13.73C19.9464 13.9911 19.8848 14.2484 19.812 14.5056C19.6709 15.0178 19.482 15.5161 19.2475 15.9934C19.127 16.2323 18.9959 16.4678 18.8575 16.6961C18.7192 16.9239 18.5664 17.145 18.4025 17.3584C17.7487 18.225 16.937 18.9617 16.0109 19.5311C15.5425 19.8178 15.0492 20.06 14.5359 20.255C14.023 20.451 13.4939 20.6017 12.9545 20.707L12.9303 20.7078V20.7117L12.9545 20.707C14.085 20.6677 15.1942 20.3876 16.207 19.8856C17.2498 19.375 18.1742 18.655 18.9237 17.7711C19.1125 17.5467 19.2875 17.3156 19.4548 17.0761C19.4763 17.0451 19.4976 17.0138 19.5186 16.9825C19.4584 17.1025 19.396 17.222 19.3309 17.3406C19.1998 17.5795 19.0542 17.8006 18.8975 18.0211C18.5881 18.4589 18.237 18.8667 17.8492 19.2378C17.467 19.61 17.0487 19.9434 16.6003 20.2334C16.377 20.3806 16.1464 20.5161 15.9087 20.6389C15.672 20.7623 15.4281 20.8745 15.1809 20.9761C14.8038 21.1289 14.4161 21.2543 14.0214 21.3512C13.7678 21.3467 13.5168 21.327 13.2653 21.3023C12.6914 21.24 12.1248 21.125 11.5725 20.9578C11.2992 20.8745 11.0264 20.78 10.7642 20.6717C10.502 20.5628 10.2364 20.44 9.98087 20.3095C9.47365 20.0439 8.9931 19.73 8.54643 19.3717C8.09587 19.0189 7.68143 18.6217 7.30865 18.1878C7.1231 17.9706 6.94476 17.7423 6.78087 17.5106C6.61698 17.2789 6.46032 17.0328 6.31865 16.7867C6.03365 16.2884 5.79754 15.7645 5.61198 15.2223C5.42698 14.6767 5.29143 14.1156 5.2081 13.5456C5.07347 12.5904 5.08705 11.6215 5.24787 10.6728C5.50099 10.1379 5.80083 9.62568 6.14365 9.14281C6.52976 8.58559 6.96976 8.06781 7.45809 7.5967C7.69809 7.36114 7.95309 7.1367 8.21921 6.92337C8.48476 6.70948 8.76143 6.51392 9.04143 6.32559C9.15039 6.25519 9.26056 6.1867 9.37188 6.12015C9.58524 6.0143 9.80312 5.91734 10.0248 5.82948C10.2764 5.7317 10.5275 5.6417 10.782 5.56892C11.0375 5.49281 11.2959 5.43114 11.5575 5.38448C12.6075 5.18614 13.6859 5.18614 14.7364 5.38448C14.9975 5.4317 15.257 5.49337 15.512 5.56892C15.7664 5.64114 16.0175 5.7317 16.2653 5.83003C16.7637 6.02503 17.2414 6.26781 17.6931 6.55392C17.827 6.63964 17.9583 6.72928 18.087 6.82214C18.1381 6.88203 18.1885 6.94244 18.2387 7.00281C18.3303 7.11561 18.4188 7.23073 18.5042 7.34803C18.4803 7.32578 18.4562 7.30367 18.432 7.2817C18.5432 7.42227 18.6507 7.56559 18.7544 7.71155C18.8851 7.91281 19.007 8.11971 19.1198 8.3317C19.2475 8.5667 19.3614 8.80836 19.462 9.05559C19.5273 9.20624 19.5872 9.35902 19.6414 9.51379ZM9.52574 22.4843C11.0923 22.7184 12.6972 22.6212 14.2337 22.1923C14.3517 22.16 14.4689 22.1255 14.5854 22.0886C14.5318 22.0926 14.4783 22.0965 14.4248 22.1003C14.3387 22.1064 14.2527 22.1126 14.167 22.1195C14.037 22.1457 13.9064 22.1689 13.7753 22.1889C13.4859 22.235 13.1942 22.2656 12.9014 22.2789H12.0237C10.8587 22.2189 9.71921 21.9178 8.67754 21.3956C7.6539 20.8838 6.75288 20.1569 6.03796 19.266C6.45206 19.6359 6.8967 19.9704 7.36698 20.2661C7.83698 20.5584 8.33254 20.8073 8.84921 21.0084C9.28964 21.1802 9.7426 21.3152 10.2034 21.4124C9.99199 21.3231 9.78325 21.2265 9.58032 21.1245C9.01698 20.835 8.4831 20.4917 7.98587 20.1C7.48921 19.7056 7.03421 19.2634 6.62809 18.7778C6.42032 18.5356 6.23421 18.2823 6.05643 18.0211C5.87809 17.76 5.71365 17.4889 5.56476 17.21C5.26365 16.6556 5.02032 16.0717 4.83698 15.4684C4.74921 15.1678 4.66921 14.8639 4.61476 14.5561C4.55976 14.2478 4.51643 13.9367 4.49087 13.6256C4.47274 13.4145 4.4621 13.2032 4.45891 12.992C4.32796 13.5972 4.2488 14.2128 4.22143 14.8311C4.19934 15.1697 4.20305 15.5076 4.2211 15.8461C4.4668 16.6806 4.811 17.4851 5.2481 18.2423C5.59532 18.8489 5.99976 19.4211 6.45698 19.9511C6.91976 20.4895 7.42754 20.9867 7.97532 21.4395C6.7181 20.7111 5.6331 19.7234 4.7931 18.5428C4.74161 18.4702 4.69107 18.397 4.64148 18.3233C4.88763 19.1681 5.23506 19.9823 5.67754 20.7478C5.69555 20.7791 5.71371 20.8103 5.73202 20.8414C5.88271 20.9402 6.0357 21.0358 6.19087 21.1278C7.22761 21.7478 8.35264 22.2051 9.52574 22.4843ZM5.71421 6.63725C5.84276 6.45147 5.97742 6.27007 6.11793 6.09332C6.92719 5.38378 7.84994 4.81254 8.84865 4.40281C9.12754 4.28614 9.41143 4.18503 9.70087 4.09892C9.98476 4.01225 10.2759 3.93614 10.5709 3.87448C10.743 3.83897 10.916 3.80825 11.0897 3.78232C11.6275 3.76966 12.1651 3.80296 12.6975 3.8817C12.7554 3.88989 12.8131 3.89868 12.8707 3.90805C12.7959 3.91773 12.7211 3.92821 12.6464 3.93948C12.2787 3.99337 11.9137 4.06725 11.5542 4.16059C10.4648 4.43559 9.42421 4.8767 8.47032 5.46781C8.15198 5.66392 7.84476 5.8767 7.54921 6.10503C7.25087 6.33281 6.96643 6.57892 6.69365 6.82892C5.60809 7.86448 4.74143 9.10559 4.14476 10.4789C4.06673 10.6731 3.99285 10.8588 3.92372 11.0441C3.96354 10.7999 4.01166 10.5571 4.06809 10.3161C4.14476 9.9867 4.23976 9.66059 4.34532 9.33836C4.45087 9.01614 4.57809 8.70503 4.70921 8.3967C4.98587 7.77892 5.32254 7.19003 5.71421 6.63725ZM20.2789 5.79406C20.7719 6.53314 21.1723 7.32746 21.4725 8.15914C21.4177 8.04783 21.3607 7.93757 21.3009 7.82836C21.1442 7.54225 20.9731 7.26337 20.7875 6.99225C20.4175 6.45059 19.9931 5.94781 19.5209 5.49281C19.4911 5.46347 19.4611 5.43435 19.431 5.40544C19.7184 5.52435 20.0012 5.65402 20.2789 5.79406ZM14.866 4.54263C14.9102 4.54173 14.9545 4.54108 14.9987 4.54069C15.041 4.55924 15.0831 4.57812 15.125 4.59733C15.0539 4.58122 14.9825 4.56602 14.9109 4.5517L14.866 4.54263Z" fill="#17191F"/>
<path d="M20.2911 3.50383C20.3537 3.53868 20.4161 3.57409 20.4781 3.61003L20.4598 3.63892C20.404 3.59327 20.3477 3.54824 20.2911 3.50383Z" fill="#17191F"/>
<path d="M40.772 12.0434L39.4142 12.2495C39.4253 12.0589 39.3975 11.8673 39.3314 11.6884C39.2659 11.5084 39.1631 11.3439 39.0309 11.205C38.8981 11.0667 38.7387 10.9567 38.5614 10.8828C38.3842 10.8078 38.1937 10.7706 38.0014 10.7717C37.0181 10.7717 36.2392 11.5978 36.2392 12.9811C36.2392 14.5523 37.1825 15.1895 38.1981 15.1895C38.5475 15.1795 38.8892 15.0856 39.1942 14.9173C39.4998 14.7478 39.7598 14.5089 39.9531 14.2195L40.827 15.1284C40.5248 15.5495 40.1237 15.8911 39.6587 16.1228C39.1937 16.3556 38.6786 16.4711 38.1587 16.4606C36.1231 16.4606 34.7537 15.1389 34.7537 12.9811C34.7537 10.8228 36.1048 9.50503 37.9831 9.50503C40.037 9.50503 40.772 10.9495 40.772 12.0434Z" fill="#17191F"/>
<path fill-rule="evenodd" clip-rule="evenodd" d="M46.5025 16.3556C46.2764 16.4184 46.0425 16.45 45.8081 16.45C45.1342 16.45 44.7698 16.1928 44.6748 15.675C44.5192 15.975 44.1148 16.45 43.0987 16.45C42.0831 16.45 41.4387 15.9245 41.4387 15.11C41.4387 13.9006 42.7131 13.6 44.5409 13.56H44.602V13.3539C44.6109 13.2378 44.5925 13.1217 44.5498 13.0134C44.507 12.9056 44.4403 12.8078 44.3553 12.7289C44.2692 12.65 44.167 12.5906 44.0553 12.5561C43.9442 12.5211 43.8259 12.5117 43.7109 12.5284C43.172 12.5284 42.8692 12.7456 42.8692 13.0967C42.8659 13.1611 42.8803 13.2256 42.9131 13.2817L41.6681 13.4878C41.6264 13.3334 41.6059 13.1734 41.6059 13.0134C41.6059 12.0867 42.4253 11.4673 43.7725 11.4673C45.2287 11.4673 45.9931 12.1917 45.9931 13.4156V15.005C45.9931 15.2328 46.077 15.3273 46.2625 15.3273C46.3237 15.3278 46.3848 15.3167 46.4409 15.2945L46.5025 16.3556ZM43.5031 15.4067C44.1875 15.4067 44.6025 15.0556 44.6025 14.6645V14.2734H44.5403C43.3681 14.3028 42.8181 14.4689 42.8181 14.9217C42.8181 15.2439 43.077 15.4067 43.5031 15.4067Z" fill="#17191F"/>
<path d="M50.1948 11.4567C51.407 11.4567 52.0225 12.2895 52.0225 13.3939V16.3884H50.5992V13.6439C50.5992 13.0639 50.3114 12.6734 49.7398 12.6734C49.012 12.6734 48.702 13.3034 48.702 13.8678V16.4028H47.2787V11.5184L48.3892 11.4745C48.4898 11.8067 48.5503 12.1495 48.567 12.4956H48.6075C48.7253 12.1761 48.9431 11.9028 49.2292 11.7161C49.5148 11.5289 49.8531 11.4384 50.1948 11.4567Z" fill="#17191F"/>
<path fill-rule="evenodd" clip-rule="evenodd" d="M57.9609 16.3556C57.7348 16.4184 57.5003 16.45 57.2653 16.45C56.5881 16.45 56.2281 16.1928 56.1331 15.675C55.9764 15.975 55.572 16.45 54.5564 16.45C53.5409 16.45 52.8964 15.9245 52.8964 15.11C52.8964 13.9006 54.1709 13.6 55.9987 13.56H56.0603V13.3539C56.0687 13.2378 56.0509 13.1217 56.0081 13.0134C55.9648 12.9056 55.8981 12.8078 55.8125 12.7289C55.7275 12.65 55.6248 12.5906 55.5137 12.5561C55.402 12.5211 55.2842 12.5117 55.1687 12.5284C54.6298 12.5284 54.3275 12.7456 54.3275 13.0967C54.3237 13.1611 54.3387 13.2256 54.3709 13.2817L53.122 13.4878C53.0809 13.3334 53.0603 13.1734 53.0603 13.0134C53.0603 12.0867 53.8831 11.4673 55.2448 11.4673C56.7014 11.4673 57.4659 12.1917 57.4659 13.4156V15.005C57.4659 15.2328 57.5498 15.3273 57.7353 15.3273C57.7964 15.3273 57.857 15.3161 57.9137 15.2945L57.9609 16.3556ZM54.9609 15.4067C55.6309 15.4067 56.0459 15.0556 56.0459 14.6645H56.0609V14.2734H55.9987C54.8264 14.3028 54.2764 14.4689 54.2764 14.9217C54.2764 15.2439 54.5348 15.4067 54.9609 15.4067Z" fill="#17191F"/>
<path fill-rule="evenodd" clip-rule="evenodd" d="M62.1081 9.08559L63.5281 9.10281V16.3889L62.3737 16.4284C62.302 16.1128 62.257 15.7923 62.2392 15.4689H62.2098C62.0714 15.7789 61.8409 16.0389 61.5492 16.2145C61.2575 16.39 60.9187 16.4723 60.5787 16.4506C59.2537 16.4506 58.4125 15.4073 58.4125 13.9734C58.4125 12.3623 59.4064 11.4389 60.6514 11.4389C60.9303 11.4195 61.2098 11.4695 61.4642 11.5845C61.7181 11.6995 61.9398 11.8761 62.1081 12.0978V9.08559ZM62.0214 14.5534C62.0775 14.4145 62.1059 14.2673 62.1042 14.1178V13.7884C62.1059 13.6367 62.0764 13.4861 62.0187 13.3456C61.9609 13.2056 61.8753 13.0778 61.767 12.9711C61.6587 12.8639 61.5298 12.7795 61.3887 12.7228C61.247 12.6661 61.0953 12.6384 60.9431 12.6406C60.2803 12.6406 59.8503 13.1584 59.8503 13.9728C59.8503 14.7878 60.2875 15.2617 60.972 15.2617C61.122 15.2611 61.2703 15.2306 61.4081 15.1728C61.5464 15.1145 61.672 15.03 61.777 14.9239C61.882 14.8173 61.9653 14.6917 62.0214 14.5534Z" fill="#17191F"/>
<path d="M65.392 10.8195C65.1581 10.8195 64.9342 10.7267 64.7692 10.5628C64.6037 10.3984 64.5109 10.1756 64.5109 9.94281C64.5109 9.71059 64.6037 9.48725 64.7692 9.32337C64.9342 9.15892 65.1581 9.0667 65.392 9.0667C65.5109 9.06281 65.6287 9.08281 65.7398 9.12503C65.8509 9.1667 65.952 9.23059 66.0375 9.31225C66.1236 9.39392 66.192 9.4917 66.2392 9.60003C66.2864 9.70837 66.312 9.82503 66.3131 9.94281C66.3131 10.0617 66.2892 10.1789 66.2425 10.2878C66.1959 10.3967 66.127 10.495 66.0409 10.5767C65.9548 10.6589 65.8531 10.7228 65.7414 10.7645C65.6298 10.8061 65.5109 10.8245 65.392 10.8195Z" fill="#17191F"/>
<path d="M64.6637 11.5034L66.0875 11.46V16.3739H64.6637V11.5034Z" fill="#17191F"/>
<path fill-rule="evenodd" clip-rule="evenodd" d="M72.0475 16.3556C71.8209 16.4184 71.587 16.45 71.352 16.45C70.6748 16.45 70.3142 16.1928 70.2198 15.675C70.0631 15.975 69.6592 16.45 68.6431 16.45C67.6275 16.45 66.9831 15.9245 66.9831 15.11C66.9831 13.9006 68.2575 13.6 70.0853 13.56H70.147V13.3539C70.1553 13.2378 70.137 13.1217 70.0942 13.0134C70.0514 12.9056 69.9848 12.8078 69.8992 12.7289C69.8137 12.65 69.7114 12.5906 69.6003 12.5561C69.4887 12.5211 69.3709 12.5117 69.2548 12.5284C68.7159 12.5284 68.4137 12.7456 68.4137 13.0967C68.4103 13.1611 68.4253 13.2256 68.4575 13.2817L67.2087 13.4878C67.1675 13.3334 67.1464 13.1734 67.147 13.0134C67.147 12.0867 67.9698 11.4673 69.3314 11.4673C70.7875 11.4673 71.5525 12.1917 71.5525 13.4156V15.005C71.5525 15.2328 71.6359 15.3273 71.822 15.3273C71.8825 15.3273 71.9431 15.3161 72.0003 15.2945L72.0475 16.3556ZM69.0475 15.4067C69.732 15.4067 70.147 15.0556 70.147 14.6645V14.2734H70.0853C68.9125 14.3028 68.3631 14.4689 68.3631 14.9217C68.3631 15.2439 68.6214 15.4067 69.0475 15.4067Z" fill="#17191F"/>
<path d="M75.7392 11.4567C76.9553 11.4567 77.567 12.2895 77.567 13.3939V16.3884H76.1437V13.6439C76.1437 13.0639 75.852 12.6734 75.2842 12.6734C74.5559 12.6734 74.2464 13.3034 74.2464 13.8678V16.4028H72.8231V11.5184L73.9337 11.4745C74.0348 11.8067 74.0942 12.1495 74.112 12.4956H74.152C74.2692 12.1761 74.487 11.9023 74.7731 11.715C75.0587 11.5284 75.3975 11.4373 75.7392 11.4567Z" fill="#17191F"/>
<path d="M86.6259 12.0434L85.2675 12.2678C85.2792 12.0767 85.2509 11.8856 85.1848 11.7061C85.1192 11.5261 85.0164 11.3617 84.8842 11.2234C84.7514 11.085 84.592 10.975 84.4148 10.9006C84.2375 10.8261 84.047 10.7884 83.8548 10.7906C82.8681 10.7906 82.0926 11.6161 82.0926 12.9989C82.0926 14.5706 83.0359 15.2078 84.0514 15.2078C84.4009 15.1973 84.7426 15.1039 85.0475 14.935C85.3531 14.7661 85.6131 14.5267 85.8064 14.2373L86.6803 15.1461C86.3781 15.5678 85.977 15.9095 85.512 16.1411C85.047 16.3739 84.532 16.4895 84.0114 16.4789C81.9764 16.4789 80.607 15.1567 80.607 12.9989C80.607 10.8411 81.9581 9.52281 83.8331 9.52281C85.8903 9.50503 86.6259 10.9495 86.6259 12.0434Z" fill="#17191F"/>
<path fill-rule="evenodd" clip-rule="evenodd" d="M91.9453 15.595C91.6809 15.8861 91.3542 16.1145 90.9892 16.2623C90.6242 16.41 90.2303 16.4745 89.837 16.45C88.1875 16.45 87.2009 15.4178 87.2009 13.9511C87.1825 13.6195 87.2348 13.2878 87.3537 12.9773C87.4731 12.6667 87.6564 12.3845 87.8925 12.1495C88.1281 11.9139 88.4114 11.7306 88.7231 11.6117C89.0348 11.4923 89.3687 11.4395 89.7025 11.4561C91.1331 11.4561 91.9559 12.4228 91.9559 13.7561C91.9576 13.9295 91.9431 14.1028 91.9125 14.2734H88.6137C88.6609 14.5989 88.8309 14.8945 89.0892 15.0995C89.3475 15.305 89.6748 15.4045 90.0042 15.3778C90.2437 15.3856 90.4814 15.3389 90.7003 15.2428C90.9192 15.1461 91.1131 15.0017 91.2681 14.8206L91.9453 15.595ZM88.9581 12.8206C88.7559 13.0078 88.6331 13.2645 88.6137 13.5384H90.6564C90.6664 13.4084 90.6492 13.2778 90.6053 13.155C90.562 13.0317 90.4931 12.9189 90.4037 12.8239C90.3137 12.7295 90.2048 12.6534 90.0842 12.6028C89.9637 12.5517 89.8337 12.5267 89.7025 12.5284C89.4259 12.5284 89.1603 12.6328 88.9581 12.8206Z" fill="#17191F"/>
<path d="M95.7859 11.4567C97.0059 11.4567 97.6175 12.2895 97.6175 13.3939V16.3884H96.1903V13.6439C96.1903 13.0639 95.8992 12.6734 95.3275 12.6734C94.5992 12.6734 94.2898 13.3034 94.2898 13.8678V16.4028H92.8698V11.5184L93.9803 11.4745C94.0787 11.8073 94.137 12.1495 94.1548 12.4956H94.1948C94.3131 12.1756 94.5314 11.9023 94.8181 11.715C95.1048 11.5278 95.4437 11.4373 95.7859 11.4567Z" fill="#17191F"/>
<path d="M102.38 16.0984C101.937 16.3506 101.433 16.4761 100.924 16.4606C99.6348 16.4606 98.9609 15.7689 98.9609 14.3856V12.6006H98.2148V11.5145H99.0231V10.1423L100.392 10.0878V11.5145H102.114V12.6006H100.392V14.3245C100.392 14.9761 100.643 15.2623 101.193 15.2623C101.477 15.2689 101.755 15.1778 101.979 15.005L102.38 16.0984Z" fill="#17191F"/>
<path d="M106.359 11.5978L105.995 12.9628C105.833 12.845 105.636 12.7828 105.435 12.785C104.896 12.785 104.43 13.22 104.43 14.035V16.3884H103.006V11.5184L104.116 11.4745C104.219 11.8284 104.279 12.1928 104.295 12.5611H104.335C104.521 11.9417 104.906 11.4745 105.642 11.4745C105.887 11.4673 106.131 11.5089 106.359 11.5978Z" fill="#17191F"/>
<path fill-rule="evenodd" clip-rule="evenodd" d="M111.296 15.595C111.033 15.8861 110.706 16.1145 110.34 16.2623C109.975 16.41 109.581 16.4745 109.188 16.45C107.539 16.45 106.552 15.4178 106.552 13.9511C106.534 13.6195 106.586 13.2878 106.705 12.9773C106.824 12.6667 107.008 12.3845 107.244 12.1495C107.48 11.9139 107.763 11.7306 108.074 11.6117C108.386 11.4923 108.72 11.4395 109.054 11.4561C110.488 11.4561 111.308 12.4228 111.308 13.7561C111.309 13.9295 111.294 14.1028 111.264 14.2734H107.965C108.012 14.5989 108.182 14.8945 108.44 15.0995C108.699 15.305 109.026 15.4045 109.356 15.3778C109.595 15.385 109.834 15.3389 110.053 15.2423C110.272 15.1456 110.467 15.0023 110.623 14.8206L111.296 15.595ZM108.315 12.8156C108.11 13.0034 107.984 13.2617 107.965 13.5384H110.026C110.035 13.4084 110.018 13.2773 109.974 13.155C109.93 13.0317 109.86 12.9189 109.77 12.8239C109.68 12.7289 109.571 12.6534 109.45 12.6028C109.33 12.5517 109.199 12.5267 109.068 12.5284C108.789 12.525 108.52 12.6278 108.315 12.8156Z" fill="#17191F"/>
<path d="M116.251 10.7723C116.214 10.8845 116.202 11.0028 116.215 11.12V11.5184H117.748V12.6045H116.215V16.4028H114.803V12.59H114.074V11.5034H114.803V11.1417C114.781 10.8617 114.82 10.5806 114.918 10.3173C115.014 10.0539 115.166 9.81448 115.364 9.61392C115.561 9.41392 115.8 9.25837 116.063 9.1567C116.325 9.05559 116.608 9.01114 116.889 9.0267C117.29 9.01837 117.688 9.10281 118.05 9.27337L117.635 10.4067C117.469 10.2845 117.27 10.2167 117.064 10.2111C116.945 10.2067 116.828 10.2278 116.718 10.2723C116.609 10.3178 116.51 10.3856 116.43 10.4723C116.349 10.5584 116.289 10.6611 116.251 10.7723Z" fill="#17191F"/>
<path fill-rule="evenodd" clip-rule="evenodd" d="M123.224 13.9511C123.224 15.3995 122.197 16.45 120.65 16.45C119.103 16.45 118.069 15.4178 118.069 13.9511C118.069 12.4845 119.095 11.4567 120.65 11.4567C122.205 11.4567 123.224 12.4884 123.224 13.9511ZM121.768 13.9511C121.768 13.1695 121.331 12.6117 120.635 12.6117C119.94 12.6117 119.496 13.1689 119.496 13.9511C119.496 14.7334 119.933 15.2945 120.635 15.2945C121.338 15.2945 121.782 14.7478 121.782 13.9511H121.768Z" fill="#17191F"/>
<path d="M127.465 11.5978L127.101 12.9628C126.937 12.845 126.739 12.7828 126.537 12.785C125.998 12.785 125.532 13.22 125.532 14.035V16.3884H124.113V11.5184L125.223 11.4745C125.323 11.8289 125.381 12.1934 125.398 12.5611H125.438C125.627 11.9417 126.009 11.4745 126.748 11.4745C126.993 11.4673 127.237 11.5089 127.465 11.5978Z" fill="#17191F"/>
<path d="M40.772 21.1278L39.4142 21.3345C39.4253 21.1434 39.3975 20.9523 39.3314 20.7728C39.2659 20.5934 39.1631 20.4284 39.0309 20.2906C38.8981 20.1517 38.7387 20.0417 38.5614 19.9673C38.3842 19.8928 38.1937 19.855 38.0014 19.8573C37.0181 19.8573 36.2392 20.6828 36.2392 22.0656C36.2392 23.6334 37.1825 24.2745 38.1981 24.2745C38.5475 24.2639 38.8892 24.1706 39.1942 24.0017C39.4998 23.8328 39.7598 23.5934 39.9531 23.3039L40.827 24.2128C40.5248 24.6345 40.1237 24.9761 39.6587 25.2084C39.1937 25.4406 38.6786 25.5561 38.1587 25.5456C36.1231 25.5456 34.7537 24.2234 34.7537 22.0656C34.7537 19.9078 36.1048 18.5861 37.9831 18.5861C40.037 18.5861 40.772 20.0306 40.772 21.1278Z" fill="#17191F"/>
<path d="M44.5659 20.5378C45.8003 20.5378 46.412 21.3739 46.412 22.4784V25.4728H44.9814V22.7245C44.9814 22.1489 44.7009 21.7545 44.1181 21.7545C43.3903 21.7545 43.0803 22.3767 43.0803 22.9528V25.4873H41.6609V18.1839H43.0514V21.3961H43.0803C43.2125 21.1206 43.4248 20.8917 43.6898 20.7384C43.9548 20.585 44.2603 20.5156 44.5659 20.5378Z" fill="#17191F"/>
<path d="M50.872 20.6828L50.5081 22.0439C50.3442 21.9289 50.1481 21.8684 49.947 21.87C49.4081 21.87 48.9387 22.3045 48.9387 23.1195V25.4728H47.5192V20.5956L48.6109 20.5556C48.7109 20.91 48.7698 21.2745 48.7859 21.6423H48.8587C49.0442 21.0223 49.4264 20.5556 50.1659 20.5556C50.4075 20.5489 50.6481 20.5917 50.872 20.6828Z" fill="#17191F"/>
<path d="M52.1537 19.9184C52.0381 19.9184 51.9231 19.8961 51.8164 19.8517C51.7098 19.8078 51.6125 19.7434 51.5309 19.6617C51.4487 19.5806 51.3837 19.4839 51.3398 19.3778C51.2953 19.2711 51.2731 19.1573 51.2731 19.0423C51.2731 18.9273 51.2953 18.8134 51.3398 18.7067C51.3842 18.6011 51.4487 18.5039 51.5309 18.4228C51.6125 18.3411 51.7098 18.2767 51.8164 18.2328C51.9231 18.1884 52.0381 18.1661 52.1537 18.1661C52.2692 18.1661 52.3842 18.1884 52.4909 18.2328C52.5975 18.2773 52.6948 18.3411 52.7764 18.4228C52.8587 18.5039 52.9237 18.6006 52.9675 18.7067C53.012 18.8134 53.0348 18.9273 53.0348 19.0423C53.0348 19.1573 53.012 19.2711 52.9681 19.3778C52.9237 19.4839 52.8587 19.5806 52.777 19.6617C52.6948 19.7434 52.5975 19.8078 52.4909 19.8517C52.3842 19.8961 52.2692 19.9184 52.1537 19.9184Z" fill="#17191F"/>
<path d="M51.4259 20.5995L52.8453 20.5595V25.4728H51.4253V20.6L51.4259 20.5995Z" fill="#17191F"/>
<path d="M56.6575 22.1273C56.6573 21.7359 56.3662 21.4867 55.8709 21.4867C55.3764 21.4867 55.1431 21.7034 55.1431 21.9934C55.1431 22.405 55.6475 22.5075 56.2339 22.6267C57.0449 22.7914 58.0128 22.9881 58.0192 24.0789C58.0192 24.955 57.2181 25.5273 55.882 25.5273C54.4575 25.5273 53.7799 24.9582 53.6139 24.8189L53.5953 24.8034L54.262 23.9489C54.7148 24.2923 55.2592 24.4961 55.8275 24.535C56.3259 24.535 56.5553 24.3906 56.5553 24.1734C56.5553 23.8592 56.1176 23.7464 55.592 23.6109C54.8023 23.4073 53.8142 23.1526 53.8142 22.0873C53.8142 21.1389 54.6442 20.5484 55.9109 20.5484C57.0942 20.5484 57.9248 21.1173 57.9248 21.91C57.9259 22.0228 57.9114 22.1345 57.8809 22.2434L56.6281 22.3156C56.6459 22.2545 56.6559 22.1911 56.6575 22.1273Z" fill="#17191F"/>
<path d="M62.6942 25.1834C62.2514 25.435 61.7475 25.5606 61.2375 25.5456C59.9525 25.5456 59.2753 24.8539 59.2753 23.4706V21.6817H58.547V20.5956H59.3553V19.2234L60.7281 19.1728V20.5956H62.4503V21.6817H60.7281V23.4056C60.7281 24.0534 60.9753 24.3434 61.5253 24.3434C61.8103 24.3489 62.0892 24.2584 62.3153 24.0861L62.6942 25.1834Z" fill="#17191F"/>
<path d="M63.9975 19.9184C63.882 19.9184 63.767 19.8961 63.6603 19.8517C63.5537 19.8078 63.4564 19.7434 63.3748 19.6617C63.2925 19.5806 63.2275 19.4839 63.1837 19.3778C63.1392 19.2711 63.1164 19.1573 63.1164 19.0423C63.1164 18.9273 63.1392 18.8134 63.1837 18.7067C63.2275 18.6011 63.2925 18.5039 63.3748 18.4228C63.4564 18.3411 63.5537 18.2767 63.6603 18.2328C63.767 18.1884 63.882 18.1661 63.9975 18.1661C64.1131 18.1661 64.2281 18.1884 64.3348 18.2328C64.4414 18.2773 64.5387 18.3411 64.6203 18.4228C64.7025 18.5039 64.7675 18.6006 64.8114 18.7067C64.8559 18.8134 64.8787 18.9273 64.8787 19.0423C64.8787 19.1573 64.8559 19.2711 64.8114 19.3778C64.7675 19.4839 64.7025 19.5806 64.6203 19.6617C64.5387 19.7434 64.4414 19.8078 64.3348 19.8517C64.2281 19.8961 64.1131 19.9184 63.9975 19.9184Z" fill="#17191F"/>
<path d="M63.2692 20.5995L64.6931 20.5595V25.4728H63.2692V20.5995Z" fill="#17191F"/>
<path fill-rule="evenodd" clip-rule="evenodd" d="M70.6531 25.4406C70.4264 25.5034 70.1925 25.535 69.9575 25.535C69.2842 25.535 68.9198 25.2739 68.8253 24.7595C68.6687 25.06 68.2648 25.5345 67.2487 25.5345C66.2331 25.5345 65.5887 25.0061 65.5887 24.1911C65.5887 22.9856 66.8664 22.685 68.6909 22.645H68.7525V22.4278C68.7609 22.3117 68.7425 22.1956 68.6998 22.0873C68.657 21.9795 68.5903 21.8817 68.5048 21.8028C68.4192 21.7239 68.317 21.6645 68.2059 21.63C68.0942 21.595 67.9764 21.5856 67.8603 21.6023C67.3214 21.6023 67.0192 21.8195 67.0192 22.1673C67.0164 22.2328 67.0314 22.2978 67.0631 22.3556L65.8181 22.5617C65.7764 22.4073 65.7559 22.2478 65.7559 22.0873C65.7559 21.1567 66.5753 20.5373 67.9225 20.5373C69.3787 20.5373 70.1431 21.2617 70.1431 22.4895V24.0789C70.1431 24.3067 70.227 24.3978 70.4125 24.3978C70.4737 24.3978 70.5337 24.3878 70.5914 24.3689L70.6531 25.4406ZM67.6531 24.4917C68.3375 24.4917 68.7525 24.1406 68.7525 23.7495V23.355H68.6909C67.5181 23.3873 66.9687 23.5506 66.9687 24.0067C66.9687 24.325 67.227 24.4917 67.6531 24.4917Z" fill="#17191F"/>
<path d="M74.3487 20.5339C75.5609 20.5378 76.1653 21.3745 76.1653 22.4784V25.4728H74.742V22.7245C74.742 22.1489 74.4503 21.7545 73.8825 21.7545C73.1542 21.7545 72.8448 22.3845 72.8448 22.9528V25.4878H71.432V20.5956L72.5425 20.5556C72.6442 20.8878 72.7037 21.2306 72.7209 21.5767H72.7609C72.8787 21.2567 73.0959 20.9828 73.382 20.795C73.6675 20.6073 74.0064 20.5161 74.3487 20.5339Z" fill="#17191F"/>
<path d="M85.2314 21.1278L83.8731 21.3345C83.8848 21.1434 83.8564 20.9523 83.7903 20.7728C83.7248 20.5934 83.622 20.4284 83.4898 20.2906C83.357 20.1517 83.1975 20.0417 83.0203 19.9673C82.8431 19.8928 82.6525 19.855 82.4603 19.8573C81.4737 19.8573 80.6981 20.6828 80.6981 22.0656C80.6981 23.6334 81.6414 24.2745 82.657 24.2745C83.0064 24.2639 83.3481 24.1706 83.6531 24.0017C83.9587 23.8328 84.2187 23.5934 84.412 23.3039L85.2859 24.2128C84.9837 24.6345 84.5825 24.9761 84.1175 25.2084C83.6525 25.4406 83.1376 25.5561 82.617 25.5456C80.582 25.5456 79.2125 24.2234 79.2125 22.0656C79.2125 19.9078 80.5637 18.5861 82.442 18.5861C84.4959 18.5861 85.2314 20.0306 85.2314 21.1278Z" fill="#17191F"/>
<path d="M89.0248 20.5378C90.2592 20.5378 90.8709 21.3739 90.8709 22.4784V25.4728H89.4398V22.7245C89.4398 22.1489 89.1598 21.7545 88.577 21.7545C87.8492 21.7545 87.5392 22.3767 87.5392 22.9528V25.4873H86.1198V18.1839H87.5103V21.3961H87.5392C87.6714 21.1206 87.8837 20.8917 88.1487 20.7384C88.4137 20.585 88.7192 20.5156 89.0248 20.5378Z" fill="#17191F"/>
<path fill-rule="evenodd" clip-rule="evenodd" d="M96.7909 25.4406C96.5648 25.5034 96.3309 25.535 96.0959 25.535C95.422 25.535 95.0581 25.2739 94.9631 24.7595C94.8103 25.06 94.4025 25.5345 93.387 25.5345C92.3709 25.5345 91.7264 25.0061 91.7264 24.1911C91.7264 22.9856 93.0048 22.685 94.8287 22.645H94.8903V22.4278C94.8987 22.3117 94.8809 22.1956 94.8381 22.0873C94.7953 21.9795 94.7286 21.8817 94.6431 21.8028C94.5575 21.7239 94.4553 21.6645 94.3437 21.63C94.232 21.595 94.1142 21.5856 93.9987 21.6023C93.4598 21.6023 93.1575 21.8195 93.1575 22.1673C93.1548 22.2328 93.1698 22.2978 93.2014 22.3556L91.9559 22.5617C91.9148 22.4073 91.8937 22.2478 91.8942 22.0873C91.8942 21.1567 92.7131 20.5373 94.0603 20.5373C95.517 20.5373 96.2814 21.2617 96.2814 22.4895V24.0789C96.2814 24.3067 96.3653 24.3978 96.5509 24.3978C96.6114 24.3978 96.6714 24.3878 96.7292 24.3689L96.7909 25.4406ZM93.7909 24.4917C94.4753 24.4917 94.8903 24.1406 94.8903 23.7495V23.355H94.8287C93.6564 23.3873 93.1064 23.5506 93.1064 24.0067C93.1064 24.325 93.3648 24.4917 93.7909 24.4917Z" fill="#17191F"/>
<path d="M100.923 20.6828L100.559 22.0439C100.395 21.9289 100.199 21.8678 99.9987 21.87C99.4598 21.87 98.9937 22.3045 98.9937 23.1195V25.4728H97.5703V20.5956L98.6803 20.5556C98.7837 20.9095 98.8437 21.2745 98.8592 21.6423H98.8992C99.0848 21.0228 99.4709 20.5556 100.206 20.5556C100.451 20.5484 100.696 20.5911 100.923 20.6828Z" fill="#17191F"/>
<path d="M102.213 19.9184C102.096 19.9184 101.982 19.8961 101.875 19.8517C101.768 19.8078 101.671 19.7434 101.589 19.6617C101.508 19.5806 101.443 19.4839 101.398 19.3778C101.354 19.2711 101.331 19.1573 101.331 19.0423C101.331 18.9273 101.354 18.8134 101.398 18.7067C101.443 18.6011 101.508 18.5039 101.589 18.4228C101.671 18.3411 101.768 18.2767 101.875 18.2328C101.982 18.1884 102.096 18.1661 102.213 18.1661C102.328 18.1661 102.443 18.1884 102.55 18.2328C102.656 18.2773 102.754 18.3411 102.835 18.4228C102.917 18.5039 102.982 18.6006 103.026 18.7067C103.071 18.8134 103.094 18.9273 103.094 19.0423C103.094 19.1573 103.071 19.2711 103.026 19.3778C102.982 19.4839 102.917 19.5806 102.835 19.6617C102.754 19.7434 102.656 19.8078 102.55 19.8517C102.443 19.8961 102.328 19.9184 102.213 19.9184Z" fill="#17191F"/>
<path d="M101.484 20.5995L102.908 20.5595V25.4728H101.484V20.5995Z" fill="#17191F"/>
<path d="M107.746 25.1834C107.304 25.435 106.8 25.5606 106.29 25.5456C105.001 25.5456 104.328 24.8539 104.328 23.4706V21.6817H103.581V20.5956H104.39V19.2234L105.762 19.1728V20.5956H107.477V21.6817H105.755V23.4056C105.755 24.0534 106.003 24.3434 106.552 24.3434C106.838 24.3489 107.116 24.2584 107.343 24.0861L107.746 25.1834Z" fill="#17191F"/>
<path d="M109.046 19.9184C108.931 19.9184 108.816 19.8961 108.709 19.8517C108.603 19.8078 108.505 19.7434 108.423 19.6617C108.341 19.5806 108.276 19.4839 108.233 19.3778C108.188 19.2711 108.165 19.1573 108.165 19.0423C108.165 18.9273 108.188 18.8134 108.233 18.7067C108.276 18.6011 108.341 18.5039 108.423 18.4228C108.505 18.3411 108.603 18.2767 108.709 18.2328C108.816 18.1884 108.931 18.1661 109.046 18.1661C109.162 18.1661 109.276 18.1884 109.384 18.2328C109.49 18.2773 109.588 18.3411 109.669 18.4228C109.751 18.5039 109.816 18.6006 109.86 18.7067C109.905 18.8134 109.928 18.9273 109.928 19.0423C109.928 19.1573 109.905 19.2711 109.86 19.3778C109.816 19.4839 109.751 19.5806 109.669 19.6617C109.588 19.7434 109.49 19.8078 109.384 19.8517C109.276 19.8961 109.162 19.9184 109.046 19.9184Z" fill="#17191F"/>
<path d="M108.318 20.5995L109.738 20.5595V25.4728H108.318V20.5995Z" fill="#17191F"/>
<path fill-rule="evenodd" clip-rule="evenodd" d="M114.66 23.9017L115.334 24.6761C115.071 24.9684 114.746 25.1973 114.381 25.3461C114.016 25.495 113.623 25.5595 113.23 25.535C111.576 25.535 110.594 24.5028 110.594 23.0361C110.575 22.7039 110.626 22.3717 110.745 22.0606C110.864 21.7495 111.048 21.4673 111.284 21.2317C111.52 20.9961 111.803 20.8123 112.115 20.6928C112.427 20.5734 112.761 20.5206 113.095 20.5373C114.526 20.5373 115.345 21.5084 115.345 22.8406C115.346 23.0128 115.333 23.185 115.305 23.3545H112.003C112.05 23.68 112.22 23.9756 112.478 24.1806C112.736 24.3861 113.064 24.4856 113.394 24.4589C113.633 24.4667 113.872 24.4206 114.091 24.3245C114.31 24.2278 114.505 24.0834 114.66 23.9017ZM112.349 21.9039C112.146 22.0917 112.022 22.3484 112.003 22.6234H114.049C114.059 22.4934 114.042 22.3623 113.998 22.24C113.955 22.1167 113.886 22.0039 113.796 21.9089C113.706 21.8139 113.598 21.7384 113.477 21.6873C113.356 21.6367 113.226 21.6111 113.095 21.6134C112.818 21.6123 112.551 21.7161 112.349 21.9039Z" fill="#17191F"/>
<path d="M118.975 22.1273C118.975 21.7359 118.683 21.4867 118.185 21.4867C117.686 21.4867 117.457 21.7034 117.457 21.9934C117.457 22.405 117.961 22.5075 118.546 22.6267C119.356 22.7914 120.323 22.9881 120.329 24.0789C120.329 24.955 119.532 25.5273 118.192 25.5273C116.753 25.5273 116.076 24.9461 115.922 24.8146L115.909 24.8034L116.572 23.9489C117.026 24.2934 117.572 24.4967 118.141 24.535C118.64 24.535 118.869 24.3906 118.869 24.1734C118.869 23.8592 118.432 23.7464 117.907 23.6109C117.118 23.4073 116.131 23.1526 116.131 22.0873C116.131 21.1389 116.961 20.5484 118.225 20.5484C119.408 20.5484 120.239 21.1173 120.239 21.91C120.24 22.0223 120.226 22.1345 120.199 22.2434L118.943 22.3156C118.961 22.2545 118.973 22.1911 118.975 22.1273Z" fill="#17191F"/>
<path fill-rule="evenodd" clip-rule="evenodd" d="M36.247 38.7L35.8392 39.9311H34.5359L36.7498 33.9495H37.8892L40.1209 39.9167H38.8103L38.3992 38.7H36.247ZM37.317 35.4411L36.5781 37.7006H38.067L37.317 35.4411Z" fill="#17191F"/>
<path d="M45.2503 37.925C45.2392 38.2145 45.1687 38.4984 45.0437 38.76C44.9187 39.0211 44.7409 39.2545 44.5225 39.4461C44.0487 39.8317 43.4481 40.0295 42.8364 40C42.497 40.0156 42.1575 39.9545 41.8453 39.82C41.5331 39.6856 41.2559 39.4823 41.0342 39.2256C40.5675 38.6173 40.3353 37.8634 40.3787 37.0995V36.7378C40.3687 36.215 40.472 35.6961 40.6814 35.2167C40.8631 34.8028 41.1648 34.4528 41.5481 34.21C42.0064 33.9489 42.5331 33.8289 43.0603 33.8656C43.5881 33.9011 44.0931 34.0917 44.5114 34.4128C44.9503 34.8173 45.2114 35.3761 45.2392 35.97H44.0125C44.0148 35.66 43.9009 35.3606 43.692 35.13C43.4564 34.9378 43.1548 34.8445 42.8514 34.8689C42.6731 34.8578 42.4948 34.8923 42.3342 34.97C42.1731 35.0473 42.0353 35.1645 41.9342 35.3111C41.702 35.7289 41.5931 36.2034 41.6203 36.6795V37.1323C41.5848 37.6222 41.687 38.1123 41.9153 38.5478C42.0153 38.6978 42.1525 38.8184 42.3148 38.8973C42.4764 38.9761 42.657 39.0106 42.837 38.9973C42.987 39.02 43.1414 39.0095 43.287 38.9656C43.4331 38.9211 43.567 38.845 43.6792 38.7428C43.7914 38.64 43.8792 38.5134 43.9359 38.3728C43.992 38.2317 44.0159 38.08 44.0053 37.9284L45.2503 37.925Z" fill="#17191F"/>
<path d="M50.7225 37.925C50.7137 38.2134 50.6464 38.4967 50.5242 38.7578C50.402 39.0189 50.2281 39.2534 50.0131 39.4461C49.5392 39.8311 48.9387 40.0284 48.327 40C47.987 40.0156 47.6481 39.9545 47.3359 39.82C47.0237 39.6856 46.7459 39.4823 46.5248 39.2256C46.0581 38.6173 45.8259 37.8634 45.8692 37.0995V36.7378C45.8575 36.215 45.9609 35.6956 46.1714 35.2167C46.3509 34.8028 46.6514 34.4517 47.0348 34.21C47.4942 33.9489 48.0209 33.8295 48.5492 33.8656C49.077 33.9011 49.5825 34.0917 50.002 34.4128C50.4392 34.8184 50.7003 35.3767 50.7298 35.97H49.5031C49.5037 35.6606 49.3898 35.3611 49.1825 35.13C48.9464 34.9389 48.6453 34.8456 48.3414 34.8689C48.1637 34.8578 47.9853 34.8923 47.8248 34.97C47.6637 35.0473 47.5259 35.1645 47.4242 35.3111C47.1887 35.7278 47.0798 36.2028 47.1109 36.6795V37.1323C47.0764 37.6217 47.1775 38.1117 47.4025 38.5478C47.5025 38.6978 47.6414 38.8184 47.8037 38.8973C47.9659 38.9761 48.147 39.0106 48.327 38.9973C48.4775 39.02 48.632 39.0095 48.7775 38.9656C48.9237 38.9211 49.0575 38.845 49.1698 38.7428C49.282 38.64 49.3698 38.5134 49.4259 38.3728C49.4825 38.2317 49.5064 38.08 49.4959 37.9284L50.7225 37.925Z" fill="#17191F"/>
<path fill-rule="evenodd" clip-rule="evenodd" d="M54.8225 39.9167L53.7225 37.7261H52.7437V39.9167H51.5203V33.935H53.7303C54.312 33.8984 54.8881 34.0667 55.3581 34.4095C55.5498 34.5728 55.7009 34.7778 55.8003 35.0095C55.8992 35.24 55.9437 35.4911 55.9292 35.7417C55.9425 36.1 55.8514 36.455 55.667 36.7628C55.4714 37.0545 55.1925 37.2817 54.8659 37.415L56.1403 39.8589V39.9167H54.8225ZM52.762 34.9345L52.7437 36.7306H53.7337C53.9987 36.7495 54.2609 36.6639 54.462 36.4917C54.5475 36.4072 54.6142 36.3056 54.6575 36.1939C54.7009 36.0828 54.7198 35.9628 54.7131 35.8434C54.7264 35.5989 54.6409 35.3589 54.4764 35.1767C54.3775 35.09 54.2625 35.0239 54.1375 34.9823C54.012 34.9406 53.8798 34.9245 53.7487 34.9345H52.762Z" fill="#17191F"/>
<path fill-rule="evenodd" clip-rule="evenodd" d="M63.3898 39.9239L61.5548 39.9167V33.935H63.3748C63.8675 33.9295 64.3525 34.0545 64.7803 34.2973C65.1942 34.5361 65.5303 34.8878 65.7487 35.3111C65.9848 35.7711 66.1037 36.2823 66.0948 36.7989V37.0745C66.1042 37.5878 65.9881 38.0967 65.7559 38.5556C65.5392 38.9761 65.2037 39.3261 64.7914 39.5617C64.3642 39.8034 63.8809 39.9284 63.3898 39.9239ZM63.4003 34.9239L62.7814 34.9345V38.9178H63.3748C63.5814 38.9289 63.7881 38.8923 63.9781 38.8095C64.1675 38.7273 64.3353 38.6017 64.467 38.4428C64.7453 38.0489 64.8825 37.5734 64.857 37.0928V36.7773C64.8937 36.2889 64.7653 35.8022 64.4925 35.3939C64.3603 35.2361 64.1925 35.1111 64.0031 35.0295C63.8131 34.9478 63.607 34.9117 63.4003 34.9239Z" fill="#17191F"/>
<path d="M68.2903 33.935L68.2937 39.9167H67.0631V33.935H68.2903Z" fill="#17191F"/>
<path d="M73.7881 33.935L73.7842 34.9345H71.9637V39.9167H70.737V34.9345H68.9381V33.935H73.7881Z" fill="#17191F"/>
<path fill-rule="evenodd" clip-rule="evenodd" d="M81.0114 39.9239L79.1764 39.9167V33.935H80.997C81.4892 33.9295 81.9748 34.0545 82.4025 34.2973C82.8164 34.5361 83.1525 34.8878 83.3709 35.3111C83.607 35.7711 83.7259 36.2823 83.7164 36.7989V37.0745C83.727 37.5884 83.6092 38.0967 83.3742 38.5556C83.1598 38.9773 82.8259 39.3267 82.4131 39.5617C81.9864 39.8034 81.5025 39.9284 81.0114 39.9239ZM81.0225 34.9239L80.4037 34.9345V38.9178H80.997C81.2037 38.9289 81.4103 38.8923 81.5998 38.8095C81.7898 38.7273 81.957 38.6017 82.0892 38.4428C82.3675 38.0489 82.5048 37.5734 82.4787 37.0928V36.7773C82.5153 36.2889 82.3875 35.8022 82.1148 35.3939C81.9825 35.2361 81.8148 35.1111 81.6248 35.0295C81.4353 34.9478 81.2287 34.9117 81.0225 34.9239Z" fill="#17191F"/>
<path d="M88.2898 33.935L89.8187 38.28L91.3409 33.935H92.9537V39.9167H91.7231V38.2834L91.8431 35.4595L90.2375 39.9167H89.3964L87.7909 35.4628L87.9148 38.2839V39.9173H86.6875V33.9345L88.2898 33.935Z" fill="#17191F"/>
<path d="M100.319 33.935L101.848 38.28L103.37 33.935H104.983V39.9167H103.753V38.2834L103.873 35.4595L102.267 39.9167H101.426L99.8314 35.4628L99.9548 38.2839V39.9173H98.7281V33.9345L100.319 33.935Z" fill="#17191F"/>
<path fill-rule="evenodd" clip-rule="evenodd" d="M109.928 39.4639C109.474 39.7878 108.923 39.9473 108.365 39.9167H106.046V33.935H108.129C108.708 33.8973 109.284 34.0428 109.774 34.3517C109.96 34.495 110.109 34.6817 110.206 34.8945C110.304 35.1078 110.348 35.3411 110.335 35.575C110.34 35.85 110.261 36.12 110.109 36.35C109.957 36.5745 109.738 36.745 109.483 36.8389C109.774 36.9039 110.032 37.0695 110.211 37.3056C110.393 37.5528 110.486 37.8517 110.477 38.1573C110.493 38.4023 110.452 38.6478 110.357 38.875C110.261 39.1017 110.114 39.3034 109.928 39.4639ZM107.284 34.9339L107.269 36.4406H108.18C108.799 36.4406 109.108 36.1834 109.108 35.6984C109.118 35.5889 109.102 35.4789 109.061 35.3767C109.02 35.275 108.955 35.1839 108.871 35.1117C108.653 34.9784 108.399 34.9167 108.143 34.9339H107.284ZM108.734 37.345C108.625 37.3089 108.509 37.2984 108.395 37.3134H107.269V38.9284H108.321C108.566 38.9434 108.806 38.8684 108.999 38.7184C109.08 38.6467 109.144 38.5584 109.186 38.4595C109.228 38.3606 109.248 38.2539 109.243 38.1461C109.256 38.0328 109.244 37.9173 109.206 37.8095C109.168 37.7011 109.106 37.6034 109.024 37.5228C108.942 37.4423 108.843 37.3817 108.734 37.345Z" fill="#17191F"/>
<path d="M114.948 36.3606L114.963 37.3239H112.607V38.9284H115.37V39.9173H111.365V33.9345H115.349V34.9339H112.593V36.3606H114.948Z" fill="#17191F"/>
<path fill-rule="evenodd" clip-rule="evenodd" d="M119.401 39.9167L118.287 37.7261H117.308V39.9167H116.08V33.935H118.294C118.876 33.8984 119.452 34.0667 119.921 34.4095C120.114 34.5728 120.265 34.7778 120.364 35.0095C120.463 35.24 120.508 35.4911 120.493 35.7417C120.506 36.1 120.415 36.455 120.231 36.7628C120.034 37.0539 119.756 37.2806 119.43 37.415L120.719 39.8589V39.9167H119.401ZM118.701 34.9823C118.576 34.9406 118.444 34.9245 118.313 34.9345H117.308V36.7306H118.298C118.563 36.7495 118.825 36.6639 119.026 36.4917C119.111 36.4072 119.178 36.3056 119.221 36.1939C119.265 36.0828 119.284 35.9628 119.277 35.8434C119.29 35.5989 119.205 35.3589 119.04 35.1767C118.941 35.09 118.826 35.0239 118.701 34.9823Z" fill="#17191F"/>
<path d="M60.437 37.3239H58.0809V38.9284H60.8448V39.9173H56.8687V33.9345H60.837V34.9339H58.0809V36.3606H60.437V37.3239Z" fill="#17191F"/>
<path d="M78.0587 37.3239H75.7031V38.9284H78.4664V39.9173H74.4614V33.9345H78.4592V34.9339H75.7031V36.3606H78.0587V37.3239Z" fill="#17191F"/>
<path d="M97.5959 37.3239H95.2437V38.9284H98.0109V39.9173H94.0059V33.9345H98.0109V34.9339H95.2437V36.3606H97.5959V37.3239Z" fill="#17191F"/>
</g>
<defs>
<clipPath id="clip0_21485_2274">
<rect width="126.667" height="40" fill="white" transform="translate(0.802734)"/>
</clipPath>
</defs>
</svg>
