<svg width="103" height="40" viewBox="0 0 103 40" fill="none" xmlns="http://www.w3.org/2000/svg">
<path fill-rule="evenodd" clip-rule="evenodd" d="M96.7506 39.2986H35.6805V39.2894H6.9357C3.61352 39.2894 0.896484 36.7289 0.896484 33.54V6.46071C0.896484 3.27183 3.61352 0.711304 6.9357 0.711304H35.6805V0.702148H96.7506C99.9832 0.702148 102.605 3.18917 102.605 6.26004V33.7407C102.605 36.8109 99.9832 39.2986 96.7506 39.2986ZM35.6805 1.25853H6.9357C3.8863 1.25853 1.44199 3.60186 1.44199 6.46071V33.54C1.44199 36.3988 3.8863 38.7422 6.9357 38.7422H35.6805V1.25853ZM24.8472 24.0972H12.3321L11.8739 25.594H15.2122L15.8474 27.6691H21.3319L21.9664 25.594H25.3054L24.8472 24.0972ZM14.372 15.6677C13.9075 16.3105 13.7193 17.0944 13.8425 17.8782C13.9663 18.6621 14.3895 19.3463 15.0303 19.8116L18.0279 21.9926C18.1867 22.1105 18.2923 22.2818 18.3217 22.4761C18.3511 22.6705 18.3042 22.8712 18.193 23.0305L18.6456 23.3603L20.2266 21.1674C20.5974 20.6551 20.7912 20.0537 20.7912 19.434C20.7912 19.2754 20.7793 19.1218 20.7492 18.9632C20.6261 18.1793 20.2035 17.4951 19.562 17.0291L16.5644 14.8425C16.4056 14.7246 16.3 14.554 16.2643 14.3596C16.2587 14.3175 16.2587 14.2768 16.2587 14.2418C16.2587 14.0881 16.3056 13.9351 16.3993 13.8109L15.9475 13.4811C15.9449 13.4936 14.372 15.6677 14.372 15.6677ZM16.1762 6.89158C15.6417 7.63403 15.3591 8.50631 15.3591 9.40807C15.3591 9.63824 15.3773 9.8621 15.4123 10.0916C15.5941 11.2291 16.2056 12.2256 17.1346 12.8979L20.9024 15.6326C21.4026 15.9919 21.7258 16.5288 21.8258 17.1358C21.8433 17.2593 21.8552 17.3835 21.8552 17.5007C21.8552 17.9849 21.702 18.4502 21.4145 18.8509L21.7726 19.1161L24.7409 15.0018C25.4166 14.0705 25.6874 12.933 25.5055 11.8018C25.3236 10.6635 24.7115 9.66702 23.7832 8.99544L19.2332 5.68316C18.945 5.47614 18.7568 5.16386 18.7037 4.81649C18.6449 4.46842 18.7338 4.11473 18.9394 3.82631L18.5806 3.56666L16.1762 6.89158ZM8.48733 28.9182H11.9152C12.7616 28.9182 13.4255 29.1484 13.8487 29.573C14.1894 29.9147 14.3538 30.3274 14.3538 30.834V30.8579C14.3538 31.6944 13.9075 32.1604 13.3842 32.4551C14.2426 32.7849 14.7659 33.2804 14.7659 34.2768V34.3C14.7659 35.6558 13.6662 36.3337 12.0026 36.3337H8.48733V28.9182ZM11.5682 31.9126C12.2852 31.9126 12.7378 31.6768 12.7378 31.1288V31.1056C12.7378 30.6165 12.3552 30.3449 11.6738 30.3449H10.069V31.9126H11.5682ZM11.997 34.8951C12.7141 34.8951 13.1492 34.6425 13.1492 34.0937V34.0705C13.1492 33.5751 12.7784 33.2684 11.9439 33.2684H10.0627V34.8951H11.997ZM15.471 28.9182H18.8982C19.7446 28.9182 20.4092 29.1484 20.8317 29.573C21.1675 29.9147 21.3375 30.3274 21.3375 30.834V30.8579C21.3375 31.6944 20.8968 32.1604 20.3679 32.4551C21.22 32.7849 21.7489 33.2804 21.7489 34.2768V34.3C21.7489 35.6558 20.6499 36.3337 18.9856 36.3337H15.471V28.9182ZM18.5512 31.9126C19.2682 31.9126 19.7208 31.6768 19.7208 31.1288V31.1056C19.7208 30.6165 19.3389 30.3449 18.6575 30.3449H17.052V31.9126H18.5512ZM18.9863 34.8951C19.7034 34.8951 20.1385 34.6425 20.1385 34.0937V34.0705C20.1385 33.5751 19.7677 33.2684 18.9331 33.2684H17.052V34.8951H18.9863ZM22.4603 28.9182H25.8874C26.7339 28.9182 27.3985 29.1484 27.8217 29.573C28.1568 29.9147 28.3268 30.3274 28.3268 30.834V30.8579C28.3268 31.6944 27.8861 32.1604 27.3572 32.4551C28.2093 32.7849 28.7381 33.2804 28.7381 34.2768V34.3C28.7381 35.6558 27.6391 36.3337 25.9756 36.3337H22.4603V28.9182ZM25.5405 31.9126C26.2582 31.9126 26.7101 31.6768 26.7101 31.1288V31.1056C26.7101 30.6165 26.3282 30.3449 25.6468 30.3449H24.0413V31.9126H25.5405ZM25.9756 34.8951C26.6926 34.8951 27.1278 34.6425 27.1278 34.0937V34.0705C27.1278 33.5751 26.757 33.2684 25.9231 33.2684H24.0413V34.8951H25.9756ZM29.5909 34.9779C29.5909 35.1954 29.4202 35.3674 29.1971 35.3674C28.9732 35.3674 28.7969 35.1961 28.7969 34.9779C28.7969 34.766 28.9732 34.5891 29.1971 34.5891C29.4202 34.5891 29.5909 34.7596 29.5909 34.9779ZM28.8969 34.9779C28.8969 35.1491 29.0264 35.2846 29.1971 35.2846C29.367 35.2846 29.4909 35.1491 29.4909 34.9779C29.4909 34.8067 29.367 34.6656 29.1971 34.6656C29.0264 34.6656 28.8969 34.8067 28.8969 34.9779ZM29.132 35.1786H29.0439V34.7898C29.0788 34.7835 29.1264 34.7779 29.1908 34.7779C29.2614 34.7779 29.2971 34.7891 29.3265 34.8067C29.3496 34.8249 29.3615 34.8544 29.3615 34.8895C29.3615 34.9309 29.3265 34.9667 29.2789 34.9779V34.9835C29.3139 34.9954 29.3377 35.0256 29.3496 35.0782C29.3615 35.1372 29.3671 35.1611 29.3789 35.1723H29.2852C29.2761 35.1637 29.2707 35.1406 29.2633 35.1091C29.261 35.0995 29.2586 35.0892 29.2558 35.0782C29.2495 35.0368 29.2264 35.0193 29.1733 35.0193H29.132V35.1786ZM29.1383 34.9604H29.1796C29.2264 34.9604 29.2677 34.9428 29.2677 34.9014C29.2677 34.8663 29.2439 34.8425 29.1852 34.8425H29.1851C29.1614 34.8425 29.1439 34.8425 29.1383 34.8481V34.9604ZM44.034 6.84391H45.3386L48.09 13.3281H46.6139L46.0263 11.8839H43.3106L42.723 13.3281H41.2826L44.034 6.84391ZM45.5212 10.6334L44.6678 8.54777L43.8157 10.6341L45.5212 10.6334ZM47.8549 10.1267V10.1099C47.8549 8.27619 49.2303 6.77935 51.2058 6.77935C52.4161 6.77935 53.1394 7.18637 53.7382 7.77584L52.8393 8.81233C52.3454 8.36461 51.8403 8.08742 51.1995 8.08742C50.118 8.08742 49.3359 8.98918 49.3359 10.0916V10.1099C49.3359 11.2116 50.1005 12.1309 51.1995 12.1309C51.9341 12.1309 52.3811 11.8362 52.8869 11.3765L53.7858 12.2902C53.1275 12.9976 52.393 13.4397 51.1527 13.4397C49.2597 13.4397 47.8549 11.9772 47.8549 10.1267ZM53.9208 10.1267V10.1099C53.9208 8.27619 55.2968 6.77935 57.2717 6.77935C58.4826 6.77935 59.206 7.18637 59.8055 7.77584L58.9059 8.81233C58.412 8.36461 57.9069 8.08742 57.2661 8.08742C56.1846 8.08742 55.4025 8.98918 55.4025 10.0916V10.1099C55.4025 11.2116 56.1608 12.1309 57.2661 12.1309C58.0006 12.1309 58.4477 11.8362 58.9527 11.3765L59.8524 12.2902C59.1941 12.9976 58.4589 13.4397 57.2185 13.4397C55.3262 13.4397 53.9215 11.9779 53.9215 10.1274L53.9208 10.1267ZM60.4575 6.89163H63.3907C64.2078 6.89163 64.843 7.12111 65.2607 7.54567C65.6188 7.90497 65.8133 8.41163 65.8133 9.01935V9.0369C65.8133 10.0741 65.2544 10.7281 64.4373 11.0348L66.0071 13.3337H64.3554L62.9794 11.2706H61.8685V13.3337H60.4575V6.89163ZM63.2914 10.0151C63.9791 10.0151 64.3729 9.65023 64.3729 9.10146V9.08391C64.3729 8.4769 63.9497 8.16461 63.262 8.16461H61.8559V10.0151H63.29H63.2914ZM66.5597 6.89163H71.4035V8.15268H67.9645V9.46146H70.9914V10.7225H67.9645V12.0727H71.4503V13.3337H66.5597V6.89163ZM72.1793 6.89163H74.683C76.6991 6.89163 78.0983 8.28251 78.0983 10.0916V10.1099C78.0983 11.9253 76.7054 13.3281 74.683 13.3281H72.1793V6.89163ZM74.683 12.0495C75.8415 12.0495 76.6173 11.265 76.6173 10.1267V10.1099C76.6173 8.96602 75.8352 8.17023 74.683 8.17023H73.5896V12.0544H74.683V12.0495ZM78.8922 6.89163H80.3033V13.3337H78.8922V6.89163ZM82.8832 8.19409H80.9259V6.88461H86.246V8.19339H84.2942V13.3274H82.8832V8.19409ZM86.8105 6.89163H91.6543V8.15268H88.2153V9.46146H91.243V10.7225H88.2153V12.0727H91.7012V13.3337H86.8105V6.89163ZM92.4301 6.89163H94.9338C96.9506 6.89163 98.3498 8.28251 98.3498 10.0916V10.1099C98.3498 11.9253 96.9562 13.3281 94.9338 13.3281H92.4301V6.89163ZM94.9338 12.0495C96.0923 12.0495 96.8681 11.265 96.8681 10.1267V10.1099C96.8681 8.96602 96.086 8.17023 94.9338 8.17023H93.8411V12.0544H94.9338V12.0495ZM41.5477 20.5485V20.5309C41.5477 18.6972 42.9224 17.2004 44.8979 17.2004C46.1082 17.2004 46.8315 17.6074 47.4317 18.1969L46.5321 19.2341C46.0382 18.7801 45.5331 18.5092 44.8923 18.5092C43.8108 18.5092 43.0287 19.4109 43.0287 20.5134V20.5309C43.0287 21.6327 43.7926 22.552 44.8923 22.552C45.6269 22.552 46.0739 22.2579 46.579 21.7983L47.4786 22.712C46.8203 23.4193 46.0851 23.8615 44.8447 23.8615C42.9524 23.8615 41.547 22.399 41.547 20.5492L41.5477 20.5485ZM48.0781 17.3127H49.4884V19.8587H52.0929V17.3127H53.5039V23.7548H52.0929V21.1674H49.4891V23.7548H48.0781V17.3127ZM56.7253 17.265H58.03L60.7807 23.7492H59.306L58.7184 22.305H56.002L55.4144 23.7492H53.9733L56.7253 17.265ZM58.2119 21.0551L57.3598 18.9688L56.5078 21.0551H58.2119ZM61.2515 17.3127H64.1847C65.0018 17.3127 65.637 17.5422 66.054 17.9667C66.4128 18.3267 66.6066 18.8334 66.6066 19.4404V19.4579C66.6066 20.4951 66.0484 21.1492 65.2313 21.4565L66.8004 23.7548H65.1494L63.7734 21.6916H62.6625V23.7548H61.2515V17.3127ZM64.0903 20.4425C64.778 20.4425 65.1725 20.0776 65.1725 19.5288V19.5113C65.1725 18.9036 64.7493 18.592 64.0616 18.592H62.6562V20.4425H64.0903ZM67.4174 17.3127H68.8284V23.7548H67.4174V17.3127ZM71.4091 18.6208H69.4517V17.3127L74.6712 17.3127H76.3235L77.8577 19.9L79.4156 17.3127H81.0204L78.5509 21.1849V23.7548H77.1406V21.2144L74.7719 17.4717V18.6208H72.8201V23.7548H71.4091V18.6208ZM42.4817 33.7225V34.1765H41.5002V29.4432H42.4817V31.1997C42.723 30.8755 43.0518 30.6341 43.5632 30.6341C44.3747 30.6341 45.1393 31.2706 45.1393 32.432V32.4432C45.1393 33.6046 44.3803 34.2411 43.5632 34.2411C43.0406 34.2411 42.7168 33.9997 42.4817 33.7225ZM44.1571 32.4432V32.432C44.1571 31.8537 43.7696 31.4706 43.3107 31.4706C42.8525 31.4706 42.4705 31.8544 42.4705 32.432V32.4432C42.4705 33.0207 42.8525 33.4046 43.3107 33.4046C43.7696 33.4046 44.1571 33.0271 44.1571 32.4432ZM46.4797 33.7225V34.1765H45.4975V29.4432H46.479V31.1997C46.7203 30.8755 47.0498 30.6341 47.5612 30.6341C48.3727 30.6341 49.1359 31.2706 49.1359 32.432V32.4432C49.1359 33.6046 48.3783 34.2411 47.5612 34.2411C47.0379 34.2411 46.7084 33.9997 46.4797 33.7225ZM48.1544 32.4432V32.432C48.1544 31.8537 47.7669 31.4706 47.308 31.4706C46.8497 31.4706 46.4671 31.8544 46.4671 32.432V32.4432C46.4671 33.0207 46.8497 33.4046 47.308 33.4046C47.7669 33.4046 48.1544 33.0271 48.1544 32.4432ZM50.4763 33.7225V34.1765H49.4948V29.4432H50.4763V31.1997C50.7176 30.8755 51.0464 30.6341 51.5578 30.6341C52.3693 30.6341 53.1332 31.2706 53.1332 32.432V32.4432C53.1332 33.6046 52.3749 34.2411 51.5578 34.2411C51.0289 34.2411 50.7057 33.9997 50.4763 33.7225ZM52.1517 32.4432V32.432C52.1517 31.8537 51.7634 31.4706 51.3052 31.4706C50.8463 31.4706 50.4651 31.8544 50.4651 32.432V32.4432C50.4651 33.0207 50.847 33.4046 51.3045 33.4046C51.7634 33.4046 52.1517 33.0271 52.1517 32.4432ZM53.3864 33.1386H54.4323V34.1765H53.3864V33.1386ZM54.6029 32.4551V32.4432C54.6029 31.4467 55.4025 30.6341 56.4841 30.6341C57.56 30.6341 58.3533 31.4299 58.3533 32.432V32.4432C58.3533 33.4397 57.5537 34.253 56.4722 34.253C55.4018 34.253 54.6029 33.4572 54.6029 32.4551ZM57.3837 32.4551V32.4432C57.3837 31.9309 57.0129 31.4825 56.4722 31.4825C55.9083 31.4825 55.5732 31.919 55.5732 32.432V32.4432C55.5732 32.9555 55.9433 33.4046 56.4841 33.4046C57.0486 33.4046 57.3837 32.9681 57.3837 32.4551ZM58.7003 30.6986H58.701V34.1758H59.6817V32.8916C59.6817 32.06 60.0812 31.6656 60.7339 31.6656H60.787V30.6341C60.205 30.6102 59.8818 30.9232 59.6817 31.4004V30.6986H58.701V30.6979L58.7003 30.6986ZM60.9871 34.8663L61.3222 34.1295C61.6748 34.3295 62.0329 34.4474 62.4919 34.4474C63.162 34.4474 63.4796 34.1232 63.4796 33.4986V33.3274C63.1858 33.6755 62.8738 33.8937 62.3506 33.8937C61.5391 33.8937 60.8108 33.3042 60.8108 32.2727V32.2607C60.8108 31.2235 61.551 30.6397 62.3506 30.6397C62.8857 30.6397 63.2033 30.8642 63.4677 31.159V30.7042H64.4492V33.3983C64.4492 34.0228 64.3023 34.4769 64.0085 34.766C63.6853 35.0902 63.1851 35.2313 62.515 35.2313C61.9567 35.2256 61.4278 35.0958 60.9871 34.8663ZM63.4845 32.2663V32.2544C63.4845 31.7828 63.1152 31.453 62.6381 31.453C62.1624 31.453 61.7986 31.7828 61.7986 32.2544V32.2663C61.7986 32.7435 62.1624 33.0677 62.6381 33.0677C63.1152 33.0741 63.4845 32.7442 63.4845 32.2663Z" fill="#17191F"/>
</svg>
