<svg width="249" height="167" viewBox="0 0 249 167" fill="none" xmlns="http://www.w3.org/2000/svg">
<g clip-path="url(#clip0_5468_14680)">
<rect width="248.25" height="165.11" transform="translate(0.5 0.900391)" fill="#F4F5F7"/>
<path fill-rule="evenodd" clip-rule="evenodd" d="M119.539 5.26372C117.077 5.61276 107.559 9.44675 107.031 10.3019C106.905 10.5058 104.717 11.7629 102.169 13.0952C95.4931 16.5866 93.3961 19.2646 89.592 29.1586C87.5758 34.4016 86.3619 38.6439 85.9697 41.8147C85.8071 43.1296 85.3874 45.0181 85.0365 46.0115C84.6861 47.0049 84.27 49.7527 84.1115 52.1175C83.8314 56.3001 83.8447 56.3796 84.5869 55.0394C85.6464 53.1261 87.5781 51.1356 88.3754 51.1356C89.3036 51.1356 88.7837 55.3297 87.4936 58.246C86.1984 61.1739 85.7346 67.3455 86.7243 68.4786C87.1078 68.9176 87.7728 71.1368 88.2022 73.4102C89.2067 78.7309 90.7654 81.9522 93.9243 85.2364C95.3214 86.6891 96.6151 87.8772 96.7993 87.8772C96.9835 87.8772 96.9118 87.2393 96.6399 86.4599C96.2335 85.2934 96.2831 84.9067 96.9215 84.2784C97.6453 83.5656 97.7367 83.567 98.2809 84.3004C98.6024 84.7326 99.1172 86.2142 99.4259 87.592C99.734 88.9703 100.911 91.9096 102.041 94.1242L104.096 98.1511L102.305 100.018C100.056 102.362 98.4848 105.156 97.2099 109.078C96.4282 111.483 95.754 112.568 94.0579 114.149C91.8736 116.185 90.1289 116.938 81.5667 119.542C79.6722 120.118 76.636 121.27 74.8196 122.102C71.0981 123.807 69.6767 125.564 67.5801 131.049C66.9527 132.69 65.2135 137.237 63.7158 141.153C61.0364 148.155 58.1439 156.763 58.1439 157.732C58.1439 158.738 53.8801 169.099 51.4533 173.99C50.0268 176.866 48.9493 179.655 48.953 180.466C48.965 183.441 53.21 187.803 57.1735 188.914C58.0861 189.169 60.2795 189.499 62.0477 189.645C63.8159 189.792 65.4964 189.982 65.7825 190.068C66.1559 190.18 66.0769 191.429 65.5014 194.507C64.5962 199.35 61.486 210.434 60.7875 211.306C60.5349 211.622 59.7477 211.88 59.039 211.88C57.2428 211.88 56.1884 213.05 56.5402 214.653C56.7363 215.546 56.463 216.642 55.6381 218.27L54.4542 220.606H121.975C186.354 220.606 189.495 220.568 189.495 219.791C189.495 216.718 188.029 207.743 185.801 197.183C184.462 190.838 183.298 181.042 183.591 178.592L183.754 177.223L187.428 177.353C189.695 177.434 191.933 177.229 193.271 176.819C196.971 175.686 201.092 171.771 201.092 169.39C201.092 168.794 199.623 165.851 197.829 162.85C194.185 156.756 189.954 146.98 189.954 144.655C189.954 143.806 189.143 141.497 188.117 139.427C187.107 137.387 186.28 135.427 186.28 135.072C186.28 134.022 182.463 126.546 179.652 122.093C177.958 119.408 176.467 117.61 175.397 116.962C173.776 115.98 169.374 114.974 166.695 114.974C165.189 114.974 155.656 112.138 153.398 111.018C152.365 110.506 151.683 109.608 150.911 107.743C150.325 106.331 148.944 103.83 147.842 102.187L145.839 99.1987L147.939 95.0308C149.173 92.5829 150.455 89.109 151.046 86.6142C151.902 83.0021 152.191 82.365 152.977 82.3591C154.699 82.3458 155.968 80.6892 155.968 78.4539C155.968 76.5195 156.968 77.3517 157.662 79.8648C158.179 81.7345 158.877 82.6847 161.607 85.2359C163.432 86.9403 165.079 88.3356 165.269 88.336C166.013 88.3374 165.539 87.3389 163.972 85.6043C162.421 83.8871 162.309 83.5431 161.909 79.2884C161.637 76.3936 161.651 73.6412 161.949 71.5731C163.194 62.9205 163.413 58.3044 162.797 53.6616C162.463 51.1356 162.176 46.6922 162.161 43.7873C162.135 38.8896 162.031 38.2885 160.733 35.5204C158.285 30.3004 152.592 23.9138 147.171 20.3071C145.596 19.2595 138.624 13.1154 136.429 10.8416C134.837 9.19232 128.136 5.7037 126.006 5.41574C124.93 5.26969 123.636 5.09104 123.131 5.01755C122.625 4.94453 121.009 5.05521 119.539 5.26372Z" fill="#D2D3D6"/>
</g>
<defs>
<clipPath id="clip0_5468_14680">
<rect width="248.25" height="165.11" fill="white" transform="translate(0.5 0.900391)"/>
</clipPath>
</defs>
</svg>
