<svg width="200" height="60" viewBox="0 0 200 60" fill="none" xmlns="http://www.w3.org/2000/svg">
<g clip-path="url(#clip0_48_33925)">
<path d="M11.6831 31.105H9.47585C9.05307 31.105 8.73224 31.105 8.46505 31.1393V29.9132V28.3416V24.7812C8.46505 24.6064 8.36848 24.5131 8.17748 24.4959C7.98756 24.4787 7.81802 24.4959 7.56479 24.4959H6.31257C6.08938 24.4959 5.86941 24.4959 5.64944 24.5302C5.42947 24.5646 5.41337 24.6161 5.41337 24.7898V25.1438C5.41337 26.1522 5.42088 27.1831 5.43805 28.2397C5.45415 29.2953 5.47453 30.2511 5.49707 31.105C5.24705 31.105 4.95197 31.0792 4.6086 31.0707C4.26631 31.0621 3.90684 31.0707 3.53558 31.0707H2.38744C2.01188 31.0707 1.68997 31.105 1.39382 31.105V29.1548V26.9911V24.7094V22.4738C1.39382 21.0042 1.39382 19.6461 1.37236 18.3942C1.35197 17.1413 1.34768 15.898 1.34768 14.6676C1.70714 14.6676 2.04085 14.6933 2.35418 14.7019C2.6675 14.7105 2.99692 14.7019 3.35638 14.7019H4.37146C4.72234 14.7019 5.06035 14.7019 5.39084 14.6676V21.0557C5.39084 21.1308 5.4123 21.2037 5.44985 21.2681C5.47131 21.3003 5.5035 21.326 5.53891 21.3432C5.57432 21.3593 5.61403 21.3646 5.65266 21.3625C5.85546 21.3625 6.07543 21.3839 6.29111 21.3839H8.18178C8.21933 21.3893 8.25903 21.385 8.29659 21.3732C8.33307 21.3603 8.36741 21.3399 8.39531 21.312C8.42321 21.2842 8.44359 21.2509 8.45647 21.2134C8.46935 21.1769 8.47364 21.1372 8.46827 21.0975V20.6716V17.6916V14.7094C8.77945 14.7427 9.09385 14.7588 9.40717 14.7566H11.5425C11.8633 14.7588 12.1831 14.7427 12.5028 14.7105C12.5028 16.1158 12.4921 17.4888 12.4685 18.8276V27.0093C12.4685 28.347 12.4685 29.7308 12.5028 31.149C12.2614 31.1061 11.9953 31.1061 11.682 31.1061L11.6831 31.105ZM25.1045 28.5497C24.8587 29.1741 24.4692 29.7308 23.9671 30.1728C23.4456 30.6019 22.8425 30.9194 22.1955 31.1061C21.4401 31.327 20.6557 31.4343 19.8692 31.4247C17.9753 31.4247 16.5857 30.9859 15.7005 30.1084C14.8152 29.232 14.3742 27.9436 14.3764 26.2466V26.1061V22.772C14.3764 21.592 14.4021 20.4292 14.4021 19.2921V16.7969C14.4021 16.0053 14.4021 15.294 14.3678 14.6676C14.635 14.6676 14.9225 14.6933 15.2133 14.7019C15.5052 14.7105 15.8485 14.7019 16.178 14.7019H17.3744C17.7639 14.7019 18.1276 14.7019 18.4571 14.6676C18.4399 15.7242 18.427 16.8903 18.4195 18.1679V24.2835C18.4195 24.969 18.441 25.6416 18.4571 26.3056C18.4356 26.7754 18.5536 27.241 18.7951 27.6433C18.9389 27.7999 19.117 27.9211 19.3155 27.9951C19.514 28.0692 19.7265 28.0949 19.9378 28.0692C20.1449 28.0949 20.3563 28.0692 20.5516 27.9941C20.7469 27.9211 20.9218 27.801 21.0624 27.6433C21.2866 27.2399 21.3929 26.7808 21.3703 26.3185C21.3703 25.6534 21.3961 24.9647 21.4047 24.2363C21.4133 23.5079 21.4047 22.7635 21.4047 21.9922V18.1089C21.4047 16.8313 21.3886 15.6953 21.3575 14.7019C21.6708 14.7191 21.9755 14.7276 22.2717 14.7276H24.3136C24.7053 14.7276 25.0905 14.7105 25.4682 14.6762C25.451 15.4689 25.4382 16.2102 25.4296 16.8988V19.1473C25.4296 20.3015 25.4296 21.473 25.451 22.6733C25.4725 23.8748 25.4757 25.0076 25.4757 26.0803V26.2198C25.5036 27.0136 25.377 27.8053 25.1045 28.5497ZM43.274 31.105H40.1697L40.2169 21.5019V21.311V20.9066V20.6716C40.2169 20.544 40.1912 20.4807 40.1451 20.4807C40.0989 20.4807 40.0603 20.574 40.0302 20.7532C40.0109 20.8862 39.9787 21.0181 39.9337 21.1447L39.747 21.9203C39.6203 22.4395 39.4766 23.0016 39.3242 23.6227C39.1718 24.2449 38.9948 24.8628 38.8306 25.5139C38.6654 26.1651 38.4958 26.8377 38.3263 27.5156C38.1578 28.1915 37.9969 28.8608 37.8574 29.5248C37.8574 29.5849 37.8144 29.6911 37.7769 29.8445C37.7393 29.9979 37.6921 30.1556 37.646 30.3305C37.5988 30.5043 37.5569 30.6662 37.5151 30.8239C37.4721 30.9816 37.4507 31.0835 37.4346 31.1307C37.2146 31.1307 36.9356 31.105 36.589 31.0964C36.2425 31.0878 35.9077 31.0964 35.5482 31.0964H34.487C34.1404 31.0964 33.87 31.0964 33.6672 31.1307C33.6393 31.0342 33.6157 30.9366 33.5996 30.8368C33.5653 30.6877 33.5277 30.53 33.4816 30.3648C33.4344 30.1985 33.3914 30.0365 33.3625 29.8788C33.3453 29.7748 33.3217 29.6729 33.2906 29.5721C32.9772 28.2011 32.6564 26.8613 32.327 25.5525C31.9965 24.2438 31.6767 23.037 31.3666 21.9321L31.1767 21.2423C31.0533 20.7575 30.9653 20.5107 30.9192 20.5107C30.872 20.5107 30.8462 20.5751 30.8462 20.7017L30.8677 21.4944L30.9321 31.1061C30.6177 31.0749 30.3054 31.0588 29.9921 31.0588H28.1358C27.8621 31.0588 27.5885 31.0739 27.316 31.105C27.3471 29.734 27.3621 28.332 27.3621 26.8977V18.6796C27.3621 17.402 27.3471 16.0686 27.316 14.6804C27.6915 14.7105 28.1068 14.7276 28.5585 14.7276H31.6381C32.2165 14.7276 32.694 14.7276 33.0706 14.6804C33.2112 15.3112 33.3678 16.0214 33.5406 16.8098C33.7133 17.6058 33.8872 18.4103 34.0685 19.2202C34.2509 20.0291 34.4237 20.8122 34.5975 21.562C34.7703 22.3118 34.9226 22.9544 35.0664 23.4908C35.0664 23.5551 35.1126 23.6914 35.1598 23.9166C35.2059 24.1419 35.2564 24.3425 35.3121 24.5935L35.4645 25.2543C35.5107 25.4581 35.5439 25.5869 35.5611 25.633C35.5783 25.6802 35.5868 25.7263 35.5954 25.7735C35.604 25.8207 35.6201 25.8465 35.6544 25.8465C35.6877 25.8465 35.7178 25.7735 35.7478 25.633C35.7628 25.5043 35.7864 25.3788 35.8197 25.2543L35.971 24.5935C36.0279 24.3554 36.0783 24.1301 36.1234 23.9177L36.2167 23.4908C36.3734 22.9372 36.5461 22.2861 36.7318 21.5277C36.9185 20.7703 37.1084 19.9904 37.2994 19.1859C37.4893 18.3814 37.6707 17.5843 37.8488 16.7969C38.0258 16.0096 38.1921 15.2983 38.3316 14.6676C38.69 14.6676 39.1471 14.6933 39.7051 14.7019H42.7332C43.2107 14.7019 43.6549 14.7019 44.0605 14.6676V16.1587C44.0605 16.7412 44.0605 17.3805 44.0348 18.0746C44.0101 18.7686 44.0348 19.5013 44.0348 20.2758V27.0983C44.0348 28.5712 44.0434 29.9067 44.0605 31.105H43.274ZM57.2362 31.105H54.971C54.6706 31.1028 54.3723 31.1189 54.0751 31.1522C54.0107 30.7263 53.9388 30.2661 53.8551 29.7684C53.7693 29.2695 53.6684 28.8061 53.5589 28.3631C53.5289 28.2344 53.4828 28.1625 53.4194 28.1378C53.3272 28.1089 53.2317 28.0885 53.1362 28.0777H49.8259C49.7347 28.0799 49.6456 28.1046 49.5673 28.1496C49.5244 28.1979 49.4932 28.2547 49.4739 28.3159C49.3806 28.6946 49.2797 29.1462 49.1692 29.674C49.0597 30.2028 48.9621 30.6963 48.8859 31.1522C48.6659 31.1522 48.3784 31.1264 48.0404 31.1179H45.8675C45.4952 31.1179 45.2119 31.1178 45.022 31.1522C45.2881 30.0494 45.5885 28.8222 45.9136 27.4641C46.2398 26.1061 46.5821 24.7094 46.9244 23.2655C47.2667 21.8216 47.609 20.3691 47.9481 18.9006C48.2861 17.4309 48.5941 16.0224 48.8741 14.6676H52.9291C53.3937 14.6676 53.8927 14.6676 54.442 14.6333C54.7071 15.9398 55 17.3237 55.3219 18.7847C55.6438 20.2479 55.9679 21.7057 56.2941 23.1593C56.6246 24.6182 56.9497 26.0374 57.2705 27.418C57.5924 28.7933 57.8843 30.028 58.1504 31.1307C57.9305 31.105 57.6139 31.105 57.2383 31.105H57.2362ZM52.8218 25.0151C52.8261 24.9797 52.8261 24.9443 52.8218 24.9089C52.8196 24.881 52.8196 24.8521 52.8218 24.8231C52.649 23.9123 52.4709 22.9673 52.2938 22.0007C52.1157 21.0342 51.9419 20.1653 51.7895 19.4069C51.7627 19.3157 51.7466 19.2213 51.7434 19.1258C51.7359 19.0057 51.7209 18.8866 51.6972 18.7686C51.6468 18.4404 51.6007 18.2752 51.5535 18.2752C51.5062 18.2752 51.4859 18.4489 51.4354 18.7944C51.4354 18.8877 51.4097 18.9853 51.4011 19.0883C51.3914 19.2041 51.3721 19.32 51.3421 19.4326C51.1682 20.191 50.9783 21.0514 50.7669 22.0222C50.5555 22.993 50.3442 23.951 50.166 24.8971C50.1725 24.9153 50.1725 24.9368 50.166 24.9561C50.1617 24.9754 50.1617 24.9958 50.166 25.0162C50.166 25.1438 50.2422 25.2028 50.3989 25.2028H52.6522C52.8679 25.2028 52.8894 25.1438 52.8894 25.0162L52.8218 25.0151ZM70.1329 31.105H67.7443C67.401 31.105 67.1177 31.105 66.8977 31.1393L66.4417 29.9722C66.2475 29.4723 66.0307 28.9273 65.7947 28.3373C65.5586 27.7473 65.3086 27.1316 65.0457 26.4933C64.7796 25.854 64.5306 25.2168 64.2849 24.6493C64.0392 24.0829 63.8493 23.4993 63.6336 23.0145C63.419 22.5285 63.2655 22.1627 63.14 21.8903C63.0831 21.7508 63.037 21.6092 62.9994 21.4644C62.9533 21.2981 62.9147 21.1662 62.8814 21.0728C62.8449 20.9977 62.8181 20.9194 62.8009 20.8379C62.7752 20.7446 62.7505 20.6931 62.7161 20.6931C62.6818 20.6931 62.67 20.7446 62.67 20.8379V20.9999L62.6947 22.0898L62.7419 31.105C62.5166 31.105 62.2633 31.0792 61.9715 31.0707C61.6807 31.0621 61.3845 31.0707 61.0841 31.0707H59.9638C59.6087 31.0707 59.32 31.0707 59.1172 31.105C59.1172 30.0194 59.143 28.8222 59.1516 27.5113C59.1601 26.1994 59.1516 24.837 59.1516 23.4189V18.9606C59.1516 17.4824 59.1516 16.0385 59.1172 14.6676C59.511 14.6676 59.9005 14.6933 60.2847 14.7019C60.6699 14.7105 61.0583 14.7019 61.4478 14.7019H62.5809C62.9565 14.7019 63.3503 14.7019 63.7559 14.6676L64.2302 15.9119C64.4158 16.4054 64.6186 16.9289 64.8386 17.4824C65.0586 18.0359 65.2871 18.5938 65.5114 19.1602C65.7356 19.7266 65.9556 20.2629 66.1627 20.7575C66.3698 21.2509 66.5425 21.6939 66.7035 22.0726C66.8645 22.4524 66.9739 22.7205 67.0544 22.8739C67.0844 22.9544 67.1434 23.1035 67.2325 23.3245C67.3205 23.5465 67.3935 23.7257 67.4568 23.8705C67.4568 23.9166 67.49 23.9671 67.5158 24.0239C67.5222 24.0464 67.5362 24.0668 67.5544 24.0818C67.5737 24.0968 67.5973 24.1033 67.6209 24.1044C67.6209 24.1044 67.6467 24.07 67.6553 23.9971C67.6585 23.9402 67.6585 23.8812 67.6553 23.8233V23.3127V22.712L67.6081 14.6676C67.8913 14.6676 68.166 14.6933 68.4536 14.7019C68.7422 14.7105 69.0041 14.7019 69.3002 14.7019H70.2552C70.5814 14.7019 70.9108 14.7019 71.236 14.6676C71.236 16.0085 71.2113 17.3548 71.2027 18.7128C71.1941 20.072 71.2027 21.4386 71.2027 22.8267V26.9664C71.2027 28.3373 71.2027 29.7212 71.236 31.105H70.1329ZM76.2137 31.105H73.9979C73.6385 31.105 73.3251 31.105 73.0644 31.1393V29.0099C73.0644 28.3288 73.0644 27.6562 73.0891 26.9868C73.1138 26.3185 73.0891 25.633 73.0891 24.9389V20.5697V18.3814C73.0891 17.6616 73.0891 16.9847 73.0633 16.3367C73.0376 15.6899 73.0633 15.1353 73.0633 14.6804C73.3885 14.6804 73.7232 14.7062 74.0655 14.7148C74.4089 14.7234 74.7587 14.7148 75.1182 14.7148H76.1708C76.5185 14.7148 76.8307 14.7148 77.1269 14.6804C77.1097 15.691 77.0968 16.8935 77.0893 18.287V27.2764C77.0893 28.0091 77.0893 28.7031 77.114 29.3596C77.1397 30.014 77.114 30.5986 77.114 31.1179C76.8779 31.105 76.5743 31.105 76.2137 31.105ZM87.6554 17.904H86.0459C85.8602 17.904 85.7454 17.904 85.7079 17.9727C85.6542 18.1003 85.6338 18.2387 85.6488 18.3771C85.6488 18.8029 85.6274 19.2288 85.6274 19.6536V26.2756C85.6274 27.1445 85.6274 27.979 85.6521 28.8308C85.6778 29.6825 85.6521 30.4324 85.6521 31.1693L84.6928 31.105H81.61C81.61 29.6235 81.6207 28.008 81.6443 26.2595C81.6658 24.5109 81.6658 22.7667 81.6443 21.0299V19.6075C81.6443 19.1816 81.6443 18.73 81.6186 18.3309C81.6357 18.1968 81.6143 18.0606 81.5595 17.9383C81.463 17.8847 81.3514 17.8643 81.2419 17.8783H79.6936L78.1634 17.9126C78.1827 17.6916 78.1913 17.4706 78.1881 17.2475V15.3917C78.1881 15.0763 78.1881 14.8381 78.1634 14.6804C79.964 14.7255 81.7623 14.7502 83.5586 14.7534C85.4106 14.7534 87.2541 14.7287 89.089 14.6804C89.089 14.8682 89.0643 15.1063 89.0643 15.3917V17.1424C89.0643 17.4256 89.0718 17.6852 89.089 17.9212C88.5986 17.904 88.1168 17.904 87.6554 17.904ZM100.303 31.105H98.0487C97.7515 31.1028 97.4532 31.1189 97.157 31.1522C97.0927 30.7263 97.0175 30.2661 96.9328 29.7684C96.848 29.2695 96.7471 28.8061 96.6366 28.3631C96.6077 28.2344 96.5615 28.1625 96.4971 28.1378C96.4048 28.1089 96.3104 28.0885 96.2139 28.0777H92.9036C92.8124 28.0799 92.7244 28.1046 92.646 28.1496C92.6031 28.1979 92.5709 28.2547 92.5527 28.3159C92.4593 28.6946 92.3574 29.1462 92.2479 29.674C92.1374 30.2028 92.0441 30.6963 91.9647 31.1522C91.7447 31.1522 91.4604 31.1264 91.1191 31.1179H88.9495C88.5739 31.1179 88.2896 31.1178 88.1039 31.1522C88.3743 30.0494 88.6705 28.8222 88.9999 27.4641C89.3304 26.1061 89.6641 24.7094 90.0064 23.2655C90.3498 21.8216 90.6953 20.3691 91.0301 18.9006C91.3638 17.4309 91.6771 16.0224 91.9561 14.6676H96.011C96.4725 14.6676 96.9746 14.6676 97.524 14.6333C97.7901 15.9398 98.082 17.3237 98.4039 18.7847L99.3685 23.1593C99.698 24.6182 100.023 26.0374 100.341 27.418C100.663 28.7933 100.959 30.028 101.225 31.1307C100.983 31.105 100.681 31.105 100.303 31.105ZM95.8887 25.0151C95.8919 24.9797 95.8919 24.9443 95.8887 24.9089C95.8855 24.881 95.8855 24.8521 95.8887 24.8231C95.7192 23.9123 95.5421 22.9673 95.3597 22.0007C95.1773 21.0342 95.0131 20.1653 94.8565 19.4069C94.8297 19.3157 94.8136 19.2213 94.8103 19.1258C94.8028 19.0057 94.7867 18.8866 94.7631 18.7686C94.7127 18.4404 94.6665 18.2752 94.6204 18.2752C94.5732 18.2752 94.5517 18.4489 94.5024 18.7944C94.5024 18.8877 94.4755 18.9853 94.468 19.0883C94.4573 19.2041 94.438 19.32 94.409 19.4326C94.2352 20.191 94.0442 21.0514 93.8339 22.0222C93.6225 22.993 93.4111 23.951 93.2373 24.8971C93.2437 24.9153 93.2437 24.9368 93.2373 24.9561V25.0162C93.2373 25.1438 93.3178 25.2028 93.4733 25.2028H95.7278C95.8844 25.2028 95.9638 25.1438 95.9638 25.0162L95.8887 25.0151ZM112.396 31.0707H110.176L109.158 31.105C109.064 30.6791 108.954 30.2532 108.84 29.8284C108.726 29.4015 108.603 28.9252 108.485 28.4907C108.367 28.0563 108.261 27.639 108.156 27.285L107.914 26.4C107.805 26.0331 107.65 25.6834 107.453 25.3562C107.388 25.265 107.302 25.191 107.202 25.1417C107.101 25.0923 106.989 25.0698 106.878 25.0752H106.363C106.236 25.0752 106.159 25.0752 106.137 25.131C106.103 25.2329 106.091 25.3423 106.1 25.4496V28.6227C106.1 29.4144 106.121 30.2404 106.138 31.105C105.884 31.105 105.596 31.0792 105.267 31.0707C104.938 31.0621 104.595 31.0707 104.236 31.0707H103.145L102.168 31.105C102.196 30.1481 102.211 29.0679 102.214 27.8653V24.0958V19.2664C102.214 17.6444 102.214 16.1158 102.18 14.6804C102.604 14.6804 103.026 14.7062 103.403 14.7148C103.779 14.7234 104.214 14.7148 104.67 14.7148H106.363C106.866 14.7148 107.428 14.689 108.054 14.689C109.393 14.6118 110.707 15.0709 111.712 15.9656C112.608 16.8184 113.06 18.0574 113.06 19.6332C113.065 20.1363 113 20.6373 112.869 21.1243C112.762 21.5459 112.6 21.9525 112.388 22.3333C112.208 22.6487 111.983 22.9362 111.72 23.184C111.501 23.4007 111.246 23.5766 110.967 23.7042C110.887 23.7386 110.806 23.7675 110.722 23.7901C110.684 23.7901 110.662 23.8147 110.662 23.8491C110.669 23.8823 110.68 23.9134 110.699 23.9424C110.717 23.9713 110.74 23.996 110.768 24.0153C110.827 24.0625 110.879 24.1183 110.921 24.1805L111.085 24.4026C111.166 24.5206 111.242 24.6429 111.309 24.7684C111.394 24.9261 111.496 25.1353 111.605 25.3949C111.716 25.6545 111.838 25.9902 111.978 26.4032C112.058 26.6553 112.155 26.961 112.274 27.3236C112.392 27.6862 112.51 28.082 112.638 28.5079L113.013 29.8102C113.137 30.2361 113.255 30.6619 113.365 31.0878C113.042 31.0664 112.719 31.0599 112.396 31.0707ZM108.451 18.1808C107.997 17.8461 107.441 17.6787 106.879 17.7088H106.502C106.328 17.7088 106.227 17.7302 106.197 17.7678C106.154 17.8428 106.129 17.9287 106.125 18.0145C106.125 18.2827 106.095 18.5466 106.091 18.8072C106.088 19.0668 106.091 19.3307 106.091 19.5989V21.6596C106.081 21.7465 106.103 21.8345 106.151 21.9063C106.248 21.9589 106.358 21.9793 106.468 21.9664H106.942C108.334 21.9664 109.03 21.2638 109.03 19.8585C109.039 19.054 108.844 18.4961 108.451 18.1808ZM117.728 31.105H115.509C115.15 31.105 114.84 31.105 114.574 31.1393V29.0099C114.574 28.3288 114.574 27.6562 114.599 26.9868C114.625 26.3185 114.599 25.633 114.599 24.9389V20.5697V18.3814C114.599 17.6616 114.599 16.9847 114.574 16.3367C114.549 15.6899 114.574 15.1353 114.574 14.6804C114.904 14.6804 115.233 14.7062 115.581 14.7148C115.927 14.7234 116.274 14.7148 116.629 14.7148H117.682C118.024 14.7148 118.342 14.7148 118.638 14.6804C118.638 15.691 118.626 16.8935 118.604 18.287V27.2764C118.604 28.0091 118.612 28.7031 118.629 29.3596V31.1179C118.396 31.105 118.087 31.105 117.728 31.105ZM131.826 31.105H129.568C129.271 31.1028 128.972 31.1189 128.676 31.1522C128.613 30.7263 128.541 30.2661 128.456 29.7684C128.371 29.2695 128.27 28.8061 128.16 28.3631C128.13 28.2344 128.084 28.1625 128.02 28.1378C127.928 28.1089 127.834 28.0885 127.737 28.0777H124.426C124.336 28.0788 124.247 28.1046 124.168 28.1496C124.125 28.1979 124.093 28.2547 124.075 28.3159C123.978 28.6946 123.876 29.1462 123.767 29.674C123.656 30.2028 123.564 30.6791 123.471 31.105C123.251 31.105 122.963 31.0792 122.625 31.0707H120.451C120.075 31.0707 119.796 31.0707 119.606 31.105C119.872 30.0022 120.172 28.7761 120.499 27.4169C120.824 26.0589 121.162 24.6622 121.508 23.2183C121.856 21.7755 122.194 20.3219 122.528 18.8534C122.861 17.3837 123.175 15.9752 123.458 14.6204H127.522C127.983 14.6204 128.489 14.6204 129.036 14.5871C129.301 15.8926 129.595 17.2765 129.919 18.7386L130.892 23.1121C131.221 24.571 131.548 25.9913 131.868 27.3708C132.19 28.746 132.481 29.9808 132.748 31.0835C132.507 31.105 132.202 31.105 131.826 31.105ZM127.408 25.0151C127.411 24.9797 127.411 24.9443 127.408 24.9089V24.8231C127.234 23.9123 127.057 22.9673 126.879 22.0007C126.702 21.0342 126.528 20.1653 126.371 19.4069C126.347 19.3157 126.33 19.2213 126.325 19.1258C126.32 19.0057 126.304 18.8866 126.278 18.7686C126.232 18.4404 126.186 18.2752 126.138 18.2752C126.092 18.2752 126.066 18.4489 126.02 18.7944C126.02 18.8877 125.995 18.9853 125.987 19.0883C125.975 19.2041 125.955 19.32 125.927 19.4326C125.754 20.191 125.564 21.0514 125.352 22.0222C125.14 22.993 124.929 23.951 124.752 24.8971C124.758 24.9153 124.758 24.9368 124.752 24.9561V25.0162C124.752 25.1438 124.833 25.2028 124.989 25.2028H127.243C127.462 25.2028 127.48 25.1438 127.48 25.0162L127.408 25.0151ZM144.719 31.105H142.325C141.983 31.105 141.699 31.105 141.479 31.1393L141.023 29.9722L140.384 28.3159C140.148 27.7259 139.897 27.1112 139.632 26.4719L138.871 24.6279C138.629 24.0357 138.41 23.4993 138.202 23.0188C137.995 22.5371 137.839 22.167 137.712 21.8945C137.656 21.7551 137.61 21.6135 137.573 21.4687C137.526 21.3024 137.483 21.1705 137.455 21.076C137.417 21.0031 137.389 20.9237 137.374 20.8422C137.348 20.7489 137.318 20.6974 137.289 20.6974C137.259 20.6974 137.243 20.7489 137.243 20.8422V21.0042L137.268 22.0941L137.331 31.105C137.111 31.105 136.854 31.0792 136.562 31.0707C136.27 31.0621 135.974 31.0707 135.674 31.0707H134.553C134.198 31.0707 133.91 31.0707 133.708 31.105C133.708 30.0215 133.719 28.8222 133.742 27.5113V23.4189V18.9606C133.742 17.4824 133.72 16.0385 133.708 14.6676C134.101 14.6676 134.49 14.6933 134.871 14.7019C135.252 14.7105 135.644 14.7019 136.037 14.7019H137.171C137.547 14.7019 137.936 14.7019 138.346 14.6676C138.473 15.0001 138.629 15.4131 138.815 15.9119C139.002 16.4097 139.209 16.9289 139.433 17.4824C139.657 18.0359 139.856 18.5938 140.101 19.1602C140.346 19.7266 140.524 20.2629 140.748 20.7575C140.972 21.2509 141.133 21.6939 141.294 22.0726C141.454 22.4524 141.568 22.7205 141.645 22.8739C141.674 22.9544 141.734 23.1035 141.822 23.3245C141.911 23.5465 141.983 23.7257 142.046 23.8705C142.062 23.9231 142.081 23.9735 142.105 24.0239C142.111 24.0475 142.124 24.0679 142.144 24.0829C142.163 24.0968 142.187 24.1044 142.211 24.1044C142.211 24.1044 142.237 24.07 142.244 23.9971C142.249 23.9402 142.249 23.8812 142.244 23.8233V23.3127V22.712L142.198 14.6676C142.477 14.6676 142.756 14.6933 143.044 14.7019C143.331 14.7105 143.593 14.7019 143.889 14.7019H144.846C145.171 14.7019 145.501 14.7019 145.826 14.6676C145.826 16.0085 145.797 17.3548 145.789 18.7128C145.78 20.072 145.789 21.4386 145.789 22.8267V26.9664C145.789 28.3373 145.809 29.7212 145.826 31.105H144.719ZM16.4569 52.0135C16.4237 52.3332 16.3818 52.6861 16.3389 53.0787C16.0567 55.3239 15.2605 56.9545 13.9493 57.9704C12.6391 58.9873 10.8064 59.4969 8.45218 59.5001C5.56574 59.5001 3.43364 58.5453 2.0548 56.6337C0.677036 54.7243 -0.00862667 51.6713 -4.24636e-05 47.4791C-4.24636e-05 43.1292 0.665233 39.9131 1.99578 37.8288C3.32634 35.7456 5.4799 34.704 8.45647 34.704C10.8676 34.704 12.6992 35.2532 13.9536 36.3517C15.209 37.4502 15.9762 39.0764 16.2584 41.2272C16.3014 41.593 16.3475 42.0447 16.3936 42.5853C16.4398 43.127 16.4612 43.6462 16.4612 44.1483V44.3199C15.5062 44.2513 14.46 44.2169 13.3237 44.2169H11.9578C11.5017 44.2169 11.0489 44.247 10.5918 44.2673V43.7181C10.5918 43.2922 10.5918 42.7945 10.5628 42.2581C10.5446 41.7518 10.463 41.2498 10.3214 40.7627C10.2023 40.3455 9.99948 39.9582 9.72586 39.6214C9.57993 39.4605 9.40073 39.3317 9.20008 39.2491C8.99942 39.1655 8.78374 39.129 8.56699 39.1408C8.18929 39.1376 7.81695 39.2395 7.49289 39.4347C7.08729 39.7233 6.79006 40.1395 6.64735 40.6179C6.36836 41.4525 6.19131 42.3171 6.11835 43.1946C5.97242 44.6761 5.90589 46.165 5.91984 47.6529C5.91984 48.9777 5.95739 50.1062 6.02607 51.0341C6.0647 51.8033 6.19668 52.5638 6.4188 53.2997C6.55292 53.7964 6.83084 54.2416 7.2182 54.5773C7.60556 54.8552 8.07447 54.9935 8.54982 54.9689C8.95757 54.9882 9.3621 54.8809 9.70869 54.6621C9.99948 54.4625 10.2345 54.1901 10.389 53.8704C10.5532 53.54 10.669 53.1871 10.7324 52.8234C10.7989 52.4544 10.844 52.0811 10.8676 51.7078C10.889 51.4557 10.9094 51.2347 10.918 51.0384C10.9266 50.8432 10.918 50.6125 10.918 50.3701C11.535 50.4387 12.1863 50.4892 12.8966 50.5235C13.607 50.5578 14.3173 50.575 15.0448 50.575H15.7595C15.9998 50.575 16.2391 50.5643 16.4784 50.5407V51.0899C16.487 51.3978 16.4806 51.7067 16.4569 52.0135ZM33.9666 52.7848C33.723 54.1493 33.2133 55.4527 32.4654 56.6166C31.8259 57.581 30.9181 58.334 29.858 58.7846C28.6454 59.2598 27.3514 59.4861 26.0509 59.4529C24.7096 59.4958 23.3747 59.2308 22.1483 58.6784C21.0913 58.1635 20.1997 57.3611 19.573 56.3613C18.8595 55.1866 18.3723 53.8865 18.1395 52.5295C17.8326 50.7659 17.6909 48.9788 17.7167 47.1895C17.6995 45.383 17.8315 43.5776 18.1105 41.7936C18.3122 40.4291 18.7661 39.114 19.4518 37.9189C20.0527 36.8934 20.9325 36.0653 21.9873 35.53C23.2385 34.9539 24.6055 34.6782 25.979 34.7254C27.3095 34.689 28.6315 34.9282 29.8655 35.427C30.9331 35.8969 31.8441 36.666 32.4912 37.6422C33.2358 38.8061 33.7402 40.1095 33.9752 41.474C34.3057 43.3105 34.4591 45.1749 34.4366 47.0403C34.4677 48.9659 34.3099 50.8904 33.9666 52.7848ZM28.4405 43.186C28.4083 42.3386 28.2817 41.4976 28.0649 40.678C27.9576 40.1985 27.6937 39.7705 27.316 39.4605C26.9608 39.2309 26.5445 39.1172 26.1228 39.1322C25.6624 39.1075 25.2075 39.2341 24.8244 39.4937C24.4456 39.8381 24.1838 40.294 24.0765 40.7971C23.8662 41.6338 23.746 42.4898 23.717 43.3523C23.6623 44.4422 23.6323 45.8303 23.6323 47.5252C23.6323 48.9026 23.6666 50.0644 23.7342 51.0127C23.7739 51.7915 23.8995 52.5627 24.1098 53.3126C24.2321 53.8028 24.4918 54.2459 24.8587 54.5891C25.2107 54.8616 25.6463 55 26.0895 54.9817C26.5198 54.9957 26.9426 54.8573 27.2816 54.5902C27.6507 54.2437 27.9169 53.8017 28.051 53.3126C28.272 52.5467 28.4019 51.7571 28.4405 50.9622C28.5081 49.9861 28.5424 48.7889 28.5424 47.3718C28.5424 45.6597 28.5081 44.2652 28.4405 43.186ZM52.1576 59.0023H48.8977C48.4642 58.9991 48.0307 59.0227 47.5994 59.0699C47.5114 58.4531 47.4009 57.7934 47.2775 57.0639C47.1551 56.3366 47.007 55.6586 46.8558 55.015C46.8085 54.8326 46.7409 54.7264 46.6487 54.6932C46.5113 54.6471 46.3697 54.6181 46.2259 54.6074C45.8965 54.5795 45.566 54.5677 45.2355 54.573H42.3394C42.0314 54.5687 41.7245 54.5805 41.4177 54.6074C41.3619 54.5945 41.305 54.5934 41.2481 54.6041C41.1923 54.6149 41.1387 54.6363 41.0915 54.6685C41.0442 54.7007 41.0045 54.7415 40.9734 54.7897C40.9412 54.838 40.9198 54.8916 40.9101 54.9474C40.7706 55.502 40.6226 56.1575 40.4616 56.9234C40.3006 57.6904 40.1654 58.4059 40.0388 59.0527C39.7169 59.0527 39.3038 59.0152 38.7705 59.0023C38.2383 58.9895 37.7511 59.0023 37.2522 59.0023H35.6158C35.0707 59.0023 34.6608 59.0313 34.3904 59.0527C34.7735 57.4522 35.2048 55.6661 35.6834 53.6955C36.1631 51.726 36.6524 49.6932 37.1513 47.5982C37.6503 45.5031 38.1449 43.3909 38.6353 41.2616C39.1257 39.1322 39.5753 37.0844 39.9841 35.117H40.7674L41.7557 35.1545H45.8664L48.0651 35.1041C48.4535 37.0028 48.8763 39.011 49.3334 41.1296C49.7894 43.2472 50.2626 45.3647 50.7498 47.4834C51.2326 49.6042 51.7048 51.6584 52.1662 53.6494C52.6286 55.6393 53.0514 57.4361 53.4345 59.0399C53.1308 59.0291 52.7048 59.0163 52.1576 59.0023ZM45.743 50.1566C45.7473 50.1051 45.7473 50.0536 45.743 50.0032C45.7398 49.9635 45.7398 49.9228 45.743 49.8831C45.4898 48.555 45.2355 47.1884 44.9737 45.7788C44.7118 44.3693 44.4661 43.1174 44.2419 42.0189C44.2022 41.8795 44.1775 41.7368 44.17 41.592C44.1614 41.4193 44.1378 41.2465 44.1024 41.0771C44.0348 40.5965 43.9672 40.353 43.8996 40.353C43.832 40.353 43.7987 40.6093 43.7311 41.1114C43.7043 41.2519 43.6882 41.3946 43.6796 41.5373C43.6635 41.7057 43.6345 41.8719 43.5905 42.035C43.3416 43.1345 43.0669 44.3864 42.745 45.796C42.4231 47.2045 42.1495 48.5937 41.8748 49.9689V50.1395C41.8748 50.3218 41.9885 50.4162 42.2171 50.4162H45.5113C45.7387 50.4162 45.8535 50.3218 45.8535 50.1395L45.743 50.1566ZM67.0426 55.4452V57.9543C67.0426 58.3801 67.0426 58.7213 67.0758 59.0184C66.0522 58.997 65.0178 58.9852 63.9716 58.9852H57.8156C56.8145 58.9852 55.8026 58.9959 54.779 59.0184C54.824 57.0317 54.8487 55.0633 54.8509 53.112V41.1886C54.8509 39.2019 54.8273 37.1981 54.779 35.1813C55.3048 35.1813 55.8026 35.2135 56.2812 35.2135H59.2406C59.7396 35.2135 60.2299 35.2135 60.7074 35.1813C60.6602 36.8838 60.6377 38.6924 60.6398 40.6051V50.2896C60.6398 51.5018 60.6656 52.6818 60.6913 53.8275C60.6806 53.9305 60.7053 54.0335 60.7589 54.1214C60.8051 54.1772 60.9199 54.2072 61.1012 54.2072H64.374C65.2817 54.2072 66.1799 54.1836 67.0673 54.1386C67.0673 54.5988 67.0544 55.0365 67.0426 55.4452ZM73.1524 59.0013H69.929C69.4086 59.0013 68.9558 59.0313 68.5716 59.0527V55.9611C68.5716 54.9775 68.5716 53.9981 68.6049 53.0272C68.6392 52.0564 68.6049 51.0641 68.6049 50.0461V43.7353V40.5589C68.6049 39.5109 68.6049 38.5272 68.5716 37.5778C68.5373 36.6285 68.5716 35.8368 68.5716 35.176C69.0448 35.1985 69.5309 35.2157 70.031 35.2275H73.0837C73.5827 35.2275 74.043 35.1974 74.4744 35.176C74.4486 36.6413 74.4314 38.3856 74.4239 40.4098C74.4153 42.4341 74.4153 44.5355 74.4239 46.7164V53.4617C74.4239 54.5301 74.4454 55.5353 74.4529 56.4857C74.4615 57.4351 74.4529 58.2911 74.4529 59.0399C74.1235 59.0313 73.6835 59.0152 73.1513 59.0023L73.1524 59.0013ZM89.6899 39.8391H87.355C87.0803 39.8391 86.9322 39.8692 86.8614 39.941C86.7809 40.1245 86.7519 40.3261 86.7755 40.5246C86.7508 41.121 86.738 41.7389 86.738 42.3772V51.9974C86.738 53.2579 86.7637 54.4797 86.7723 55.6715C86.7798 56.8644 86.7723 57.9972 86.7723 59.0785C86.3216 59.0592 85.8474 59.042 85.3516 59.027H82.2817C81.7741 59.027 81.3052 59.057 80.8728 59.0785C80.8728 56.9491 80.9157 54.5816 80.9243 52.0393C80.9318 49.4969 80.9243 46.9674 80.9243 44.4465V42.3858C80.9243 41.7464 80.9243 41.1082 80.89 40.4989C80.9147 40.3058 80.8857 40.1105 80.8052 39.9325C80.7462 39.8735 80.5938 39.8466 80.3438 39.8466H78.0819C77.4702 39.8466 76.7299 39.8735 75.8671 39.8992C75.8886 39.6686 75.8961 39.3489 75.8961 38.9359V36.2155C75.8961 35.7553 75.8961 35.4152 75.8671 35.1856C78.48 35.2532 81.0885 35.2865 83.6938 35.2865C86.386 35.2865 89.0632 35.2532 91.7275 35.1846C91.7576 35.457 91.7576 35.7896 91.7576 36.2144V38.7707C91.7576 39.1966 91.7576 39.5624 91.7908 39.9078C91.0601 39.8649 90.3616 39.8477 89.6899 39.8391ZM97.8084 59.0013H94.5861C94.0657 59.0013 93.6139 59.0313 93.2287 59.0527V55.9611C93.2287 54.9742 93.2544 53.9981 93.263 53.0272C93.2716 52.0564 93.263 51.0641 93.263 50.0461V43.7353V40.5589C93.263 39.5109 93.263 38.5272 93.2287 37.5778C93.1954 36.6285 93.2287 35.8368 93.2287 35.176C93.703 35.1985 94.1891 35.2157 94.688 35.2275H97.7408C98.2397 35.2275 98.7001 35.1974 99.1271 35.176C99.1057 36.6413 99.0885 38.3856 99.0767 40.4098C99.0659 42.4341 99.0659 44.5355 99.0767 46.7164V53.4617C99.0767 54.5301 99.1024 55.5353 99.1153 56.4857C99.1271 57.4351 99.1153 58.2911 99.1153 59.0399L97.8084 59.0013ZM117.327 52.7848C117.083 54.1493 116.573 55.4527 115.826 56.6166C115.183 57.5777 114.276 58.3297 113.217 58.7803C112.004 59.2555 110.71 59.4829 109.411 59.4486C108.069 59.4915 106.734 59.2265 105.508 58.6741C104.451 58.1592 103.559 57.3568 102.933 56.357C102.218 55.1823 101.731 53.8822 101.5 52.5252C101.191 50.7627 101.049 48.9745 101.077 47.1852C101.06 45.3787 101.191 43.5733 101.47 41.7893C101.668 40.427 102.119 39.114 102.798 37.9189C103.399 36.8945 104.28 36.0653 105.335 35.53C106.586 34.955 107.952 34.6793 109.326 34.7254C110.657 34.6879 111.981 34.9271 113.217 35.427C114.288 35.8883 115.205 36.6499 115.859 37.6207C116.601 38.7857 117.107 40.088 117.344 41.4525C117.672 43.289 117.825 45.1534 117.8 47.0189C117.831 48.9519 117.672 50.8829 117.327 52.7848ZM111.8 43.186C111.767 42.3386 111.642 41.4976 111.424 40.678C111.317 40.1996 111.053 39.7705 110.675 39.4605C110.295 39.2395 109.864 39.1258 109.425 39.1322C108.987 39.1386 108.558 39.2631 108.185 39.4937C107.805 39.8391 107.542 40.294 107.432 40.7971C107.221 41.6338 107.102 42.4898 107.077 43.3523C107.017 44.4422 106.991 45.8303 106.991 47.5252C106.991 48.9026 107.026 50.0644 107.093 51.0127C107.133 51.7915 107.26 52.5627 107.47 53.3126C107.59 53.8028 107.85 54.2469 108.219 54.5891C108.569 54.8616 109.003 55 109.444 54.9817C109.877 54.9968 110.301 54.8573 110.642 54.5902C111.01 54.2448 111.275 53.8017 111.407 53.3126C111.631 52.5477 111.763 51.7582 111.8 50.9622C111.867 49.9861 111.901 48.7889 111.901 47.3718C111.901 45.6597 111.867 44.2652 111.8 43.186ZM135.754 59.0013H132.3C131.801 59.0013 131.395 59.0313 131.078 59.0527C130.917 58.6269 130.697 58.0733 130.413 57.3493C130.13 56.6262 129.818 55.8378 129.475 54.9785C129.132 54.1171 128.777 53.2278 128.389 52.2989C127.999 51.3709 127.635 50.4806 127.284 49.6203C126.933 48.761 126.608 47.9854 126.317 47.2871C126.025 46.5887 125.783 46.0427 125.602 45.6565C125.522 45.4591 125.454 45.2596 125.395 45.0558C125.327 44.8134 125.271 44.6299 125.225 44.4851C125.173 44.3768 125.133 44.262 125.107 44.144C125.073 44.0045 125.035 43.9359 124.988 43.9359C124.942 43.9359 124.92 44.0035 124.92 44.144V44.3832L124.955 45.9623L125.022 59.0495C124.701 59.0281 124.329 59.012 123.906 58.998H121.005C120.49 58.998 120.07 59.027 119.737 59.0485C119.757 57.4705 119.773 55.7305 119.787 53.8275C119.802 51.9255 119.802 49.9389 119.787 47.8663V41.3892C119.787 39.2223 119.771 37.1466 119.737 35.1588L121.428 35.2103H124.765L126.456 35.1588L127.141 36.961C127.423 37.6786 127.719 38.4392 128.029 39.2427L129.006 41.6831C129.335 42.5091 129.648 43.2815 129.944 44.0002L130.731 45.9075C130.959 46.4568 131.154 46.8483 131.247 47.0736C131.289 47.1895 131.378 47.4061 131.5 47.7301C131.623 48.0541 131.733 48.3137 131.826 48.5175C131.847 48.5861 131.877 48.6623 131.91 48.7428C131.921 48.7771 131.941 48.8071 131.97 48.8286C131.998 48.85 132.031 48.8608 132.067 48.8629C132.088 48.8629 132.105 48.8114 132.117 48.7052C132.13 48.5979 132.117 48.5175 132.117 48.4499V47.7087V46.8569L132.045 35.1803L133.251 35.2318H135.843L137.268 35.1803C137.243 37.1283 137.224 39.085 137.213 41.0524C137.201 43.0198 137.201 45.0075 137.213 47.0146V53.0272C137.213 55.0171 137.231 57.0199 137.268 59.0356C136.858 59.0313 136.355 59.0141 135.754 59.0013ZM189.891 58.9937H184.035L193.73 14.6633H199.583L189.891 58.9937ZM180.487 58.9937H174.631L184.326 14.6633H190.183L180.487 58.9937ZM171.087 58.9937H165.231L174.931 14.6633H180.783L171.087 58.9937ZM161.688 58.9937H155.831L165.527 14.6633H171.384L161.688 58.9937ZM152.287 58.9937H146.431L156.127 14.6633H161.983L152.287 58.9937ZM10.1057 4.41767C10.1293 4.31254 10.1433 4.20634 10.1486 4.098C10.1486 3.98214 10.125 3.86629 10.0789 3.75901C10.0327 3.65174 9.96622 3.5552 9.88145 3.47581C9.79668 3.39536 9.69689 3.33421 9.58851 3.29452C9.47906 3.2559 9.36318 3.23874 9.24729 3.24625C8.96079 3.28272 8.68395 3.37605 8.43394 3.52301C8.18392 3.6689 7.9661 3.86521 7.79334 4.098L6.94672 8.00916H6.10547L6.89629 4.41016C6.92526 4.28358 6.94136 4.1527 6.94243 4.0229C6.94243 3.59703 6.6216 3.2559 6.01641 3.2559C5.44663 3.33958 4.93158 3.6453 4.58392 4.10765L3.7373 8.01774H2.89176L4.07209 2.65625H4.91763L4.72771 3.42647C4.93158 3.1658 5.18696 2.95018 5.47883 2.79356C5.76962 2.63801 6.09045 2.54469 6.4188 2.52001C7.36628 2.52001 7.78476 3.19583 7.78476 3.5037V3.53696C8.00258 3.2441 8.28049 3.0006 8.60026 2.82574C8.92002 2.64981 9.27304 2.54576 9.6368 2.52001C9.81599 2.50929 9.99626 2.53503 10.1647 2.59725C10.3332 2.65947 10.4877 2.75601 10.6175 2.88152C10.7474 3.00596 10.8504 3.15721 10.9191 3.32456C10.9888 3.4919 11.0221 3.67105 11.0189 3.85234C11.0103 4.00252 10.992 4.1527 10.9652 4.29967L10.1486 8.01774H9.30201L10.1068 4.41874L10.1057 4.41767ZM15.0062 2.52323C15.3142 2.50714 15.6221 2.55756 15.9086 2.66912C16.1962 2.78176 16.4559 2.95447 16.6726 3.17438C16.8883 3.39536 17.0568 3.66032 17.1641 3.94996C17.2714 4.24067 17.3175 4.55069 17.2982 4.8607C17.2907 5.11065 17.2628 5.3606 17.2134 5.60625H12.8709V5.86156C12.8709 6.7133 13.4761 7.45778 14.6811 7.45778C15.2337 7.45778 15.7713 7.27541 16.2112 6.93858L16.4902 7.51356C15.9537 7.9212 15.2992 8.14432 14.6264 8.14861C13.0061 8.14861 12.0254 7.20247 12.0254 5.77145C11.9942 4.9433 12.2904 4.13661 12.8494 3.5273C13.4074 2.918 14.1843 2.55756 15.0062 2.52323ZM16.5503 4.78347C16.561 4.56892 16.5267 4.35438 16.4484 4.15485C16.37 3.95532 16.2499 3.77403 16.0964 3.62492C15.943 3.47474 15.7595 3.36103 15.5578 3.28916C15.3571 3.21729 15.1436 3.1894 14.93 3.2087C14.4482 3.23552 13.9901 3.42754 13.6317 3.75258C13.2733 4.07761 13.0361 4.51743 12.96 4.99694H16.5288C16.5428 4.92721 16.5503 4.85534 16.5503 4.78347ZM25.2096 4.41767C25.2375 4.31361 25.2525 4.20634 25.2568 4.098C25.2568 3.98107 25.2332 3.86521 25.1871 3.75794C25.1409 3.65067 25.0733 3.55412 24.9886 3.47367C24.9027 3.39429 24.8029 3.33314 24.6935 3.29345C24.584 3.25483 24.4682 3.23874 24.3512 3.24625C24.0647 3.2838 23.7889 3.3782 23.5389 3.52516C23.2889 3.67105 23.0711 3.86629 22.8972 4.098L22.0506 8.00916H21.2051L21.9873 4.41874C22.012 4.29109 22.027 4.16129 22.0292 4.03149C22.0292 3.60561 21.7116 3.26449 21.1064 3.26449C20.5366 3.34709 20.0215 3.65281 19.6739 4.11623L18.8283 8.02525H17.9828L19.1631 2.66483H20.0076L19.8348 3.42647C20.0387 3.1658 20.2952 2.95018 20.5859 2.79356C20.8767 2.63801 21.1976 2.54469 21.5259 2.52001C22.4734 2.52001 22.8919 3.19583 22.8919 3.5037V3.53696C23.1097 3.2441 23.3876 3.0006 23.7074 2.82574C24.0271 2.64981 24.3812 2.54576 24.7439 2.52001C24.9231 2.50929 25.1034 2.53503 25.2719 2.59725C25.4403 2.65947 25.5948 2.75601 25.7247 2.88152C25.8545 3.00596 25.9575 3.15721 26.0262 3.32456C26.0959 3.4919 26.1303 3.67105 26.126 3.85234C26.1174 4.00252 26.0992 4.1527 26.0723 4.29967L25.2558 8.01774H24.4102L25.2085 4.41874L25.2096 4.41767ZM27.7344 8.0156H26.8889L28.5296 0.610559H29.3751L28.7527 3.4254C28.9598 3.1497 29.2249 2.9255 29.5318 2.77103C29.8376 2.61441 30.1745 2.53074 30.5168 2.52752C31.7293 2.52752 32.577 3.33636 32.577 4.73305C32.577 6.47409 31.4975 8.14003 29.7893 8.14003C29.4191 8.15827 29.05 8.07996 28.7206 7.9094C28.3901 7.7399 28.1089 7.48567 27.9083 7.1735L27.7344 8.0156ZM30.2035 3.26341C29.8794 3.27843 29.5629 3.37069 29.2807 3.52945C28.9963 3.68929 28.7549 3.91349 28.5725 4.18381L28.0553 6.53845C28.2227 6.81307 28.4598 7.03727 28.742 7.18745C29.0253 7.33763 29.3429 7.40736 29.6627 7.3902C30.8752 7.3902 31.6918 6.15978 31.6918 4.87358C31.7132 3.8856 31.0834 3.26341 30.2035 3.26341ZM36.4485 2.52323C36.7564 2.50714 37.0644 2.55756 37.3509 2.66912C37.6385 2.78176 37.8981 2.95447 38.1149 3.17438C38.3316 3.39536 38.499 3.66032 38.6063 3.94996C38.7136 4.24067 38.7608 4.55069 38.7405 4.8607C38.734 5.11172 38.7051 5.3606 38.6525 5.60625H34.3142V5.86156C34.3142 6.7133 34.9183 7.45778 36.1191 7.45778C36.6663 7.45349 37.1975 7.2722 37.632 6.93858L37.9078 7.51356C37.3713 7.9212 36.7167 8.14432 36.0429 8.14861C34.4226 8.14861 33.4429 7.20247 33.4429 5.77145C33.4268 5.35952 33.4923 4.9476 33.635 4.56141C33.7777 4.17416 33.9945 3.81909 34.2745 3.51765C34.5535 3.21514 34.8904 2.97163 35.2628 2.80107C35.6362 2.6305 36.0397 2.5361 36.4485 2.52216V2.52323ZM37.9926 4.78347C38.0033 4.56892 37.969 4.35438 37.8906 4.15485C37.8123 3.95532 37.6921 3.77403 37.5387 3.62492C37.3852 3.47474 37.2017 3.36103 37.0011 3.28916C36.7994 3.21729 36.5858 3.1894 36.3734 3.2087C35.8905 3.23445 35.4313 3.42647 35.0718 3.7515C34.7123 4.07654 34.4752 4.51636 34.3979 4.99694H37.9711C37.9829 4.92614 37.9904 4.85534 37.9926 4.78347ZM40.6268 2.65518H41.4724L41.2868 3.47689C41.5185 3.17223 41.82 2.92765 42.1645 2.76567C42.51 2.60369 42.8888 2.52752 43.2697 2.54361L43.0841 3.39536C42.9446 3.36318 42.8029 3.34923 42.6613 3.35245C42.3555 3.37605 42.0583 3.46616 41.7921 3.61741C41.5239 3.76974 41.2943 3.97892 41.1172 4.22994L40.2717 8.01667H39.4476L40.6268 2.65518ZM49.1016 2.52323C50.6103 2.52323 51.5363 3.48547 51.5363 4.9079C51.5363 6.61032 50.268 8.14754 48.5769 8.14754C47.0532 8.14754 46.1411 7.19389 46.1411 5.77145C46.1368 4.08512 47.3805 2.52323 49.1016 2.52323ZM49.0758 3.26341C47.8665 3.26341 47.0081 4.47345 47.0081 5.7382C47.0081 6.74656 47.5908 7.40307 48.593 7.40307C49.8023 7.40307 50.665 6.19303 50.665 4.92829C50.665 3.91992 50.0813 3.26341 49.0758 3.26341ZM53.4731 3.38678H52.5932L52.7585 2.65518H53.6383L53.7263 2.2293C53.9678 1.13083 54.5311 0.487195 55.4689 0.487195C55.8069 0.476468 56.1406 0.565504 56.4282 0.742504L56.1074 1.34323C55.94 1.22523 55.7372 1.16623 55.5322 1.17696C54.9957 1.17696 54.6867 1.54383 54.5558 2.22823L54.4667 2.65518H55.5451L55.3927 3.38678H54.3144L53.2789 8.01667H52.4333L53.4731 3.38678ZM58.6065 6.86134L59.3801 3.37498H58.4959L58.6612 2.65518H59.5454L59.8619 1.18983H60.7074L60.3855 2.65518H61.4693L61.304 3.3739H60.2214L59.4938 6.68327C59.4896 6.75729 59.4896 6.8313 59.4938 6.90425C59.4938 7.22821 59.672 7.40307 60.0228 7.40307C60.2063 7.40414 60.3855 7.343 60.5304 7.22821L60.627 7.8933C60.3952 8.06494 60.1119 8.15398 59.8243 8.14861C59.0882 8.14861 58.615 7.83752 58.615 7.17243C58.6043 7.06945 58.6011 6.9654 58.6065 6.86134ZM65.7904 4.4949C65.8247 4.37476 65.8472 4.25247 65.858 4.12803C65.858 3.50585 65.3848 3.27629 64.7538 3.27629C64.1186 3.33743 63.5306 3.64209 63.1132 4.12803L62.2676 8.02418H61.4221L63.0456 0.611631H63.8922L63.2569 3.4254C63.7505 2.8944 64.4233 2.57043 65.1433 2.51894C66.0769 2.51894 66.7293 2.98236 66.7293 3.84698C66.7207 3.99716 66.6981 4.14734 66.6617 4.2943L65.858 8.01238H65.0339L65.7904 4.4949ZM70.7166 2.52323C71.0246 2.50714 71.3315 2.55756 71.618 2.66912C71.9055 2.78176 72.1652 2.95447 72.382 3.17438C72.5987 3.39536 72.7661 3.66032 72.8745 3.94996C72.9818 4.24067 73.0279 4.55069 73.0086 4.8607C73.0022 5.11172 72.9721 5.3606 72.9195 5.60625H68.5813V5.86156C68.5813 6.7133 69.1854 7.45778 70.3872 7.45778C70.9409 7.45778 71.4806 7.27541 71.9216 6.93858L72.1963 7.51356C71.6598 7.9212 71.0053 8.14432 70.3314 8.14861C68.7122 8.14861 67.7315 7.20247 67.7315 5.77145C67.7154 5.36167 67.7797 4.95081 67.9214 4.5657C68.063 4.17952 68.2787 3.82552 68.5555 3.52516C68.8324 3.22265 69.1672 2.97914 69.5374 2.80643C69.9076 2.6348 70.3089 2.53825 70.7166 2.52323ZM72.2596 4.78347C72.2704 4.56892 72.236 4.35438 72.1577 4.15485C72.0794 3.95532 71.9603 3.77403 71.8068 3.62492C71.6534 3.47474 71.4699 3.36103 71.2682 3.28916C71.0675 3.21729 70.8529 3.1894 70.6404 3.2087C70.1576 3.23445 69.6983 3.42647 69.3399 3.7515C68.9805 4.07654 68.7422 4.51636 68.6661 4.99694H72.2392C72.25 4.92614 72.2564 4.85534 72.2596 4.78347Z" fill="white"/>
</g>
<defs>
<clipPath id="clip0_48_33925">
<rect width="200" height="59" fill="white" transform="translate(0 0.5)"/>
</clipPath>
</defs>
</svg>
