<svg width="41" height="40" viewBox="0 0 41 40" fill="none" xmlns="http://www.w3.org/2000/svg">
<g clip-path="url(#clip0_21485_2278)">
<path fill-rule="evenodd" clip-rule="evenodd" d="M9.81388 36.6282C13.103 38.8259 16.9693 39.9991 20.9248 39.9991C23.5525 40.0064 26.1557 39.4927 28.583 38.4873C31.0102 37.4818 33.2143 36.005 35.0675 34.1423C38.8184 30.3914 40.9252 25.3045 40.9252 20C40.9252 14.6955 38.8184 9.60818 35.068 5.85773C31.3171 2.10727 26.2302 0 20.9257 0C15.6212 0 10.5339 2.10682 6.78297 5.85727C3.98615 8.65454 2.08161 12.2182 1.30979 16.0973C0.538426 19.9768 0.934789 23.9982 2.44797 27.6527C3.96161 31.3073 6.52524 34.4305 9.81388 36.6282ZM10.163 3.89318C13.3484 1.76455 17.0939 0.628182 20.9248 0.628182C23.4698 0.621364 25.9907 1.11955 28.3421 2.09409C30.693 3.06818 32.8275 4.49909 34.6221 6.30364C38.1848 9.95091 40.1662 14.8555 40.1362 19.9536C40.1062 25.0518 38.068 29.9336 34.4625 33.5382C30.8575 37.1436 25.9762 39.1823 20.878 39.2118C15.7798 39.2418 10.8752 37.2605 7.22797 33.6973C4.51888 30.9882 2.67388 27.5368 1.92661 23.7791C1.17888 20.0218 1.56252 16.1273 3.02843 12.5868C4.49479 9.04773 6.97752 6.02182 10.163 3.89318ZM7.50259 19.9995C7.50259 27.4009 13.5253 33.4223 20.9249 33.4223C28.3267 33.4223 34.348 27.4018 34.348 19.9995C34.348 12.5982 28.3262 6.57681 20.9253 6.57681C13.524 6.57681 7.50259 12.5986 7.50259 19.9995ZM8.13259 20C8.13259 12.9427 13.868 7.20726 20.9249 7.20863V7.20726C27.9799 7.20726 33.7185 12.9464 33.7185 20.0004C33.7185 27.0545 27.9821 32.7932 20.9249 32.7932C13.868 32.7932 8.13259 27.0582 8.13259 20ZM16.0358 27.2532H15.8476L15.724 26.9382H15.2103L15.0867 27.2532H14.9094L15.3976 26.0504H15.5453L16.0358 27.2532ZM15.6785 26.7963L15.4681 26.2572L15.2572 26.7963H15.6785ZM17.3622 27.0963C17.3063 27.1559 17.2381 27.2027 17.1622 27.2332C17.0867 27.2636 17.0053 27.2777 16.924 27.2736C16.7599 27.2736 16.6022 27.2082 16.4863 27.0922C16.3703 26.9763 16.3049 26.8191 16.3049 26.655C16.3049 26.4909 16.3703 26.3332 16.4863 26.2172C16.6022 26.1013 16.7599 26.0359 16.924 26.0359C17.0808 26.0304 17.234 26.0868 17.3499 26.1936L17.279 26.3291C17.2335 26.2822 17.1799 26.2454 17.1199 26.22C17.0599 26.1954 16.9958 26.1827 16.9308 26.1836C16.6717 26.1836 16.4844 26.3691 16.4844 26.6509C16.4844 26.9327 16.6735 27.1186 16.9308 27.1186C16.9976 27.1209 17.064 27.1086 17.1258 27.0836C17.1872 27.0582 17.2431 27.02 17.2894 26.9722L17.3622 27.0963ZM18.7263 27.0963C18.6708 27.1559 18.6026 27.2027 18.5272 27.2332C18.4517 27.2636 18.3703 27.2777 18.289 27.2736C18.1249 27.2736 17.9672 27.2082 17.8513 27.0922C17.7353 26.9763 17.6699 26.8191 17.6699 26.655C17.6699 26.4909 17.7353 26.3332 17.8517 26.2172C17.9672 26.1013 18.1244 26.0359 18.289 26.0359C18.4458 26.0304 18.599 26.0872 18.7149 26.1936L18.6431 26.3291C18.5976 26.2822 18.544 26.2454 18.484 26.22C18.4244 26.1954 18.3599 26.1827 18.2949 26.1836C18.0367 26.1836 17.8485 26.3691 17.8485 26.6509C17.8485 26.9327 18.0385 27.1186 18.2953 27.1186C18.3617 27.1209 18.4281 27.1086 18.4899 27.0836C18.5517 27.0582 18.6072 27.02 18.6535 26.9722L18.7263 27.0963ZM19.9553 27.2532H19.7522L19.4372 26.7368H19.309V27.2532H19.1422V26.0532H19.4808C19.5835 26.0486 19.6853 26.0777 19.7694 26.1368C19.8172 26.1777 19.8526 26.2322 19.8708 26.2922C19.8894 26.3522 19.8908 26.4168 19.874 26.4777C19.8576 26.5386 19.824 26.5936 19.7781 26.6363C19.7317 26.6791 19.674 26.7077 19.6122 26.7195L19.9553 27.2532ZM19.6358 26.2345C19.5753 26.1982 19.504 26.1827 19.434 26.1913H19.3103V26.5972H19.434C19.504 26.6054 19.5744 26.5909 19.6358 26.5563C19.6617 26.5382 19.6826 26.5141 19.6963 26.4859C19.7099 26.4572 19.7163 26.4259 19.7144 26.3941C19.7163 26.3632 19.7099 26.3318 19.6963 26.3041C19.6826 26.2759 19.6617 26.2518 19.6358 26.2345ZM21.0399 27.2532H20.3226V26.0532H21.0249V26.1941H20.4913V26.5527H20.9949V26.6936H20.4913V27.1118H21.0422L21.0399 27.2532ZM22.3003 27.0963C22.1758 27.2027 22.0158 27.2591 21.8522 27.2541H21.4903V26.0536H21.8522C22.0158 26.0491 22.1753 26.105 22.3003 26.2109C22.3594 26.2686 22.4058 26.3377 22.4376 26.4136C22.4694 26.49 22.4858 26.5713 22.4858 26.6541C22.4858 26.7363 22.4694 26.8182 22.4376 26.8941C22.4058 26.9704 22.359 27.0395 22.3003 27.0972V27.0963ZM22.1717 26.3091C22.0835 26.2327 21.969 26.1927 21.8522 26.1982H21.6613V27.1068H21.8544C21.9717 27.1122 22.0863 27.0722 22.1744 26.9959C22.2194 26.9504 22.2553 26.8972 22.2794 26.8382C22.304 26.7791 22.3167 26.7163 22.3167 26.6527C22.3167 26.5891 22.304 26.5254 22.2794 26.4663C22.2553 26.4077 22.2194 26.3545 22.1744 26.3091H22.1717ZM23.0944 27.2532H22.9263V26.0532H23.0944V27.2532ZM24.3272 26.1945H23.9903V27.2532H23.8213V26.1941H23.4826V26.0532H24.3272V26.1945ZM25.4326 27.2532H24.7167V26.0532H25.419V26.1941H24.8885V26.5527H25.3922V26.6936H24.8885V27.1118H25.4394L25.4326 27.2532ZM26.6926 27.0963C26.5685 27.2027 26.4085 27.2591 26.2449 27.2536H25.8826V26.0536H26.2449C26.4085 26.0486 26.5681 26.1045 26.6926 26.2109C26.7517 26.2686 26.7985 26.3377 26.8308 26.4136C26.8626 26.4895 26.8794 26.5713 26.8794 26.6541C26.8794 26.7368 26.8631 26.8182 26.8308 26.8945C26.799 26.9704 26.7517 27.0395 26.6926 27.0972V27.0963ZM26.5644 26.3091C26.4763 26.2327 26.3617 26.1927 26.2449 26.1982H26.0522V27.1068H26.2449C26.3617 27.1122 26.4763 27.0722 26.5644 26.9959C26.6099 26.9504 26.6453 26.8972 26.6699 26.8382C26.694 26.7791 26.7067 26.7163 26.7067 26.6522C26.7067 26.5886 26.694 26.5254 26.6699 26.4668C26.6453 26.4077 26.6094 26.3545 26.5644 26.3091ZM16.1281 29.0622C16.0444 29.1268 15.9417 29.1609 15.8358 29.1577C15.7603 29.1559 15.6858 29.1368 15.619 29.1018C15.5517 29.0668 15.4931 29.0172 15.4476 28.9563L15.5472 28.8432C15.5817 28.8932 15.6267 28.9341 15.679 28.9636C15.7322 28.9936 15.7903 29.0113 15.8508 29.0154C15.9817 29.0154 16.0872 28.9368 16.0872 28.8141C16.0872 28.6926 15.9558 28.641 15.8936 28.6166L15.8917 28.6159L15.8712 28.6077L15.871 28.6076L15.8708 28.6075C15.8124 28.5842 15.7413 28.5558 15.7008 28.5368C15.6553 28.5163 15.6149 28.4868 15.5808 28.4513C15.5544 28.4232 15.534 28.3904 15.5203 28.355C15.5067 28.3186 15.5008 28.2809 15.5022 28.2427C15.5022 28.1986 15.5117 28.155 15.5308 28.115C15.5494 28.075 15.5772 28.04 15.6117 28.0118C15.6899 27.9504 15.7881 27.9186 15.8876 27.9232C15.9531 27.9241 16.0172 27.9386 16.0763 27.9659C16.1353 27.9932 16.1885 28.0318 16.2317 28.0804L16.1426 28.1954C16.1103 28.1568 16.0699 28.125 16.0244 28.1027C15.979 28.0809 15.9299 28.0682 15.879 28.0663C15.7608 28.0663 15.6703 28.1222 15.6703 28.2332C15.6703 28.3441 15.7494 28.3859 15.8281 28.4159L16.0494 28.5077C16.0999 28.5318 16.1458 28.565 16.1844 28.6054C16.2326 28.6618 16.2585 28.7332 16.2576 28.8068C16.2563 28.8568 16.244 28.905 16.2213 28.9491C16.199 28.9932 16.1667 29.0322 16.1281 29.0622ZM16.859 29.1354H16.6908V27.9354H16.859V29.1354ZM18.3872 29.1354H18.2226L17.5308 28.1786V29.1322H17.364V27.9354H17.5417L18.2213 28.88V27.9377H18.3858L18.3872 29.1354ZM19.8803 28.9786C19.8249 29.0377 19.7567 29.0845 19.6813 29.115C19.6053 29.1459 19.524 29.1595 19.4426 29.1559C19.3426 29.1536 19.2453 29.1272 19.1576 29.0795C19.0703 29.0313 18.9958 28.9627 18.9403 28.8795C18.8853 28.7968 18.8508 28.7018 18.8403 28.6022C18.8299 28.5032 18.8435 28.4027 18.8799 28.31C18.9163 28.2172 18.9753 28.1345 19.0508 28.0691C19.1263 28.0041 19.2163 27.9577 19.3135 27.935C19.4103 27.9122 19.5117 27.9127 19.6085 27.9377C19.7049 27.9622 19.7944 28.01 19.8685 28.0763L19.7972 28.2118C19.7522 28.165 19.6981 28.1282 19.6385 28.1027C19.579 28.0777 19.5144 28.0654 19.4499 28.0663C19.1908 28.0663 19.0026 28.2518 19.0026 28.5336C18.9985 28.5945 19.0072 28.6554 19.0281 28.7127C19.0485 28.77 19.0808 28.8222 19.1231 28.8663C19.1653 28.9104 19.2158 28.945 19.2722 28.9682C19.3285 28.9918 19.389 29.0027 19.4499 29.0013C19.5167 29.0036 19.5826 28.9913 19.6444 28.9663C19.7063 28.9409 19.7617 28.9027 19.8081 28.855L19.8803 28.9786ZM21.0122 29.1354H20.2963V27.9354H20.9981V28.0763H20.4644V28.4345H20.969V28.5754H20.4644V28.9927H21.0153L21.0126 29.1354H21.0122ZM22.8617 29.1354H22.0544L22.0313 29.0218L22.4544 28.6204C22.5467 28.5313 22.6499 28.4218 22.6499 28.2886C22.6508 28.2563 22.6449 28.2245 22.6326 28.195C22.6203 28.165 22.6017 28.1386 22.5781 28.1163C22.5553 28.0945 22.5272 28.0777 22.4972 28.0672C22.4667 28.0568 22.4344 28.0532 22.4026 28.0559C22.3413 28.06 22.2817 28.0795 22.2299 28.1136C22.1785 28.1472 22.1367 28.1941 22.109 28.2486L22.0199 28.1495C22.0572 28.0777 22.1135 28.0177 22.1835 27.9768C22.2531 27.9359 22.3326 27.9154 22.4135 27.9182C22.6535 27.9182 22.8149 28.0591 22.8149 28.2709C22.8149 28.4696 22.6577 28.6143 22.5767 28.6889L22.5617 28.7027L22.254 28.9959H22.8653L22.8617 29.1354ZM23.6913 29.1582C23.3676 29.1582 23.2322 28.8518 23.2322 28.5409C23.2322 28.23 23.3694 27.9222 23.6913 27.9222C24.0131 27.9222 24.1503 28.2286 24.1503 28.5409C24.1503 28.8536 24.014 29.1582 23.6913 29.1582ZM23.6913 28.0645C23.4985 28.0645 23.4022 28.2632 23.4022 28.5372C23.4022 28.8109 23.4985 29.0095 23.6913 29.0095C23.884 29.0095 23.9794 28.8095 23.9794 28.5368C23.9794 28.2645 23.884 28.0609 23.6913 28.0609V28.0645ZM24.949 29.1354H24.7863V28.0559H24.5499V27.9322H24.9435L24.949 29.1354ZM26.384 29.1354H25.5772L25.5531 29.0218L25.9772 28.6204C26.0694 28.5313 26.1717 28.4218 26.1717 28.2886C26.1726 28.2563 26.1672 28.2241 26.1544 28.1945C26.1422 28.165 26.124 28.1382 26.1003 28.1163C26.0772 28.0941 26.0494 28.0777 26.019 28.0672C25.9885 28.0568 25.9563 28.0532 25.9244 28.0559C25.8631 28.06 25.8035 28.0795 25.7517 28.1136C25.7008 28.1472 25.659 28.1941 25.6308 28.2491L25.5426 28.1495C25.5794 28.0777 25.6363 28.0177 25.7063 27.9768C25.7753 27.9359 25.8553 27.9154 25.9363 27.9182C26.1726 27.9182 26.3376 28.0591 26.3376 28.2709C26.3376 28.4697 26.1795 28.6144 26.098 28.689L26.0831 28.7027L25.7767 28.9959H26.384V29.1354ZM5.9858 23.6532C6.10489 23.7441 6.18853 23.8736 6.22216 24.0195C6.24716 24.1232 6.24853 24.2318 6.2258 24.3363C6.20307 24.4409 6.15671 24.5391 6.0908 24.6227L5.89944 24.5295C5.95398 24.4636 5.99353 24.3868 6.01489 24.3041C6.03625 24.2213 6.03853 24.1345 6.02216 24.0509C5.97398 23.8727 5.83307 23.7582 5.65989 23.8054C5.4931 23.8506 5.47296 24.0387 5.46277 24.1338L5.46171 24.1436L5.45849 24.1719L5.45848 24.1719C5.44845 24.2603 5.43576 24.3719 5.42307 24.435C5.41171 24.5036 5.38762 24.57 5.35125 24.6295C5.32307 24.6754 5.2858 24.7159 5.24216 24.7472C5.19807 24.7791 5.14853 24.8018 5.0958 24.8136C5.03489 24.8304 4.9708 24.8336 4.90898 24.8227C4.84671 24.8118 4.78762 24.7863 4.73625 24.75C4.62353 24.665 4.54444 24.5427 4.51307 24.405C4.48989 24.3163 4.48534 24.2232 4.49944 24.1327C4.51398 24.0418 4.54762 23.9554 4.59716 23.8782L4.78625 23.9572C4.74535 24.0163 4.71762 24.0827 4.70398 24.1527C4.69035 24.2227 4.69171 24.295 4.70762 24.365C4.75171 24.5263 4.86489 24.6295 5.01216 24.5877C5.15944 24.5459 5.1908 24.42 5.20398 24.31L5.24807 23.9745C5.26262 23.8963 5.2908 23.8213 5.3308 23.7532C5.39035 23.6672 5.47853 23.6054 5.57989 23.5786C5.64853 23.5595 5.7208 23.5559 5.79125 23.5695C5.86171 23.5822 5.92807 23.6109 5.9858 23.6532ZM4.29716 22.2309L4.37625 22.7032L5.85125 22.4532L5.89125 22.6891L4.41716 22.9391L4.4958 23.4118L4.29989 23.4445L4.09989 22.2641L4.29716 22.2309ZM5.64716 20.4118L5.66762 20.6982L4.97262 21.1909L4.98534 21.3722L5.71353 21.3209L5.72989 21.5572L4.03671 21.68L4.00307 21.2018C3.98535 21.0572 4.01671 20.9109 4.09171 20.7863C4.13125 20.7304 4.18262 20.6841 4.24307 20.6513C4.30307 20.6186 4.36989 20.6 4.43853 20.5972C4.54898 20.585 4.66035 20.6141 4.75125 20.6791C4.84171 20.7441 4.90489 20.8404 4.92853 20.9495L5.64716 20.4118ZM4.24262 20.9627C4.19762 21.0513 4.18307 21.1527 4.20125 21.2509L4.21398 21.4254L4.78671 21.3845L4.77489 21.2104C4.77944 21.1113 4.75125 21.0132 4.69625 20.9304C4.66807 20.8959 4.63171 20.8695 4.59034 20.8536C4.54898 20.8377 4.50398 20.8327 4.46034 20.8391C4.41625 20.8391 4.37307 20.8504 4.33489 20.8722C4.29671 20.8941 4.26489 20.9254 4.24307 20.9632L4.24262 20.9627ZM5.70489 19.2395C5.68125 19.7122 5.33035 20.0977 4.78762 20.0709C4.24535 20.0436 3.93353 19.6332 3.95625 19.1609C3.97898 18.6882 4.33125 18.3027 4.87353 18.3295C5.4158 18.3563 5.72807 18.7673 5.70489 19.2395ZM4.16262 19.1609C4.14625 19.5072 4.37989 19.8041 4.79262 19.8245C5.20489 19.845 5.46944 19.5695 5.4858 19.2263C5.50262 18.8827 5.26716 18.5832 4.85625 18.5627C4.44535 18.5422 4.17989 18.8218 4.16262 19.1672V19.1609ZM6.04944 16.4663L6.00716 16.6954L4.50034 17.4086C4.50034 17.4086 4.72534 17.4454 4.94353 17.4872L5.82989 17.6532L5.78671 17.885L4.11944 17.57L4.1658 17.3236L5.64989 16.6259C5.64989 16.6259 5.44444 16.5904 5.22444 16.5472L4.34262 16.3845L4.38534 16.1545L6.04944 16.4663ZM6.42989 14.4068L6.43386 14.4144C6.46576 14.4744 6.6089 14.744 6.46534 15.1768C6.43216 15.2872 6.37671 15.39 6.30216 15.4782C6.22807 15.5663 6.13625 15.6382 6.03307 15.6895C5.92944 15.7404 5.81671 15.77 5.70125 15.7759C5.58625 15.7818 5.47125 15.7636 5.36307 15.7232C5.25216 15.6918 5.14898 15.6377 5.05989 15.565C4.9708 15.4918 4.89762 15.4013 4.84535 15.2982C4.79307 15.1959 4.76216 15.0832 4.75534 14.9682C4.74853 14.8532 4.76534 14.7382 4.80535 14.63C4.83944 14.5054 4.90216 14.39 4.98807 14.2936C5.07398 14.1968 5.1808 14.1209 5.30034 14.0718L5.39125 14.2722C5.29807 14.3082 5.21398 14.3645 5.1458 14.4377C5.07762 14.5109 5.02716 14.5986 4.99807 14.6945C4.88853 15.0259 5.04216 15.3586 5.43944 15.4895C5.83716 15.62 6.16125 15.4359 6.27216 15.0959C6.38353 14.7559 6.27216 14.5945 6.27216 14.5945L5.91762 14.4804L5.77398 14.915L5.58989 14.8532L5.8058 14.2L6.42989 14.4068ZM7.64898 11.9822C7.68625 12.0913 7.69898 12.2077 7.6858 12.3222C7.67307 12.4368 7.6358 12.5472 7.5758 12.6459C7.33944 13.0813 6.85898 13.245 6.39535 12.995C6.24625 12.9132 6.12444 12.7904 6.04353 12.6404C5.96307 12.4913 5.92716 12.3222 5.94035 12.1527C5.95353 11.9832 6.01535 11.8213 6.11807 11.6863C6.2208 11.5513 6.3608 11.4491 6.52035 11.3909L6.6408 11.5709C6.55262 11.5954 6.46989 11.6382 6.39853 11.6954C6.32762 11.7532 6.26853 11.825 6.2258 11.9059C6.05216 12.2282 6.15762 12.5863 6.50762 12.7718C6.85762 12.9582 7.21625 12.8509 7.38944 12.5295C7.43671 12.4482 7.46671 12.3577 7.47671 12.2641C7.48716 12.1709 7.47716 12.0759 7.44853 11.9868L7.64898 11.9822ZM8.88762 10.5804L8.75125 10.7741L8.10716 10.315L7.5808 11.0527L8.22535 11.5127L8.08671 11.7068L6.70489 10.7182L6.84307 10.5241L7.41307 10.9309L7.93716 10.1963L7.36807 9.79316L7.50671 9.59952L8.88762 10.5804ZM10.2153 9.08861L10.0353 9.28407L9.59171 9.11316L9.09989 9.64952L9.30762 10.0768L9.13762 10.2654L8.35035 8.60634L8.49216 8.44861L10.2153 9.08861ZM9.39989 9.02725L8.63807 8.73179L8.99762 9.46589L9.39989 9.02725ZM11.3835 8.06134L11.1672 8.25043L10.3535 7.99225L10.2172 8.1127L10.6981 8.66361L10.5185 8.82134L9.40125 7.54407L9.76262 7.22952C9.86716 7.12816 10.0022 7.06452 10.1467 7.04907C10.2363 7.04816 10.324 7.0727 10.3994 7.11952C10.4753 7.16589 10.5367 7.23316 10.5758 7.31361C10.6153 7.39361 10.6308 7.48316 10.6213 7.5718C10.6122 7.66043 10.5776 7.74452 10.5226 7.81452L11.3835 8.06134ZM10.0958 7.27452C9.99716 7.29179 9.90762 7.3418 9.8408 7.41589L9.70898 7.53089L10.0881 7.96407L10.2194 7.84907C10.3013 7.79089 10.3626 7.70816 10.3949 7.6127C10.4053 7.56952 10.404 7.52452 10.3922 7.48225C10.3799 7.43952 10.3572 7.40043 10.3258 7.36952C10.2985 7.33498 10.2635 7.30816 10.2231 7.29179C10.1831 7.27498 10.139 7.26907 10.0958 7.27452ZM11.8999 7.68134L11.7103 7.82543L10.6967 6.46407L10.8876 6.3218L11.8999 7.68134ZM12.4508 5.51952L12.0472 5.77861L12.8494 7.03816L12.6485 7.16543L11.8458 5.90634L11.4413 6.1627L11.3349 5.99498L12.3431 5.35498L12.4508 5.51952ZM13.844 6.46816L13.6317 6.58089L12.8335 5.08543L13.044 4.9727L13.844 6.46816ZM15.3044 5.78816L14.3767 6.19498L13.6963 4.6418L14.6053 4.2427L14.6844 4.42543L13.9935 4.72861L14.1963 5.19225L14.849 4.90589L14.9276 5.08816L14.274 5.37407L14.5103 5.91498L15.219 5.59998L15.3044 5.78816ZM16.5713 5.24816C16.4863 5.37134 16.3608 5.46089 16.2167 5.5018C16.114 5.53134 16.0058 5.53816 15.9003 5.51998C15.7949 5.5018 15.6949 5.46089 15.6076 5.39861L15.6917 5.20407C15.7599 5.25589 15.8385 5.29225 15.9222 5.30998C16.0063 5.32816 16.0926 5.32634 16.1758 5.30634C16.3517 5.24952 16.4594 5.10407 16.4044 4.93361C16.3514 4.76978 16.1679 4.75635 16.0693 4.74913L16.0563 4.74816L15.9937 4.74381L15.9936 4.74381C15.9113 4.73818 15.8205 4.73198 15.7644 4.72407C15.6949 4.71498 15.6276 4.69407 15.5658 4.66089C15.5185 4.63498 15.4767 4.59952 15.4431 4.55725C15.4099 4.51498 15.3853 4.46634 15.3703 4.41452C15.3513 4.35498 15.3453 4.2918 15.3535 4.22998C15.3617 4.1677 15.3831 4.10816 15.4172 4.05543C15.4976 3.94043 15.6153 3.8568 15.7508 3.81907C15.8385 3.7918 15.9308 3.7827 16.0222 3.79316C16.1131 3.80316 16.2013 3.83225 16.2808 3.87861L16.2113 4.07134C16.1508 4.03361 16.0826 4.00907 16.0122 3.99861C15.9413 3.98907 15.8694 3.99407 15.8003 4.01316C15.6431 4.06407 15.544 4.17816 15.5917 4.3277C15.6399 4.4777 15.7681 4.4977 15.8794 4.5068L16.2158 4.53407C16.2949 4.54498 16.3708 4.56952 16.4413 4.6068C16.529 4.66134 16.5949 4.74452 16.6272 4.8427C16.6485 4.90998 16.6549 4.9818 16.6453 5.0518C16.6358 5.1218 16.6103 5.18907 16.5713 5.24816ZM17.4408 5.15543C17.4113 5.15998 17.3813 5.15543 17.354 5.14316C17.3267 5.13043 17.304 5.11043 17.2876 5.08498C17.2717 5.05998 17.264 5.03043 17.2644 5.00043C17.2649 4.97043 17.2744 4.94134 17.2913 4.9168C17.3081 4.89225 17.3322 4.8727 17.3594 4.86134C17.3872 4.84998 17.4176 4.84725 17.4472 4.8527C17.4763 4.85861 17.5035 4.8727 17.5249 4.89361C17.5463 4.91452 17.5613 4.94089 17.5676 4.97043C17.5726 4.99089 17.5735 5.01225 17.5694 5.03316C17.5658 5.05361 17.5576 5.07407 17.5458 5.09089C17.534 5.10861 17.5185 5.12316 17.5003 5.13452C17.4822 5.14543 17.4617 5.1527 17.4408 5.15543ZM19.7553 4.66634C19.6463 4.76907 19.5053 4.83089 19.3553 4.84043C19.2485 4.84816 19.1417 4.83134 19.0422 4.7918C18.9426 4.7518 18.8535 4.69043 18.7817 4.61134L18.9058 4.44043C18.9617 4.50543 19.0313 4.5568 19.1099 4.59089C19.1881 4.62543 19.2735 4.6418 19.3585 4.63907C19.5422 4.62089 19.6781 4.50089 19.6599 4.32407C19.6424 4.15307 19.4611 4.10176 19.3684 4.0755L19.3585 4.0727C19.2694 4.0477 19.1449 4.01225 19.0776 3.98725C19.0117 3.96452 18.9503 3.92998 18.8972 3.88452C18.8563 3.84907 18.8231 3.80589 18.799 3.75725C18.7749 3.70907 18.7608 3.65634 18.7572 3.60225C18.7503 3.53952 18.7581 3.47634 18.7785 3.41725C18.7994 3.35816 18.8331 3.30407 18.8776 3.25952C18.9794 3.16225 19.1131 3.10407 19.254 3.09589C19.3449 3.0868 19.4372 3.09634 19.524 3.12452C19.6113 3.1527 19.6917 3.19907 19.7603 3.25952L19.6513 3.43361C19.5994 3.38361 19.5376 3.34498 19.4694 3.32043C19.4022 3.29589 19.3299 3.28543 19.2576 3.29043C19.0917 3.3068 18.9726 3.39816 18.9885 3.55498C19.0044 3.71134 19.1249 3.75816 19.2317 3.79134L19.5585 3.88952C19.6331 3.9168 19.7026 3.95634 19.7631 4.0077C19.8385 4.08043 19.8853 4.17861 19.8949 4.28316C19.9017 4.35316 19.8926 4.42407 19.8685 4.49043C19.8444 4.5568 19.8063 4.6168 19.7553 4.66634ZM21.4085 3.22498L20.9313 3.23316L20.9558 4.72861H20.7194L20.6953 3.23316L20.2167 3.23998V3.04089L21.4053 3.02361L21.4085 3.22498ZM23.0094 4.8568L22.7231 4.83407L22.349 4.06634L22.1681 4.04998L22.1017 4.7768L21.8653 4.75543L22.0231 3.06589L22.5003 3.10998C22.6453 3.11725 22.784 3.1727 22.894 3.2677C22.9558 3.33134 22.9985 3.4118 23.0172 3.49952C23.0358 3.58634 23.029 3.6768 22.9981 3.76089C22.9672 3.84452 22.9131 3.9177 22.8422 3.97225C22.7713 4.02634 22.6867 4.05952 22.5976 4.0677L23.0094 4.8568ZM22.6908 3.38089C22.6099 3.3218 22.5126 3.29134 22.4126 3.29361L22.239 3.2777L22.1863 3.85089L22.3599 3.8668C22.4572 3.88634 22.5585 3.87498 22.649 3.83452C22.6876 3.8118 22.7194 3.78043 22.7422 3.74225C22.7649 3.70407 22.7772 3.66043 22.7781 3.61634C22.7853 3.5727 22.7808 3.52816 22.7658 3.4868C22.7503 3.44589 22.7249 3.40952 22.6908 3.38089ZM24.1517 5.1027C23.6858 5.0018 23.3644 4.59361 23.4808 4.0627C23.5976 3.53089 24.054 3.2918 24.5199 3.3918C24.9863 3.4918 25.3072 3.90043 25.1908 4.4318C25.0744 4.96316 24.6181 5.20316 24.1517 5.1027ZM24.4767 3.59407C24.1385 3.52134 23.8072 3.70361 23.7194 4.10907C23.6322 4.51452 23.8603 4.8177 24.1972 4.89089C24.5344 4.96361 24.8672 4.77907 24.9544 4.37589C25.0422 3.9727 24.8149 3.6668 24.4767 3.59407ZM26.8349 5.89816L26.6153 5.81952L26.1599 4.21498C26.1599 4.21498 26.0867 4.43089 26.0108 4.63907L25.7017 5.48589L25.4794 5.40725L26.0613 3.81089L26.2976 3.89634L26.744 5.47725C26.744 5.47725 26.8131 5.28043 26.8894 5.07043L27.1972 4.22498L27.4167 4.30361L26.8349 5.89816ZM28.8031 6.60998L28.7948 6.61273C28.7303 6.63461 28.4429 6.73204 28.0372 6.51861C27.9331 6.4677 27.8408 6.39589 27.7658 6.30816C27.6908 6.21998 27.6344 6.11725 27.6008 6.00634C27.5676 5.89543 27.5572 5.77907 27.5708 5.66361C27.5844 5.54861 27.6213 5.4377 27.6799 5.3377C27.729 5.23361 27.799 5.14089 27.8858 5.06498C27.9726 4.98907 28.074 4.9318 28.184 4.8968C28.2935 4.86225 28.4094 4.85043 28.524 4.8627C28.6385 4.87452 28.7494 4.91043 28.8494 4.96725C28.9676 5.0218 29.0708 5.10225 29.1526 5.2027C29.2344 5.30316 29.2926 5.42089 29.3222 5.54725L29.1085 5.60407C29.089 5.50589 29.0467 5.41407 28.9858 5.33452C28.9249 5.25543 28.8463 5.19134 28.7567 5.14725C28.4481 4.98498 28.0949 5.08225 27.9003 5.4518C27.7058 5.8218 27.8349 6.17316 28.1481 6.3377C28.4617 6.50225 28.6417 6.4227 28.6417 6.4227L28.8149 6.09361L28.4103 5.88089L28.4999 5.70952L29.109 6.02907L28.8031 6.60998ZM30.9963 8.20543C30.8826 8.22407 30.7658 8.2177 30.6549 8.18634C30.5435 8.15543 30.4408 8.09998 30.3531 8.02543C29.9594 7.72316 29.8808 7.21998 30.2031 6.80225C30.3076 6.66907 30.4485 6.56907 30.6094 6.51407C30.7694 6.45907 30.9422 6.45134 31.1067 6.4918C31.2713 6.5327 31.4208 6.61952 31.5372 6.74316C31.6535 6.86589 31.7317 7.02043 31.7631 7.1868L31.5663 7.27452C31.5563 7.18316 31.5281 7.09498 31.4831 7.01543C31.4376 6.93543 31.3772 6.86543 31.304 6.80998C31.0144 6.58634 30.6435 6.63225 30.3994 6.9468C30.1553 7.2618 30.2067 7.63316 30.4949 7.85589C30.5676 7.91589 30.6517 7.96043 30.7426 7.98543C30.8335 8.01043 30.9285 8.01634 31.0217 8.00225L30.9963 8.20543ZM31.6976 9.22043C31.3608 8.88316 31.3135 8.3677 31.6976 7.98361C32.0817 7.59952 32.5976 7.64589 32.934 7.98361C33.2713 8.32134 33.3194 8.83679 32.934 9.22089C32.5494 9.60498 32.0353 9.55725 31.6976 9.22043ZM32.7885 8.12952C32.544 7.88407 32.1667 7.85861 31.8731 8.15225C31.5794 8.44589 31.6081 8.82452 31.8513 9.0677C32.0944 9.31089 32.4744 9.33679 32.7667 9.04498C33.0585 8.7527 33.0335 8.37725 32.7885 8.12952ZM33.7326 11.63L33.5917 11.4409L34.599 10.5513L34.5944 10.545L33.199 10.9386L33.1199 10.8309L33.8944 9.60498L33.8908 9.59907L32.7526 10.3136L32.6108 10.1245L34.0617 9.23225L34.2381 9.46861L33.4808 10.6445V10.6482L34.8226 10.2545L34.9976 10.4909L33.7326 11.63ZM34.8463 13.6504L34.7353 13.4418L35.8649 12.7136L35.8613 12.7072L34.4222 12.8877L34.359 12.7682L35.309 11.6727V11.6668L34.0767 12.2022L33.9653 11.9932L35.5335 11.3295L35.6722 11.5904L34.7463 12.6382V12.6427L36.1326 12.4572L36.2694 12.7154L34.8463 13.6504ZM36.1281 15.08C35.9294 15.1532 35.7658 15.1927 35.5963 15.1313C35.4253 15.0491 35.2926 14.9036 35.2272 14.725C35.1613 14.5468 35.1681 14.35 35.2444 14.1763C35.3326 14.0191 35.4808 13.94 35.6817 13.8695L36.6226 13.5222L36.7058 13.7482L35.7853 14.0872C35.6517 14.1372 35.5235 14.1868 35.4549 14.2927C35.4244 14.3472 35.4067 14.4072 35.4017 14.4691C35.3972 14.5313 35.4058 14.5932 35.4272 14.6518C35.4485 14.71 35.4826 14.7627 35.5267 14.8063C35.5703 14.8504 35.6235 14.8845 35.6813 14.9063C35.8022 14.9427 35.9344 14.8968 36.0658 14.8486L36.9858 14.5095L37.0685 14.7332L36.1281 15.08ZM35.969 17.2718L35.9172 17.0441L37.0149 15.7886C37.0149 15.7886 36.794 15.8445 36.5785 15.8941L35.699 16.0954L35.6463 15.8659L37.2994 15.4863L37.3549 15.7304L36.2717 16.9654C36.2717 16.9654 36.4749 16.9154 36.6931 16.8663L37.5694 16.6645L37.6222 16.8918L35.969 17.2718ZM36.0776 18.1023L36.0467 17.8659L37.7285 17.6432L37.7599 17.8795L36.0776 18.1023ZM37.6976 19.6332L37.6708 19.1604L36.1753 19.245L36.1617 19.0086L37.6572 18.9245L37.6299 18.4459L37.829 18.435L37.8958 19.6277L37.6976 19.6332ZM36.1894 20.3895L36.194 20.1532L37.8894 20.1827L37.8858 20.4191L36.1894 20.3895ZM36.0735 21.9995L36.1699 20.9909L37.8572 21.1486L37.7635 22.1363L37.5663 22.1172L37.6372 21.3663L37.1331 21.3195L37.0653 22.0277L36.8681 22.0091L36.9349 21.3L36.3476 21.2445L36.2744 22.015L36.0735 21.9995ZM35.9317 23.3691C35.8653 23.235 35.8481 23.0818 35.8822 22.9363C35.9063 22.8318 35.9531 22.7345 36.0199 22.6504C36.0863 22.5668 36.1708 22.4995 36.2672 22.4527L36.3972 22.6245C36.319 22.6591 36.2494 22.7109 36.194 22.7759C36.1381 22.8409 36.0976 22.9172 36.0753 23C36.0399 23.1809 36.1153 23.3454 36.2917 23.38C36.4602 23.4134 36.5599 23.2572 36.612 23.1754L36.619 23.1645L36.6331 23.1426C36.6818 23.0671 36.7429 22.9722 36.7826 22.9213C36.8231 22.8641 36.874 22.8154 36.9331 22.7777C36.979 22.7491 37.0299 22.7295 37.0831 22.7209C37.1367 22.7118 37.1917 22.7136 37.244 22.7259C37.3058 22.7382 37.3635 22.7636 37.414 22.8009C37.464 22.8377 37.5058 22.8859 37.5353 22.9409C37.599 23.0668 37.6153 23.2113 37.5826 23.3486C37.5644 23.4386 37.5276 23.5241 37.4744 23.5986C37.4213 23.6741 37.3531 23.7368 37.2744 23.7841L37.1385 23.6263C37.2013 23.5918 37.2558 23.5445 37.299 23.4872C37.3426 23.4304 37.3731 23.3645 37.3899 23.295C37.4217 23.1313 37.3694 22.9904 37.2149 22.96C37.0603 22.9291 36.9785 23.0313 36.9194 23.125L36.7317 23.4059C36.6844 23.4695 36.6263 23.5245 36.559 23.5672C36.4681 23.6186 36.3617 23.6354 36.2594 23.6141C36.1899 23.6004 36.1244 23.5713 36.0676 23.5286C36.0113 23.4863 35.9649 23.4313 35.9317 23.3691ZM35.594 24.1736C35.6035 24.1441 35.6213 24.1177 35.6458 24.0982C35.6703 24.0786 35.6999 24.0668 35.7308 24.0641C35.7617 24.0618 35.7931 24.0686 35.8203 24.0832C35.8476 24.0982 35.8699 24.1213 35.884 24.1486C35.8985 24.1763 35.904 24.2077 35.9008 24.2386C35.8972 24.2695 35.8849 24.2991 35.8644 24.3227C35.8444 24.3463 35.8181 24.3636 35.7881 24.3727C35.7581 24.3809 35.7263 24.3804 35.6967 24.3713C35.6763 24.3659 35.6572 24.3563 35.6413 24.3432C35.6249 24.33 35.6113 24.3136 35.6017 24.295C35.5922 24.2768 35.5863 24.2559 35.5849 24.235C35.584 24.2141 35.5867 24.1932 35.594 24.1736ZM6.21898 27.9472C6.17989 27.8772 6.16262 27.7972 6.16898 27.7177C6.17535 27.6382 6.20535 27.5618 6.25535 27.4995C6.30535 27.4368 6.37216 27.3904 6.44853 27.3659C6.52444 27.3413 6.60625 27.3404 6.68307 27.3622C6.76034 27.385 6.82853 27.4291 6.88035 27.4904C6.93171 27.5513 6.96398 27.6268 6.97307 27.7063C6.98171 27.7859 6.96671 27.8659 6.92944 27.9373C6.89262 28.0082 6.83535 28.0663 6.76535 28.105C6.67125 28.1541 6.56216 28.165 6.4608 28.1359C6.35853 28.1063 6.27216 28.0391 6.21898 27.9472ZM7.70171 31.1345L7.5358 30.9345L8.95262 29.7541L9.11807 29.9541L7.70171 31.1345ZM9.83035 33.2954L9.64307 33.1191L10.554 31.9745L10.5485 31.9682L9.12671 32.6563L9.01944 32.5554L9.61716 31.0945L9.6108 31.0891L8.52762 32.0709L8.34125 31.895L9.72671 30.6632L9.96307 30.8836L9.37398 32.2872L9.37762 32.2909L10.7426 31.6163L10.9744 31.8345L9.83035 33.2954ZM11.9167 34.7809L11.6803 34.6186L11.7944 34.1132L11.1399 33.6672L10.7113 33.9582L10.4831 33.8022L12.1481 32.7004L12.3363 32.8286L11.9167 34.7809ZM11.8544 33.8936L12.0544 33.0277L11.319 33.5309L11.8544 33.8936ZM14.2244 35.6704L14.2146 35.674C14.1434 35.7005 13.8345 35.8153 13.3881 35.5963C12.9172 35.365 12.7076 34.8422 12.9594 34.325C13.2113 33.8077 13.7467 33.6522 14.219 33.8818C14.3485 33.9377 14.4635 34.0222 14.5553 34.1286C14.6472 34.2359 14.714 34.3622 14.7494 34.4982L14.519 34.5677C14.4949 34.4618 14.4467 34.3632 14.3785 34.2791C14.3103 34.1945 14.224 34.1273 14.1253 34.0818C13.7835 33.9159 13.4017 34.0332 13.2026 34.4422C13.0035 34.8513 13.1553 35.2295 13.5026 35.3982C13.8499 35.5663 14.0426 35.4768 14.0426 35.4768L14.2222 35.1086L13.7749 34.8904L13.8672 34.7004L14.5408 35.0291L14.2244 35.6704ZM15.3258 36.3591L15.0803 36.2736L15.6908 34.53L15.9363 34.6154L15.3258 36.3591ZM17.8713 37.0345L17.6235 36.9786L16.9081 35.3082C16.9081 35.3082 16.8581 35.5522 16.8058 35.7877L16.5894 36.7459L16.339 36.6891L16.7453 34.8882L17.0113 34.9477L17.7135 36.5932C17.7135 36.5932 17.7608 36.3704 17.814 36.1332L18.0299 35.1768L18.2776 35.2327L17.8713 37.0345ZM20.0535 37.2745L18.9517 37.1827L19.109 35.3432L20.1863 35.4336L20.1681 35.6491L19.349 35.5809L19.3035 36.1318L20.0763 36.1973L20.0581 36.4127L19.2853 36.3482L19.2308 36.9882L20.0708 37.0591L20.0535 37.2745ZM23.6622 36.8463C23.5867 36.9472 23.4908 37.0304 23.3803 37.09C23.2699 37.15 23.1476 37.1854 23.0222 37.1927C22.4876 37.2527 22.0413 36.9227 21.9776 36.3513C21.914 35.78 22.2835 35.3586 22.8103 35.2995C22.929 35.2818 23.0499 35.2877 23.1667 35.3168C23.2831 35.3454 23.3926 35.3972 23.489 35.4691L23.4031 35.6918C23.3267 35.6277 23.2376 35.58 23.1417 35.5518C23.0463 35.5236 22.9458 35.5154 22.8463 35.5272C22.4531 35.5723 22.1949 35.8886 22.2426 36.32C22.2908 36.7513 22.6126 37.0022 23.0063 36.9582C23.1085 36.9504 23.2081 36.9209 23.2981 36.8718C23.3885 36.8227 23.4672 36.755 23.529 36.6732L23.6622 36.8463ZM26.1094 36.5172L25.8299 36.59L25.5253 36.1709L24.7585 36.3704L24.6949 36.8841L24.4313 36.9527L24.694 34.9709L24.9144 34.9141L26.1094 36.5172ZM25.4008 35.98L24.879 35.2582L24.7735 36.1418L25.4008 35.98ZM28.4076 35.6077L28.1713 35.7068L26.6203 34.7682C26.6203 34.7682 26.7226 34.9954 26.8172 35.2172L27.2013 36.1218L26.9649 36.2222L26.2422 34.5222L26.4935 34.4159L28.0244 35.3413C28.0244 35.3413 27.9326 35.1327 27.8372 34.9086L27.454 34.0072L27.6903 33.9072L28.4072 35.6072L28.4076 35.6077ZM30.6899 34.2922L30.4435 34.4432L30.0303 34.1282L29.3549 34.5432L29.4449 35.0522L29.2126 35.1959L28.8853 33.2241L29.0785 33.105L30.6899 34.2922ZM29.8558 33.985L29.1472 33.4468L29.3044 34.3236L29.8558 33.985ZM32.2181 32.7791C32.174 33.0272 32.0394 33.2504 31.8403 33.405L31.4122 33.7609L30.2313 32.3436L30.6594 31.9882C30.8481 31.8204 31.0922 31.7291 31.3444 31.7322C31.4708 31.7427 31.594 31.7777 31.7063 31.8368C31.819 31.895 31.919 31.9754 32.0003 32.0732C32.0817 32.17 32.1426 32.2827 32.1799 32.4041C32.2176 32.5254 32.2303 32.6527 32.2181 32.7791ZM31.2917 31.9732C31.1113 31.9695 30.9363 32.035 30.8026 32.1559L30.5744 32.3454L31.4685 33.4222L31.6967 33.2327C31.8403 33.1236 31.9367 32.9641 31.9663 32.7863C31.9753 32.6886 31.9653 32.59 31.9363 32.4963C31.9072 32.4022 31.8603 32.3154 31.7976 32.2395C31.7349 32.1641 31.6581 32.1018 31.5713 32.0559C31.4844 32.0104 31.3894 31.9823 31.2917 31.9732ZM34.294 30.9936L34.0985 31.2045L33.6144 31.0213L33.0808 31.6068L33.309 32.0722L33.1258 32.2736L32.2599 30.4713L32.4122 30.3027L34.294 30.9936ZM33.4058 30.9309L32.5744 30.6159L32.9681 31.4141L33.4058 30.9309ZM35.529 28.1345C35.4899 28.2045 35.4313 28.2609 35.3603 28.2972C35.2894 28.3336 35.209 28.3477 35.1299 28.3382C35.0508 28.3291 34.9758 28.2968 34.9153 28.245C34.8544 28.1936 34.8103 28.125 34.7881 28.0482C34.7663 27.9718 34.7676 27.89 34.7922 27.8141C34.8163 27.7382 34.8626 27.6713 34.9249 27.6213C34.9872 27.5718 35.0631 27.5418 35.1426 27.535C35.2222 27.5282 35.3017 27.5454 35.3717 27.5836C35.4644 27.6368 35.5331 27.7245 35.5626 27.8272C35.5917 27.93 35.5799 28.0409 35.529 28.1345ZM23.3662 13.4932L22.8139 14.4497L21.4981 12.1709C21.4694 12.1214 21.429 12.0805 21.3799 12.0523C21.3304 12.0237 21.2744 12.0087 21.2176 12.0087C21.1608 12.0087 21.1054 12.0237 21.0558 12.0523C21.0067 12.0805 20.9658 12.1214 20.9376 12.1705L14.7472 22.8937C14.719 22.9428 14.704 22.9982 14.704 23.0555C14.704 23.1123 14.719 23.1678 14.7476 23.2168C14.7758 23.2659 14.8167 23.3068 14.8658 23.335C14.9149 23.3637 14.9704 23.3787 15.0272 23.3787H27.4076C27.4644 23.3787 27.5204 23.3641 27.5694 23.3359C27.619 23.3078 27.6604 23.2668 27.6885 23.2178C27.7172 23.1687 27.7322 23.1128 27.7322 23.0559C27.7322 22.9987 27.7176 22.9432 27.6894 22.8937L26.4063 20.6714H27.5103L23.3662 13.4932ZM21.9444 15.9553L19.2212 20.6714H19.2221H24.6667L25.3608 21.8741H17.0735L21.2176 14.695L21.9442 15.9541L21.944 15.9545L21.9444 15.9553Z" fill="#17191F"/>
</g>
<defs>
<clipPath id="clip0_21485_2278">
<rect width="40" height="40" fill="white" transform="translate(0.925781)"/>
</clipPath>
</defs>
</svg>
