<svg width="16" height="16" viewBox="0 0 16 16" fill="none" xmlns="http://www.w3.org/2000/svg">
<g clip-path="url(#clip0_67_10097)">
<path d="M0 8C0 12.4183 3.58172 16 8 16C12.4183 16 16 12.4183 16 8C16 3.58172 12.4183 0 8 0C3.58172 0 0 3.58172 0 8Z" fill="#126B00"/>
<path fill-rule="evenodd" clip-rule="evenodd" d="M9.98676 8.05123C9.13058 9.01891 8.4088 10.1254 8.01191 10.8398L7.56123 11.6511L3.90503 7.99486L4.89498 7.00491L7.26016 9.37009C7.69854 8.6804 8.27939 7.8682 8.93825 7.12353C9.84498 6.09872 11.0192 5.06219 12.2627 4.81348L12.5373 6.18629C11.7809 6.33757 10.8717 7.05105 9.98676 8.05123Z" fill="white"/>
</g>
<defs>
<clipPath id="clip0_67_10097">
<rect width="16" height="16" fill="white"/>
</clipPath>
</defs>
</svg>
