<svg width="24" height="25" viewBox="0 0 24 25" fill="none" xmlns="http://www.w3.org/2000/svg">
<path d="M0 12.5C0 5.87258 5.37258 0.5 12 0.5C18.6274 0.5 24 5.87258 24 12.5C24 19.1274 18.6274 24.5 12 24.5C5.37258 24.5 0 19.1274 0 12.5Z" fill="#5499D9"/>
<path d="M10.8197 8.63092C10.3788 8.31079 9.74072 8.11946 9.0001 8.04123C8.26728 7.96381 7.48075 8.002 6.78601 8.10102C6.26866 8.17476 5.82252 8.27929 5.5 8.38471V15.9426C5.83852 15.8502 6.2286 15.7694 6.64146 15.7076C7.39555 15.5947 8.26342 15.5398 9.09212 15.6054C9.91172 15.6704 10.7426 15.857 11.383 16.2668C11.4228 16.2923 11.4618 16.3186 11.5 16.3458L11.5 10.0251C11.5 9.3631 11.2353 8.93261 10.8197 8.63092ZM11.4072 7.82169C11.6355 7.98741 11.8356 8.18168 12 8.40533C12.1644 8.18168 12.3645 7.98741 12.5928 7.82169C13.234 7.35613 14.0697 7.13393 14.8948 7.04676C15.7278 6.95877 16.5992 7.00329 17.3551 7.11103C18.1041 7.21779 18.7769 7.39197 19.2048 7.58408L19.5 7.71662V17.414L18.7952 17.0976C18.4858 16.9587 17.9145 16.8019 17.2105 16.6966C16.514 16.5923 15.724 16.5439 14.9869 16.6023C14.2407 16.6614 13.5979 16.8263 13.156 17.1091C12.7423 17.3739 12.5 17.7401 12.5 18.2955L12.5 18.4997L12.4975 18.5022C12.3247 18.6737 12.152 18.7262 12 18.7215C11.848 18.7262 11.6753 18.6737 11.5025 18.5022L11.5 18.4997L11.5 18.2955C11.5 17.7401 11.2577 17.3739 10.844 17.1091C10.4021 16.8263 9.75932 16.6614 9.01314 16.6023C8.27605 16.5439 7.48603 16.5923 6.78946 16.6966C6.08546 16.8019 5.51418 16.9587 5.20479 17.0976L4.5 17.414V7.71662L4.79521 7.58408C5.22312 7.39197 5.89588 7.21779 6.64491 7.11103C7.40082 7.00329 8.27219 6.95877 9.10516 7.04676C9.93033 7.13393 10.766 7.35613 11.4072 7.82169ZM12.617 16.2668C13.2574 15.857 14.0883 15.6704 14.9079 15.6054C15.7366 15.5398 16.6045 15.5947 17.3585 15.7076C17.7714 15.7694 18.1615 15.8502 18.5 15.9426V8.38471C18.1775 8.27929 17.7313 8.17476 17.214 8.10102C16.5192 8.002 15.7327 7.96381 14.9999 8.04123C14.2593 8.11946 13.6212 8.31079 13.1803 8.63092C12.7647 8.93261 12.5 9.3631 12.5 10.0251L12.5 16.3458C12.5382 16.3186 12.5772 16.2923 12.617 16.2668ZM6.15752 10.3711C7.89759 9.79348 9.49734 9.83771 10.6686 10.8745L11.3314 10.1257C9.77538 8.74831 7.73876 8.79254 5.84247 9.42204L6.15752 10.3711ZM13.3314 10.8745C14.5027 9.83771 16.1024 9.79348 17.8425 10.3711L18.1575 9.42204C16.2612 8.79254 14.2246 8.74831 12.6686 10.1257L13.3314 10.8745ZM6.15752 12.3711C7.89759 11.7935 9.49734 11.8377 10.6686 12.8745L11.3314 12.1257C9.77538 10.7483 7.73876 10.7925 5.84247 11.422L6.15752 12.3711Z" fill="white"/>
<circle cx="12" cy="12.5" r="11.5" stroke="#EAEBEE"/>
</svg>
