<svg width="24" height="24" viewBox="0 0 24 24" fill="none" xmlns="http://www.w3.org/2000/svg">
<path d="M0 12C0 5.37258 5.37258 0 12 0C18.6274 0 24 5.37258 24 12C24 18.6274 18.6274 24 12 24C5.37258 24 0 18.6274 0 12Z" fill="#718096"/>
<path d="M10.8197 8.13092C10.3788 7.81079 9.74072 7.61946 9.0001 7.54123C8.26728 7.46381 7.48075 7.502 6.78601 7.60102C6.26866 7.67476 5.82252 7.77929 5.5 7.88471V15.4426C5.83852 15.3502 6.2286 15.2694 6.64146 15.2076C7.39555 15.0947 8.26342 15.0398 9.09212 15.1054C9.91172 15.1704 10.7426 15.357 11.383 15.7668C11.4228 15.7923 11.4618 15.8186 11.5 15.8458L11.5 9.52512C11.5 8.8631 11.2353 8.43261 10.8197 8.13092ZM11.4072 7.32169C11.6355 7.48741 11.8356 7.68168 12 7.90533C12.1644 7.68168 12.3645 7.48741 12.5928 7.32169C13.234 6.85613 14.0697 6.63393 14.8948 6.54676C15.7278 6.45877 16.5992 6.50329 17.3551 6.61103C18.1041 6.71779 18.7769 6.89197 19.2048 7.08408L19.5 7.21662V16.914L18.7952 16.5976C18.4858 16.4587 17.9145 16.3019 17.2105 16.1966C16.514 16.0923 15.724 16.0439 14.9869 16.1023C14.2407 16.1614 13.5979 16.3263 13.156 16.6091C12.7423 16.8739 12.5 17.2401 12.5 17.7955L12.5 17.9997L12.4975 18.0022C12.3247 18.1737 12.152 18.2262 12 18.2215C11.848 18.2262 11.6753 18.1737 11.5025 18.0022L11.5 17.9997L11.5 17.7955C11.5 17.2401 11.2577 16.8739 10.844 16.6091C10.4021 16.3263 9.75932 16.1614 9.01314 16.1023C8.27605 16.0439 7.48603 16.0923 6.78946 16.1966C6.08546 16.3019 5.51418 16.4587 5.20479 16.5976L4.5 16.914V7.21662L4.79521 7.08408C5.22312 6.89197 5.89588 6.71779 6.64491 6.61103C7.40082 6.50329 8.27219 6.45877 9.10516 6.54676C9.93033 6.63393 10.766 6.85613 11.4072 7.32169ZM12.617 15.7668C13.2574 15.357 14.0883 15.1704 14.9079 15.1054C15.7366 15.0398 16.6045 15.0947 17.3585 15.2076C17.7714 15.2694 18.1615 15.3502 18.5 15.4426V7.88471C18.1775 7.77929 17.7313 7.67476 17.214 7.60102C16.5192 7.502 15.7327 7.46381 14.9999 7.54123C14.2593 7.61946 13.6212 7.81079 13.1803 8.13092C12.7647 8.43261 12.5 8.8631 12.5 9.52512L12.5 15.8458C12.5382 15.8186 12.5772 15.7923 12.617 15.7668ZM6.15752 9.87111C7.89759 9.29348 9.49734 9.33771 10.6686 10.3745L11.3314 9.62573C9.77538 8.24831 7.73876 8.29254 5.84247 8.92204L6.15752 9.87111ZM13.3314 10.3745C14.5027 9.33771 16.1024 9.29348 17.8425 9.87111L18.1575 8.92204C16.2612 8.29254 14.2246 8.24831 12.6686 9.62573L13.3314 10.3745ZM6.15752 11.8711C7.89759 11.2935 9.49734 11.3377 10.6686 12.3745L11.3314 11.6257C9.77538 10.2483 7.73876 10.2925 5.84247 10.922L6.15752 11.8711Z" fill="white"/>
<circle cx="12" cy="12" r="11.5" stroke="#EAEBEE"/>
</svg>
