<svg width="16" height="16" viewBox="0 0 16 16" fill="none" xmlns="http://www.w3.org/2000/svg">
<g clip-path="url(#clip0_6791_11060)">
<path fill-rule="evenodd" clip-rule="evenodd" d="M7.78633 0.250488L7.40331 1.39522C6.05737 5.41781 3.66086 6.67237 3.61084 6.69811L0.0433655 8.47679L2.27435 12.9515L3.17823 12.5008C3.77869 13.4894 4.51436 14.4808 5.62669 15.4042L6.0114 15.7236L7.92762 13.4153L7.54291 13.096C6.82082 12.4965 6.32996 11.883 5.87379 11.1582C5.88805 11.1519 5.90693 11.1438 5.93036 11.1341C5.9982 11.1063 6.1041 11.0658 6.24628 11.0204C6.53064 10.9297 6.95997 10.8193 7.52031 10.7508C8.63886 10.6139 10.2881 10.6423 12.3593 11.3353L13.504 11.7184L7.78633 0.250488ZM5.88901 14.3055C5.11487 13.5913 4.55866 12.8375 4.07675 12.0528L4.97384 11.6055C5.40233 12.2969 5.87606 12.9283 6.52838 13.5353L5.88901 14.3055ZM5.39737 10.277C5.39711 10.2771 5.39686 10.2772 5.61996 10.7247L5.39737 10.277L2.72309 11.6103L1.3845 8.92552L4.05825 7.59244C4.06032 7.59141 4.06403 7.58954 4.06928 7.58683L5.40796 10.2718L5.40264 10.2744L5.39926 10.276L5.39737 10.277ZM6.36399 9.94815C6.64984 9.87647 6.9961 9.80744 7.39885 9.75816C8.4384 9.63095 9.84849 9.63609 11.5605 10.0614L7.94001 2.79989C6.9793 5.05828 5.72285 6.35603 4.90306 7.01798L6.36399 9.94815ZM12.0882 5.82378L15.6679 4.03898L15.2217 3.14405L11.642 4.92884L12.0882 5.82378ZM12.3448 0.615617L11.0884 4.37078L10.1401 4.05348L11.3965 0.298312L12.3448 0.615617ZM12.2007 6.60174L15.9559 7.8582L15.6386 8.80652L11.8834 7.55006L12.2007 6.60174Z" fill="#17191F"/>
</g>
<defs>
<clipPath id="clip0_6791_11060">
<rect width="16" height="16" fill="white"/>
</clipPath>
</defs>
</svg>
