<svg width="16" height="16" viewBox="0 0 16 16" fill="none" xmlns="http://www.w3.org/2000/svg">
<path fill-rule="evenodd" clip-rule="evenodd" d="M1.50001 8C1.50001 4.41015 4.41016 1.5 8.00001 1.5C11.5899 1.5 14.5 4.41015 14.5 8C14.5 11.5899 11.5899 14.5 8.00001 14.5C6.79364 14.5 5.66277 14.1709 4.6938 13.5974L0.752899 14.3503L2.35782 11.2294C1.81202 10.2777 1.50001 9.17462 1.50001 8ZM8.00001 2.5C4.96245 2.5 2.50001 4.96243 2.50001 8C2.50001 9.08307 2.81257 10.0916 3.3522 10.9422C3.44725 11.092 3.45579 11.2809 3.37466 11.4387L2.58046 12.9831L4.69617 12.5789C4.82111 12.555 4.95045 12.5797 5.05786 12.6478C5.90839 13.1874 6.91694 13.5 8.00001 13.5C11.0376 13.5 13.5 11.0376 13.5 8C13.5 4.96243 11.0376 2.5 8.00001 2.5Z" fill="#17191F"/>
</svg>
