<svg width="16" height="16" viewBox="0 0 16 16" fill="none" xmlns="http://www.w3.org/2000/svg">
<g clip-path="url(#clip0_131_18443)">
<path fill-rule="evenodd" clip-rule="evenodd" d="M1 8C1 11.866 4.13401 15 8 15C11.866 15 15 11.866 15 8C15 4.13401 11.866 1 8 1C4.13401 1 1 4.13401 1 8ZM8 16C3.58172 16 0 12.4183 0 8C0 3.58172 3.58172 0 8 0C12.4183 0 16 3.58172 16 8C16 12.4183 12.4183 16 8 16ZM8.50012 4.67157V7.5H11.3285V8.5H8.50012V11.3284H7.50012V8.5H4.67169L4.6717 7.5H7.50012V4.67157H8.50012Z" fill="#17191F"/>
</g>
<defs>
<clipPath id="clip0_131_18443">
<rect width="16" height="16" fill="white"/>
</clipPath>
</defs>
</svg>
