<svg width="16" height="16" viewBox="0 0 16 16" fill="none" xmlns="http://www.w3.org/2000/svg">
<g clip-path="url(#clip0_740_70959)">
<path fill-rule="evenodd" clip-rule="evenodd" d="M8 15C4.13401 15 1 11.866 1 8C1 4.13401 4.13401 1 8 1C11.866 1 15 4.13401 15 8C15 11.866 11.866 15 8 15ZM0 8C0 12.4183 3.58172 16 8 16C12.4183 16 16 12.4183 16 8C16 3.58172 12.4183 0 8 0C3.58172 0 0 3.58172 0 8ZM8.06099 11.1936C8.50415 10.1385 9.15981 8.79016 10.0224 7.6606C10.8922 6.52154 11.916 5.67832 13.0784 5.49382L12.9216 4.50618C11.384 4.75025 10.1578 5.8356 9.22762 7.05369C8.46999 8.04581 7.87115 9.17498 7.42814 10.1458L7.35701 10.0781L7.2473 9.97362L7.21891 9.94659L7.21176 9.93977L7.20459 9.93294L7.19017 9.91921L7.17566 9.90539L7.16837 9.89845L7.16106 9.89149L7.15374 9.88451L7.14638 9.87751L7.13901 9.87049L7.13162 9.86345L7.11677 9.84931L7.10184 9.83509L7.08683 9.82079L7.07174 9.80642L7.04132 9.77745L7.0106 9.74819L6.94828 9.68884L6.94041 9.68135L6.93253 9.67384L6.92463 9.66631L6.91671 9.65877L6.88487 9.62844L6.85277 9.59788L6.84471 9.5902L6.83663 9.5825L6.82854 9.5748L6.82043 9.56707L6.81231 9.55934L6.80417 9.55159L6.79602 9.54383L6.78785 9.53605L6.77148 9.52045L6.76327 9.51264L6.75505 9.50481L6.72203 9.47336L6.70544 9.45756L6.6888 9.44171L6.67211 9.42582L6.66375 9.41786L6.65538 9.40988L6.64699 9.4019L6.63859 9.3939L6.63019 9.38589L6.62177 9.37787L6.60489 9.3618L6.58798 9.34569L6.55402 9.31336L6.54551 9.30525L6.53699 9.29713L6.52845 9.289L6.51991 9.28087L6.48565 9.24824L6.46847 9.23187L6.45986 9.22368L6.45125 9.21548L6.44263 9.20727L6.434 9.19905L6.42537 9.19083L6.41673 9.1826L6.39942 9.16611L6.39075 9.15786L6.38208 9.1496L6.36472 9.13306L6.35603 9.12479L6.34733 9.1165L6.06656 8.84911L5.78448 8.58045L5.77569 8.57209L5.76692 8.56373L5.74937 8.54702L5.74061 8.53867L5.73184 8.53033L5.72309 8.52199L5.71434 8.51365L5.67938 8.48036L5.67065 8.47205L5.66193 8.46374L5.65321 8.45544L5.6445 8.44715L5.57506 8.38101L5.50608 8.31532L5.43765 8.25014L5.42063 8.23394L5.41214 8.22585L5.40366 8.21777L5.38673 8.20164L5.36984 8.18556L5.36141 8.17753L5.35299 8.16951L5.34458 8.16151L5.33619 8.15351L5.3278 8.14553L5.31943 8.13755L5.31107 8.12959L5.30272 8.12164L5.29439 8.1137L5.28606 8.10578L5.27775 8.09786L5.26945 8.08996L5.2529 8.07419L5.23639 8.05847L5.20354 8.02718L5.17091 7.99611L5.16279 7.98837L5.15469 7.98065L5.13852 7.96526L5.12242 7.94992L5.10637 7.93464L5.09837 7.92702L5.09039 7.91942L5.08243 7.91183L5.07448 7.90426L5.06654 7.89671L5.05863 7.88917L5.04284 7.87414L5.02713 7.85917L5.01149 7.84427L5.00369 7.83685L4.99591 7.82944L4.98041 7.81467L4.94962 7.78536L4.91914 7.75633L4.85913 7.69917L4.85171 7.69211L4.84433 7.68507L4.82961 7.67106L4.82228 7.66408L4.81498 7.65712L4.80043 7.64327L4.74315 7.58871L4.68735 7.53557L4.68048 7.52903L4.67364 7.52251L4.66002 7.50955L4.65326 7.5031L4.64651 7.49668L4.6398 7.49028L4.6331 7.48391L4.6198 7.47123L4.60659 7.45866L4.5805 7.43381L4.57405 7.42766L4.56762 7.42154L4.55484 7.40937L4.54849 7.40333L4.54217 7.39731L4.53588 7.39132L4.52962 7.38535L4.48053 7.3386L4.46855 7.32719L4.4626 7.32153L4.45668 7.31589L4.43332 7.29364L4.42755 7.28814L4.42182 7.28268L4.41044 7.27185L4.38806 7.25053L4.37706 7.24005L4.36618 7.2297L4.35544 7.21947L4.35012 7.2144L4.34483 7.20936L3.65517 7.9335L3.74366 8.01777L3.83996 8.10949L3.94345 8.20805L3.99769 8.2597L4.0115 8.27285L4.0254 8.2861L4.05349 8.31285L4.16947 8.4233L4.19932 8.45173L4.21436 8.46606L4.22949 8.48046L4.23708 8.48769L4.24469 8.49494L4.25997 8.50949L4.29075 8.53881L4.2985 8.54619L4.30626 8.55358L4.32183 8.56841L4.32964 8.57585L4.33747 8.58331L4.35319 8.59828L4.36897 8.61331L4.37689 8.62085L4.38482 8.6284L4.40074 8.64356L4.41672 8.65878L4.43276 8.67406L4.44887 8.6894L4.46503 8.70479L4.48126 8.72025L4.49754 8.73575L4.50571 8.74353L4.51388 8.75132L4.52208 8.75912L4.53028 8.76694L4.54673 8.7826L4.5798 8.81409L4.61307 8.84578L4.62978 8.86169L4.63815 8.86967L4.64653 8.87765L4.68018 8.9097L4.714 8.94191L4.72249 8.94999L4.73098 8.95807L4.73948 8.96617L4.74799 8.97428L4.78214 9.0068L4.7907 9.01495L4.79926 9.02311L4.80784 9.03128L4.81643 9.03945L4.95485 9.17129L5.02468 9.23779L5.05972 9.27116L5.07726 9.28787L5.08604 9.29623L5.09482 9.30459L5.16519 9.37161L5.174 9.38L5.18281 9.38839L5.19162 9.39679L5.20044 9.40518L5.21807 9.42198L5.23571 9.43878L5.37691 9.57324L5.44742 9.6404L5.48262 9.67392L5.51777 9.7074L5.52655 9.71576L5.53532 9.72411L5.54409 9.73247L5.55286 9.74082L5.58788 9.77417L5.65767 9.84064L5.67506 9.8572L5.69243 9.87374L5.70976 9.89025L5.72707 9.90673L5.73571 9.91497L5.74435 9.92319L5.7616 9.93962L5.77881 9.95601L5.796 9.97238L5.83026 10.005L5.8388 10.0131L5.84733 10.0213L5.85585 10.0294L5.86437 10.0375L5.89832 10.0698L5.91524 10.0859L5.93211 10.102L5.99914 10.1659L6.00747 10.1738L6.01578 10.1817L6.03237 10.1975L6.06539 10.2289L6.08182 10.2446L6.09002 10.2524L6.0982 10.2602L6.11451 10.2757L6.12265 10.2835L6.13077 10.2912L6.13888 10.2989L6.14697 10.3066L6.15505 10.3143L6.16312 10.322L6.17919 10.3373L6.18721 10.345L6.19521 10.3526L6.25863 10.413L6.27431 10.4279L6.28213 10.4354L6.28993 10.4428L6.32094 10.4723L6.35167 10.5016L6.36691 10.5161L6.38208 10.5306L6.44196 10.5876L6.45673 10.6016L6.47141 10.6156L6.50051 10.6433L6.51493 10.6571L6.52211 10.6639L6.52926 10.6707L6.55764 10.6978L6.66736 10.8022L6.69378 10.8274L6.70032 10.8336L6.70684 10.8398L6.71978 10.8522L6.77048 10.9005L6.7767 10.9064L6.78288 10.9123L6.78903 10.9181L6.79516 10.924L6.80126 10.9298L6.80733 10.9355L6.81938 10.947L6.86639 10.9918L6.88916 11.0135L6.89478 11.0188L6.90036 11.0242L6.90592 11.0294L6.91144 11.0347L6.95445 11.0757L6.99534 11.1146L7.03404 11.1515L7.1653 11.2765L7.21573 11.3245L7.22664 11.3349L7.23686 11.3446L7.24637 11.3537L7.25517 11.3621L7.78022 11.8621L8.06099 11.1936Z" fill="#17191F"/>
</g>
<defs>
<clipPath id="clip0_740_70959">
<rect width="16" height="16" fill="white"/>
</clipPath>
</defs>
</svg>
