<svg width="16" height="16" viewBox="0 0 16 16" fill="none" xmlns="http://www.w3.org/2000/svg">
<path d="M12.0362 1.29004L14.7076 3.96143L5.90766 12.7614L5.76121 12.9079H5.5541C5.32943 12.9079 4.8949 12.9898 4.39858 13.1139C3.9202 13.2335 3.44142 13.3772 3.15864 13.4715L2.20996 13.7877L2.52619 12.839C2.62466 12.5436 2.76714 12.1158 2.8853 11.6668C3.0057 11.2092 3.08982 10.7694 3.08982 10.4436V10.2365L12.0362 1.29004ZM4.08241 10.6581C4.05544 11.0665 3.95851 11.5179 3.85237 11.9213C3.82327 12.0318 3.79288 12.141 3.76214 12.247C3.89103 12.2118 4.02352 12.1769 4.15605 12.1438C4.5526 12.0446 4.9903 11.9502 5.33607 11.9188L11.7756 5.47929L10.5184 4.22211L4.08436 10.6561L4.08241 10.6581ZM13.2934 3.96143L12.0362 2.70425L12.0296 2.71089L11.2408 3.49969L11.2255 3.515L12.4827 4.77218L13.2934 3.96143ZM8.16728 12.8305V13.8305H14.5006V12.8305H8.16728Z" fill="#17191F"/>
</svg>
