<svg width="60" height="60" viewBox="0 0 60 60" fill="none" xmlns="http://www.w3.org/2000/svg">
<g clip-path="url(#clip0_48_33920)">
<path d="M0 30C0 13.4315 13.4315 0 30 0C46.5685 0 60 13.4315 60 30C60 46.5685 46.5685 60 30 60C13.4315 60 0 46.5685 0 30Z" fill="#D30519" fill-opacity="0.4"/>
<g filter="url(#filter0_d_48_33920)">
<path d="M5 30C5 16.1929 16.1929 5 30 5C43.8071 5 55 16.1929 55 30C55 43.8071 43.8071 55 30 55C16.1929 55 5 43.8071 5 30Z" fill="#D30519" fill-opacity="0.4" shape-rendering="crispEdges"/>
</g>
<g filter="url(#filter1_d_48_33920)">
<path d="M12 30C12 20.0589 20.0589 12 30 12C39.9411 12 48 20.0589 48 30C48 39.9411 39.9411 48 30 48C20.0589 48 12 39.9411 12 30Z" fill="#D30519" shape-rendering="crispEdges"/>
<g clip-path="url(#clip1_48_33920)">
<path fill-rule="evenodd" clip-rule="evenodd" d="M30 37C26.134 37 23 33.866 23 30C23 26.134 26.134 23 30 23C33.866 23 37 26.134 37 30C37 33.866 33.866 37 30 37ZM22 30C22 34.4183 25.5817 38 30 38C34.4183 38 38 34.4183 38 30C38 25.5817 34.4183 22 30 22C25.5817 22 22 25.5817 22 30ZM29.5 32.1667V31.6667L29.5 25.6667V25.1667H30.5V25.6667L30.5 31.6667V32.1667H29.5ZM29.3334 33.8333C29.3334 33.4651 29.6319 33.1667 30.0001 33.1667C30.3683 33.1667 30.6667 33.4651 30.6667 33.8333C30.6667 34.2015 30.3683 34.5 30.0001 34.5C29.6319 34.5 29.3334 34.2015 29.3334 33.8333Z" fill="white"/>
</g>
</g>
</g>
<defs>
<filter id="filter0_d_48_33920" x="3" y="5" width="54" height="54" filterUnits="userSpaceOnUse" color-interpolation-filters="sRGB">
<feFlood flood-opacity="0" result="BackgroundImageFix"/>
<feColorMatrix in="SourceAlpha" type="matrix" values="0 0 0 0 0 0 0 0 0 0 0 0 0 0 0 0 0 0 127 0" result="hardAlpha"/>
<feOffset dy="2"/>
<feGaussianBlur stdDeviation="1"/>
<feComposite in2="hardAlpha" operator="out"/>
<feColorMatrix type="matrix" values="0 0 0 0 0 0 0 0 0 0 0 0 0 0 0 0 0 0 0.25 0"/>
<feBlend mode="normal" in2="BackgroundImageFix" result="effect1_dropShadow_48_33920"/>
<feBlend mode="normal" in="SourceGraphic" in2="effect1_dropShadow_48_33920" result="shape"/>
</filter>
<filter id="filter1_d_48_33920" x="10" y="12" width="40" height="40" filterUnits="userSpaceOnUse" color-interpolation-filters="sRGB">
<feFlood flood-opacity="0" result="BackgroundImageFix"/>
<feColorMatrix in="SourceAlpha" type="matrix" values="0 0 0 0 0 0 0 0 0 0 0 0 0 0 0 0 0 0 127 0" result="hardAlpha"/>
<feOffset dy="2"/>
<feGaussianBlur stdDeviation="1"/>
<feComposite in2="hardAlpha" operator="out"/>
<feColorMatrix type="matrix" values="0 0 0 0 0 0 0 0 0 0 0 0 0 0 0 0 0 0 0.25 0"/>
<feBlend mode="normal" in2="BackgroundImageFix" result="effect1_dropShadow_48_33920"/>
<feBlend mode="normal" in="SourceGraphic" in2="effect1_dropShadow_48_33920" result="shape"/>
</filter>
<clipPath id="clip0_48_33920">
<rect width="60" height="60" fill="white"/>
</clipPath>
<clipPath id="clip1_48_33920">
<rect width="16" height="16" fill="white" transform="translate(22 22)"/>
</clipPath>
</defs>
</svg>
