<svg width="24" height="24" viewBox="0 0 24 24" fill="none" xmlns="http://www.w3.org/2000/svg">
<path fill-rule="evenodd" clip-rule="evenodd" d="M12.0002 20.3C16.5842 20.3 20.3002 16.5839 20.3002 12C20.3002 7.41599 16.5842 3.69995 12.0002 3.69995C7.41623 3.69995 3.7002 7.41599 3.7002 12C3.7002 16.5839 7.41623 20.3 12.0002 20.3ZM21.7002 12C21.7002 17.3571 17.3574 21.7 12.0002 21.7C6.64303 21.7 2.30019 17.3571 2.30019 12C2.30019 6.64279 6.64303 2.29995 12.0002 2.29995C17.3574 2.29995 21.7002 6.64279 21.7002 12ZM11.0002 16C11.0002 15.4477 11.4479 15 12.0002 15C12.5525 15 13.0002 15.4477 13.0002 16C13.0002 16.5522 12.5525 17 12.0002 17C11.4479 17 11.0002 16.5522 11.0002 16ZM11.3002 13V13.7H12.7002V13V6.99995V6.29995H11.3002V6.99995V13Z" fill="#17191F"/>
</svg>
