<svg width="24" height="24" viewBox="0 0 24 24" fill="none" xmlns="http://www.w3.org/2000/svg">
<path fill-rule="evenodd" clip-rule="evenodd" d="M3.29999 2.30005V21.7001H16V20.3001H4.69999V3.70005H16V2.30005H3.29999ZM20.3469 11.3919C20.3506 11.394 20.3543 11.3962 20.3579 11.3983L21.4109 12L20.3579 12.6018C20.3506 12.6061 20.3432 12.6103 20.3358 12.6144C18.4833 13.6747 16.9238 14.9787 15.6119 17.34L14.3881 16.6601C15.3597 14.9111 16.4667 13.6739 17.6957 12.7H7.30003V11.3H17.6957C16.4667 10.3262 15.3597 9.08899 14.3881 7.34L15.6119 6.6601C16.9238 9.02145 18.4833 10.3254 20.3358 11.3857C20.3395 11.3877 20.3432 11.3898 20.3469 11.3919Z" fill="#17191F"/>
</svg>
