<svg width="24" height="24" viewBox="0 0 24 24" fill="none" xmlns="http://www.w3.org/2000/svg">
<path fill-rule="evenodd" clip-rule="evenodd" d="M2.93701 12C4.54509 13.7986 5.87996 15.0871 7.22803 15.9462C8.66239 16.8604 10.1312 17.3 12.0018 17.3C13.8723 17.3 15.3411 16.8604 16.7755 15.9462C18.1236 15.0871 19.4584 13.7986 21.0665 12C19.4584 10.2015 18.1236 8.913 16.7755 8.05385C15.3411 7.13971 13.8723 6.70005 12.0018 6.70005C10.1312 6.70005 8.66239 7.13971 7.22803 8.05385C5.87996 8.913 4.54509 10.2015 2.93701 12ZM6.47561 6.87323C8.14121 5.81171 9.87234 5.30005 12.0018 5.30005C14.1312 5.30005 15.8623 5.81171 17.5279 6.87323C19.1671 7.91788 20.7217 9.48273 22.5276 11.538L22.9336 12L22.5276 12.4621C20.7217 14.5174 19.1671 16.0822 17.5279 17.1269C15.8623 18.1884 14.1312 18.7 12.0018 18.7C9.87234 18.7 8.14121 18.1884 6.47561 17.1269C4.83647 16.0822 3.28179 14.5174 1.47592 12.4621L1.06995 12L1.47592 11.538C3.28179 9.48273 4.83647 7.91788 6.47561 6.87323ZM12.0018 9.70005C10.7315 9.70005 9.70177 10.7298 9.70177 12C9.70177 13.2703 10.7315 14.3 12.0018 14.3C13.272 14.3 14.3018 13.2703 14.3018 12C14.3018 10.7298 13.272 9.70005 12.0018 9.70005ZM8.30177 12C8.30177 9.95659 9.95831 8.30005 12.0018 8.30005C14.0452 8.30005 15.7018 9.95659 15.7018 12C15.7018 14.0435 14.0452 15.7 12.0018 15.7C9.95831 15.7 8.30177 14.0435 8.30177 12Z" fill="#17191F"/>
</svg>
