<svg width="24" height="24" viewBox="0 0 24 24" fill="none" xmlns="http://www.w3.org/2000/svg">
<path d="M19.5068 3.50498L20.0018 3.01001L20.9917 3.99996L20.4967 4.49493L17.8832 7.1085C19.3938 8.14723 20.8526 9.63162 22.5276 11.5379L22.9336 12L22.5276 12.462C20.7217 14.5173 19.1671 16.0821 17.5279 17.1268C15.8623 18.1883 14.1312 18.7 12.0018 18.7C10.245 18.7 8.75934 18.3517 7.35789 17.6338L4.49674 20.4949L4.00177 20.9899L3.01182 20L3.50679 19.505L6.12036 16.8914C4.60976 15.8527 3.15089 14.3683 1.47592 12.462L1.06995 12L1.47592 11.5379C3.28179 9.48264 4.83647 7.9178 6.47561 6.87314C8.14121 5.81162 9.87234 5.29996 12.0018 5.29996C13.7585 5.29996 15.2442 5.64821 16.6456 6.36614L19.5068 3.50498ZM15.5965 7.4153C14.517 6.9339 13.3663 6.69996 12.0018 6.69996C10.1312 6.69996 8.66239 7.13962 7.22803 8.05376C5.87996 8.91291 4.54509 10.2014 2.93701 12C4.50583 13.7546 5.81461 15.0238 7.12931 15.8825L8.93748 14.0743C8.5362 13.4827 8.30177 12.7687 8.30177 12C8.30177 9.95651 9.95831 8.29996 12.0018 8.29996C12.7705 8.29996 13.4845 8.5344 14.0761 8.93567L15.5965 7.4153ZM13.0563 9.95544C12.7405 9.79217 12.3819 9.69996 12.0018 9.69996C10.7315 9.69996 9.70177 10.7297 9.70177 12C9.70177 12.3801 9.79397 12.7386 9.95724 13.0545L13.0563 9.95544ZM10.9472 14.0445C11.2631 14.2078 11.6217 14.3 12.0018 14.3C13.272 14.3 14.3018 13.2702 14.3018 12C14.3018 11.6198 14.2096 11.2613 14.0463 10.9454L10.9472 14.0445ZM9.92743 15.0642L8.40706 16.5846C9.48656 17.066 10.6373 17.3 12.0018 17.3C13.8723 17.3 15.3411 16.8603 16.7755 15.9462C18.1236 15.087 19.4584 13.7985 21.0665 12C19.4977 10.2453 18.1889 8.97613 16.8742 8.11746L15.0661 9.92562C15.4673 10.5173 15.7018 11.2312 15.7018 12C15.7018 14.0434 14.0452 15.7 12.0018 15.7C11.233 15.7 10.5191 15.4655 9.92743 15.0642Z" fill="#17191F"/>
</svg>
