<svg width="24" height="25" viewBox="0 0 24 25" fill="none" xmlns="http://www.w3.org/2000/svg">
<path d="M0 12.5C0 5.87258 5.37258 0.5 12 0.5C18.6274 0.5 24 5.87258 24 12.5C24 19.1274 18.6274 24.5 12 24.5C5.37258 24.5 0 19.1274 0 12.5Z" fill="#1180D5"/>
<path fill-rule="evenodd" clip-rule="evenodd" d="M19.1633 4.66992H18.6634H18.6632H15.4966V5.66992H17.4562L15.3097 7.81637C15.2996 7.82654 15.2899 7.83704 15.2808 7.84783C14.3881 7.11192 13.244 6.66992 11.9967 6.66992C9.14318 6.66992 6.82999 8.98312 6.82999 11.8366C6.82999 14.5214 8.87778 16.7279 11.4966 16.9794V18.3364H9.82997V19.3364H11.4966V20.3365H12.4966V19.3364H14.1633V18.3364H12.4966V16.9794C15.1155 16.7279 17.1633 14.5214 17.1633 11.8366C17.1633 10.5893 16.7213 9.44517 15.9854 8.5524C15.9962 8.54329 16.0067 8.53365 16.0169 8.52348L18.1633 6.37702V8.33659H19.1633V4.66992ZM12.0229 16.0032H11.9704C9.68129 15.989 7.82999 14.129 7.82999 11.8366C7.82999 9.5354 9.69547 7.66992 11.9967 7.66992C14.2978 7.66992 16.1633 9.5354 16.1633 11.8366C16.1633 14.129 14.312 15.989 12.0229 16.0032ZM14.4966 11.3364H9.49664V10.3364H14.4966V11.3364ZM9.49664 13.3364H14.4966V12.3364H9.49664V13.3364Z" fill="white"/>
</svg>
