<svg width="24" height="24" viewBox="0 0 24 24" fill="none" xmlns="http://www.w3.org/2000/svg">
<path d="M0 12C0 5.37258 5.37258 0 12 0C18.6274 0 24 5.37258 24 12C24 18.6274 18.6274 24 12 24C5.37258 24 0 18.6274 0 12Z" fill="#F48C96"/>
<path fill-rule="evenodd" clip-rule="evenodd" d="M19.1633 4.16992H18.6634H18.6632H15.4966V5.16992H17.4562L15.3097 7.31637C15.2995 7.32654 15.2899 7.33704 15.2808 7.34783C14.388 6.61192 13.2439 6.16992 11.9966 6.16992C9.14315 6.16992 6.82996 8.48312 6.82996 11.3366C6.82996 14.0214 8.87775 16.2279 11.4966 16.4794V17.8364H9.82994V18.8364H11.4966V19.8365H12.4966V18.8364H14.1633V17.8364H12.4966V16.4794C15.1155 16.2279 17.1633 14.0214 17.1633 11.3366C17.1633 10.0893 16.7213 8.94517 15.9854 8.0524C15.9962 8.04329 16.0067 8.03365 16.0168 8.02348L18.1633 5.87702V7.83659H19.1633V4.16992ZM12.0229 15.5032H11.9704C9.68126 15.489 7.82996 13.629 7.82996 11.3366C7.82996 9.0354 9.69544 7.16992 11.9966 7.16992C14.2978 7.16992 16.1633 9.0354 16.1633 11.3366C16.1633 13.629 14.312 15.489 12.0229 15.5032ZM14.4966 10.8364H9.49661V9.83643H14.4966V10.8364ZM9.49661 12.8364H14.4966V11.8364H9.49661V12.8364Z" fill="white"/>
<circle cx="12" cy="12" r="11.5" stroke="#EAEBEE"/>
</svg>
