<svg width="16" height="16" viewBox="0 0 16 16" fill="none" xmlns="http://www.w3.org/2000/svg">
<rect x="2.66663" y="8.01007" width="5.33333" height="5.33333" stroke="#17191F" stroke-width="0.933333"/>
<rect x="8" y="8.01007" width="5.33333" height="5.33333" stroke="#17191F" stroke-width="0.933333"/>
<rect x="2" y="5.34338" width="6" height="2.66667" stroke="#17191F" stroke-width="0.933333"/>
<rect x="8" y="5.34338" width="6" height="2.66667" stroke="#17191F" stroke-width="0.933333"/>
<path d="M4.98457 4.73486C4.37914 4.22684 4.27206 3.35773 4.7454 2.79363C5.21873 2.22953 6.09324 2.18405 6.69867 2.69207C7.3041 3.20009 7.58743 4.27692 7.89877 5.25846C6.91753 5.2742 5.59 5.24288 4.98457 4.73486Z" stroke="#17191F" stroke-width="0.933333" stroke-miterlimit="3.86874"/>
<path d="M11.0154 4.73486C11.6209 4.22684 11.7279 3.35773 11.2546 2.79363C10.7813 2.22953 9.90676 2.18405 9.30133 2.69207C8.6959 3.20009 8.41257 4.27692 8.10123 5.25846C9.08247 5.2742 10.41 5.24288 11.0154 4.73486Z" stroke="#17191F" stroke-width="0.933333" stroke-miterlimit="3.86874"/>
</svg>
