<svg width="24" height="24" viewBox="0 0 24 24" fill="none" xmlns="http://www.w3.org/2000/svg">
<path fill-rule="evenodd" clip-rule="evenodd" d="M12.0018 1C5.92567 1 1 5.92567 1 12.0018C1 18.0779 5.92567 23.0036 12.0018 23.0036C18.0779 23.0036 23.0036 18.0779 23.0036 12.0018C23.0036 5.92567 18.0779 1 12.0018 1ZM11.9782 2.50003C11.9861 2.50001 11.9939 2.5 12.0018 2.5C12.0097 2.5 12.0175 2.50001 12.0254 2.50003C12.9976 2.51299 14.0749 3.32675 14.9555 5.08796C15.3695 5.91582 15.7128 6.90677 15.9584 8.01523C14.7568 8.26371 13.4188 8.40411 12.0018 8.40411C10.5848 8.40411 9.24679 8.26371 8.04523 8.01522C8.2908 6.90676 8.63415 5.91582 9.04807 5.08796C9.92868 3.32674 11.006 2.51299 11.9782 2.50003ZM15.5691 3.19235C15.8365 3.56993 16.0797 3.9821 16.2972 4.41714C16.7645 5.35181 17.1429 6.44311 17.4121 7.64231C17.9631 7.47087 18.4719 7.27465 18.9307 7.05799C19.2557 6.9045 19.5475 6.74524 19.8074 6.58213C18.7608 5.07763 17.2904 3.89007 15.5691 3.19235ZM20.5637 7.87634C20.2504 8.07137 19.9173 8.25091 19.5712 8.41437C18.9967 8.68566 18.3629 8.92513 17.6812 9.12835C17.8097 10.0465 17.8777 11.0103 17.8777 12.0017C17.8777 13.2447 17.7708 14.4443 17.5718 15.565C18.0617 15.4059 18.5166 15.227 18.9307 15.0315C20.5981 14.2441 21.3898 13.3052 21.4921 12.472C21.4997 12.3162 21.5036 12.1595 21.5036 12.0018C21.5036 10.5235 21.166 9.12405 20.5637 7.87634ZM20.7417 15.7359C20.3776 15.9754 19.9837 16.193 19.5712 16.3878C18.8609 16.7233 18.06 17.01 17.1899 17.2398C16.948 18.0963 16.6476 18.8853 16.2972 19.5862C16.0796 20.0214 15.8363 20.4337 15.5688 20.8113C17.8916 19.8699 19.7576 18.0364 20.7417 15.7359ZM8.43481 20.8113C8.16732 20.4337 7.92403 20.0214 7.70643 19.5862C7.35599 18.8853 7.05558 18.0963 6.81371 17.2398C5.94366 17.01 5.14277 16.7233 4.43246 16.3878C4.01989 16.193 3.62598 15.9753 3.2618 15.7358C4.24597 18.0364 6.11195 19.8699 8.43481 20.8113ZM2.51138 12.4709C2.61317 13.3044 3.40485 14.2437 5.07297 15.0315C5.48709 15.227 5.94192 15.4059 6.4318 15.565C6.23278 14.4443 6.12591 13.2447 6.12591 12.0017C6.12591 11.0103 6.1939 10.0465 6.32238 9.12834C5.64071 8.92512 5.00696 8.68566 4.43246 8.41437C4.08629 8.2509 3.75326 8.07135 3.43991 7.8763C2.8376 9.12402 2.5 10.5235 2.5 12.0018C2.5 12.1591 2.50382 12.3155 2.51138 12.4709ZM4.19622 6.5821C4.4561 6.74522 4.7479 6.90449 5.07297 7.05799C5.53176 7.27464 6.04052 7.47086 6.59154 7.6423C6.86076 6.44311 7.2391 5.3518 7.70643 4.41714C7.92396 3.98209 8.16716 3.56992 8.43455 3.19233C6.71322 3.89004 5.24281 5.0776 4.19622 6.5821ZM7.78658 9.49342C9.08849 9.75924 10.514 9.90411 12.0018 9.90411C13.4896 9.90411 14.9151 9.75924 16.217 9.49342C16.3215 10.2907 16.3777 11.1312 16.3777 12.0017C16.3777 13.4311 16.2261 14.7798 15.9582 15.9887C14.7567 16.2372 13.4188 16.3776 12.0018 16.3776C10.5849 16.3776 9.24689 16.2372 8.04537 15.9887C7.77749 14.7798 7.62591 13.4311 7.62591 12.0017C7.62591 11.1312 7.68212 10.2907 7.78658 9.49342ZM8.49768 17.5979C8.66239 18.0721 8.84689 18.513 9.04807 18.9154C9.93581 20.6908 11.0235 21.5034 12.0018 21.5034C12.9802 21.5034 14.0678 20.6908 14.9555 18.9154C15.1567 18.513 15.3412 18.0721 15.5059 17.5979C14.4025 17.78 13.2231 17.8776 12.0018 17.8776C10.7805 17.8776 9.60114 17.78 8.49768 17.5979Z" fill="#17191F"/>
</svg>
