<svg width="16" height="16" viewBox="0 0 16 16" fill="none" xmlns="http://www.w3.org/2000/svg">
<path d="M8.38826 1.74235L7.99997 1.15991L7.61168 1.74235C7.51434 1.88836 7.41415 2.04019 7.31085 2.19672C5.96911 4.22999 4.10345 7.0572 1.15999 8.23459L1.50662 9.10116C1.98604 8.9094 2.43882 8.67841 2.86664 8.41751V13.8012H6.79997V9.80121H9.19997V13.8012H13.1333V8.42332V8.41751C13.5611 8.67841 14.0139 8.9094 14.4933 9.10116L14.84 8.23459C11.8965 7.0572 10.0309 4.23003 8.68912 2.19677C8.58581 2.04022 8.48561 1.88837 8.38826 1.74235ZM12.2 7.77457V7.7801V12.8629V12.8679H10.1333V8.86788H5.86664V12.8679H3.79997V7.77457C5.69478 6.31513 7.03197 4.3191 7.99997 2.84836C8.96798 4.3191 10.3052 6.31513 12.2 7.77457Z" fill="#17191F"/>
</svg>
