<svg width="16" height="16" viewBox="0 0 16 16" fill="none" xmlns="http://www.w3.org/2000/svg">
<g clip-path="url(#clip0_21499_1877)">
<path fill-rule="evenodd" clip-rule="evenodd" d="M1 8C1 11.866 4.13401 15 8 15C11.866 15 15 11.866 15 8C15 4.13401 11.866 1 8 1C4.13401 1 1 4.13401 1 8ZM8 16C3.58172 16 0 12.4183 0 8C0 3.58172 3.58172 0 8 0C12.4183 0 16 3.58172 16 8C16 12.4183 12.4183 16 8 16ZM8.49998 12.8333L8.49998 6.83325H7.49998L7.49998 12.8333H8.49998ZM7.9999 4.83325C8.36809 4.83325 8.66657 4.53478 8.66657 4.16659C8.66657 3.7984 8.36809 3.49992 7.9999 3.49992C7.63171 3.49992 7.33323 3.7984 7.33323 4.16659C7.33323 4.53478 7.63171 4.83325 7.9999 4.83325Z" fill="#17191F"/>
</g>
<defs>
<clipPath id="clip0_21499_1877">
<rect width="16" height="16" fill="white"/>
</clipPath>
</defs>
</svg>
