<svg width="16" height="16" viewBox="0 0 16 16" fill="none" xmlns="http://www.w3.org/2000/svg">
<path fill-rule="evenodd" clip-rule="evenodd" d="M8.55456 3.3485C9.6859 2.21717 11.5202 2.21717 12.6515 3.3485C13.7828 4.47984 13.7828 6.3141 12.6515 7.44544L11.4505 8.64645L11.0969 9L11.804 9.70711L12.1576 9.35355L13.3586 8.15254C14.8805 6.63068 14.8805 4.16326 13.3586 2.6414C11.8367 1.11953 9.36932 1.11953 7.84746 2.6414L6.64645 3.84241L6.29289 4.19596L7 4.90307L7.35355 4.54951L8.55456 3.3485ZM10.7071 6L10.3536 6.35355L6.35355 10.3536L6 10.7071L5.29289 10L5.64645 9.64645L9.64645 5.64645L10 5.29289L10.7071 6ZM4.90307 7L4.54951 7.35355L3.3485 8.55456C2.21717 9.6859 2.21717 11.5202 3.3485 12.6515C4.47984 13.7828 6.3141 13.7828 7.44544 12.6515L8.64645 11.4505L9 11.0969L9.70711 11.804L9.35355 12.1576L8.15254 13.3586C6.63068 14.8805 4.16326 14.8805 2.6414 13.3586C1.11953 11.8367 1.11953 9.36932 2.6414 7.84746L3.84241 6.64645L4.19596 6.29289L4.90307 7Z" fill="#17191F"/>
</svg>
