<svg width="16" height="16" viewBox="0 0 16 16" fill="none" xmlns="http://www.w3.org/2000/svg">
<g clip-path="url(#clip0_5546_13810)">
<path d="M8 1.01007C4.68629 1.01007 2 3.48429 2 6.53639C2 8.64919 3.21883 10.1067 5.11566 12.3751C5.95894 13.3836 6.93623 14.5523 8 16.0101C9.06377 14.5523 10.0411 13.3836 10.8843 12.3751C12.7812 10.1068 14 8.64919 14 6.53639C14 3.48429 11.3137 1.01007 8 1.01007ZM8 8.51007C6.89543 8.51007 6 7.61464 6 6.51007C6 5.4055 6.89543 4.51007 8 4.51007C9.10457 4.51007 10 5.4055 10 6.51007C10 7.61464 9.10457 8.51007 8 8.51007Z" stroke="#17191F" stroke-linejoin="round"/>
</g>
<defs>
<clipPath id="clip0_5546_13810">
<rect width="16" height="16" fill="white" transform="translate(0 0.0100708)"/>
</clipPath>
</defs>
</svg>
