<svg width="19" height="20" viewBox="0 0 19 20" fill="none" xmlns="http://www.w3.org/2000/svg">
<path fill-rule="evenodd" clip-rule="evenodd" d="M0.416016 0.300049V19.7001H13.116V18.3001H1.81602V1.70005H13.116V0.300049H0.416016ZM17.463 9.39194C17.4666 9.39404 17.4703 9.39618 17.4739 9.39835L18.5269 10L17.4739 10.6018C17.4666 10.6061 17.4593 10.6103 17.4518 10.6144C15.5993 11.6747 14.0398 12.9787 12.7279 15.34L11.5041 14.6601C12.4758 12.9111 13.5828 11.6739 14.8117 10.7H4.41606V9.30005H14.8117C13.5828 8.32624 12.4758 7.08899 11.5041 5.34L12.7279 4.6601C14.0398 7.02145 15.5993 8.32543 17.4518 9.38569C17.4555 9.38774 17.4593 9.38982 17.463 9.39194Z" fill="#1049A9"/>
</svg>
