<svg width="16" height="16" viewBox="0 0 16 16" fill="none" xmlns="http://www.w3.org/2000/svg">
<path d="M2 3.16992H1.5V3.66992V12.3366V12.8366H2H14H14.5V12.3366V3.66992V3.16992H14H2ZM13.4426 4.16992C13.2234 5.09194 12.3936 5.76028 11.2549 6.4008C10.9312 6.58289 10.5955 6.7559 10.2567 6.92921L10.1688 6.97412L10.1688 6.97415C9.86158 7.13119 9.55173 7.28959 9.25904 7.45056C8.80914 7.69801 8.36371 7.97003 8 8.28809C7.63629 7.97003 7.19087 7.69801 6.74096 7.45056C6.44825 7.28957 6.13837 7.13116 5.83114 6.97411L5.74333 6.92921C5.40454 6.7559 5.06884 6.58289 4.74513 6.4008C3.60643 5.76028 2.77661 5.09194 2.55739 4.16992H13.4426ZM2.5 5.99889C3.00489 6.51722 3.6396 6.92629 4.25487 7.27238C4.59782 7.46529 4.94963 7.64644 5.28792 7.81949L5.37396 7.86349C5.68399 8.02199 5.98035 8.1735 6.25904 8.32678C6.88015 8.66839 7.34335 8.98283 7.60957 9.3156L8 9.80365L8.39043 9.3156C8.65665 8.98283 9.11985 8.66839 9.74096 8.32678C10.0196 8.1735 10.316 8.02199 10.626 7.8635L10.7121 7.81949C11.0504 7.64644 11.4022 7.46529 11.7451 7.27238C12.3604 6.92629 12.9951 6.51722 13.5 5.99889V11.8366H2.5V5.99889Z" fill="#17191F"/>
</svg>
