<svg width="16" height="16" viewBox="0 0 16 16" fill="none" xmlns="http://www.w3.org/2000/svg">
<path fill-rule="evenodd" clip-rule="evenodd" d="M8 0.5C4.96243 0.5 2.5 2.96243 2.5 6C2.5 7.70794 3.2785 9.23405 4.5 10.2428V15V15.809L5.22361 15.4472C6.25263 14.9327 7.141 14.5 8 14.5C8.859 14.5 9.74737 14.9327 10.7764 15.4472L11.5 15.809V15V10.2428C12.7215 9.23405 13.5 7.70794 13.5 6C13.5 2.96243 11.0376 0.5 8 0.5ZM10.7131 9.59043C10.7043 9.59666 10.6956 9.60317 10.6871 9.60995C9.93726 10.169 9.00728 10.5 8 10.5C6.99272 10.5 6.06274 10.169 5.31286 9.60995C5.30441 9.60317 5.29575 9.59666 5.28686 9.59042C4.20134 8.76885 3.5 7.46633 3.5 6C3.5 3.51472 5.51472 1.5 8 1.5C10.4853 1.5 12.5 3.51472 12.5 6C12.5 7.46633 11.7987 8.76886 10.7131 9.59043ZM5.5 10.9003C6.25007 11.2837 7.09978 11.5 8 11.5C8.90022 11.5 9.74993 11.2837 10.5 10.9003V14.1973C9.7161 13.8272 8.86652 13.5 8 13.5C7.13348 13.5 6.2839 13.8272 5.5 14.1973V10.9003Z" fill="#17191F"/>
</svg>
