<svg width="32" height="32" viewBox="0 0 32 32" fill="none" xmlns="http://www.w3.org/2000/svg">
<g clip-path="url(#clip0_21649_333)">
<path opacity="0.3" d="M0 5.81818C0 2.60489 2.60489 0 5.81818 0H26.1818C29.3951 0 32 2.60489 32 5.81818V26.1818C32 29.3951 29.3951 32 26.1818 32H5.81818C2.60489 32 0 29.3951 0 26.1818V5.81818Z" fill="#FF6B00"/>
<path fill-rule="evenodd" clip-rule="evenodd" d="M26.1818 0.727273H5.81818C3.00655 0.727273 0.727273 3.00655 0.727273 5.81818V26.1818C0.727273 28.9935 3.00655 31.2727 5.81818 31.2727H26.1818C28.9935 31.2727 31.2727 28.9935 31.2727 26.1818V5.81818C31.2727 3.00655 28.9935 0.727273 26.1818 0.727273ZM5.81818 0C2.60489 0 0 2.60489 0 5.81818V26.1818C0 29.3951 2.60489 32 5.81818 32H26.1818C29.3951 32 32 29.3951 32 26.1818V5.81818C32 2.60489 29.3951 0 26.1818 0H5.81818Z" fill="#FF6B00"/>
<path fill-rule="evenodd" clip-rule="evenodd" d="M28.6589 31.4479C20.9116 21.9288 11.1413 14.0922 0 8.55707L0 5.81818C0 2.60489 2.60489 0 5.81818 0H26.1818C28.9555 0 31.2758 1.94088 31.8588 4.53859V27.4614C31.462 29.2295 30.2604 30.6932 28.6589 31.4479Z" fill="#FF6B00"/>
<path d="M22.0567 20.7616C22.4571 14.8974 22.3289 11.4707 23.346 10.5408C24.2869 9.68216 25.9806 9.44474 28.8594 9.23898C22.5371 8.51881 22.6893 8.70083 22.0567 2.63086C21.424 8.70479 21.5762 8.51881 15.2539 9.23898C18.1328 9.44474 19.8265 9.68216 20.7674 10.5408C21.7844 11.4707 21.6563 14.8974 22.0567 20.7616Z" fill="white"/>
</g>
<defs>
<clipPath id="clip0_21649_333">
<rect width="32" height="32" fill="white"/>
</clipPath>
</defs>
</svg>
