<svg width="16" height="16" viewBox="0 0 16 16" fill="none" xmlns="http://www.w3.org/2000/svg">
<path fill-rule="evenodd" clip-rule="evenodd" d="M2.5 11.5V3H9.875V11.875C9.875 12.2881 9.9929 12.6737 10.1969 13H4C3.17157 13 2.5 12.3284 2.5 11.5ZM12 14C13.3807 14 14.5 12.8807 14.5 11.5V5.25H10.875V2H2.5H1.5V3V11.5C1.5 12.8807 2.61929 14 4 14H12ZM10.875 6.25H13.5V11.5C13.5 12.3284 12.8284 13 12 13C11.3787 13 10.875 12.4963 10.875 11.875V6.25ZM3.5 5L8.5 5V6L3.5 6V5ZM8.5 8H5.5V9H8.5V8Z" fill="#17191F"/>
</svg>
