<svg width="16" height="16" viewBox="0 0 16 16" fill="none" xmlns="http://www.w3.org/2000/svg">
<path fill-rule="evenodd" clip-rule="evenodd" d="M10.5 6.75C11.1904 6.75 11.75 6.19036 11.75 5.5C11.75 4.80964 11.1904 4.25 10.5 4.25C9.80964 4.25 9.25 4.80964 9.25 5.5C9.25 6.19036 9.80964 6.75 10.5 6.75ZM10.5 7.75C11.5708 7.75 12.4669 7.00199 12.6942 6H14.5V5H12.6942C12.4669 3.99801 11.5708 3.25 10.5 3.25C9.42921 3.25 8.53312 3.99801 8.30575 5H1.5V6H8.30575C8.53312 7.00199 9.42921 7.75 10.5 7.75ZM3.30575 10C3.53312 8.99801 4.42921 8.25 5.5 8.25C6.57079 8.25 7.46688 8.99801 7.69425 10H14.5V11H7.69425C7.46688 12.002 6.57079 12.75 5.5 12.75C4.42921 12.75 3.53312 12.002 3.30575 11H1.5V10H3.30575ZM6.75 10.5C6.75 11.1904 6.19036 11.75 5.5 11.75C4.80964 11.75 4.25 11.1904 4.25 10.5C4.25 9.80964 4.80964 9.25 5.5 9.25C6.19036 9.25 6.75 9.80964 6.75 10.5Z" fill="#17191F"/>
</svg>
