<svg width="16" height="16" viewBox="0 0 16 16" fill="none" xmlns="http://www.w3.org/2000/svg">
<path d="M13.1893 5.5995C13.4252 4.83598 13.2145 4.13013 12.7296 3.59791C12.2368 3.05708 11.4596 2.69995 10.6 2.69995C10.392 2.69995 10.1766 2.87767 10.1432 3.15709C10.0749 3.72984 9.94603 4.28419 9.76318 4.81343L10.6764 5.72665C10.8263 5.87658 10.8654 6.10477 10.7739 6.29604C9.8377 8.25225 8.25224 9.8377 6.29603 10.7739C6.10477 10.8654 5.87657 10.8263 5.72664 10.6764L4.81343 9.76318C4.28418 9.94603 3.72984 10.0749 3.15709 10.1432C2.87767 10.1766 2.69995 10.392 2.69995 10.6C2.69995 11.4596 3.05708 12.2368 3.59791 12.7296C4.13013 13.2145 4.83598 13.4252 5.59949 13.1893C9.21642 12.0718 12.0718 9.21642 13.1893 5.5995ZM9.15028 3.03862C9.23471 2.33093 9.81379 1.69995 10.6 1.69995C11.7285 1.69995 12.7783 2.16659 13.4688 2.92443C14.1671 3.69088 14.4958 4.7586 14.1448 5.89471C12.9297 9.82725 9.82725 12.9297 5.89471 14.1448C4.7586 14.4958 3.69088 14.1671 2.92443 13.4688C2.16659 12.7783 1.69995 11.7285 1.69995 10.6C1.69995 9.81379 2.33093 9.23471 3.03862 9.15028C3.6385 9.07871 4.21482 8.93131 4.75794 8.71799C4.94305 8.64528 5.15366 8.68919 5.29429 8.82982L6.17807 9.71361C7.68085 8.91621 8.9162 7.68086 9.71361 6.17808L8.82982 5.29429C8.68919 5.15366 8.64528 4.94306 8.71799 4.75795C8.93131 4.21483 9.07871 3.6385 9.15028 3.03862Z" fill="#17191F"/>
</svg>
