<svg width="16" height="16" viewBox="0 0 16 16" fill="none" xmlns="http://www.w3.org/2000/svg">
<path fill-rule="evenodd" clip-rule="evenodd" d="M15 8C15 4.13401 11.866 1 8 1C4.13401 1 1 4.13401 1 8C1 11.866 4.13401 15 8 15C11.866 15 15 11.866 15 8ZM8 0C12.4183 3.86258e-07 16 3.58172 16 8C16 12.4183 12.4183 16 8 16C3.58172 16 -3.86258e-07 12.4183 0 8C3.86258e-07 3.58172 3.58172 -3.86258e-07 8 0Z" fill="#17191F"/>
<path d="M6.01001 5.71667C6.01001 4.82232 6.84565 4 8.00376 4C9.16117 4 9.99626 4.82187 9.99751 5.71737C9.9983 6.28351 9.67314 6.57003 9.08513 7.08816C9.03204 7.13495 8.97681 7.18361 8.91948 7.23455C8.59842 7.51979 8.23732 7.86667 7.96203 8.33789C7.68165 8.81783 7.50376 9.40226 7.50376 10.15H8.50376C8.50376 9.57274 8.6379 9.16343 8.82549 8.84232C9.01817 8.5125 9.28097 8.25104 9.58366 7.98212C9.64072 7.93143 9.701 7.87953 9.76324 7.82596C10.3066 7.35822 10.999 6.76218 10.9975 5.71597C10.9953 4.163 9.60087 3 8.00376 3C6.40735 3 5.01001 4.16256 5.01001 5.71667H6.01001Z" fill="#17191F"/>
<path d="M7.33342 11.8333C7.33342 11.4651 7.63189 11.1667 8.00008 11.1667C8.36827 11.1667 8.66675 11.4651 8.66675 11.8333C8.66675 12.2015 8.36827 12.5 8.00008 12.5C7.63189 12.5 7.33342 12.2015 7.33342 11.8333Z" fill="#17191F"/>
</svg>
