<svg width="24" height="24" viewBox="0 0 24 24" fill="none" xmlns="http://www.w3.org/2000/svg">
<path fill-rule="evenodd" clip-rule="evenodd" d="M10.9998 3.6998C6.96813 3.6998 3.6998 6.96813 3.6998 10.9998C3.6998 15.0315 6.96813 18.2998 10.9998 18.2998C13.0158 18.2998 14.8399 17.4835 16.1617 16.1617C17.4835 14.8399 18.2998 13.0158 18.2998 10.9998C18.2998 6.96813 15.0315 3.6998 10.9998 3.6998ZM2.2998 10.9998C2.2998 6.19493 6.19493 2.2998 10.9998 2.2998C15.8047 2.2998 19.6998 6.19493 19.6998 10.9998C19.6998 13.15 18.919 15.1189 17.6268 16.6368L21.9898 20.9998L20.9998 21.9898L16.6368 17.6268C15.1189 18.919 13.15 19.6998 10.9998 19.6998C6.19493 19.6998 2.2998 15.8047 2.2998 10.9998Z" fill="#17191F"/>
</svg>
