<svg width="24" height="21" viewBox="0 0 24 21" fill="none" xmlns="http://www.w3.org/2000/svg">
<path fill-rule="evenodd" clip-rule="evenodd" 
d="M13.0001 3.80939L13.0003 3.79086L13.0001 3.77233L13 3.75C13 2.73897 13.7826 2 14.65 2C15.1219 2 15.556 2.20951 15.866 2.56755L17 3.87743L18.134 2.56755C18.444 2.20951 18.8781 2 19.35 2C20.2174 2 21 2.73897 21 3.75C21 3.76338 20.9999 3.77673 20.9996 3.79004L20.9992 3.80704L20.9993 3.82404V3.82599C20.9993 4.35328 20.7883 4.86279 20.32 5.44254C19.8307 6.0483 19.1644 6.60741 18.3852 7.25324L18.353 7.27994L18.353 7.27995C17.9143 7.64351 17.4303 8.04457 16.9996 8.46432C16.5689 8.04456 16.085 7.6435 15.6463 7.27993L15.6141 7.25324C14.8348 6.60741 14.1686 6.0483 13.6793 5.44254C13.211 4.86279 13 4.35328 13 3.82599L13.0001 3.80939ZM16.9996 10.9999C17.1692 10.5161 17.5219 10.0618 17.9707 9.61335C18.3718 9.21255 18.8497 8.81644 19.3424 8.40814C20.8518 7.15717 22.4993 5.79174 22.4993 3.82599L22.4993 3.8213C22.4998 3.79759 22.5 3.77383 22.5 3.75C22.5 1.95507 21.0897 0.5 19.35 0.5C18.7426 0.5 18.1754 0.677348 17.6944 0.984589C17.4356 1.14985 17.2018 1.3527 17 1.58574C16.7982 1.3527 16.5644 1.14985 16.3056 0.98459C15.8246 0.677348 15.2574 0.5 14.65 0.5C12.9103 0.5 11.5 1.95507 11.5 3.75L11.5002 3.78977L11.5 3.82599C11.5 5.79174 13.1475 7.15717 14.6569 8.40814C15.1495 8.81644 15.6274 9.21255 16.0286 9.61335C16.4774 10.0618 16.83 10.5161 16.9996 10.9999ZM6.6001 17.2012V11.2268C7.93346 11.329 10.1049 11.7309 12.0084 12.4107C13.1214 12.8083 14.0828 13.2803 14.7223 13.8007C15.1733 14.1678 15.4 14.501 15.4727 14.806C13.804 14.7595 13.0407 14.5126 11.5817 14.0405L11.5642 14.0348L11.1332 15.3668C12.8433 15.9202 13.7596 16.2142 16.0968 16.2142C16.4934 16.2142 16.9286 16.2026 17.3537 16.1914C17.6647 16.1832 17.9709 16.1751 18.2522 16.1717C18.9581 16.1634 19.6074 16.1812 20.1745 16.273C20.7432 16.365 21.1769 16.5236 21.4872 16.7585C21.6325 16.8685 21.7618 17.0034 21.8682 17.1755C21.0848 17.3987 20.3313 17.7396 19.5987 18.0712L19.5987 18.0712C19.3541 18.1818 19.1118 18.2915 18.8716 18.3953C17.6239 18.9345 16.2815 19.4008 14.5502 19.4008C12.8134 19.4008 11.382 18.9318 10.0431 18.4036C9.81854 18.315 9.59278 18.2228 9.36595 18.1302L9.36534 18.13C8.45676 17.7589 7.53077 17.3807 6.6001 17.2012ZM12.4792 11.0923C10.4344 10.362 8.08359 9.9244 6.6001 9.82338V9.30078H5.2001H2.0001H0.600098V10.7008V18.7008V20.1008H2.0001H5.2001H6.6001V18.7008V18.6318C7.27115 18.7916 7.96437 19.0733 8.76686 19.3993L8.76693 19.3993L8.76765 19.3996C9.01065 19.4984 9.26373 19.6012 9.52934 19.7059C10.9226 20.2555 12.5494 20.8008 14.5502 20.8008C16.5566 20.8008 18.1025 20.2528 19.4269 19.6804C19.7222 19.5528 20.0003 19.4275 20.2662 19.3077C21.2281 18.8743 22.0304 18.5128 22.9088 18.3746L23.6337 18.2606L23.4856 17.5418C23.314 16.709 22.9128 16.0819 22.3323 15.6423C21.7697 15.2164 21.0862 15.0022 20.3981 14.8909C19.7083 14.7793 18.9611 14.7633 18.2356 14.7718C17.8999 14.7758 17.5836 14.7844 17.2745 14.7929C17.1456 14.7964 17.0179 14.7999 16.8905 14.803C16.8106 13.9538 16.2666 13.2526 15.6061 12.7149C14.7868 12.0481 13.6535 11.5117 12.4792 11.0923ZM2.0001 18.7008V10.7008H5.2001V18.7008H2.0001Z" 
fill="black"/>
</svg>