<svg width="24" height="24" viewBox="0 0 24 24" fill="none" xmlns="http://www.w3.org/2000/svg">
<path d="M7 2H17C19.7614 2 22 4.23858 22 7V17C22 19.7614 19.7614 22 17 22H7C4.23858 22 2 19.7614 2 17V7C2 4.23858 4.23858 2 7 2ZM18.9838 6.27998C18.9366 5.96163 18.7882 5.66691 18.5607 5.43934C18.3331 5.21178 18.0384 5.06343 17.72 5.01623C17.4079 4.96995 17.0892 5.02326 16.8091 5.16857C16.5291 5.31388 16.302 5.5438 16.1601 5.82562C16.0183 6.10744 15.9689 6.42681 16.0191 6.73831C16.0692 7.0498 16.2162 7.33756 16.4393 7.56066C16.6624 7.78375 16.9502 7.93082 17.2617 7.98095C17.5732 8.03107 17.8926 7.9817 18.1744 7.83985C18.4562 7.698 18.6861 7.4709 18.8314 7.19086C18.9767 6.91081 19.0301 6.59207 18.9838 6.27998ZM16 11.37C15.8741 10.5211 15.4785 9.73515 14.8716 9.1283C14.2648 8.52146 13.4789 8.12588 12.63 8C11.7977 7.87659 10.9477 8.01874 10.2009 8.40624C9.45414 8.79374 8.84854 9.40685 8.47028 10.1584C8.09202 10.9099 7.96035 11.7615 8.09402 12.5922C8.22768 13.4229 8.61987 14.1902 9.21479 14.7852C9.80971 15.3801 10.5771 15.7723 11.4077 15.9059C12.2384 16.0396 13.0901 15.9079 13.8416 15.5297C14.5931 15.1514 15.2062 14.5458 15.5937 13.799C15.9812 13.0522 16.1234 12.2022 16 11.37Z" fill="#17191F"/>
</svg>
