<svg width="16" height="16" viewBox="0 0 16 16" fill="none" xmlns="http://www.w3.org/2000/svg">
<path fill-rule="evenodd" clip-rule="evenodd" d="M9.27735 1.0826L8.77845 0.75L8.54091 1.30055L7.07901 4.68882C6.9261 5.04322 6.71562 5.36989 6.4561 5.65559L5.69034 6.49861H5.5H2.5H2V6.99861V13.9986V14.4986H2.5H5.5H6V14.4985H11.4254H11.4255C12.1154 14.4985 12.6723 14.2352 13.1029 13.8032C13.5202 13.3845 13.8055 12.8223 14.011 12.2279C14.4121 11.0673 14.56 9.62132 14.6794 8.4541L14.6794 8.45408L14.6861 8.38908C14.7773 7.49759 14.0799 6.69858 13.1701 6.69858H10.2806C10.3108 6.63722 10.3419 6.57359 10.3726 6.50927C10.5749 6.08529 10.8078 5.54004 10.9334 4.93828C11.0595 4.33419 11.0819 3.65228 10.8412 2.96853C10.5984 2.27882 10.1042 1.63384 9.27735 1.0826ZM6.00004 11.078L6.00004 7.64493L7.19631 6.32797C7.52998 5.96063 7.8006 5.54064 7.99719 5.08498L9.20363 2.2888C9.56899 2.6243 9.78107 2.96847 9.89798 3.30059C10.061 3.76372 10.0554 4.25055 9.95452 4.73394C9.85312 5.21968 9.65999 5.68067 9.47009 6.07855C9.40828 6.20807 9.35132 6.32191 9.29712 6.4302L9.29712 6.43021L9.29707 6.4303C9.26577 6.49286 9.23539 6.55357 9.20553 6.61439C9.13488 6.75831 9.05436 6.92711 9.01641 7.07152C8.97702 7.22145 9.0094 7.38117 9.10406 7.50393C9.19873 7.62668 9.34498 7.69858 9.5 7.69858H13.1701C13.4737 7.69858 13.7236 7.97164 13.6913 8.28724L13.6911 8.28834L13.6911 8.28836C13.5671 9.49967 13.4288 10.851 13.0658 11.9012C12.8854 12.4232 12.663 12.828 12.3946 13.0972C12.1396 13.3531 11.833 13.4985 11.4255 13.4985H11.4255H6.00008L6.00004 11.078ZM3 13.4986V7.49861H5V13.4986H3Z" fill="#17191F"/>
</svg>
