<svg width="24" height="24" viewBox="0 0 24 24" fill="none" xmlns="http://www.w3.org/2000/svg">
<path fill-rule="evenodd" clip-rule="evenodd" d="M7.70078 7.7C7.70078 5.32518 9.62596 3.4 12.0008 3.4C14.3756 3.4 16.3008 5.32518 16.3008 7.7C16.3008 10.0748 14.3756 12 12.0008 12C9.62596 12 7.70078 10.0748 7.70078 7.7ZM12.0008 2C8.85276 2 6.30078 4.55198 6.30078 7.7C6.30078 10.848 8.85276 13.4 12.0008 13.4C15.1488 13.4 17.7008 10.848 17.7008 7.7C17.7008 4.55198 15.1488 2 12.0008 2ZM5.70078 20.7C5.70078 19.955 6.23555 19.1438 7.39833 18.4793C8.54131 17.8262 10.167 17.4 12.0008 17.4C13.8345 17.4 15.4603 17.8262 16.6032 18.4793C17.766 19.1438 18.3008 19.955 18.3008 20.7V21.4H19.7008V20.7C19.7008 19.2358 18.6686 18.0471 17.2978 17.2638C15.9073 16.4692 14.033 16 12.0008 16C9.96854 16 8.09426 16.4692 6.70374 17.2638C5.33301 18.0471 4.30078 19.2358 4.30078 20.7V21.4H5.70078V20.7Z" fill="#17191F"/>
</svg>