<svg width="16" height="16" viewBox="0 0 16 16" fill="none" xmlns="http://www.w3.org/2000/svg">
<g clip-path="url(#clip0_2055_8818)">
<path fill-rule="evenodd" clip-rule="evenodd" d="M4.5 5C4.5 3.067 6.067 1.5 8 1.5C9.933 1.5 11.5 3.067 11.5 5C11.5 6.933 9.933 8.5 8 8.5C6.067 8.5 4.5 6.933 4.5 5ZM8 0.5C5.51472 0.5 3.5 2.51472 3.5 5C3.5 7.48528 5.51472 9.5 8 9.5C10.4853 9.5 12.5 7.48528 12.5 5C12.5 2.51472 10.4853 0.5 8 0.5ZM2.5 16C2.5 15.1146 3.03831 14.2519 4.03471 13.5876C5.02761 12.9257 6.42809 12.5 8 12.5C9.57191 12.5 10.9724 12.9257 11.9653 13.5876C12.9617 14.2519 13.5 15.1146 13.5 16V16.5H14.5V16C14.5 14.6762 13.6952 13.539 12.52 12.7555C11.3413 11.9698 9.7418 11.5 8 11.5C6.2582 11.5 4.65868 11.9698 3.48001 12.7555C2.30483 13.539 1.5 14.6762 1.5 16V16.5H2.5V16Z" fill="#17191F"/>
</g>
<defs>
<clipPath id="clip0_2055_8818">
<rect width="16" height="16" fill="white"/>
</clipPath>
</defs>
</svg>
