<svg width="200" height="200" viewBox="0 0 200 200" fill="none" xmlns="http://www.w3.org/2000/svg">
<g clip-path="url(#clip0_67_7404)">
<path d="M100 200C155.228 200 200 155.228 200 100C200 44.7715 155.228 0 100 0C44.7715 0 0 44.7715 0 100C0 155.228 44.7715 200 100 200Z" fill="white"/>
<path d="M169.976 28.5719C151.939 10.9 127.245 0 100 0C91.3043 0 65.8617 10.9 47.8262 28.5719H169.976Z" fill="#6DA544"/>
<path d="M100 85.7144H198.98C197.537 75.6265 194.59 66.025 190.371 57.1429H95.6523L100 85.7144Z" fill="#6DA544"/>
<path d="M9.62929 142.857H190.371C194.59 133.976 197.537 124.373 198.98 114.286H1.02031C2.46367 124.374 5.40937 133.976 9.62929 142.857Z" fill="#6DA544"/>
<path d="M30.0242 171.428C48.0605 189.1 72.7551 200 100 200C127.245 200 151.939 189.1 169.976 171.428H30.0242Z" fill="#6DA544"/>
<path d="M100 0C49.6227 0 7.95312 37.2543 1.02031 85.7145H100V0Z" fill="#D80027"/>
<path d="M50 76.6668L45.6523 67.9714V50.58L56.5219 41.8843L67.3914 50.58V63.6234L71.7391 59.2757V67.9714L63.0434 76.6668H50Z" fill="white"/>
<path d="M26.6152 50L27.7664 53.543H31.4914L28.4777 55.7332L29.6293 59.2758L26.6152 57.0859L23.6012 59.2758L24.7527 55.7332L21.7391 53.543H25.4641L26.6152 50Z" fill="white"/>
<path d="M35.3109 41.3043L36.4621 44.8472H40.1875L37.1734 47.0375L38.3246 50.58L35.3109 48.3906L32.2973 50.58L33.4488 47.0375L30.4348 44.8472H34.1594L35.3109 41.3043Z" fill="white"/>
<path d="M44.0066 32.6086L45.1578 36.1515H48.8824L45.8691 38.3418L47.0199 41.8844L44.0066 39.6949L40.9926 41.8844L42.1437 38.3418L39.1305 36.1515H42.8551L44.0066 32.6086Z" fill="white"/>
<path d="M86.4281 50L85.2769 53.543H81.5523L84.5656 55.7332L83.4144 59.2758L86.4281 57.0859L89.4422 59.2758L88.291 55.7332L91.3043 53.543H87.5797L86.4281 50Z" fill="white"/>
<path d="M77.7324 41.3043L76.5812 44.8472H72.8566L75.8699 47.0375L74.7187 50.58L77.7324 48.3906L80.7465 50.58L79.5949 47.0375L82.6086 44.8472H78.884L77.7324 41.3043Z" fill="white"/>
<path d="M69.0371 32.6086L67.8855 36.1515H64.1609L67.1742 38.3418L66.023 41.8844L69.0371 39.6949L72.0508 41.8844L70.8996 38.3418L73.9129 36.1515H70.1883L69.0371 32.6086Z" fill="white"/>
<path d="M56.5219 28.2609L55.3703 31.8039H51.6457L54.659 33.9937L53.5078 37.5363L56.5219 35.3469L59.5355 37.5363L58.3844 33.9937L61.3976 31.8039H57.673L56.5219 28.2609Z" fill="white"/>
</g>
<path d="M0.5 100C0.5 45.0477 45.0477 0.5 100 0.5C154.952 0.5 199.5 45.0477 199.5 100C199.5 154.952 154.952 199.5 100 199.5C45.0477 199.5 0.5 154.952 0.5 100Z" stroke="#EAEBEE"/>
<defs>
<clipPath id="clip0_67_7404">
<path d="M0 100C0 44.7715 44.7715 0 100 0C155.228 0 200 44.7715 200 100C200 155.228 155.228 200 100 200C44.7715 200 0 155.228 0 100Z" fill="white"/>
</clipPath>
</defs>
</svg>
