<svg width="200" height="200" viewBox="0 0 200 200" fill="none" xmlns="http://www.w3.org/2000/svg">
<g clip-path="url(#clip0_67_7428)">
<path d="M196.555 126.087C198.797 117.769 200 109.026 200 100C200 90.9739 198.797 82.2309 196.555 73.9129L91.3043 0.380493C71.7648 2.06409 53.834 9.36487 39.1305 20.6621L3.44492 73.9129C1.20313 82.2309 0 90.9739 0 100C0 108.973 1.18867 117.668 3.40547 125.943L39.1301 179.338C53.8336 190.635 71.7645 197.936 91.3039 199.62L196.555 126.087Z" fill="#FFDA44"/>
<path d="M3.44495 126.087C9.23088 147.556 21.9828 166.163 39.1305 179.338V126.087H3.44495Z" fill="#0052B4"/>
<path d="M91.3043 199.62C94.1707 199.866 97.0696 200 100 200C146.203 200 185.08 168.664 196.555 126.087H91.3043V199.62Z" fill="#0052B4"/>
<path d="M196.555 73.9129C185.08 31.3363 146.203 0 100 0C97.0696 0 94.1707 0.133594 91.3043 0.380469V73.9129H196.555Z" fill="#0052B4"/>
<path d="M39.1305 20.6621C21.9828 33.8379 9.23088 52.4445 3.44495 73.9129H39.1305V20.6621Z" fill="#0052B4"/>
<path d="M199.154 86.9566H78.2613H78.2609V2.37695C69.0195 4.42617 60.2582 7.74766 52.1738 12.159V86.9562H0.846484C0.289844 91.2262 0 95.5793 0 100C0 104.421 0.289844 108.774 0.846484 113.043H52.1734H52.1738V187.841C60.2582 192.252 69.0195 195.574 78.2609 197.623V113.045V113.044H199.154C199.709 108.774 200 104.421 200 100C200 95.5793 199.709 91.2262 199.154 86.9566Z" fill="#D80027"/>
</g>
<path d="M0.5 100C0.5 45.0477 45.0477 0.5 100 0.5C154.952 0.5 199.5 45.0477 199.5 100C199.5 154.952 154.952 199.5 100 199.5C45.0477 199.5 0.5 154.952 0.5 100Z" stroke="#EAEBEE"/>
<defs>
<clipPath id="clip0_67_7428">
<path d="M0 100C0 44.7715 44.7715 0 100 0C155.228 0 200 44.7715 200 100C200 155.228 155.228 200 100 200C44.7715 200 0 155.228 0 100Z" fill="white"/>
</clipPath>
</defs>
</svg>
