<svg width="200" height="200" viewBox="0 0 200 200" fill="none" xmlns="http://www.w3.org/2000/svg">
<g clip-path="url(#clip0_67_7436)">
<path d="M100 200C155.228 200 200 155.228 200 100C200 44.7715 155.228 0 100 0C44.7715 0 0 44.7715 0 100C0 155.228 44.7715 200 100 200Z" fill="#D80027"/>
<path d="M156.522 74.2222H120.301C122.537 71.8808 123.913 68.7109 123.913 65.2176C123.913 58.014 118.073 52.1742 110.87 52.1742C106.331 52.1742 102.336 54.4929 100 58.009C97.6637 54.4929 93.6684 52.1742 89.1305 52.1742C81.927 52.1742 76.0871 58.014 76.0871 65.2176C76.0871 68.7109 77.4633 71.8812 79.6992 74.2222H43.4785C43.4785 83.8273 51.8445 91.6133 61.4488 91.6133H60.8691C60.8691 101.219 68.6555 109.005 78.2609 109.005C78.2609 112.116 79.0809 115.032 80.5121 117.557L66.0863 131.984L77.1543 143.051L92.8543 127.351C93.4691 127.577 94.1055 127.757 94.7625 127.88L85.2754 149.3L100 165.218L114.725 149.3L105.237 127.88C105.895 127.757 106.531 127.576 107.146 127.35L122.846 143.05L133.914 131.982L119.488 117.556C120.919 115.032 121.739 112.115 121.739 109.004C131.344 109.004 139.13 101.218 139.13 91.6121H138.551C148.155 91.6129 156.522 83.8273 156.522 74.2222Z" fill="black"/>
</g>
<path d="M0.5 100C0.5 45.0477 45.0477 0.5 100 0.5C154.952 0.5 199.5 45.0477 199.5 100C199.5 154.952 154.952 199.5 100 199.5C45.0477 199.5 0.5 154.952 0.5 100Z" stroke="#EAEBEE"/>
<defs>
<clipPath id="clip0_67_7436">
<path d="M0 100C0 44.7715 44.7715 0 100 0C155.228 0 200 44.7715 200 100C200 155.228 155.228 200 100 200C44.7715 200 0 155.228 0 100Z" fill="white"/>
</clipPath>
</defs>
</svg>
