<svg width="200" height="200" viewBox="0 0 200 200" fill="none" xmlns="http://www.w3.org/2000/svg">
<g clip-path="url(#clip0_67_7445)">
<path d="M100 200C155.228 200 200 155.228 200 100C200 44.7715 155.228 0 100 0C44.7715 0 0 44.7715 0 100C0 155.228 44.7715 200 100 200Z" fill="white"/>
<path d="M148.514 12.5437C134.145 4.55625 117.605 0 100 0C44.7758 0 0.00703125 44.7648 0 99.9883L69.5652 65.2176L148.514 12.5437Z" fill="#0052B4"/>
<path d="M0 100.012C0.00703125 155.235 44.7758 200 100 200C117.605 200 134.145 195.445 148.514 187.456L69.5652 134.782L0 100.012Z" fill="#0052B4"/>
<path d="M156.848 17.7273C154.162 15.8683 151.379 14.1394 148.511 12.5453L0 99.9883V100C0 100 0 100.008 0 100.012L148.511 187.454C151.379 185.86 154.162 184.131 156.848 182.272L17.118 100L156.848 17.7273Z" fill="#D80027"/>
<path d="M173.913 96.2707H162.001C165.098 92.5519 164.907 87.0195 161.418 83.5308C165.114 79.8351 165.114 73.8426 161.418 70.1461L161.195 70.3695C164.891 66.6738 165.114 60.4578 161.418 56.7621L107.88 110.3C111.576 113.996 117.464 113.952 121.16 110.256L122.19 109.314L147.826 106.984V118.009H156.522V106.193L169.565 105.007L173.913 96.2707Z" fill="#A2001D"/>
<path d="M108.699 121.739L100 117.391L108.699 113.043H165.22V121.739H108.699Z" fill="#FFDA44"/>
</g>
<path d="M0.5 100C0.5 45.0477 45.0477 0.5 100 0.5C154.952 0.5 199.5 45.0477 199.5 100C199.5 154.952 154.952 199.5 100 199.5C45.0477 199.5 0.5 154.952 0.5 100Z" stroke="#EAEBEE"/>
<defs>
<clipPath id="clip0_67_7445">
<path d="M0 100C0 44.7715 44.7715 0 100 0C155.228 0 200 44.7715 200 100C200 155.228 155.228 200 100 200C44.7715 200 0 155.228 0 100Z" fill="white"/>
</clipPath>
</defs>
</svg>
