<svg width="200" height="200" viewBox="0 0 200 200" fill="none" xmlns="http://www.w3.org/2000/svg">
<g clip-path="url(#clip0_67_7453)">
<path d="M56.5219 190.077C69.6688 196.434 84.4176 200 100 200C115.582 200 130.331 196.434 143.478 190.077L152.174 100L143.478 9.92266C130.331 3.56563 115.582 0 100 0C84.4176 0 69.6688 3.56563 56.5219 9.92266L47.8262 100L56.5219 190.077Z" fill="#FFDA44"/>
<path d="M143.478 190.074C176.928 173.9 200 139.646 200 100C200 60.3543 176.928 26.1004 143.478 9.92615V190.074Z" fill="#D80027"/>
<path d="M56.5219 190.074V9.92615C23.0723 26.1004 0 60.3539 0 100C0 139.646 23.0723 173.9 56.5219 190.074Z" fill="#0052B4"/>
<path d="M100 134.782C100 118.825 100 100 100 100H126.087V113.043C126.087 115.309 121.739 123.612 111.008 130.435C106.943 133.019 102.736 133.85 100 134.782Z" fill="#D80027"/>
<path d="M73.9128 73.9129H100V100H73.9128V73.9129Z" fill="#D80027"/>
<path d="M113.043 65.2176C113.043 60.4148 109.15 56.5219 104.348 56.5219C102.762 56.5219 101.28 56.9531 100 57.6945C98.7199 56.9531 97.2382 56.5219 95.6523 56.5219C90.8499 56.5219 86.9566 60.4148 86.9566 65.2176H65.2175V108.695C65.2175 124.881 78.0714 134.242 88.1515 139.094C87.3972 140.382 86.9566 141.877 86.9566 143.478C86.9566 148.281 90.8499 152.174 95.6523 152.174C97.2382 152.174 98.7203 151.743 100 151.002C101.28 151.743 102.762 152.174 104.348 152.174C109.15 152.174 113.043 148.281 113.043 143.478C113.043 141.877 112.603 140.382 111.848 139.094C121.928 134.242 134.782 124.882 134.782 108.695V65.2176H113.043ZM121.739 108.695C121.739 110.961 121.739 117.856 111.008 124.679C106.943 127.263 102.736 128.939 100 129.871C97.264 128.939 93.057 127.263 88.9921 124.679C78.2609 117.856 78.2609 110.961 78.2609 108.695V78.2609H121.739V108.695Z" fill="#FF9811"/>
</g>
<path d="M0.5 100C0.5 45.0477 45.0477 0.5 100 0.5C154.952 0.5 199.5 45.0477 199.5 100C199.5 154.952 154.952 199.5 100 199.5C45.0477 199.5 0.5 154.952 0.5 100Z" stroke="#EAEBEE"/>
<defs>
<clipPath id="clip0_67_7453">
<path d="M0 100C0 44.7715 44.7715 0 100 0C155.228 0 200 44.7715 200 100C200 155.228 155.228 200 100 200C44.7715 200 0 155.228 0 100Z" fill="white"/>
</clipPath>
</defs>
</svg>
