<svg width="200" height="200" viewBox="0 0 200 200" fill="none" xmlns="http://www.w3.org/2000/svg">
<g clip-path="url(#clip0_67_7461)">
<path d="M0 100C0 44.7719 44.7719 0 100 0C155.228 0 200 44.7719 200 100C195.652 100 100 113.043 100 113.043L0 100Z" fill="#D80027"/>
<path d="M200 100C200 155.228 155.228 200 100 200C44.7719 200 0 155.228 0 100" fill="black"/>
<path d="M86.2883 79.5359L94.7657 85.6883L91.5352 95.6524L100.006 89.4899L108.484 95.6422L105.241 85.6813L113.712 79.5195L103.237 79.5258L99.9938 69.5652L96.7629 79.5293L86.2883 79.5359Z" fill="#FFDA44"/>
<path d="M125 56.6988C117.12 52.1492 108.504 50.002 100 50.0168V63.0574C106.286 63.0461 112.654 64.632 118.478 67.9953C136.126 78.1844 142.194 100.831 132.005 118.479C121.816 136.127 99.1695 142.195 81.5215 132.006C76.3801 129.038 72.2297 125.007 69.1703 120.356L58.2812 127.545C62.4207 133.838 68.0441 139.286 75 143.301C98.8766 157.086 129.516 148.877 143.301 125C157.086 101.123 148.877 70.484 125 56.6988Z" fill="#FFDA44"/>
<path d="M71.168 91.3043C67.7109 97.6242 70.032 105.55 76.3515 109.007L118.714 132.156C115.834 137.422 117.364 143.832 122.63 146.713L134.073 152.972C139.339 155.854 145.945 153.919 148.826 148.653L155.086 137.21L71.168 91.3043Z" fill="#FFDA44"/>
</g>
<path d="M0.5 100C0.5 45.0477 45.0477 0.5 100 0.5C154.952 0.5 199.5 45.0477 199.5 100C199.5 154.952 154.952 199.5 100 199.5C45.0477 199.5 0.5 154.952 0.5 100Z" stroke="#EAEBEE"/>
<defs>
<clipPath id="clip0_67_7461">
<path d="M0 100C0 44.7715 44.7715 0 100 0C155.228 0 200 44.7715 200 100C200 155.228 155.228 200 100 200C44.7715 200 0 155.228 0 100Z" fill="white"/>
</clipPath>
</defs>
</svg>
