<svg width="200" height="200" viewBox="0 0 200 200" fill="none" xmlns="http://www.w3.org/2000/svg">
<g clip-path="url(#clip0_67_7468)">
<path d="M200 100C200 155.228 155.228 200 100 200C44.7719 200 0 155.228 0 100C0 100.024 100 0.0109375 100 0C155.228 0 200 44.7719 200 100Z" fill="#0052B4"/>
<path d="M99.7324 100H100C100 99.9102 100 99.8227 100 99.7324C99.9109 99.8219 99.8219 99.9109 99.7324 100Z" fill="white"/>
<path d="M100 52.1738C100 34.5781 100 23.0488 100 0H99.9832C44.7621 0.009375 0 44.777 0 100H52.1738V70.6207L81.5531 100H99.7328C99.8219 99.9109 99.9109 99.8219 100 99.7324C100 92.9953 100 86.984 100 81.5539L70.6203 52.1738H100Z" fill="white"/>
<path d="M50.5919 13.0433C34.9517 21.9492 21.9489 34.9515 13.0435 50.5918V100H39.1306V39.1312V39.1304H100C100 30.9027 100 23.0644 100 13.0433H50.5919Z" fill="#D80027"/>
<path d="M100 87.7027L64.4707 52.1742H52.1738V52.175L99.9992 100H100C100 100 100 91.5207 100 87.7027Z" fill="#D80027"/>
<path d="M169.117 114.638C171.992 110.682 173.913 105.851 173.913 100V56.5219C170.279 59.2516 165.764 60.8695 160.87 60.8695C153.758 60.8695 147.444 57.4543 143.478 52.1746C139.512 57.4543 133.198 60.8695 126.087 60.8695C121.192 60.8695 116.677 59.2512 113.043 56.5227V100C113.043 105.851 114.964 110.682 117.84 114.638H169.117Z" fill="#F3F3F3"/>
<path d="M160.072 91.934C161.456 88.5566 162.533 83.6203 162.533 81.1637C162.533 77.2164 157.387 74.0168 157.387 74.0168C157.387 74.0168 152.241 77.2164 152.241 81.1637C152.241 83.6207 153.318 88.557 154.701 91.934L151.731 98.6414C153.477 99.3516 155.385 99.7461 157.387 99.7461C159.389 99.7461 161.298 99.3512 163.044 98.6414L160.072 91.934Z" fill="#FF9811"/>
<path d="M139.959 70.2156C136.343 70.7054 131.529 72.2426 129.402 73.4707C125.984 75.4445 125.785 81.5004 125.785 81.5004C125.785 81.5004 131.13 84.357 134.548 82.3836C136.676 81.1551 140.412 77.7551 142.643 74.8676L149.939 74.0863C149.68 72.2199 149.066 70.3695 148.067 68.6363C147.065 66.9031 145.77 65.4469 144.282 64.2894L139.959 70.2156Z" fill="#FF9811"/>
<path d="M131.208 98.4945C133.439 101.38 137.177 104.78 139.305 106.009C142.723 107.982 148.067 105.127 148.067 105.127C148.067 105.127 147.868 99.0699 144.45 97.0961C142.322 95.8676 137.509 94.332 133.893 93.843L129.569 87.916C128.082 89.073 126.786 90.5301 125.785 92.2617C124.785 93.9957 124.172 95.8453 123.913 97.7129L131.208 98.4945Z" fill="#FF9811"/>
<path d="M116.764 113.045C124.884 126.074 143.479 130.435 143.479 130.435C143.479 130.435 162.072 126.074 170.193 113.045H116.764Z" fill="#338AF3"/>
</g>
<path d="M0.5 100C0.5 45.0477 45.0477 0.5 100 0.5C154.952 0.5 199.5 45.0477 199.5 100C199.5 154.952 154.952 199.5 100 199.5C45.0477 199.5 0.5 154.952 0.5 100Z" stroke="#EAEBEE"/>
<defs>
<clipPath id="clip0_67_7468">
<path d="M0 100C0 44.7715 44.7715 0 100 0C155.228 0 200 44.7715 200 100C200 155.228 155.228 200 100 200C44.7715 200 0 155.228 0 100Z" fill="white"/>
</clipPath>
</defs>
</svg>
