<svg width="200" height="200" viewBox="0 0 200 200" fill="none" xmlns="http://www.w3.org/2000/svg">
<g clip-path="url(#clip0_67_7483)">
<path d="M0 100C0 106.85 0.690625 113.538 2.00273 120L100 126.087L197.998 120C199.31 113.538 200 106.85 200 100C200 93.1504 199.309 86.4621 197.998 80L100 73.9129L2.00273 80C0.690625 86.4621 0 93.1504 0 100H0Z" fill="#0052B4"/>
<path d="M197.998 120H2.00269C11.2679 165.645 51.6214 200 100 200C148.378 200 188.732 165.645 197.998 120Z" fill="white"/>
<path d="M2.00269 80H197.998C188.732 34.3555 148.379 0 100 0C51.6207 0 11.2679 34.3555 2.00269 80Z" fill="black"/>
<path d="M143.478 80H56.522L74.2876 71.643L64.8271 54.4379L84.1181 58.1274L86.5634 38.6395L100 52.9731L113.438 38.6395L115.881 58.1274L135.173 54.4379L125.713 71.6438L143.478 80Z" fill="#FFDA44"/>
<path d="M0 100C0 155.228 44.7719 200 100 200L19.9984 39.9965C7.44219 56.7109 0 77.4855 0 100Z" fill="#A2001D"/>
<path d="M100 200C155.228 200 200 155.228 200 100C200 77.4855 192.558 56.7109 180.002 39.9965L100 200Z" fill="#A2001D"/>
</g>
<path d="M0.5 100C0.5 45.0477 45.0477 0.5 100 0.5C154.952 0.5 199.5 45.0477 199.5 100C199.5 154.952 154.952 199.5 100 199.5C45.0477 199.5 0.5 154.952 0.5 100Z" stroke="#EAEBEE"/>
<defs>
<clipPath id="clip0_67_7483">
<path d="M0 100C0 44.7715 44.7715 0 100 0C155.228 0 200 44.7715 200 100C200 155.228 155.228 200 100 200C44.7715 200 0 155.228 0 100Z" fill="white"/>
</clipPath>
</defs>
</svg>
