<svg width="200" height="200" viewBox="0 0 200 200" fill="none" xmlns="http://www.w3.org/2000/svg">
<g clip-path="url(#clip0_67_7491)">
<path d="M100 200C155.228 200 200 155.228 200 100C200 44.7715 155.228 0 100 0C44.7715 0 0 44.7715 0 100C0 155.228 44.7715 200 100 200Z" fill="white"/>
<path d="M100 0C60.3541 0 26.0979 23.0723 9.92285 56.5219H190.077C173.903 23.0723 139.646 0 100 0Z" fill="#338AF3"/>
<path d="M100 200C139.646 200 173.903 176.928 190.078 143.478H9.92285C26.0979 176.928 60.3541 200 100 200Z" fill="#338AF3"/>
<path d="M129.889 100L117.676 105.745L124.179 117.573L110.918 115.036L109.237 128.432L100 118.579L90.7625 128.432L89.0824 115.036L75.8207 117.572L82.3238 105.745L70.1113 100L82.3242 94.2551L75.8207 82.4277L89.082 84.9644L90.7629 71.5676L100 81.4207L109.238 71.5676L110.918 84.9644L124.18 82.4277L117.676 94.2555L129.889 100Z" fill="#FFDA44"/>
</g>
<path d="M0.5 100C0.5 45.0477 45.0477 0.5 100 0.5C154.952 0.5 199.5 45.0477 199.5 100C199.5 154.952 154.952 199.5 100 199.5C45.0477 199.5 0.5 154.952 0.5 100Z" stroke="#EAEBEE"/>
<defs>
<clipPath id="clip0_67_7491">
<path d="M0 100C0 44.7715 44.7715 0 100 0C155.228 0 200 44.7715 200 100C200 155.228 155.228 200 100 200C44.7715 200 0 155.228 0 100Z" fill="white"/>
</clipPath>
</defs>
</svg>
