<svg width="200" height="200" viewBox="0 0 200 200" fill="none" xmlns="http://www.w3.org/2000/svg">
<g clip-path="url(#clip0_67_7501)">
<path d="M100 200C155.228 200 200 155.228 200 100C200 44.7715 155.228 0 100 0C44.7715 0 0 44.7715 0 100C0 155.228 44.7715 200 100 200Z" fill="#FFDA44"/>
<path d="M99.9999 200C130.309 200 157.466 186.514 175.805 165.218H24.1948C42.5335 186.514 69.6909 200 99.9999 200Z" fill="#338AF3"/>
<path d="M200 100C200 44.7719 155.228 0 100 0C44.7719 0 0 44.7719 0 100C0 109.026 1.20313 117.769 3.44492 126.087H196.555C198.797 117.769 200 109.026 200 100Z" fill="#338AF3"/>
<path d="M7.94873 139.13C9.87646 143.66 12.13 148.016 14.6772 152.174H185.323C187.87 148.016 190.123 143.66 192.052 139.13H7.94873Z" fill="#338AF3"/>
<path d="M45.8271 63.0715L26.2896 54.4488L45.8271 45.8262L54.4493 26.2891L63.0716 45.8262L82.6087 54.4488L63.0716 63.0715L54.4493 82.6086L45.8271 63.0715Z" fill="white"/>
<path d="M54.449 37.0574L59.7736 49.1234L71.84 54.4488L59.7736 59.7738L54.449 71.8399L49.1236 59.7738L37.0576 54.4488L49.1236 49.1234L54.449 37.0574Z" fill="#D80027"/>
</g>
<path d="M0.5 100C0.5 45.0477 45.0477 0.5 100 0.5C154.952 0.5 199.5 45.0477 199.5 100C199.5 154.952 154.952 199.5 100 199.5C45.0477 199.5 0.5 154.952 0.5 100Z" stroke="#EAEBEE"/>
<defs>
<clipPath id="clip0_67_7501">
<path d="M0 100C0 44.7715 44.7715 0 100 0C155.228 0 200 44.7715 200 100C200 155.228 155.228 200 100 200C44.7715 200 0 155.228 0 100Z" fill="white"/>
</clipPath>
</defs>
</svg>
