<svg width="200" height="200" viewBox="0 0 200 200" fill="none" xmlns="http://www.w3.org/2000/svg">
<g clip-path="url(#clip0_67_7509)">
<path d="M200 100C200 155.228 155.228 200 100 200C44.7719 200 0 155.228 0 100C0 100.023 100 0.0113281 100 0C155.228 0 200 44.7719 200 100Z" fill="#0052B4"/>
<path d="M100 0C99.9947 0 99.9889 0.002 99.9834 0.002L100 0Z" fill="white"/>
<path d="M99.7324 100H100C100 99.9094 100 99.8227 100 99.7324C99.9109 99.8219 99.8219 99.9109 99.7324 100Z" fill="white"/>
<path d="M100 52.174C100 34.5783 100 23.0482 100 0.000183105H99.9832C44.7625 0.00916748 0 44.7767 0 99.9998H52.1738V70.6201L81.5535 99.9998H99.7328C99.8223 99.9107 99.9113 99.8217 100 99.7322C100 92.9951 100 86.9838 100 81.5541L70.6203 52.174H100Z" fill="white"/>
<path d="M50.5919 13.0433C34.9517 21.9492 21.9493 34.9515 13.0435 50.5918V100H39.1306V39.1308V39.1304H100C100 30.9027 100 23.0644 100 13.0433H50.5919Z" fill="#D80027"/>
<path d="M100 87.7027L64.4716 52.1746H52.1743C52.1743 52.1742 52.1743 52.1746 52.1743 52.1746L99.9997 100H100C100 100 100 91.5215 100 87.7027Z" fill="#D80027"/>
<path d="M60.3107 117.391L65.799 128.867L78.1924 126.003L72.6424 137.449L82.6088 145.352L70.1998 148.149L70.2346 160.87L60.3107 152.911L50.3873 160.87L50.4221 148.149L38.0127 145.352L47.9795 137.449L42.4287 126.003L54.8228 128.867L60.3107 117.391Z" fill="white"/>
<path d="M149.721 139.13L152.465 144.868L158.662 143.436L155.886 149.159L160.87 153.111L154.665 154.509L154.682 160.87L149.721 156.89L144.759 160.87L144.776 154.509L138.572 153.111L143.555 149.159L140.78 143.436L146.976 144.868L149.721 139.13Z" fill="white"/>
<path d="M124.193 78.261L126.936 83.9993L133.133 82.5665L130.358 88.2895L135.342 92.2415L129.137 93.6399L129.154 100L124.193 96.0208L119.231 100L119.248 93.6399L113.043 92.2415L118.027 88.2895L115.252 82.5665L121.449 83.9993L124.193 78.261Z" fill="white"/>
<path d="M149.721 43.4781L152.465 49.2164L158.662 47.784L155.887 53.5071L160.869 57.4586L154.665 58.8574L154.682 65.2176L149.721 61.2383L144.759 65.2176L144.776 58.8574L138.572 57.4586L143.555 53.5071L140.78 47.784L146.976 49.2164L149.721 43.4781Z" fill="white"/>
<path d="M172.019 69.5652L174.763 75.3035L180.959 73.8707L178.184 79.5938L183.168 83.5457L176.963 84.9445L176.98 91.3043L172.019 87.3254L167.057 91.3043L167.074 84.9445L160.87 83.5457L165.853 79.5938L163.078 73.8707L169.274 75.3035L172.019 69.5652Z" fill="white"/>
<path d="M156.075 100L158.233 106.643H165.218L159.567 110.749L161.726 117.391L156.075 113.286L150.424 117.391L152.582 110.749L146.931 106.643H153.916L156.075 100Z" fill="white"/>
</g>
<path d="M0.5 100C0.5 45.0477 45.0477 0.5 100 0.5C154.952 0.5 199.5 45.0477 199.5 100C199.5 154.952 154.952 199.5 100 199.5C45.0477 199.5 0.5 154.952 0.5 100Z" stroke="#EAEBEE"/>
<defs>
<clipPath id="clip0_67_7509">
<path d="M0 100C0 44.7715 44.7715 0 100 0C155.228 0 200 44.7715 200 100C200 155.228 155.228 200 100 200C44.7715 200 0 155.228 0 100Z" fill="white"/>
</clipPath>
</defs>
</svg>
