<svg width="200" height="200" viewBox="0 0 200 200" fill="none" xmlns="http://www.w3.org/2000/svg">
<g clip-path="url(#clip0_67_7530)">
<path d="M200 100C200 87.7679 197.8 76.0504 193.78 65.2176L100 60.8695L6.21992 65.2172C2.20039 76.0504 0 87.7679 0 100C0 112.232 2.20039 123.95 6.21992 134.782L100 139.13L193.78 134.783C197.8 123.95 200 112.232 200 100Z" fill="#D80027"/>
<path d="M99.9998 200C142.996 200 179.651 172.863 193.78 134.782H6.21973C20.349 172.863 57.0033 200 99.9998 200Z" fill="#6DA544"/>
<path d="M6.21973 65.2176H193.78C179.651 27.1375 142.996 0 99.9998 0C57.0033 0 20.349 27.1375 6.21973 65.2176Z" fill="#338AF3"/>
<path d="M102.174 128.261C86.5661 128.261 73.913 115.608 73.913 100C73.913 84.3922 86.5661 71.739 102.174 71.739C107.04 71.739 111.62 72.9695 115.617 75.1359C109.345 69.0027 100.769 65.2172 91.3044 65.2172C72.0942 65.2172 56.522 80.7898 56.522 99.9996C56.522 119.209 72.0946 134.782 91.3044 134.782C100.769 134.782 109.346 130.996 115.617 124.863C111.62 127.03 107.04 128.261 102.174 128.261Z" fill="white"/>
<path d="M123.913 80.4348L127.656 90.9625L137.748 86.1648L132.95 96.2562L143.478 100L132.95 103.744L137.748 113.835L127.656 109.037L123.913 119.565L120.17 109.037L110.078 113.835L114.876 103.744L104.348 100L114.876 96.2562L110.078 86.1648L120.17 90.9625L123.913 80.4348Z" fill="white"/>
</g>
<path d="M0.5 100C0.5 45.0477 45.0477 0.5 100 0.5C154.952 0.5 199.5 45.0477 199.5 100C199.5 154.952 154.952 199.5 100 199.5C45.0477 199.5 0.5 154.952 0.5 100Z" stroke="#EAEBEE"/>
<defs>
<clipPath id="clip0_67_7530">
<path d="M0 100C0 44.7715 44.7715 0 100 0C155.228 0 200 44.7715 200 100C200 155.228 155.228 200 100 200C44.7715 200 0 155.228 0 100Z" fill="white"/>
</clipPath>
</defs>
</svg>
