<svg width="200" height="200" viewBox="0 0 200 200" fill="none" xmlns="http://www.w3.org/2000/svg">
<g clip-path="url(#clip0_67_7537)">
<path d="M100 200C155.228 200 200 155.228 200 100C200 44.7715 155.228 0 100 0C44.7715 0 0 44.7715 0 100C0 155.228 44.7715 200 100 200Z" fill="white"/>
<path d="M0 100C0 137.904 21.0898 170.881 52.1738 187.841V12.159C21.0898 29.1192 0 62.0957 0 100Z" fill="#D80027"/>
<path d="M0 100C0 146.203 31.3363 185.08 73.9129 196.555V3.44495C31.3363 14.9199 0 53.7973 0 100Z" fill="#0052B4"/>
<path d="M35.8696 34.7824V51.0867C35.8696 59.191 42.4392 65.7605 50.5435 65.7605C58.6478 65.7605 65.2173 59.191 65.2173 51.0867V34.7824H35.8696Z" fill="#D80027"/>
<path d="M50.5436 57.0652C47.2471 57.0652 44.5654 54.3836 44.5654 51.0871V43.4785H56.5221V51.0871C56.5221 54.3836 53.84 57.0652 50.5436 57.0652Z" fill="white"/>
<path d="M108.696 104.348H82.6084C82.6084 99.5453 78.715 95.6519 73.9127 95.6519C69.1104 95.6519 65.217 99.5453 65.217 104.348H39.1299C39.1299 109.15 43.3131 113.043 48.115 113.043H47.8256C47.8256 117.846 51.7182 121.739 56.5213 121.739C56.5213 126.542 60.4139 130.435 65.217 130.435H82.6084C87.4107 130.435 91.3041 126.542 91.3041 121.739C96.1064 121.739 99.9998 117.846 99.9998 113.043H99.7104C104.512 113.043 108.696 109.15 108.696 104.348Z" fill="#FFDA44"/>
<path d="M112.269 90.4324L109.986 94.0875L112.755 97.3875L108.574 96.3465L106.291 100L105.99 95.7011L101.809 94.6586L105.805 93.0445L105.504 88.7457L108.274 92.0472L112.269 90.4324Z" fill="#FFDA44"/>
<path d="M98.9476 79.2547L98.0526 83.4699L101.784 85.6242L97.4983 86.0766L96.6026 90.2906L94.8495 86.3539L90.564 86.8039L93.7667 83.9203L92.0144 79.9844L95.7456 82.1387L98.9476 79.2547Z" fill="#FFDA44"/>
<path d="M82.6076 73.3078L83.2072 77.5754L87.4506 78.3234L83.5779 80.2125L84.1775 84.4801L81.1846 81.3801L77.3111 83.2691L79.3342 79.464L76.3408 76.3648L80.585 77.1125L82.6076 73.3078Z" fill="#FFDA44"/>
<path d="M65.218 73.3078L67.2414 77.1125L71.4848 76.3644L68.4914 79.4648L70.5145 83.2695L66.6418 81.3801L63.648 84.4793L64.248 80.2125L60.375 78.3238L64.6184 77.5754L65.218 73.3078Z" fill="#FFDA44"/>
<path d="M48.878 79.2547L52.0804 82.1387L55.8116 79.9844L54.0601 83.9219L57.2612 86.8043L52.9765 86.3539L51.2229 90.2906L50.3284 86.0758L46.0425 85.6258L49.7737 83.4703L48.878 79.2547Z" fill="#FFDA44"/>
<path d="M35.5568 90.4324L39.5533 92.0473L42.3217 88.7461L42.0225 93.0457L46.0174 94.6602L41.8357 95.7016L41.5342 100L39.2525 96.3465L35.0713 97.3883L37.8412 94.0875L35.5568 90.4324Z" fill="#FFDA44"/>
</g>
<path d="M0.5 100C0.5 45.0477 45.0477 0.5 100 0.5C154.952 0.5 199.5 45.0477 199.5 100C199.5 154.952 154.952 199.5 100 199.5C45.0477 199.5 0.5 154.952 0.5 100Z" stroke="#EAEBEE"/>
<defs>
<clipPath id="clip0_67_7537">
<path d="M0 100C0 44.7715 44.7715 0 100 0C155.228 0 200 44.7715 200 100C200 155.228 155.228 200 100 200C44.7715 200 0 155.228 0 100Z" fill="white"/>
</clipPath>
</defs>
</svg>
