<svg width="200" height="200" viewBox="0 0 200 200" fill="none" xmlns="http://www.w3.org/2000/svg">
<g clip-path="url(#clip0_67_7560)">
<path d="M99.9998 0.000183105C155.228 0.000183105 200 44.772 200 100C200 155.228 155.228 200 99.9998 200C44.7718 200 0 155.228 0 100" fill="#FFDA44"/>
<path d="M97.8267 44.4448H183.156C177.537 36.0515 170.681 28.5593 162.849 22.2226H97.8267V44.4448Z" fill="#D80027"/>
<path d="M97.8267 88.8893H199.383C198.531 81.1838 196.804 73.7436 194.303 66.6674H97.8267V88.8893Z" fill="#D80027"/>
<path d="M5.69862 133.334H194.302C196.803 126.258 198.53 118.817 199.383 111.111H0.618164C1.46972 118.817 3.19707 126.258 5.69862 133.334Z" fill="#D80027"/>
<path d="M37.1518 177.778H162.848C170.68 171.441 177.537 163.948 183.156 155.556H16.8452C22.464 163.948 29.3202 171.441 37.1518 177.778Z" fill="#D80027"/>
<path d="M100 0.000183105C44.7718 0.000183105 -0.000390622 44.772 2.55604e-09 100.001C22.8226 100 44.7718 100.001 99.9998 100.001L100 0.000183105Z" fill="#4A1F63"/>
<path d="M82.6091 52.1741V60.8698H78.2614V52.1741H69.5657V60.8698H65.2181V43.4785H47.8267V60.8698H43.4787V52.1741H34.7834V60.8698H30.4353V52.1741H21.7393V78.2608H91.3048V52.1741H82.6091Z" fill="white"/>
</g>
<path d="M0.5 100C0.5 45.0477 45.0477 0.5 100 0.5C154.952 0.5 199.5 45.0477 199.5 100C199.5 154.952 154.952 199.5 100 199.5C45.0477 199.5 0.5 154.952 0.5 100Z" stroke="#EAEBEE"/>
<defs>
<clipPath id="clip0_67_7560">
<path d="M0 100C0 44.7715 44.7715 0 100 0C155.228 0 200 44.7715 200 100C200 155.228 155.228 200 100 200C44.7715 200 0 155.228 0 100Z" fill="white"/>
</clipPath>
</defs>
</svg>
