<svg width="200" height="200" viewBox="0 0 200 200" fill="none" xmlns="http://www.w3.org/2000/svg">
<g clip-path="url(#clip0_67_7572)">
<path d="M143.478 9.92266C130.331 3.56563 115.582 0 100 0C84.418 0 69.6688 3.56563 56.5219 9.92266L47.8262 100L56.5219 190.077C69.6688 196.434 84.418 200 100 200C115.582 200 130.331 196.434 143.478 190.077L152.174 100L143.478 9.92266Z" fill="#FFDA44"/>
<path d="M56.5219 9.92615C23.0727 26.1004 0 60.3539 0 100C0 139.646 23.0727 173.9 56.5219 190.074V9.92615Z" fill="#0052B4"/>
<path d="M143.478 9.92615V190.074C176.927 173.9 200 139.646 200 100C200 60.3543 176.927 26.1004 143.478 9.92615Z" fill="#0052B4"/>
<path d="M130.435 60.8695L136.268 63.7859L130.435 60.8695L124.601 57.9531C124.25 58.6566 116.633 74.1539 115.389 97.8262H106.522V60.8695L100 52.1738L93.4781 60.8695V97.8262H84.6113C83.3668 74.1539 75.7504 58.6566 75.3985 57.9531L63.7321 63.7863C63.8125 63.9465 71.7395 80.0813 71.7395 104.348V110.87H93.4785V147.827H106.522V110.87H128.261V104.348C128.261 91.8016 130.432 81.4563 132.253 74.9867C134.239 67.932 136.255 63.8121 136.275 63.7711L130.435 60.8695Z" fill="black"/>
</g>
<path d="M0.5 100C0.5 45.0477 45.0477 0.5 100 0.5C154.952 0.5 199.5 45.0477 199.5 100C199.5 154.952 154.952 199.5 100 199.5C45.0477 199.5 0.5 154.952 0.5 100Z" stroke="#EAEBEE"/>
<defs>
<clipPath id="clip0_67_7572">
<path d="M0 100C0 44.7715 44.7715 0 100 0C155.228 0 200 44.7715 200 100C200 155.228 155.228 200 100 200C44.7715 200 0 155.228 0 100Z" fill="white"/>
</clipPath>
</defs>
</svg>
