<svg width="200" height="200" viewBox="0 0 200 200" fill="none" xmlns="http://www.w3.org/2000/svg">
<g clip-path="url(#clip0_67_7578)">
<path d="M100 200C155.228 200 200 155.228 200 100C200 44.7715 155.228 0 100 0C44.7715 0 0 44.7715 0 100C0 155.228 44.7715 200 100 200Z" fill="white"/>
<path d="M0.846863 113.043C3.17343 130.9 10.2133 147.273 20.673 160.881L73.9129 113.043H0.846863Z" fill="#D80027"/>
<path d="M86.9566 199.153V126.087L39.1191 179.327C52.7273 189.787 69.1 196.827 86.9566 199.153Z" fill="#D80027"/>
<path d="M86.9566 0.846436C69.1 3.173 52.7273 10.2128 39.1191 20.6726L86.9566 73.9132V0.846436Z" fill="#D80027"/>
<path d="M0.846863 86.9566H73.9129L20.6726 39.1191C10.2129 52.727 3.17303 69.1 0.846863 86.9566Z" fill="#D80027"/>
<path d="M113.043 0.846436V73.9128L160.882 20.6726C147.273 10.2136 130.9 3.17261 113.043 0.846436Z" fill="#D80027"/>
<path d="M199.153 86.9565C196.827 69.0999 189.787 52.7269 179.327 39.1187L126.087 86.9565H199.153Z" fill="#D80027"/>
<path d="M126.087 113.043L179.328 160.881C189.787 147.273 196.827 130.9 199.154 113.043H126.087Z" fill="#D80027"/>
<path d="M113.043 199.153C130.9 196.827 147.273 189.787 160.881 179.327L113.043 126.087V199.153Z" fill="#D80027"/>
<path d="M179.335 160.889L118.447 100L118.446 99.9999L179.335 39.1109C176.709 35.6984 173.837 32.4156 170.711 29.289C167.585 26.1632 164.302 23.2902 160.889 20.6648L100 81.5535H100L39.1113 20.6648C35.6988 23.2906 32.4156 26.1628 29.2891 29.289C26.1633 32.4156 23.2902 35.6984 20.6649 39.1113L81.5535 99.9996L81.5539 99.9999L20.6652 160.889C23.291 164.301 26.1637 167.584 29.2895 170.711C32.4156 173.837 35.6988 176.71 39.1117 179.335L100 118.446L160.889 179.335C164.301 176.709 167.584 173.837 170.711 170.711C173.837 167.584 176.709 164.301 179.335 160.889Z" fill="#496E2D"/>
<path d="M113.043 199.154V113.045V113.044H199.154C199.71 108.774 200 104.421 200 100C200 95.5797 199.71 91.2266 199.154 86.957H113.044L113.044 86.9566V0.846875C108.774 0.291016 104.421 0 100 0C95.5793 0.000390625 91.2262 0.291016 86.9566 0.846875L86.957 86.9559V86.9566H0.846875C0.290625 91.2262 0 95.5793 0 100C0.000390625 104.421 0.290625 108.774 0.846875 113.043H86.9563L86.9566 199.154C91.2266 199.709 95.5785 200 100 200C104.421 200 108.774 199.709 113.043 199.154Z" fill="white"/>
</g>
<path d="M0.5 100C0.5 45.0477 45.0477 0.5 100 0.5C154.952 0.5 199.5 45.0477 199.5 100C199.5 154.952 154.952 199.5 100 199.5C45.0477 199.5 0.5 154.952 0.5 100Z" stroke="#EAEBEE"/>
<defs>
<clipPath id="clip0_67_7578">
<path d="M0 100C0 44.7715 44.7715 0 100 0C155.228 0 200 44.7715 200 100C200 155.228 155.228 200 100 200C44.7715 200 0 155.228 0 100Z" fill="white"/>
</clipPath>
</defs>
</svg>
