<svg width="200" height="200" viewBox="0 0 200 200" fill="none" xmlns="http://www.w3.org/2000/svg">
<g clip-path="url(#clip0_67_7591)">
<path d="M100 200C155.228 200 200 155.228 200 100C200 44.7715 155.228 0 100 0C44.7715 0 0 44.7715 0 100C0 155.228 44.7715 200 100 200Z" fill="#FCFCFC"/>
<path d="M41.3042 92.7535L30.4347 73.0336L41.3042 53.623L52.1738 73.0336L41.3042 92.7535Z" fill="#A2001D"/>
<path d="M19.5652 92.7535L8.69568 73.0336L19.5652 53.623L30.4347 73.0336L19.5652 92.7535Z" fill="#A2001D"/>
<path d="M41.3042 146.377L30.4347 126.657L41.3042 107.246L52.1738 126.657L41.3042 146.377Z" fill="#A2001D"/>
<path d="M19.5652 146.377L8.69568 126.657L19.5652 107.246L30.4347 126.657L19.5652 146.377Z" fill="#A2001D"/>
<path d="M52.1738 19.411L49.0964 13.9156C43.5769 17.186 38.3999 20.9723 33.63 25.2082L41.3042 39.1305L52.1738 19.411Z" fill="#A2001D"/>
<path d="M41.3043 160.87L33.5488 174.72C38.3145 178.961 43.4879 182.753 49.0051 186.03L52.1742 180.28L41.3043 160.87Z" fill="#A2001D"/>
<path d="M60.8695 126.087V192.049C72.8886 197.165 86.1125 200 100 200C142.996 200 179.651 172.863 193.78 134.782L60.8695 126.087Z" fill="#6DA544"/>
<path d="M193.78 134.782C197.8 123.949 200 112.232 200 100C200 44.7719 155.228 0 100 0C86.1136 0 72.8886 2.8332 60.8695 7.94844V134.783H193.78V134.782Z" fill="#A2001D"/>
</g>
<path d="M0.5 100C0.5 45.0477 45.0477 0.5 100 0.5C154.952 0.5 199.5 45.0477 199.5 100C199.5 154.952 154.952 199.5 100 199.5C45.0477 199.5 0.5 154.952 0.5 100Z" stroke="#EAEBEE"/>
<defs>
<clipPath id="clip0_67_7591">
<path d="M0 100C0 44.7715 44.7715 0 100 0C155.228 0 200 44.7715 200 100C200 155.228 155.228 200 100 200C44.7715 200 0 155.228 0 100Z" fill="white"/>
</clipPath>
</defs>
</svg>
