<svg width="200" height="200" viewBox="0 0 200 200" fill="none" xmlns="http://www.w3.org/2000/svg">
<g clip-path="url(#clip0_67_7606)">
<path d="M200 100C200 65.6793 182.707 35.4008 156.362 17.3914L100 13.0433L43.6379 17.391C17.293 35.4008 0 65.6797 0 100C0 134.321 17.293 164.599 43.6379 182.609L100 186.957L156.362 182.609C182.707 164.599 200 134.321 200 100Z" fill="#0052B4"/>
<path d="M156.362 17.3914C140.313 6.42031 120.908 0 100 0C79.0926 0 59.6868 6.42031 43.6379 17.3914H156.362Z" fill="#A2001D"/>
<path d="M43.6379 182.609C59.6864 193.58 79.0926 200 100 200C120.908 200 140.313 193.58 156.362 182.609H43.6379Z" fill="#A2001D"/>
<path d="M100 147.826C126.414 147.826 147.826 126.414 147.826 100C147.826 73.5863 126.414 52.1738 100 52.1738C73.5863 52.1738 52.1738 73.5863 52.1738 100C52.1738 126.414 73.5863 147.826 100 147.826Z" fill="white"/>
<path d="M100 139.13C121.611 139.13 139.131 121.611 139.131 100C139.131 78.3888 121.611 60.8695 100 60.8695C78.3889 60.8695 60.8696 78.3888 60.8696 100C60.8696 121.611 78.3889 139.13 100 139.13Z" fill="#6DA544"/>
<path d="M100 126.087C114.407 126.087 126.087 114.407 126.087 100C126.087 85.5924 114.407 73.9128 100 73.9128C85.5924 73.9128 73.9128 85.5924 73.9128 100C73.9128 114.407 85.5924 126.087 100 126.087Z" fill="white"/>
<path d="M100 93.4781L85.8696 100V110.87L100 119.565L114.131 110.87V100L100 93.4781Z" fill="#0052B4"/>
<path d="M85.8696 86.9567H114.131V100H85.8696V86.9567Z" fill="#FFDA44"/>
</g>
<path d="M0.5 100C0.5 45.0477 45.0477 0.5 100 0.5C154.952 0.5 199.5 45.0477 199.5 100C199.5 154.952 154.952 199.5 100 199.5C45.0477 199.5 0.5 154.952 0.5 100Z" stroke="#EAEBEE"/>
<defs>
<clipPath id="clip0_67_7606">
<path d="M0 100C0 44.7715 44.7715 0 100 0C155.228 0 200 44.7715 200 100C200 155.228 155.228 200 100 200C44.7715 200 0 155.228 0 100Z" fill="white"/>
</clipPath>
</defs>
</svg>
