<svg width="200" height="200" viewBox="0 0 200 200" fill="none" xmlns="http://www.w3.org/2000/svg">
<g clip-path="url(#clip0_67_7616)">
<path d="M65.2175 91.3043L73.9132 196.555C82.2308 198.797 90.9738 200 100 200C155.228 200 200 155.228 200 100L65.2175 91.3043Z" fill="#D80027"/>
<path d="M65.2175 100L73.9128 3.44492C82.2308 1.20313 90.9738 0 100 0C155.228 0 200 44.7719 200 100H65.2175Z" fill="#FFDA44"/>
<path d="M0 100C0 146.203 31.3363 185.08 73.9129 196.555V3.44495C31.3363 14.9199 0 53.7973 0 100Z" fill="#6DA544"/>
</g>
<path d="M0.5 100C0.5 45.0477 45.0477 0.5 100 0.5C154.952 0.5 199.5 45.0477 199.5 100C199.5 154.952 154.952 199.5 100 199.5C45.0477 199.5 0.5 154.952 0.5 100Z" stroke="#EAEBEE"/>
<defs>
<clipPath id="clip0_67_7616">
<path d="M0 100C0 44.7715 44.7715 0 100 0C155.228 0 200 44.7715 200 100C200 155.228 155.228 200 100 200C44.7715 200 0 155.228 0 100Z" fill="white"/>
</clipPath>
</defs>
</svg>
