<svg width="200" height="200" viewBox="0 0 200 200" fill="none" xmlns="http://www.w3.org/2000/svg">
<g clip-path="url(#clip0_67_7620)">
<path d="M200 100C200 155.228 155.228 200 100 200C44.7719 200 0 155.228 0 100C0 100.024 100 0.0109375 100 0C155.228 0 200 44.7719 200 100Z" fill="#D80027"/>
<path d="M100 47.8262V81.5539L65.2175 47.8262H100Z" fill="#0052B4"/>
<path d="M52.1738 100H81.5531L52.1738 60.8695L47.8262 91.3043L52.1738 100Z" fill="#0052B4"/>
<path d="M99.7324 100H100C100 99.9102 100 99.8227 100 99.7324C99.9109 99.8219 99.8219 99.9109 99.7324 100Z" fill="white"/>
<path d="M100 52.1738C100 34.5781 100 23.0488 100 0H99.9832C44.7621 0.009375 0 44.777 0 100H52.1738V70.6207L81.5531 100H99.7328C99.8219 99.9109 99.9109 99.8219 100 99.7324C100 92.9953 100 86.984 100 81.5539L70.6203 52.1738H100Z" fill="white"/>
<path d="M50.5919 13.0433C34.9517 21.9492 21.9489 34.9515 13.0435 50.5918V104.348H39.1306V39.1312V39.1304H104.348C104.348 30.9027 104.348 23.0644 104.348 13.0433H50.5919Z" fill="#D80027"/>
<path d="M103.975 91.6773L64.4707 52.1738H52.1738V52.1746L103.974 103.975H103.975C103.975 103.975 103.975 95.4961 103.975 91.6773Z" fill="#D80027"/>
<path d="M113.043 52.1738V99.9996C113.043 123.296 173.913 123.296 173.913 99.9996V52.1738H113.043Z" fill="#F3F3F3"/>
<path d="M113.043 100V99.9996C113.043 123.297 143.478 130.435 143.478 130.435C143.478 130.435 173.913 123.297 173.913 99.9996V100H113.043Z" fill="#6DA544"/>
<path d="M143.478 80.8695L129.348 86.9566V100L143.478 108.696L157.609 100V86.9566L143.478 80.8695Z" fill="#A2001D"/>
<path d="M129.348 73.9128H157.609V86.9562H129.348V73.9128Z" fill="#338AF3"/>
</g>
<path d="M0.5 100C0.5 45.0477 45.0477 0.5 100 0.5C154.952 0.5 199.5 45.0477 199.5 100C199.5 154.952 154.952 199.5 100 199.5C45.0477 199.5 0.5 154.952 0.5 100Z" stroke="#EAEBEE"/>
<defs>
<clipPath id="clip0_67_7620">
<path d="M0 100C0 44.7715 44.7715 0 100 0C155.228 0 200 44.7715 200 100C200 155.228 155.228 200 100 200C44.7715 200 0 155.228 0 100Z" fill="white"/>
</clipPath>
</defs>
</svg>
