<svg width="200" height="200" viewBox="0 0 200 200" fill="none" xmlns="http://www.w3.org/2000/svg">
<g clip-path="url(#clip0_67_7636)">
<path d="M170.711 170.711C131.658 209.763 68.342 209.763 29.2893 170.711C-9.76309 131.659 -9.76309 68.3417 29.2893 29.289C29.3033 29.289 119.156 2.7394 158.208 41.7917C197.261 80.8441 170.738 170.684 170.711 170.711Z" fill="#FFDA44"/>
<path d="M170.711 170.711C209.763 131.659 209.763 68.342 170.711 29.2893C131.658 -9.76345 68.3418 -9.76306 29.2891 29.2893L170.711 170.711Z" fill="#D80027"/>
<path d="M126.139 126.149C122.031 127.762 117.258 127.591 113.117 125.267C105.801 121.161 103.189 111.866 107.296 104.549L106.05 103.85C118.577 100.829 127.846 89.4578 127.683 76.039C127.582 67.6964 123.855 60.2328 118.024 55.1257L108.894 64.4796C112.345 67.2304 114.583 71.45 114.641 76.1972C114.742 84.5878 107.999 91.4968 99.6089 91.598L99.6265 93.0265C90.7464 83.6882 76.2652 81.3472 64.7257 88.1972C57.5515 92.4566 52.9523 99.416 51.4441 107.019L64.1097 110.25C64.7664 105.885 67.3011 101.837 71.3835 99.4136C78.5988 95.1304 87.9535 97.5164 92.2367 104.731L93.4664 104.002C89.8187 116.361 95.0316 130.073 106.734 136.641C114.01 140.725 122.337 141.228 129.676 138.733L126.139 126.149ZM99.714 100.292L99.7132 100.292L99.714 100.292Z" fill="#FF9811"/>
<path d="M137.026 67.7269L129.958 92.95L108.751 89.0339L95.0999 60.8953L58.2222 73.9816L55.314 65.7863L45.6655 64.5976L52.9354 85.0855L78.314 78.5949L85.5261 98.9187L67.9823 124.81L97.7546 150.203L92.1112 156.819L95.9062 165.77L110.015 149.229L91.7046 130.496L105.7 114.089L136.894 116.336L143.999 77.8558L152.55 79.4351L158.405 71.6734L137.026 67.7269ZM99.9925 100.68V100.681V100.68Z" fill="#FFEACF"/>
</g>
<path d="M0.5 100C0.5 45.0477 45.0477 0.5 100 0.5C154.952 0.5 199.5 45.0477 199.5 100C199.5 154.952 154.952 199.5 100 199.5C45.0477 199.5 0.5 154.952 0.5 100Z" stroke="#EAEBEE"/>
<defs>
<clipPath id="clip0_67_7636">
<path d="M0 100C0 44.7715 44.7715 0 100 0C155.228 0 200 44.7715 200 100C200 155.228 155.228 200 100 200C44.7715 200 0 155.228 0 100Z" fill="white"/>
</clipPath>
</defs>
</svg>
