<svg width="200" height="200" viewBox="0 0 200 200" fill="none" xmlns="http://www.w3.org/2000/svg">
<g clip-path="url(#clip0_67_7645)">
<path d="M100 200C155.228 200 200 155.228 200 100C200 44.7715 155.228 0 100 0C44.7715 0 0 44.7715 0 100C0 155.228 44.7715 200 100 200Z" fill="white"/>
<path d="M29.2892 29.2891C7.85761 50.7207 -1.80919 79.4606 0.281825 107.486L107.486 0.282043C79.4603 -1.80936 50.7209 7.85743 29.2892 29.2891Z" fill="#FFDA44"/>
<path d="M35.707 176.59C74.9965 209.646 133.73 207.691 170.711 170.711C207.691 133.73 209.646 74.9961 176.591 35.707L35.707 176.59Z" fill="#0052B4"/>
<path d="M99.6433 95.9722L108.261 91.3042L99.6433 86.6363C97.6312 73.5656 87.3038 63.2378 74.2331 61.2261L69.5647 52.6082L64.8968 61.2257C51.8265 63.2375 41.4991 73.5652 39.4866 86.6359L30.8687 91.3042L39.4862 95.9722C41.4983 109.043 51.8257 119.371 64.8964 121.382L69.5647 130L74.2327 121.383C87.3038 119.371 97.6312 109.043 99.6433 95.9722ZM69.5651 108.696C59.9601 108.696 52.1737 100.91 52.1737 91.3042C52.1737 81.6988 59.9597 73.9128 69.5651 73.9128C79.1706 73.9128 86.9565 81.6988 86.9565 91.3042C86.9565 100.91 79.1702 108.696 69.5651 108.696Z" fill="black"/>
<path d="M69.5652 78.261L73.3305 84.7825H80.8613L77.0957 91.3043L80.8613 97.8262H73.3305L69.5652 104.348L65.8 97.8262H58.2695L62.0348 91.3043L58.2695 84.7825H65.8L69.5652 78.261Z" fill="#D80027"/>
</g>
<path d="M0.5 100C0.5 45.0477 45.0477 0.5 100 0.5C154.952 0.5 199.5 45.0477 199.5 100C199.5 154.952 154.952 199.5 100 199.5C45.0477 199.5 0.5 154.952 0.5 100Z" stroke="#EAEBEE"/>
<defs>
<clipPath id="clip0_67_7645">
<path d="M0 100C0 44.7715 44.7715 0 100 0C155.228 0 200 44.7715 200 100C200 155.228 155.228 200 100 200C44.7715 200 0 155.228 0 100Z" fill="white"/>
</clipPath>
</defs>
</svg>
