<svg width="200" height="200" viewBox="0 0 200 200" fill="none" xmlns="http://www.w3.org/2000/svg">
<g clip-path="url(#clip0_67_7651)">
<path d="M100 200C155.228 200 200 155.228 200 100C200 44.7715 155.228 0 100 0C44.7715 0 0 44.7715 0 100C0 155.228 44.7715 200 100 200Z" fill="white"/>
<path d="M99.9999 0C64.5429 0 33.3983 18.4543 15.6421 46.2809L151.251 185.879C180.448 168.417 200 136.493 200 100C200 44.7719 155.228 0 99.9999 0Z" fill="#FFDA44"/>
<path d="M200 100C200 74.0539 190.118 50.4179 173.913 32.6453V167.355C190.118 149.582 200 125.946 200 100Z" fill="#0052B4"/>
<path d="M124.918 188.232L135.392 188.225L138.623 178.261L141.866 188.221L147.12 188.218C150.342 186.493 153.458 184.598 156.456 182.543L17.4566 43.5433C15.166 46.8855 13.077 50.3754 11.1984 53.9926L12.4336 57.7863L22.9082 57.7797L14.4379 63.9418L17.6809 73.9023L9.20273 67.7508L4.14609 71.4289C1.45039 80.482 0 90.0715 0 100C0 155.228 44.7719 200 100 200C111.677 200 122.884 197.995 133.301 194.316L124.918 188.232ZM22.3043 95.6523L25.5348 85.6883L17.0574 79.5359L27.532 79.5293L30.7629 69.5648L34.0059 79.5254L44.4805 79.5187L36.0098 85.6808L39.2527 95.6414L30.7746 89.4898L22.3043 95.6523ZM43.8766 117.391L47.107 107.427L38.6297 101.275L49.1043 101.268L52.3352 91.3039L55.5781 101.264L66.0527 101.258L57.5824 107.42L60.8254 117.38L52.3473 111.229L43.8766 117.391ZM65.4484 139.13L68.6789 129.166L60.2016 123.014L70.6762 123.007L73.907 113.043L77.15 123.003L87.6246 122.997L79.1543 129.159L82.3973 139.119L73.9191 132.967L65.4484 139.13ZM95.491 154.707L87.0203 160.869L90.2508 150.905L81.7734 144.753L92.248 144.746L95.4793 134.782L98.7223 144.743L109.197 144.736L100.727 150.898L103.97 160.859L95.491 154.707ZM108.593 182.609L111.823 172.645L103.346 166.492L113.82 166.486L117.051 156.521L120.294 166.482L130.769 166.475L122.298 172.637L125.541 182.598L117.063 176.445L108.593 182.609Z" fill="#0052B4"/>
</g>
<path d="M0.5 100C0.5 45.0477 45.0477 0.5 100 0.5C154.952 0.5 199.5 45.0477 199.5 100C199.5 154.952 154.952 199.5 100 199.5C45.0477 199.5 0.5 154.952 0.5 100Z" stroke="#EAEBEE"/>
<defs>
<clipPath id="clip0_67_7651">
<path d="M0 100C0 44.7715 44.7715 0 100 0C155.228 0 200 44.7715 200 100C200 155.228 155.228 200 100 200C44.7715 200 0 155.228 0 100Z" fill="white"/>
</clipPath>
</defs>
</svg>
