<svg width="200" height="200" viewBox="0 0 200 200" fill="none" xmlns="http://www.w3.org/2000/svg">
<g clip-path="url(#clip0_67_7657)">
<path d="M4.72188 69.5648C1.65859 79.1621 -0.000390556 89.3859 6.89667e-08 99.9996C-0.000390556 110.612 1.65859 120.837 4.72227 130.434L100 134.783L195.277 130.434C198.34 120.837 200 110.612 200 100C200 89.3867 198.341 79.1621 195.277 69.5648L99.9996 65.2172L4.72188 69.5648Z" fill="white"/>
<path d="M200 99.9999C200 94.0675 199.48 88.2566 198.489 82.6082H1.51094C0.519531 88.2566 0 94.0667 0 99.9996C0 105.932 0.519922 111.743 1.51094 117.391H198.489C199.48 111.742 200 105.932 200 99.9999Z" fill="black"/>
<path d="M99.9999 200C144.616 200 182.401 170.78 195.277 130.434H4.72217C17.5991 170.779 55.3847 199.999 99.9999 200Z" fill="#338AF3"/>
<path d="M100 0.000244156C55.3851 0.000244156 17.5999 29.2202 4.72217 69.5647L195.277 69.5651C182.401 29.2202 144.615 -0.000537094 100 0.000244156Z" fill="#338AF3"/>
</g>
<path d="M0.5 100C0.5 45.0477 45.0477 0.5 100 0.5C154.952 0.5 199.5 45.0477 199.5 100C199.5 154.952 154.952 199.5 100 199.5C45.0477 199.5 0.5 154.952 0.5 100Z" stroke="#EAEBEE"/>
<defs>
<clipPath id="clip0_67_7657">
<path d="M0 100C0 44.7715 44.7715 0 100 0C155.228 0 200 44.7715 200 100C200 155.228 155.228 200 100 200C44.7715 200 0 155.228 0 100Z" fill="white"/>
</clipPath>
</defs>
</svg>
