<svg width="200" height="200" viewBox="0 0 200 200" fill="none" xmlns="http://www.w3.org/2000/svg">
<g clip-path="url(#clip0_67_7663)">
<path d="M100 200C155.228 200 200 155.228 200 100C200 44.7715 155.228 0 100 0C44.7715 0 0 44.7715 0 100C0 155.228 44.7715 200 100 200Z" fill="#6DA544"/>
<path d="M100 39.1305L182.609 100L100 160.87L17.3916 100L100 39.1305Z" fill="#FFDA44"/>
<path d="M100 134.782C119.21 134.782 134.783 119.21 134.783 100C134.783 80.7902 119.21 65.2175 100 65.2175C80.7904 65.2175 65.2178 80.7902 65.2178 100C65.2178 119.21 80.7904 134.782 100 134.782Z" fill="white"/>
<path d="M82.6086 97.8262C76.5602 97.8262 70.723 98.7461 65.2285 100.453C65.4719 119.453 80.9422 134.783 100 134.783C111.784 134.783 122.192 128.917 128.484 119.952C117.72 106.476 101.157 97.8262 82.6086 97.8262Z" fill="#0052B4"/>
<path d="M134.138 106.664C134.557 104.506 134.783 102.28 134.783 100C134.783 80.7898 119.21 65.2175 100 65.2175C85.6668 65.2175 73.3621 73.8898 68.0371 86.2718C72.7441 85.2964 77.6176 84.7828 82.6094 84.7828C102.811 84.7824 121.087 93.18 134.138 106.664Z" fill="#0052B4"/>
</g>
<path d="M0.5 100C0.5 45.0477 45.0477 0.5 100 0.5C154.952 0.5 199.5 45.0477 199.5 100C199.5 154.952 154.952 199.5 100 199.5C45.0477 199.5 0.5 154.952 0.5 100Z" stroke="#EAEBEE"/>
<defs>
<clipPath id="clip0_67_7663">
<path d="M0 100C0 44.7715 44.7715 0 100 0C155.228 0 200 44.7715 200 100C200 155.228 155.228 200 100 200C44.7715 200 0 155.228 0 100Z" fill="white"/>
</clipPath>
</defs>
</svg>
