<svg width="200" height="200" viewBox="0 0 200 200" fill="none" xmlns="http://www.w3.org/2000/svg">
<g clip-path="url(#clip0_67_7670)">
<path d="M0 100C0 44.7719 44.7719 0 100 0C155.228 0 200 44.7719 200 100H0Z" fill="white"/>
<path d="M73.9131 94.5332L68.4463 100H73.9131V94.5332Z" fill="#0052B4"/>
<path d="M126.087 94.5336V100H131.553L126.087 94.5336Z" fill="#0052B4"/>
<path d="M2.88516 76.0875C1.0043 83.75 0 91.7574 0 100H31.5535L55.466 76.0875H2.88516Z" fill="#0052B4"/>
<path d="M144.533 76.0875L168.446 100H200C200 91.7574 198.995 83.75 197.115 76.0875H144.533Z" fill="#0052B4"/>
<path d="M138.384 76.0875H126.087L149.999 100H162.297L138.384 76.0875Z" fill="#D80027"/>
<path d="M73.9128 88.384V76.0875H73.912L49.9995 100H62.2972L73.9128 88.384Z" fill="#D80027"/>
<path d="M46.8446 15.2898C42.7228 17.882 38.8036 20.7656 35.1157 23.9128H55.4673L46.8446 15.2898Z" fill="#0052B4"/>
<path d="M164.884 23.9128C161.197 20.7652 157.278 17.8816 153.156 15.2898L144.534 23.9128H164.884Z" fill="#0052B4"/>
<path d="M113.043 63.0434H192.946C189.165 53.5438 183.969 44.7633 177.62 36.9562H113.044H113.043V0.846484C108.774 0.290625 104.421 0 99.9999 0C95.5784 0 91.2261 0.290625 86.9565 0.846484V36.9559V36.9562H22.3796C16.0308 44.7633 10.8347 53.5438 7.0542 63.0434H86.9558H86.9562V100H113.043V63.0438V63.0434Z" fill="#D80027"/>
<path d="M73.9127 23.9129V23.9125L58.8373 8.83716C56.0502 10.0977 53.3338 11.4864 50.6904 12.9875L61.6158 23.9129H73.9127Z" fill="#D80027"/>
<path d="M126.087 23.9129L141.163 8.8375C138.295 7.54102 135.355 6.37852 132.351 5.35156L126.087 11.616V23.9129Z" fill="#D80027"/>
<path d="M200 100C200 155.228 155.228 200 100 200C44.7719 200 0 155.228 0 100H200Z" fill="white"/>
<path d="M183.332 112.754C174.999 112.754 174.999 105.134 166.665 105.134C158.332 105.134 158.332 112.754 149.999 112.754C141.666 112.754 141.666 105.134 133.333 105.134C125 105.134 125 112.754 116.666 112.754C108.333 112.754 108.332 105.134 99.9982 105.134C91.665 105.134 91.665 112.754 83.3322 112.754C75.0002 112.754 75.0002 105.134 66.667 105.134C58.333 105.134 58.333 112.754 49.999 112.754C41.665 112.754 41.665 105.134 33.3311 105.134C24.999 105.134 24.999 112.754 16.6658 112.754C8.37754 112.754 8.32949 105.218 0.129883 105.138C0.360742 109.712 0.906836 114.203 1.73262 118.594C8.3748 119.57 8.95645 126.087 16.6662 126.087C24.9994 126.087 24.9994 118.468 33.3314 118.468C41.6654 118.468 41.6654 126.087 49.9994 126.087C58.3334 126.087 58.3334 118.468 66.6674 118.468C75.0006 118.468 75.0006 126.087 83.3326 126.087C91.6658 126.087 91.6658 118.468 99.9986 118.468C108.333 118.468 108.333 126.087 116.667 126.087C125.001 126.087 125.001 118.468 133.333 118.468C141.667 118.468 141.667 126.087 149.999 126.087C158.332 126.087 158.333 118.468 166.665 118.468C174.999 118.468 174.999 126.087 183.332 126.087C191.043 126.087 191.624 119.571 198.267 118.595C199.093 114.203 199.638 109.713 199.871 105.138C191.669 105.219 191.62 112.754 183.332 112.754Z" fill="#0052B4"/>
<path d="M166.665 131.222C158.332 131.222 158.332 138.841 149.999 138.841C141.666 138.841 141.666 131.222 133.333 131.222C125 131.222 125 138.841 116.666 138.841C108.332 138.841 108.332 131.222 99.9982 131.222C91.665 131.222 91.665 138.841 83.3322 138.841C75.0002 138.841 75.0002 131.222 66.667 131.222C58.333 131.222 58.333 138.841 49.999 138.841C41.665 138.841 41.665 131.222 33.3311 131.222C24.999 131.222 24.999 138.841 16.6658 138.841C10.7115 138.841 9.01074 134.952 5.48535 132.73C7.83223 139.511 10.8854 145.961 14.5623 151.991C15.2018 152.109 15.8979 152.174 16.6658 152.174C24.999 152.174 24.999 144.556 33.3311 144.556C41.665 144.556 41.665 152.174 49.999 152.174C58.333 152.174 58.333 144.556 66.667 144.556C75.0002 144.556 75.0002 152.174 83.3322 152.174C91.6654 152.174 91.6654 144.556 99.9982 144.556C108.332 144.556 108.332 152.174 116.666 152.174C125 152.174 125 144.556 133.333 144.556C141.666 144.556 141.666 152.174 149.999 152.174C158.332 152.174 158.332 144.556 166.665 144.556C174.999 144.556 174.999 152.174 183.332 152.174C184.1 152.174 184.797 152.109 185.436 151.991C189.113 145.961 192.166 139.511 194.514 132.731C190.988 134.951 189.287 138.841 183.332 138.841C174.999 138.841 174.999 131.222 166.665 131.222Z" fill="#0052B4"/>
<path d="M199.946 96.858C199.955 97.1358 199.965 97.4135 199.971 97.6924C199.965 97.4139 199.954 97.1358 199.946 96.858Z" fill="white"/>
<path d="M0.0292969 97.6922C0.0359375 97.4136 0.0453125 97.1359 0.0539062 96.8578C0.0457031 97.1359 0.0355469 97.414 0.0292969 97.6922Z" fill="white"/>
<path d="M0 100C0 99.2285 0.0117188 98.4601 0.0292969 97.6921C0.0113281 98.4601 0 99.2285 0 100Z" fill="white"/>
<path d="M0 100C0 101.821 0.0515625 103.631 0.148828 105.429C8.32969 105.52 8.38398 113.043 16.6664 113.043C24.9996 113.043 24.9996 105.425 33.3316 105.425C41.6656 105.425 41.6656 113.043 49.9996 113.043C58.3336 113.043 58.3336 105.425 66.6676 105.425C75.0008 105.425 75.0008 113.043 83.3328 113.043C91.666 113.043 91.666 105.425 99.9988 105.425C108.333 105.425 108.333 113.043 116.667 113.043C125.001 113.043 125.001 105.425 133.334 105.425C141.667 105.425 141.667 113.043 150 113.043C158.332 113.043 158.333 105.425 166.666 105.425C175 105.425 175 113.043 183.332 113.043C191.616 113.043 191.67 105.52 199.852 105.429C199.948 103.631 200 101.821 200 100H0Z" fill="white"/>
<path d="M199.971 97.6921C199.988 98.4593 200 99.2281 200 100C200 99.2285 199.989 98.4601 199.971 97.6921Z" fill="white"/>
<path d="M166.665 157.308C158.332 157.308 158.332 164.928 149.999 164.928C141.666 164.928 141.666 157.308 133.333 157.308C125 157.308 125 164.928 116.666 164.928C108.332 164.928 108.332 157.308 99.9984 157.308C91.6652 157.308 91.6652 164.928 83.3324 164.928C75.0004 164.928 75.0004 157.308 66.6672 157.308C58.3332 157.308 58.3332 164.928 49.9992 164.928C41.6652 164.928 41.6652 157.308 33.3313 157.308C27.5758 157.308 25.7949 160.943 22.498 163.191C31.2437 173.905 42.1695 182.766 54.5934 189.11L100 186.823L145.406 189.11C157.83 182.765 168.755 173.905 177.501 163.192C174.203 160.943 172.422 157.308 166.665 157.308Z" fill="#0052B4"/>
<path d="M155.462 159.693L125.042 165.511L121.188 134.783L99.9999 157.382L78.8124 134.782L74.9569 165.511L44.5386 159.693L59.4562 186.822L54.5843 189.114C68.2124 196.074 83.6472 200 99.9999 200C116.353 200 131.787 196.074 145.416 189.114L140.546 186.823L155.462 159.693Z" fill="#FFDA44"/>
</g>
<path d="M0.5 100C0.5 45.0477 45.0477 0.5 100 0.5C154.952 0.5 199.5 45.0477 199.5 100C199.5 154.952 154.952 199.5 100 199.5C45.0477 199.5 0.5 154.952 0.5 100Z" stroke="#EAEBEE"/>
<defs>
<clipPath id="clip0_67_7670">
<path d="M0 100C0 44.7715 44.7715 0 100 0C155.228 0 200 44.7715 200 100C200 155.228 155.228 200 100 200C44.7715 200 0 155.228 0 100Z" fill="white"/>
</clipPath>
</defs>
</svg>
