<svg width="200" height="200" viewBox="0 0 200 200" fill="none" xmlns="http://www.w3.org/2000/svg">
<g clip-path="url(#clip0_67_7699)">
<path d="M100 200C155.228 200 200 155.228 200 100C200 44.7715 155.228 0 100 0C44.7715 0 0 44.7715 0 100C0 155.228 44.7715 200 100 200Z" fill="white"/>
<path d="M183.332 111.968C174.999 111.968 174.999 104.348 166.665 104.348C158.332 104.348 158.332 111.968 149.999 111.968C141.666 111.968 141.666 104.348 133.333 104.348C125 104.348 125 111.968 116.666 111.968C108.333 111.968 108.332 104.348 99.9982 104.348C91.665 104.348 91.665 111.968 83.3322 111.968C75.0002 111.968 75.0002 104.348 66.667 104.348C58.333 104.348 58.333 111.968 49.999 111.968C41.665 111.968 41.665 104.348 33.3311 104.348C24.999 104.348 24.999 111.968 16.6658 111.968C8.37754 111.968 8.32949 104.432 0.129883 104.352C0.360742 108.925 0.906836 113.416 1.73262 117.808C8.3748 118.784 8.95644 125.3 16.6666 125.3C24.9998 125.3 24.9998 117.682 33.3318 117.682C41.6658 117.682 41.6658 125.3 49.9998 125.3C58.3338 125.3 58.3338 117.682 66.6678 117.682C75.001 117.682 75.001 125.3 83.333 125.3C91.6662 125.3 91.6662 117.682 99.999 117.682C108.333 117.682 108.333 125.3 116.667 125.3C125.001 125.3 125.001 117.682 133.334 117.682C141.667 117.682 141.667 125.3 150 125.3C158.333 125.3 158.333 117.682 166.666 117.682C175 117.682 175 125.3 183.333 125.3C191.043 125.3 191.625 118.784 198.267 117.808C199.094 113.416 199.639 108.926 199.871 104.352C191.669 104.432 191.62 111.968 183.332 111.968Z" fill="#0052B4"/>
<path d="M166.665 130.435C158.332 130.435 158.332 138.054 149.999 138.054C141.666 138.054 141.666 130.435 133.333 130.435C125 130.435 125 138.054 116.666 138.054C108.332 138.054 108.332 130.435 99.9982 130.435C91.665 130.435 91.665 138.054 83.3322 138.054C75.0002 138.054 75.0002 130.435 66.667 130.435C58.333 130.435 58.333 138.054 49.999 138.054C41.665 138.054 41.665 130.435 33.3311 130.435C24.999 130.435 24.999 138.054 16.6658 138.054C10.5271 138.054 8.90645 133.922 5.14746 131.746C7.42402 138.55 10.4143 145.026 14.0256 151.09C14.8076 151.279 15.6771 151.388 16.6654 151.388C24.9986 151.388 24.9986 143.769 33.3307 143.769C41.6646 143.769 41.6646 151.388 49.9986 151.388C58.3326 151.388 58.3326 143.769 66.6666 143.769C74.9998 143.769 74.9998 151.388 83.3318 151.388C91.665 151.388 91.665 143.769 99.9978 143.769C108.332 143.769 108.332 151.388 116.666 151.388C125 151.388 125 143.769 133.333 143.769C141.666 143.769 141.666 151.388 149.999 151.388C158.331 151.388 158.332 143.769 166.665 143.769C174.999 143.769 174.999 151.388 183.331 151.388C184.321 151.388 185.191 151.279 185.973 151.09C189.585 145.026 192.575 138.55 194.851 131.746C191.092 133.923 189.471 138.055 183.331 138.055C174.999 138.054 174.999 130.435 166.665 130.435Z" fill="#0052B4"/>
<path d="M197.673 78.4926C191.582 79.7571 190.805 85.8805 183.332 85.8805C174.999 85.8805 174.999 78.261 166.665 78.261C158.332 78.261 158.332 85.8805 149.999 85.8805C141.666 85.8805 141.666 78.261 133.333 78.261C125 78.261 125 85.8805 116.666 85.8805C108.333 85.8805 108.332 78.261 99.9982 78.261C95.4955 78.261 93.4252 80.4852 91.1592 82.5305V95.8637C93.4252 93.8188 95.4951 91.595 99.9982 91.595C108.332 91.595 108.332 99.2137 116.666 99.2137C125 99.2137 125 91.595 133.333 91.595C141.666 91.595 141.666 99.2137 149.999 99.2137C158.332 99.2137 158.332 91.595 166.665 91.595C174.999 91.595 174.999 99.2137 183.332 99.2137C191.042 99.2137 191.624 92.6973 198.267 91.7215C198.692 91.7215 199.168 91.7172 199.655 91.7114C199.286 87.2141 198.618 82.8016 197.673 78.4926Z" fill="#0052B4"/>
<path d="M190.369 57.1383C188.642 58.5887 186.646 59.7934 183.332 59.7934C174.999 59.7934 174.999 52.1738 166.666 52.1738C158.332 52.1738 158.332 59.7934 150 59.7934C141.667 59.7934 141.666 52.1738 133.333 52.1738C125 52.1738 125 59.7934 116.667 59.7934C108.333 59.7934 108.333 52.1738 99.9987 52.1738C95.496 52.1738 93.4257 54.398 91.1597 56.4434V69.7766C93.4257 67.7316 95.4956 65.5078 99.9987 65.5078C108.333 65.5078 108.333 73.1266 116.667 73.1266C125 73.1266 125 65.5078 133.333 65.5078C141.666 65.5078 141.666 73.1266 149.999 73.1266C158.332 73.1266 158.332 65.5078 166.665 65.5078C174.999 65.5078 174.999 73.1266 183.332 73.1266C189.245 73.1266 190.967 69.2965 194.444 67.0691C193.259 63.6719 191.898 60.3574 190.369 57.1383Z" fill="#0052B4"/>
<path d="M167.377 26.1075C167.145 26.095 166.91 26.0872 166.665 26.0872C158.332 26.0872 158.332 33.7067 149.999 33.7067C141.666 33.7067 141.666 26.0872 133.333 26.0872C125 26.0872 125 33.7067 116.666 33.7067C108.332 33.7067 108.332 26.0872 99.9978 26.0872C95.495 26.0872 93.4247 28.3114 91.1587 30.3567V43.6899C93.4247 41.645 95.4946 39.4211 99.9978 39.4211C108.332 39.4211 108.332 47.0399 116.666 47.0399C125 47.0399 125 39.4211 133.333 39.4211C141.666 39.4211 141.666 47.0399 149.999 47.0399C158.331 47.0399 158.332 39.4211 166.665 39.4211C174.999 39.4211 174.999 47.0399 183.331 47.0399C183.845 47.0399 184.324 47.0094 184.778 46.9551C179.938 39.2348 174.077 32.2204 167.377 26.1075Z" fill="#0052B4"/>
<path d="M125.559 3.30229C123.272 5.36011 121.205 7.62026 116.666 7.62026C108.332 7.62026 108.332 0.00151367 99.9984 0.000732422H99.9969C95.6875 0.00112305 93.607 2.03901 91.4492 4.00737V17.341C93.6066 15.3726 95.6879 13.3343 99.9984 13.3343C108.332 13.3343 108.332 20.9531 116.666 20.9531C125 20.9531 125 13.3343 133.333 13.3343C141.666 13.3343 141.666 20.9531 149.999 20.9531C153.496 20.9531 155.524 19.6109 157.318 18.0539C147.811 11.3917 137.093 6.34253 125.559 3.30229Z" fill="#0052B4"/>
<path d="M116.666 190.228C108.332 190.228 108.332 182.609 99.9978 182.609C91.6646 182.609 91.6646 190.228 83.3318 190.228C74.9998 190.228 74.9998 182.609 66.6666 182.609C60.2834 182.609 58.7861 187.075 54.6924 189.168C65.9814 194.916 78.5076 198.579 91.7654 199.66C93.8158 197.787 95.8986 195.942 99.9978 195.942C104.098 195.942 106.181 197.787 108.232 199.661C121.49 198.58 134.017 194.916 145.306 189.168C141.212 187.076 139.715 182.608 133.333 182.608C125 182.609 125 190.228 116.666 190.228Z" fill="#0052B4"/>
<path d="M149.999 164.141C141.666 164.141 141.666 156.522 133.333 156.522C125 156.522 125 164.141 116.666 164.141C108.332 164.141 108.332 156.522 99.9983 156.522C91.6651 156.522 91.6651 164.141 83.3323 164.141C75.0003 164.141 75.0003 156.522 66.6671 156.522C58.3331 156.522 58.3331 164.141 49.9991 164.141C41.6651 164.141 41.6651 156.522 33.3312 156.522C27.3386 156.522 25.6558 160.463 22.0835 162.676C24.3226 165.457 26.703 168.118 29.2222 170.642C30.3507 170.16 31.6749 169.855 33.3308 169.855C41.6647 169.855 41.6647 177.474 49.9987 177.474C58.3327 177.474 58.3327 169.855 66.6667 169.855C74.9999 169.855 74.9999 177.474 83.3319 177.474C91.6651 177.474 91.6651 169.855 99.9979 169.855C108.332 169.855 108.332 177.474 116.666 177.474C125 177.474 125 169.855 133.333 169.855C141.666 169.855 141.666 177.474 149.999 177.474C158.332 177.474 158.332 169.855 166.665 169.855C168.323 169.855 169.647 170.16 170.776 170.643C173.296 168.119 175.676 165.457 177.915 162.677C174.342 160.464 172.66 156.522 166.665 156.522C158.332 156.522 158.332 164.141 149.999 164.141Z" fill="#0052B4"/>
<path d="M99.7324 100H100C100 99.9102 100 99.8227 100 99.7324C99.9109 99.8219 99.8219 99.9109 99.7324 100Z" fill="white"/>
<path d="M100 52.1738V81.5539L65.2178 47.8262L100 52.1738Z" fill="#0052B4"/>
<path d="M52.1742 100H81.5531L52.1738 60.8695L47.8262 91.3043L52.1742 100Z" fill="#0052B4"/>
<path d="M100 52.1738C100 34.5781 100 23.0488 100 0H99.9832C44.7625 0.009375 0 44.777 0 100H52.1742V70.6207L81.5531 100H99.7328C99.8219 99.9109 99.9109 99.8219 100 99.7324C100 92.9953 100 86.984 100 81.5539L70.6203 52.1738H100Z" fill="white"/>
<path d="M50.5919 13.0433C34.9517 21.9492 21.9493 34.9515 13.0435 50.5918V100H39.1306V39.1312V39.1304H100C100 30.9027 100 23.0644 100 13.0433H50.5919Z" fill="#D80027"/>
<path d="M100 87.7027L64.4707 52.1742H52.1738V52.175L99.9992 100H100C100 100 100 91.5207 100 87.7027Z" fill="#D80027"/>
<path d="M130.435 52.1738H169.565L150 71.7391L130.435 52.1738Z" fill="#6DA544"/>
<path d="M145.652 67.3914H154.348V91.3042H145.652V67.3914Z" fill="#A2001D"/>
<path d="M145.652 130.435H154.348V154.348H145.652V130.435Z" fill="#A2001D"/>
<path d="M176.087 117.391C176.087 110.188 170.247 104.348 163.044 104.348C159.702 104.348 156.656 105.606 154.348 107.672V100H158.696V91.3043H154.348V86.9567H145.652V91.3043H141.304V100H145.652V107.672C143.344 105.606 140.298 104.348 136.956 104.348C129.753 104.348 123.913 110.188 123.913 117.391C123.913 121.254 125.593 124.722 128.261 127.111V134.783H171.739V127.111C174.407 124.722 176.087 121.254 176.087 117.391Z" fill="#FFDA44"/>
<path d="M163.043 113.043C161.672 113.043 160.712 113.646 160.147 114.15L154.348 119.342H145.652L139.853 114.15C139.288 113.646 138.328 113.043 136.957 113.043C134.559 113.043 132.609 114.994 132.609 117.391C132.609 119.08 133.519 120.146 134.062 120.633L136.957 123.225V126.087H163.044V123.225L165.939 120.633C166.482 120.147 167.392 119.08 167.392 117.391C167.391 114.994 165.441 113.043 163.043 113.043Z" fill="#D80027"/>
</g>
<path d="M0.5 100C0.5 45.0477 45.0477 0.5 100 0.5C154.952 0.5 199.5 45.0477 199.5 100C199.5 154.952 154.952 199.5 100 199.5C45.0477 199.5 0.5 154.952 0.5 100Z" stroke="#EAEBEE"/>
<defs>
<clipPath id="clip0_67_7699">
<path d="M0 100C0 44.7715 44.7715 0 100 0C155.228 0 200 44.7715 200 100C200 155.228 155.228 200 100 200C44.7715 200 0 155.228 0 100Z" fill="white"/>
</clipPath>
</defs>
</svg>
