<svg width="200" height="200" viewBox="0 0 200 200" fill="none" xmlns="http://www.w3.org/2000/svg">
<g clip-path="url(#clip0_67_7728)">
<path d="M200 100C200 155.228 155.228 200 100 200C44.7719 200 0 155.228 0 100C0 100.024 100 0.0109375 100 0C155.228 0 200 44.7719 200 100Z" fill="#0052B4"/>
<path d="M99.7324 100H100C100 99.9102 100 99.8227 100 99.7324C99.9109 99.8219 99.8219 99.9109 99.7324 100Z" fill="white"/>
<path d="M100 52.1738C100 34.5781 100 23.0488 100 0H99.9832C44.7621 0.009375 0 44.777 0 100H52.1738V70.6207L81.5531 100H99.7328C99.8219 99.9109 99.9109 99.8219 100 99.7324C100 92.9953 100 86.984 100 81.5539L70.6203 52.1738H100Z" fill="white"/>
<path d="M50.5919 13.0433C34.9517 21.9492 21.9489 34.9515 13.0435 50.5918V100H39.1306V39.1312V39.1304H100C100 30.9027 100 23.0644 100 13.0433H50.5919Z" fill="#D80027"/>
<path d="M143.478 100L116.45 127.029C121.515 136.798 131.714 143.478 143.478 143.478C155.243 143.478 165.441 136.798 170.507 127.029L143.478 100Z" fill="#FFDA44"/>
<path d="M100 87.7027L64.4707 52.1742H52.1738V52.175L99.9992 100H100C100 100 100 91.5207 100 87.7027Z" fill="#D80027"/>
<path d="M113.043 52.1738V99.9996V100C113.044 123.296 143.478 130.435 143.478 130.435C143.478 130.435 173.913 123.296 173.913 100V99.9996V52.1738H113.043Z" fill="#6DA544"/>
<path d="M136.957 73.9128H150V108.695H136.957V73.9128Z" fill="white"/>
<path d="M143.478 80.4347C147.08 80.4347 150 77.5148 150 73.9129C150 70.3109 147.08 67.391 143.478 67.391C139.876 67.391 136.956 70.3109 136.956 73.9129C136.956 77.5148 139.876 80.4347 143.478 80.4347Z" fill="#A2001D"/>
<path d="M121.739 60.8695H130.435V69.5652H121.739V60.8695Z" fill="#FFDA44"/>
<path d="M121.739 80.4347H130.435V89.1304H121.739V80.4347Z" fill="#FFDA44"/>
<path d="M121.739 100H130.435V108.696H121.739V100Z" fill="#FFDA44"/>
<path d="M156.522 60.8695H165.218V69.5652H156.522V60.8695Z" fill="#FFDA44"/>
<path d="M156.522 80.4347H165.218V89.1304H156.522V80.4347Z" fill="#FFDA44"/>
<path d="M156.522 100H165.218V108.696H156.522V100Z" fill="#FFDA44"/>
</g>
<path d="M0.5 100C0.5 45.0477 45.0477 0.5 100 0.5C154.952 0.5 199.5 45.0477 199.5 100C199.5 154.952 154.952 199.5 100 199.5C45.0477 199.5 0.5 154.952 0.5 100Z" stroke="#EAEBEE"/>
<defs>
<clipPath id="clip0_67_7728">
<path d="M0 100C0 44.7715 44.7715 0 100 0C155.228 0 200 44.7715 200 100C200 155.228 155.228 200 100 200C44.7715 200 0 155.228 0 100Z" fill="white"/>
</clipPath>
</defs>
</svg>
