<svg width="200" height="200" viewBox="0 0 200 200" fill="none" xmlns="http://www.w3.org/2000/svg">
<g clip-path="url(#clip0_67_7750)">
<path d="M100.001 199.986C155.221 199.986 199.986 155.221 199.986 100.001C199.986 44.7802 155.221 0.0152588 100.001 0.0152588C44.7806 0.0152588 0.015625 44.7802 0.015625 100.001C0.015625 155.221 44.7806 199.986 100.001 199.986Z" fill="white"/>
<path d="M13.4104 50.0073C8.89739 57.8231 5.56841 65.9944 3.35156 74.3176L170.565 170.859C176.665 164.777 182.078 157.808 186.589 149.993L13.4104 50.0073Z" fill="black"/>
<path d="M149.993 13.41C109.986 -9.68773 60.6567 -1.98951 29.4346 29.1408L196.648 125.682C207.997 83.0783 189.999 36.5082 149.993 13.41Z" fill="#FFDA44"/>
<path d="M50.0079 186.59C90.0142 209.688 139.345 201.99 170.566 170.86L3.35182 74.3176C-7.99648 116.922 10.0008 163.492 50.0079 186.59Z" fill="#FFDA44"/>
<path d="M128.257 89.132C128.257 104.737 115.606 117.389 100 117.389C84.3945 117.389 71.7435 104.738 71.7435 89.132C71.7435 84.2663 72.9736 79.6877 75.1401 75.6903C69.0083 81.9611 65.2227 90.5363 65.2227 99.9998C65.2227 119.207 80.7929 134.778 100 134.778C119.208 134.778 134.778 119.207 134.778 99.9998C134.778 90.5363 130.993 81.9611 124.861 75.6903C127.027 79.6884 128.257 84.2663 128.257 89.132Z" fill="#D80027"/>
<path d="M93.4805 56.5286H106.522V121.737H93.4805V56.5286Z" fill="#D80027"/>
<path d="M121.736 69.5698H78.2646C78.2646 72.5711 80.8792 75.0039 83.88 75.0039H83.6988C83.6988 78.0052 86.132 80.438 89.1329 80.438C89.1329 83.4393 91.5661 85.8721 94.567 85.8721H105.435C108.436 85.8721 110.869 83.4393 110.869 80.438C113.87 80.438 116.303 78.0052 116.303 75.0039H116.122C119.122 75.0035 121.736 72.5715 121.736 69.5698Z" fill="#D80027"/>
<path d="M69.5708 126.084H130.431V139.125H69.5708V126.084Z" fill="#D80027"/>
<path d="M113.042 130.431H139.125V143.473H113.042V130.431Z" fill="#D80027"/>
<path d="M60.8765 130.431H86.9594V143.473H60.8765V130.431Z" fill="#D80027"/>
</g>
<path d="M0.5 100C0.5 45.0477 45.0477 0.5 100 0.5C154.952 0.5 199.5 45.0477 199.5 100C199.5 154.952 154.952 199.5 100 199.5C45.0477 199.5 0.5 154.952 0.5 100Z" stroke="#EAEBEE"/>
<defs>
<clipPath id="clip0_67_7750">
<path d="M0 100C0 44.7715 44.7715 0 100 0C155.228 0 200 44.7715 200 100C200 155.228 155.228 200 100 200C44.7715 200 0 155.228 0 100Z" fill="white"/>
</clipPath>
</defs>
</svg>
