<svg width="200" height="200" viewBox="0 0 200 200" fill="none" xmlns="http://www.w3.org/2000/svg">
<g clip-path="url(#clip0_67_7767)">
<path d="M0 100C0 44.7719 44.7719 0 100 0C155.228 0 200 44.7719 200 100C195.652 100 100 113.043 100 113.043L0 100Z" fill="#D80027"/>
<path d="M200 100C200 155.228 155.228 200 100 200C44.7719 200 0 155.228 0 100" fill="#6DA544"/>
<path d="M99.9997 65.2175L107.553 88.4668H132.001L112.223 102.836L119.777 126.087L99.9997 111.718L80.222 126.087L87.777 102.836L67.9985 88.4668H92.4454L99.9997 65.2175Z" fill="#FFDA44"/>
</g>
<path d="M0.5 100C0.5 45.0477 45.0477 0.5 100 0.5C154.952 0.5 199.5 45.0477 199.5 100C199.5 154.952 154.952 199.5 100 199.5C45.0477 199.5 0.5 154.952 0.5 100Z" stroke="#EAEBEE"/>
<defs>
<clipPath id="clip0_67_7767">
<path d="M0 100C0 44.7715 44.7715 0 100 0C155.228 0 200 44.7715 200 100C200 155.228 155.228 200 100 200C44.7715 200 0 155.228 0 100Z" fill="white"/>
</clipPath>
</defs>
</svg>
