<svg width="200" height="200" viewBox="0 0 200 200" fill="none" xmlns="http://www.w3.org/2000/svg">
<g clip-path="url(#clip0_67_7771)">
<path d="M100 200C155.228 200 200 155.228 200 100C200 44.7715 155.228 0 100 0C44.7715 0 0 44.7715 0 100C0 155.228 44.7715 200 100 200Z" fill="white"/>
<path d="M160.889 20.6649C125.088 -6.88433 74.9125 -6.88433 39.1109 20.6645L100 81.5536L160.889 20.6649Z" fill="#D80027"/>
<path d="M99.9992 118.447L39.1109 179.335C74.9125 206.884 125.088 206.884 160.889 179.335L100 118.446L99.9992 118.447Z" fill="#D80027"/>
<path d="M81.5535 100L20.6648 39.111C-6.88437 74.9125 -6.88437 125.088 20.6648 160.889L81.5535 100Z" fill="#6DA544"/>
<path d="M118.447 100L179.335 160.889C206.884 125.088 206.884 74.9125 179.335 39.111L118.447 100Z" fill="#6DA544"/>
<path d="M100 143.478C124.012 143.478 143.478 124.012 143.478 100C143.478 75.9877 124.012 56.5219 100 56.5219C75.9877 56.5219 56.5219 75.9877 56.5219 100C56.5219 124.012 75.9877 143.478 100 143.478Z" fill="white"/>
<path d="M100 69.5652L103.765 76.0871H111.296L107.53 82.6085L111.296 89.1304H103.765L100 95.6523L96.2348 89.1304H88.7043L92.4695 82.6085L88.7043 76.0871H96.2348L100 69.5652Z" fill="#D80027"/>
<path d="M80.8613 100L84.6266 106.522H92.157L88.3918 113.043L92.157 119.565H84.6266L80.8613 126.087L77.0957 119.565H69.5652L73.3305 113.043L69.5652 106.522H77.0957L80.8613 100Z" fill="#D80027"/>
<path d="M119.139 100L122.904 106.522H130.435L126.67 113.043L130.435 119.565H122.904L119.139 126.087L115.373 119.565H107.843L111.608 113.043L107.843 106.522H115.373L119.139 100Z" fill="#D80027"/>
</g>
<path d="M0.5 100C0.5 45.0477 45.0477 0.5 100 0.5C154.952 0.5 199.5 45.0477 199.5 100C199.5 154.952 154.952 199.5 100 199.5C45.0477 199.5 0.5 154.952 0.5 100Z" stroke="#EAEBEE"/>
<defs>
<clipPath id="clip0_67_7771">
<path d="M0 100C0 44.7715 44.7715 0 100 0C155.228 0 200 44.7715 200 100C200 155.228 155.228 200 100 200C44.7715 200 0 155.228 0 100Z" fill="white"/>
</clipPath>
</defs>
</svg>
