<svg width="200" height="200" viewBox="0 0 200 200" fill="none" xmlns="http://www.w3.org/2000/svg">
<g clip-path="url(#clip0_67_7784)">
<path d="M0 100C0 117.324 4.40742 133.619 12.159 147.826L100 156.522L187.841 147.826C195.593 133.619 200 117.324 200 100C200 82.6758 195.593 66.3813 187.841 52.1739L100 43.4781L12.159 52.1739C4.40742 66.3813 0 82.6758 0 100H0Z" fill="#D80027"/>
<path d="M12.159 52.1738H187.841C170.88 21.0895 137.904 0 100 0C62.0957 0 29.1195 21.0895 12.159 52.1738Z" fill="#0052B4"/>
<path d="M100 200C137.904 200 170.88 178.911 187.841 147.826H12.159C29.1195 178.911 62.0957 200 100 200Z" fill="#0052B4"/>
<path d="M134.782 119.565V106.522H126.087V89.1304L117.391 80.4347L108.696 89.1304V71.739L100 63.0433L91.3043 71.739V89.1304L82.6086 80.4347L73.9129 89.1304V106.522H65.2176V119.565H56.5219V132.609H143.478V119.565H134.782Z" fill="white"/>
</g>
<path d="M0.5 100C0.5 45.0477 45.0477 0.5 100 0.5C154.952 0.5 199.5 45.0477 199.5 100C199.5 154.952 154.952 199.5 100 199.5C45.0477 199.5 0.5 154.952 0.5 100Z" stroke="#EAEBEE"/>
<defs>
<clipPath id="clip0_67_7784">
<path d="M0 100C0 44.7715 44.7715 0 100 0C155.228 0 200 44.7715 200 100C200 155.228 155.228 200 100 200C44.7715 200 0 155.228 0 100Z" fill="white"/>
</clipPath>
</defs>
</svg>
