<svg width="200" height="200" viewBox="0 0 200 200" fill="none" xmlns="http://www.w3.org/2000/svg">
<g clip-path="url(#clip0_67_7790)">
<path d="M143.478 9.92266C130.331 3.56563 115.582 0 100 0C84.418 0 69.6688 3.56563 56.5219 9.92266L47.8262 100L56.5219 190.077C69.6688 196.434 84.418 200 100 200C115.582 200 130.331 196.434 143.478 190.077L152.174 100L143.478 9.92266Z" fill="#D80027"/>
<path d="M99.9992 65.2175L108.632 91.7875H136.573L113.97 108.211L122.603 134.782L99.9992 118.36L77.3957 134.782L86.0305 108.211L63.4274 91.7875H91.366L99.9992 65.2175Z" fill="#FFDA44"/>
<path d="M56.5219 9.92615C23.0727 26.1004 0 60.3539 0 100C0 139.646 23.0727 173.9 56.5219 190.074V9.92615Z" fill="#496E2D"/>
<path d="M143.478 9.92615V190.074C176.927 173.9 200 139.646 200 100C200 60.3543 176.927 26.1004 143.478 9.92615Z" fill="#FFDA44"/>
</g>
<path d="M0.5 100C0.5 45.0477 45.0477 0.5 100 0.5C154.952 0.5 199.5 45.0477 199.5 100C199.5 154.952 154.952 199.5 100 199.5C45.0477 199.5 0.5 154.952 0.5 100Z" stroke="#EAEBEE"/>
<defs>
<clipPath id="clip0_67_7790">
<path d="M0 100C0 44.7715 44.7715 0 100 0C155.228 0 200 44.7715 200 100C200 155.228 155.228 200 100 200C44.7715 200 0 155.228 0 100Z" fill="white"/>
</clipPath>
</defs>
</svg>
