<svg width="200" height="200" viewBox="0 0 200 200" fill="none" xmlns="http://www.w3.org/2000/svg">
<g clip-path="url(#clip0_67_7805)">
<path d="M100 200C155.228 200 200 155.228 200 100C200 44.7715 155.228 0 100 0C44.7715 0 0 44.7715 0 100C0 155.228 44.7715 200 100 200Z" fill="white"/>
<path d="M99.9999 200C130.309 200 157.466 186.514 175.805 165.218H24.1948C42.5335 186.514 69.6909 200 99.9999 200Z" fill="#0052B4"/>
<path d="M200 100C200 44.7719 155.228 0 100 0C44.7719 0 0 44.7719 0 100C0 109.026 1.20313 117.769 3.44492 126.087H196.555C198.797 117.769 200 109.026 200 100Z" fill="#0052B4"/>
<path d="M7.94849 139.13C9.87622 143.66 12.1297 148.016 14.6778 152.174H185.323C187.87 148.016 190.124 143.66 192.052 139.13H7.94849Z" fill="#D80027"/>
<path d="M71.4806 106.522L73.0993 111.504H78.338L74.1001 114.583L75.7188 119.565L71.4806 116.486L67.2423 119.565L68.8614 114.583L64.6235 111.504H69.8622L71.4806 106.522Z" fill="#FFDA44"/>
<path d="M71.4806 171.739L73.0993 176.721H78.338L74.1001 179.8L75.7188 184.782L71.4806 181.703L67.2423 184.782L68.8614 179.8L64.6235 176.721H69.8622L71.4806 171.739Z" fill="#FFDA44"/>
<path d="M41.1227 149.683L42.7414 154.665H47.9801L43.7422 157.744L45.3609 162.727L41.1227 159.647L36.8844 162.727L38.5039 157.744L34.2656 154.665H39.5039L41.1227 149.683Z" fill="#FFDA44"/>
<path d="M52.7183 113.043L54.337 118.026H59.5753L55.3378 121.105L56.9565 126.087L52.7183 123.008L48.48 126.087L50.0995 121.105L45.8608 118.026H51.0995L52.7183 113.043Z" fill="#FFDA44"/>
<path d="M34.2656 133.561L39.5031 133.561L41.1223 128.578L42.7414 133.561L47.9801 133.56L43.7418 136.639L45.3609 141.622L41.1223 138.543L36.8844 141.621L38.5031 136.639L34.2656 133.561Z" fill="#FFDA44"/>
<path d="M48.4805 177.309L50.0993 172.328L45.8606 169.249H51.0993L52.7184 164.266L54.3376 169.248H59.5758L55.3375 172.327L56.9563 177.31L52.718 174.23L48.4805 177.309Z" fill="#FFDA44"/>
<path d="M101.827 149.683L100.209 154.665H94.97L99.2075 157.744L97.5887 162.727L101.827 159.647L106.065 162.727L104.446 157.744L108.684 154.665H103.446L101.827 149.683Z" fill="#FFDA44"/>
<path d="M90.2313 113.043L88.6129 118.026H83.3743L87.6118 121.105L85.993 126.087L90.2313 123.008L94.4696 126.087L92.8504 121.105L97.0887 118.026H91.85L90.2313 113.043Z" fill="#FFDA44"/>
<path d="M108.684 133.561L103.447 133.561L101.827 128.578L100.209 133.561L94.97 133.56L99.2079 136.639L97.5887 141.622L101.827 138.543L106.065 141.621L104.447 136.639L108.684 133.561Z" fill="#FFDA44"/>
<path d="M94.4691 177.309L92.8507 172.328L97.089 169.249H91.8503L90.2312 164.266L88.6125 169.248H83.3738L87.6121 172.327L85.9933 177.31L90.2316 174.23L94.4691 177.309Z" fill="#FFDA44"/>
</g>
<path d="M0.5 100C0.5 45.0477 45.0477 0.5 100 0.5C154.952 0.5 199.5 45.0477 199.5 100C199.5 154.952 154.952 199.5 100 199.5C45.0477 199.5 0.5 154.952 0.5 100Z" stroke="#EAEBEE"/>
<defs>
<clipPath id="clip0_67_7805">
<path d="M0 100C0 44.7715 44.7715 0 100 0C155.228 0 200 44.7715 200 100C200 155.228 155.228 200 100 200C44.7715 200 0 155.228 0 100Z" fill="white"/>
</clipPath>
</defs>
</svg>
