<svg width="200" height="200" viewBox="0 0 200 200" fill="none" xmlns="http://www.w3.org/2000/svg">
<g clip-path="url(#clip0_67_7822)">
<path d="M200 100C200 155.228 155.228 200 100 200C44.7719 200 0 155.228 0 100C0 100.024 100 0.0109375 100 0C155.228 0 200 44.7719 200 100Z" fill="#0052B4"/>
<path d="M99.7324 100H100C100 99.9102 100 99.8227 100 99.7324C99.9109 99.8219 99.8219 99.9109 99.7324 100Z" fill="white"/>
<path d="M100 52.1738C100 34.5781 100 23.0488 100 0H99.9832C44.7621 0.009375 0 44.777 0 100H52.1738V70.6207L81.5531 100H99.7328C99.8219 99.9109 99.9109 99.8219 100 99.7324C100 92.9953 100 86.984 100 81.5539L70.6203 52.1738H100Z" fill="white"/>
<path d="M143.478 73.9133C153.083 73.9133 160.869 66.1269 160.869 56.5219C160.869 46.9169 153.083 39.1305 143.478 39.1305C133.873 39.1305 126.087 46.9169 126.087 56.5219C126.087 66.1269 133.873 73.9133 143.478 73.9133Z" fill="#6DA544"/>
<path d="M50.5919 13.0433C34.9517 21.9492 21.9489 34.9515 13.0435 50.5918V100H39.1306V39.1312V39.1304H100C100 30.9027 100 23.0644 100 13.0433H50.5919Z" fill="#D80027"/>
<path d="M100 87.7027L64.4707 52.1742H52.1738V52.175L99.9992 100H100C100 100 100 91.5207 100 87.7027Z" fill="#D80027"/>
<path d="M113.043 52.1738H173.913V78.2609H113.043V52.1738Z" fill="#D80027"/>
<path d="M113.043 117.391V134.783H122.193C127.68 140.159 135.19 143.478 143.478 143.478C151.767 143.478 159.277 140.159 164.763 134.783H165.217H173.913V117.391H113.043Z" fill="#FFDA44"/>
<path d="M113.043 73.9128V100C113.043 123.296 143.478 130.435 143.478 130.435C143.478 130.435 173.913 123.296 173.913 100V73.9128H113.043Z" fill="#338AF3"/>
<path d="M143.477 87.8473C135.868 87.8473 135.868 94.8039 128.26 94.8039C120.652 94.8039 120.652 87.8473 113.044 87.8473V100.021C120.652 100.021 120.652 106.978 128.26 106.978C135.868 106.978 135.868 100.021 143.477 100.021C151.085 100.021 151.085 106.978 158.695 106.978C166.304 106.978 166.304 100.021 173.913 100.021V87.8473C166.304 87.8473 166.304 94.8039 158.695 94.8039C151.085 94.8039 151.085 87.8473 143.477 87.8473Z" fill="#F3F3F3"/>
<path d="M143.477 63.4781C135.868 63.4781 135.868 70.4348 128.26 70.4348C120.652 70.4348 120.652 63.4781 113.044 63.4781V75.652C120.652 75.652 120.652 82.6086 128.26 82.6086C135.868 82.6086 135.868 75.652 143.477 75.652C151.085 75.652 151.085 82.6086 158.695 82.6086C166.304 82.6086 166.304 75.652 173.913 75.652V63.4781C166.304 63.4781 166.304 70.4348 158.695 70.4348C151.085 70.4348 151.085 63.4781 143.477 63.4781Z" fill="#F3F3F3"/>
</g>
<path d="M0.5 100C0.5 45.0477 45.0477 0.5 100 0.5C154.952 0.5 199.5 45.0477 199.5 100C199.5 154.952 154.952 199.5 100 199.5C45.0477 199.5 0.5 154.952 0.5 100Z" stroke="#EAEBEE"/>
<defs>
<clipPath id="clip0_67_7822">
<path d="M0 100C0 44.7715 44.7715 0 100 0C155.228 0 200 44.7715 200 100C200 155.228 155.228 200 100 200C44.7715 200 0 155.228 0 100Z" fill="white"/>
</clipPath>
</defs>
</svg>
