<svg width="200" height="200" viewBox="0 0 200 200" fill="none" xmlns="http://www.w3.org/2000/svg">
<g clip-path="url(#clip0_67_7841)">
<path d="M100 200C155.228 200 200 155.228 200 100C200 44.7715 155.228 0 100 0C44.7715 0 0 44.7715 0 100C0 155.228 44.7715 200 100 200Z" fill="white"/>
<path d="M187.841 52.1738C174.919 28.4906 152.699 10.6121 126.087 3.43945L121.74 52.1738H187.841Z" fill="#0052B4"/>
<path d="M12.1589 52.1738H78.2605L73.9128 3.43945C47.3007 10.6121 25.0812 28.491 12.1589 52.1738Z" fill="#0052B4"/>
<path d="M121.739 100V147.826H187.841C195.593 133.619 200 117.324 200 100H121.739Z" fill="#6DA544"/>
<path d="M78.2609 100H0C0 117.324 4.40742 133.619 12.159 147.826H78.2605V100H78.2609Z" fill="#6DA544"/>
<path d="M12.1589 147.826C25.0812 171.509 47.3007 189.388 73.9128 196.561L78.2605 153.94L12.1589 147.826Z" fill="#FFDA44"/>
<path d="M126.087 196.561C152.699 189.388 174.919 171.509 187.841 147.826L121.74 153.939L126.087 196.561Z" fill="#FFDA44"/>
<path d="M121.739 153.939L187.841 147.826H121.739V153.939Z" fill="#FFDA44"/>
<path d="M78.2609 147.826H12.1589L78.2609 153.939V147.826Z" fill="#FFDA44"/>
<path d="M100 0C90.9738 0 82.2308 1.20313 73.9128 3.44492V196.555C82.2308 198.797 90.9738 200 100 200C109.026 200 117.769 198.797 126.087 196.555V3.44492C117.769 1.20313 109.026 0 100 0V0Z" fill="#D80027"/>
<path d="M53.7882 21.739L56.4859 30.0425H65.2175L58.1542 35.1746L60.8523 43.4781L53.7882 38.3464L46.7246 43.4781L49.4234 35.1746L42.3601 30.0425H51.091L53.7882 21.739Z" fill="#FFDA44"/>
</g>
<path d="M0.5 100C0.5 45.0477 45.0477 0.5 100 0.5C154.952 0.5 199.5 45.0477 199.5 100C199.5 154.952 154.952 199.5 100 199.5C45.0477 199.5 0.5 154.952 0.5 100Z" stroke="#EAEBEE"/>
<defs>
<clipPath id="clip0_67_7841">
<path d="M0 100C0 44.7715 44.7715 0 100 0C155.228 0 200 44.7715 200 100C200 155.228 155.228 200 100 200C44.7715 200 0 155.228 0 100Z" fill="white"/>
</clipPath>
</defs>
</svg>
