<svg width="200" height="200" viewBox="0 0 200 200" fill="none" xmlns="http://www.w3.org/2000/svg">
<g clip-path="url(#clip0_67_7856)">
<path d="M100 200C155.228 200 200 155.228 200 100C200 44.7715 155.228 0 100 0C44.7715 0 0 44.7715 0 100C0 155.228 44.7715 200 100 200Z" fill="white"/>
<path d="M100 0C72.3855 0 47.3855 11.193 29.2891 29.2891L100 100V0Z" fill="black"/>
<path d="M0 100C0 127.614 11.193 152.614 29.2891 170.711L100 100H0Z" fill="black"/>
<path d="M100 200C127.614 200 152.614 188.807 170.711 170.711L100 100V200Z" fill="black"/>
<path d="M200 100C200 72.3855 188.807 47.3855 170.711 29.2891L100 100H200Z" fill="black"/>
<path d="M65.2175 69.5653L100 73.9141L134.782 69.5653V48.6958L120.869 55.6524L100 34.7825L79.1304 55.6524L65.2175 48.6958V69.5653Z" fill="#FFDA44"/>
<path d="M100 152.174C80.8207 152.174 65.2175 136.57 65.2175 117.391V82.6106L78.2609 69.566H121.739L134.782 82.6106V117.391C134.782 136.57 119.179 152.174 100 152.174Z" fill="#D80027"/>
<path d="M100 139.13C88.0129 139.13 78.261 129.378 78.261 117.391V82.6094H121.739V117.391C121.739 129.378 111.987 139.13 100 139.13Z" fill="white"/>
<path d="M65.2175 69.5652H78.2609V82.6085H65.2175V69.5652Z" fill="#FFDA44"/>
<path d="M121.739 69.5652H134.782V82.6085H121.739V69.5652Z" fill="#FFDA44"/>
<path d="M121.739 97.8262H134.782V110.87H121.739V97.8262Z" fill="#FFDA44"/>
<path d="M65.2175 97.8262H78.2609V110.87H65.2175V97.8262Z" fill="#FFDA44"/>
<path d="M99.9999 139.13C97.728 139.13 95.5378 138.779 93.478 138.13V151.552C95.5921 151.955 97.7702 152.174 99.9999 152.174C102.23 152.174 104.408 151.955 106.522 151.552V138.13C104.462 138.778 102.272 139.13 99.9999 139.13Z" fill="#FFDA44"/>
<path d="M78.5515 120.92L68.1421 131.33C69.9468 135.439 72.5218 139.134 75.6866 142.231L84.9054 133.012C81.6155 129.834 79.3237 125.631 78.5515 120.92Z" fill="#FFDA44"/>
<path d="M131.858 131.33L121.448 120.921C120.676 125.631 118.384 129.834 115.095 133.014L124.314 142.232C127.478 139.134 130.053 135.439 131.858 131.33Z" fill="#FFDA44"/>
<path d="M95.6523 89.8555V97.1016C95.6523 99.5023 97.5988 101.449 100 101.449C102.401 101.449 104.348 99.5023 104.348 97.1016V89.8555H95.6523Z" fill="#0052B4"/>
<path d="M95.6523 118.841V126.087C95.6523 128.488 97.5988 130.435 100 130.435C102.401 130.435 104.348 128.488 104.348 126.087V118.841H95.6523Z" fill="#0052B4"/>
<path d="M108.696 104.348V111.595C108.696 113.995 110.642 115.942 113.043 115.942C115.445 115.942 117.391 113.995 117.391 111.595V104.348H108.696Z" fill="#0052B4"/>
<path d="M95.6523 104.348V111.595C95.6523 113.995 97.5988 115.942 100 115.942C102.401 115.942 104.348 113.995 104.348 111.595V104.348H95.6523Z" fill="#0052B4"/>
<path d="M82.6086 104.348V111.595C82.6086 113.995 84.5551 115.942 86.9563 115.942C89.3575 115.942 91.304 113.995 91.304 111.595V104.348H82.6086Z" fill="#0052B4"/>
</g>
<path d="M0.5 100C0.5 45.0477 45.0477 0.5 100 0.5C154.952 0.5 199.5 45.0477 199.5 100C199.5 154.952 154.952 199.5 100 199.5C45.0477 199.5 0.5 154.952 0.5 100Z" stroke="#EAEBEE"/>
<defs>
<clipPath id="clip0_67_7856">
<path d="M0 100C0 44.7715 44.7715 0 100 0C155.228 0 200 44.7715 200 100C200 155.228 155.228 200 100 200C44.7715 200 0 155.228 0 100Z" fill="white"/>
</clipPath>
</defs>
</svg>
