<svg width="200" height="200" viewBox="0 0 200 200" fill="none" xmlns="http://www.w3.org/2000/svg">
<g clip-path="url(#clip0_67_7883)">
<path d="M100 200C155.228 200 200 155.228 200 100C200 44.7715 155.228 0 100 0C44.7715 0 0 44.7715 0 100C0 155.228 44.7715 200 100 200Z" fill="white"/>
<path d="M200 99.9999C200 155.228 155.228 200 100 200C44.7719 200 0 155.228 0 99.9999C0 44.7718 100 99.9999 100 99.9999C100 99.9999 175.688 99.9999 200 99.9999Z" fill="#D80027"/>
<path d="M0 100C0 44.7719 44.7719 0 100 0V100C100 100 34.7824 100 0 100Z" fill="#0052B4"/>
<path d="M59.5269 34.7825L66.0022 54.7114H86.9565L70.0042 67.0278L76.4792 86.9567L59.5269 74.6399L42.5745 86.9567L49.0495 67.0278L32.0972 54.7114H53.0515L59.5269 34.7825Z" fill="white"/>
</g>
<path d="M0.5 100C0.5 45.0477 45.0477 0.5 100 0.5C154.952 0.5 199.5 45.0477 199.5 100C199.5 154.952 154.952 199.5 100 199.5C45.0477 199.5 0.5 154.952 0.5 100Z" stroke="#EAEBEE"/>
<defs>
<clipPath id="clip0_67_7883">
<path d="M0 100C0 44.7715 44.7715 0 100 0C155.228 0 200 44.7715 200 100C200 155.228 155.228 200 100 200C44.7715 200 0 155.228 0 100Z" fill="white"/>
</clipPath>
</defs>
</svg>
