<svg width="200" height="200" viewBox="0 0 200 200" fill="none" xmlns="http://www.w3.org/2000/svg">
<g clip-path="url(#clip0_67_7888)">
<path d="M100 200C155.228 200 200 155.228 200 100C200 44.7715 155.228 0 100 0C44.7715 0 0 44.7715 0 100C0 155.228 44.7715 200 100 200Z" fill="#D80027"/>
<path d="M54.7266 60.8594L63.3594 87.4219H91.2891L68.7109 103.867L77.3438 130.43L54.7266 114.023L32.1094 130.43L40.7812 103.867L18.1641 87.4219H46.0938L54.7266 60.8594Z" fill="#FFDA44"/>
<path d="M118.555 154.883L111.953 146.758L102.188 150.547L107.852 141.758L101.25 133.594L111.367 136.289L117.07 127.5L117.617 137.969L127.773 140.664L117.969 144.414L118.555 154.883Z" fill="#FFDA44"/>
<path d="M131.68 131.055L134.805 121.055L126.25 115L136.719 114.844L139.805 104.844L143.203 114.766L153.672 114.648L145.273 120.898L148.633 130.82L140.078 124.766L131.68 131.055Z" fill="#FFDA44"/>
<path d="M149.375 73.3984L144.766 82.8125L152.266 90.1172L141.914 88.6328L137.305 98.0078L135.508 87.6953L125.117 86.2109L134.414 81.3281L132.617 70.9766L140.117 78.2812L149.375 73.3984Z" fill="#FFDA44"/>
<path d="M118.828 44.8828L118.047 55.3125L127.773 59.2578L117.578 61.7578L116.836 72.2266L111.328 63.3203L101.133 65.8203L107.891 57.8125L102.344 48.9453L112.07 52.8906L118.828 44.8828Z" fill="#FFDA44"/>
</g>
<path d="M0.5 100C0.5 45.0477 45.0477 0.5 100 0.5C154.952 0.5 199.5 45.0477 199.5 100C199.5 154.952 154.952 199.5 100 199.5C45.0477 199.5 0.5 154.952 0.5 100Z" stroke="#EAEBEE"/>
<defs>
<clipPath id="clip0_67_7888">
<path d="M0 100C0 44.7715 44.7715 0 100 0C155.228 0 200 44.7715 200 100C200 155.228 155.228 200 100 200C44.7715 200 0 155.228 0 100Z" fill="white"/>
</clipPath>
</defs>
</svg>
