<svg width="200" height="200" viewBox="0 0 200 200" fill="none" xmlns="http://www.w3.org/2000/svg">
<g clip-path="url(#clip0_67_7896)">
<path d="M100 200C155.228 200 200 155.228 200 100C200 44.7715 155.228 0 100 0C44.7715 0 0 44.7715 0 100C0 155.228 44.7715 200 100 200Z" fill="#6DA544"/>
<path d="M153.509 143.478L156.253 149.216L162.45 147.784L159.675 153.507L164.658 157.459L158.454 158.857L158.471 165.218L153.509 161.238L148.547 165.218L148.565 158.857L142.36 157.459L147.344 153.507L144.569 147.784L150.765 149.216L153.509 143.478Z" fill="#FFDA44"/>
<path d="M127.981 82.6086L130.726 88.3465L136.923 86.9141L134.147 92.6375L139.131 96.5891L132.926 97.9876L132.943 104.348L127.981 100.369L123.02 104.348L123.036 97.9876L116.833 96.5891L121.816 92.6375L119.04 86.9141L125.238 88.3465L127.981 82.6086Z" fill="#FFDA44"/>
<path d="M153.509 47.8262L156.253 53.5641L162.45 52.1312L159.676 57.8547L164.658 61.8066L158.454 63.2047L158.471 69.5652L153.509 65.5859L148.548 69.5652L148.565 63.2047L142.361 61.8066L147.344 57.8547L144.569 52.1312L150.765 53.5641L153.509 47.8262Z" fill="#FFDA44"/>
<path d="M175.808 73.913L178.552 79.6509L184.749 78.2184L181.974 83.9419L186.957 87.8934L180.752 89.2919L180.77 95.6524L175.808 91.6731L170.846 95.6524L170.863 89.2919L164.659 87.8934L169.642 83.9419L166.867 78.2184L173.063 79.6509L175.808 73.913Z" fill="#FFDA44"/>
<path d="M159.863 104.348L162.022 110.991H169.006L163.355 115.096L165.514 121.739L159.863 117.634L154.212 121.739L156.371 115.096L150.72 110.991H157.704L159.863 104.348Z" fill="#FFDA44"/>
<path d="M110.87 128.261C95.2614 128.261 82.6083 115.608 82.6083 100C82.6083 84.3923 95.261 71.7392 110.87 71.7392C115.736 71.7392 120.315 72.97 124.313 75.136C118.042 69.0024 109.465 65.2173 99.9993 65.2173C80.7899 65.2173 65.2173 80.7899 65.2173 99.9997C65.2173 119.209 80.7899 134.782 99.9993 134.782C109.465 134.782 118.042 130.997 124.313 124.863C120.315 127.03 115.736 128.261 110.87 128.261Z" fill="#FFDA44"/>
<path d="M62.8851 39.1305C59.8772 33.9336 54.262 30.4348 47.8261 30.4348C41.3901 30.4348 35.7749 33.9336 32.7671 39.1305H62.8851Z" fill="#FFDA44"/>
<path d="M62.9429 39.231L47.8261 54.3478L32.7093 39.231C31.2644 41.7665 30.4351 44.6989 30.4351 47.8263C30.4351 57.4313 38.2214 65.2177 47.8265 65.2177C57.4315 65.2177 65.2179 57.4317 65.2179 47.8263C65.2175 44.6989 64.3878 41.7665 62.9429 39.231Z" fill="#FFDA44"/>
<path d="M43.478 50V64.6695C44.8675 65.027 46.3245 65.2172 47.8257 65.2172C49.3269 65.2172 50.7839 65.0266 52.1733 64.6695V50H43.478Z" fill="#A2001D"/>
</g>
<path d="M0.5 100C0.5 45.0477 45.0477 0.5 100 0.5C154.952 0.5 199.5 45.0477 199.5 100C199.5 154.952 154.952 199.5 100 199.5C45.0477 199.5 0.5 154.952 0.5 100Z" stroke="#EAEBEE"/>
<defs>
<clipPath id="clip0_67_7896">
<path d="M0 100C0 44.7715 44.7715 0 100 0C155.228 0 200 44.7715 200 100C200 155.228 155.228 200 100 200C44.7715 200 0 155.228 0 100Z" fill="white"/>
</clipPath>
</defs>
</svg>
