<svg width="200" height="200" viewBox="0 0 200 200" fill="none" xmlns="http://www.w3.org/2000/svg">
<g clip-path="url(#clip0_67_7908)">
<path d="M0 100C0 44.7719 44.7719 0 100 0C155.228 0 200 44.7719 200 100L100 108.696L0 100Z" fill="#FFDA44"/>
<path d="M13.3813 150C30.6724 179.889 62.9864 200 100 200C137.014 200 169.328 179.889 186.619 150L100 143.478L13.3813 150Z" fill="#D80027"/>
<path d="M186.619 150C195.127 135.291 200 118.215 200 100H0C0 118.215 4.87266 135.291 13.3813 150H186.619Z" fill="#0052B4"/>
</g>
<path d="M0.5 100C0.5 45.0477 45.0477 0.5 100 0.5C154.952 0.5 199.5 45.0477 199.5 100C199.5 154.952 154.952 199.5 100 199.5C45.0477 199.5 0.5 154.952 0.5 100Z" stroke="#EAEBEE"/>
<defs>
<clipPath id="clip0_67_7908">
<path d="M0 100C0 44.7715 44.7715 0 100 0C155.228 0 200 44.7715 200 100C200 155.228 155.228 200 100 200C44.7715 200 0 155.228 0 100Z" fill="white"/>
</clipPath>
</defs>
</svg>
