<svg width="200" height="200" viewBox="0 0 200 200" fill="none" xmlns="http://www.w3.org/2000/svg">
<g clip-path="url(#clip0_67_7912)">
<path d="M100 200C155.228 200 200 155.228 200 100C200 44.7715 155.228 0 100 0C44.7715 0 0 44.7715 0 100C0 155.228 44.7715 200 100 200Z" fill="white"/>
<path d="M199.997 99.7106H91.5942C70.072 121.233 57.0571 137.849 43.7681 151.138L100.29 156.232L187.999 147.536C195.653 133.398 200 117.207 200 100C200 99.9031 199.997 99.8074 199.997 99.7106Z" fill="#D80027"/>
<path d="M43.7683 51.8844H187.679C170.672 20.9594 137.785 0 99.9999 0C72.4589 0 47.5229 11.1371 29.439 29.15L43.7683 51.8844Z" fill="#FFDA44"/>
<path d="M48.1158 147.536C39.126 156.526 35.6518 164.058 29.1475 170.562C47.2549 188.745 72.3115 200 99.9998 200C138.022 200 171.086 178.779 187.999 147.536H48.1158Z" fill="#0052B4"/>
<path d="M29.2893 28.9996C-9.76309 68.052 -9.76309 131.369 29.2893 170.421C45.4271 154.284 60.9478 138.763 100 99.7106L29.2893 28.9996Z" fill="#6DA544"/>
<path d="M26.3768 99.7105C26.3768 85.141 36.6162 72.9695 50.2896 69.9836C48.1881 69.5246 46.0076 69.2758 43.7678 69.2758C26.9588 69.2758 13.333 82.9015 13.333 99.7105C13.333 116.52 26.9588 130.145 43.7678 130.145C46.0072 130.145 48.1877 129.896 50.2896 129.437C36.6162 126.451 26.3768 114.28 26.3768 99.7105Z" fill="white"/>
<path d="M49.9541 73.6234L51.5732 78.6054H56.8115L52.5732 81.6847L54.1924 86.6668L49.9541 83.5879L45.7158 86.6668L47.335 81.6847L43.0967 78.6054H48.335L49.9541 73.6234Z" fill="white"/>
<path d="M49.9541 86.6667L51.5732 91.6492H56.8115L52.5732 94.7281L54.1924 99.7105L49.9541 96.6312L45.7158 99.7105L47.335 94.7281L43.0967 91.6492H48.335L49.9541 86.6667Z" fill="white"/>
<path d="M49.9541 99.7106L51.5732 104.693H56.8115L52.5732 107.772L54.1924 112.754L49.9541 109.675L45.7158 112.754L47.335 107.772L43.0967 104.693H48.335L49.9541 99.7106Z" fill="white"/>
<path d="M49.9541 112.754L51.5732 117.736H56.8115L52.5732 120.815L54.1924 125.797L49.9541 122.718L45.7158 125.797L47.335 120.815L43.0967 117.736H48.335L49.9541 112.754Z" fill="white"/>
</g>
<path d="M0.5 100C0.5 45.0477 45.0477 0.5 100 0.5C154.952 0.5 199.5 45.0477 199.5 100C199.5 154.952 154.952 199.5 100 199.5C45.0477 199.5 0.5 154.952 0.5 100Z" stroke="#EAEBEE"/>
<defs>
<clipPath id="clip0_67_7912">
<path d="M0 100C0 44.7715 44.7715 0 100 0C155.228 0 200 44.7715 200 100C200 155.228 155.228 200 100 200C44.7715 200 0 155.228 0 100Z" fill="white"/>
</clipPath>
</defs>
</svg>
