<svg width="200" height="200" viewBox="0 0 200 200" fill="none" xmlns="http://www.w3.org/2000/svg">
<g clip-path="url(#clip0_67_7924)">
<path d="M200 100C200 155.228 155.228 200 100 200C44.7719 200 0 155.228 0 100C0 100.024 100 0.0109375 100 0C155.228 0 200 44.7719 200 100Z" fill="#0052B4"/>
<path d="M99.7324 100H100C100 99.9102 100 99.8227 100 99.7324C99.9109 99.8219 99.8219 99.9109 99.7324 100Z" fill="white"/>
<path d="M100 52.1738C100 34.5781 100 23.0488 100 0H99.9832C44.7621 0.009375 0 44.777 0 100H52.1738V70.6207L81.5531 100H99.7328C99.8219 99.9109 99.9109 99.8219 100 99.7324C100 92.9953 100 86.984 100 81.5539L70.6203 52.1738H100Z" fill="white"/>
<path d="M50.5919 13.0433C34.9517 21.9492 21.9489 34.9515 13.0435 50.5918V100H39.1306V39.1312V39.1304H100C100 30.9027 100 23.0644 100 13.0433H50.5919Z" fill="#D80027"/>
<path d="M100 87.7027L64.4707 52.1742H52.1738V52.175L99.9992 100H100C100 100 100 91.5207 100 87.7027Z" fill="#D80027"/>
<path d="M134.783 100L136.633 105.694H142.62L137.777 109.213L139.627 114.907L134.783 111.388L129.939 114.907L131.789 109.213L126.946 105.694H132.933L134.783 100Z" fill="white"/>
<path d="M110.188 110.188L115.522 112.905L119.756 108.672L118.819 114.586L124.153 117.303L118.24 118.239L117.304 124.153L114.585 118.819L108.672 119.755L112.906 115.522L110.188 110.188Z" fill="white"/>
<path d="M100 134.782L105.694 132.932L105.695 126.947L109.213 131.789L114.907 129.939L111.388 134.782L114.907 139.627L109.213 137.777L105.695 142.62V136.633L100 134.782Z" fill="white"/>
<path d="M110.188 159.377L112.906 154.043L108.672 149.81L114.586 150.746L117.304 145.412L118.24 151.325L124.153 152.261L118.819 154.98L119.756 160.893L115.522 156.659L110.188 159.377Z" fill="white"/>
<path d="M134.783 169.565L132.933 163.871H126.946L131.789 160.352L129.939 154.659L134.783 158.177L139.627 154.659L137.777 160.352L142.62 163.871H136.633L134.783 169.565Z" fill="white"/>
<path d="M159.377 159.377L154.043 156.66L149.81 160.893L150.746 154.98L145.412 152.262L151.325 151.325L152.262 145.412L154.98 150.746L160.893 149.81L156.659 154.043L159.377 159.377Z" fill="white"/>
<path d="M169.565 134.782L163.871 136.633V142.62L160.352 137.776L154.659 139.627L158.178 134.782L154.659 129.939L160.352 131.789L163.871 126.947V132.932L169.565 134.782Z" fill="white"/>
<path d="M159.377 110.188L156.66 115.522L160.893 119.755L154.98 118.819L152.262 124.153L151.325 118.239L145.412 117.303L150.746 114.585L149.81 108.673L154.043 112.905L159.377 110.188Z" fill="white"/>
</g>
<path d="M0.5 100C0.5 45.0477 45.0477 0.5 100 0.5C154.952 0.5 199.5 45.0477 199.5 100C199.5 154.952 154.952 199.5 100 199.5C45.0477 199.5 0.5 154.952 0.5 100Z" stroke="#EAEBEE"/>
<defs>
<clipPath id="clip0_67_7924">
<path d="M0 100C0 44.7715 44.7715 0 100 0C155.228 0 200 44.7715 200 100C200 155.228 155.228 200 100 200C44.7715 200 0 155.228 0 100Z" fill="white"/>
</clipPath>
</defs>
</svg>
