<svg width="200" height="200" viewBox="0 0 200 200" fill="none" xmlns="http://www.w3.org/2000/svg">
<g clip-path="url(#clip0_67_7942)">
<path d="M100 200C155.228 200 200 155.228 200 100C200 44.7715 155.228 0 100 0C44.7715 0 0 44.7715 0 100C0 155.228 44.7715 200 100 200Z" fill="#FCFCFC"/>
<path d="M134.819 84.7004C134.819 63.5504 117.674 46.4055 96.5239 46.4055C80.9169 46.4055 67.5001 55.7454 61.5345 69.1376L56.8114 86.2606L61.1591 90.6083L52.4634 108L61.1591 112.347L56.8114 116.695V121.043L61.1591 125.39V134.086L65.5067 138.434L78.5501 134.086C78.5501 134.086 78.5501 138.434 82.8978 142.782C87.2454 147.129 91.5938 155.825 91.5938 155.825C91.5938 155.825 104.637 160.173 113.333 147.13C122.029 134.086 130.724 129.738 130.724 129.738L122.343 112.975C130.008 105.974 134.819 95.9008 134.819 84.7004Z" fill="black"/>
<path d="M137.94 99.3445C155.607 96.3644 158.55 61.7683 158.55 61.7683H134.203C146.811 92.2031 133.614 94.2503 133.614 94.2503C131.826 92.9203 67.8424 62.6093 65.8143 61.8386C65.3256 62.4925 63.5268 64.2101 61.34 69.5578C59.1529 74.9054 58.6162 79.7164 58.6162 79.7164C59.6404 80.3839 127.591 104.111 129.387 104.309C132.951 106.639 137.337 113.608 134.886 134.271L158.321 127.667C158.322 127.667 150.369 106.509 137.94 99.3445Z" fill="#ACABB1"/>
</g>
<path d="M0.5 100C0.5 45.0477 45.0477 0.5 100 0.5C154.952 0.5 199.5 45.0477 199.5 100C199.5 154.952 154.952 199.5 100 199.5C45.0477 199.5 0.5 154.952 0.5 100Z" stroke="#EAEBEE"/>
<defs>
<clipPath id="clip0_67_7942">
<path d="M0 100C0 44.7715 44.7715 0 100 0C155.228 0 200 44.7715 200 100C200 155.228 155.228 200 100 200C44.7715 200 0 155.228 0 100Z" fill="white"/>
</clipPath>
</defs>
</svg>
