<svg width="200" height="200" viewBox="0 0 200 200" fill="none" xmlns="http://www.w3.org/2000/svg">
<g clip-path="url(#clip0_67_7952)">
<path d="M200 100C200 87.7679 197.8 76.0504 193.78 65.2176L100 60.8695L6.21992 65.2172C2.20039 76.0504 0 87.7679 0 100C0 112.232 2.20039 123.95 6.21992 134.782L100 139.13L193.78 134.783C197.8 123.95 200 112.232 200 100Z" fill="white"/>
<path d="M99.9998 200C142.996 200 179.651 172.863 193.78 134.782H6.21973C20.349 172.863 57.0033 200 99.9998 200Z" fill="#0052B4"/>
<path d="M6.21973 65.2176H193.78C179.651 27.1375 142.996 0 99.9998 0C57.0033 0 20.349 27.1375 6.21973 65.2176Z" fill="#D80027"/>
<path d="M126.087 69.5656H108.696L111.595 47.8262L123.188 39.1305L134.783 47.8262V65.2176L126.087 69.5656Z" fill="#338AF3"/>
<path d="M73.9131 69.5656H91.3045L88.4057 47.8262L76.8115 39.1305L65.2178 47.8262V65.2176L73.9131 69.5656Z" fill="#338AF3"/>
<path d="M111.594 69.5656H88.4053V47.8262L99.9998 39.1305L111.594 47.8262V69.5656Z" fill="#0052B4"/>
<path d="M65.2178 65.218V113.044C65.2178 124.432 70.7186 134.559 79.2029 140.908L85.29 139.385L92.9713 147.112C95.2428 147.58 97.5932 147.827 100.001 147.827C102.395 147.827 104.734 147.583 106.993 147.12L115.762 139.819L120.797 140.894C129.278 134.545 134.783 124.429 134.783 113.044V65.218H65.2178Z" fill="white"/>
<path d="M65.2178 65.2175H79.1307V79.1304H65.2178V65.2175Z" fill="#D80027"/>
<path d="M93.0435 65.2175H106.956V79.1304H93.0435V65.2175Z" fill="#D80027"/>
<path d="M120.87 65.2175H134.783V79.1304H120.87V65.2175Z" fill="#D80027"/>
<path d="M79.1309 79.1304H93.0437V93.0433H79.1309V79.1304Z" fill="#D80027"/>
<path d="M106.957 79.1304H120.87V93.0433H106.957V79.1304Z" fill="#D80027"/>
<path d="M65.2178 93.0391H79.1307V106.952H65.2178V93.0391Z" fill="#D80027"/>
<path d="M79.1309 106.952H93.0437V120.865H79.1309V106.952Z" fill="#D80027"/>
<path d="M93.0435 93.0391H106.956V106.952H93.0435V93.0391Z" fill="#D80027"/>
<path d="M120.87 93.0391H134.783V106.952H120.87V93.0391Z" fill="#D80027"/>
<path d="M106.957 106.952H120.87V120.865H106.957V106.952Z" fill="#D80027"/>
<path d="M93.0435 120.865H106.956V134.778H93.0435V120.865Z" fill="#D80027"/>
<path d="M79.1305 120.866H66.1152C67.309 126.038 69.6559 130.771 72.8738 134.779H79.1305V120.866Z" fill="#D80027"/>
<path d="M120.87 134.78H127.126C130.345 130.771 132.691 126.038 133.884 120.867H120.87V134.78Z" fill="#D80027"/>
<path d="M79.1309 134.78V140.85C83.1773 143.895 87.9062 146.078 93.0437 147.126V134.78H79.1309Z" fill="#D80027"/>
<path d="M106.957 134.78V147.126C112.095 146.079 116.823 143.895 120.87 140.85V134.78H106.957Z" fill="#D80027"/>
</g>
<path d="M0.5 100C0.5 45.0477 45.0477 0.5 100 0.5C154.952 0.5 199.5 45.0477 199.5 100C199.5 154.952 154.952 199.5 100 199.5C45.0477 199.5 0.5 154.952 0.5 100Z" stroke="#EAEBEE"/>
<defs>
<clipPath id="clip0_67_7952">
<path d="M0 100C0 44.7715 44.7715 0 100 0C155.228 0 200 44.7715 200 100C200 155.228 155.228 200 100 200C44.7715 200 0 155.228 0 100Z" fill="white"/>
</clipPath>
</defs>
</svg>
