<svg width="200" height="200" viewBox="0 0 200 200" fill="none" xmlns="http://www.w3.org/2000/svg">
<g clip-path="url(#clip0_67_7977)">
<path d="M0.002 17.3914H0V182.609H0.002V100V17.3914Z" fill="#FF9811"/>
<path d="M99.9996 199.999C155.228 199.999 199.999 155.228 199.999 99.9998C199.999 44.7716 155.228 0.000244141 99.9996 0.000244141C44.7714 0.000244141 0 44.7716 0 99.9998C0 155.228 44.7714 199.999 99.9996 199.999Z" fill="white"/>
<path d="M100 0.000732422C67.2848 0.000732422 38.2402 15.7128 19.9961 40.0007H180.004C161.761 15.7125 132.716 0.000732422 100 0.000732422Z" fill="#0052B4"/>
<path d="M100 200C132.716 200 161.761 184.287 180.005 160H19.9961C38.2398 184.288 67.2848 200 100 200Z" fill="#0052B4"/>
<path d="M0 100C0 106.85 0.690625 113.538 2.00273 120H197.998C199.31 113.538 200 106.85 200 100C200 93.1508 199.309 86.4625 197.998 80.0004H2.00273C0.690625 86.4625 0 93.1508 0 100Z" fill="#0052B4"/>
<path d="M29.2895 29.2898C-9.7625 68.3417 -9.7625 131.659 29.2895 170.711C45.4273 154.573 60.9477 139.053 100 100.001L29.2895 29.2898Z" fill="#D80027"/>
<path d="M40.4732 73.9137L46.9475 93.8414H67.9029L50.951 106.159L57.4252 126.087L40.4732 113.77L23.5205 126.087L29.9963 106.159L13.0439 93.8414H33.9979L40.4732 73.9137Z" fill="white"/>
</g>
<path d="M0.5 100C0.5 45.0477 45.0477 0.5 100 0.5C154.952 0.5 199.5 45.0477 199.5 100C199.5 154.952 154.952 199.5 100 199.5C45.0477 199.5 0.5 154.952 0.5 100Z" stroke="#EAEBEE"/>
<defs>
<clipPath id="clip0_67_7977">
<path d="M0 100C0 44.7715 44.7715 0 100 0C155.228 0 200 44.7715 200 100C200 155.228 155.228 200 100 200C44.7715 200 0 155.228 0 100Z" fill="white"/>
</clipPath>
</defs>
</svg>
