<svg width="200" height="200" viewBox="0 0 200 200" fill="none" xmlns="http://www.w3.org/2000/svg">
<g clip-path="url(#clip0_67_7986)">
<path d="M100 200C155.228 200 200 155.228 200 100C200 44.7715 155.228 0 100 0C44.7715 0 0 44.7715 0 100C0 155.228 44.7715 200 100 200Z" fill="#FFDA44"/>
<path d="M100 200C132.813 200 161.933 184.196 180.168 159.786H19.8324C38.0668 184.196 67.1875 200 100 200Z" fill="#0052B4"/>
<path d="M200 100C200 44.7719 155.228 0 100 0C44.7719 0 0 44.7719 0 100C0 111.825 2.0582 123.169 5.82656 133.699H194.173C197.942 123.169 200 111.825 200 100Z" fill="#0052B4"/>
<path d="M68.4461 64.1335L73.8418 80.7398H91.3043L77.1774 91.0046L82.5731 107.612L68.4461 97.3476L54.3192 107.612L59.7156 91.0046L45.5887 80.7398H63.0504L68.4461 64.1335Z" fill="white"/>
<path d="M38.4586 46.7422L41.6961 56.7062H52.1738L43.6977 62.8648L46.9352 72.8293L38.4586 66.6707L29.9824 72.8293L33.2203 62.8648L24.7445 56.7062H35.2219L38.4586 46.7422Z" fill="white"/>
</g>
<path d="M0.5 100C0.5 45.0477 45.0477 0.5 100 0.5C154.952 0.5 199.5 45.0477 199.5 100C199.5 154.952 154.952 199.5 100 199.5C45.0477 199.5 0.5 154.952 0.5 100Z" stroke="#EAEBEE"/>
<defs>
<clipPath id="clip0_67_7986">
<path d="M0 100C0 44.7715 44.7715 0 100 0C155.228 0 200 44.7715 200 100C200 155.228 155.228 200 100 200C44.7715 200 0 155.228 0 100Z" fill="white"/>
</clipPath>
</defs>
</svg>
