<svg width="200" height="200" viewBox="0 0 200 200" fill="none" xmlns="http://www.w3.org/2000/svg">
<g clip-path="url(#clip0_67_7994)">
<path d="M100 200C155.228 200 200 155.228 200 100C200 44.7715 155.228 0 100 0C44.7715 0 0 44.7715 0 100C0 155.228 44.7715 200 100 200Z" fill="#FCFCFC"/>
<path d="M156.522 86.9565C153.479 86.9565 149.71 86.9565 143.478 86.9565C143.478 110.969 124.012 130.435 100 130.435C75.9875 130.435 56.5222 110.969 56.5222 86.9565C52.3191 86.9565 47.6812 86.9565 43.4789 86.9565C43.4789 112.822 60.8523 134.629 84.5672 141.345C81.9672 146.284 82.3633 152.503 86.0773 157.137C90.9554 153.228 96.0058 149.18 100.29 145.748C104.575 149.181 109.625 153.228 114.503 157.137C118.254 152.457 118.623 146.159 115.937 141.196C139.392 134.316 156.522 112.638 156.522 86.9565Z" fill="#6DA544"/>
<path d="M65.2176 82.6086C65.2176 82.6086 65.2176 104.348 86.9566 104.348L91.3043 108.695H100C100 108.695 104.348 95.652 113.043 95.652C113.043 95.652 113.043 86.9562 121.739 86.9562C130.435 86.9562 134.782 86.9562 134.782 86.9562C134.782 86.9562 130.435 69.5648 152.174 56.5215L143.478 52.1738C143.478 52.1738 113.043 73.9129 91.3043 69.5652V78.2609H82.6086L78.261 73.9133L65.2176 82.6086Z" fill="#FFDA44"/>
</g>
<path d="M0.5 100C0.5 45.0477 45.0477 0.5 100 0.5C154.952 0.5 199.5 45.0477 199.5 100C199.5 154.952 154.952 199.5 100 199.5C45.0477 199.5 0.5 154.952 0.5 100Z" stroke="#EAEBEE"/>
<defs>
<clipPath id="clip0_67_7994">
<path d="M0 100C0 44.7715 44.7715 0 100 0C155.228 0 200 44.7715 200 100C200 155.228 155.228 200 100 200C44.7715 200 0 155.228 0 100Z" fill="white"/>
</clipPath>
</defs>
</svg>
