<svg width="200" height="200" viewBox="0 0 200 200" fill="none" xmlns="http://www.w3.org/2000/svg">
<g clip-path="url(#clip0_67_8002)">
<path d="M188.896 54.1468C184.275 45.1941 178.219 36.791 170.714 29.2863C163.209 21.7812 154.806 15.7246 145.853 11.1042L75.4044 75.4035L11.1047 145.852C15.7254 154.805 21.7821 163.209 29.2868 170.713C36.7915 178.218 45.195 184.275 54.1473 188.895L124.596 124.596L188.896 54.1468Z" fill="#FFDA44"/>
<path d="M29.2867 170.714C33.4816 174.909 37.9578 178.65 42.6527 181.944L181.943 42.6528C178.65 37.9579 174.909 33.4817 170.714 29.2868C166.518 25.0919 162.043 21.3509 157.348 18.0571L18.057 157.348C21.3504 162.042 25.0914 166.519 29.2867 170.714Z" fill="#D80027"/>
<path d="M29.2866 29.2859C-2.26297 60.8355 -8.31961 108.218 11.1046 145.852L145.853 11.1043C108.218 -8.31956 60.8359 -2.26214 29.2866 29.2859Z" fill="#338AF3"/>
<path d="M170.714 170.713C202.263 139.164 208.319 91.7822 188.896 54.1475L54.1477 188.896C91.7825 208.319 139.165 202.263 170.714 170.713Z" fill="#338AF3"/>
<path d="M53.2914 30.4316L58.6875 47.0398H76.15L62.0226 57.3039L67.4187 73.9117L53.2914 63.6473L39.1633 73.9117L44.5601 57.3039L30.432 47.0398H47.8945L53.2914 30.4316Z" fill="#FFDA44"/>
</g>
<path d="M0.5 100C0.5 45.0477 45.0477 0.5 100 0.5C154.952 0.5 199.5 45.0477 199.5 100C199.5 154.952 154.952 199.5 100 199.5C45.0477 199.5 0.5 154.952 0.5 100Z" stroke="#EAEBEE"/>
<defs>
<clipPath id="clip0_67_8002">
<path d="M0 100C0 44.7715 44.7715 0 100 0C155.228 0 200 44.7715 200 100C200 155.228 155.228 200 100 200C44.7715 200 0 155.228 0 100Z" fill="white"/>
</clipPath>
</defs>
</svg>
