<svg width="200" height="200" viewBox="0 0 200 200" fill="none" xmlns="http://www.w3.org/2000/svg">
<g clip-path="url(#clip0_67_8009)">
<path d="M100 200C155.228 200 200 155.228 200 100C200 44.7715 155.228 0 100 0C44.7715 0 0 44.7715 0 100C0 155.228 44.7715 200 100 200Z" fill="white"/>
<path d="M78.2613 86.9566H199.153C192.762 37.8914 150.807 0 99.9999 0C92.5331 0 85.2609 0.825391 78.2609 2.37695V86.9566H78.2613Z" fill="#D80027"/>
<path d="M52.1738 86.9562V12.1589C24.7156 27.141 5.05855 54.6218 0.846436 86.9566H52.1738V86.9562Z" fill="#D80027"/>
<path d="M52.1734 113.043H0.846436C5.05855 145.378 24.7156 172.859 52.1738 187.841L52.1734 113.043Z" fill="#D80027"/>
<path d="M78.2609 113.044V197.623C85.2609 199.175 92.5331 200 99.9999 200C150.807 200 192.762 162.109 199.153 113.043H78.2609V113.044Z" fill="#D80027"/>
</g>
<path d="M0.5 100C0.5 45.0477 45.0477 0.5 100 0.5C154.952 0.5 199.5 45.0477 199.5 100C199.5 154.952 154.952 199.5 100 199.5C45.0477 199.5 0.5 154.952 0.5 100Z" stroke="#EAEBEE"/>
<defs>
<clipPath id="clip0_67_8009">
<path d="M0 100C0 44.7715 44.7715 0 100 0C155.228 0 200 44.7715 200 100C200 155.228 155.228 200 100 200C44.7715 200 0 155.228 0 100Z" fill="white"/>
</clipPath>
</defs>
</svg>
