<svg width="200" height="200" viewBox="0 0 200 200" fill="none" xmlns="http://www.w3.org/2000/svg">
<g clip-path="url(#clip0_67_8016)">
<path d="M91.3043 108.696C91.3043 108.696 29.3477 29.2754 29.2891 29.2895C47.3852 11.193 72.3855 0 100 0C155.228 0 200 44.7719 200 100L91.3043 108.696Z" fill="#338AF3"/>
<path d="M91.3043 100C91.3043 100 29.3477 170.725 29.2891 170.711C47.3852 188.807 72.3855 200 100 200C155.228 200 200 155.228 200 100H91.3043Z" fill="#6DA544"/>
<path d="M29.2893 29.2891C-9.76309 68.3414 -9.76309 131.658 29.2893 170.711C45.4271 154.573 60.9478 139.052 100 100L29.2893 29.2891Z" fill="white"/>
<path d="M40.4728 73.9128L46.9474 93.841H67.9028L50.9505 106.158L57.4247 126.087L40.4728 113.77L23.52 126.087L29.9958 106.158L13.0435 93.841H33.9974L40.4728 73.9128Z" fill="#D80027"/>
</g>
<path d="M0.5 100C0.5 45.0477 45.0477 0.5 100 0.5C154.952 0.5 199.5 45.0477 199.5 100C199.5 154.952 154.952 199.5 100 199.5C45.0477 199.5 0.5 154.952 0.5 100Z" stroke="#EAEBEE"/>
<defs>
<clipPath id="clip0_67_8016">
<path d="M0 100C0 44.7715 44.7715 0 100 0C155.228 0 200 44.7715 200 100C200 155.228 155.228 200 100 200C44.7715 200 0 155.228 0 100Z" fill="white"/>
</clipPath>
</defs>
</svg>
