<svg width="200" height="200" viewBox="0 0 200 200" fill="none" xmlns="http://www.w3.org/2000/svg">
<g clip-path="url(#clip0_67_8021)">
<path d="M100 200C155.228 200 200 155.228 200 100C200 44.7715 155.228 0 100 0C44.7715 0 0 44.7715 0 100C0 155.228 44.7715 200 100 200Z" fill="white"/>
<path d="M119.565 198.081C159.098 190.239 190.239 159.097 198.081 119.565H119.565V198.081Z" fill="#496E2D"/>
<path d="M1.91919 119.565C9.76099 159.097 40.9024 190.239 80.4348 198.081V119.565H1.91919Z" fill="#496E2D"/>
<path d="M198.081 80.4348C190.239 40.9028 159.098 9.76138 119.565 1.91919V80.4348H198.081Z" fill="#496E2D"/>
<path d="M80.4348 1.91919C40.9024 9.76138 9.76099 40.9028 1.91919 80.4348H80.4348V1.91919Z" fill="#496E2D"/>
<path d="M93.4782 119.565H80.4348V198.081C84.6915 198.925 89.0458 199.497 93.4782 199.782V119.565Z" fill="#FFDA44"/>
<path d="M93.4782 80.4347V0.217529C89.0458 0.502686 84.6911 1.07495 80.4348 1.91909V80.4347H93.4782Z" fill="#FFDA44"/>
<path d="M106.522 0.217578C104.365 0.078125 102.192 0 99.9999 0C97.8081 0 95.6351 0.078125 93.478 0.217578V80.4352H106.521V0.217578H106.522Z" fill="black"/>
<path d="M93.478 199.782C95.6351 199.922 97.8081 200 99.9999 200C102.192 200 104.365 199.922 106.522 199.782V119.565H93.4784V199.782H93.478Z" fill="black"/>
<path d="M80.4347 93.4782V80.4348H1.91909C1.07456 84.6918 0.502686 89.0458 0.217529 93.4782H80.4347Z" fill="#FFDA44"/>
<path d="M119.565 93.4782H199.783C199.498 89.0458 198.925 84.6918 198.081 80.4348H119.566V93.4782H119.565Z" fill="#FFDA44"/>
<path d="M119.565 106.522H199.783C199.922 104.365 200 102.192 200 99.9999C200 97.8081 199.922 95.6347 199.782 93.478H119.565V106.522Z" fill="black"/>
<path d="M0.217578 93.478C0.0785156 95.6347 0 97.8081 0 99.9999C0 102.192 0.0785156 104.365 0.217578 106.522H80.4352V93.4784H0.217578V93.478Z" fill="black"/>
<path d="M100 147.826C126.414 147.826 147.826 126.414 147.826 100C147.826 73.5863 126.414 52.1738 100 52.1738C73.5863 52.1738 52.1738 73.5863 52.1738 100C52.1738 126.414 73.5863 147.826 100 147.826Z" fill="#D80027"/>
<path d="M110.896 105.336C107.339 98.2216 102.715 91.0107 102.715 91.0107C102.715 91.0107 102.83 87.7275 102.83 85.7712C102.83 82.8244 100.441 80.4353 97.4937 80.4353C94.7019 80.4353 92.4144 82.5802 92.1812 85.3111C89.9859 85.4544 88.2488 87.2755 88.2488 89.5068C88.2488 91.129 89.1679 92.5349 90.5132 93.2376C91.182 91.6736 92.4914 90.4525 94.1109 89.8958C94.3749 90.1119 94.6585 90.3048 94.9613 90.4685L95.6449 90.7958C95.6449 90.7958 93.1101 97.9408 93.1101 101.779C93.1101 112.57 100.225 115.897 100.225 115.897V116.009L96.6675 119.566H103.782V112.451L107.339 116.008C107.371 115.942 114.078 111.7 110.896 105.336Z" fill="#496E2D"/>
<path d="M99.9999 60.8696L101.619 65.8517H106.857L102.619 68.931L104.238 73.913L99.9999 70.8341L95.7616 73.913L97.3807 68.931L93.1428 65.8517H98.3811L99.9999 60.8696Z" fill="#496E2D"/>
<path d="M76.9999 68.3432L81.2374 71.4225L85.4757 68.3428L83.8569 73.3256L88.0952 76.4041L82.8565 76.4045L81.2378 81.3865L79.6187 76.4045L74.3804 76.4041L78.6183 73.3248L76.9999 68.3432Z" fill="#496E2D"/>
<path d="M62.7847 87.9083H68.0226L69.6417 82.9263L71.2604 87.9083L76.4991 87.9079L72.2612 90.9876L73.8804 95.9696L69.6417 92.8903L65.4038 95.9692L67.0222 90.9872L62.7847 87.9083Z" fill="#496E2D"/>
<path d="M62.7847 112.092L67.0222 109.013L65.4034 104.031L69.6417 107.11L73.88 104.031L72.2612 109.013L76.4995 112.092L71.2604 112.093L69.6417 117.074L68.0226 112.092H62.7847Z" fill="#496E2D"/>
<path d="M76.9998 131.657L78.6182 126.676L74.3799 123.597H79.6186L81.2377 118.614L82.8565 123.596H88.0951L83.8568 126.676L85.4756 131.658L81.2373 128.578L76.9998 131.657Z" fill="#496E2D"/>
<path d="M99.9999 139.131L98.3811 134.149H93.1428L97.3807 131.07L95.7616 126.088L99.9999 129.166L104.238 126.087L102.619 131.07L106.857 134.149L101.619 134.149L99.9999 139.131Z" fill="#496E2D"/>
<path d="M123 131.657L118.762 128.578L114.524 131.658L116.143 126.676L111.905 123.597L117.143 123.596L118.762 118.614L120.381 123.597H125.619L121.381 126.676L123 131.657Z" fill="#496E2D"/>
<path d="M137.215 112.092H131.977L130.358 117.074L128.739 112.093H123.5L127.739 109.013L126.119 104.031L130.358 107.11L134.596 104.031L132.978 109.013L137.215 112.092Z" fill="#496E2D"/>
<path d="M137.215 87.9084L132.978 90.9873L134.596 95.9693L130.358 92.8904L126.12 95.9701L127.739 90.9877L123.5 87.9088L128.739 87.908L130.358 82.9268L131.977 87.9084H137.215Z" fill="#496E2D"/>
<path d="M123 68.343L121.381 73.3247L125.619 76.404H120.381L118.762 81.3864L117.143 76.4043L111.905 76.4047L116.143 73.3247L114.524 68.3434L118.762 71.4219L123 68.343Z" fill="#496E2D"/>
</g>
<path d="M0.5 100C0.5 45.0477 45.0477 0.5 100 0.5C154.952 0.5 199.5 45.0477 199.5 100C199.5 154.952 154.952 199.5 100 199.5C45.0477 199.5 0.5 154.952 0.5 100Z" stroke="#EAEBEE"/>
<defs>
<clipPath id="clip0_67_8021">
<path d="M0 100C0 44.7715 44.7715 0 100 0C155.228 0 200 44.7715 200 100C200 155.228 155.228 200 100 200C44.7715 200 0 155.228 0 100Z" fill="white"/>
</clipPath>
</defs>
</svg>
