<svg width="200" height="200" viewBox="0 0 200 200" fill="none" xmlns="http://www.w3.org/2000/svg">
<g clip-path="url(#clip0_67_8051)">
<path d="M100 200C155.228 200 200 155.228 200 100C200 44.7715 155.228 0 100 0C44.7715 0 0 44.7715 0 100C0 155.228 44.7715 200 100 200Z" fill="white"/>
<path d="M3.44482 126.087C12.6784 160.346 39.6538 187.322 73.9132 196.556V126.087H3.44482Z" fill="#D80027"/>
<path d="M73.9128 3.44482C39.6538 12.678 12.678 39.6538 3.44482 73.9128H73.9132V3.44482H73.9128Z" fill="#0052B4"/>
<path d="M196.555 73.9128C187.322 39.6538 160.346 12.678 126.087 3.44482V73.9132H196.555V73.9128Z" fill="#D80027"/>
<path d="M126.087 196.555C160.346 187.321 187.322 160.346 196.556 126.087H126.087V196.555Z" fill="#0052B4"/>
<path d="M126.087 100C126.087 114.408 114.408 126.087 100 126.087C85.5925 126.087 73.9128 114.408 73.9128 100C73.9128 85.5921 100 73.9128 100 73.9128C100 73.9128 126.087 85.5921 126.087 100Z" fill="#496E2D"/>
<path d="M73.9128 100C73.9128 85.5921 85.5925 73.9128 100 73.9128C114.408 73.9128 126.087 85.5921 126.087 100" fill="#0052B4"/>
<path d="M85.3262 86.9565V103.261C85.3262 111.365 91.8957 117.935 100 117.935C108.104 117.935 114.674 111.365 114.674 103.261V86.9565H85.3262Z" fill="#D80027"/>
</g>
<path d="M0.5 100C0.5 45.0477 45.0477 0.5 100 0.5C154.952 0.5 199.5 45.0477 199.5 100C199.5 154.952 154.952 199.5 100 199.5C45.0477 199.5 0.5 154.952 0.5 100Z" stroke="#EAEBEE"/>
<defs>
<clipPath id="clip0_67_8051">
<path d="M0 100C0 44.7715 44.7715 0 100 0C155.228 0 200 44.7715 200 100C200 155.228 155.228 200 100 200C44.7715 200 0 155.228 0 100Z" fill="white"/>
</clipPath>
</defs>
</svg>
