<svg width="200" height="200" viewBox="0 0 200 200" fill="none" xmlns="http://www.w3.org/2000/svg">
<g clip-path="url(#clip0_67_8065)">
<path d="M0 100C0 44.7719 44.7719 0 100 0C155.228 0 200 44.7719 200 100L100 108.696L0 100Z" fill="#FFDA44"/>
<path d="M13.3813 150C30.6724 179.889 62.9864 200 100 200C137.014 200 169.328 179.889 186.619 150L100 143.478L13.3813 150Z" fill="#D80027"/>
<path d="M186.619 150C195.127 135.291 200 118.215 200 100H0C0 118.215 4.87266 135.291 13.3813 150H186.619Z" fill="#0052B4"/>
<path d="M100 134.782C119.21 134.782 134.782 119.21 134.782 100C134.782 80.7902 119.21 65.2175 100 65.2175C80.7902 65.2175 65.2175 80.7902 65.2175 100C65.2175 119.21 80.7902 134.782 100 134.782Z" fill="#FFDA44"/>
<path d="M100 121.739C88.0129 121.739 78.261 111.987 78.261 100V86.9566C78.261 74.9695 88.0133 65.2175 100 65.2175C111.987 65.2175 121.739 74.9699 121.739 86.9566V100C121.739 111.987 111.987 121.739 100 121.739Z" fill="#338AF3"/>
<path d="M134.782 47.8261H108.695C108.695 43.0237 104.802 39.1304 99.9996 39.1304C95.1973 39.1304 91.3039 43.0237 91.3039 47.8261H65.2168C65.2168 52.6288 69.4 56.5218 74.202 56.5218H73.9125C73.9125 61.3245 77.8055 65.2175 82.6082 65.2175C82.6082 70.0202 86.5012 73.9132 91.3039 73.9132H108.695C113.498 73.9132 117.391 70.0202 117.391 65.2175C122.194 65.2175 126.087 61.3245 126.087 56.5218H125.797C130.6 56.5218 134.782 52.6284 134.782 47.8261Z" fill="black"/>
</g>
<path d="M0.5 100C0.5 45.0477 45.0477 0.5 100 0.5C154.952 0.5 199.5 45.0477 199.5 100C199.5 154.952 154.952 199.5 100 199.5C45.0477 199.5 0.5 154.952 0.5 100Z" stroke="#EAEBEE"/>
<defs>
<clipPath id="clip0_67_8065">
<path d="M0 100C0 44.7715 44.7715 0 100 0C155.228 0 200 44.7715 200 100C200 155.228 155.228 200 100 200C44.7715 200 0 155.228 0 100Z" fill="white"/>
</clipPath>
</defs>
</svg>
