<svg width="200" height="200" viewBox="0 0 200 200" fill="none" xmlns="http://www.w3.org/2000/svg">
<g clip-path="url(#clip0_67_8072)">
<path d="M100 200C155.228 200 200 155.228 200 100C200 44.7715 155.228 0 100 0C44.7715 0 0 44.7715 0 100C0 155.228 44.7715 200 100 200Z" fill="white"/>
<path d="M99.9998 0C57.0033 0 20.349 27.1375 6.21973 65.2176H193.78C179.651 27.1375 142.996 0 99.9998 0Z" fill="#D80027"/>
<path d="M99.9998 200C142.996 200 179.651 172.863 193.78 134.782H6.21973C20.349 172.863 57.0033 200 99.9998 200Z" fill="black"/>
<path d="M134.782 89.1305H108.695C108.695 84.3282 104.802 80.4348 99.9996 80.4348C95.1973 80.4348 91.3039 84.3282 91.3039 89.1305H65.2168C65.2168 93.9333 69.4 97.8262 74.2023 97.8262H73.9125C73.9125 102.629 77.8055 106.522 82.6082 106.522C82.6082 111.325 86.5012 115.218 91.3039 115.218H108.695C113.498 115.218 117.391 111.325 117.391 106.522C122.194 106.522 126.087 102.629 126.087 97.8262H125.797C130.6 97.8262 134.782 93.9333 134.782 89.1305Z" fill="#FF9811"/>
</g>
<path d="M0.5 100C0.5 45.0477 45.0477 0.5 100 0.5C154.952 0.5 199.5 45.0477 199.5 100C199.5 154.952 154.952 199.5 100 199.5C45.0477 199.5 0.5 154.952 0.5 100Z" stroke="#EAEBEE"/>
<defs>
<clipPath id="clip0_67_8072">
<path d="M0 100C0 44.7715 44.7715 0 100 0C155.228 0 200 44.7715 200 100C200 155.228 155.228 200 100 200C44.7715 200 0 155.228 0 100Z" fill="white"/>
</clipPath>
</defs>
</svg>
