<svg width="200" height="200" viewBox="0 0 200 200" fill="none" xmlns="http://www.w3.org/2000/svg">
<g clip-path="url(#clip0_67_8077)">
<path d="M100 200C155.228 200 200 155.228 200 100C200 44.7715 155.228 0 100 0C44.7715 0 0 44.7715 0 100C0 155.228 44.7715 200 100 200Z" fill="white"/>
<path d="M100 0C60.3541 0 26.0979 23.0723 9.92285 56.5219H190.077C173.903 23.0723 139.646 0 100 0Z" fill="#0052B4"/>
<path d="M100 200C139.646 200 173.903 176.928 190.078 143.478H9.92285C26.0979 176.928 60.3541 200 100 200Z" fill="#0052B4"/>
<path d="M79.918 104.348L100 69.5652L120.082 104.348H79.918Z" fill="#FFDA44"/>
<path d="M126.087 115.832L100 128.876L73.9131 115.832V98.4414H126.087V115.832Z" fill="#6DA544"/>
<path d="M124.595 71.0574L115.372 80.2804C119.306 84.2144 121.739 89.6492 121.739 95.6523C121.739 107.659 112.006 117.391 100 117.391C87.9943 117.391 78.2611 107.658 78.2611 95.6523C78.2611 89.6492 80.6947 84.2144 84.6287 80.2804L75.4057 71.0574C69.1107 77.3511 65.2178 86.0468 65.2178 95.6523C65.2178 114.862 80.7904 130.435 100 130.435C119.21 130.435 134.783 114.862 134.783 95.6523C134.782 86.0468 130.889 77.3511 124.595 71.0574Z" fill="#FFDA44"/>
</g>
<path d="M0.5 100C0.5 45.0477 45.0477 0.5 100 0.5C154.952 0.5 199.5 45.0477 199.5 100C199.5 154.952 154.952 199.5 100 199.5C45.0477 199.5 0.5 154.952 0.5 100Z" stroke="#EAEBEE"/>
<defs>
<clipPath id="clip0_67_8077">
<path d="M0 100C0 44.7715 44.7715 0 100 0C155.228 0 200 44.7715 200 100C200 155.228 155.228 200 100 200C44.7715 200 0 155.228 0 100Z" fill="white"/>
</clipPath>
</defs>
</svg>
