<svg width="200" height="200" viewBox="0 0 200 200" fill="none" xmlns="http://www.w3.org/2000/svg">
<g clip-path="url(#clip0_67_8088)">
<path d="M100 200C155.228 200 200 155.228 200 100C200 44.7715 155.228 0 100 0C44.7715 0 0 44.7715 0 100C0 155.228 44.7715 200 100 200Z" fill="white"/>
<path d="M60.8694 65.2176H193.78C179.651 27.1375 142.996 0 99.9999 0C72.3851 0 47.3878 11.1949 29.2925 29.2926L60.8694 65.2176Z" fill="#6DA544"/>
<path d="M60.8694 134.782H193.78C179.651 172.863 142.996 200 99.9999 200C72.3851 200 47.3878 188.805 29.2925 170.707L60.8694 134.782Z" fill="#D80027"/>
<path d="M29.2893 29.2891C-9.76309 68.3414 -9.76309 131.658 29.2893 170.711C45.4271 154.573 60.9478 139.052 100 100L29.2893 29.2891Z" fill="#0052B4"/>
<path d="M117.392 82.6086V104.348C117.392 117.66 134.783 121.74 134.783 121.74C134.783 121.74 152.174 117.66 152.174 104.348V82.6086H117.392Z" fill="#DEDDE0"/>
<path d="M130.435 100.435H139.13V113.043H130.435V100.435Z" fill="#786145"/>
<path d="M143.478 95.6522C143.478 90.8495 139.585 86.9565 134.783 86.9565C129.98 86.9565 126.087 90.8495 126.087 95.6522C123.686 95.6522 121.739 97.5987 121.739 99.9999C121.739 102.401 123.686 104.348 126.087 104.348H143.478C145.879 104.348 147.826 102.401 147.826 99.9999C147.826 97.5987 145.88 95.6522 143.478 95.6522Z" fill="#6DA544"/>
</g>
<path d="M0.5 100C0.5 45.0477 45.0477 0.5 100 0.5C154.952 0.5 199.5 45.0477 199.5 100C199.5 154.952 154.952 199.5 100 199.5C45.0477 199.5 0.5 154.952 0.5 100Z" stroke="#EAEBEE"/>
<defs>
<clipPath id="clip0_67_8088">
<path d="M0 100C0 44.7715 44.7715 0 100 0C155.228 0 200 44.7715 200 100C200 155.228 155.228 200 100 200C44.7715 200 0 155.228 0 100Z" fill="white"/>
</clipPath>
</defs>
</svg>
