<svg width="200" height="200" viewBox="0 0 200 200" fill="none" xmlns="http://www.w3.org/2000/svg">
<g clip-path="url(#clip0_67_8096)">
<path d="M91.3043 91.3042C91.3043 91.3042 29.3477 170.725 29.2891 170.71C47.3852 188.807 72.3855 200 100 200C155.228 200 200 155.228 200 99.9999L91.3043 91.3042Z" fill="#338AF3"/>
<path d="M91.3043 100C91.3043 100 29.3477 29.2754 29.2891 29.2895C47.3852 11.193 72.3855 0 100 0C155.228 0 200 44.7719 200 100H91.3043Z" fill="#6DA544"/>
<path d="M29.2893 29.2891C-9.76309 68.3414 -9.76309 131.658 29.2893 170.711C29.2865 170.727 200 100 200 100L29.2893 29.2891Z" fill="#D80027"/>
<path d="M52.174 58.6958C32.9947 58.6958 17.3916 74.2993 17.3916 93.4782V106.522C17.3916 125.701 32.9951 141.304 52.174 141.304C71.3529 141.304 86.9564 125.7 86.9564 106.522V93.4782C86.9568 74.2993 71.3533 58.6958 52.174 58.6958ZM73.9131 106.522C73.9131 116.238 67.5061 124.483 58.6955 127.26V113.044L67.9236 103.816L58.7006 94.5927L58.6955 91.3103V86.9571H45.6525V100L36.4307 109.222L45.6525 118.443V127.261C36.842 124.484 30.435 116.238 30.435 106.522V93.479C30.435 81.4919 40.1873 71.7399 52.174 71.7399C64.1607 71.7399 73.9131 81.4923 73.9131 93.479V106.522Z" fill="#FFDA44"/>
</g>
<path d="M0.5 100C0.5 45.0477 45.0477 0.5 100 0.5C154.952 0.5 199.5 45.0477 199.5 100C199.5 154.952 154.952 199.5 100 199.5C45.0477 199.5 0.5 154.952 0.5 100Z" stroke="#EAEBEE"/>
<defs>
<clipPath id="clip0_67_8096">
<path d="M0 100C0 44.7715 44.7715 0 100 0C155.228 0 200 44.7715 200 100C200 155.228 155.228 200 100 200C44.7715 200 0 155.228 0 100Z" fill="white"/>
</clipPath>
</defs>
</svg>
