<svg width="200" height="200" viewBox="0 0 200 200" fill="none" xmlns="http://www.w3.org/2000/svg">
<g clip-path="url(#clip0_67_8101)">
<path d="M0 100C0 112.232 2.20039 123.949 6.21992 134.783L100 139.131L193.78 134.783C197.8 123.949 200 112.232 200 100C200 87.7681 197.8 76.0509 193.78 65.2177L100 60.8696L6.21992 65.2173C2.20039 76.0509 0 87.7681 0 100H0Z" fill="black"/>
<path d="M99.9998 0C57.0033 0 20.349 27.1375 6.21973 65.2176H193.78C179.651 27.1375 142.996 0 99.9998 0Z" fill="#0052B4"/>
<path d="M193.78 134.782H6.21973C20.349 172.862 57.0033 200 99.9998 200C142.996 200 179.651 172.862 193.78 134.782Z" fill="white"/>
</g>
<path d="M0.5 100C0.5 45.0477 45.0477 0.5 100 0.5C154.952 0.5 199.5 45.0477 199.5 100C199.5 154.952 154.952 199.5 100 199.5C45.0477 199.5 0.5 154.952 0.5 100Z" stroke="#EAEBEE"/>
<defs>
<clipPath id="clip0_67_8101">
<path d="M0 100C0 44.7715 44.7715 0 100 0C155.228 0 200 44.7715 200 100C200 155.228 155.228 200 100 200C44.7715 200 0 155.228 0 100Z" fill="white"/>
</clipPath>
</defs>
</svg>
