<svg width="200" height="200" viewBox="0 0 200 200" fill="none" xmlns="http://www.w3.org/2000/svg">
<g clip-path="url(#clip0_67_8105)">
<path d="M0 100C0 112.233 2.20039 123.95 6.22031 134.784L100 143.478L193.78 134.783C197.8 123.95 200 112.233 200 100C200 87.9356 197.863 76.3704 193.948 65.6622L100 56.522L6.05234 65.6626C2.13711 76.3704 0 87.9356 0 100H0Z" fill="#FFDA44"/>
<path d="M99.9998 200C142.996 200 179.651 172.863 193.78 134.782H6.21973C20.349 172.863 57.0033 200 99.9998 200Z" fill="#D80027"/>
<path d="M99.9998 0C57.0033 0 20.349 27.1375 6.21973 65.2176H193.78C179.651 27.1375 142.996 0 99.9998 0Z" fill="#6DA544"/>
<path d="M100 147.826C126.414 147.826 147.826 126.414 147.826 100C147.826 73.5863 126.414 52.1738 100 52.1738C73.5863 52.1738 52.1738 73.5863 52.1738 100C52.1738 126.414 73.5863 147.826 100 147.826Z" fill="#0052B4"/>
<path d="M99.99 62.9653L108.624 89.5364H136.607L113.959 105.959L122.661 132.609L99.99 116.108L77.3541 132.578L86.0205 105.959L63.3936 89.5364H91.3564L99.99 62.9653Z" fill="#FFDA44"/>
<path d="M134.424 106.613L107.034 97.7133L123.961 74.4164L116.927 69.3047L99.9993 92.6031L83.0731 69.3051L76.038 74.416L92.9645 97.7148L65.5767 106.613L68.2634 114.884L95.6524 105.985V134.782H104.348V105.984L131.736 114.884L134.424 106.613Z" fill="#FFDA44"/>
</g>
<path d="M0.5 100C0.5 45.0477 45.0477 0.5 100 0.5C154.952 0.5 199.5 45.0477 199.5 100C199.5 154.952 154.952 199.5 100 199.5C45.0477 199.5 0.5 154.952 0.5 100Z" stroke="#EAEBEE"/>
<defs>
<clipPath id="clip0_67_8105">
<path d="M0 100C0 44.7715 44.7715 0 100 0C155.228 0 200 44.7715 200 100C200 155.228 155.228 200 100 200C44.7715 200 0 155.228 0 100Z" fill="white"/>
</clipPath>
</defs>
</svg>
