<svg width="200" height="200" viewBox="0 0 200 200" fill="none" xmlns="http://www.w3.org/2000/svg">
<g clip-path="url(#clip0_67_8113)">
<path d="M100 200C155.228 200 200 155.228 200 100C200 44.7715 155.228 0 100 0C44.7715 0 0 44.7715 0 100C0 155.228 44.7715 200 100 200Z" fill="#0052B4"/>
<path d="M100 39.1304L103.238 49.0948H113.715L105.239 55.253L108.477 65.2175L100 59.0589L91.5239 65.2175L94.7618 55.253L86.2856 49.0948H96.7626L100 39.1304Z" fill="#FFDA44"/>
<path d="M56.9588 56.9584L66.2947 61.7147L73.7029 54.3069L72.0635 64.6545L81.399 69.4112L71.051 71.0502L69.4119 81.3987L64.6553 72.0631L54.3076 73.7026L61.7158 66.2944L56.9588 56.9584Z" fill="#FFDA44"/>
<path d="M39.1309 100L49.0953 96.7621V86.2852L55.2531 94.7617L65.218 91.5238L59.059 100L65.218 108.476L55.2531 105.239L49.0953 113.715V103.238L39.1309 100Z" fill="#FFDA44"/>
<path d="M56.9588 143.041L61.7154 133.705L54.3076 126.297L64.6557 127.937L69.4115 118.602L71.051 128.95L81.3986 130.589L72.0643 135.345L73.7029 145.693L66.2947 138.285L56.9588 143.041Z" fill="#FFDA44"/>
<path d="M100 160.87L96.7622 150.905H86.2856L94.7622 144.747L91.5239 134.783L100 140.941L108.477 134.783L105.239 144.747L113.715 150.905H103.238L100 160.87Z" fill="#FFDA44"/>
<path d="M143.042 143.041L133.706 138.285L126.298 145.693L127.937 135.345L118.603 130.589L128.95 128.95L130.589 118.602L135.346 127.937L145.693 126.297L138.285 133.706L143.042 143.041Z" fill="#FFDA44"/>
<path d="M160.87 100L150.905 103.238V113.715L144.747 105.238L134.783 108.476L140.941 100L134.783 91.5238L144.747 94.7617L150.905 86.2852V96.7625L160.87 100Z" fill="#FFDA44"/>
<path d="M143.042 56.9585L138.285 66.2945L145.694 73.7027L135.345 72.0628L130.589 81.3984L128.95 71.0503L118.603 69.4109L127.937 64.6546L126.298 54.3074L133.707 61.7152L143.042 56.9585Z" fill="#FFDA44"/>
</g>
<path d="M0.5 100C0.5 45.0477 45.0477 0.5 100 0.5C154.952 0.5 199.5 45.0477 199.5 100C199.5 154.952 154.952 199.5 100 199.5C45.0477 199.5 0.5 154.952 0.5 100Z" stroke="#EAEBEE"/>
<defs>
<clipPath id="clip0_67_8113">
<path d="M0 100C0 44.7715 44.7715 0 100 0C155.228 0 200 44.7715 200 100C200 155.228 155.228 200 100 200C44.7715 200 0 155.228 0 100Z" fill="white"/>
</clipPath>
</defs>
</svg>
