<svg width="200" height="200" viewBox="0 0 200 200" fill="none" xmlns="http://www.w3.org/2000/svg">
<g clip-path="url(#clip0_67_8124)">
<path d="M200 100C200 155.228 155.228 200 100 200C44.7719 200 0 155.228 0 100C0 100.024 100 0.0109375 100 0C155.228 0 200 44.7719 200 100Z" fill="#0052B4"/>
<path d="M99.7324 100H100C100 99.9102 100 99.8227 100 99.7324C99.9109 99.8219 99.8219 99.9109 99.7324 100Z" fill="white"/>
<path d="M100 52.1738C100 34.5781 100 23.0488 100 0H99.9832C44.7625 0.009375 0 44.777 0 100H52.1738V70.6207L81.5535 100H99.7328L100 99.7324C100 92.9953 100 86.984 100 81.5539L70.6203 52.1738H100Z" fill="white"/>
<path d="M50.5919 13.0435C34.9517 21.9493 21.9493 34.9517 13.0435 50.5919V100H39.1306V39.1313V39.1306H100C100 30.9028 100 23.0646 100 13.0435H50.5919Z" fill="#D80027"/>
<path d="M100 87.7028L64.4716 52.1743H52.1743V52.1751L99.9993 100H100C100 100 100 91.5208 100 87.7028Z" fill="#D80027"/>
<path d="M160.87 117.391V121.739H126.087V117.391H113.043V134.782H121.739V139.13H165.218V134.782H173.913V117.391H160.87Z" fill="#FFDA44"/>
<path d="M113.043 52.1738V100C113.043 123.296 143.478 130.435 143.478 130.435C143.478 130.435 173.913 123.296 173.913 100V52.1738H113.043Z" fill="#338AF3"/>
<path d="M143.477 87.8472C135.869 87.8472 135.869 94.8038 128.26 94.8038C120.652 94.8038 120.652 87.8472 113.044 87.8472V100.021C120.652 100.021 120.652 106.978 128.26 106.978C135.869 106.978 135.869 100.021 143.477 100.021C151.086 100.021 151.086 106.978 158.695 106.978C166.304 106.978 166.304 100.021 173.913 100.021V87.8472C166.304 87.8472 166.304 94.8038 158.695 94.8038C151.086 94.8038 151.086 87.8472 143.477 87.8472Z" fill="#F3F3F3"/>
<path d="M143.477 63.478C135.869 63.478 135.869 70.4347 128.26 70.4347C120.652 70.4347 120.652 63.478 113.044 63.478V75.6519C120.652 75.6519 120.652 82.6085 128.26 82.6085C135.869 82.6085 135.869 75.6519 143.477 75.6519C151.086 75.6519 151.086 82.6085 158.695 82.6085C166.304 82.6085 166.304 75.6519 173.913 75.6519V63.478C166.304 63.478 166.304 70.4347 158.695 70.4347C151.086 70.4347 151.086 63.478 143.477 63.478Z" fill="#F3F3F3"/>
</g>
<path d="M0.5 100C0.5 45.0477 45.0477 0.5 100 0.5C154.952 0.5 199.5 45.0477 199.5 100C199.5 154.952 154.952 199.5 100 199.5C45.0477 199.5 0.5 154.952 0.5 100Z" stroke="#EAEBEE"/>
<defs>
<clipPath id="clip0_67_8124">
<path d="M0 100C0 44.7715 44.7715 0 100 0C155.228 0 200 44.7715 200 100C200 155.228 155.228 200 100 200C44.7715 200 0 155.228 0 100Z" fill="white"/>
</clipPath>
</defs>
</svg>
