<svg width="200" height="200" viewBox="0 0 200 200" fill="none" xmlns="http://www.w3.org/2000/svg">
<g clip-path="url(#clip0_67_8138)">
<path d="M100 200C155.228 200 200 155.228 200 100C200 44.7715 155.228 0 100 0C44.7715 0 0 44.7715 0 100C0 155.228 44.7715 200 100 200Z" fill="white"/>
<path d="M195.652 99.9999L199.152 86.9565C198.571 82.5108 197.699 78.1562 196.556 73.9132H91.3044V0.380371C86.8669 0.762402 82.5134 1.43779 78.261 2.38076L60.8696 13.0433L52.1739 12.1655C47.5978 14.6624 43.238 17.5062 39.1306 20.662V73.9128H3.44502C2.30166 78.1558 1.42979 82.5105 0.848535 86.9562L4.34775 99.9999L0.848145 113.043C1.42939 117.489 2.30127 121.844 3.44463 126.087H39.1302V179.337C43.2376 182.494 47.5978 185.337 52.1735 187.834L65.2169 186.956L78.2602 197.619C82.513 198.561 86.8665 199.237 91.3036 199.619V126.087H196.554C197.698 121.844 198.57 117.489 199.151 113.044L195.652 99.9999Z" fill="#0052B4"/>
<path d="M199.154 86.9566H78.2613H78.2609V2.37695C69.0195 4.42617 60.2582 7.74766 52.1738 12.159V86.9562H0.846484C0.290625 91.2262 0 95.5793 0 100C0 104.421 0.290625 108.774 0.846484 113.043H52.1734H52.1738V187.841C60.2582 192.252 69.0195 195.574 78.2609 197.623V113.045V113.044H199.154C199.709 108.774 200 104.421 200 100C200 95.5793 199.709 91.2262 199.154 86.9566Z" fill="#D80027"/>
</g>
<path d="M0.5 100C0.5 45.0477 45.0477 0.5 100 0.5C154.952 0.5 199.5 45.0477 199.5 100C199.5 154.952 154.952 199.5 100 199.5C45.0477 199.5 0.5 154.952 0.5 100Z" stroke="#EAEBEE"/>
<defs>
<clipPath id="clip0_67_8138">
<path d="M0 100C0 44.7715 44.7715 0 100 0C155.228 0 200 44.7715 200 100C200 155.228 155.228 200 100 200C44.7715 200 0 155.228 0 100Z" fill="white"/>
</clipPath>
</defs>
</svg>
