<svg width="200" height="200" viewBox="0 0 200 200" fill="none" xmlns="http://www.w3.org/2000/svg">
<g clip-path="url(#clip0_67_8142)">
<path d="M200 100C200 155.228 155.228 200 100 200C44.7719 200 0 155.228 0 100C0 100.024 100 0.0109375 100 0C155.228 0 200 44.7719 200 100Z" fill="#338AF3"/>
<path d="M100 47.8262V81.5539L65.2176 47.8262H100Z" fill="#0052B4"/>
<path d="M52.1738 100H81.5535L52.1738 60.8696L47.8262 91.3044L52.1738 100Z" fill="#0052B4"/>
<path d="M99.7324 100H100C100 99.9102 100 99.8227 100 99.7324C99.9109 99.8219 99.8219 99.9109 99.7324 100Z" fill="white"/>
<path d="M100 52.1738C100 34.5781 100 23.0488 100 0H99.9832C44.7625 0.009375 0 44.777 0 100H52.1738V70.6207L81.5535 100H99.7332C99.8223 99.9109 99.9113 99.8219 100.001 99.7324C100.001 92.9953 100.001 86.984 100.001 81.5539L70.6203 52.1738H100Z" fill="white"/>
<path d="M50.5918 13.0435C34.9516 21.9493 21.9492 34.9517 13.0434 50.5919V100H39.1305V39.1313V39.1306H100C100 30.9028 100 23.0646 100 13.0435H50.5918Z" fill="#D80027"/>
<path d="M100 87.7028L64.4715 52.1743H52.1742V52.1751L99.9992 100H100C100 100 100 91.5208 100 87.7028Z" fill="#D80027"/>
<path d="M113.043 65.2177V99.9997C113.043 123.297 143.478 130.435 143.478 130.435C143.478 130.435 173.913 123.297 173.913 99.9997V65.2177L143.478 56.522L113.043 65.2177Z" fill="#F3F3F3"/>
<path d="M173.913 65.2177V52.1743H113.043V65.2177H139.13V91.3052H113.043V100V100.001L139.13 100.001V129.102C141.754 130.03 143.478 130.435 143.478 130.435C143.478 130.435 145.202 130.031 147.825 129.102V100.001H173.913V100V91.3048H147.825V65.2173H173.913V65.2177Z" fill="#D80027"/>
</g>
<path d="M0.5 100C0.5 45.0477 45.0477 0.5 100 0.5C154.952 0.5 199.5 45.0477 199.5 100C199.5 154.952 154.952 199.5 100 199.5C45.0477 199.5 0.5 154.952 0.5 100Z" stroke="#EAEBEE"/>
<defs>
<clipPath id="clip0_67_8142">
<path d="M0 100C0 44.7715 44.7715 0 100 0C155.228 0 200 44.7715 200 100C200 155.228 155.228 200 100 200C44.7715 200 0 155.228 0 100Z" fill="white"/>
</clipPath>
</defs>
</svg>
