<svg width="200" height="200" viewBox="0 0 200 200" fill="none" xmlns="http://www.w3.org/2000/svg">
<g clip-path="url(#clip0_67_8163)">
<path d="M100 200C155.228 200 200 155.228 200 100C200 44.7715 155.228 0 100 0C44.7715 0 0 44.7715 0 100C0 155.228 44.7715 200 100 200Z" fill="white"/>
<path d="M12.1589 52.1738H187.841C170.88 21.0895 137.904 0 100 0C62.0957 0 29.1195 21.0895 12.1589 52.1738Z" fill="#D80027"/>
<path d="M100 200C137.904 200 170.88 178.911 187.841 147.826H12.1589C29.1195 178.911 62.0957 200 100 200Z" fill="#D80027"/>
<path d="M134.782 100C134.782 119.21 119.21 130.435 100 130.435C80.7902 130.435 65.2175 119.21 65.2175 100C65.2175 80.7898 80.7902 65.2175 100 65.2175C119.21 65.2175 134.782 80.7898 134.782 100Z" fill="#FFDA44"/>
<path d="M134.782 100C134.782 119.21 119.21 134.782 100 134.782C80.7902 134.782 65.2175 119.21 65.2175 100" fill="#0052B4"/>
<path d="M78.261 91.3044H86.9567V108.696H78.261V91.3044Z" fill="#D80027"/>
<path d="M113.043 91.3044H121.739V108.696H113.043V91.3044Z" fill="#D80027"/>
<path d="M95.6523 78.261H104.348V108.696H95.6523V78.261Z" fill="#D80027"/>
</g>
<path d="M0.5 100C0.5 45.0477 45.0477 0.5 100 0.5C154.952 0.5 199.5 45.0477 199.5 100C199.5 154.952 154.952 199.5 100 199.5C45.0477 199.5 0.5 154.952 0.5 100Z" stroke="#EAEBEE"/>
<defs>
<clipPath id="clip0_67_8163">
<path d="M0 100C0 44.7715 44.7715 0 100 0C155.228 0 200 44.7715 200 100C200 155.228 155.228 200 100 200C44.7715 200 0 155.228 0 100Z" fill="white"/>
</clipPath>
</defs>
</svg>
