<svg width="200" height="200" viewBox="0 0 200 200" fill="none" xmlns="http://www.w3.org/2000/svg">
<g clip-path="url(#clip0_67_8178)">
<path d="M200 100C200 87.7681 197.8 76.0505 193.78 65.2177L100 60.8696L6.21992 65.2173C2.20039 76.0505 0 87.7681 0 100C0 112.232 2.20039 123.95 6.21992 134.783L100 139.131L193.78 134.783C197.8 123.95 200 112.232 200 100Z" fill="white"/>
<path d="M100 200C142.997 200 179.651 172.863 193.78 134.782H6.21997C20.3493 172.863 57.0036 200 100 200Z" fill="#0052B4"/>
<path d="M6.21997 65.2176H193.781C179.651 27.1375 142.997 0 100 0C57.0036 0 20.3493 27.1375 6.21997 65.2176Z" fill="#6DA544"/>
</g>
<path d="M0.5 100C0.5 45.0477 45.0477 0.5 100 0.5C154.952 0.5 199.5 45.0477 199.5 100C199.5 154.952 154.952 199.5 100 199.5C45.0477 199.5 0.5 154.952 0.5 100Z" stroke="#EAEBEE"/>
<defs>
<clipPath id="clip0_67_8178">
<path d="M0 100C0 44.7715 44.7715 0 100 0C155.228 0 200 44.7715 200 100C200 155.228 155.228 200 100 200C44.7715 200 0 155.228 0 100Z" fill="white"/>
</clipPath>
</defs>
</svg>
