<svg width="200" height="200" viewBox="0 0 200 200" fill="none" xmlns="http://www.w3.org/2000/svg">
<g clip-path="url(#clip0_67_8199)">
<path d="M0 100C0 112.232 2.20039 123.949 6.21992 134.783L100 139.131L193.78 134.783C197.8 123.949 200 112.232 200 100C200 87.7681 197.8 76.0509 193.78 65.2177L100 60.8696L6.21992 65.2173C2.20039 76.0509 0 87.7681 0 100H0Z" fill="#FFDA44"/>
<path d="M100 0C57.0036 0 20.3493 27.1375 6.21997 65.2176H193.781C179.651 27.1375 142.997 0 100 0Z" fill="#D80027"/>
<path d="M193.78 134.782H6.21997C20.3493 172.862 57.0036 200 100 200C142.997 200 179.651 172.862 193.78 134.782Z" fill="#496E2D"/>
<path d="M99.9991 65.2175L108.632 91.7878H136.573L113.97 108.211L122.603 134.782L99.9991 118.36L77.3956 134.782L86.03 108.211L63.4272 91.7878H91.3663L99.9991 65.2175Z" fill="black"/>
</g>
<path d="M0.5 100C0.5 45.0477 45.0477 0.5 100 0.5C154.952 0.5 199.5 45.0477 199.5 100C199.5 154.952 154.952 199.5 100 199.5C45.0477 199.5 0.5 154.952 0.5 100Z" stroke="#EAEBEE"/>
<defs>
<clipPath id="clip0_67_8199">
<path d="M0 100C0 44.7715 44.7715 0 100 0C155.228 0 200 44.7715 200 100C200 155.228 155.228 200 100 200C44.7715 200 0 155.228 0 100Z" fill="white"/>
</clipPath>
</defs>
</svg>
