<svg width="200" height="200" viewBox="0 0 200 200" fill="none" xmlns="http://www.w3.org/2000/svg">
<g clip-path="url(#clip0_67_8204)">
<path d="M100 200C155.228 200 200 155.228 200 100C200 44.7715 155.228 0 100 0C44.7715 0 0 44.7715 0 100C0 155.228 44.7715 200 100 200Z" fill="#F9F9F9"/>
<path d="M100 200C142.996 200 179.651 172.863 193.78 134.782H6.21973C20.3494 172.863 57.0033 200 100 200Z" fill="#D80027"/>
<path d="M139.13 82.6085V69.5652H143.478V60.8695H134.782V65.2175H126.087V60.8695H117.391V69.5652H121.739V82.6085H113.043V52.1746H117.391V43.4792H108.696V47.8261H104.348V43.4792H95.6523V47.8261H91.3043V43.4792H82.6086V52.1746H86.9566V82.6085H78.2609V69.5652H82.6086V60.8695H73.9129V65.2175H65.2176V60.8695H56.5219V69.5652H60.8695V82.6085H52.1738V117.391H147.826V82.6085H139.13Z" fill="#D80027"/>
<path d="M99.9999 113.043C92.7964 113.043 86.9565 118.883 86.9565 126.087C86.9565 131.765 90.587 136.595 95.6522 138.385V156.522H82.6089V173.913H104.348V138.386C109.413 136.595 113.044 131.766 113.044 126.087C113.043 118.884 107.203 113.043 99.9999 113.043ZM99.9999 130.435C97.5987 130.435 95.6522 128.488 95.6522 126.087C95.6522 123.686 97.5987 121.74 99.9999 121.74C102.401 121.74 104.348 123.686 104.348 126.087C104.348 128.488 102.401 130.435 99.9999 130.435Z" fill="#FFDA44"/>
</g>
<path d="M0.5 100C0.5 45.0477 45.0477 0.5 100 0.5C154.952 0.5 199.5 45.0477 199.5 100C199.5 154.952 154.952 199.5 100 199.5C45.0477 199.5 0.5 154.952 0.5 100Z" stroke="#EAEBEE"/>
<defs>
<clipPath id="clip0_67_8204">
<path d="M0 100C0 44.7715 44.7715 0 100 0C155.228 0 200 44.7715 200 100C200 155.228 155.228 200 100 200C44.7715 200 0 155.228 0 100Z" fill="white"/>
</clipPath>
</defs>
</svg>
