<svg width="200" height="200" viewBox="0 0 200 200" fill="none" xmlns="http://www.w3.org/2000/svg">
<g clip-path="url(#clip0_67_8218)">
<path d="M0 100C0 44.7719 44.7719 0 100 0C155.228 0 200 44.7719 200 100C195.652 100 100 113.043 100 113.043L0 100Z" fill="white"/>
<path d="M200 100C200 155.228 155.228 200 100 200C44.7719 200 0 155.228 0 100" fill="#D80027"/>
<path d="M69.5654 147.826C95.9791 147.826 117.392 126.414 117.392 100C117.392 73.5863 95.9791 52.1738 69.5654 52.1738C43.1518 52.1738 21.7393 73.5863 21.7393 100C21.7393 126.414 43.1518 147.826 69.5654 147.826Z" fill="white"/>
<path d="M21.7393 100C21.7393 73.5871 43.1518 52.1738 69.5654 52.1738C95.9795 52.1738 117.392 73.5867 117.392 100" fill="#D80027"/>
</g>
<path d="M0.5 100C0.5 45.0477 45.0477 0.5 100 0.5C154.952 0.5 199.5 45.0477 199.5 100C199.5 154.952 154.952 199.5 100 199.5C45.0477 199.5 0.5 154.952 0.5 100Z" stroke="#EAEBEE"/>
<defs>
<clipPath id="clip0_67_8218">
<path d="M0 100C0 44.7715 44.7715 0 100 0C155.228 0 200 44.7715 200 100C200 155.228 155.228 200 100 200C44.7715 200 0 155.228 0 100Z" fill="white"/>
</clipPath>
</defs>
</svg>
