<svg width="200" height="200" viewBox="0 0 200 200" fill="none" xmlns="http://www.w3.org/2000/svg">
<g clip-path="url(#clip0_67_8210)">
<path d="M100 200C155.228 200 200 155.228 200 100C200 44.7715 155.228 0 100 0C44.7715 0 0 44.7715 0 100C0 155.228 44.7715 200 100 200Z" fill="white"/>
<path d="M100 73.9128H196.555C194.048 64.6104 190.237 55.8444 185.323 47.8257H100V73.9128Z" fill="#338AF3"/>
<path d="M37.7511 178.261H162.248C171.375 170.992 179.201 162.163 185.322 152.174H14.6772C20.7987 162.163 28.6253 170.992 37.7511 178.261Z" fill="#338AF3"/>
<path d="M34.7823 24.1948C26.9206 30.9647 20.1241 38.937 14.6772 47.8261H34.7823V24.1948Z" fill="#338AF3"/>
<path d="M100 100C100 89.814 100 81.2894 100 73.9128H60.8695V100H34.7824V73.9128H3.44492C1.20313 82.2308 0 90.9738 0 100C0 109.026 1.20313 117.769 3.44492 126.087H196.555C198.797 117.769 200 109.026 200 100H100Z" fill="#338AF3"/>
<path d="M100 0C86.1138 0 72.8892 2.8332 60.8696 7.94844V47.8262H100C100 38.7199 100 30.975 100 21.7391H162.249C145.167 8.13438 123.535 0 100 0Z" fill="#338AF3"/>
</g>
<path d="M0.5 100C0.5 45.0477 45.0477 0.5 100 0.5C154.952 0.5 199.5 45.0477 199.5 100C199.5 154.952 154.952 199.5 100 199.5C45.0477 199.5 0.5 154.952 0.5 100Z" stroke="#EAEBEE"/>
<defs>
<clipPath id="clip0_67_8210">
<path d="M0 100C0 44.7715 44.7715 0 100 0C155.228 0 200 44.7715 200 100C200 155.228 155.228 200 100 200C44.7715 200 0 155.228 0 100Z" fill="white"/>
</clipPath>
</defs>
</svg>
