<svg width="200" height="200" viewBox="0 0 200 200" fill="none" xmlns="http://www.w3.org/2000/svg">
<g clip-path="url(#clip0_67_8223)">
<path d="M100 200C155.228 200 200 155.228 200 100C200 44.7715 155.228 0 100 0C44.7715 0 0 44.7715 0 100C0 155.228 44.7715 200 100 200Z" fill="#FFDA44"/>
<path d="M43.6377 17.3914C59.6865 6.42031 79.092 0 99.9998 0C120.908 0 140.313 6.42031 156.362 17.3914L99.9998 21.7391L43.6377 17.3914Z" fill="#A2001D"/>
<path d="M99.9999 100L93.6179 93.6179L91.9233 96.6535L99.9999 100Z" fill="#0052B4"/>
<path d="M29.2893 29.2891C-9.76309 68.3414 -9.76309 131.658 29.2893 170.711C45.4271 154.573 60.9478 139.052 100 100L29.2893 29.2891Z" fill="#496E2D"/>
<path d="M170.711 29.2891C209.763 68.3414 209.763 131.658 170.711 170.711C154.573 154.573 139.052 139.052 100 100L170.711 29.2891Z" fill="#496E2D"/>
<path d="M100 134.782C119.21 134.782 134.783 119.21 134.783 100C134.783 80.7902 119.21 65.2175 100 65.2175C80.7904 65.2175 65.2178 80.7902 65.2178 100C65.2178 119.21 80.7904 134.782 100 134.782Z" fill="#A2001D"/>
<path d="M99.9995 65.2175L107.796 89.2132H133.03L112.616 104.046L120.413 128.043L99.9995 113.213L79.5854 128.043L87.3835 104.046L66.9702 89.2132H92.2022L99.9995 65.2175Z" fill="#FFDA44"/>
<path d="M99.9999 0C99.9886 0 99.9776 0.000390625 99.9663 0.000390625H100.033C100.022 0.000390625 100.011 0 99.9999 0Z" fill="#FFDA44"/>
<path d="M100.033 0H99.9667C72.3679 0.00898437 47.3831 11.1977 29.2944 29.2844H170.706C152.617 11.1977 127.632 0.00898437 100.033 0Z" fill="#A2001D"/>
<path d="M29.2944 170.716C47.3905 188.809 72.3882 200 99.9995 200C127.611 200 152.608 188.809 170.705 170.716H29.2944Z" fill="#A2001D"/>
<path d="M100 10.8696L101.619 15.8517H106.857L102.62 18.931L104.239 23.913L100 20.8341L95.7621 23.913L97.3812 18.931L93.1426 15.8517H98.3809L100 10.8696Z" fill="#FFDA44"/>
<path d="M75.751 10.8696L77.3701 15.8517H82.6084L78.3705 18.931L79.9897 23.913L75.751 20.8341L71.5135 23.913L73.1322 18.931L68.8936 15.8517H74.1318L75.751 10.8696Z" fill="#FFDA44"/>
<path d="M124.249 10.8696L125.868 15.8517H131.106L126.868 18.931L128.487 23.913L124.249 20.8341L120.011 23.913L121.63 18.931L117.391 15.8517H122.629L124.249 10.8696Z" fill="#FFDA44"/>
<path d="M100 176.087L101.619 181.069H106.857L102.62 184.148L104.239 189.131L100 186.051L95.7621 189.131L97.3812 184.148L93.1426 181.069H98.3809L100 176.087Z" fill="#FFDA44"/>
<path d="M75.751 176.087L77.3701 181.069H82.6084L78.3705 184.148L79.9897 189.131L75.751 186.051L71.5135 189.131L73.1322 184.148L68.8936 181.069H74.1318L75.751 176.087Z" fill="#FFDA44"/>
<path d="M124.249 176.087L125.868 181.069H131.106L126.868 184.148L128.487 189.131L124.249 186.051L120.011 189.131L121.63 184.148L117.391 181.069H122.629L124.249 176.087Z" fill="#FFDA44"/>
<path d="M30.4697 98.3484C33.038 102.407 31.831 107.778 27.7728 110.347C23.715 112.916 18.3431 111.709 15.7744 107.65C11.124 100.304 13.8205 88.3047 13.8205 88.3047C13.8205 88.3047 25.8189 91.0012 30.4697 98.3484Z" fill="#FFDA44"/>
<path d="M25.4478 111.021C27.8489 111.021 29.7954 109.075 29.7954 106.674C29.7954 104.273 27.8489 102.326 25.4478 102.326C23.0466 102.326 21.1001 104.273 21.1001 106.674C21.1001 109.075 23.0466 111.021 25.4478 111.021Z" fill="#A2001D"/>
</g>
<path d="M0.5 100C0.5 45.0477 45.0477 0.5 100 0.5C154.952 0.5 199.5 45.0477 199.5 100C199.5 154.952 154.952 199.5 100 199.5C45.0477 199.5 0.5 154.952 0.5 100Z" stroke="#EAEBEE"/>
<defs>
<clipPath id="clip0_67_8223">
<path d="M0 100C0 44.7715 44.7715 0 100 0C155.228 0 200 44.7715 200 100C200 155.228 155.228 200 100 200C44.7715 200 0 155.228 0 100Z" fill="white"/>
</clipPath>
</defs>
</svg>
