<svg width="200" height="200" viewBox="0 0 200 200" fill="none" xmlns="http://www.w3.org/2000/svg">
<g clip-path="url(#clip0_67_8246)">
<path d="M43.6377 182.609C59.6861 193.579 79.0924 200 99.9998 200C120.907 200 140.313 193.579 156.362 182.609L99.9998 173.913L43.6377 182.609Z" fill="#D80027"/>
<path d="M156.362 17.3914C140.313 6.4207 120.907 0 99.9998 0C79.0924 0 59.6861 6.4207 43.6377 17.3914L99.9998 26.0871L156.362 17.3914Z" fill="#D80027"/>
<path d="M200 99.9999C200 66.9101 180.189 33.6796 156.362 17.3914H43.6379C17.293 35.4007 0 65.6796 0 99.9999C0 134.321 17.293 164.599 43.6379 182.609H156.362C182.707 164.599 200 134.321 200 99.9999Z" fill="#0052B4"/>
<path d="M94.3411 163.124C92.9747 161.952 60.8696 134.043 60.8696 100C60.8696 65.9574 92.9743 38.0477 94.3411 36.8762L100 32.0254L105.659 36.8758C107.025 38.0477 139.131 65.957 139.131 100C139.131 134.043 107.026 161.953 105.659 163.124L100 167.975L94.3411 163.124Z" fill="#D80027"/>
<path d="M130.435 99.9999C130.435 69.5651 100 43.478 100 43.478C100 43.478 69.5654 69.5659 69.5654 99.9999C69.5654 109.31 72.4158 118.212 76.3697 126.087H123.631C127.585 118.212 130.435 109.31 130.435 99.9999Z" fill="#338AF3"/>
<path d="M130.435 100C130.435 109.311 127.585 118.212 123.631 126.087L100 130.435L76.3697 126.087C72.4158 118.213 69.5654 109.311 69.5654 100H130.435Z" fill="#0052B4"/>
<path d="M100 156.522C100 156.522 114.659 143.953 123.631 126.087H76.3696C85.3407 143.953 100 156.522 100 156.522Z" fill="#FFDA44"/>
<path d="M80.4346 82.6086H119.565L99.9998 102.174L80.4346 82.6086Z" fill="#6DA544"/>
<path d="M93.478 95.6523H106.521V134.783H93.478V95.6523Z" fill="#A2001D"/>
</g>
<path d="M0.5 100C0.5 45.0477 45.0477 0.5 100 0.5C154.952 0.5 199.5 45.0477 199.5 100C199.5 154.952 154.952 199.5 100 199.5C45.0477 199.5 0.5 154.952 0.5 100Z" stroke="#EAEBEE"/>
<defs>
<clipPath id="clip0_67_8246">
<path d="M0 100C0 44.7715 44.7715 0 100 0C155.228 0 200 44.7715 200 100C200 155.228 155.228 200 100 200C44.7715 200 0 155.228 0 100Z" fill="white"/>
</clipPath>
</defs>
</svg>
