<svg width="200" height="200" viewBox="0 0 200 200" fill="none" xmlns="http://www.w3.org/2000/svg">
<g clip-path="url(#clip0_67_8257)">
<path d="M100 200C155.228 200 200 155.228 200 100C200 44.7715 155.228 0 100 0C44.7715 0 0 44.7715 0 100C0 155.228 44.7715 200 100 200Z" fill="white"/>
<path d="M200 99.9999C200 60.3539 176.928 26.0976 143.478 9.92261V190.077C176.928 173.902 200 139.646 200 99.9999Z" fill="#338AF3"/>
<path d="M0 99.9999C0 139.646 23.0723 173.902 56.5219 190.077V9.92261C23.0723 26.0976 0 60.3539 0 99.9999Z" fill="#338AF3"/>
<path d="M126.132 116.909L109.224 100.001L125.318 83.905L124.589 75.4042L119.981 70.7957L100 90.7769L80.0189 70.7957L75.411 75.4042L74.6817 83.905L90.7767 100.001L73.8677 116.909L83.0911 126.132L100 109.224L116.909 126.132L126.132 116.909Z" fill="#ACABB1"/>
<path d="M124.595 75.405L115.372 84.6281C119.306 88.5621 121.74 93.9968 121.74 100C121.74 112.006 112.006 121.739 100.001 121.739C87.9947 121.739 78.2611 112.006 78.2611 100C78.2611 93.9968 80.6947 88.5621 84.6287 84.6281L75.4057 75.405C69.1107 81.6988 65.2178 90.3945 65.2178 100C65.2178 119.21 80.7904 134.782 100 134.782C119.21 134.782 134.783 119.21 134.783 100C134.783 90.3949 130.89 81.6992 124.595 75.405Z" fill="#6DA544"/>
</g>
<path d="M0.5 100C0.5 45.0477 45.0477 0.5 100 0.5C154.952 0.5 199.5 45.0477 199.5 100C199.5 154.952 154.952 199.5 100 199.5C45.0477 199.5 0.5 154.952 0.5 100Z" stroke="#EAEBEE"/>
<defs>
<clipPath id="clip0_67_8257">
<path d="M0 100C0 44.7715 44.7715 0 100 0C155.228 0 200 44.7715 200 100C200 155.228 155.228 200 100 200C44.7715 200 0 155.228 0 100Z" fill="white"/>
</clipPath>
</defs>
</svg>
