<svg width="200" height="200" viewBox="0 0 200 200" fill="none" xmlns="http://www.w3.org/2000/svg">
<g clip-path="url(#clip0_67_8268)">
<path d="M100 0C90.9744 0 82.2307 1.20313 73.9131 3.44492L65.2178 100L73.9135 196.555C82.2307 198.797 90.9744 200 100 200C155.228 200 200 155.228 200 100C200 44.7719 155.228 0 100 0Z" fill="#FFDA44"/>
<path d="M65.2178 100L73.9135 196.555C82.2307 198.797 90.9744 200 100 200C155.228 200 200 155.228 200 100H65.2178Z" fill="#6DA544"/>
<path d="M0 100C0 137.904 21.0898 170.881 52.1738 187.841V12.1589C21.0898 29.1191 0 62.0957 0 100Z" fill="#D80027"/>
<path d="M0 99.9999C0 146.203 31.3363 185.08 73.9129 196.555V3.44482C31.3363 14.9198 0 53.7972 0 99.9999Z" fill="#D80027"/>
<path d="M37.7877 73.9128L44.2623 93.841H65.2178L48.2654 106.158L54.7396 126.087L37.7877 113.77L20.835 126.087L27.3107 106.158L10.3584 93.841H31.3127L37.7877 73.9128Z" fill="black"/>
</g>
<path d="M0.5 100C0.5 45.0477 45.0477 0.5 100 0.5C154.952 0.5 199.5 45.0477 199.5 100C199.5 154.952 154.952 199.5 100 199.5C45.0477 199.5 0.5 154.952 0.5 100Z" stroke="#EAEBEE"/>
<defs>
<clipPath id="clip0_67_8268">
<path d="M0 100C0 44.7715 44.7715 0 100 0C155.228 0 200 44.7715 200 100C200 155.228 155.228 200 100 200C44.7715 200 0 155.228 0 100Z" fill="white"/>
</clipPath>
</defs>
</svg>
