<svg width="200" height="200" viewBox="0 0 200 200" fill="none" xmlns="http://www.w3.org/2000/svg">
<g clip-path="url(#clip0_67_8275)">
<path d="M134.783 6.22031C123.95 2.20039 112.232 0 99.9998 0C87.7682 0 76.051 2.20039 65.2182 6.21953L60.8701 100L65.2178 193.78C76.051 197.8 87.7682 200 99.9998 200C112.233 200 123.95 197.8 134.783 193.78L139.131 100L134.783 6.22031Z" fill="#FFDA44"/>
<path d="M0 100C0 142.996 27.1375 179.651 65.2176 193.78V6.21948C27.1375 20.3492 0 57.0031 0 100Z" fill="#D80027"/>
<path d="M200 100C200 57.0031 172.862 20.3492 134.782 6.21948V193.78C172.862 179.651 200 142.996 200 100Z" fill="#6DA544"/>
</g>
<path d="M0.5 100C0.5 45.0477 45.0477 0.5 100 0.5C154.952 0.5 199.5 45.0477 199.5 100C199.5 154.952 154.952 199.5 100 199.5C45.0477 199.5 0.5 154.952 0.5 100Z" stroke="#EAEBEE"/>
<defs>
<clipPath id="clip0_67_8275">
<path d="M0 100C0 44.7715 44.7715 0 100 0C155.228 0 200 44.7715 200 100C200 155.228 155.228 200 100 200C44.7715 200 0 155.228 0 100Z" fill="white"/>
</clipPath>
</defs>
</svg>
