<svg width="200" height="200" viewBox="0 0 200 200" fill="none" xmlns="http://www.w3.org/2000/svg">
<g clip-path="url(#clip0_67_8279)">
<path d="M100 200C155.228 200 200 155.228 200 100C200 44.7715 155.228 0 100 0C44.7715 0 0 44.7715 0 100C0 155.228 44.7715 200 100 200Z" fill="white"/>
<path d="M99.9999 0C82.3198 0 65.7151 4.59453 51.3042 12.6453V187.355C65.7155 195.405 82.3198 200 99.9999 200C155.228 200 200 155.228 200 100C200 44.7719 155.228 0 99.9999 0Z" fill="#6DA544"/>
<path d="M51.5983 12.481C45.3073 15.9673 39.4331 20.111 34.0663 24.822C34.6089 24.3462 35.1569 23.8759 35.7093 23.4118L112.297 100L35.7089 176.588C35.1562 176.124 34.6085 175.654 34.0659 175.178C39.4327 179.889 45.3073 184.033 51.5979 187.519L200 100L51.5983 12.481Z" fill="white"/>
<path d="M43.1522 17.7273C40.1026 19.839 37.1737 22.1113 34.3827 24.5398L99.9999 99.9999L34.3823 175.46C37.1733 177.889 40.1022 180.161 43.1519 182.273L182.882 99.9999L43.1522 17.7273Z" fill="#FFDA44"/>
<path d="M35.709 23.4116C33.4859 25.2796 31.3406 27.2378 29.2891 29.289L91.3043 99.9999L29.2891 170.711C31.3406 172.762 33.4855 174.721 35.709 176.588L112.297 99.9999L35.709 23.4116Z" fill="black"/>
<path d="M29.2893 29.2891C-9.76309 68.3414 -9.76309 131.658 29.2893 170.711C45.4271 154.573 60.9478 139.052 100 100L29.2893 29.2891Z" fill="#D80027"/>
</g>
<path d="M0.5 100C0.5 45.0477 45.0477 0.5 100 0.5C154.952 0.5 199.5 45.0477 199.5 100C199.5 154.952 154.952 199.5 100 199.5C45.0477 199.5 0.5 154.952 0.5 100Z" stroke="#EAEBEE"/>
<defs>
<clipPath id="clip0_67_8279">
<path d="M0 100C0 44.7715 44.7715 0 100 0C155.228 0 200 44.7715 200 100C200 155.228 155.228 200 100 200C44.7715 200 0 155.228 0 100Z" fill="white"/>
</clipPath>
</defs>
</svg>
