<svg width="200" height="200" viewBox="0 0 200 200" fill="none" xmlns="http://www.w3.org/2000/svg">
<g clip-path="url(#clip0_67_8286)">
<path d="M200 100C200 155.228 155.228 200 100 200C44.7719 200 0 155.228 0 100C0 44.7719 100 0 100 0C100 0 200 44.7719 200 100Z" fill="#A2001D"/>
<path d="M0 100C0 44.7719 44.7719 0 100 0C155.228 0 200 44.7719 200 100" fill="#0052B4"/>
<path d="M134.782 126.087L100 121.739L65.2176 126.087V73.9128H134.782V126.087Z" fill="white"/>
<path d="M100 121.739C109.605 121.739 117.391 113.953 117.391 104.348C117.391 94.7427 109.605 86.9563 100 86.9563C90.395 86.9563 82.6086 94.7427 82.6086 104.348C82.6086 113.953 90.395 121.739 100 121.739Z" fill="#0052B4"/>
<path d="M100 113.043C104.802 113.043 108.696 109.15 108.696 104.348C108.696 99.5451 104.802 95.6519 100 95.6519C95.1975 95.6519 91.3043 99.5451 91.3043 104.348C91.3043 109.15 95.1975 113.043 100 113.043Z" fill="#A2001D"/>
<path d="M86.9566 82.6086H113.043L100 95.6524L86.9566 82.6086Z" fill="#6DA544"/>
<path d="M95.6523 91.3042H104.348V117.391H95.6523V91.3042Z" fill="#FFDA44"/>
<path d="M113.913 114.782H86.0863L65.2176 126.087H134.782L113.913 114.782Z" fill="#6DA544"/>
</g>
<path d="M0.5 100C0.5 45.0477 45.0477 0.5 100 0.5C154.952 0.5 199.5 45.0477 199.5 100C199.5 154.952 154.952 199.5 100 199.5C45.0477 199.5 0.5 154.952 0.5 100Z" stroke="#EAEBEE"/>
<defs>
<clipPath id="clip0_67_8286">
<path d="M0 100C0 44.7715 44.7715 0 100 0C155.228 0 200 44.7715 200 100C200 155.228 155.228 200 100 200C44.7715 200 0 155.228 0 100Z" fill="white"/>
</clipPath>
</defs>
</svg>
