<svg width="200" height="200" viewBox="0 0 200 200" fill="none" xmlns="http://www.w3.org/2000/svg">
<g clip-path="url(#clip0_67_8295)">
<path d="M100 200C155.228 200 200 155.228 200 100C200 44.7715 155.228 0 100 0C44.7715 0 0 44.7715 0 100C0 155.228 44.7715 200 100 200Z" fill="white"/>
<path d="M100 200C125.358 200 148.507 190.556 166.135 175H33.8649C51.4926 190.556 74.6418 200 100 200Z" fill="#D80027"/>
<path d="M3.15039 125C5.43359 133.869 8.90469 142.262 13.3813 150H186.618C191.095 142.262 194.566 133.869 196.849 125L100 117.391L3.15039 125Z" fill="#0052B4"/>
<path d="M196.85 75C194.566 66.1305 191.095 57.7383 186.619 50L100 47.8262C100 30.3602 100 13.8535 100 0C92.5715 0 85.3316 0.810547 78.3648 2.34687C78.2312 2.37656 13.0433 53.7961 13.0433 100C14.7101 100.29 100 108.696 100 108.696C100 108.696 100 89.6484 100 75H196.85Z" fill="#0052B4"/>
<path d="M100 62.3914V12.3914H68.3301L78.368 2.35352C37.1605 11.4418 5.49844 45.9434 0.652344 88.5871C0.226562 92.3332 0 96.1398 0 100H50.6523V80.0691L70.7805 100H106.556L68.3297 62.3914H100Z" fill="white"/>
<path d="M100.046 100L62.4371 62.3914H50.6523V62.3918L88.2606 100H38.0434V50H186.619C181.174 40.5887 174.238 32.1496 166.136 25H38.0434V21.5137C27.9543 29.4891 19.4418 39.3672 13.0434 50.607V100H0C0 108.632 1.09375 117.01 3.15039 125H196.85C198.906 117.009 200 108.632 200 100H100.046Z" fill="#D80027"/>
</g>
<path d="M0.5 100C0.5 45.0477 45.0477 0.5 100 0.5C154.952 0.5 199.5 45.0477 199.5 100C199.5 154.952 154.952 199.5 100 199.5C45.0477 199.5 0.5 154.952 0.5 100Z" stroke="#EAEBEE"/>
<defs>
<clipPath id="clip0_67_8295">
<path d="M0 100C0 44.7715 44.7715 0 100 0C155.228 0 200 44.7715 200 100C200 155.228 155.228 200 100 200C44.7715 200 0 155.228 0 100Z" fill="white"/>
</clipPath>
</defs>
</svg>
