<svg width="200" height="200" viewBox="0 0 200 200" fill="none" xmlns="http://www.w3.org/2000/svg">
<g clip-path="url(#clip0_67_8303)">
<path d="M100 200C155.228 200 200 155.228 200 100C200 44.7715 155.228 0 100 0C44.7715 0 0 44.7715 0 100C0 155.228 44.7715 200 100 200Z" fill="white"/>
<path d="M100 200C139.646 200 173.902 176.928 190.077 143.478H9.92267C26.0977 176.928 60.3539 200 100 200Z" fill="#338AF3"/>
<path d="M100 0C60.3539 0 26.0977 23.0723 9.92267 56.5219H190.077C173.902 23.0723 139.646 0 100 0Z" fill="#338AF3"/>
<path d="M61.541 65.2175L64.7785 75.182H75.2555L66.7797 81.3398L70.0176 91.3042L61.541 85.146L53.0645 91.3042L56.3023 81.3398L47.8262 75.182H58.3031L61.541 65.2175Z" fill="#338AF3"/>
<path d="M61.541 108.696L64.7785 118.661H75.2555L66.7797 124.818L70.0176 134.783L61.541 128.624L53.0645 134.783L56.3023 124.818L47.8262 118.661H58.3031L61.541 108.696Z" fill="#338AF3"/>
<path d="M138.459 65.2175L141.697 75.182H152.174L143.698 81.3398L146.936 91.3042L138.459 85.146L129.982 91.3042L133.22 81.3398L124.744 75.182H135.221L138.459 65.2175Z" fill="#338AF3"/>
<path d="M138.459 108.696L141.697 118.661H152.174L143.698 124.818L146.936 134.783L138.459 128.624L129.982 134.783L133.22 124.818L124.744 118.661H135.221L138.459 108.696Z" fill="#338AF3"/>
<path d="M100 86.9565L103.238 96.9214H113.715L105.239 103.079L108.477 113.043L100 106.885L91.5234 113.043L94.7613 103.079L86.2852 96.9214H96.7621L100 86.9565Z" fill="#338AF3"/>
</g>
<path d="M0.5 100C0.5 45.0477 45.0477 0.5 100 0.5C154.952 0.5 199.5 45.0477 199.5 100C199.5 154.952 154.952 199.5 100 199.5C45.0477 199.5 0.5 154.952 0.5 100Z" stroke="#EAEBEE"/>
<defs>
<clipPath id="clip0_67_8303">
<path d="M0 100C0 44.7715 44.7715 0 100 0C155.228 0 200 44.7715 200 100C200 155.228 155.228 200 100 200C44.7715 200 0 155.228 0 100Z" fill="white"/>
</clipPath>
</defs>
</svg>
