<svg width="200" height="200" viewBox="0 0 200 200" fill="none" xmlns="http://www.w3.org/2000/svg">
<g clip-path="url(#clip0_67_8313)">
<path d="M100 200C155.228 200 200 155.228 200 100C200 44.7715 155.228 0 100 0C44.7715 0 0 44.7715 0 100C0 155.228 44.7715 200 100 200Z" fill="#D80027"/>
<path d="M110.324 75.6515C108.052 85.1043 104.014 83.3015 102.032 91.5453C90.3591 88.7387 83.17 77.0004 85.9766 65.3265C88.7821 53.6535 100.522 46.4644 112.195 49.2711C108.231 65.7582 112.357 67.1972 110.324 75.6515Z" fill="white"/>
<path d="M80.034 82.6563C88.3219 87.7383 85.3594 91.0223 92.5867 95.4547C86.3102 105.69 72.9254 108.898 62.6903 102.622C52.4555 96.3461 49.2457 82.9606 55.5223 72.7258C69.9778 81.5899 72.6203 78.1106 80.034 82.6563Z" fill="white"/>
<path d="M77.3352 113.63C84.7301 107.318 86.9368 111.15 93.3856 105.646C101.181 114.778 100.096 128.5 90.9649 136.294C81.8329 144.089 68.111 143.004 60.3173 133.873C73.2134 122.864 70.7208 119.275 77.3352 113.63Z" fill="white"/>
<path d="M105.959 125.768C102.24 116.784 106.566 115.869 103.325 108.036C114.418 103.445 127.134 108.716 131.725 119.809C136.316 130.902 131.044 143.618 119.951 148.209C113.468 132.541 109.284 133.803 105.959 125.768Z" fill="white"/>
<path d="M126.348 102.295C116.655 103.056 117.12 98.6573 108.669 99.3206C107.731 87.3522 116.673 76.887 128.643 75.9475C140.611 75.0104 151.076 83.9526 152.015 95.9222C135.109 97.2475 135.016 101.616 126.348 102.295Z" fill="white"/>
</g>
<path d="M0.5 100C0.5 45.0477 45.0477 0.5 100 0.5C154.952 0.5 199.5 45.0477 199.5 100C199.5 154.952 154.952 199.5 100 199.5C45.0477 199.5 0.5 154.952 0.5 100Z" stroke="#EAEBEE"/>
<defs>
<clipPath id="clip0_67_8313">
<path d="M0 100C0 44.7715 44.7715 0 100 0C155.228 0 200 44.7715 200 100C200 155.228 155.228 200 100 200C44.7715 200 0 155.228 0 100Z" fill="white"/>
</clipPath>
</defs>
</svg>
