<svg width="200" height="200" viewBox="0 0 200 200" fill="none" xmlns="http://www.w3.org/2000/svg">
<g clip-path="url(#clip0_67_8333)">
<path d="M100 200C155.228 200 200 155.228 200 100C200 44.7715 155.228 0 100 0C44.7715 0 0 44.7715 0 100C0 155.228 44.7715 200 100 200Z" fill="white"/>
<path d="M99.9999 0C60.3539 0 26.0976 23.0723 9.92261 56.5219H190.077C173.902 23.0723 139.646 0 99.9999 0Z" fill="#FF9811"/>
<path d="M99.9999 200C139.646 200 173.902 176.928 190.077 143.478H9.92261C26.0976 176.928 60.3539 200 99.9999 200Z" fill="#6DA544"/>
<path d="M100 134.782C119.21 134.782 134.782 119.21 134.782 100C134.782 80.7902 119.21 65.2175 100 65.2175C80.7902 65.2175 65.2175 80.7902 65.2175 100C65.2175 119.21 80.7902 134.782 100 134.782Z" fill="#0052B4"/>
<path d="M100 121.739C112.006 121.739 121.739 112.006 121.739 100C121.739 87.9939 112.006 78.261 100 78.261C87.9939 78.261 78.261 87.9939 78.261 100C78.261 112.006 87.9939 121.739 100 121.739Z" fill="white"/>
<path d="M100 73.1743L106.707 88.3845L123.232 86.5872L113.413 100L123.232 113.413L106.707 111.616L100 126.826L93.2933 111.616L76.7683 113.413L86.5871 100L76.7683 86.5872L93.2933 88.3845L100 73.1743Z" fill="#0052B4"/>
</g>
<path d="M0.5 100C0.5 45.0477 45.0477 0.5 100 0.5C154.952 0.5 199.5 45.0477 199.5 100C199.5 154.952 154.952 199.5 100 199.5C45.0477 199.5 0.5 154.952 0.5 100Z" stroke="#EAEBEE"/>
<defs>
<clipPath id="clip0_67_8333">
<path d="M0 100C0 44.7715 44.7715 0 100 0C155.228 0 200 44.7715 200 100C200 155.228 155.228 200 100 200C44.7715 200 0 155.228 0 100Z" fill="white"/>
</clipPath>
</defs>
</svg>
