<svg width="200" height="200" viewBox="0 0 200 200" fill="none" xmlns="http://www.w3.org/2000/svg">
<g clip-path="url(#clip0_67_8343)">
<path d="M100 200C155.228 200 200 155.228 200 100C200 44.7715 155.228 0 100 0C44.7715 0 0 44.7715 0 100C0 155.228 44.7715 200 100 200Z" fill="white"/>
<path d="M132.479 73.913H119.396C119.504 75.3509 119.565 76.8017 119.565 78.2606C119.565 87.9341 117.147 97.3103 112.932 103.984C111.632 106.043 109.446 108.95 106.521 110.911V73.9126H93.4781V110.911C90.5535 108.95 88.368 106.043 87.0676 103.984C82.852 97.3103 80.4344 87.9341 80.4344 78.2606C80.4344 76.8017 80.4961 75.3505 80.6039 73.913H67.5203C67.4363 75.3438 67.3906 76.7931 67.3906 78.2606C67.3906 105.079 81.7141 126.087 99.9992 126.087C118.284 126.087 132.608 105.079 132.608 78.2606C132.609 76.7931 132.563 75.3438 132.479 73.913Z" fill="#D80027"/>
<path d="M41.3042 47.8262H54.3476V56.5219H67.391V47.8262H80.4343V56.5219H93.4777V47.8262H106.521V56.5219H119.564V47.8262H132.608V56.5219H145.651V47.8262H158.694V56.5219H190.076C173.902 23.0723 139.646 0 99.9999 0C60.3542 0 26.0976 23.0723 9.92261 56.5219H41.3042V47.8262Z" fill="#6DA544"/>
<path d="M158.696 143.478V152.174H145.652V143.478H132.609V152.174H119.566V143.478H106.522V152.174H93.4789V143.478H80.4355V152.174H67.3921V143.478H54.3476V152.174H41.3042V143.478H9.92261C26.0976 176.928 60.3539 200 99.9999 200C139.646 200 173.902 176.928 190.077 143.478H158.696Z" fill="#D80027"/>
</g>
<path d="M0.5 100C0.5 45.0477 45.0477 0.5 100 0.5C154.952 0.5 199.5 45.0477 199.5 100C199.5 154.952 154.952 199.5 100 199.5C45.0477 199.5 0.5 154.952 0.5 100Z" stroke="#EAEBEE"/>
<defs>
<clipPath id="clip0_67_8343">
<path d="M0 100C0 44.7715 44.7715 0 100 0C155.228 0 200 44.7715 200 100C200 155.228 155.228 200 100 200C44.7715 200 0 155.228 0 100Z" fill="white"/>
</clipPath>
</defs>
</svg>
