<svg width="200" height="200" viewBox="0 0 200 200" fill="none" xmlns="http://www.w3.org/2000/svg">
<g clip-path="url(#clip0_67_8360)">
<path d="M100 200C155.228 200 200 155.228 200 100C200 44.7715 155.228 0 100 0C44.7715 0 0 44.7715 0 100C0 155.228 44.7715 200 100 200Z" fill="#D80027"/>
<path d="M137.026 67.036L129.958 92.259L108.751 88.343L95.1004 60.2043L58.2227 73.2907L55.3145 65.0954L45.666 63.9067L52.9359 84.3946L78.3145 77.9043L85.5266 98.2282L67.9828 124.12L97.7551 149.513L92.1121 156.129L95.9066 165.079L110.015 148.539L91.7051 129.806L105.7 113.398L136.895 115.646L144 77.1653L152.551 78.7446L158.406 70.9829L137.026 67.036Z" fill="white"/>
</g>
<path d="M0.5 100C0.5 45.0477 45.0477 0.5 100 0.5C154.952 0.5 199.5 45.0477 199.5 100C199.5 154.952 154.952 199.5 100 199.5C45.0477 199.5 0.5 154.952 0.5 100Z" stroke="#EAEBEE"/>
<defs>
<clipPath id="clip0_67_8360">
<path d="M0 100C0 44.7715 44.7715 0 100 0C155.228 0 200 44.7715 200 100C200 155.228 155.228 200 100 200C44.7715 200 0 155.228 0 100Z" fill="white"/>
</clipPath>
</defs>
</svg>
