<svg width="200" height="200" viewBox="0 0 200 200" fill="none" xmlns="http://www.w3.org/2000/svg">
<g clip-path="url(#clip0_67_8386)">
<path d="M100 200C155.228 200 200 155.228 200 100C200 44.7715 155.228 0 100 0C44.7715 0 0 44.7715 0 100C0 155.228 44.7715 200 100 200Z" fill="white"/>
<path d="M179.335 160.889L118.447 100H118.446L179.335 39.1109C176.709 35.6984 173.837 32.4152 170.711 29.289C167.585 26.1632 164.302 23.2902 160.889 20.6648L100.001 81.5535L100 81.5539L39.1115 20.6648C35.6994 23.2906 32.4158 26.1628 29.2896 29.289C26.1635 32.4152 23.2908 35.6984 20.6654 39.1109L81.5541 99.9992L81.5545 99.9996L20.665 160.889C23.2912 164.302 26.1639 167.585 29.2893 170.711C32.4154 173.837 35.6982 176.71 39.1111 179.335L100 118.446L100.001 118.446L160.889 179.335C164.301 176.709 167.585 173.836 170.711 170.71C173.837 167.584 176.71 164.301 179.335 160.889Z" fill="#D80027"/>
<path d="M82.6084 30.4349L99.9998 34.7825L117.391 30.4349V15.6524L110.435 19.1306L99.9998 8.6958L89.565 19.1306L82.6084 15.6524V30.4349Z" fill="#FFDA44"/>
<path d="M82.6084 30.4348V41.3051C82.6084 54.6176 99.9998 58.6965 99.9998 58.6965C99.9998 58.6965 117.391 54.6172 117.391 41.3051V30.4348H82.6084Z" fill="#D80027"/>
</g>
<path d="M0.5 100C0.5 45.0477 45.0477 0.5 100 0.5C154.952 0.5 199.5 45.0477 199.5 100C199.5 154.952 154.952 199.5 100 199.5C45.0477 199.5 0.5 154.952 0.5 100Z" stroke="#EAEBEE"/>
<defs>
<clipPath id="clip0_67_8386">
<path d="M0 100C0 44.7715 44.7715 0 100 0C155.228 0 200 44.7715 200 100C200 155.228 155.228 200 100 200C44.7715 200 0 155.228 0 100Z" fill="white"/>
</clipPath>
</defs>
</svg>
