<svg width="200" height="200" viewBox="0 0 200 200" fill="none" xmlns="http://www.w3.org/2000/svg">
<g clip-path="url(#clip0_67_8397)">
<path d="M100 200C155.228 200 200 155.228 200 100C200 44.7715 155.228 0 100 0C44.7715 0 0 44.7715 0 100C0 155.228 44.7715 200 100 200Z" fill="#338AF3"/>
<path d="M156.522 101.087H43.478C43.478 108.891 50.2753 115.218 58.0788 115.218H57.6085C57.6085 123.022 63.9347 129.348 71.739 129.348C71.739 137.152 78.0651 143.479 85.8694 143.479H114.13C121.935 143.479 128.261 137.152 128.261 129.348C136.065 129.348 142.391 123.022 142.391 115.218H141.921C149.724 115.218 156.522 108.891 156.522 101.087Z" fill="#FFDA44"/>
<path d="M139.131 82.6086C139.131 104.22 121.611 121.739 100 121.739C78.3888 121.739 60.8696 104.22 60.8696 82.6086" fill="#338AF3"/>
<path d="M129.889 82.6087L117.676 88.3536L124.179 100.182L110.918 97.6446L109.237 111.042L100 101.188L90.7625 111.042L89.0824 97.6446L75.8207 100.181L82.3238 88.3532L70.1113 82.6087L82.3242 76.8642L75.8207 65.0364L89.082 67.5731L90.7629 54.1763L100 64.0298L109.238 54.1763L110.918 67.5731L124.18 65.0364L117.676 76.8646L129.889 82.6087Z" fill="#FFDA44"/>
</g>
<path d="M0.5 100C0.5 45.0477 45.0477 0.5 100 0.5C154.952 0.5 199.5 45.0477 199.5 100C199.5 154.952 154.952 199.5 100 199.5C45.0477 199.5 0.5 154.952 0.5 100Z" stroke="#EAEBEE"/>
<defs>
<clipPath id="clip0_67_8397">
<path d="M0 100C0 44.7715 44.7715 0 100 0C155.228 0 200 44.7715 200 100C200 155.228 155.228 200 100 200C44.7715 200 0 155.228 0 100Z" fill="white"/>
</clipPath>
</defs>
</svg>
