<svg width="200" height="200" viewBox="0 0 200 200" fill="none" xmlns="http://www.w3.org/2000/svg">
<g clip-path="url(#clip0_67_8402)">
<path d="M100 200C155.228 200 200 155.228 200 100C200 44.7715 155.228 0 100 0C44.7715 0 0 44.7715 0 100C0 155.228 44.7715 200 100 200Z" fill="white"/>
<path d="M100 0C60.3539 0 26.0977 23.0723 9.92265 56.5219H190.077C173.902 23.0723 139.646 0 100 0Z" fill="black"/>
<path d="M100 200C60.3539 200 26.0977 176.928 9.92265 143.478H190.077C173.902 176.928 139.646 200 100 200Z" fill="#496E2D"/>
<path d="M195.278 69.5652H4.72227C1.65898 79.1625 0 89.3871 0 99.9999C0 110.613 1.65898 120.837 4.72227 130.435H195.277C198.341 120.837 200 110.613 200 99.9999C200 89.3871 198.341 79.1625 195.278 69.5652Z" fill="#A2001D"/>
<path d="M131.139 46.2114L119.296 40.7454L100 84.4372L80.7039 40.7454L68.8613 46.2114L92.8176 100L68.8613 153.789L80.7039 159.255L100 115.563L119.296 159.255L131.139 153.789L107.182 100L131.139 46.2114Z" fill="white"/>
<path d="M108.043 51.363C103.459 46.3564 100 43.4783 100 43.4783C100 43.4783 96.541 46.356 91.9566 51.363V148.636C96.541 153.644 100 156.522 100 156.522C100 156.522 103.459 153.644 108.043 148.637V51.363Z" fill="white"/>
<path d="M78.2609 70.0168V129.982C83.1055 138.566 89.0348 145.602 93.4785 150.267V49.7324C89.0348 54.3969 83.1051 61.4332 78.2609 70.0168Z" fill="#A2001D"/>
<path d="M121.739 70.0168C116.894 61.4328 110.965 54.3969 106.521 49.7324V150.267C110.965 145.602 116.894 138.566 121.739 129.982V70.0168Z" fill="#A2001D"/>
<path d="M121.739 70.0168V129.982C126.643 121.291 130.435 111.015 130.435 100C130.435 88.9856 126.643 78.7083 121.739 70.0168Z" fill="black"/>
<path d="M78.261 70.0168V129.982C73.3567 121.291 69.5652 111.015 69.5652 100C69.5652 88.9856 73.3567 78.7083 78.261 70.0168Z" fill="black"/>
</g>
<path d="M0.5 100C0.5 45.0477 45.0477 0.5 100 0.5C154.952 0.5 199.5 45.0477 199.5 100C199.5 154.952 154.952 199.5 100 199.5C45.0477 199.5 0.5 154.952 0.5 100Z" stroke="#EAEBEE"/>
<defs>
<clipPath id="clip0_67_8402">
<path d="M0 100C0 44.7715 44.7715 0 100 0C155.228 0 200 44.7715 200 100C200 155.228 155.228 200 100 200C44.7715 200 0 155.228 0 100Z" fill="white"/>
</clipPath>
</defs>
</svg>
