<svg width="200" height="200" viewBox="0 0 200 200" fill="none" xmlns="http://www.w3.org/2000/svg">
<g clip-path="url(#clip0_67_8415)">
<path d="M0 100C0 44.7719 44.7719 0 100 0C155.228 0 200 44.7719 200 100" fill="#D80027"/>
<path d="M134.782 92.9993L120.57 99.684L128.138 113.449L112.705 110.497L110.75 126.087L100 114.62L89.25 126.087L87.2949 110.497L71.8617 113.448L79.4301 99.684L65.2176 92.9993L79.4301 86.3133L71.8617 72.5497L87.2945 75.5012L89.2504 59.9114L100 71.3774L110.75 59.9114L112.705 75.5012L128.139 72.5497L120.571 86.3145L134.782 92.9993Z" fill="#FFDA44"/>
<path d="M126.087 32.6085H106.522C106.522 29.0074 103.602 26.0867 100 26.0867C96.3985 26.0867 93.4781 29.007 93.4781 32.6085H73.9129C73.9129 36.2101 77.0504 39.1304 80.652 39.1304H80.4344C80.4344 42.732 83.3539 45.6523 86.9563 45.6523C86.9563 49.2539 89.8758 52.1742 93.4781 52.1742H106.521C110.123 52.1742 113.043 49.2542 113.043 45.6523C116.645 45.6523 119.565 42.7324 119.565 39.1304H119.348C122.95 39.1304 126.087 36.2105 126.087 32.6085Z" fill="#FFDA44"/>
<path d="M200 100C200 155.228 155.228 200 100 200C44.7719 200 0 155.228 0 100H200Z" fill="white"/>
<path d="M100 200C131.259 200 159.163 185.655 177.501 163.192C174.202 160.943 172.421 157.308 166.665 157.308C158.332 157.308 158.332 164.928 149.999 164.928C141.666 164.928 141.666 157.308 133.333 157.308C125 157.308 125 164.928 116.666 164.928C108.333 164.928 108.332 157.308 99.9984 157.308C91.6652 157.308 91.6652 164.928 83.3324 164.928C75.0004 164.928 75.0004 157.308 66.6672 157.308C58.3332 157.308 58.3332 164.928 49.9992 164.928C41.6652 164.928 41.6652 157.308 33.3313 157.308C27.5758 157.308 25.7949 160.942 22.498 163.191C40.8355 185.655 68.741 200 100 200Z" fill="#0052B4"/>
<path d="M183.332 112.754C174.999 112.754 174.999 105.134 166.665 105.134C158.332 105.134 158.332 112.754 149.999 112.754C141.666 112.754 141.666 105.134 133.333 105.134C125 105.134 125 112.754 116.666 112.754C108.333 112.754 108.332 105.134 99.9984 105.134C91.6652 105.134 91.6652 112.754 83.3324 112.754C75.0004 112.754 75.0004 105.134 66.6672 105.134C58.3332 105.134 58.3332 112.754 49.9992 112.754C41.6652 112.754 41.6652 105.134 33.3312 105.134C24.9992 105.134 24.9992 112.754 16.666 112.754C8.37772 112.754 8.32967 105.218 0.130066 105.138C0.360925 109.712 0.907019 114.203 1.7328 118.594C8.37499 119.57 8.95663 126.087 16.6664 126.087C24.9996 126.087 24.9996 118.468 33.3316 118.468C41.6656 118.468 41.6656 126.087 49.9996 126.087C58.3336 126.087 58.3336 118.468 66.6676 118.468C75.0008 118.468 75.0008 126.087 83.3328 126.087C91.666 126.087 91.666 118.468 99.9988 118.468C108.333 118.468 108.333 126.087 116.667 126.087C125.001 126.087 125.001 118.468 133.334 118.468C141.667 118.468 141.667 126.087 150 126.087C158.332 126.087 158.333 118.468 166.666 118.468C175 118.468 175 126.087 183.332 126.087C191.043 126.087 191.625 119.571 198.267 118.594C199.093 114.203 199.639 109.712 199.871 105.138C191.67 105.219 191.621 112.754 183.332 112.754Z" fill="#0052B4"/>
<path d="M166.665 131.221C158.332 131.221 158.332 138.841 149.999 138.841C141.666 138.841 141.666 131.221 133.333 131.221C125 131.221 125 138.841 116.666 138.841C108.332 138.841 108.332 131.221 99.9984 131.221C91.6652 131.221 91.6652 138.841 83.3324 138.841C75.0004 138.841 75.0004 131.221 66.6672 131.221C58.3332 131.221 58.3332 138.841 49.9992 138.841C41.6652 138.841 41.6652 131.221 33.3312 131.221C24.9992 131.221 24.9992 138.841 16.666 138.841C10.7117 138.841 9.01093 134.952 5.48553 132.73C7.83241 139.511 10.8855 145.961 14.5625 151.991C15.2019 152.109 15.898 152.174 16.666 152.174C24.9992 152.174 24.9992 144.555 33.3312 144.555C41.6652 144.555 41.6652 152.174 49.9992 152.174C58.3332 152.174 58.3332 144.555 66.6672 144.555C75.0004 144.555 75.0004 152.174 83.3324 152.174C91.6656 152.174 91.6656 144.555 99.9984 144.555C108.332 144.555 108.332 152.174 116.666 152.174C125 152.174 125 144.555 133.333 144.555C141.666 144.555 141.666 152.174 149.999 152.174C158.332 152.174 158.332 144.555 166.665 144.555C174.999 144.555 174.999 152.174 183.332 152.174C184.101 152.174 184.797 152.109 185.436 151.991C189.113 145.961 192.166 139.511 194.514 132.73C190.988 134.951 189.287 138.841 183.332 138.841C174.999 138.841 174.999 131.221 166.665 131.221Z" fill="#0052B4"/>
<path d="M199.69 92.0997C191.67 92.2891 191.56 99.7106 183.332 99.7106C174.999 99.7106 174.999 92.0911 166.665 92.0911C158.332 92.0911 158.332 99.7106 149.999 99.7106C141.666 99.7106 141.666 92.0911 133.333 92.0911C125 92.0911 125 99.7106 116.666 99.7106C108.333 99.7106 108.332 92.0911 99.9984 92.0911C91.6652 92.0911 91.6652 99.7106 83.3324 99.7106C75.0004 99.7106 75.0004 92.0911 66.6672 92.0911C58.3332 92.0911 58.3332 99.7106 49.9992 99.7106C41.6652 99.7106 41.6652 92.0911 33.3313 92.0911C24.9992 92.0911 24.9992 99.7106 16.666 99.7106C8.43984 99.7106 8.32852 92.2899 0.309766 92.0997C0.10625 94.7067 0 97.3411 0 100C0 101.822 0.0515625 103.631 0.148828 105.429C8.32969 105.52 8.38398 113.043 16.6664 113.043C24.9996 113.043 24.9996 105.425 33.3316 105.425C41.6656 105.425 41.6656 113.043 49.9996 113.043C58.3336 113.043 58.3336 105.425 66.6676 105.425C75.0008 105.425 75.0008 113.043 83.3328 113.043C91.666 113.043 91.666 105.425 99.9988 105.425C108.333 105.425 108.333 113.043 116.667 113.043C125.001 113.043 125.001 105.425 133.334 105.425C141.667 105.425 141.667 113.043 150 113.043C158.332 113.043 158.333 105.425 166.666 105.425C175 105.425 175 113.043 183.332 113.043C191.616 113.043 191.67 105.52 199.852 105.429C199.948 103.631 200 101.822 200 100C200 97.3411 199.894 94.7067 199.69 92.0997Z" fill="white"/>
</g>
<path d="M0.5 100C0.5 45.0477 45.0477 0.5 100 0.5C154.952 0.5 199.5 45.0477 199.5 100C199.5 154.952 154.952 199.5 100 199.5C45.0477 199.5 0.5 154.952 0.5 100Z" stroke="#EAEBEE"/>
<defs>
<clipPath id="clip0_67_8415">
<path d="M0 100C0 44.7715 44.7715 0 100 0C155.228 0 200 44.7715 200 100C200 155.228 155.228 200 100 200C44.7715 200 0 155.228 0 100Z" fill="white"/>
</clipPath>
</defs>
</svg>
