<svg width="200" height="200" viewBox="0 0 200 200" fill="none" xmlns="http://www.w3.org/2000/svg">
<g clip-path="url(#clip0_67_8426)">
<path d="M100 200C155.228 200 200 155.228 200 100C200 44.7715 155.228 0 100 0C44.7715 0 0 44.7715 0 100C0 155.228 44.7715 200 100 200Z" fill="#0052B4"/>
<path d="M43.9254 60.8701L46.084 67.5139H53.0683L47.418 71.6189L49.5762 78.2615L43.9254 74.1564L38.2742 78.2615L40.4332 71.6189L34.7824 67.5139H41.7664L43.9254 60.8701Z" fill="white"/>
<path d="M65.6644 54.3486L67.823 60.992H74.8074L69.157 65.0971L71.3152 71.7396L65.6644 67.6346L60.0136 71.7396L62.1722 65.0971L56.5219 60.992H63.5062L65.6644 54.3486Z" fill="white"/>
<path d="M87.4035 47.8267L89.5621 54.47H96.5465L90.8961 58.5755L93.0543 65.2181L87.4035 61.1126L81.7527 65.2181L83.9113 58.5755L78.2609 54.47H85.2453L87.4035 47.8267Z" fill="white"/>
<path d="M156.075 60.8701L153.916 67.5139H146.932L152.582 71.6189L150.424 78.2615L156.075 74.1564L161.726 78.2615L159.567 71.6189L165.218 67.5139H158.233L156.075 60.8701Z" fill="white"/>
<path d="M134.336 54.3486L132.177 60.992H125.193L130.843 65.0971L128.685 71.7396L134.336 67.6346L139.986 71.7396L137.828 65.0971L143.478 60.992H136.494L134.336 54.3486Z" fill="white"/>
<path d="M112.596 47.8267L110.438 54.47H103.453L109.104 58.5755L106.946 65.2181L112.596 61.1126L118.247 65.2181L116.089 58.5755L121.739 54.47H114.755L112.596 47.8267Z" fill="white"/>
<path d="M117.391 104.348L100 82.6086L91.3043 86.9563V95.652L78.261 104.348H69.5652V115.582C82.3106 120.743 91.3043 133.231 91.3043 147.826H100V139.131L108.696 130.435L117.391 139.131L126.087 130.435V121.739L134.783 108.696L117.391 104.348Z" fill="#FFDA44"/>
</g>
<path d="M0.5 100C0.5 45.0477 45.0477 0.5 100 0.5C154.952 0.5 199.5 45.0477 199.5 100C199.5 154.952 154.952 199.5 100 199.5C45.0477 199.5 0.5 154.952 0.5 100Z" stroke="#EAEBEE"/>
<defs>
<clipPath id="clip0_67_8426">
<path d="M0 100C0 44.7715 44.7715 0 100 0C155.228 0 200 44.7715 200 100C200 155.228 155.228 200 100 200C44.7715 200 0 155.228 0 100Z" fill="white"/>
</clipPath>
</defs>
</svg>
