<svg width="200" height="200" viewBox="0 0 200 200" fill="none" xmlns="http://www.w3.org/2000/svg">
<g clip-path="url(#clip0_67_8436)">
<path d="M193.78 134.783C197.8 123.949 200 112.232 200 100C200 87.7681 197.8 76.0509 193.78 65.2177L100 56.522L6.21992 65.2177C2.20039 76.0509 0 87.7681 0 100C0 112.232 2.20039 123.949 6.21992 134.783L100 143.478L193.78 134.783Z" fill="white"/>
<path d="M100 200C142.996 200 179.651 172.863 193.78 134.782H6.21948C20.3492 172.863 57.0031 200 100 200Z" fill="#D80027"/>
<path d="M100 0C57.0031 0 20.3492 27.1375 6.21948 65.2176H193.78C179.651 27.1375 142.996 0 100 0Z" fill="#6DA544"/>
<path d="M29.2891 29.2891C-9.76321 68.3414 -9.76321 131.658 29.2891 170.711C39.4825 160.518 49.4317 150.568 65.2173 134.783V65.2176L29.2891 29.2891Z" fill="black"/>
</g>
<path d="M0.5 100C0.5 45.0477 45.0477 0.5 100 0.5C154.952 0.5 199.5 45.0477 199.5 100C199.5 154.952 154.952 199.5 100 199.5C45.0477 199.5 0.5 154.952 0.5 100Z" stroke="#EAEBEE"/>
<defs>
<clipPath id="clip0_67_8436">
<path d="M0 100C0 44.7715 44.7715 0 100 0C155.228 0 200 44.7715 200 100C200 155.228 155.228 200 100 200C44.7715 200 0 155.228 0 100Z" fill="white"/>
</clipPath>
</defs>
</svg>
