<svg width="200" height="200" viewBox="0 0 200 200" fill="none" xmlns="http://www.w3.org/2000/svg">
<g clip-path="url(#clip0_67_8441)">
<path d="M100 200C155.228 200 200 155.228 200 100C200 44.7715 155.228 0 100 0C44.7715 0 0 44.7715 0 100C0 155.228 44.7715 200 100 200Z" fill="#D80027"/>
<path d="M148.905 99.9999L128.923 109.399L139.564 128.753L117.863 124.601L115.115 146.522L99.9997 130.401L84.8856 146.522L82.136 124.601L60.4376 128.753L71.0782 109.398L51.095 99.9999L71.0782 90.6011L60.4376 71.2464L82.1352 75.3987L84.8864 53.478L99.9997 69.5995L115.116 53.478L117.863 75.3987L139.565 71.2464L128.923 90.6022L148.905 99.9999Z" fill="#FFDA44"/>
<path d="M99.9999 130.435C116.809 130.435 130.435 116.809 130.435 99.9999C130.435 83.1913 116.809 69.5652 99.9999 69.5652C83.1913 69.5652 69.5652 83.1913 69.5652 99.9999C69.5652 116.809 83.1913 130.435 99.9999 130.435Z" fill="#D80027"/>
<path d="M84.7824 100C84.0492 100 83.3254 100.038 82.611 100.109C82.6371 104.324 84.1621 108.182 86.6809 111.179C88.0246 107.563 90.0309 104.266 92.561 101.444C90.1446 100.515 87.5231 100 84.7824 100Z" fill="#FFDA44"/>
<path d="M94.1504 116.38C95.9785 117.033 97.9469 117.392 100 117.392C102.053 117.392 104.021 117.033 105.85 116.38C104.853 112.469 102.796 108.978 100 106.234C97.2043 108.977 95.1469 112.469 94.1504 116.38Z" fill="#FFDA44"/>
<path d="M115.061 91.3071C112.054 86.1094 106.437 82.6086 100 82.6086C93.5625 82.6086 87.9465 86.109 84.9395 91.3071C90.4215 91.3348 95.5621 92.8254 100 95.3993C104.438 92.8254 109.578 91.3348 115.061 91.3071Z" fill="#FFDA44"/>
<path d="M107.438 101.445C109.968 104.266 111.975 107.563 113.318 111.18C115.837 108.183 117.362 104.324 117.388 100.109C116.674 100.038 115.95 100 115.217 100C112.477 100 109.856 100.515 107.438 101.445Z" fill="#FFDA44"/>
</g>
<path d="M0.5 100C0.5 45.0477 45.0477 0.5 100 0.5C154.952 0.5 199.5 45.0477 199.5 100C199.5 154.952 154.952 199.5 100 199.5C45.0477 199.5 0.5 154.952 0.5 100Z" stroke="#EAEBEE"/>
<defs>
<clipPath id="clip0_67_8441">
<path d="M0 100C0 44.7715 44.7715 0 100 0C155.228 0 200 44.7715 200 100C200 155.228 155.228 200 100 200C44.7715 200 0 155.228 0 100Z" fill="white"/>
</clipPath>
</defs>
</svg>
