<svg width="200" height="200" viewBox="0 0 200 200" fill="none" xmlns="http://www.w3.org/2000/svg">
<g clip-path="url(#clip0_67_8450)">
<path d="M190.077 56.5219C173.902 23.0723 139.646 0 99.9999 0C60.3539 0 26.0976 23.0723 9.92261 56.5219L99.9999 65.2176L190.077 56.5219Z" fill="#D80027"/>
<path d="M9.92261 143.478C26.0976 176.928 60.3539 200 99.9999 200C139.646 200 173.902 176.928 190.077 143.478L99.9999 134.782L9.92261 143.478Z" fill="#D80027"/>
<path d="M190.077 56.522H9.92266C3.56563 69.6685 0 84.4177 0 100C0 115.583 3.56563 130.332 9.92266 143.478H190.077C196.435 130.332 200 115.583 200 100C200 84.4177 196.435 69.6685 190.077 56.522Z" fill="#0052B4"/>
<path d="M100 134.782C119.21 134.782 134.782 119.21 134.782 100C134.782 80.7902 119.21 65.2175 100 65.2175C80.7902 65.2175 65.2175 80.7902 65.2175 100C65.2175 119.21 80.7902 134.782 100 134.782Z" fill="white"/>
</g>
<path d="M0.5 100C0.5 45.0477 45.0477 0.5 100 0.5C154.952 0.5 199.5 45.0477 199.5 100C199.5 154.952 154.952 199.5 100 199.5C45.0477 199.5 0.5 154.952 0.5 100Z" stroke="#EAEBEE"/>
<defs>
<clipPath id="clip0_67_8450">
<path d="M0 100C0 44.7715 44.7715 0 100 0C155.228 0 200 44.7715 200 100C200 155.228 155.228 200 100 200C44.7715 200 0 155.228 0 100Z" fill="white"/>
</clipPath>
</defs>
</svg>
