<svg width="200" height="200" viewBox="0 0 200 200" fill="none" xmlns="http://www.w3.org/2000/svg">
<g clip-path="url(#clip0_67_8461)">
<path d="M100 200C155.228 200 200 155.228 200 100C200 44.7715 155.228 0 100 0C44.7715 0 0 44.7715 0 100C0 155.228 44.7715 200 100 200Z" fill="white"/>
<path d="M99.9999 0C60.3539 0 26.0976 23.0723 9.92261 56.5219H190.077C173.902 23.0723 139.646 0 99.9999 0Z" fill="#D80027"/>
<path d="M99.9999 200C139.646 200 173.902 176.928 190.077 143.478H9.92261C26.0976 176.928 60.3539 200 99.9999 200Z" fill="#D80027"/>
<path d="M126.087 117.391L100 69.5652L73.9128 117.391H93.4781V130.435H106.522V117.391H126.087Z" fill="#6DA544"/>
</g>
<path d="M0.5 100C0.5 45.0477 45.0477 0.5 100 0.5C154.952 0.5 199.5 45.0477 199.5 100C199.5 154.952 154.952 199.5 100 199.5C45.0477 199.5 0.5 154.952 0.5 100Z" stroke="#EAEBEE"/>
<defs>
<clipPath id="clip0_67_8461">
<path d="M0 100C0 44.7715 44.7715 0 100 0C155.228 0 200 44.7715 200 100C200 155.228 155.228 200 100 200C44.7715 200 0 155.228 0 100Z" fill="white"/>
</clipPath>
</defs>
</svg>
