<svg width="200" height="200" viewBox="0 0 200 200" fill="none" xmlns="http://www.w3.org/2000/svg">
<g clip-path="url(#clip0_67_8467)">
<path d="M0 100C0 115.582 3.56523 130.331 9.92266 143.478L100 147.826L190.077 143.479C196.435 130.331 200 115.582 200 100C200 84.418 196.435 69.6687 190.077 56.5219L100 52.1738L9.92266 56.5215C3.56523 69.6688 0 84.418 0 100H0Z" fill="white"/>
<path d="M99.9999 200C139.646 200 173.902 176.928 190.077 143.478H9.92261C26.0976 176.928 60.3539 200 99.9999 200Z" fill="#6DA544"/>
<path d="M99.9999 0C60.3539 0 26.0976 23.0723 9.92261 56.5219H190.077C173.902 23.0723 139.646 0 99.9999 0Z" fill="#0052B4"/>
<path d="M106.522 97.8262V73.9133H93.4785V97.8262L77.7246 113.581C82.3063 121.081 90.5684 126.087 100 126.087C109.432 126.087 117.694 121.081 122.276 113.581L106.522 97.8262Z" fill="black"/>
</g>
<path d="M0.5 100C0.5 45.0477 45.0477 0.5 100 0.5C154.952 0.5 199.5 45.0477 199.5 100C199.5 154.952 154.952 199.5 100 199.5C45.0477 199.5 0.5 154.952 0.5 100Z" stroke="#EAEBEE"/>
<defs>
<clipPath id="clip0_67_8467">
<path d="M0 100C0 44.7715 44.7715 0 100 0C155.228 0 200 44.7715 200 100C200 155.228 155.228 200 100 200C44.7715 200 0 155.228 0 100Z" fill="white"/>
</clipPath>
</defs>
</svg>
