<svg width="200" height="200" viewBox="0 0 200 200" fill="none" xmlns="http://www.w3.org/2000/svg">
<g clip-path="url(#clip0_67_8472)">
<path d="M100 200C155.228 200 200 155.228 200 100C200 44.7715 155.228 0 100 0C44.7715 0 0 44.7715 0 100C0 155.228 44.7715 200 100 200Z" fill="white"/>
<path d="M22.8579 36.364H177.142C171.444 29.4636 164.834 23.3445 157.503 18.1824H42.4974C35.1657 23.3437 28.5567 29.4632 22.8579 36.364Z" fill="white"/>
<path d="M0 100C0 103.065 0.145703 106.096 0.415625 109.091H199.584C199.854 106.096 200 103.065 200 100C200 96.9348 199.854 93.9043 199.584 90.9094H0.415625C0.145703 93.9043 0 96.9348 0 100H0Z" fill="white"/>
<path d="M10.9047 145.454H189.095C192.04 139.694 194.441 133.612 196.234 127.273H3.76562C5.5582 133.612 7.96055 139.694 10.9047 145.454Z" fill="white"/>
<path d="M42.4974 181.818H157.502C164.834 176.656 171.443 170.537 177.142 163.637H22.8579C28.5567 170.536 35.1657 176.656 42.4974 181.818Z" fill="white"/>
<path d="M3.76514 72.7273H196.235C194.442 66.3882 192.04 60.3054 189.095 54.5457H10.9046C7.96045 60.3054 5.55811 66.3882 3.76514 72.7273Z" fill="white"/>
<path d="M47.8262 18.1816H157.503C141.237 6.7293 121.405 0 100 0C86.9566 0 64.0918 6.7293 47.8262 18.1816Z" fill="#D80027"/>
<path d="M95.6523 54.5457H189.095C185.77 48.0406 181.754 41.9472 177.142 36.364H95.6523V54.5457Z" fill="#D80027"/>
<path d="M95.6523 90.9094H199.584C199.022 84.6665 197.891 78.5868 196.235 72.7278H95.6523V90.9094Z" fill="#D80027"/>
<path d="M3.76553 127.273H196.234C197.891 121.414 199.022 115.334 199.584 109.091H0.415527C0.978027 115.334 2.1085 121.414 3.76553 127.273Z" fill="#D80027"/>
<path d="M22.8577 163.636H177.142C181.753 158.052 185.77 151.959 189.095 145.454H10.9045C14.2299 151.959 18.2463 158.053 22.8577 163.636Z" fill="#D80027"/>
<path d="M99.9998 200C121.405 200 141.237 193.271 157.503 181.818H42.4971C58.7627 193.271 78.5947 200 99.9998 200Z" fill="#D80027"/>
<path d="M3.76514 72.7273C2.10811 78.5867 0.978027 84.666 0.415527 90.909H99.9999V0C54.2265 0 15.637 30.7547 3.76514 72.7273Z" fill="#0052B4"/>
<path d="M59.5265 26.0872L66.0011 46.0149H86.9565L70.0042 58.3321L76.4784 78.261L59.5265 65.9446L42.5737 78.261L49.0495 58.3321L32.0972 46.0149H53.0515L59.5265 26.0872Z" fill="white"/>
</g>
<path d="M0.5 100C0.5 45.0477 45.0477 0.5 100 0.5C154.952 0.5 199.5 45.0477 199.5 100C199.5 154.952 154.952 199.5 100 199.5C45.0477 199.5 0.5 154.952 0.5 100Z" stroke="#EAEBEE"/>
<defs>
<clipPath id="clip0_67_8472">
<path d="M0 100C0 44.7715 44.7715 0 100 0C155.228 0 200 44.7715 200 100C200 155.228 155.228 200 100 200C44.7715 200 0 155.228 0 100Z" fill="white"/>
</clipPath>
</defs>
</svg>
