<svg width="200" height="200" viewBox="0 0 200 200" fill="none" xmlns="http://www.w3.org/2000/svg">
<g clip-path="url(#clip0_67_8489)">
<path d="M9.92266 56.5219C3.56563 69.6688 0 84.4176 0 100C0 115.582 3.56563 130.331 9.92266 143.478L100 152.174L190.077 143.478C196.434 130.331 200 115.582 200 100C200 84.4176 196.434 69.6688 190.077 56.5219L100 47.8262L9.92266 56.5219Z" fill="black"/>
<path d="M9.92627 143.478C26.1005 176.928 60.354 200 100 200C139.646 200 173.9 176.928 190.074 143.478H9.92627Z" fill="#496E2D"/>
<path d="M9.92627 56.5219H190.074C173.9 23.0723 139.646 0 100 0C60.354 0 26.1005 23.0723 9.92627 56.5219Z" fill="#D80027"/>
<path d="M123.276 81.7134L131.48 93.02L144.768 88.7114L136.55 100.008L144.754 111.315L131.471 106.99L123.254 118.286L123.262 104.317L109.979 99.9923L123.267 95.6837L123.276 81.7134Z" fill="white"/>
<path d="M100.883 128.261C85.2756 128.261 72.6225 115.608 72.6225 100C72.6225 84.3923 85.2756 71.7392 100.883 71.7392C105.75 71.7392 110.329 72.9696 114.327 75.136C108.055 69.0028 99.4783 65.2173 90.0139 65.2173C70.8037 65.2173 55.2314 80.7899 55.2314 99.9997C55.2314 119.209 70.8041 134.782 90.0139 134.782C99.4787 134.782 108.055 130.997 114.327 124.863C110.329 127.031 105.75 128.261 100.883 128.261Z" fill="white"/>
</g>
<path d="M0.5 100C0.5 45.0477 45.0477 0.5 100 0.5C154.952 0.5 199.5 45.0477 199.5 100C199.5 154.952 154.952 199.5 100 199.5C45.0477 199.5 0.5 154.952 0.5 100Z" stroke="#EAEBEE"/>
<defs>
<clipPath id="clip0_67_8489">
<path d="M0 100C0 44.7715 44.7715 0 100 0C155.228 0 200 44.7715 200 100C200 155.228 155.228 200 100 200C44.7715 200 0 155.228 0 100Z" fill="white"/>
</clipPath>
</defs>
</svg>
