<svg width="200" height="200" viewBox="0 0 200 200" fill="none" xmlns="http://www.w3.org/2000/svg">
<g clip-path="url(#clip0_67_8496)">
<path d="M200 99.9999C200 155.228 155.228 200 100 200C44.7719 200 0 155.228 0 99.9999C4.34766 99.9999 100 86.9565 100 86.9565L200 99.9999Z" fill="#D80027"/>
<path d="M0 100C0 44.7719 44.7719 0 100 0C155.228 0 200 44.7719 200 100" fill="#0052B4"/>
<path d="M73.9131 69.5651C73.9131 62.3616 68.0732 56.5218 60.8697 56.5218C57.5279 56.5218 54.4822 57.7796 52.174 59.8456V52.1737H56.5217V43.478H52.174V39.1304H43.4783V43.478H39.1307V52.1737H43.4783V59.8456C41.1701 57.7796 38.1244 56.5218 34.7826 56.5218C27.5791 56.5218 21.7393 62.3616 21.7393 69.5651C21.7393 73.4272 23.4193 76.896 26.0869 79.2847V86.9565H69.565V79.2847C72.2334 76.896 73.9131 73.4272 73.9131 69.5651Z" fill="#FFDA44"/>
</g>
<path d="M0.5 100C0.5 45.0477 45.0477 0.5 100 0.5C154.952 0.5 199.5 45.0477 199.5 100C199.5 154.952 154.952 199.5 100 199.5C45.0477 199.5 0.5 154.952 0.5 100Z" stroke="#EAEBEE"/>
<defs>
<clipPath id="clip0_67_8496">
<path d="M0 100C0 44.7715 44.7715 0 100 0C155.228 0 200 44.7715 200 100C200 155.228 155.228 200 100 200C44.7715 200 0 155.228 0 100Z" fill="white"/>
</clipPath>
</defs>
</svg>
