<svg width="200" height="200" viewBox="0 0 200 200" fill="none" xmlns="http://www.w3.org/2000/svg">
<g clip-path="url(#clip0_67_8508)">
<path d="M100 200C155.228 200 200 155.228 200 100C200 44.7715 155.228 0 100 0C44.7715 0 0 44.7715 0 100C0 155.228 44.7715 200 100 200Z" fill="#496E2D"/>
<path d="M117.391 95.8301C114.937 95.8301 112.606 96.3196 110.442 97.0985C111.628 94.4563 112.422 91.5165 112.422 88.377C112.422 75.9547 100 66.6379 100 66.6379C100 66.6379 87.5779 75.9547 87.5779 88.377C87.5779 91.5161 88.3729 94.4563 89.5584 97.0985C87.3939 96.3204 85.0635 95.8301 82.6092 95.8301C70.1869 95.8301 60.8701 108.252 60.8701 108.252C60.8701 108.252 70.1869 120.675 82.6092 120.675C89.8924 120.675 96.1041 116.406 100.001 112.873C103.897 116.406 110.109 120.675 117.392 120.675C129.814 120.675 139.131 108.252 139.131 108.252C139.131 108.252 129.813 95.8301 117.391 95.8301Z" fill="white"/>
<path d="M99.9999 39.1304L102.566 47.0272H110.869L104.153 51.9085L106.717 59.8054L99.9999 54.9241L93.2831 59.8054L95.8472 51.9085L89.1304 47.0272H97.4339L99.9999 39.1304Z" fill="#FFDA44"/>
<path d="M68.4247 52.9424L73.3614 57.3869L79.1142 54.0658L76.4126 60.1342L81.3489 64.5795L74.7427 63.885L72.0411 69.9533L70.6591 63.4561L64.0532 62.7615L69.8056 59.4396L68.4247 52.9424Z" fill="#FFDA44"/>
<path d="M45.3101 76.0574L51.8077 77.4383L55.1292 71.6855L55.8237 78.2914L62.3206 79.6734L56.2526 82.3754L56.9472 88.9809L52.5015 84.0453L46.4335 86.7469L49.755 80.9937L45.3101 76.0574Z" fill="#FFDA44"/>
<path d="M131.575 52.9424L126.639 57.3869L120.886 54.0658L123.587 60.1342L118.651 64.5795L125.258 63.885L127.959 69.9533L129.341 63.4561L135.947 62.7615L130.195 59.4396L131.575 52.9424Z" fill="#FFDA44"/>
<path d="M154.69 76.0574L148.193 77.4383L144.871 71.6855L144.177 78.2914L137.68 79.6734L143.748 82.3754L143.053 88.9809L147.499 84.0453L153.567 86.7469L150.245 80.9937L154.69 76.0574Z" fill="#FFDA44"/>
<path d="M100 155.458C109.868 155.458 118.963 152.165 126.259 146.626H73.7417C81.0378 152.165 90.1327 155.458 100 155.458Z" fill="white"/>
<path d="M60.1436 129.371C61.5236 132.529 63.2736 135.487 65.3291 138.202H134.672C136.728 135.488 138.478 132.529 139.858 129.371H60.1436Z" fill="white"/>
</g>
<path d="M0.5 100C0.5 45.0477 45.0477 0.5 100 0.5C154.952 0.5 199.5 45.0477 199.5 100C199.5 154.952 154.952 199.5 100 199.5C45.0477 199.5 0.5 154.952 0.5 100Z" stroke="#EAEBEE"/>
<defs>
<clipPath id="clip0_67_8508">
<path d="M0 100C0 44.7715 44.7715 0 100 0C155.228 0 200 44.7715 200 100C200 155.228 155.228 200 100 200C44.7715 200 0 155.228 0 100Z" fill="white"/>
</clipPath>
</defs>
</svg>
