<svg width="200" height="200" viewBox="0 0 200 200" fill="none" xmlns="http://www.w3.org/2000/svg">
<g clip-path="url(#clip0_67_8524)">
<path d="M143.478 9.92266C130.331 3.56563 115.582 0 100 0C84.4176 0 69.6688 3.56563 56.5219 9.92266L47.8262 100L56.5219 190.077C69.6688 196.434 84.4176 200 100 200C115.582 200 130.331 196.434 143.478 190.077L152.174 100L143.478 9.92266Z" fill="#FFDA44"/>
<path d="M56.5219 9.92627C23.0723 26.1009 0 60.3544 0 100C0 139.646 23.0723 173.899 56.5219 190.074V9.92627Z" fill="#0052B4"/>
<path d="M143.478 9.92627V190.074C176.927 173.899 200 139.646 200 100C200 60.3544 176.927 26.1009 143.478 9.92627Z" fill="#0052B4"/>
<path d="M128.261 108.696L134.783 117.391V82.6085L128.261 91.3042H108.696V71.739L117.392 65.2175H82.6088L91.3045 71.739V91.3042H71.7393L65.2178 82.6085V117.391L71.7393 108.696H91.3045V128.261L82.6088 134.782H117.392L108.696 128.261V108.696H128.261Z" fill="#D80027"/>
<path d="M126.087 95.6523H104.348V73.9128H95.6525V95.6523H73.9131V104.348H95.6525V126.087H104.348V104.348H126.087V95.6523Z" fill="white"/>
</g>
<path d="M0.5 100C0.5 45.0477 45.0477 0.5 100 0.5C154.952 0.5 199.5 45.0477 199.5 100C199.5 154.952 154.952 199.5 100 199.5C45.0477 199.5 0.5 154.952 0.5 100Z" stroke="#EAEBEE"/>
<defs>
<clipPath id="clip0_67_8524">
<path d="M0 100C0 44.7715 44.7715 0 100 0C155.228 0 200 44.7715 200 100C200 155.228 155.228 200 100 200C44.7715 200 0 155.228 0 100Z" fill="white"/>
</clipPath>
</defs>
</svg>
