<svg width="200" height="200" viewBox="0 0 200 200" fill="none" xmlns="http://www.w3.org/2000/svg">
<g clip-path="url(#clip0_67_8536)">
<path d="M100 200C155.228 200 200 155.228 200 100C200 44.7715 155.228 0 100 0C44.7715 0 0 44.7715 0 100C0 155.228 44.7715 200 100 200Z" fill="white"/>
<path d="M95.6523 100H200C200 90.9738 198.797 82.2308 196.555 73.9128H95.6523V100Z" fill="#D80027"/>
<path d="M95.6523 47.8261H185.323C179.201 37.8371 171.375 29.0078 162.249 21.739H95.6523V47.8261Z" fill="#D80027"/>
<path d="M99.9998 200C123.535 200 145.166 191.866 162.249 178.261H37.751C54.8334 191.866 76.465 200 99.9998 200Z" fill="#D80027"/>
<path d="M14.6772 152.174H185.323C190.237 144.155 194.048 135.389 196.555 126.087H3.44482C5.95146 135.389 9.76279 144.155 14.6772 152.174Z" fill="#D80027"/>
<path d="M100 100C100 44.7719 100 38.2609 100 0C44.7719 0 0 44.7719 0 100H100Z" fill="#0052B4"/>
<path d="M66.4975 85.5976C52.8404 85.5976 41.7693 74.5261 41.7693 60.8694C41.7693 47.2128 52.8408 36.1413 66.4975 36.1413C70.7557 36.1413 74.7623 37.2183 78.2603 39.1136C72.7729 33.7476 65.2682 30.4351 56.9865 30.4351C40.1783 30.4351 26.5518 44.0612 26.5518 60.8698C26.5518 77.6784 40.1783 91.3046 56.9865 91.3046C65.2682 91.3046 72.7729 87.9921 78.2603 82.6261C74.7623 84.5206 70.7561 85.5976 66.4975 85.5976Z" fill="#FFDA44"/>
<path d="M73.466 43.478L77.8563 52.6585L87.7707 50.3679L83.3309 59.5237L91.3043 65.8468L81.377 68.0847L81.4047 78.2608L73.466 71.8944L65.527 78.2608L65.5543 68.0847L55.627 65.8468L63.6004 59.5237L59.1602 50.3679L69.0754 52.6585L73.466 43.478Z" fill="#FFDA44"/>
</g>
<path d="M0.5 100C0.5 45.0477 45.0477 0.5 100 0.5C154.952 0.5 199.5 45.0477 199.5 100C199.5 154.952 154.952 199.5 100 199.5C45.0477 199.5 0.5 154.952 0.5 100Z" stroke="#EAEBEE"/>
<defs>
<clipPath id="clip0_67_8536">
<path d="M0 100C0 44.7715 44.7715 0 100 0C155.228 0 200 44.7715 200 100C200 155.228 155.228 200 100 200C44.7715 200 0 155.228 0 100Z" fill="white"/>
</clipPath>
</defs>
</svg>
