<svg width="200" height="200" viewBox="0 0 200 200" fill="none" xmlns="http://www.w3.org/2000/svg">
<g clip-path="url(#clip0_67_8547)">
<path d="M100 200C155.228 200 200 155.228 200 100C200 44.7715 155.228 0 100 0C44.7715 0 0 44.7715 0 100C0 155.228 44.7715 200 100 200Z" fill="#D80027"/>
<path d="M34.7822 52.1738H165.217V147.826H34.7822V52.1738Z" fill="#6DA544"/>
<path d="M116.104 128.261C100.496 128.261 87.8432 115.608 87.8432 100C87.8432 84.3923 100.496 71.7392 116.104 71.7392C120.971 71.7392 125.55 72.9696 129.547 75.136C123.276 69.0028 114.7 65.2173 105.235 65.2173C86.0252 65.2173 70.4521 80.7899 70.4521 99.9997C70.4521 119.209 86.0252 134.782 105.235 134.782C114.7 134.782 123.276 130.997 129.547 124.863C125.55 127.031 120.971 128.261 116.104 128.261Z" fill="white"/>
</g>
<path d="M0.5 100C0.5 45.0477 45.0477 0.5 100 0.5C154.952 0.5 199.5 45.0477 199.5 100C199.5 154.952 154.952 199.5 100 199.5C45.0477 199.5 0.5 154.952 0.5 100Z" stroke="#EAEBEE"/>
<defs>
<clipPath id="clip0_67_8547">
<path d="M0 100C0 44.7715 44.7715 0 100 0C155.228 0 200 44.7715 200 100C200 155.228 155.228 200 100 200C44.7715 200 0 155.228 0 100Z" fill="white"/>
</clipPath>
</defs>
</svg>
