<svg width="200" height="200" viewBox="0 0 200 200" fill="none" xmlns="http://www.w3.org/2000/svg">
<g clip-path="url(#clip0_67_8559)">
<path d="M100 200C155.228 200 200 155.228 200 100C200 83.2176 195.859 67.4039 188.554 53.5156L99.8824 100.117L146.484 11.4461C132.596 4.14062 116.782 0 100 0C44.7719 0 0 44.7719 0 100C0 127.614 11.193 152.614 29.2891 170.711C47.3855 188.807 72.3855 200 100 200Z" fill="#0052B4"/>
<path d="M188.448 53.6245C183.871 44.912 177.92 36.7319 170.594 29.4062C163.268 22.0804 155.089 16.1292 146.376 11.5522L29.1722 170.828L188.448 53.6245Z" fill="white"/>
<path d="M29.1722 170.828L188.448 53.6246C183.871 44.9121 177.92 36.732 170.594 29.4062L29.1722 170.828Z" fill="#FF9811"/>
<path d="M86.8391 58.6413L74.6266 64.3858L81.1301 76.214L67.8683 73.6769L66.1879 87.0737L56.9504 77.2202L47.7129 87.0737L46.0332 73.6769L32.7715 76.2132L39.2742 64.3854L27.0617 58.6413L39.2746 52.8964L32.7715 41.069L46.0324 43.6054L47.7133 30.2085L56.9504 40.062L66.1879 30.2085L67.8683 43.6054L81.1305 41.069L74.6269 52.8968L86.8391 58.6413Z" fill="white"/>
</g>
<path d="M0.5 100C0.5 45.0477 45.0477 0.5 100 0.5C154.952 0.5 199.5 45.0477 199.5 100C199.5 154.952 154.952 199.5 100 199.5C45.0477 199.5 0.5 154.952 0.5 100Z" stroke="#EAEBEE"/>
<defs>
<clipPath id="clip0_67_8559">
<path d="M0 100C0 44.7715 44.7715 0 100 0C155.228 0 200 44.7715 200 100C200 155.228 155.228 200 100 200C44.7715 200 0 155.228 0 100Z" fill="white"/>
</clipPath>
</defs>
</svg>
