<svg width="200" height="200" viewBox="0 0 200 200" fill="none" xmlns="http://www.w3.org/2000/svg">
<g clip-path="url(#clip0_67_8564)">
<path d="M100 200C155.228 200 200 155.228 200 100C200 44.7715 155.228 0 100 0C44.7715 0 0 44.7715 0 100C0 155.228 44.7715 200 100 200Z" fill="white"/>
<path d="M199.143 86.9563C196.384 65.868 186.912 45.4907 170.711 29.2895C154.509 13.0883 134.132 3.61528 113.043 0.856689L113.044 86.9563H199.143Z" fill="#0052B4"/>
<path d="M86.9563 0.856689C65.868 3.61528 45.4903 13.0879 29.2891 29.2891C13.0883 45.4907 3.61528 65.8684 0.856689 86.9571L86.9567 86.9567L86.9563 0.856689Z" fill="#0052B4"/>
<path d="M0.856689 113.044C3.61528 134.132 13.0883 154.51 29.2891 170.711C45.4903 186.912 65.8676 196.384 86.9567 199.144L86.9563 113.044L0.856689 113.044Z" fill="#0052B4"/>
<path d="M113.044 199.143C134.132 196.384 154.509 186.912 170.711 170.711C186.912 154.509 196.384 134.132 199.143 113.044H113.044V199.143Z" fill="#0052B4"/>
<path d="M134.136 63.4523C134.136 62.1227 135.217 61.0418 136.547 61.0418H141.713C149.878 61.0418 156.522 54.3988 156.522 46.2336C156.522 38.0684 149.879 31.425 141.713 31.425H136.807C135.206 30.2223 133.058 29.4805 130.689 29.4805C125.746 29.4805 121.739 32.6855 121.739 36.6395C121.739 40.5551 125.669 43.7316 130.546 43.7934L130.544 43.8219H141.713C143.043 43.8219 144.124 44.9031 144.124 46.2328C144.124 47.5625 143.043 48.6434 141.713 48.6434H136.547C128.382 48.6434 121.739 55.2863 121.739 63.4516C121.739 71.6168 128.381 78.2602 136.547 78.2602H156.521V65.8625H136.547C135.217 65.8629 134.136 64.782 134.136 63.4523Z" fill="white"/>
<path d="M55.8756 63.4523C55.8756 62.1227 56.9565 61.0418 58.2866 61.0418H63.4522C71.6178 61.0418 78.2612 54.3988 78.2612 46.2336C78.2612 38.0684 71.6182 31.425 63.4522 31.425H58.5467C56.9456 30.2223 54.7975 29.4805 52.428 29.4805C47.4854 29.4805 43.4788 32.6855 43.4788 36.6395C43.4788 40.5551 47.4088 43.7316 52.2854 43.7934L52.2831 43.8219H63.4526C64.7827 43.8219 65.8635 44.9031 65.8635 46.2328C65.8635 47.5625 64.7827 48.6434 63.4526 48.6434H58.287C50.1213 48.6434 43.4788 55.2863 43.4788 63.4516C43.4788 71.6168 50.1209 78.2602 58.287 78.2602H78.2608V65.8625H58.2866C56.9565 65.8629 55.8756 64.782 55.8756 63.4523Z" fill="white"/>
<path d="M134.136 155.711C134.136 154.381 135.217 153.3 136.547 153.3H141.713C149.878 153.3 156.522 146.657 156.522 138.492C156.522 130.327 149.879 123.684 141.713 123.684H136.807C135.206 122.481 133.058 121.739 130.689 121.739C125.746 121.739 121.739 124.944 121.739 128.898C121.739 132.814 125.669 135.99 130.546 136.052L130.543 136.08H141.712C143.043 136.08 144.123 137.162 144.123 138.491C144.123 139.821 143.043 140.902 141.712 140.902H136.547C128.381 140.902 121.739 147.545 121.739 155.71C121.739 163.875 128.381 170.519 136.547 170.519H156.521V158.121H136.547C135.217 158.122 134.136 157.04 134.136 155.711Z" fill="white"/>
<path d="M55.8758 155.711C55.8758 154.381 56.9566 153.3 58.2867 153.3H63.4523C71.618 153.3 78.2613 146.657 78.2613 138.492C78.2613 130.327 71.6184 123.684 63.4523 123.684H58.5469C56.9457 122.481 54.7977 121.739 52.4281 121.739C47.4852 121.739 43.4785 124.944 43.4785 128.898C43.4785 132.814 47.4086 135.99 52.2852 136.052L52.2828 136.08H63.4523C64.7824 136.08 65.8633 137.162 65.8633 138.491C65.8633 139.821 64.7824 140.902 63.4523 140.902H58.2867C50.1211 140.902 43.4785 147.545 43.4785 155.71C43.4785 163.875 50.1207 170.519 58.2867 170.519H78.2609V158.121H58.2867C56.9566 158.122 55.8758 157.04 55.8758 155.711Z" fill="white"/>
</g>
<path d="M0.5 100C0.5 45.0477 45.0477 0.5 100 0.5C154.952 0.5 199.5 45.0477 199.5 100C199.5 154.952 154.952 199.5 100 199.5C45.0477 199.5 0.5 154.952 0.5 100Z" stroke="#EAEBEE"/>
<defs>
<clipPath id="clip0_67_8564">
<path d="M0 100C0 44.7715 44.7715 0 100 0C155.228 0 200 44.7715 200 100C200 155.228 155.228 200 100 200C44.7715 200 0 155.228 0 100Z" fill="white"/>
</clipPath>
</defs>
</svg>
