<svg width="200" height="200" viewBox="0 0 200 200" fill="none" xmlns="http://www.w3.org/2000/svg">
<g clip-path="url(#clip0_67_8576)">
<path d="M100 200C155.228 200 200 155.228 200 100C200 44.7715 155.228 0 100 0C44.7715 0 0 44.7715 0 100C0 155.228 44.7715 200 100 200Z" fill="#496E2D"/>
<path d="M100 115.528C83.3492 115.528 69.439 103.825 66.0261 88.1984C65.5019 90.6007 65.2175 93.0917 65.2175 95.6519C65.2175 114.862 80.7898 130.434 100 130.434C119.21 130.434 134.782 114.862 134.782 95.6519C134.782 93.0917 134.498 90.6007 133.974 88.198C130.561 103.826 116.651 115.528 100 115.528Z" fill="#FFDA44"/>
<path d="M99.9996 69.5652L103.237 79.5296H113.715L105.239 85.6878L108.476 95.6523L99.9996 89.4937L91.5234 95.6523L94.7613 85.6878L86.2852 79.5296H96.7621L99.9996 69.5652Z" fill="#FFDA44"/>
</g>
<path d="M0.5 100C0.5 45.0477 45.0477 0.5 100 0.5C154.952 0.5 199.5 45.0477 199.5 100C199.5 154.952 154.952 199.5 100 199.5C45.0477 199.5 0.5 154.952 0.5 100Z" stroke="#EAEBEE"/>
<defs>
<clipPath id="clip0_67_8576">
<path d="M0 100C0 44.7715 44.7715 0 100 0C155.228 0 200 44.7715 200 100C200 155.228 155.228 200 100 200C44.7715 200 0 155.228 0 100Z" fill="white"/>
</clipPath>
</defs>
</svg>
