<svg width="200" height="200" viewBox="0 0 200 200" fill="none" xmlns="http://www.w3.org/2000/svg">
<g clip-path="url(#clip0_67_8605)">
<path d="M100 200C155.228 200 200 155.228 200 100C200 44.7715 155.228 0 100 0C44.7715 0 0 44.7715 0 100C0 155.228 44.7715 200 100 200Z" fill="white"/>
<path d="M200 99.9999C200 60.3539 176.928 26.0976 143.478 9.92261V190.077C176.928 173.902 200 139.646 200 99.9999Z" fill="#D80027"/>
<path d="M0 99.9999C0 139.646 23.0723 173.902 56.5219 190.077V9.92261C23.0723 26.0976 0 60.3539 0 99.9999Z" fill="#6DA544"/>
<path d="M73.9128 99.9999C73.9128 114.407 85.5925 126.087 100 126.087C114.407 126.087 126.087 114.407 126.087 99.9999V91.3042H73.9128V99.9999Z" fill="#6DA544"/>
<path d="M134.782 82.6085H108.695C108.695 77.8062 104.802 73.9128 99.9996 73.9128C95.1973 73.9128 91.3039 77.8062 91.3039 82.6085H65.2168C65.2168 87.4113 69.4 91.3042 74.202 91.3042H73.9125C73.9125 96.107 77.8055 100 82.6082 100C82.6082 104.803 86.5012 108.696 91.3039 108.696H108.695C113.498 108.696 117.391 104.803 117.391 100C122.194 100 126.087 96.107 126.087 91.3042H125.797C130.6 91.3042 134.782 87.4113 134.782 82.6085Z" fill="#FF9811"/>
</g>
<path d="M0.5 100C0.5 45.0477 45.0477 0.5 100 0.5C154.952 0.5 199.5 45.0477 199.5 100C199.5 154.952 154.952 199.5 100 199.5C45.0477 199.5 0.5 154.952 0.5 100Z" stroke="#EAEBEE"/>
<defs>
<clipPath id="clip0_67_8605">
<path d="M0 100C0 44.7715 44.7715 0 100 0C155.228 0 200 44.7715 200 100C200 155.228 155.228 200 100 200C44.7715 200 0 155.228 0 100Z" fill="white"/>
</clipPath>
</defs>
</svg>
