<svg width="200" height="200" viewBox="0 0 200 200" fill="none" xmlns="http://www.w3.org/2000/svg">
<g clip-path="url(#clip0_67_8612)">
<path d="M100 200C155.228 200 200 155.228 200 100C200 44.7715 155.228 0 100 0C44.7715 0 0 44.7715 0 100C0 155.228 44.7715 200 100 200Z" fill="#338AF3"/>
<path d="M99.9995 43.478L104.316 56.764H118.286L106.985 64.9753L111.301 78.2608L99.9995 70.0499L88.6975 78.2608L93.0151 64.9753L81.7131 56.764H95.6831L99.9995 43.478Z" fill="white"/>
<path d="M43.478 100.001L56.764 95.6834V81.7131L64.9753 93.0155L78.2608 88.6987L70.0499 100.001L78.2608 111.301L64.9753 106.984L56.764 118.286V104.317L43.478 100.001Z" fill="white"/>
<path d="M100 156.522L95.6834 143.236H81.7131L93.0155 135.025L88.6987 121.739L100 129.95L111.301 121.739L106.984 135.025L118.286 143.236H104.317L100 156.522Z" fill="white"/>
<path d="M156.522 99.9995L143.236 104.316V118.286L135.025 106.984L121.739 111.301L129.95 99.9995L121.739 88.6983L135.025 93.0155L143.236 81.7131V95.6831L156.522 99.9995Z" fill="white"/>
</g>
<path d="M0.5 100C0.5 45.0477 45.0477 0.5 100 0.5C154.952 0.5 199.5 45.0477 199.5 100C199.5 154.952 154.952 199.5 100 199.5C45.0477 199.5 0.5 154.952 0.5 100Z" stroke="#EAEBEE"/>
<defs>
<clipPath id="clip0_67_8612">
<path d="M0 100C0 44.7715 44.7715 0 100 0C155.228 0 200 44.7715 200 100C200 155.228 155.228 200 100 200C44.7715 200 0 155.228 0 100Z" fill="white"/>
</clipPath>
</defs>
</svg>
