<svg width="200" height="200" viewBox="0 0 200 200" fill="none" xmlns="http://www.w3.org/2000/svg">
<g clip-path="url(#clip0_67_8619)">
<path d="M143.478 9.92266C130.331 3.56563 115.582 0 100 0C84.418 0 69.6688 3.56563 56.5219 9.92266L47.8262 100L56.5219 190.077C69.6688 196.434 84.418 200 100 200C115.582 200 130.331 196.434 143.478 190.077L152.174 100L143.478 9.92266Z" fill="#FFDA44"/>
<path d="M56.5219 9.92627C23.0727 26.1009 0 60.3544 0 100C0 139.646 23.0727 173.899 56.5219 190.074V9.92627Z" fill="#0052B4"/>
<path d="M143.478 9.92627V190.074C176.927 173.899 200 139.646 200 100C200 60.3544 176.927 26.1009 143.478 9.92627Z" fill="#D80027"/>
<path d="M134.782 78.6793H110.869C110.869 72.6762 106.003 67.8098 100 67.8098C93.9968 67.8098 89.1304 72.6762 89.1304 78.6793H65.2175C65.2175 84.5899 70.3664 89.3809 76.2761 89.3809H75.9199C75.9199 95.2918 80.7113 100.084 86.6222 100.084C86.6222 105.317 90.3808 109.665 95.3449 110.595L86.9113 129.635C90.9523 131.277 95.3687 132.19 100 132.19C104.631 132.19 109.048 131.277 113.088 129.635L104.655 110.595C109.619 109.665 113.378 105.317 113.378 100.084C119.289 100.084 124.08 95.2918 124.08 89.3809H123.723C129.634 89.3809 134.782 84.5895 134.782 78.6793Z" fill="#FF9811"/>
<path d="M100 93.478L85.8696 99.9999V113.043L100 121.739L114.131 113.043V99.9999L100 93.478Z" fill="#0052B4"/>
<path d="M85.8696 86.9565H114.131V99.9999H85.8696V86.9565Z" fill="#D80027"/>
</g>
<path d="M0.5 100C0.5 45.0477 45.0477 0.5 100 0.5C154.952 0.5 199.5 45.0477 199.5 100C199.5 154.952 154.952 199.5 100 199.5C45.0477 199.5 0.5 154.952 0.5 100Z" stroke="#EAEBEE"/>
<defs>
<clipPath id="clip0_67_8619">
<path d="M0 100C0 44.7715 44.7715 0 100 0C155.228 0 200 44.7715 200 100C200 155.228 155.228 200 100 200C44.7715 200 0 155.228 0 100Z" fill="white"/>
</clipPath>
</defs>
</svg>
