<svg width="200" height="200" viewBox="0 0 200 200" fill="none" xmlns="http://www.w3.org/2000/svg">
<g clip-path="url(#clip0_67_8629)">
<path d="M100 200C112.232 200 123.95 197.8 134.783 193.78L139.131 100L134.783 6.21992C123.95 2.20039 112.232 0 100 0C87.7681 0 76.0505 2.20039 65.2177 6.21992L60.8696 100L65.2173 193.78C76.0505 197.8 87.7681 200 100 200Z" fill="#0052B4"/>
<path d="M0 100C0 142.997 27.1375 179.651 65.2176 193.78V6.21997C27.1375 20.3493 0 57.0036 0 100Z" fill="#A2001D"/>
<path d="M134.782 6.21997V193.781C172.862 179.651 200 142.997 200 100C200 57.0036 172.862 20.3493 134.782 6.21997Z" fill="#A2001D"/>
<path d="M47.8262 100H56.5219V134.782H47.8262V100Z" fill="#FFDA44"/>
<path d="M13.0435 100H21.7392V134.782H13.0435V100Z" fill="#FFDA44"/>
<path d="M34.7826 121.739C39.5851 121.739 43.4783 117.846 43.4783 113.043C43.4783 108.241 39.5851 104.348 34.7826 104.348C29.9801 104.348 26.0869 108.241 26.0869 113.043C26.0869 117.846 29.9801 121.739 34.7826 121.739Z" fill="#FFDA44"/>
<path d="M34.7827 86.9563C37.1839 86.9563 39.1304 85.0098 39.1304 82.6086C39.1304 80.2075 37.1839 78.261 34.7827 78.261C32.3816 78.261 30.4351 80.2075 30.4351 82.6086C30.4351 85.0098 32.3816 86.9563 34.7827 86.9563Z" fill="#FFDA44"/>
<path d="M26.0874 126.087H43.4788V134.783H26.0874V126.087Z" fill="#FFDA44"/>
<path d="M26.0874 91.3042H43.4788V99.9999H26.0874V91.3042Z" fill="#FFDA44"/>
<path d="M34.7826 52.1738L37.8623 61.6504H47.8264L39.7658 67.5074L42.8432 76.984L34.7826 71.127L26.7225 76.984L29.7998 67.5074L21.7393 61.6504H31.7033L34.7826 52.1738Z" fill="#FFDA44"/>
</g>
<path d="M0.5 100C0.5 45.0477 45.0477 0.5 100 0.5C154.952 0.5 199.5 45.0477 199.5 100C199.5 154.952 154.952 199.5 100 199.5C45.0477 199.5 0.5 154.952 0.5 100Z" stroke="#EAEBEE"/>
<defs>
<clipPath id="clip0_67_8629">
<path d="M0 100C0 44.7715 44.7715 0 100 0C155.228 0 200 44.7715 200 100C200 155.228 155.228 200 100 200C44.7715 200 0 155.228 0 100Z" fill="white"/>
</clipPath>
</defs>
</svg>
