<svg width="200" height="200" viewBox="0 0 200 200" fill="none" xmlns="http://www.w3.org/2000/svg">
<g clip-path="url(#clip0_67_8650)">
<path d="M200 100C200 155.228 155.228 200 100 200C44.7719 200 0 155.228 0 100C0 100.024 100 0.0109375 100 0C155.228 0 200 44.7719 200 100Z" fill="#0052B4"/>
<path d="M99.7324 100H100C100 99.9102 100 99.8227 100 99.7324C99.9109 99.8219 99.8219 99.9109 99.7324 100Z" fill="white"/>
<path d="M100 52.1738C100 34.5781 100 23.0488 100 0H99.9832C44.7621 0.009375 0 44.777 0 100H52.1738V70.6207L81.5531 100H99.7328C99.8219 99.9109 99.9109 99.8219 100 99.7324C100 92.9953 100 86.984 100 81.5539L70.6203 52.1738H100Z" fill="white"/>
<path d="M50.5919 13.0435C34.9517 21.9493 21.9489 34.9517 13.0435 50.5919V100H39.1306V39.1313V39.1306H100C100 30.9028 100 23.0646 100 13.0435H50.5919Z" fill="#D80027"/>
<path d="M100 87.7028L64.4707 52.1743H52.1738V52.1751L99.9992 100H100C100 100 100 91.5208 100 87.7028Z" fill="#D80027"/>
<path d="M113.043 52.1738V99.9996C113.043 123.296 143.478 130.435 143.478 130.435C143.478 130.435 173.913 123.296 173.913 99.9996V52.1738H113.043Z" fill="#338AF3"/>
<path d="M113.043 99.9995C113.043 123.296 143.478 130.435 143.478 130.435C143.478 130.435 173.913 123.296 173.913 99.9995H113.043Z" fill="#A2001D"/>
<path d="M156.522 73.9136H147.826V65.2175H139.13V73.9136H130.435V82.6089H139.13V108.696H147.826V82.6089H156.522V73.9136Z" fill="black"/>
</g>
<path d="M0.5 100C0.5 45.0477 45.0477 0.5 100 0.5C154.952 0.5 199.5 45.0477 199.5 100C199.5 154.952 154.952 199.5 100 199.5C45.0477 199.5 0.5 154.952 0.5 100Z" stroke="#EAEBEE"/>
<defs>
<clipPath id="clip0_67_8650">
<path d="M0 100C0 44.7715 44.7715 0 100 0C155.228 0 200 44.7715 200 100C200 155.228 155.228 200 100 200C44.7715 200 0 155.228 0 100Z" fill="white"/>
</clipPath>
</defs>
</svg>
