<svg width="200" height="200" viewBox="0 0 200 200" fill="none" xmlns="http://www.w3.org/2000/svg">
<g clip-path="url(#clip0_67_8662)">
<path d="M100 200C155.228 200 200 155.228 200 100C200 44.7715 155.228 0 100 0C44.7715 0 0 44.7715 0 100C0 155.228 44.7715 200 100 200Z" fill="#D80027"/>
<path d="M159.097 82.0663H113.951L100 39.1304L86.0494 82.0663H40.9033L77.4271 108.602L63.476 151.539L100 125.003L136.524 151.54L122.573 108.603L159.097 82.0663ZM87.6494 105.281L92.367 90.7616H107.633L112.351 105.281V105.281L100 114.254L87.6498 105.281L87.6494 105.281ZM104.808 82.0663H95.1928L100 67.2694L104.808 82.0663ZM119.747 99.9069L116.776 90.762H132.334L119.747 99.9069ZM83.224 90.762L80.2525 99.9069L67.6654 90.762H83.224ZM80.0162 128.774L84.824 113.977L92.6033 119.629L80.0162 128.774ZM107.397 119.629L115.176 113.978L119.984 128.774L107.397 119.629Z" fill="#FFDA44"/>
</g>
<path d="M0.5 100C0.5 45.0477 45.0477 0.5 100 0.5C154.952 0.5 199.5 45.0477 199.5 100C199.5 154.952 154.952 199.5 100 199.5C45.0477 199.5 0.5 154.952 0.5 100Z" stroke="#EAEBEE"/>
<defs>
<clipPath id="clip0_67_8662">
<path d="M0 100C0 44.7715 44.7715 0 100 0C155.228 0 200 44.7715 200 100C200 155.228 155.228 200 100 200C44.7715 200 0 155.228 0 100Z" fill="white"/>
</clipPath>
</defs>
</svg>
