<svg width="200" height="200" viewBox="0 0 200 200" fill="none" xmlns="http://www.w3.org/2000/svg">
<g clip-path="url(#clip0_67_8665)">
<path d="M100 200C155.228 200 200 155.228 200 100C200 44.7715 155.228 0 100 0C44.7715 0 0 44.7715 0 100C0 155.228 44.7715 200 100 200Z" fill="white"/>
<path d="M54.0511 139.13L29.2925 170.707C47.3878 188.805 72.3851 200 99.9999 200C141.34 200 176.814 174.91 192.043 139.13H54.0511Z" fill="#FFDA44"/>
<path d="M192.199 61.2316C177.055 25.2586 141.48 0 99.9999 0C72.3851 0 47.3878 11.1949 29.2925 29.2926L54.3354 61.2316H192.199Z" fill="#496E2D"/>
<path d="M21.7393 73.5508V126.087H196.556C198.799 117.77 200 109.026 200 100C200 90.843 198.767 81.9758 196.461 73.5508H21.7393Z" fill="black"/>
<path d="M29.2893 29.2891C-9.76309 68.3414 -9.76309 131.658 29.2893 170.711C45.4271 154.573 60.9478 139.052 100 100L29.2893 29.2891Z" fill="#A2001D"/>
<path d="M40.4728 73.9128L46.9474 93.841H67.9028L50.9505 106.158L57.4247 126.087L40.4728 113.77L23.52 126.087L29.9958 106.158L13.0435 93.841H33.9974L40.4728 73.9128Z" fill="#FFDA44"/>
<path d="M21.5264 100H59.4264V117.391H21.5264V100Z" fill="white"/>
<path d="M66.6018 80.0621L60.4529 73.9128L40.4732 93.8925L20.4936 73.9128L14.3447 80.0621L34.342 100.024L14.3447 120.021L20.4936 126.087L40.4732 106.143L60.4529 126.087L66.6018 120.021L46.6045 100.024L66.6018 80.0621Z" fill="black"/>
</g>
<path d="M0.5 100C0.5 45.0477 45.0477 0.5 100 0.5C154.952 0.5 199.5 45.0477 199.5 100C199.5 154.952 154.952 199.5 100 199.5C45.0477 199.5 0.5 154.952 0.5 100Z" stroke="#EAEBEE"/>
<defs>
<clipPath id="clip0_67_8665">
<path d="M0 100C0 44.7715 44.7715 0 100 0C155.228 0 200 44.7715 200 100C200 155.228 155.228 200 100 200C44.7715 200 0 155.228 0 100Z" fill="white"/>
</clipPath>
</defs>
</svg>
