<svg width="200" height="200" viewBox="0 0 200 200" fill="none" xmlns="http://www.w3.org/2000/svg">
<g clip-path="url(#clip0_67_8679)">
<path d="M100 200C155.228 200 200 155.228 200 100C200 44.7715 155.228 0 100 0C44.7715 0 0 44.7715 0 100C0 155.228 44.7715 200 100 200Z" fill="white"/>
<path d="M29.2894 170.711C33.4843 174.906 37.9601 178.647 42.655 181.941L181.94 42.6555C178.646 37.9605 174.905 33.4848 170.71 29.2898C166.515 25.0949 162.039 21.3543 157.344 18.0605L18.0601 157.346C21.3534 162.04 25.0944 166.516 29.2894 170.711Z" fill="#A2001D"/>
<path d="M29.2896 29.2891C-2.25886 60.8376 -8.31511 108.217 11.1079 145.851L145.851 11.1083C108.217 -8.31479 60.8372 -2.25776 29.2896 29.2891Z" fill="#0052B4"/>
<path d="M170.711 170.711C202.258 139.163 208.315 91.7832 188.892 54.1492L54.1494 188.892C91.7826 208.315 139.163 202.259 170.711 170.711Z" fill="#496E2D"/>
<path d="M82.6088 56.5219L71.4033 61.7926L77.3705 72.645L65.2029 70.3176L63.6607 82.6086L55.1857 73.5684L46.7104 82.6086L45.1689 70.3176L33.001 72.6446L38.9678 61.7922L27.7627 56.5219L38.9682 51.2508L33.001 40.3993L45.1686 42.7266L46.7107 30.4348L55.1857 39.4754L63.6611 30.4348L65.2029 42.7266L77.3705 40.3993L71.4041 51.2512L82.6088 56.5219Z" fill="#FFDA44"/>
</g>
<path d="M0.5 100C0.5 45.0477 45.0477 0.5 100 0.5C154.952 0.5 199.5 45.0477 199.5 100C199.5 154.952 154.952 199.5 100 199.5C45.0477 199.5 0.5 154.952 0.5 100Z" stroke="#EAEBEE"/>
<defs>
<clipPath id="clip0_67_8679">
<path d="M0 100C0 44.7715 44.7715 0 100 0C155.228 0 200 44.7715 200 100C200 155.228 155.228 200 100 200C44.7715 200 0 155.228 0 100Z" fill="white"/>
</clipPath>
</defs>
</svg>
