<svg width="200" height="200" viewBox="0 0 200 200" fill="none" xmlns="http://www.w3.org/2000/svg">
<g clip-path="url(#clip0_67_8698)">
<path d="M100 200C155.228 200 200 155.228 200 100C200 44.7715 155.228 0 100 0C44.7715 0 0 44.7715 0 100C0 155.228 44.7715 200 100 200Z" fill="#0052B4"/>
<path d="M100 200C155.228 200 200 155.228 200 100C200 44.7715 155.228 0 100 0C44.7715 0 0 44.7715 0 100C0 155.228 44.7715 200 100 200Z" fill="#FFDA44"/>
<path d="M100 0C47.7016 0 4.78828 40.1488 0.380859 91.3043H199.62C195.212 40.1488 152.298 0 100 0Z" fill="#0052B4"/>
<path d="M100 200C152.298 200 195.212 159.851 199.62 108.696H0.380859C4.78828 159.851 47.7016 200 100 200Z" fill="#0052B4"/>
<path d="M82.6092 134.783L71.4037 140.054L77.3705 150.906L65.2029 148.578L63.6611 160.87L55.1857 151.829L46.7107 160.87L45.1689 148.578L33.001 150.905L38.9682 140.053L27.7627 134.783L38.9686 129.512L33.001 118.66L45.1686 120.988L46.7111 108.696L55.1857 117.736L63.6615 108.696L65.2029 120.988L77.3709 118.66L71.4041 129.512L82.6092 134.783Z" fill="white"/>
</g>
<path d="M0.5 100C0.5 45.0477 45.0477 0.5 100 0.5C154.952 0.5 199.5 45.0477 199.5 100C199.5 154.952 154.952 199.5 100 199.5C45.0477 199.5 0.5 154.952 0.5 100Z" stroke="#EAEBEE"/>
<defs>
<clipPath id="clip0_67_8698">
<path d="M0 100C0 44.7715 44.7715 0 100 0C155.228 0 200 44.7715 200 100C200 155.228 155.228 200 100 200C44.7715 200 0 155.228 0 100Z" fill="white"/>
</clipPath>
</defs>
</svg>
