<svg width="200" height="200" viewBox="0 0 200 200" fill="none" xmlns="http://www.w3.org/2000/svg">
<g clip-path="url(#clip0_67_8705)">
<path d="M100 200C155.228 200 200 155.228 200 100C200 44.7715 155.228 0 100 0C44.7715 0 0 44.7715 0 100C0 155.228 44.7715 200 100 200Z" fill="white"/>
<path d="M199.413 110.87L199.411 110.867L199.41 110.87H199.413Z" fill="#0052B4"/>
<path d="M199.41 110.87C199.41 110.869 199.411 110.868 199.411 110.867L89.7445 0.52002C84.7973 1.02432 79.9562 1.88916 75.2488 3.08799C31.9914 14.1017 0 100 0 100C0 100 139.999 193.686 155.971 182.877C159.166 180.714 162.23 178.372 165.148 175.864L100.154 110.87H199.41Z" fill="#0052B4"/>
<path d="M173.913 99.9999L76.6582 2.74561C32.6906 13.2601 0 52.8093 0 99.9999C0 155.228 44.7719 200 100 200C120.949 200 140.389 193.554 156.457 182.543L73.9129 99.9999H173.913Z" fill="#D80027"/>
<path d="M95.1063 147.654L82.8934 141.909L89.3969 130.081L76.1352 132.618L74.4547 119.221L65.2176 129.074L55.9805 119.221L54.2996 132.618L41.0383 130.081L47.5418 141.909L35.3285 147.654L47.5418 153.398L41.0383 165.226L54.3004 162.689L55.9801 176.086L65.2176 166.232L74.4547 176.086L76.1352 162.689L89.3965 165.226L82.893 153.398L95.1063 147.654Z" fill="white"/>
<path d="M86.9566 55.4619L78.0738 51.2842L82.8039 42.6814L73.1582 44.5268L71.9359 34.7822L65.2176 41.949L58.4992 34.7822L57.2766 44.5268L47.6309 42.6814L52.3613 51.2842L43.4781 55.4619L65.2176 59.8104L86.9566 55.4619Z" fill="white"/>
<path d="M91.3043 55.4619C91.3043 69.8693 79.6246 81.549 65.2172 81.549C50.8098 81.549 39.1301 69.8693 39.1301 55.4619" fill="white"/>
</g>
<path d="M0.5 100C0.5 45.0477 45.0477 0.5 100 0.5C154.952 0.5 199.5 45.0477 199.5 100C199.5 154.952 154.952 199.5 100 199.5C45.0477 199.5 0.5 154.952 0.5 100Z" stroke="#EAEBEE"/>
<defs>
<clipPath id="clip0_67_8705">
<path d="M0 100C0 44.7715 44.7715 0 100 0C155.228 0 200 44.7715 200 100C200 155.228 155.228 200 100 200C44.7715 200 0 155.228 0 100Z" fill="white"/>
</clipPath>
</defs>
</svg>
