<svg width="200" height="200" viewBox="0 0 200 200" fill="none" xmlns="http://www.w3.org/2000/svg">
<g clip-path="url(#clip0_67_8719)">
<path d="M200 100C200 155.228 155.228 200 100 200C44.7719 200 0 155.228 0 100C0 100.024 100 0.0109375 100 0C155.228 0 200 44.7719 200 100Z" fill="#0052B4"/>
<path d="M99.7324 100H100C100 99.9102 100 99.8227 100 99.7324C99.9109 99.8219 99.8219 99.9109 99.7324 100Z" fill="white"/>
<path d="M100 52.1738C100 34.5781 100 23.0488 100 0H99.9832C44.7625 0.009375 0 44.777 0 100H52.1738V70.6207L81.5535 100H99.7328C99.8219 99.9109 99.9113 99.8219 100 99.7324C100 92.9953 100 86.984 100 81.5539L70.6203 52.1738H100Z" fill="white"/>
<path d="M50.5918 13.0435C34.9515 21.9493 21.9492 34.9517 13.0433 50.5919V100H39.1304V39.1313V39.1306H100C100 30.9028 100 23.0646 100 13.0435H50.5918Z" fill="#D80027"/>
<path d="M100 87.7028L64.4715 52.1743C64.4715 52.1743 52.1742 52.1751 52.1742 52.1743V52.1751L99.9996 100H100C100 100 100 91.5208 100 87.7028Z" fill="#D80027"/>
<path d="M173.176 74.2026L175.334 80.8456H182.319L176.668 84.9511L178.827 91.5937L173.176 87.4886L167.525 91.5937L169.683 84.9511L164.032 80.8456H171.017L173.176 74.2026Z" fill="#D80027"/>
<path d="M148.207 122.029L151.445 131.994H161.922L153.446 138.151L156.684 148.116L148.207 141.958L139.731 148.116L142.969 138.151L134.493 131.994H144.97L148.207 122.029Z" fill="#D80027"/>
<path d="M149.15 43.7681L151.849 52.0724H160.58L153.516 57.2032L156.214 65.5071L149.15 60.3747L142.087 65.5071L144.785 57.2032L137.722 52.0724H146.452L149.15 43.7681Z" fill="#D80027"/>
<path d="M125.126 73.9131L128.363 83.8779H138.841L130.364 90.0357L133.602 100L125.126 93.842L116.649 100L119.887 90.0357L111.411 83.8779H121.888L125.126 73.9131Z" fill="#D80027"/>
</g>
<path d="M0.5 100C0.5 45.0477 45.0477 0.5 100 0.5C154.952 0.5 199.5 45.0477 199.5 100C199.5 154.952 154.952 199.5 100 199.5C45.0477 199.5 0.5 154.952 0.5 100Z" stroke="#EAEBEE"/>
<defs>
<clipPath id="clip0_67_8719">
<path d="M0 100C0 44.7715 44.7715 0 100 0C155.228 0 200 44.7715 200 100C200 155.228 155.228 200 100 200C44.7715 200 0 155.228 0 100Z" fill="white"/>
</clipPath>
</defs>
</svg>
