<svg width="200" height="200" viewBox="0 0 200 200" fill="none" xmlns="http://www.w3.org/2000/svg">
<g clip-path="url(#clip0_67_8732)">
<path d="M100 200C155.228 200 200 155.228 200 100C200 44.7715 155.228 0 100 0C44.7715 0 0 44.7715 0 100C0 155.228 44.7715 200 100 200Z" fill="white"/>
<path d="M99.9999 0C60.3539 0 26.0976 23.0723 9.92261 56.5219H190.077C173.902 23.0723 139.646 0 99.9999 0Z" fill="#338AF3"/>
<path d="M99.9999 200C139.646 200 173.902 176.928 190.077 143.478H9.92261C26.0976 176.928 60.3539 200 99.9999 200Z" fill="#338AF3"/>
<path d="M99.9999 69.5654C83.1914 69.5654 69.5652 83.1916 69.5652 100C69.5652 116.809 83.1914 130.435 99.9999 130.435C116.809 130.435 130.435 116.809 130.435 100C130.435 83.1916 116.809 69.5654 99.9999 69.5654ZM99.9999 117.392C90.3953 117.392 82.6085 109.606 82.6085 100C82.6085 90.3947 90.3949 82.6088 99.9999 82.6088C109.605 82.6088 117.391 90.3947 117.391 100C117.391 109.606 109.605 117.392 99.9999 117.392Z" fill="#FFDA44"/>
<path d="M115.062 104.348L100 100L84.9383 104.348L79.918 113.043H120.082L115.062 104.348Z" fill="#0052B4"/>
<path d="M100 78.2607L89.959 95.6521L100 99.9998L110.041 95.6521L100 78.2607Z" fill="#338AF3"/>
<path d="M84.9382 104.348H115.062L110.041 95.6523H89.9589L84.9382 104.348Z" fill="#6DA544"/>
</g>
<path d="M0.5 100C0.5 45.0477 45.0477 0.5 100 0.5C154.952 0.5 199.5 45.0477 199.5 100C199.5 154.952 154.952 199.5 100 199.5C45.0477 199.5 0.5 154.952 0.5 100Z" stroke="#EAEBEE"/>
<defs>
<clipPath id="clip0_67_8732">
<path d="M0 100C0 44.7715 44.7715 0 100 0C155.228 0 200 44.7715 200 100C200 155.228 155.228 200 100 200C44.7715 200 0 155.228 0 100Z" fill="white"/>
</clipPath>
</defs>
</svg>
