<svg width="200" height="200" viewBox="0 0 200 200" fill="none" xmlns="http://www.w3.org/2000/svg">
<g clip-path="url(#clip0_67_8741)">
<path d="M9.92266 56.5219C3.56563 69.6688 0 84.4176 0 100C0 115.582 3.56563 130.331 9.92266 143.478L100 152.174L190.077 143.478C196.434 130.331 200 115.582 200 100C200 84.4176 196.434 69.6688 190.077 56.5219L100 47.8262L9.92266 56.5219Z" fill="white"/>
<path d="M9.92615 143.478C26.1004 176.928 60.3539 200 100 200C139.646 200 173.9 176.928 190.074 143.478H9.92615Z" fill="#6DA544"/>
<path d="M9.92615 56.5219H190.074C173.9 23.0723 139.646 0 100 0C60.3543 0 26.1004 23.0723 9.92615 56.5219Z" fill="#FF9811"/>
<path d="M100 134.783C119.21 134.783 134.782 119.21 134.782 100C134.782 80.7904 119.21 65.2178 100 65.2178C80.7902 65.2178 65.2175 80.7904 65.2175 100C65.2175 119.21 80.7902 134.783 100 134.783Z" fill="#FF9811"/>
</g>
<path d="M0.5 100C0.5 45.0477 45.0477 0.5 100 0.5C154.952 0.5 199.5 45.0477 199.5 100C199.5 154.952 154.952 199.5 100 199.5C45.0477 199.5 0.5 154.952 0.5 100Z" stroke="#EAEBEE"/>
<defs>
<clipPath id="clip0_67_8741">
<path d="M0 100C0 44.7715 44.7715 0 100 0C155.228 0 200 44.7715 200 100C200 155.228 155.228 200 100 200C44.7715 200 0 155.228 0 100Z" fill="white"/>
</clipPath>
</defs>
</svg>
