<svg width="200" height="200" viewBox="0 0 200 200" fill="none" xmlns="http://www.w3.org/2000/svg">
<g clip-path="url(#clip0_67_8752)">
<path d="M200 100C200 155.228 155.228 200 100 200C44.7719 200 0 155.228 0 100C0 100.024 100 0.0109375 100 0C155.228 0 200 44.7719 200 100Z" fill="#FFDA44"/>
<path d="M100 47.8262V81.5539L65.2175 47.8262H100Z" fill="#0052B4"/>
<path d="M52.1738 100H81.5531L52.1738 60.8696L47.8262 91.3044L52.1738 100Z" fill="#0052B4"/>
<path d="M99.7324 100H100C100 99.9102 100 99.8227 100 99.7324C99.9109 99.8219 99.8219 99.9109 99.7324 100Z" fill="white"/>
<path d="M100 52.1738C100 34.5781 100 23.0488 100 0H99.9832C44.7621 0.009375 0 44.777 0 100H52.1738V70.6207L81.5531 100H99.7328C99.8219 99.9109 99.9109 99.8219 100 99.7324C100 92.9953 100 86.984 100 81.5539L70.6203 52.1738H100Z" fill="white"/>
<path d="M100 87.7028L64.4707 52.1743H52.1738V52.1751L99.9992 100H100C100 100 100 91.5208 100 87.7028Z" fill="#D80027"/>
<path d="M50.5919 13.0435C46.7368 15.2388 43.0435 17.6853 39.531 20.356H43.6341L32.7896 28.2364L36.931 40.9853L26.0864 33.1063L24.9325 33.945C20.4298 39.0583 16.4376 44.6317 13.0435 50.5919V100H39.1306V39.1313V39.1306H100C100 30.9028 100 23.0646 100 13.0435H50.5919Z" fill="#D80027"/>
<path d="M42.7188 18.0283C41.6403 18.7834 40.577 19.5596 39.5298 20.3561L32.7896 28.2365L26.0864 33.1061L24.9228 33.9514C22.4673 36.7404 20.1646 39.667 18.0278 42.7189C20.4634 43.901 23.1974 44.5654 26.0864 44.5654C36.2919 44.5654 44.5646 36.2928 44.5646 26.0873C44.5653 23.1975 43.9013 20.4643 42.7188 18.0283Z" fill="#0052B4"/>
<path d="M24.9231 33.9513L26.0868 33.106L36.9313 40.9853L32.7895 28.2364L43.6332 20.356H39.5293C34.2192 24.3946 29.3258 28.9509 24.9231 33.9513Z" fill="#FFDA44"/>
<path d="M69.1181 17.3916L71.2767 24.0342H78.2611L72.6107 28.14L74.7681 34.7826L69.1181 30.6771L63.4677 34.7826L65.6248 28.14L59.9744 24.0342H66.9591L69.1181 17.3916Z" fill="#FFDA44"/>
<path d="M26.0872 60.8696L28.2458 67.5122H35.2302L29.5802 71.6185L31.7376 78.261L26.0872 74.1552L20.4364 78.261L22.5938 71.6185L16.9438 67.5122H23.9282L26.0872 60.8696Z" fill="#FFDA44"/>
</g>
<path d="M0.5 100C0.5 45.0477 45.0477 0.5 100 0.5C154.952 0.5 199.5 45.0477 199.5 100C199.5 154.952 154.952 199.5 100 199.5C45.0477 199.5 0.5 154.952 0.5 100Z" stroke="#EAEBEE"/>
<defs>
<clipPath id="clip0_67_8752">
<path d="M0 100C0 44.7715 44.7715 0 100 0C155.228 0 200 44.7715 200 100C200 155.228 155.228 200 100 200C44.7715 200 0 155.228 0 100Z" fill="white"/>
</clipPath>
</defs>
</svg>
