<svg width="200" height="200" viewBox="0 0 200 200" fill="none" xmlns="http://www.w3.org/2000/svg">
<g clip-path="url(#clip0_67_8769)">
<path d="M143.478 9.92266C130.331 3.56563 115.582 0 100 0C84.4176 0 69.6688 3.56563 56.5219 9.92266L47.8262 100L56.5219 190.077C69.6688 196.434 84.4176 200 100 200C115.582 200 130.331 196.434 143.478 190.077L152.174 100L143.478 9.92266Z" fill="white"/>
<path d="M56.5219 9.92627C23.0723 26.1005 0 60.354 0 100C0 139.646 23.0723 173.9 56.5219 190.074V9.92627Z" fill="#6DA544"/>
<path d="M143.478 9.92627V190.074C176.928 173.9 200 139.646 200 100C200 60.3544 176.928 26.1005 143.478 9.92627Z" fill="#6DA544"/>
<path d="M126.087 130.435L100 47.8262L73.9128 130.435H93.4781V152.174H106.522V130.435H126.087Z" fill="#6DA544"/>
</g>
<path d="M0.5 100C0.5 45.0477 45.0477 0.5 100 0.5C154.952 0.5 199.5 45.0477 199.5 100C199.5 154.952 154.952 199.5 100 199.5C45.0477 199.5 0.5 154.952 0.5 100Z" stroke="#EAEBEE"/>
<defs>
<clipPath id="clip0_67_8769">
<path d="M0 100C0 44.7715 44.7715 0 100 0C155.228 0 200 44.7715 200 100C200 155.228 155.228 200 100 200C44.7715 200 0 155.228 0 100Z" fill="white"/>
</clipPath>
</defs>
</svg>
