<svg width="200" height="200" viewBox="0 0 200 200" fill="none" xmlns="http://www.w3.org/2000/svg">
<g clip-path="url(#clip0_67_8775)">
<path d="M100 200C155.228 200 200 155.228 200 100C200 44.7715 155.228 0 100 0C44.7715 0 0 44.7715 0 100C0 155.228 44.7715 200 100 200Z" fill="white"/>
<path d="M99.9999 0C69.6909 0 42.5335 13.4859 24.1948 34.7824H175.805C157.466 13.4859 130.309 0 99.9999 0Z" fill="#0052B4"/>
<path d="M175.805 165.218H24.1948C42.5335 186.514 69.6909 200 99.9999 200C130.309 200 157.466 186.514 175.805 165.218Z" fill="#0052B4"/>
<path d="M185.323 47.8262H14.6773C5.36914 63.0156 0 80.8801 0 100C0 119.12 5.36914 136.985 14.6773 152.174H185.323C194.631 136.985 200 119.12 200 100C200 80.8801 194.631 63.0156 185.323 47.8262Z" fill="#D80027"/>
<path d="M61.5218 138.478C82.7727 138.478 99.9999 121.251 99.9999 100C99.9999 78.7492 82.7727 61.522 61.5218 61.522C40.2709 61.522 23.0437 78.7492 23.0437 100C23.0437 121.251 40.2709 138.478 61.5218 138.478Z" fill="white"/>
<path d="M61.5218 61.522L70.155 88.0927H98.1386L75.4913 104.515L84.1921 131.165L61.5218 114.665L38.8858 131.134L47.5522 104.515L24.9253 88.0927H52.8882L61.5218 61.522Z" fill="#D80027"/>
</g>
<path d="M0.5 100C0.5 45.0477 45.0477 0.5 100 0.5C154.952 0.5 199.5 45.0477 199.5 100C199.5 154.952 154.952 199.5 100 199.5C45.0477 199.5 0.5 154.952 0.5 100Z" stroke="#EAEBEE"/>
<defs>
<clipPath id="clip0_67_8775">
<path d="M0 100C0 44.7715 44.7715 0 100 0C155.228 0 200 44.7715 200 100C200 155.228 155.228 200 100 200C44.7715 200 0 155.228 0 100Z" fill="white"/>
</clipPath>
</defs>
</svg>
