<svg width="200" height="200" viewBox="0 0 200 200" fill="none" xmlns="http://www.w3.org/2000/svg">
<g clip-path="url(#clip0_67_8790)">
<path d="M100 200C155.228 200 200 155.228 200 100C200 44.7715 155.228 0 100 0C44.7715 0 0 44.7715 0 100C0 155.228 44.7715 200 100 200Z" fill="#338AF3"/>
<path d="M96.8478 162.965C94.1521 162.834 91.9217 161.082 91.0478 158.704C89.5045 160.717 86.8521 161.73 84.2393 161.056C81.6217 160.382 79.7916 158.217 79.4131 155.704C77.4912 157.364 74.6912 157.816 72.2697 156.63C69.8435 155.439 68.4873 152.947 68.6264 150.412C66.4135 151.655 63.5787 151.534 61.4439 149.882C59.3135 148.229 58.483 145.521 59.1264 143.064C56.7088 143.838 53.9611 143.151 52.2002 141.103C50.4393 139.06 50.1693 136.238 51.2916 133.964C48.7697 134.233 46.2135 133.007 44.9002 130.651C43.5826 128.295 43.8873 125.473 45.4478 123.468C42.9217 123.225 40.6607 121.507 39.8521 118.933C39.0393 116.359 39.9088 113.655 41.8435 112.007C39.4174 111.259 37.5564 109.12 37.2826 106.438C37.0088 103.755 38.4002 101.29 40.6217 100.064C38.3998 98.8461 36.9998 96.3813 37.265 93.7028H37.2693C37.5346 91.0156 39.3955 88.8727 41.817 88.1156C39.8822 86.4723 39.0041 83.7723 39.8084 81.1981C40.6127 78.6199 42.8689 76.8981 45.3955 76.6457C43.8346 74.6457 43.5217 71.8235 44.8303 69.4633C46.1389 67.1067 48.6955 65.8762 51.2217 66.1414C50.0912 63.8676 50.3564 61.0457 52.1131 58.9938C53.8654 56.9461 56.6131 56.2547 59.035 57.0199C58.3826 54.5676 59.2088 51.8547 61.3393 50.1985C63.4654 48.5414 66.3002 48.4152 68.5131 49.65C68.3697 47.1156 69.7217 44.6238 72.1435 43.4281C74.5611 42.2367 77.3654 42.6805 79.2912 44.341C79.6607 41.8285 81.4912 39.6547 84.1041 38.9758C86.7127 38.2977 89.365 39.302 90.9127 41.3106C91.7865 38.9324 94.0127 37.1758 96.7084 37.041C99.3998 36.9024 101.791 38.4149 102.904 40.6895C104.235 38.5328 106.765 37.2547 109.43 37.659C112.1 38.059 114.148 40.0238 114.783 42.4809C116.522 40.6281 119.261 39.8938 121.791 40.8238C124.326 41.7586 125.935 44.0977 126.056 46.6367C128.13 45.1762 130.965 45.0063 133.256 46.4324C135.548 47.8543 136.648 50.4672 136.256 52.9758C138.583 51.9629 141.391 52.3672 143.348 54.2192C145.304 56.0758 145.861 58.8539 144.974 61.232C147.456 60.7059 150.126 61.6625 151.674 63.8754C153.222 66.084 153.209 68.9188 151.865 71.0711C154.4 71.0535 156.822 72.532 157.896 75.0059C158.965 77.484 158.378 80.2625 156.626 82.1016C159.118 82.5973 161.192 84.5321 161.739 87.1754C162.283 89.8188 161.148 92.4145 159.065 93.8625C161.396 94.85 163.039 97.1582 163.044 99.8539V99.941V99.9977C163.044 102.693 161.409 105.006 159.078 106.002C161.165 107.441 162.309 110.037 161.765 112.68C161.226 115.323 159.157 117.263 156.665 117.767C158.422 119.602 159.018 122.376 157.953 124.859C156.887 127.337 154.465 128.82 151.926 128.806C153.274 130.959 153.296 133.793 151.753 136.006C150.209 138.22 147.544 139.185 145.061 138.663C145.953 141.037 145.4 143.82 143.448 145.68C141.492 147.538 138.687 147.946 136.361 146.941C136.757 149.446 135.661 152.063 133.374 153.494C131.087 154.924 128.252 154.759 126.174 153.302C126.056 155.841 124.456 158.185 121.926 159.124C119.396 160.063 121.926 159.124 121.922 159.124C119.392 160.059 116.653 159.329 114.909 157.481C114.283 159.942 112.24 161.911 109.57 162.32C106.905 162.725 104.37 161.455 103.035 159.298C101.974 161.486 99.7311 162.972 97.1744 162.972C97.0654 162.974 96.9568 162.97 96.8478 162.965Z" fill="#F3F3F3"/>
<path d="M100 143.478C124.012 143.478 143.478 124.012 143.478 100C143.478 75.9878 124.012 56.522 100 56.522C75.9878 56.522 56.522 75.9878 56.522 100C56.522 124.012 75.9878 143.478 100 143.478Z" fill="#338AF3"/>
<path d="M109.517 85.242C111.653 83.6576 113.043 81.1252 113.043 78.2611V73.9135C113.043 69.1107 109.15 65.2178 104.348 65.2178H95.6522C90.8495 65.2178 86.9565 69.1107 86.9565 73.9135V78.2611C86.9565 81.1252 88.3472 83.6576 90.4831 85.242L82.6089 165.217C82.6089 165.217 86.9565 169.566 100 169.566C113.044 169.566 117.392 165.217 117.392 165.217L109.517 85.242Z" fill="#BDBCC1"/>
<path d="M99.9998 65.2178L107.554 88.467H132.001L112.224 102.837L119.777 126.087L99.9998 111.718L80.2217 126.087L87.7768 102.837L67.999 88.467H92.4455L99.9998 65.2178Z" fill="white"/>
</g>
<path d="M0.5 100C0.5 45.0477 45.0477 0.5 100 0.5C154.952 0.5 199.5 45.0477 199.5 100C199.5 154.952 154.952 199.5 100 199.5C45.0477 199.5 0.5 154.952 0.5 100Z" stroke="#EAEBEE"/>
<defs>
<clipPath id="clip0_67_8790">
<path d="M0 100C0 44.7715 44.7715 0 100 0C155.228 0 200 44.7715 200 100C200 155.228 155.228 200 100 200C44.7715 200 0 155.228 0 100Z" fill="white"/>
</clipPath>
</defs>
</svg>
