<svg width="200" height="200" viewBox="0 0 200 200" fill="none" xmlns="http://www.w3.org/2000/svg">
<g clip-path="url(#clip0_67_8783)">
<path d="M100 200C155.228 200 200 155.228 200 100C200 44.7715 155.228 0 100 0C44.7715 0 0 44.7715 0 100C0 155.228 44.7715 200 100 200Z" fill="white"/>
<path d="M24.195 34.7822C20.686 38.8576 17.5004 43.2182 14.677 47.8256H185.322C182.499 43.2182 179.314 38.8572 175.804 34.7822H24.195Z" fill="#D80027"/>
<path d="M24.1948 165.217H175.805C179.314 161.142 182.499 156.781 185.323 152.174H14.6772C17.5003 156.781 20.6858 161.142 24.1948 165.217Z" fill="#D80027"/>
<path d="M87.2031 81.7129L95.4078 93.0195L108.696 88.7109L100.478 100.008L108.682 111.314L95.3988 106.989L87.1813 118.286L87.1895 104.317L73.9062 99.9918L87.1945 95.6832L87.2031 81.7129Z" fill="#D80027"/>
<path d="M64.8106 128.261C49.2028 128.261 36.5497 115.607 36.5497 99.9996C36.5497 84.3918 49.2028 71.7387 64.8106 71.7387C69.677 71.7387 74.2563 72.9691 78.254 75.1356C71.9825 69.0023 63.4056 65.2168 53.9411 65.2168C34.731 65.2168 19.1587 80.7895 19.1587 99.9992C19.1587 119.209 34.7313 134.782 53.9411 134.782C63.4056 134.782 71.9825 130.996 78.254 124.863C74.2563 127.03 69.6774 128.261 64.8106 128.261Z" fill="#D80027"/>
</g>
<path d="M0.5 100C0.5 45.0477 45.0477 0.5 100 0.5C154.952 0.5 199.5 45.0477 199.5 100C199.5 154.952 154.952 199.5 100 199.5C45.0477 199.5 0.5 154.952 0.5 100Z" stroke="#EAEBEE"/>
<defs>
<clipPath id="clip0_67_8783">
<path d="M0 100C0 44.7715 44.7715 0 100 0C155.228 0 200 44.7715 200 100C200 155.228 155.228 200 100 200C44.7715 200 0 155.228 0 100Z" fill="white"/>
</clipPath>
</defs>
</svg>
