<svg width="200" height="200" viewBox="0 0 200 200" fill="none" xmlns="http://www.w3.org/2000/svg">
<g clip-path="url(#clip0_67_8804)">
<path d="M100 200C155.228 200 200 155.228 200 100C200 44.7715 155.228 0 100 0C44.7715 0 0 44.7715 0 100C0 155.228 44.7715 200 100 200Z" fill="white"/>
<path d="M0 100C0 137.904 21.0898 170.881 52.1738 187.841V12.1592C21.0898 29.1193 0 62.0959 0 100Z" fill="#D80027"/>
<path d="M193.78 134.783C197.8 123.949 200 112.232 200 100C200 87.7682 197.8 76.0506 193.78 65.2178H6.22031C2.20039 76.0506 0 87.7682 0 100C0 112.232 2.20039 123.949 6.22031 134.783L100 143.478L193.78 134.783Z" fill="#D80027"/>
<path d="M99.9999 200C142.997 200 179.651 172.862 193.78 134.782H6.22021C20.3491 172.862 57.0038 200 99.9999 200Z" fill="#6DA544"/>
<path d="M0 99.9999C0 146.203 31.3363 185.08 73.9129 196.555V3.44482C31.3363 14.9198 0 53.7972 0 99.9999Z" fill="#D80027"/>
<path d="M61.1783 44.0053L51.9553 34.7822L45.8068 40.9314L39.6584 34.7822L30.4354 44.0053L36.5842 50.1541L30.4346 56.3033L39.6576 65.5264L45.8064 59.3771L51.9553 65.5264L61.1783 56.3033L55.0295 50.1541L61.1783 44.0053Z" fill="white"/>
</g>
<path d="M0.5 100C0.5 45.0477 45.0477 0.5 100 0.5C154.952 0.5 199.5 45.0477 199.5 100C199.5 154.952 154.952 199.5 100 199.5C45.0477 199.5 0.5 154.952 0.5 100Z" stroke="#EAEBEE"/>
<defs>
<clipPath id="clip0_67_8804">
<path d="M0 100C0 44.7715 44.7715 0 100 0C155.228 0 200 44.7715 200 100C200 155.228 155.228 200 100 200C44.7715 200 0 155.228 0 100Z" fill="white"/>
</clipPath>
</defs>
</svg>
