<svg width="200" height="200" viewBox="0 0 200 200" fill="none" xmlns="http://www.w3.org/2000/svg">
<g clip-path="url(#clip0_67_8824)">
<path d="M100 200C155.228 200 200 155.228 200 100C200 44.7715 155.228 0 100 0C44.7715 0 0 44.7715 0 100C0 155.228 44.7715 200 100 200Z" fill="white"/>
<path d="M0 100C0 137.904 21.0895 170.881 52.1738 187.841V12.1592C21.0895 29.1197 0 62.0959 0 100Z" fill="white"/>
<path d="M100 0C82.6758 0 66.3812 4.40742 52.1738 12.159V187.841C66.3812 195.593 82.6758 200 100 200C155.228 200 200 155.228 200 100C200 44.7719 155.228 0 100 0Z" fill="#496E2D"/>
<path d="M142.755 116.537C130.104 125.678 112.438 122.833 103.297 110.182C94.1555 97.5307 97.0012 79.8647 109.652 70.7241C113.597 67.8741 118.029 66.1893 122.538 65.6038C113.863 64.3065 104.693 66.2612 97.0227 71.8038C81.4524 83.0545 77.9497 104.797 89.2001 120.368C100.45 135.938 122.193 139.441 137.765 128.19C145.436 122.647 150.171 114.556 151.662 105.912C149.691 110.008 146.7 113.687 142.755 116.537Z" fill="white"/>
<path d="M142.213 65.2183L149.34 72.8983L158.846 68.4952L153.743 77.6452L160.87 85.3261L150.59 83.3007L145.488 92.4515L144.237 82.0491L133.958 80.0237L143.464 75.6206L142.213 65.2183Z" fill="white"/>
</g>
<path d="M0.5 100C0.5 45.0477 45.0477 0.5 100 0.5C154.952 0.5 199.5 45.0477 199.5 100C199.5 154.952 154.952 199.5 100 199.5C45.0477 199.5 0.5 154.952 0.5 100Z" stroke="#EAEBEE"/>
<defs>
<clipPath id="clip0_67_8824">
<path d="M0 100C0 44.7715 44.7715 0 100 0C155.228 0 200 44.7715 200 100C200 155.228 155.228 200 100 200C44.7715 200 0 155.228 0 100Z" fill="white"/>
</clipPath>
</defs>
</svg>
