<svg width="200" height="200" viewBox="0 0 200 200" fill="none" xmlns="http://www.w3.org/2000/svg">
<g clip-path="url(#clip0_67_8846)">
<path d="M170.711 170.711C131.659 209.763 68.3423 209.763 29.2892 170.711C-9.76313 131.658 -9.76313 68.3414 29.2896 29.2887C68.3419 -9.76369 125.51 -3.61486 164.562 35.4379C203.614 74.4902 209.763 131.658 170.711 170.711Z" fill="black"/>
<path d="M29.2896 29.2889C68.3419 -9.76343 131.658 -9.76265 170.711 29.2893C209.763 68.3417 209.763 131.658 170.711 170.711" fill="#A2001D"/>
<path d="M76.4228 134.783L78.0416 139.765H83.2803L79.042 142.844L80.6611 147.826L76.4228 144.747L72.1846 147.826L73.8033 142.844L69.5654 139.765H74.8037L76.4228 134.783Z" fill="white"/>
<path d="M63.0437 86.9565L65.7425 95.2605H74.4729L67.4093 100.392L70.1073 108.696L63.0437 103.564L55.9804 108.696L58.6788 100.392L51.6147 95.2605H60.346L63.0437 86.9565Z" fill="white"/>
<path d="M63.0437 147.827L65.7417 156.131H74.4729L67.4085 161.262L70.1073 169.566L63.0437 164.433L55.9804 169.566L58.678 161.262L51.6147 156.131H60.3448L63.0437 147.827Z" fill="white"/>
<path d="M88.5711 108.696L91.2699 117H100L92.9367 122.131L95.6348 130.435L88.5711 125.302L81.5078 130.435L84.2063 122.131L77.1426 117H85.8734L88.5711 108.696Z" fill="white"/>
<path d="M37.5158 108.696L40.2146 117H48.9447L41.8814 122.131L44.5791 130.435L37.5158 125.302L30.4521 130.435L33.151 122.131L26.0869 117H34.8178L37.5158 108.696Z" fill="white"/>
<path d="M167.402 74.0473C162.933 69.5781 157.126 66.9379 150.886 66.4844L169.565 51.9559C162.126 44.5164 152.155 41.1566 142.425 41.8672C141.26 37.6812 139.039 33.7273 135.748 30.4355L128.369 45.1926C127.885 44.3105 127.272 43.4805 126.525 42.7332C122.279 38.4883 115.397 38.4883 111.153 42.7332C106.908 46.9781 106.907 53.8602 111.153 58.1051C111.9 58.8523 112.73 59.4652 113.612 59.9496L98.8555 67.3281C102.148 70.6211 106.105 72.8434 110.293 74.0074C109.58 83.7371 112.936 93.7066 120.376 101.146L136.696 80.1629C137.924 78.9539 139.546 78.2863 141.271 78.2863C143.013 78.2863 144.65 78.9645 145.882 80.1969C147.114 81.4285 147.793 83.0664 147.793 84.8082C147.793 86.5504 147.114 88.1879 145.882 89.4199L152.031 95.5691C154.905 92.6949 156.488 88.8734 156.488 84.8086C156.488 81.4828 155.427 78.3211 153.469 75.707C156.323 76.4691 159.02 77.9621 161.254 80.1969C168.036 86.9777 168.036 98.0113 161.254 104.792L167.404 110.941C172.33 106.014 175.044 99.4629 175.044 92.4945C175.043 85.5254 172.329 78.9746 167.402 74.0473Z" fill="#FFDA44"/>
</g>
<path d="M0.5 100C0.5 45.0477 45.0477 0.5 100 0.5C154.952 0.5 199.5 45.0477 199.5 100C199.5 154.952 154.952 199.5 100 199.5C45.0477 199.5 0.5 154.952 0.5 100Z" stroke="#EAEBEE"/>
<defs>
<clipPath id="clip0_67_8846">
<path d="M0 100C0 44.7715 44.7715 0 100 0C155.228 0 200 44.7715 200 100C200 155.228 155.228 200 100 200C44.7715 200 0 155.228 0 100Z" fill="white"/>
</clipPath>
</defs>
</svg>
