<svg width="200" height="200" viewBox="0 0 200 200" fill="none" xmlns="http://www.w3.org/2000/svg">
<g clip-path="url(#clip0_67_8856)">
<path d="M100 200C155.228 200 200 155.228 200 100C200 44.7715 155.228 0 100 0C44.7715 0 0 44.7715 0 100C0 155.228 44.7715 200 100 200Z" fill="white"/>
<path d="M100 0C60.3539 0 26.0977 23.0723 9.92265 56.5219H190.077C173.902 23.0723 139.646 0 100 0Z" fill="#D80027"/>
<path d="M100 200C139.646 200 173.902 176.928 190.077 143.478H9.92265C26.0977 176.928 60.3539 200 100 200Z" fill="#0052B4"/>
<path d="M124.595 71.0576L115.372 80.2807C119.306 84.2147 121.739 89.6494 121.739 95.6525C121.739 107.659 112.006 117.392 100 117.392C87.9945 117.392 78.2613 107.658 78.2613 95.6525C78.2613 89.6494 80.6949 84.2147 84.6289 80.2807L75.4059 71.0576C69.1109 77.3514 65.218 86.0471 65.218 95.6525C65.218 114.863 80.7906 130.435 100 130.435C119.21 130.435 134.783 114.862 134.783 95.6525C134.782 86.0471 130.889 77.3514 124.595 71.0576Z" fill="#6DA544"/>
<path d="M100 82.6084L103.238 92.5732H113.715L105.239 98.7311L108.477 108.696L100 102.537L91.5234 108.696L94.7613 98.7311L86.2852 92.5732H96.7621L100 82.6084Z" fill="#FFDA44"/>
</g>
<path d="M0.5 100C0.5 45.0477 45.0477 0.5 100 0.5C154.952 0.5 199.5 45.0477 199.5 100C199.5 154.952 154.952 199.5 100 199.5C45.0477 199.5 0.5 154.952 0.5 100Z" stroke="#EAEBEE"/>
<defs>
<clipPath id="clip0_67_8856">
<path d="M0 100C0 44.7715 44.7715 0 100 0C155.228 0 200 44.7715 200 100C200 155.228 155.228 200 100 200C44.7715 200 0 155.228 0 100Z" fill="white"/>
</clipPath>
</defs>
</svg>
