<svg width="200" height="200" viewBox="0 0 200 200" fill="none" xmlns="http://www.w3.org/2000/svg">
<g clip-path="url(#clip0_67_8867)">
<path d="M100 200C155.228 200 200 155.228 200 100C200 44.7715 155.228 0 100 0C44.7715 0 0 44.7715 0 100C0 155.228 44.7715 200 100 200Z" fill="white"/>
<path d="M100 0V100L29.2891 170.711C47.3855 188.807 72.3855 200 100 200C155.228 200 200 155.228 200 100C200 44.7719 100 0 100 0Z" fill="#D80027"/>
<path d="M100 0C72.3855 0 47.3855 11.193 29.2891 29.2891C53.8242 53.8242 62.534 62.5344 100 100H200C200 44.7719 155.228 0 100 0Z" fill="#0052B4"/>
<path d="M68.473 99.9998L56.2605 94.2553L62.764 82.4275L49.5023 84.9646L47.8218 71.5674L38.5844 81.4205L29.3472 71.5674L27.6664 84.9646L14.4051 82.4272L20.9086 94.2553L8.69568 99.9998L20.9086 105.744L14.4051 117.572L27.6676 115.035L29.3468 128.432L38.5844 118.579L47.8218 128.432L49.5023 115.035L62.7633 117.572L56.2601 105.745L68.473 99.9998Z" fill="#FFDA44"/>
<path d="M26.6691 39.1304L30.7332 44.8112L37.3914 42.7022L33.2437 48.3226L37.3078 54.0034L30.6805 51.796L26.5332 57.4159L26.5851 50.4315L19.9582 48.2237L26.6176 46.1147L26.6691 39.1304Z" fill="#FFDA44"/>
<path d="M26.6691 142.584L30.7332 148.265L37.3914 146.155L33.2437 151.776L37.3078 157.457L30.6805 155.25L26.5332 160.87L26.5851 153.885L19.9582 151.677L26.6176 149.568L26.6691 142.584Z" fill="#FFDA44"/>
<path d="M84.6351 90.8574L80.5714 96.5383L73.9128 94.4285L78.0605 100.049L73.9964 105.73L80.6238 103.523L84.7714 109.143L84.7191 102.159L91.346 99.9508L84.6871 97.8418L84.6351 90.8574Z" fill="#FFDA44"/>
</g>
<path d="M0.5 100C0.5 45.0477 45.0477 0.5 100 0.5C154.952 0.5 199.5 45.0477 199.5 100C199.5 154.952 154.952 199.5 100 199.5C45.0477 199.5 0.5 154.952 0.5 100Z" stroke="#EAEBEE"/>
<defs>
<clipPath id="clip0_67_8867">
<path d="M0 100C0 44.7715 44.7715 0 100 0C155.228 0 200 44.7715 200 100C200 155.228 155.228 200 100 200C44.7715 200 0 155.228 0 100Z" fill="white"/>
</clipPath>
</defs>
</svg>
