<svg width="200" height="200" viewBox="0 0 200 200" fill="none" xmlns="http://www.w3.org/2000/svg">
<g clip-path="url(#clip0_67_8892)">
<path d="M0 99.9998C0 142.996 27.1375 179.65 65.2168 193.779L73.9129 99.9994L65.2168 6.21973C27.1375 20.3494 0 57.0033 0 99.9998Z" fill="#6DA544"/>
<path d="M200 100C200 44.7719 155.228 0 100 0C87.768 0 76.0504 2.20039 65.2168 6.21992V193.78C76.0504 197.8 87.768 200 100 200C155.228 200 200 155.228 200 100Z" fill="#D80027"/>
<path d="M65.2175 134.783C84.4273 134.783 99.9999 119.21 99.9999 100C99.9999 80.7904 84.4273 65.2178 65.2175 65.2178C46.0077 65.2178 30.4351 80.7904 30.4351 100C30.4351 119.21 46.0077 134.783 65.2175 134.783Z" fill="#FFDA44"/>
<path d="M45.6523 82.6084V104.347C45.6523 115.153 54.4117 123.913 65.2176 123.913C76.0234 123.913 84.7828 115.153 84.7828 104.347V82.6084H45.6523Z" fill="#D80027"/>
<path d="M65.2177 110.87C61.6216 110.87 58.6958 107.944 58.6958 104.348V95.6523H71.7392V104.348C71.7392 107.944 68.8134 110.87 65.2177 110.87Z" fill="white"/>
</g>
<path d="M0.5 100C0.5 45.0477 45.0477 0.5 100 0.5C154.952 0.5 199.5 45.0477 199.5 100C199.5 154.952 154.952 199.5 100 199.5C45.0477 199.5 0.5 154.952 0.5 100Z" stroke="#EAEBEE"/>
<defs>
<clipPath id="clip0_67_8892">
<path d="M0 100C0 44.7715 44.7715 0 100 0C155.228 0 200 44.7715 200 100C200 155.228 155.228 200 100 200C44.7715 200 0 155.228 0 100Z" fill="white"/>
</clipPath>
</defs>
</svg>
