<svg width="200" height="200" viewBox="0 0 200 200" fill="none" xmlns="http://www.w3.org/2000/svg">
<g clip-path="url(#clip0_67_8898)">
<path d="M100 200C155.228 200 200 155.228 200 100C200 44.7715 155.228 0 100 0C44.7715 0 0 44.7715 0 100C0 155.228 44.7715 200 100 200Z" fill="white"/>
<path d="M99.9999 0C67.2843 0 38.2394 15.7121 19.9956 40H180.004C161.76 15.7121 132.716 0 99.9999 0Z" fill="#D80027"/>
<path d="M99.9999 200C132.716 200 161.76 184.288 180.004 160H19.9956C38.2394 184.288 67.2843 200 99.9999 200Z" fill="#D80027"/>
<path d="M0 100C0 106.85 0.690625 113.538 2.00273 120H197.998C199.31 113.538 200 106.85 200 100C200 93.1504 199.309 86.4621 197.998 80H2.00273C0.690625 86.4621 0 93.1504 0 100H0Z" fill="#D80027"/>
<path d="M29.2893 29.2891C-9.76309 68.3414 -9.76309 131.658 29.2893 170.711C45.4271 154.573 60.9478 139.052 100 100L29.2893 29.2891Z" fill="#0052B4"/>
<path d="M40.4728 73.9131L46.9474 93.8412H67.9028L50.9505 106.158L57.4247 126.087L40.4728 113.771L23.52 126.087L29.9958 106.158L13.0435 93.8412H33.9974L40.4728 73.9131Z" fill="white"/>
</g>
<path d="M0.5 100C0.5 45.0477 45.0477 0.5 100 0.5C154.952 0.5 199.5 45.0477 199.5 100C199.5 154.952 154.952 199.5 100 199.5C45.0477 199.5 0.5 154.952 0.5 100Z" stroke="#EAEBEE"/>
<defs>
<clipPath id="clip0_67_8898">
<path d="M0 100C0 44.7715 44.7715 0 100 0C155.228 0 200 44.7715 200 100C200 155.228 155.228 200 100 200C44.7715 200 0 155.228 0 100Z" fill="white"/>
</clipPath>
</defs>
</svg>
