<svg width="200" height="200" viewBox="0 0 200 200" fill="none" xmlns="http://www.w3.org/2000/svg">
<g clip-path="url(#clip0_67_8906)">
<path d="M100 200C155.228 200 200 155.228 200 100C200 44.7715 155.228 0 100 0C44.7715 0 0 44.7715 0 100C0 155.228 44.7715 200 100 200Z" fill="white"/>
<path d="M200 100C200 44.7719 155.228 0 99.9999 0C80.4374 0 62.1897 5.62305 46.7765 15.3324L68.6956 24.6453L39.1304 37.207L68.6956 49.7684L39.1304 62.3293L68.6956 74.8898L39.1304 87.4488L68.6956 100.007L39.1304 112.568L68.6956 125.128L39.1304 137.687L68.6956 150.247L39.1304 162.808L68.6956 175.367L46.7862 184.675C62.1976 194.38 80.4413 200 99.9999 200C155.228 200 200 155.228 200 100Z" fill="#751A46"/>
</g>
<path d="M0.5 100C0.5 45.0477 45.0477 0.5 100 0.5C154.952 0.5 199.5 45.0477 199.5 100C199.5 154.952 154.952 199.5 100 199.5C45.0477 199.5 0.5 154.952 0.5 100Z" stroke="#EAEBEE"/>
<defs>
<clipPath id="clip0_67_8906">
<path d="M0 100C0 44.7715 44.7715 0 100 0C155.228 0 200 44.7715 200 100C200 155.228 155.228 200 100 200C44.7715 200 0 155.228 0 100Z" fill="white"/>
</clipPath>
</defs>
</svg>
