<svg width="200" height="200" viewBox="0 0 200 200" fill="none" xmlns="http://www.w3.org/2000/svg">
<g clip-path="url(#clip0_67_8909)">
<path d="M100 200C155.228 200 200 155.228 200 100C200 44.7715 155.228 0 100 0C44.7715 0 0 44.7715 0 100C0 155.228 44.7715 200 100 200Z" fill="#FCFCFC"/>
<path d="M130.435 82.6084V91.3041H142.369C137.389 98.226 130.755 103.877 123.047 107.682C121.069 105.628 118.293 104.347 115.217 104.347C110.032 104.347 105.697 107.98 104.612 112.839C103.092 112.972 101.554 113.043 99.9999 113.043C98.4456 113.043 96.9077 112.972 95.3882 112.839C94.3026 107.98 89.9683 104.347 84.7827 104.347C81.7065 104.347 78.9312 105.628 76.953 107.682C69.2452 103.877 62.6116 98.2256 57.6311 91.3041H69.5651V82.6084H39.1304C39.1304 116.225 66.3831 143.478 99.9999 143.478C133.617 143.478 160.869 116.225 160.869 82.6084H130.435Z" fill="#D80027"/>
</g>
<path d="M0.5 100C0.5 45.0477 45.0477 0.5 100 0.5C154.952 0.5 199.5 45.0477 199.5 100C199.5 154.952 154.952 199.5 100 199.5C45.0477 199.5 0.5 154.952 0.5 100Z" stroke="#EAEBEE"/>
<defs>
<clipPath id="clip0_67_8909">
<path d="M0 100C0 44.7715 44.7715 0 100 0C155.228 0 200 44.7715 200 100C200 155.228 155.228 200 100 200C44.7715 200 0 155.228 0 100Z" fill="white"/>
</clipPath>
</defs>
</svg>
