<svg width="200" height="200" viewBox="0 0 200 200" fill="none" xmlns="http://www.w3.org/2000/svg">
<g clip-path="url(#clip0_67_8925)">
<path d="M54.2072 188.923L127.67 127.67L188.923 54.2076C179.4 35.7514 164.299 20.6425 145.85 11.1069L72.3291 72.3299L11.1069 145.85C20.6417 164.3 35.7506 179.4 54.2072 188.923Z" fill="#FFDA44"/>
<path d="M170.713 170.714C202.262 139.164 208.319 91.7825 188.895 54.1475L54.147 188.896C91.7821 208.319 139.164 202.262 170.713 170.714Z" fill="#D80027"/>
<path d="M29.2864 29.2863C-2.26281 60.8355 -8.31904 108.217 11.104 145.853L145.853 11.1043C108.217 -8.31946 60.8355 -2.26244 29.2864 29.2863Z" fill="#6DA544"/>
</g>
<path d="M0.5 100C0.5 45.0477 45.0477 0.5 100 0.5C154.952 0.5 199.5 45.0477 199.5 100C199.5 154.952 154.952 199.5 100 199.5C45.0477 199.5 0.5 154.952 0.5 100Z" stroke="#EAEBEE"/>
<defs>
<clipPath id="clip0_67_8925">
<path d="M0 100C0 44.7715 44.7715 0 100 0C155.228 0 200 44.7715 200 100C200 155.228 155.228 200 100 200C44.7715 200 0 155.228 0 100Z" fill="white"/>
</clipPath>
</defs>
</svg>
