<svg width="200" height="200" viewBox="0 0 200 200" fill="none" xmlns="http://www.w3.org/2000/svg">
<g clip-path="url(#clip0_67_8912)">
<path d="M100 200C155.228 200 200 155.228 200 100C200 44.7715 155.228 0 100 0C44.7715 0 0 44.7715 0 100C0 155.228 44.7715 200 100 200Z" fill="#FFDA44"/>
<path d="M115.208 198.85C131.472 196.369 146.443 189.964 159.136 180.64L100 100L115.208 198.85Z" fill="#D80027"/>
<path d="M84.7918 1.14941C68.5281 3.63066 53.557 10.0354 40.8633 19.3592L100 99.9998L84.7918 1.14941Z" fill="#D80027"/>
<path d="M40.8633 180.64C53.5562 189.964 68.5273 196.369 84.791 198.851L100 100L40.8633 180.64Z" fill="#D80027"/>
<path d="M19.3594 40.8633C10.0352 53.557 3.6313 68.5277 1.14966 84.7918L100 100L19.3594 40.8633Z" fill="#D80027"/>
<path d="M1.14966 115.208C3.63091 131.472 10.0356 146.443 19.3598 159.136L100 100L1.14966 115.208Z" fill="#D80027"/>
<path d="M198.85 84.7914C196.369 68.5277 189.964 53.5566 180.64 40.8633L100 99.9996L198.85 84.7914Z" fill="#D80027"/>
<path d="M159.136 19.3588C146.443 10.035 131.472 3.63066 115.208 1.14941L100 99.9998L159.136 19.3588Z" fill="#D80027"/>
<path d="M180.641 159.136C189.965 146.443 196.369 131.471 198.851 115.208L100 100L180.641 159.136Z" fill="#D80027"/>
<path d="M100 134.782C119.21 134.782 134.782 119.21 134.782 99.9997C134.782 80.7899 119.21 65.2173 100 65.2173C80.7902 65.2173 65.2175 80.7899 65.2175 99.9997C65.2175 119.21 80.7902 134.782 100 134.782Z" fill="#D80027"/>
<path d="M100 126.087C114.407 126.087 126.087 114.408 126.087 100C126.087 85.5927 114.407 73.9131 100 73.9131C85.5924 73.9131 73.9128 85.5927 73.9128 100C73.9128 114.408 85.5924 126.087 100 126.087Z" fill="#FFDA44"/>
</g>
<path d="M0.5 100C0.5 45.0477 45.0477 0.5 100 0.5C154.952 0.5 199.5 45.0477 199.5 100C199.5 154.952 154.952 199.5 100 199.5C45.0477 199.5 0.5 154.952 0.5 100Z" stroke="#EAEBEE"/>
<defs>
<clipPath id="clip0_67_8912">
<path d="M0 100C0 44.7715 44.7715 0 100 0C155.228 0 200 44.7715 200 100C200 155.228 155.228 200 100 200C44.7715 200 0 155.228 0 100Z" fill="white"/>
</clipPath>
</defs>
</svg>
