<svg width="200" height="200" viewBox="0 0 200 200" fill="none" xmlns="http://www.w3.org/2000/svg">
<g clip-path="url(#clip0_67_8929)">
<path d="M134.783 6.21953C123.949 2.20039 112.232 5.19912e-08 100 5.19912e-08C87.7681 -0.000390573 76.0509 2.20039 65.2177 6.21953L56.522 99.9996L65.2177 193.78C76.0505 197.8 87.7677 200 100 200C112.232 200 123.949 197.8 134.783 193.78L143.478 100L134.783 6.21953Z" fill="#FFDA44"/>
<path d="M200 99.9998C200 57.0037 172.862 20.3486 134.782 6.21973V193.781C172.862 179.65 199.999 142.997 200 99.9998Z" fill="#D80027"/>
<path d="M0 99.9995C0 142.997 27.1375 179.65 65.2168 193.78L65.2172 6.22021C27.1375 20.3491 0 57.003 0 99.9995H0Z" fill="#0052B4"/>
</g>
<path d="M0.5 100C0.5 45.0477 45.0477 0.5 100 0.5C154.952 0.5 199.5 45.0477 199.5 100C199.5 154.952 154.952 199.5 100 199.5C45.0477 199.5 0.5 154.952 0.5 100Z" stroke="#EAEBEE"/>
<defs>
<clipPath id="clip0_67_8929">
<path d="M0 100C0 44.7715 44.7715 0 100 0C155.228 0 200 44.7715 200 100C200 155.228 155.228 200 100 200C44.7715 200 0 155.228 0 100Z" fill="white"/>
</clipPath>
</defs>
</svg>
