<svg width="200" height="200" viewBox="0 0 200 200" fill="none" xmlns="http://www.w3.org/2000/svg">
<g clip-path="url(#clip0_67_8937)">
<path d="M0 99.9999C0 117.324 4.40742 133.619 12.159 147.826L100 156.522L187.841 147.826C195.593 133.619 200 117.324 200 99.9999L100 91.3042L0 99.9999Z" fill="#FFDA44"/>
<path d="M187.841 52.1738C170.88 21.0895 137.904 0 100 0C62.0957 0 29.1195 21.0895 12.159 52.1738C4.40742 66.3812 0 82.6758 0 100H200C200 82.6758 195.593 66.3812 187.841 52.1738Z" fill="#338AF3"/>
<path d="M100 200C137.904 200 170.881 178.911 187.841 147.826H12.1592C29.1197 178.911 62.0959 200 100 200Z" fill="#496E2D"/>
<path d="M113.043 58.5238L125.257 64.2687L118.753 76.0969L132.015 73.5602L133.695 86.9566L142.932 77.1035L152.17 86.9566L153.85 73.5602L167.111 76.0961L160.608 64.2684L172.821 58.5238L160.608 52.7797L167.111 40.9516L153.85 43.4883L152.169 30.0918L142.932 39.9449L133.695 30.0918L132.015 43.4883L118.753 40.9516L125.256 52.7801L113.043 58.5238Z" fill="#FFDA44"/>
</g>
<path d="M0.5 100C0.5 45.0477 45.0477 0.5 100 0.5C154.952 0.5 199.5 45.0477 199.5 100C199.5 154.952 154.952 199.5 100 199.5C45.0477 199.5 0.5 154.952 0.5 100Z" stroke="#EAEBEE"/>
<defs>
<clipPath id="clip0_67_8937">
<path d="M0 100C0 44.7715 44.7715 0 100 0C155.228 0 200 44.7715 200 100C200 155.228 155.228 200 100 200C44.7715 200 0 155.228 0 100Z" fill="white"/>
</clipPath>
</defs>
</svg>
