<svg width="200" height="200" viewBox="0 0 200 200" fill="none" xmlns="http://www.w3.org/2000/svg">
<g clip-path="url(#clip0_67_8942)">
<path d="M100 200C155.228 200 200 155.228 200 100C200 44.7715 155.228 0 100 0C44.7715 0 0 44.7715 0 100C0 155.228 44.7715 200 100 200Z" fill="white"/>
<path d="M100 3.70451e-05C99.9066 -0.0702755 -0.0265572 99.9739 5.29435e-06 100C5.29435e-06 44.7719 44.7719 3.70451e-05 100 3.70451e-05Z" fill="#D80027"/>
<path d="M100 3.70453e-05C100.093 -0.0702755 200.027 99.9735 200 100C200 44.7719 155.228 3.70453e-05 100 3.70453e-05Z" fill="#D80027"/>
<path d="M100 200C99.9066 200.07 -0.0265572 100.027 5.29435e-06 100C5.29435e-06 155.228 44.7719 200 100 200Z" fill="#0052B4"/>
<path d="M100 200C100.093 200.07 200.027 100.027 200 100C200 155.228 155.228 200 100 200Z" fill="#0052B4"/>
<path d="M99.9998 52.1738L110.792 85.3883H145.716L117.462 105.916L128.254 139.13L99.9998 118.603L71.7459 139.13L82.5381 105.916L54.2842 85.3883H89.2076L99.9998 52.1738Z" fill="#FFDA44"/>
</g>
<path d="M0.5 100C0.5 45.0477 45.0477 0.5 100 0.5C154.952 0.5 199.5 45.0477 199.5 100C199.5 154.952 154.952 199.5 100 199.5C45.0477 199.5 0.5 154.952 0.5 100Z" stroke="#EAEBEE"/>
<defs>
<clipPath id="clip0_67_8942">
<path d="M0 100C0 44.7715 44.7715 0 100 0C155.228 0 200 44.7715 200 100C200 155.228 155.228 200 100 200C44.7715 200 0 155.228 0 100Z" fill="white"/>
</clipPath>
</defs>
</svg>
