<svg width="200" height="200" viewBox="0 0 200 200" fill="none" xmlns="http://www.w3.org/2000/svg">
<g clip-path="url(#clip0_67_8951)">
<path d="M9.92266 56.5219C3.56563 69.6688 0 84.4176 0 100C0 115.582 3.56563 130.331 9.92266 143.478L100 152.174L190.077 143.478C196.434 130.331 200 115.582 200 100C200 84.4176 196.434 69.6688 190.077 56.5219L100 47.8262L9.92266 56.5219Z" fill="white"/>
<path d="M9.92627 143.478C26.1005 176.928 60.3544 200 100 200C139.646 200 173.9 176.928 190.074 143.478H9.92627Z" fill="#496E2D"/>
<path d="M9.92627 56.5219H190.074C173.9 23.0723 139.646 0 100 0C60.354 0 26.1005 23.0723 9.92627 56.5219Z" fill="black"/>
<path d="M29.2893 29.2891C-9.76309 68.3414 -9.76309 131.658 29.2893 170.711C45.4271 154.573 60.9478 139.052 100 100L29.2893 29.2891Z" fill="#D80027"/>
<path d="M126.087 100C126.087 85.4307 136.327 73.2592 150 70.2732C147.899 69.8143 145.718 69.5654 143.478 69.5654C126.669 69.5654 113.043 83.1912 113.043 100C113.043 116.809 126.669 130.435 143.478 130.435C145.718 130.435 147.898 130.186 150 129.727C136.327 126.741 126.087 114.57 126.087 100Z" fill="#D80027"/>
<path d="M151.279 80.4346L155.596 93.7213H169.565L158.264 101.931L162.581 115.217L151.279 107.006L139.977 115.217L144.295 101.931L132.993 93.7213H146.962L151.279 80.4346Z" fill="#D80027"/>
</g>
<path d="M0.5 100C0.5 45.0477 45.0477 0.5 100 0.5C154.952 0.5 199.5 45.0477 199.5 100C199.5 154.952 154.952 199.5 100 199.5C45.0477 199.5 0.5 154.952 0.5 100Z" stroke="#EAEBEE"/>
<defs>
<clipPath id="clip0_67_8951">
<path d="M0 100C0 44.7715 44.7715 0 100 0C155.228 0 200 44.7715 200 100C200 155.228 155.228 200 100 200C44.7715 200 0 155.228 0 100Z" fill="white"/>
</clipPath>
</defs>
</svg>
