<svg width="200" height="200" viewBox="0 0 200 200" fill="none" xmlns="http://www.w3.org/2000/svg">
<g clip-path="url(#clip0_67_8959)">
<path d="M200 100C200 155.228 155.228 200 100 200C44.7719 200 0 155.228 0 100C34.3477 65.6523 63.4781 36.5219 100 0C155.228 0 200 44.7719 200 100Z" fill="#D80027"/>
<path d="M100 100C100 44.7719 100 38.2609 100 0C44.7719 0 0 44.7719 0 100H100Z" fill="#0052B4"/>
<path d="M80.0991 65.2173L81.7183 70.1997H86.9565L82.7183 73.2782L84.3374 78.2606L80.0991 75.1813L75.8608 78.2606L77.48 73.2782L73.2417 70.1997H78.48L80.0991 65.2173Z" fill="white"/>
<path d="M53.7883 26.0869L56.4863 34.3912H65.2176L58.1535 39.5221L60.8523 47.826L53.7883 42.6936L46.7246 47.826L49.423 39.5221L42.3594 34.3912H51.0898L53.7883 26.0869Z" fill="white"/>
<path d="M79.8752 34.7822L82.5732 43.0869H91.3041L84.2404 48.2178L86.9385 56.5217L79.8752 51.3893L72.8115 56.5217L75.51 48.2178L68.4463 43.0869H77.1768L79.8752 34.7822Z" fill="white"/>
<path d="M59.2551 69.5649L61.9535 77.8692H70.684L63.6203 83.0001L66.3188 91.304L59.2551 86.172L52.1914 91.304L54.8898 83.0001L47.8262 77.8692H56.557L59.2551 69.5649Z" fill="white"/>
<path d="M36.3968 47.8262L39.0952 56.1305H47.8261L40.762 61.2613L43.4605 69.5652L36.3968 64.4332L29.3335 69.5652L32.0315 61.2613L24.9683 56.1305H33.6987L36.3968 47.8262Z" fill="white"/>
</g>
<path d="M0.5 100C0.5 45.0477 45.0477 0.5 100 0.5C154.952 0.5 199.5 45.0477 199.5 100C199.5 154.952 154.952 199.5 100 199.5C45.0477 199.5 0.5 154.952 0.5 100Z" stroke="#EAEBEE"/>
<defs>
<clipPath id="clip0_67_8959">
<path d="M0 100C0 44.7715 44.7715 0 100 0C155.228 0 200 44.7715 200 100C200 155.228 155.228 200 100 200C44.7715 200 0 155.228 0 100Z" fill="white"/>
</clipPath>
</defs>
</svg>
