<svg width="200" height="200" viewBox="0 0 200 200" fill="none" xmlns="http://www.w3.org/2000/svg">
<g clip-path="url(#clip0_67_8968)">
<path d="M200 99.9999C200 155.228 155.228 200 100 200C44.7719 200 0 155.228 0 99.9999C4.34766 99.9999 100 86.9565 100 86.9565L200 99.9999Z" fill="#338AF3"/>
<path d="M0 100C0 44.7719 44.7719 0 100 0C155.228 0 200 44.7719 200 100" fill="white"/>
<path d="M139.694 69.0015L100 108.696L60.3064 69.0015C55.1731 76.6214 52.1743 85.7929 52.1743 95.6519V108.695C52.1743 129.639 65.7075 147.48 84.4876 153.937C81.981 158.85 82.4036 164.981 86.0767 169.565C90.9548 165.655 96.0052 161.608 100.29 158.175C104.574 161.608 109.625 165.655 114.502 169.565C118.218 164.927 118.611 158.705 116.005 153.763C134.529 147.166 147.826 129.455 147.826 108.695V95.6522C147.826 85.7929 144.827 76.6218 139.694 69.0015Z" fill="#6DA544"/>
<path d="M100 143.478C80.8209 143.478 65.2178 127.875 65.2178 108.696V95.6525C65.2178 76.4732 80.8213 60.8701 100 60.8701C119.179 60.8701 134.783 76.4736 134.783 95.6525V108.696C134.783 127.875 119.179 143.478 100 143.478Z" fill="#FFDA44"/>
<path d="M121.739 108.696V95.6521C121.739 83.665 111.987 73.9131 99.9998 73.9131C88.0131 73.9131 78.2607 83.6654 78.2607 95.6521V108.696L99.9998 113.043L121.739 108.696Z" fill="#338AF3"/>
<path d="M78.2607 108.696C78.2607 120.683 88.0131 130.435 99.9998 130.435C111.987 130.435 121.739 120.683 121.739 108.696H78.2607Z" fill="#6DA544"/>
<path d="M126.087 60.8693C126.087 53.6658 120.247 47.826 113.044 47.826C109.702 47.826 106.656 49.0838 104.348 51.1498V43.4779H108.696V34.7822H104.348V30.4346H95.6521V34.7822H91.3045V43.4779H95.6521V51.1498C93.3439 49.0838 90.2978 47.826 86.9564 47.826C79.7529 47.826 73.9131 53.6658 73.9131 60.8693C73.9131 64.7314 75.5932 68.2002 78.2607 70.5889V78.2607H121.739V70.5889C124.407 68.2002 126.087 64.7314 126.087 60.8693Z" fill="#FFDA44"/>
</g>
<path d="M0.5 100C0.5 45.0477 45.0477 0.5 100 0.5C154.952 0.5 199.5 45.0477 199.5 100C199.5 154.952 154.952 199.5 100 199.5C45.0477 199.5 0.5 154.952 0.5 100Z" stroke="#EAEBEE"/>
<defs>
<clipPath id="clip0_67_8968">
<path d="M0 100C0 44.7715 44.7715 0 100 0C155.228 0 200 44.7715 200 100C200 155.228 155.228 200 100 200C44.7715 200 0 155.228 0 100Z" fill="white"/>
</clipPath>
</defs>
</svg>
