<svg width="200" height="200" viewBox="0 0 200 200" fill="none" xmlns="http://www.w3.org/2000/svg">
<g clip-path="url(#clip0_67_8976)">
<path d="M100 200C155.228 200 200 155.228 200 100C200 44.7715 155.228 0 100 0C44.7715 0 0 44.7715 0 100C0 155.228 44.7715 200 100 200Z" fill="#FFDA44"/>
<path d="M60.8694 65.2176H193.78C179.651 27.1375 142.996 0 99.9999 0C72.3851 0 47.3878 11.1949 29.2925 29.2926L60.8694 65.2176Z" fill="#6DA544"/>
<path d="M60.8694 134.782H193.78C179.651 172.862 142.996 200 99.9999 200C72.3851 200 47.3878 188.805 29.2925 170.707L60.8694 134.782Z" fill="#6DA544"/>
<path d="M29.2893 29.2891C-9.76309 68.3414 -9.76309 131.658 29.2893 170.711C45.4271 154.573 60.9478 139.052 100 100L29.2893 29.2891Z" fill="#D80027"/>
<path d="M126.982 82.6084L131.299 95.8943H145.268L133.967 104.105L138.284 117.391L126.982 109.18L115.681 117.391L119.997 104.105L108.696 95.8943H122.665L126.982 82.6084Z" fill="black"/>
<path d="M170.461 82.6084L174.777 95.8943H188.746L177.445 104.105L181.762 117.391L170.461 109.18L159.159 117.391L163.475 104.105L152.174 95.8943H166.143L170.461 82.6084Z" fill="black"/>
</g>
<path d="M0.5 100C0.5 45.0477 45.0477 0.5 100 0.5C154.952 0.5 199.5 45.0477 199.5 100C199.5 154.952 154.952 199.5 100 199.5C45.0477 199.5 0.5 154.952 0.5 100Z" stroke="#EAEBEE"/>
<defs>
<clipPath id="clip0_67_8976">
<path d="M0 100C0 44.7715 44.7715 0 100 0C155.228 0 200 44.7715 200 100C200 155.228 155.228 200 100 200C44.7715 200 0 155.228 0 100Z" fill="white"/>
</clipPath>
</defs>
</svg>
