<svg width="200" height="200" viewBox="0 0 200 200" fill="none" xmlns="http://www.w3.org/2000/svg">
<g clip-path="url(#clip0_67_8984)">
<path d="M100 200C155.228 200 200 155.228 200 100C200 44.7715 155.228 0 100 0C44.7715 0 0 44.7715 0 100C0 155.228 44.7715 200 100 200Z" fill="white"/>
<path d="M199.154 86.9566H113.044H113.044V0.846484C108.774 0.290625 104.421 0 100 0C95.5793 0 91.2262 0.290625 86.9566 0.846484V86.9559V86.9563H0.846484C0.290625 91.2262 0 95.5793 0 100C0 104.421 0.290625 108.774 0.846484 113.043H86.9559H86.9563V199.154C91.2262 199.709 95.5793 200 100 200C104.421 200 108.774 199.71 113.043 199.154V113.045V113.044H199.154C199.709 108.774 200 104.421 200 100C200 95.5793 199.709 91.2262 199.154 86.9566Z" fill="#D80027"/>
<path d="M147.826 34.7822C139.722 34.7822 132.913 40.3248 130.983 47.8256L147.826 52.1732L164.67 47.8256C162.739 40.3252 155.93 34.7822 147.826 34.7822Z" fill="black"/>
<path d="M130.435 73.9129L152.174 78.2605V69.0172C158.285 67.4438 163.095 62.6324 164.668 56.5215L147.826 52.1738H126.087L130.435 65.2172V73.9129Z" fill="black"/>
<path d="M164.669 47.8262H126.087V56.5219V65.2176H130.435V56.5219H164.668C165.026 55.1324 165.217 53.6754 165.217 52.1742C165.217 50.6727 165.027 49.2156 164.669 47.8262Z" fill="#ACABB1"/>
<path d="M56.5221 34.7822C48.4182 34.7822 41.6092 40.3248 39.6787 47.8256L56.5221 52.1732L73.3654 47.8256C71.435 40.3252 64.626 34.7822 56.5221 34.7822Z" fill="black"/>
<path d="M39.1303 73.9129L60.8693 78.2605V69.0172C66.9807 67.4438 71.7908 62.6324 73.3639 56.5215L56.5217 52.1738H34.7822L39.1299 65.2172V73.9129H39.1303Z" fill="black"/>
<path d="M73.365 47.8262H34.7822V56.5219V65.2176H39.1299V56.5219H73.3635C73.7213 55.1324 73.9127 53.6754 73.9127 52.1742C73.9127 50.6727 73.7229 49.2156 73.365 47.8262Z" fill="#ACABB1"/>
<path d="M147.826 121.739C139.722 121.739 132.913 127.282 130.983 134.783L147.826 139.13L164.67 134.783C162.739 127.282 155.93 121.739 147.826 121.739Z" fill="black"/>
<path d="M130.435 160.869L152.174 165.217V155.974C158.285 154.4 163.095 149.589 164.668 143.478L147.826 139.13H126.087L130.435 152.174V160.869Z" fill="black"/>
<path d="M164.669 134.782H126.087V143.478V152.174H130.435V143.478H164.668C165.026 142.088 165.217 140.631 165.217 139.13C165.217 137.629 165.027 136.172 164.669 134.782Z" fill="#ACABB1"/>
<path d="M56.5221 121.739C48.4182 121.739 41.6092 127.282 39.6787 134.783L56.5221 139.13L73.3654 134.783C71.435 127.282 64.626 121.739 56.5221 121.739Z" fill="black"/>
<path d="M39.1303 160.869L60.8693 165.217V155.974C66.9807 154.4 71.7908 149.589 73.3639 143.478L56.5217 139.13H34.7822L39.1299 152.174V160.869H39.1303Z" fill="black"/>
<path d="M73.365 134.782H34.7822V143.478V152.174H39.1299V143.478H73.3635C73.7213 142.088 73.9127 140.631 73.9127 139.13C73.9127 137.629 73.7229 136.172 73.365 134.782Z" fill="#ACABB1"/>
</g>
<path d="M0.5 100C0.5 45.0477 45.0477 0.5 100 0.5C154.952 0.5 199.5 45.0477 199.5 100C199.5 154.952 154.952 199.5 100 199.5C45.0477 199.5 0.5 154.952 0.5 100Z" stroke="#EAEBEE"/>
<defs>
<clipPath id="clip0_67_8984">
<path d="M0 100C0 44.7715 44.7715 0 100 0C155.228 0 200 44.7715 200 100C200 155.228 155.228 200 100 200C44.7715 200 0 155.228 0 100Z" fill="white"/>
</clipPath>
</defs>
</svg>
