<svg width="200" height="200" viewBox="0 0 200 200" fill="none" xmlns="http://www.w3.org/2000/svg">
<g clip-path="url(#clip0_67_8999)">
<path d="M100 200C155.228 200 200 155.228 200 100C200 44.7715 155.228 0 100 0C44.7715 0 0 44.7715 0 100C0 155.228 44.7715 200 100 200Z" fill="#6DA544"/>
<path d="M56.5219 119.565C56.5219 126.769 62.3617 132.609 69.5652 132.609H108.696C108.696 138.612 113.562 143.478 119.565 143.478H132.609C138.612 143.478 143.478 138.612 143.478 132.609V119.565H56.5219Z" fill="white"/>
<path d="M144.565 56.5215V86.9562C144.565 91.7512 140.664 95.652 135.87 95.652V108.695C147.857 108.695 157.609 98.943 157.609 86.9562V56.5215H144.565Z" fill="white"/>
<path d="M51.0871 86.9562C51.0871 91.7512 47.1863 95.652 42.3914 95.652V108.695C54.3785 108.695 64.1305 98.943 64.1305 86.9562V56.5215H51.0871V86.9562Z" fill="white"/>
<path d="M125 56.5215H138.043V86.9562H125V56.5215Z" fill="white"/>
<path d="M105.435 73.9129C105.435 75.1117 104.459 76.0867 103.261 76.0867C102.062 76.0867 101.087 75.1113 101.087 73.9129V56.5215H88.0438V73.9129C88.0438 75.1117 87.0684 76.0867 85.8699 76.0867C84.6715 76.0867 83.6961 75.1113 83.6961 73.9129V56.5215H70.6523V73.9129C70.6523 82.3039 77.4789 89.1305 85.8699 89.1305C89.1016 89.1305 92.0984 88.1148 94.5656 86.3898C97.0324 88.1145 100.03 89.1305 103.261 89.1305C103.912 89.1305 104.552 89.0848 105.181 89.0047C104.257 92.8129 100.827 95.652 96.7395 95.652V108.695C108.727 108.695 118.479 98.943 118.479 86.9562V73.9129V56.5215H105.435V73.9129H105.435Z" fill="white"/>
<path d="M70.6523 95.6523H90.2176V108.696H70.6523V95.6523Z" fill="white"/>
</g>
<path d="M0.5 100C0.5 45.0477 45.0477 0.5 100 0.5C154.952 0.5 199.5 45.0477 199.5 100C199.5 154.952 154.952 199.5 100 199.5C45.0477 199.5 0.5 154.952 0.5 100Z" stroke="#EAEBEE"/>
<defs>
<clipPath id="clip0_67_8999">
<path d="M0 100C0 44.7715 44.7715 0 100 0C155.228 0 200 44.7715 200 100C200 155.228 155.228 200 100 200C44.7715 200 0 155.228 0 100Z" fill="white"/>
</clipPath>
</defs>
</svg>
