<svg width="200" height="200" viewBox="0 0 200 200" fill="none" xmlns="http://www.w3.org/2000/svg">
<g clip-path="url(#clip0_67_9008)">
<path d="M100 200C155.228 200 200 155.228 200 100C200 44.7715 155.228 0 100 0C44.7715 0 0 44.7715 0 100C0 155.228 44.7715 200 100 200Z" fill="white"/>
<path d="M160.881 20.6719C144.019 7.71055 122.912 0 100 0C77.0883 0 55.9805 7.71094 39.1183 20.6719L100 81.5531L160.881 20.6719Z" fill="#0052B4"/>
<path d="M20.6715 39.1187C7.71094 55.9808 0 77.0882 0 99.9999C0 122.912 7.71094 144.019 20.6719 160.882L81.5535 99.9999L20.6715 39.1187Z" fill="#0052B4"/>
<path d="M39.1183 179.328C55.9808 192.289 77.0883 200 100 200C122.912 200 144.019 192.289 160.882 179.328L100 118.447L39.1183 179.328Z" fill="#0052B4"/>
<path d="M179.328 160.881C192.289 144.019 200 122.912 200 99.9999C200 77.0882 192.289 55.9808 179.328 39.1187L118.447 99.9999L179.328 160.881Z" fill="#0052B4"/>
</g>
<path d="M0.5 100C0.5 45.0477 45.0477 0.5 100 0.5C154.952 0.5 199.5 45.0477 199.5 100C199.5 154.952 154.952 199.5 100 199.5C45.0477 199.5 0.5 154.952 0.5 100Z" stroke="#EAEBEE"/>
<defs>
<clipPath id="clip0_67_9008">
<path d="M0 100C0 44.7715 44.7715 0 100 0C155.228 0 200 44.7715 200 100C200 155.228 155.228 200 100 200C44.7715 200 0 155.228 0 100Z" fill="white"/>
</clipPath>
</defs>
</svg>
