<svg width="200" height="200" viewBox="0 0 200 200" fill="none" xmlns="http://www.w3.org/2000/svg">
<g clip-path="url(#clip0_67_9021)">
<path d="M100 200C155.228 200 200 155.228 200 100C200 44.7715 155.228 0 100 0C44.7715 0 0 44.7715 0 100C0 155.228 44.7715 200 100 200Z" fill="white"/>
<path d="M100 0C44.7719 0 0 44.7719 0 100C0 112.232 2.20039 123.95 6.21992 134.782H193.78C197.8 123.95 200 112.232 200 100C200 44.7719 155.228 0 100 0Z" fill="#0052B4"/>
<path d="M100 0C57.0036 0 20.3493 27.1375 6.21997 65.2176H193.781C179.651 27.1375 142.997 0 100 0Z" fill="#D80027"/>
<path d="M25.8586 56.522V106.407C25.8586 134.784 62.9293 143.479 62.9293 143.479C62.9293 143.479 99.9997 134.784 99.9997 106.407V56.522H25.8586Z" fill="#D80027"/>
<path d="M41.1899 65.2175H84.6685V47.8261L75.9728 52.1737L62.9294 39.1304L49.8856 52.1737L41.1899 47.8261V65.2175Z" fill="#FFDA44"/>
<path d="M91.3043 113.353L63.0434 85.0918L34.7825 113.353L44.0055 122.576L63.0434 103.538L82.0813 122.576L91.3043 113.353Z" fill="#FFDA44"/>
<path d="M91.3043 86.9566H78.1184C78.8598 85.677 79.2911 84.1949 79.2911 82.6098C79.2911 77.8066 75.3977 73.9141 70.5954 73.9141C67.277 73.9141 64.3954 75.7727 62.9293 78.5051C61.4633 75.773 58.5817 73.9141 55.2633 73.9141C50.461 73.9141 46.5676 77.8066 46.5676 82.6098C46.5676 84.1949 46.9989 85.6773 47.7403 86.9566H34.7825C34.7825 91.7594 38.9657 95.6523 43.7676 95.6523H43.4782C43.4782 100.455 47.3711 104.348 52.1739 104.348C52.1739 108.6 55.2278 112.133 59.261 112.889L52.4094 128.359C55.693 129.694 59.2813 130.435 63.0438 130.435C66.8063 130.435 70.3946 129.694 73.6782 128.359L66.8266 112.889C70.8598 112.134 73.9137 108.601 73.9137 104.348C78.7165 104.348 82.6094 100.455 82.6094 95.6523H82.32C87.1215 95.6523 91.3043 91.759 91.3043 86.9566Z" fill="white"/>
</g>
<path d="M0.5 100C0.5 45.0477 45.0477 0.5 100 0.5C154.952 0.5 199.5 45.0477 199.5 100C199.5 154.952 154.952 199.5 100 199.5C45.0477 199.5 0.5 154.952 0.5 100Z" stroke="#EAEBEE"/>
<defs>
<clipPath id="clip0_67_9021">
<path d="M0 100C0 44.7715 44.7715 0 100 0C155.228 0 200 44.7715 200 100C200 155.228 155.228 200 100 200C44.7715 200 0 155.228 0 100Z" fill="white"/>
</clipPath>
</defs>
</svg>
