<svg width="200" height="200" viewBox="0 0 200 200" fill="none" xmlns="http://www.w3.org/2000/svg">
<g clip-path="url(#clip0_67_9031)">
<path d="M100 200C155.228 200 200 155.228 200 100C200 44.7715 155.228 0 100 0C44.7715 0 0 44.7715 0 100C0 155.228 44.7715 200 100 200Z" fill="white"/>
<path d="M167.503 26.2254C149.714 9.93945 126.019 0 100 0C95.7406 0 91.5433 0.268359 87.4238 0.785156L39.1304 56.5219L3.16443 125.051C5.48787 134.059 9.04021 142.573 13.6234 150.409L100 100L167.503 26.2254Z" fill="#FFDA44"/>
<path d="M183.254 155.405L43.345 182.405C59.4501 193.499 78.9649 200 100 200C134.735 200 165.328 182.288 183.254 155.405Z" fill="#6DA544"/>
<path d="M167.518 26.2388L13.6804 150.506C17.7042 157.369 22.5218 163.709 28.0089 169.4L200 100C200 70.7974 187.48 44.5208 167.518 26.2388Z" fill="#D80027"/>
<path d="M0 100C0 108.651 1.09922 117.045 3.16445 125.051L87.4238 0.785156C38.132 6.97031 0 49.0313 0 100Z" fill="#0052B4"/>
</g>
<path d="M0.5 100C0.5 45.0477 45.0477 0.5 100 0.5C154.952 0.5 199.5 45.0477 199.5 100C199.5 154.952 154.952 199.5 100 199.5C45.0477 199.5 0.5 154.952 0.5 100Z" stroke="#EAEBEE"/>
<defs>
<clipPath id="clip0_67_9031">
<path d="M0 100C0 44.7715 44.7715 0 100 0C155.228 0 200 44.7715 200 100C200 155.228 155.228 200 100 200C44.7715 200 0 155.228 0 100Z" fill="white"/>
</clipPath>
</defs>
</svg>
