<svg width="200" height="200" viewBox="0 0 200 200" fill="none" xmlns="http://www.w3.org/2000/svg">
<g clip-path="url(#clip0_67_9041)">
<path d="M100 200C155.228 200 200 155.228 200 100C200 44.7715 155.228 0 100 0C44.7715 0 0 44.7715 0 100C0 155.228 44.7715 200 100 200Z" fill="white"/>
<path d="M0 100C0 44.7719 44.7719 0 100 0C155.228 0 200 44.7719 200 100" fill="#D80027"/>
<path d="M60.8694 52.1736C60.8694 37.6041 71.1089 25.433 84.7823 22.4467C82.6808 21.9881 80.5007 21.7393 78.2605 21.7393C61.4515 21.7393 47.8257 35.365 47.8257 52.174C47.8257 68.983 61.4515 82.6088 78.2605 82.6088C80.4999 82.6088 82.6804 82.36 84.7823 81.901C71.1089 78.9146 60.8694 66.7436 60.8694 52.1736Z" fill="white"/>
<path d="M99.9999 23.9131L102.158 30.5557H109.143L103.492 34.6615L105.651 41.3041L99.9999 37.199L94.3491 41.3041L96.5077 34.6615L90.8569 30.5557H97.8413L99.9999 23.9131Z" fill="white"/>
<path d="M83.0566 36.9565L85.2148 43.5995H92.1996L86.5488 47.705L88.7074 54.3476L83.0566 50.2425L77.405 54.3476L79.564 47.705L73.9128 43.5995H80.8976L83.0566 36.9565Z" fill="white"/>
<path d="M116.944 36.9565L119.103 43.5995H126.087L120.436 47.705L122.595 54.3476L116.944 50.2425L111.293 54.3476L113.452 47.705L107.801 43.5995H114.785L116.944 36.9565Z" fill="white"/>
<path d="M110.422 56.5215L112.581 63.1645H119.565L113.914 67.2699L116.073 73.9125L110.422 69.8074L104.771 73.9125L106.93 67.2699L101.279 63.1645H108.263L110.422 56.5215Z" fill="white"/>
<path d="M89.5779 56.5215L91.7361 63.1645H98.7213L93.0701 67.2699L95.2291 73.9125L89.5779 69.8074L83.9268 73.9125L86.0854 67.2699L80.4346 63.1645H87.4193L89.5779 56.5215Z" fill="white"/>
</g>
<path d="M0.5 100C0.5 45.0477 45.0477 0.5 100 0.5C154.952 0.5 199.5 45.0477 199.5 100C199.5 154.952 154.952 199.5 100 199.5C45.0477 199.5 0.5 154.952 0.5 100Z" stroke="#EAEBEE"/>
<defs>
<clipPath id="clip0_67_9041">
<path d="M0 100C0 44.7715 44.7715 0 100 0C155.228 0 200 44.7715 200 100C200 155.228 155.228 200 100 200C44.7715 200 0 155.228 0 100Z" fill="white"/>
</clipPath>
</defs>
</svg>
