<svg width="200" height="200" viewBox="0 0 200 200" fill="none" xmlns="http://www.w3.org/2000/svg">
<g clip-path="url(#clip0_67_9051)">
<path d="M43.6379 182.609C59.6872 193.579 79.0922 200 100 200C120.908 200 140.313 193.579 156.362 182.609L100 173.913L43.6379 182.609Z" fill="#D80027"/>
<path d="M156.362 17.3914C140.313 6.4207 120.908 0 100 0C79.0922 0 59.6864 6.4207 43.6379 17.3914L100 26.0871L156.362 17.3914Z" fill="#D80027"/>
<path d="M43.6379 182.609C59.6872 193.579 79.0922 200 100 200C120.908 200 140.313 193.579 156.362 182.609L100 173.913L43.6379 182.609Z" fill="#D80027"/>
<path d="M156.362 17.3914C140.313 6.4207 120.908 0 100 0C79.0922 0 59.6864 6.4207 43.6379 17.3914L100 26.0871L156.362 17.3914Z" fill="#D80027"/>
<path d="M199.745 93.4782C197.376 62.6149 178.623 32.6087 156.362 17.3911H43.6379C18.9754 34.2509 2.24614 61.8634 0.210205 93.4782L100 100L199.745 93.4782Z" fill="#0052B4"/>
<path d="M0.210205 106.522C2.24614 138.137 18.975 165.749 43.6375 182.609H156.362C181.025 165.75 197.754 138.137 199.79 106.522L100 100L0.210205 106.522Z" fill="#0052B4"/>
<path d="M199.745 93.4778H106.522V13.0435H93.4785V93.4778H0.210547C0.071875 95.6341 0 97.8087 0 100C0 102.191 0.0714844 104.365 0.210156 106.522H93.4785V186.957H106.522V106.522H199.79C199.929 104.365 200 102.191 200 100C200 97.8247 199.912 95.6493 199.745 93.4778Z" fill="#D80027"/>
<path d="M39.1304 99.9998L99.9995 61.7412L160.869 99.9998L99.9995 138.259L39.1304 99.9998Z" fill="white"/>
<path d="M65.2175 117.391H143.478L126.087 91.3042L117.391 99.9999L108.696 95.6522L100 108.696H82.6085L73.9128 99.9999L65.2175 117.391Z" fill="#6DA544"/>
<path d="M100 73.9131L102.159 80.5557H109.143L103.492 84.6615L105.651 91.3045L100 87.199L94.3492 91.3045L96.5078 84.6615L90.8574 80.5557H97.8414L100 73.9131Z" fill="#FFDA44"/>
<path d="M99.9996 50.8101L21.739 99.9999L99.9996 149.19L178.261 99.9999L99.9996 50.8101ZM46.25 99.9999L99.9996 66.2159L153.75 99.9999L99.9996 133.784L46.25 99.9999Z" fill="#D80027"/>
</g>
<path d="M0.5 100C0.5 45.0477 45.0477 0.5 100 0.5C154.952 0.5 199.5 45.0477 199.5 100C199.5 154.952 154.952 199.5 100 199.5C45.0477 199.5 0.5 154.952 0.5 100Z" stroke="#EAEBEE"/>
<defs>
<clipPath id="clip0_67_9051">
<path d="M0 100C0 44.7715 44.7715 0 100 0C155.228 0 200 44.7715 200 100C200 155.228 155.228 200 100 200C44.7715 200 0 155.228 0 100Z" fill="white"/>
</clipPath>
</defs>
</svg>
