<svg width="200" height="200" viewBox="0 0 200 200" fill="none" xmlns="http://www.w3.org/2000/svg">
<g clip-path="url(#clip0_67_9066)">
<path d="M91.3043 108.696C91.3043 108.696 29.3477 29.2754 29.2891 29.2895C47.3852 11.193 72.3855 0 100 0C155.228 0 200 44.7719 200 100L91.3043 108.696Z" fill="#D80027"/>
<path d="M91.3043 100C91.3043 100 29.3477 170.725 29.2891 170.711C47.3852 188.807 72.3855 200 100 200C155.228 200 200 155.228 200 100H91.3043Z" fill="#0052B4"/>
<path d="M29.2893 29.2891C-9.76309 68.3414 -9.76309 131.658 29.2893 170.711C45.4271 154.573 60.9478 139.052 100 100L29.2893 29.2891Z" fill="white"/>
<path d="M10.9614 100C10.9067 100.718 10.8696 101.442 10.8696 102.174C10.8696 117.782 23.5228 130.435 39.1306 130.435C54.7384 130.435 67.3915 117.782 67.3915 102.174C67.3915 101.442 67.3544 100.718 67.2997 100H10.9614Z" fill="#FFDA44"/>
<path d="M39.1305 86.9568C43.933 86.9568 47.8262 83.0636 47.8262 78.2611C47.8262 73.4586 43.933 69.5654 39.1305 69.5654C34.328 69.5654 30.4348 73.4586 30.4348 78.2611C30.4348 83.0636 34.328 86.9568 39.1305 86.9568Z" fill="#FFDA44"/>
<path d="M19.5652 76.0869V104.348C19.5652 119.324 39.1304 123.913 39.1304 123.913C39.1304 123.913 58.6957 119.324 58.6957 104.348V76.0869H19.5652Z" fill="#D80027"/>
<path d="M39.1398 114.812C35.5101 113.506 28.2605 110.168 28.2605 104.347V84.7822H50V104.347C50 110.187 42.7511 113.517 39.1398 114.812Z" fill="#338AF3"/>
<path d="M43.4782 95.6522V91.3042L39.1305 89.1304L34.7825 91.3042V95.6522L32.6086 97.8261V106.522H45.6524V97.8261L43.4782 95.6522Z" fill="#F3F3F3"/>
</g>
<path d="M0.5 100C0.5 45.0477 45.0477 0.5 100 0.5C154.952 0.5 199.5 45.0477 199.5 100C199.5 154.952 154.952 199.5 100 199.5C45.0477 199.5 0.5 154.952 0.5 100Z" stroke="#EAEBEE"/>
<defs>
<clipPath id="clip0_67_9066">
<path d="M0 100C0 44.7715 44.7715 0 100 0C155.228 0 200 44.7715 200 100C200 155.228 155.228 200 100 200C44.7715 200 0 155.228 0 100Z" fill="white"/>
</clipPath>
</defs>
</svg>
