<svg width="200" height="200" viewBox="0 0 200 200" fill="none" xmlns="http://www.w3.org/2000/svg">
<g clip-path="url(#clip0_67_9076)">
<path d="M100 200C155.228 200 200 155.228 200 100C200 44.7715 155.228 0 100 0C44.7715 0 0 44.7715 0 100C0 155.228 44.7715 200 100 200Z" fill="white"/>
<path d="M100 200C155.228 200 200 155.228 200 100C200 87.7682 197.8 76.0506 193.78 65.2178H6.21992C2.20039 76.0506 0 87.7682 0 100C0 155.228 44.7719 200 100 200Z" fill="#0052B4"/>
<path d="M100 200C142.997 200 179.651 172.862 193.78 134.782H6.21997C20.3493 172.862 57.0036 200 100 200Z" fill="#D80027"/>
<path d="M25.8586 56.522V106.407C25.8586 134.784 62.9293 143.479 62.9293 143.479C62.9293 143.479 99.9997 134.784 99.9997 106.407V56.522H25.8586Z" fill="white"/>
<path d="M34.5542 56.522V106.407C34.5542 109.738 35.294 112.884 36.7597 115.834H89.0983C90.564 112.885 91.3038 109.738 91.3038 106.407V56.522H34.5542Z" fill="#D80027"/>
<path d="M80.3203 91.3045H67.2773V82.6088H75.973V73.9131H67.2773V65.2178H58.5816V73.9131H49.8863V82.6088H58.5816V91.3045H45.5378V100H58.5816V108.696H67.2773V100H80.3203V91.3045Z" fill="white"/>
<path d="M48.6215 127.973C54.225 131.494 59.9821 133.539 62.9293 134.448C65.8766 133.539 71.6336 131.494 77.2372 127.973C82.8879 124.421 86.8493 120.359 89.0985 115.834C86.6176 114.079 83.5907 113.044 80.3208 113.044C79.1301 113.044 77.9735 113.185 76.8614 113.444C74.5047 108.089 69.1551 104.348 62.9297 104.348C56.7043 104.348 51.3543 108.089 48.9981 113.444C47.886 113.185 46.729 113.044 45.5387 113.044C42.2688 113.044 39.2418 114.079 36.761 115.834C39.009 120.359 42.9704 124.421 48.6215 127.973Z" fill="#0052B4"/>
</g>
<path d="M0.5 100C0.5 45.0477 45.0477 0.5 100 0.5C154.952 0.5 199.5 45.0477 199.5 100C199.5 154.952 154.952 199.5 100 199.5C45.0477 199.5 0.5 154.952 0.5 100Z" stroke="#EAEBEE"/>
<defs>
<clipPath id="clip0_67_9076">
<path d="M0 100C0 44.7715 44.7715 0 100 0C155.228 0 200 44.7715 200 100C200 155.228 155.228 200 100 200C44.7715 200 0 155.228 0 100Z" fill="white"/>
</clipPath>
</defs>
</svg>
