<svg width="200" height="200" viewBox="0 0 200 200" fill="none" xmlns="http://www.w3.org/2000/svg">
<g clip-path="url(#clip0_67_9084)">
<path d="M100 200C155.228 200 200 155.228 200 100C200 44.7715 155.228 0 100 0C44.7715 0 0 44.7715 0 100C0 155.228 44.7715 200 100 200Z" fill="white"/>
<path d="M193.78 65.2175H86.9566V39.1304H34.7824V65.2175H6.21992C2.20039 76.0503 0 87.7679 0 99.9999C0 112.232 2.20039 123.949 6.21992 134.782L100 143.478L193.78 134.782C197.8 123.949 200 112.232 200 99.9999C200 87.7679 197.8 76.0503 193.78 65.2175Z" fill="#0052B4"/>
<path d="M99.9998 200C142.996 200 179.651 172.862 193.78 134.782H6.21973C20.349 172.862 57.0033 200 99.9998 200Z" fill="#D80027"/>
<path d="M34.7822 65.2178V73.9131C34.7822 93.8822 60.8693 100.001 60.8693 100.001C60.8693 100.001 86.9564 93.8822 86.9564 73.9131V65.2178L78.2607 73.9135L60.8693 60.8701L43.4779 73.9135L34.7822 65.2178Z" fill="white"/>
</g>
<path d="M0.5 100C0.5 45.0477 45.0477 0.5 100 0.5C154.952 0.5 199.5 45.0477 199.5 100C199.5 154.952 154.952 199.5 100 199.5C45.0477 199.5 0.5 154.952 0.5 100Z" stroke="#EAEBEE"/>
<defs>
<clipPath id="clip0_67_9084">
<path d="M0 100C0 44.7715 44.7715 0 100 0C155.228 0 200 44.7715 200 100C200 155.228 155.228 200 100 200C44.7715 200 0 155.228 0 100Z" fill="white"/>
</clipPath>
</defs>
</svg>
