<svg width="200" height="200" viewBox="0 0 200 200" fill="none" xmlns="http://www.w3.org/2000/svg">
<g clip-path="url(#clip0_67_9089)">
<path d="M170.713 170.713C208.217 133.209 209.698 73.3321 175.171 34.0513L99.9996 99.9992L34.0513 175.171C73.3321 209.698 133.209 208.217 170.713 170.713Z" fill="#496E2D"/>
<path d="M29.2865 29.2867C66.7907 -8.21755 126.668 -9.69841 165.948 24.8285L99.9996 100.001L24.8287 165.949C-9.6986 126.668 -8.21736 66.7909 29.2865 29.2867Z" fill="#0052B4"/>
<path d="M165.948 24.8281L24.8281 165.948C26.2547 167.571 27.7359 169.163 29.2863 170.713C30.8363 172.263 32.4289 173.744 34.0523 175.172L175.171 34.0515C173.745 32.4281 172.263 30.8359 170.713 29.2855C169.163 27.7363 167.571 26.2547 165.948 24.8281Z" fill="#FFDA44"/>
<path d="M42.1331 34.7798L44.2921 41.4231H51.2768L45.626 45.5282L47.7842 52.1716L42.1331 48.0657L36.4819 52.1716L38.6409 45.5282L32.9897 41.4231H39.9749L42.1331 34.7798Z" fill="white"/>
<path d="M77.8123 34.7798L79.9713 41.4231H86.9556L81.3049 45.5282L83.4635 52.1716L77.8123 48.0657L72.1611 52.1716L74.3201 45.5282L68.6689 41.4231H75.6537L77.8123 34.7798Z" fill="white"/>
<path d="M42.1331 69.5635L44.2921 76.2068H51.2768L45.626 80.3123L47.7842 86.9556L42.1331 82.8498L36.4819 86.9556L38.6409 80.3123L32.9897 76.2068H39.9749L42.1331 69.5635Z" fill="white"/>
<path d="M77.8123 69.5635L79.9713 76.2068H86.9556L81.3049 80.3123L83.4635 86.9556L77.8123 82.8498L72.1611 86.9556L74.3201 80.3123L68.6689 76.2068H75.6537L77.8123 69.5635Z" fill="white"/>
<path d="M59.9728 52.1714L62.1318 58.8147H69.1162L63.4654 62.9202L65.624 69.5635L59.9728 65.4577L54.3217 69.5635L56.4803 62.9202L50.8291 58.8147H57.8142L59.9728 52.1714Z" fill="white"/>
</g>
<path d="M0.5 100C0.5 45.0477 45.0477 0.5 100 0.5C154.952 0.5 199.5 45.0477 199.5 100C199.5 154.952 154.952 199.5 100 199.5C45.0477 199.5 0.5 154.952 0.5 100Z" stroke="#EAEBEE"/>
<defs>
<clipPath id="clip0_67_9089">
<path d="M0 100C0 44.7715 44.7715 0 100 0C155.228 0 200 44.7715 200 100C200 155.228 155.228 200 100 200C44.7715 200 0 155.228 0 100Z" fill="white"/>
</clipPath>
</defs>
</svg>
