<svg width="200" height="200" viewBox="0 0 200 200" fill="none" xmlns="http://www.w3.org/2000/svg">
<g clip-path="url(#clip0_67_9102)">
<path d="M193.78 134.783C197.8 123.949 200 112.232 200 100C200 87.7681 197.8 76.0509 193.78 65.2177L100 56.522L6.21992 65.2177C2.20039 76.0509 0 87.7681 0 100C0 112.232 2.20039 123.949 6.21992 134.783L100 143.478L193.78 134.783Z" fill="white"/>
<path d="M100 200C142.996 200 179.651 172.862 193.78 134.782H6.21973C20.3494 172.862 57.0033 200 100 200Z" fill="#D80027"/>
<path d="M100 0C57.0033 0 20.3494 27.1375 6.21973 65.2176H193.78C179.651 27.1375 142.996 0 100 0Z" fill="#496E2D"/>
<path d="M99.9999 78.2607L105.396 94.8674H122.858L108.731 105.132L114.127 121.739L99.9999 111.476L85.8726 121.739L91.269 105.132L77.1421 94.8674H94.6042L99.9999 78.2607Z" fill="black"/>
<path d="M129.71 19.5654V39.8549C129.71 43.0521 127.11 45.6521 123.914 45.6521V54.3479C131.905 54.3479 138.406 47.8467 138.406 39.8549V19.5654H129.71Z" fill="white"/>
<path d="M67.3915 39.8549C67.3915 43.0521 64.7911 45.6521 61.5942 45.6521V54.3479C69.586 54.3479 76.0872 47.8467 76.0872 39.8549V19.5654H67.3915V39.8549Z" fill="white"/>
<path d="M116.666 19.5654H125.361V39.8549H116.666V19.5654Z" fill="white"/>
<path d="M103.623 31.1592C103.623 31.9584 102.973 32.6088 102.174 32.6088C101.375 32.6088 100.724 31.9584 100.724 31.1592V19.5654H92.0287V31.1592C92.0287 31.9584 91.3787 32.6088 90.5795 32.6088C89.7803 32.6088 89.1303 31.9584 89.1303 31.1592V19.5654H80.4346V31.1592C80.4346 36.7537 84.9853 41.3045 90.5795 41.3045C92.7338 41.3045 94.7322 40.6275 96.3764 39.4779C98.0213 40.6275 100.019 41.3045 102.174 41.3045C102.608 41.3045 103.034 41.274 103.454 41.2205C102.837 43.7592 100.551 45.6521 97.826 45.6521V54.3479C105.817 54.3479 112.319 47.8467 112.319 39.8549V31.1592V19.5654H103.623L103.623 31.1592Z" fill="white"/>
<path d="M80.4351 45.6523H93.4784V54.348H80.4351V45.6523Z" fill="white"/>
</g>
<path d="M0.5 100C0.5 45.0477 45.0477 0.5 100 0.5C154.952 0.5 199.5 45.0477 199.5 100C199.5 154.952 154.952 199.5 100 199.5C45.0477 199.5 0.5 154.952 0.5 100Z" stroke="#EAEBEE"/>
<defs>
<clipPath id="clip0_67_9102">
<path d="M0 100C0 44.7715 44.7715 0 100 0C155.228 0 200 44.7715 200 100C200 155.228 155.228 200 100 200C44.7715 200 0 155.228 0 100Z" fill="white"/>
</clipPath>
</defs>
</svg>
