<svg width="200" height="200" viewBox="0 0 200 200" fill="none" xmlns="http://www.w3.org/2000/svg">
<g clip-path="url(#clip0_67_9142)">
<path d="M100 200C155.228 200 200 155.228 200 100C200 44.7715 155.228 0 100 0C44.7715 0 0 44.7715 0 100C0 155.228 44.7715 200 100 200Z" fill="white"/>
<path d="M192.199 61.2316C177.055 25.2586 141.48 0 99.9999 0C72.3851 0 47.3878 11.1949 29.2925 29.2926L54.3354 61.2316H192.199Z" fill="black"/>
<path d="M54.6194 138.406L29.2925 170.707C47.3878 188.805 72.3851 200 99.9999 200C141.619 200 177.296 174.573 192.353 138.406H54.6194Z" fill="#496E2D"/>
<path d="M21.7393 73.5508V126.087H196.556C198.799 117.77 200 109.026 200 100C200 90.843 198.767 81.9758 196.461 73.5508H21.7393Z" fill="#A2001D"/>
<path d="M29.2893 29.2891C-9.76309 68.3414 -9.76309 131.658 29.2893 170.711C45.4271 154.573 60.9478 139.052 100 100L29.2893 29.2891Z" fill="#0052B4"/>
<path d="M32.5725 75.1377L44.7775 92.1693L64.7494 85.8236L52.3232 102.696L64.5283 119.728L44.6424 113.124L32.2158 129.996L32.3525 109.042L12.4658 102.437L32.4361 96.0912L32.5725 75.1377Z" fill="#FFDA44"/>
</g>
<path d="M0.5 100C0.5 45.0477 45.0477 0.5 100 0.5C154.952 0.5 199.5 45.0477 199.5 100C199.5 154.952 154.952 199.5 100 199.5C45.0477 199.5 0.5 154.952 0.5 100Z" stroke="#EAEBEE"/>
<defs>
<clipPath id="clip0_67_9142">
<path d="M0 100C0 44.7715 44.7715 0 100 0C155.228 0 200 44.7715 200 100C200 155.228 155.228 200 100 200C44.7715 200 0 155.228 0 100Z" fill="white"/>
</clipPath>
</defs>
</svg>
