<svg width="200" height="200" viewBox="0 0 200 200" fill="none" xmlns="http://www.w3.org/2000/svg">
<g clip-path="url(#clip0_67_9120)">
<path d="M100 200C155.228 200 200 155.228 200 100C200 44.7715 155.228 0 100 0C44.7715 0 0 44.7715 0 100C0 155.228 44.7715 200 100 200Z" fill="white"/>
<path d="M134.783 100C134.783 108.696 119.21 130.435 100 130.435C80.7904 130.435 65.2178 108.696 65.2178 100C65.2178 80.79 80.7904 65.2178 100 65.2178C119.21 65.2178 134.783 80.79 134.783 100Z" fill="#D80027"/>
<path d="M134.783 100C134.783 119.21 119.21 134.782 100 134.782C80.7904 134.782 65.2178 119.21 65.2178 100" fill="#0052B4"/>
<path d="M136.865 130.745L146.087 121.523L152.235 127.671L143.013 136.893L136.865 130.745Z" fill="black"/>
<path d="M121.491 146.115L130.713 136.894L136.861 143.041L127.639 152.263L121.491 146.115Z" fill="black"/>
<path d="M155.31 149.188L164.532 139.966L170.68 146.114L161.458 155.336L155.31 149.188Z" fill="black"/>
<path d="M139.937 164.56L149.158 155.338L155.306 161.486L146.084 170.708L139.937 164.56Z" fill="black"/>
<path d="M146.087 139.967L155.309 130.746L161.456 136.893L152.235 146.115L146.087 139.967Z" fill="black"/>
<path d="M130.717 155.337L139.939 146.115L146.087 152.263L136.865 161.485L130.717 155.337Z" fill="black"/>
<path d="M155.351 69.2715L130.759 44.6803L136.907 38.5325L161.498 63.1236L155.351 69.2715Z" fill="black"/>
<path d="M130.755 63.1265L121.533 53.9048L127.681 47.7572L136.902 56.9789L130.755 63.1265Z" fill="black"/>
<path d="M146.125 78.4995L136.903 69.2779L143.05 63.1303L152.272 72.3519L146.125 78.4995Z" fill="black"/>
<path d="M149.196 44.6797L139.975 35.458L146.122 29.3102L155.344 38.5318L149.196 44.6797Z" fill="black"/>
<path d="M164.574 60.0547L155.353 50.833L161.5 44.6852L170.722 53.9068L164.574 60.0547Z" fill="black"/>
<path d="M35.4512 139.95L60.0423 164.541L53.8945 170.689L29.3033 146.098L35.4512 139.95Z" fill="black"/>
<path d="M60.041 146.093L69.2627 155.314L63.1151 161.462L53.8934 152.24L60.041 146.093Z" fill="black"/>
<path d="M44.6699 130.727L53.8916 139.948L47.7437 146.096L38.5221 136.874L44.6699 130.727Z" fill="black"/>
<path d="M53.8926 121.502L78.4838 146.093L72.3359 152.241L47.7447 127.65L53.8926 121.502Z" fill="black"/>
<path d="M60.0396 35.439L35.4484 60.0301L29.3005 53.8823L53.8917 29.2911L60.0396 35.439Z" fill="black"/>
<path d="M69.2612 44.6597L44.6701 69.2508L38.5222 63.103L63.1134 38.5118L69.2612 44.6597Z" fill="black"/>
<path d="M78.4917 53.8867L53.9005 78.4779L47.7529 72.3303L72.3441 47.7391L78.4917 53.8867Z" fill="black"/>
</g>
<path d="M0.5 100C0.5 45.0477 45.0477 0.5 100 0.5C154.952 0.5 199.5 45.0477 199.5 100C199.5 154.952 154.952 199.5 100 199.5C45.0477 199.5 0.5 154.952 0.5 100Z" stroke="#EAEBEE"/>
<defs>
<clipPath id="clip0_67_9120">
<path d="M0 100C0 44.7715 44.7715 0 100 0C155.228 0 200 44.7715 200 100C200 155.228 155.228 200 100 200C44.7715 200 0 155.228 0 100Z" fill="white"/>
</clipPath>
</defs>
</svg>
