<svg width="200" height="200" viewBox="0 0 200 200" fill="none" xmlns="http://www.w3.org/2000/svg">
<g clip-path="url(#clip0_67_9113)">
<path d="M100 200C155.228 200 200 155.228 200 100C200 44.7715 155.228 0 100 0C44.7715 0 0 44.7715 0 100C0 155.228 44.7715 200 100 200Z" fill="white"/>
<path d="M29.2893 170.711C-9.76309 131.658 -9.76309 68.3418 29.2893 29.2891C29.2865 29.2934 86.9568 100 86.9568 100L29.2893 170.711Z" fill="black"/>
<path d="M86.9565 99.9998L13.2628 50.2002C10.978 54.1717 8.96318 58.317 7.23193 62.6076L44.5401 100L7.23311 137.395C8.96279 141.682 10.9757 145.825 13.2589 149.794L86.9565 99.9998Z" fill="#FFDA44"/>
<path d="M199.153 86.9565H86.9537L29.2881 29.2905C23.074 35.5046 17.6752 42.5323 13.2627 50.2007L62.9654 99.9999L13.2588 149.793C17.6713 157.463 23.0725 164.493 29.2881 170.709L86.9537 113.043H199.153C199.709 108.774 200 104.421 200 99.9999C200 95.5792 199.709 91.2261 199.153 86.9565Z" fill="#6DA544"/>
<path d="M39.1162 179.327C55.9791 192.288 77.0873 200 99.9998 200C146.203 200 185.08 168.663 196.555 126.087H92.3564L39.1162 179.327Z" fill="#0052B4"/>
<path d="M196.555 73.9129C185.08 31.3363 146.203 0 99.9998 0C77.0873 0 55.9791 7.71133 39.1162 20.673L92.3561 73.9129H196.555Z" fill="#D80027"/>
</g>
<path d="M0.5 100C0.5 45.0477 45.0477 0.5 100 0.5C154.952 0.5 199.5 45.0477 199.5 100C199.5 154.952 154.952 199.5 100 199.5C45.0477 199.5 0.5 154.952 0.5 100Z" stroke="#EAEBEE"/>
<defs>
<clipPath id="clip0_67_9113">
<path d="M0 100C0 44.7715 44.7715 0 100 0C155.228 0 200 44.7715 200 100C200 155.228 155.228 200 100 200C44.7715 200 0 155.228 0 100Z" fill="white"/>
</clipPath>
</defs>
</svg>
