<svg width="200" height="200" viewBox="0 0 200 200" fill="none" xmlns="http://www.w3.org/2000/svg">
<g clip-path="url(#clip0_67_9154)">
<path d="M0.002 17.3916H0V182.609H0.002V100.001V17.3916Z" fill="#FF9811"/>
<path d="M99.9998 200C155.228 200 200 155.228 200 99.9998C200 44.7714 155.228 0 99.9998 0C44.7714 0 0 44.7714 0 99.9998C0 155.228 44.7714 200 99.9998 200Z" fill="#FFDA44"/>
<path d="M78.2613 17.3916H43.6382C42.1038 18.4404 40.6023 19.5322 39.1308 20.6623L30.4351 100L39.1308 179.338C40.6023 180.468 42.1038 181.56 43.6382 182.608H78.2613V17.3916Z" fill="#FF9811"/>
<path d="M0 100.001C0 132.323 15.3391 161.058 39.1305 179.338V20.6626C15.3391 38.9431 0 67.6783 0 100.001Z" fill="#6DA544"/>
<path d="M160.87 60.9624V63.4644L160.963 63.4784L160.87 60.9624Z" fill="#FFDA44"/>
<path d="M192.029 126.087H173.188L165.218 134.783V152.174H147.826V143.479H156.522V126.087H117.391V136.957H108.696V116.241C106.028 113.853 104.348 110.384 104.348 106.522V50.0003C104.348 42.7967 110.188 36.9569 117.391 36.9569V117.392H134.783L140.75 112.419C139.708 109.936 139.131 107.21 139.131 104.348V91.305H126.087V65.2183H152.174C152.174 60.8706 158.696 56.5225 158.696 56.5225C158.696 56.5225 165.218 60.8702 165.218 65.2183V71.7401V91.3054C170.055 91.3628 177.74 91.2374 186.043 91.3054C183.862 87.4929 182.609 82.9691 182.609 78.262C182.609 70.5898 185.921 63.6921 191.194 58.9186C183.594 42.0768 171.467 27.7166 156.362 17.3916H91.3047V182.609H156.363C174.729 170.054 188.694 151.534 195.469 129.839L192.029 126.087Z" fill="#A2001D"/>
</g>
<path d="M0.5 100C0.5 45.0477 45.0477 0.5 100 0.5C154.952 0.5 199.5 45.0477 199.5 100C199.5 154.952 154.952 199.5 100 199.5C45.0477 199.5 0.5 154.952 0.5 100Z" stroke="#EAEBEE"/>
<defs>
<clipPath id="clip0_67_9154">
<path d="M0 100C0 44.7715 44.7715 0 100 0C155.228 0 200 44.7715 200 100C200 155.228 155.228 200 100 200C44.7715 200 0 155.228 0 100Z" fill="white"/>
</clipPath>
</defs>
</svg>
