<svg width="200" height="200" viewBox="0 0 200 200" fill="none" xmlns="http://www.w3.org/2000/svg">
<g clip-path="url(#clip0_67_9161)">
<path d="M100 200C155.228 200 200 155.228 200 100C200 44.7715 155.228 0 100 0C44.7715 0 0 44.7715 0 100C0 155.228 44.7715 200 100 200Z" fill="white"/>
<path d="M178.55 80.4349H145.652C145.652 74.4319 140.785 69.5654 134.782 69.5654L126.086 86.9566C126.086 86.9566 135.362 113.044 135.072 113.044H145.941C151.945 113.044 156.811 108.178 156.811 102.174C162.814 102.174 167.68 97.3081 167.68 91.3048H167.318C173.321 91.3044 178.55 86.4383 178.55 80.4349Z" fill="#ACABB1"/>
<path d="M21.4492 80.4349H54.3477C54.3477 74.4319 59.2142 69.5654 65.2172 69.5654L73.913 86.9566C73.913 86.9566 64.6374 113.044 64.9275 113.044H54.058C48.0546 113.044 43.1885 108.178 43.1885 102.174C37.1852 102.174 32.3191 97.3081 32.3191 91.3048H32.6811C26.6777 91.3044 21.4492 86.4383 21.4492 80.4349Z" fill="#ACABB1"/>
<path d="M134.783 139.13V143.478H65.2174V139.13H47.8262V156.522H65.2174V160.869H134.783V156.522H152.174V139.13H134.783Z" fill="#FFDA44"/>
<path d="M65.2173 69.565V113.043C65.2173 139.667 99.9997 147.826 99.9997 147.826C99.9997 147.826 134.782 139.667 134.782 113.043V69.565L99.9997 65.2173L65.2173 69.565Z" fill="#0052B4"/>
<path d="M65.2178 86.958H134.783V113.045H65.2178V86.958Z" fill="#D80027"/>
<path d="M117.391 47.8262V54.3479L113.043 56.522L108.696 52.1739V39.1304H91.3043V52.1739L86.9566 56.522L82.6085 54.3479V47.8262H65.2173V69.5651H134.783V47.8262H117.391Z" fill="#FFDA44"/>
</g>
<path d="M0.5 100C0.5 45.0477 45.0477 0.5 100 0.5C154.952 0.5 199.5 45.0477 199.5 100C199.5 154.952 154.952 199.5 100 199.5C45.0477 199.5 0.5 154.952 0.5 100Z" stroke="#EAEBEE"/>
<defs>
<clipPath id="clip0_67_9161">
<path d="M0 100C0 44.7715 44.7715 0 100 0C155.228 0 200 44.7715 200 100C200 155.228 155.228 200 100 200C44.7715 200 0 155.228 0 100Z" fill="white"/>
</clipPath>
</defs>
</svg>
