<svg width="200" height="200" viewBox="0 0 200 200" fill="none" xmlns="http://www.w3.org/2000/svg">
<g clip-path="url(#clip0_67_9175)">
<path d="M147.826 12.159C133.619 4.40742 117.324 0 100 0C82.6758 0 66.3813 4.40742 52.1739 12.159L43.4781 100L52.1739 187.841C66.3813 195.593 82.6758 200 100 200C117.324 200 133.619 195.593 147.826 187.841L156.522 100L147.826 12.159Z" fill="#FFDA44"/>
<path d="M52.1738 187.84V12.1587C21.0895 29.1196 0 62.0958 0 100C0 137.904 21.0895 170.881 52.1738 187.84Z" fill="#338AF3"/>
<path d="M200 100C200 62.0958 178.911 29.1196 147.826 12.1587V187.84C178.911 170.881 200 137.904 200 100Z" fill="#6DA544"/>
<path d="M78.2609 126.087L60.8691 100L78.2605 73.9131L95.6527 100L78.2609 126.087Z" fill="#6DA544"/>
<path d="M121.739 126.087L104.348 100L121.739 73.9131L139.13 100L121.739 126.087Z" fill="#6DA544"/>
<path d="M100 160.87L82.6086 134.783L100 108.696L117.391 134.783L100 160.87Z" fill="#6DA544"/>
</g>
<path d="M0.5 100C0.5 45.0477 45.0477 0.5 100 0.5C154.952 0.5 199.5 45.0477 199.5 100C199.5 154.952 154.952 199.5 100 199.5C45.0477 199.5 0.5 154.952 0.5 100Z" stroke="#EAEBEE"/>
<defs>
<clipPath id="clip0_67_9175">
<path d="M0 100C0 44.7715 44.7715 0 100 0C155.228 0 200 44.7715 200 100C200 155.228 155.228 200 100 200C44.7715 200 0 155.228 0 100Z" fill="white"/>
</clipPath>
</defs>
</svg>
