<svg width="200" height="200" viewBox="0 0 200 200" fill="none" xmlns="http://www.w3.org/2000/svg">
<g clip-path="url(#clip0_67_9188)">
<path d="M100 200C155.228 200 200 155.228 200 100C200 44.7715 155.228 0 100 0C44.7715 0 0 44.7715 0 100C0 155.228 44.7715 200 100 200Z" fill="white"/>
<path d="M193.78 65.2178H6.21953C2.20039 76.0514 0 87.7682 0 100C0 112.232 2.20039 123.95 6.21953 134.783H193.78C197.8 123.95 200 112.232 200 100C200 87.7682 197.8 76.0514 193.78 65.2178Z" fill="#A2001D"/>
<path d="M100.289 200C134.54 200 164.765 182.777 182.788 156.522H17.7914C35.814 182.777 66.0383 200 100.289 200Z" fill="#6DA544"/>
<path d="M100.289 0.000976562C134.54 0.000976562 164.765 17.2244 182.788 43.4791H17.7914C35.814 17.2244 66.0383 0.000976562 100.289 0.000976562Z" fill="#6DA544"/>
<path d="M100 65.2178L108.633 91.7881H136.573L113.97 108.212L122.604 134.783L100 118.361L77.3965 134.783L86.0309 108.212L63.4274 91.7881H91.3668L100 65.2178Z" fill="#FFDA44"/>
</g>
<path d="M0.5 100C0.5 45.0477 45.0477 0.5 100 0.5C154.952 0.5 199.5 45.0477 199.5 100C199.5 154.952 154.952 199.5 100 199.5C45.0477 199.5 0.5 154.952 0.5 100Z" stroke="#EAEBEE"/>
<defs>
<clipPath id="clip0_67_9188">
<path d="M0 100C0 44.7715 44.7715 0 100 0C155.228 0 200 44.7715 200 100C200 155.228 155.228 200 100 200C44.7715 200 0 155.228 0 100Z" fill="white"/>
</clipPath>
</defs>
</svg>
