<svg width="200" height="200" viewBox="0 0 200 200" fill="none" xmlns="http://www.w3.org/2000/svg">
<g clip-path="url(#clip0_67_9195)">
<path d="M190.077 143.478C196.434 130.332 200 115.582 200 100C200 84.418 196.434 69.6684 190.077 56.5219L100 52.1738L9.92266 56.5215C3.56563 69.6684 0 84.418 0 100C0 115.582 3.56563 130.332 9.92266 143.478L100 147.826L190.077 143.478Z" fill="#FFDA44"/>
<path d="M99.9999 0C60.3539 0 26.0976 23.0723 9.92261 56.5219H190.077C173.902 23.0723 139.646 0 99.9999 0Z" fill="black"/>
<path d="M99.9999 200C60.3539 200 26.0976 176.928 9.92261 143.478H190.077C173.902 176.928 139.646 200 99.9999 200Z" fill="#0052B4"/>
<path d="M195.278 69.5654H4.72227C1.65898 79.1627 0 89.3873 0 100C0 110.613 1.65898 120.838 4.72227 130.435H195.277C198.341 120.838 200 110.613 200 100C200 89.3873 198.341 79.1627 195.278 69.5654Z" fill="#A2001D"/>
<path d="M34.7825 95.6523H165.217V104.348H34.7825V95.6523Z" fill="#FFDA44"/>
<path d="M52.1738 78.2607H147.826V86.9564H52.1738V78.2607Z" fill="#FFDA44"/>
<path d="M148.447 100C148.447 100 126.087 126.087 100 126.087C73.9132 126.087 73.9128 100 73.9128 100C73.9128 100 73.9128 73.9131 100 73.9131C126.087 73.9131 148.447 100 148.447 100Z" fill="white"/>
<path d="M100 126.087C73.9129 126.087 51.5527 100 51.5527 100C51.5527 100 73.9129 73.9131 100 73.9131" fill="black"/>
<path d="M82.6086 91.3042H91.3043V108.696H82.6086V91.3042Z" fill="white"/>
<path d="M108.696 91.3042H117.391V108.696H108.696V91.3042Z" fill="black"/>
<path d="M34.7824 108.696C39.5849 108.696 43.4781 104.802 43.4781 99.9999C43.4781 95.1974 39.5849 91.3042 34.7824 91.3042C29.9799 91.3042 26.0867 95.1974 26.0867 99.9999C26.0867 104.802 29.9799 108.696 34.7824 108.696Z" fill="#0052B4"/>
<path d="M165.218 108.696C170.02 108.696 173.913 104.802 173.913 99.9999C173.913 95.1974 170.02 91.3042 165.218 91.3042C160.415 91.3042 156.522 95.1974 156.522 99.9999C156.522 104.802 160.415 108.696 165.218 108.696Z" fill="#0052B4"/>
</g>
<path d="M0.5 100C0.5 45.0477 45.0477 0.5 100 0.5C154.952 0.5 199.5 45.0477 199.5 100C199.5 154.952 154.952 199.5 100 199.5C45.0477 199.5 0.5 154.952 0.5 100Z" stroke="#EAEBEE"/>
<defs>
<clipPath id="clip0_67_9195">
<path d="M0 100C0 44.7715 44.7715 0 100 0C155.228 0 200 44.7715 200 100C200 155.228 155.228 200 100 200C44.7715 200 0 155.228 0 100Z" fill="white"/>
</clipPath>
</defs>
</svg>
