<svg width="200" height="200" viewBox="0 0 200 200" fill="none" xmlns="http://www.w3.org/2000/svg">
<g clip-path="url(#clip0_67_9220)">
<path d="M100 200C155.228 200 200 155.228 200 100C200 44.7715 155.228 0 100 0C44.7715 0 0 44.7715 0 100C0 155.228 44.7715 200 100 200Z" fill="white"/>
<path d="M100 0C57.0036 0 20.3493 27.1375 6.21997 65.2176H193.781C179.651 27.1375 142.997 0 100 0Z" fill="#D80027"/>
<path d="M100 200C142.997 200 179.651 172.862 193.78 134.782H6.21997C20.3493 172.862 57.0036 200 100 200Z" fill="black"/>
<path d="M59.7509 76.0869L65.1466 92.6932H82.6087L68.4817 102.958L73.8778 119.565L59.7509 109.301L45.6239 119.565L51.02 102.958L36.8931 92.6932H54.3552L59.7509 76.0869Z" fill="#6DA544"/>
<path d="M140.249 76.0869L145.645 92.6932H163.108L148.98 102.958L154.376 119.565L140.249 109.301L126.122 119.565L131.519 102.958L117.392 92.6932H134.854L140.249 76.0869Z" fill="#6DA544"/>
</g>
<path d="M0.5 100C0.5 45.0477 45.0477 0.5 100 0.5C154.952 0.5 199.5 45.0477 199.5 100C199.5 154.952 154.952 199.5 100 199.5C45.0477 199.5 0.5 154.952 0.5 100Z" stroke="#EAEBEE"/>
<defs>
<clipPath id="clip0_67_9220">
<path d="M0 100C0 44.7715 44.7715 0 100 0C155.228 0 200 44.7715 200 100C200 155.228 155.228 200 100 200C44.7715 200 0 155.228 0 100Z" fill="white"/>
</clipPath>
</defs>
</svg>
