<svg width="200" height="200" viewBox="0 0 200 200" fill="none" xmlns="http://www.w3.org/2000/svg">
<g clip-path="url(#clip0_67_9227)">
<path d="M200 100C200 155.228 155.228 200 100 200C44.7719 200 0 155.228 0 100C34.3477 65.6523 63.4781 36.5219 100 0C155.228 0 200 44.7719 200 100Z" fill="#D80027"/>
<path d="M100 100C100 44.7719 100 38.2609 100 0C44.7719 0 0 44.7719 0 100H100Z" fill="#0052B4"/>
<path d="M86.9565 58.5238L74.7436 64.2691L81.2468 76.0969L67.9854 73.5594L66.3046 86.9566L57.0679 77.1035L47.8304 86.9566L46.1503 73.5594L32.8886 76.0961L39.3917 64.2684L27.1792 58.5238L39.3921 52.7797L32.8886 40.9516L46.1499 43.4887L47.8308 30.0918L57.0679 39.9449L66.305 30.0918L67.9854 43.4887L81.2472 40.9516L74.7436 52.7801L86.9565 58.5238Z" fill="white"/>
<path d="M57.0695 77.1361C67.35 77.1361 75.684 68.8022 75.684 58.5217C75.684 48.2412 67.35 39.9072 57.0695 39.9072C46.7891 39.9072 38.4551 48.2412 38.4551 58.5217C38.4551 68.8022 46.7891 77.1361 57.0695 77.1361Z" fill="#0052B4"/>
<path d="M57.068 68.4425C51.5989 68.4425 47.1497 63.9929 47.1497 58.5237C47.1497 53.0546 51.5993 48.605 57.068 48.605C62.5372 48.605 66.9868 53.0546 66.9868 58.5237C66.9864 63.9929 62.5364 68.4425 57.068 68.4425Z" fill="white"/>
</g>
<path d="M0.5 100C0.5 45.0477 45.0477 0.5 100 0.5C154.952 0.5 199.5 45.0477 199.5 100C199.5 154.952 154.952 199.5 100 199.5C45.0477 199.5 0.5 154.952 0.5 100Z" stroke="#EAEBEE"/>
<defs>
<clipPath id="clip0_67_9227">
<path d="M0 100C0 44.7715 44.7715 0 100 0C155.228 0 200 44.7715 200 100C200 155.228 155.228 200 100 200C44.7715 200 0 155.228 0 100Z" fill="white"/>
</clipPath>
</defs>
</svg>
