<svg width="200" height="200" viewBox="0 0 200 200" fill="none" xmlns="http://www.w3.org/2000/svg">
<g clip-path="url(#clip0_67_9233)">
<path d="M9.92266 56.5219C3.56563 69.6688 0 84.418 0 100C0 115.582 3.56563 130.331 9.92266 143.478L100 152.174L190.077 143.478C196.434 130.331 200 115.582 200 100C200 84.418 196.434 69.6688 190.077 56.5219L100 47.8262L9.92266 56.5219Z" fill="white"/>
<path d="M9.92627 143.478C26.1009 176.927 60.3544 200 100 200C139.646 200 173.9 176.927 190.074 143.478H9.92627Z" fill="#6DA544"/>
<path d="M9.92627 56.5219H190.074C173.9 23.0727 139.646 0 100 0C60.3544 0 26.1009 23.0727 9.92627 56.5219Z" fill="#D80027"/>
<path d="M82.6086 126.087H117.391V111.304L110.435 114.782L100 104.348L89.5653 114.782L82.6086 111.304V126.087Z" fill="#FFDA44"/>
<path d="M62.7078 108.696L64.3269 113.678H69.5652L65.3269 116.757L66.946 121.739L62.7078 118.66L58.4695 121.739L60.0886 116.757L55.8503 113.678H61.0886L62.7078 108.696Z" fill="#FFDA44"/>
<path d="M67.7268 91.3042L69.3459 96.2862H74.5842L70.3459 99.3655L71.9647 104.348L67.7268 101.269L63.4885 104.348L65.1077 99.3655L60.8694 96.2862H66.1077L67.7268 91.3042Z" fill="#FFDA44"/>
<path d="M82.0754 78.2612L83.6946 83.2433H88.9325L84.695 86.3226L86.3133 91.3046L82.0754 88.2257L77.8376 91.3046L79.4563 86.3226L75.218 83.2433H80.4567L82.0754 78.2612Z" fill="#FFDA44"/>
<path d="M137.292 108.696L135.673 113.678H130.435L134.673 116.757L133.054 121.739L137.292 118.66L141.53 121.739L139.911 116.757L144.15 113.678H138.911L137.292 108.696Z" fill="#FFDA44"/>
<path d="M132.273 91.3042L130.654 96.2862H125.416L129.654 99.3655L128.035 104.348L132.273 101.269L136.511 104.348L134.892 99.3655L139.13 96.2862H133.892L132.273 91.3042Z" fill="#FFDA44"/>
<path d="M117.925 78.2612L116.306 83.2433H111.068L115.305 86.3226L113.686 91.3046L117.925 88.2257L122.163 91.3046L120.544 86.3226L124.782 83.2433H119.543L117.925 78.2612Z" fill="#FFDA44"/>
<path d="M100 71.7388L101.619 76.7208H106.857L102.619 79.8001L104.238 84.7821L100 81.7032L95.7617 84.7821L97.3809 79.8001L93.1426 76.7208H98.3809L100 71.7388Z" fill="#FFDA44"/>
</g>
<path d="M0.5 100C0.5 45.0477 45.0477 0.5 100 0.5C154.952 0.5 199.5 45.0477 199.5 100C199.5 154.952 154.952 199.5 100 199.5C45.0477 199.5 0.5 154.952 0.5 100Z" stroke="#EAEBEE"/>
<defs>
<clipPath id="clip0_67_9233">
<path d="M0 100C0 44.7715 44.7715 0 100 0C155.228 0 200 44.7715 200 100C200 155.228 155.228 200 100 200C44.7715 200 0 155.228 0 100Z" fill="white"/>
</clipPath>
</defs>
</svg>
