<svg width="200" height="200" viewBox="0 0 200 200" fill="none" xmlns="http://www.w3.org/2000/svg">
<g clip-path="url(#clip0_67_9246)">
<path d="M100 200C155.228 200 200 155.228 200 100C200 44.7715 155.228 0 100 0C44.7715 0 0 44.7715 0 100C0 155.228 44.7715 200 100 200Z" fill="#FFDA44"/>
<path d="M29.289 170.711C33.4839 174.906 37.9597 178.647 42.6546 181.941L181.94 42.655C178.647 37.9601 174.905 33.4843 170.71 29.2894C166.515 25.0944 162.04 21.3538 157.345 18.0601L18.0601 157.346C21.353 162.039 25.0944 166.516 29.289 170.711Z" fill="black"/>
<path d="M29.2891 29.2891C-2.25855 60.8376 -8.31519 108.217 11.1079 145.851L145.851 11.1083C108.217 -8.31479 60.8371 -2.25776 29.2891 29.2891Z" fill="#6DA544"/>
<path d="M170.711 170.711C202.258 139.163 208.315 91.7834 188.892 54.1494L54.1494 188.892C91.7826 208.315 139.163 202.259 170.711 170.711Z" fill="#338AF3"/>
</g>
<path d="M0.5 100C0.5 45.0477 45.0477 0.5 100 0.5C154.952 0.5 199.5 45.0477 199.5 100C199.5 154.952 154.952 199.5 100 199.5C45.0477 199.5 0.5 154.952 0.5 100Z" stroke="#EAEBEE"/>
<defs>
<clipPath id="clip0_67_9246">
<path d="M0 100C0 44.7715 44.7715 0 100 0C155.228 0 200 44.7715 200 100C200 155.228 155.228 200 100 200C44.7715 200 0 155.228 0 100Z" fill="white"/>
</clipPath>
</defs>
</svg>
