<svg width="200" height="200" viewBox="0 0 200 200" fill="none" xmlns="http://www.w3.org/2000/svg">
<g clip-path="url(#clip0_67_9251)">
<path d="M100 200C155.228 200 200 155.228 200 100C200 44.7715 155.228 0 100 0C44.7715 0 0 44.7715 0 100C0 155.228 44.7715 200 100 200Z" fill="white"/>
<path d="M193.78 65.2178H6.21992C2.2 76.051 0 87.7682 0 100C0 112.232 2.2 123.949 6.21992 134.783H193.78C197.8 123.949 200 112.232 200 100C200 87.7682 197.8 76.051 193.78 65.2178Z" fill="#0052B4"/>
<path d="M99.9999 0C69.6909 0 42.5335 13.4859 24.1948 34.7824H175.805C157.466 13.4859 130.309 0 99.9999 0Z" fill="#D80027"/>
<path d="M175.805 165.218H24.1948C42.5335 186.514 69.6909 200 99.9999 200C130.309 200 157.466 186.514 175.805 165.218Z" fill="#D80027"/>
</g>
<path d="M0.5 100C0.5 45.0477 45.0477 0.5 100 0.5C154.952 0.5 199.5 45.0477 199.5 100C199.5 154.952 154.952 199.5 100 199.5C45.0477 199.5 0.5 154.952 0.5 100Z" stroke="#EAEBEE"/>
<defs>
<clipPath id="clip0_67_9251">
<path d="M0 100C0 44.7715 44.7715 0 100 0C155.228 0 200 44.7715 200 100C200 155.228 155.228 200 100 200C44.7715 200 0 155.228 0 100Z" fill="white"/>
</clipPath>
</defs>
</svg>
