<svg width="200" height="200" viewBox="0 0 200 200" fill="none" xmlns="http://www.w3.org/2000/svg">
<g clip-path="url(#clip0_67_9257)">
<path d="M100 200C155.228 200 200 155.228 200 100C200 44.7715 155.228 0 100 0C44.7715 0 0 44.7715 0 100C0 155.228 44.7715 200 100 200Z" fill="white"/>
<path d="M43.6377 17.3914C59.6865 6.42031 79.092 0 99.9998 0C120.908 0 140.313 6.42031 156.362 17.3914L99.9998 21.7391L43.6377 17.3914Z" fill="#FFDA44"/>
<path d="M29.2945 170.706L75.4047 124.596L100 82.6088L124.593 124.594L170.705 170.706C188.803 152.61 200 127.615 200 100C200 65.6795 182.707 35.4006 156.362 17.3916H43.6379C17.2926 35.4006 0 65.6795 0 100C0 127.615 11.1969 152.61 29.2945 170.706Z" fill="#D80027"/>
<path d="M192.403 138.29L119.29 107.994L124.589 124.589L170.706 170.705C179.913 161.499 187.335 150.506 192.403 138.29Z" fill="#0052B4"/>
<path d="M200 100C200 86.4359 197.296 73.5043 192.403 61.7109L100 100H200Z" fill="#0052B4"/>
<path d="M170.705 29.2947C166.31 24.9002 161.51 20.9107 156.362 17.3916H134.231L100 100L170.705 29.2947Z" fill="#0052B4"/>
<path d="M99.9999 17.3916H65.769L99.9999 100V17.3916Z" fill="#0052B4"/>
<path d="M29.2944 29.2949C20.0866 38.502 12.6659 49.4945 7.59717 61.7105L99.9999 100L29.2944 29.2949Z" fill="#0052B4"/>
<path d="M0 100C0 113.564 2.70352 126.496 7.59688 138.289L100 100H0Z" fill="#0052B4"/>
<path d="M43.6377 182.609C59.6861 193.58 79.092 200 99.9998 200C120.908 200 140.313 193.58 156.362 182.609H43.6377Z" fill="#FFDA44"/>
<path d="M99.9997 100L124.595 124.595C130.89 118.301 134.783 109.605 134.783 100C134.783 80.79 119.21 65.2178 100 65.2178C80.7903 65.2178 65.2173 80.79 65.2173 100C65.2173 109.605 69.1103 118.301 75.4052 124.595L99.9997 100Z" fill="#FFDA44"/>
<path d="M115.217 150C115.217 158.405 108.404 160.87 99.9998 160.87C91.5959 160.87 84.7822 158.405 84.7822 150C84.7822 141.596 91.5959 134.783 99.9998 134.783C108.404 134.783 115.217 141.596 115.217 150Z" fill="#FFDA44"/>
<path d="M115.217 150C115.217 158.404 108.404 165.218 99.9998 165.218C91.5959 165.218 84.7822 158.404 84.7822 150" fill="#0052B4"/>
</g>
<path d="M0.5 100C0.5 45.0477 45.0477 0.5 100 0.5C154.952 0.5 199.5 45.0477 199.5 100C199.5 154.952 154.952 199.5 100 199.5C45.0477 199.5 0.5 154.952 0.5 100Z" stroke="#EAEBEE"/>
<defs>
<clipPath id="clip0_67_9257">
<path d="M0 100C0 44.7715 44.7715 0 100 0C155.228 0 200 44.7715 200 100C200 155.228 155.228 200 100 200C44.7715 200 0 155.228 0 100Z" fill="white"/>
</clipPath>
</defs>
</svg>
