<svg width="200" height="200" viewBox="0 0 200 200" fill="none" xmlns="http://www.w3.org/2000/svg">
<g clip-path="url(#clip0_67_9273)">
<path d="M100 200C155.228 200 200 155.228 200 100C200 44.7715 155.228 0 100 0C44.7715 0 0 44.7715 0 100C0 155.228 44.7715 200 100 200Z" fill="#FFDA44"/>
<path d="M100 0C99.9273 0.00078125 95.6523 40 95.6523 40H180.005C161.761 15.7121 132.716 0 100 0Z" fill="#496E2D"/>
<path d="M99.9999 200C132.716 200 161.76 184.288 180.004 160H19.9956C38.2394 184.288 67.2843 200 99.9999 200Z" fill="#496E2D"/>
<path d="M197.998 80H95.6523L100 120H197.998C199.31 113.538 200 106.85 200 100C200 93.1504 199.309 86.4621 197.998 80Z" fill="#496E2D"/>
<path d="M100 120C100 99.1305 100 23.4781 100 0C44.7719 0 0 44.7719 0 100C0 106.85 0.690625 113.538 2.00234 120H100Z" fill="#D80027"/>
<path d="M55.1784 47.8262L61.6534 67.7539H82.6085L65.6565 80.0715L72.1308 100L55.1784 87.6836L38.2261 100L44.7015 80.0715L27.7495 67.7539H48.7038L55.1784 47.8262Z" fill="white"/>
</g>
<path d="M0.5 100C0.5 45.0477 45.0477 0.5 100 0.5C154.952 0.5 199.5 45.0477 199.5 100C199.5 154.952 154.952 199.5 100 199.5C45.0477 199.5 0.5 154.952 0.5 100Z" stroke="#EAEBEE"/>
<defs>
<clipPath id="clip0_67_9273">
<path d="M0 100C0 44.7715 44.7715 0 100 0C155.228 0 200 44.7715 200 100C200 155.228 155.228 200 100 200C44.7715 200 0 155.228 0 100Z" fill="white"/>
</clipPath>
</defs>
</svg>
