<svg width="200" height="200" viewBox="0 0 200 200" fill="none" xmlns="http://www.w3.org/2000/svg">
<g clip-path="url(#clip0_67_9281)">
<path d="M100 200C155.228 200 200 155.228 200 100C200 44.7715 155.228 0 100 0C44.7715 0 0 44.7715 0 100C0 155.228 44.7715 200 100 200Z" fill="#FFDA44"/>
<path d="M160.87 47.8262C159.973 52.1367 159.565 56.7277 159.565 61.3043C159.565 87.6848 175.291 110.517 197.829 120.796C199.248 114.086 200 107.131 200 100C200 44.7719 155.228 0 100 0C44.7719 0 0 44.7719 0 100C0 155.228 44.7719 200 100 200C134.251 200 164.476 182.777 182.498 156.522H56.5219V143.479H190.077C191.444 140.652 192.679 137.75 193.78 134.783H56.5219L160.87 47.8262Z" fill="#0052B4"/>
<path d="M73.4656 52.1738L75.6242 58.8168H82.6086L76.9582 62.9227L79.1168 69.5652L73.4656 65.4602L67.8152 69.5652L69.9734 62.9227L64.3223 58.8168H71.307L73.4656 52.1738Z" fill="white"/>
<path d="M45.0931 100L47.7915 108.304H56.522L49.4583 113.435L52.1567 121.739L45.0931 116.607L38.0298 121.739L40.7278 113.435L33.6646 108.304H42.395L45.0931 100Z" fill="white"/>
<path d="M45.0931 30.4346L47.7915 38.7389H56.522L49.4583 43.8697L52.1567 52.1736L45.0931 47.0416L38.0298 52.1736L40.7278 43.8697L33.6646 38.7389H42.395L45.0931 30.4346Z" fill="white"/>
<path d="M23.3538 69.5649L26.0522 77.8692H34.7823L27.719 83.0001L30.4175 91.304L23.3538 86.172L16.2905 91.304L18.9886 83.0001L11.9253 77.8692H20.6554L23.3538 69.5649Z" fill="white"/>
</g>
<path d="M0.5 100C0.5 45.0477 45.0477 0.5 100 0.5C154.952 0.5 199.5 45.0477 199.5 100C199.5 154.952 154.952 199.5 100 199.5C45.0477 199.5 0.5 154.952 0.5 100Z" stroke="#EAEBEE"/>
<defs>
<clipPath id="clip0_67_9281">
<path d="M0 100C0 44.7715 44.7715 0 100 0C155.228 0 200 44.7715 200 100C200 155.228 155.228 200 100 200C44.7715 200 0 155.228 0 100Z" fill="white"/>
</clipPath>
</defs>
</svg>
