<svg width="200" height="200" viewBox="0 0 200 200" fill="none" xmlns="http://www.w3.org/2000/svg">
<g clip-path="url(#clip0_67_9294)">
<path d="M196.555 73.9129C185.08 31.3363 146.203 0 99.9999 0C53.7972 0 14.9198 31.3363 3.44482 73.9129L99.9999 78.2609L196.555 73.9129Z" fill="#A2001D"/>
<path d="M3.44482 126.087C14.9198 168.663 53.7972 200 99.9999 200C146.203 200 185.08 168.664 196.555 126.087L99.9999 121.739L3.44482 126.087Z" fill="#A2001D"/>
<path d="M196.555 73.9131H3.44492C1.20313 82.2307 0 90.974 0 100C0 109.026 1.20313 117.77 3.44492 126.087H196.555C198.797 117.77 200 109.026 200 100C200 90.974 198.797 82.2307 196.555 73.9131Z" fill="#6DA544"/>
</g>
<path d="M0.5 100C0.5 45.0477 45.0477 0.5 100 0.5C154.952 0.5 199.5 45.0477 199.5 100C199.5 154.952 154.952 199.5 100 199.5C45.0477 199.5 0.5 154.952 0.5 100Z" stroke="#EAEBEE"/>
<defs>
<clipPath id="clip0_67_9294">
<path d="M0 100C0 44.7715 44.7715 0 100 0C155.228 0 200 44.7715 200 100C200 155.228 155.228 200 100 200C44.7715 200 0 155.228 0 100Z" fill="white"/>
</clipPath>
</defs>
</svg>
