<svg width="200" height="200" viewBox="0 0 200 200" fill="none" xmlns="http://www.w3.org/2000/svg">
<g clip-path="url(#clip0_67_9299)">
<path d="M54.1471 11.104C45.1947 15.7247 36.7912 21.7813 29.2865 29.286C21.7814 36.7911 15.7248 45.1946 11.1045 54.147L75.4041 124.596L145.853 188.895C154.806 184.275 163.209 178.218 170.714 170.714C178.219 163.209 184.275 154.805 188.896 145.853L124.596 75.4036L54.1471 11.104Z" fill="white"/>
<path d="M170.714 170.714C174.909 166.519 178.65 162.042 181.944 157.348L42.6527 18.0562C37.9578 21.3495 33.4816 25.0909 29.2867 29.2858C25.0918 33.4808 21.3504 37.9569 18.0566 42.6522L157.348 181.943C162.042 178.65 166.519 174.908 170.714 170.714Z" fill="black"/>
<path d="M29.2859 170.714C60.8355 202.263 108.217 208.32 145.852 188.895L11.1043 54.147C-8.31956 91.7821 -2.26214 139.164 29.2859 170.714Z" fill="#D80027"/>
<path d="M170.713 29.2864C139.164 -2.26281 91.7821 -8.31906 54.147 11.104L188.895 145.853C208.319 108.218 202.263 60.8356 170.713 29.2864Z" fill="#D80027"/>
</g>
<path d="M0.5 100C0.5 45.0477 45.0477 0.5 100 0.5C154.952 0.5 199.5 45.0477 199.5 100C199.5 154.952 154.952 199.5 100 199.5C45.0477 199.5 0.5 154.952 0.5 100Z" stroke="#EAEBEE"/>
<defs>
<clipPath id="clip0_67_9299">
<path d="M0 100C0 44.7715 44.7715 0 100 0C155.228 0 200 44.7715 200 100C200 155.228 155.228 200 100 200C44.7715 200 0 155.228 0 100Z" fill="white"/>
</clipPath>
</defs>
</svg>
