<svg width="200" height="200" viewBox="0 0 200 200" fill="none" xmlns="http://www.w3.org/2000/svg">
<g clip-path="url(#clip0_67_9305)">
<path d="M100 200C155.228 200 200 155.228 200 100C200 44.7715 155.228 0 100 0C44.7715 0 0 44.7715 0 100C0 155.228 44.7715 200 100 200Z" fill="#D80027"/>
<path d="M100 147.826C126.414 147.826 147.826 126.414 147.826 100C147.826 73.5863 126.414 52.1738 100 52.1738C73.5863 52.1738 52.1738 73.5863 52.1738 100C52.1738 126.414 73.5863 147.826 100 147.826Z" fill="white"/>
<path d="M105.892 81.7134L114.097 93.02L127.385 88.7114L119.167 100.008L127.371 111.315L114.087 106.99L105.87 118.286L105.878 104.317L92.5952 99.9923L105.883 95.6837L105.892 81.7134Z" fill="#D80027"/>
<path d="M110.87 128.261C95.2619 128.261 82.6088 115.608 82.6088 100C82.6088 84.3923 95.2619 71.7392 110.87 71.7392C115.736 71.7392 120.315 72.9696 124.313 75.136C118.042 69.0028 109.465 65.2173 100 65.2173C80.7908 65.2173 65.2178 80.7899 65.2178 99.9997C65.2178 119.209 80.7908 134.782 100 134.782C109.465 134.782 118.042 130.997 124.313 124.863C120.315 127.031 115.736 128.261 110.87 128.261Z" fill="#D80027"/>
</g>
<path d="M0.5 100C0.5 45.0477 45.0477 0.5 100 0.5C154.952 0.5 199.5 45.0477 199.5 100C199.5 154.952 154.952 199.5 100 199.5C45.0477 199.5 0.5 154.952 0.5 100Z" stroke="#EAEBEE"/>
<defs>
<clipPath id="clip0_67_9305">
<path d="M0 100C0 44.7715 44.7715 0 100 0C155.228 0 200 44.7715 200 100C200 155.228 155.228 200 100 200C44.7715 200 0 155.228 0 100Z" fill="white"/>
</clipPath>
</defs>
</svg>
