<svg width="200" height="200" viewBox="0 0 200 200" fill="none" xmlns="http://www.w3.org/2000/svg">
<g clip-path="url(#clip0_67_9316)">
<path d="M99.9996 0C92.5332 0 85.2602 0.825391 78.2609 2.37695L73.9133 99.9996L78.2609 197.623C85.2606 199.174 92.5336 200 99.9996 200C155.228 200 200 155.228 200 99.9996C199.999 44.7715 155.228 0 99.9996 0V0Z" fill="#496E2D"/>
<path d="M26.0869 32.645C9.88223 50.4169 0.000198364 74.0536 0.000198364 99.9997C0.000198364 125.946 9.88262 149.583 26.0873 167.355L30.435 99.9997L26.0869 32.645Z" fill="#496E2D"/>
<path d="M146.258 75.4289C151.178 61.7156 145.651 46.8012 133.789 39.373C135.922 39.6508 138.058 40.1531 140.166 40.909C155.988 46.5855 164.212 64.0121 158.535 79.8332C152.859 95.6555 135.432 103.879 119.611 98.2023C117.502 97.4461 115.534 96.4754 113.711 95.3336C127.59 97.141 141.338 89.1422 146.258 75.4289Z" fill="white"/>
<path d="M118.97 35.6143L114.695 41.1385L108.121 38.7795L112.053 44.5521L107.779 50.0756L114.484 48.1201L118.416 53.892L118.627 46.9107L125.333 44.9549L118.759 42.5967L118.97 35.6143Z" fill="white"/>
<path d="M130.514 53.6138L126.239 59.1376L119.664 56.7786L123.597 62.5513L119.322 68.0747L126.027 66.1185L129.96 71.8915L130.171 64.9099L136.877 62.9536L130.302 60.595L130.514 53.6138Z" fill="white"/>
<path d="M98.6172 42.1699L94.3418 47.6934L87.768 45.3352L91.7004 51.1074L87.4254 56.6312L94.1301 54.6754L98.0629 60.4477L98.2746 53.4664L104.98 51.5105L98.4059 49.1516L98.6172 42.1699Z" fill="white"/>
<path d="M98.1484 62.7876L93.8734 68.3114L87.2992 65.9528L91.232 71.7255L86.9563 77.2489L93.6621 75.2935L97.5945 81.0653L97.8059 74.0841L104.511 72.1282L97.9367 69.7692L98.1484 62.7876Z" fill="white"/>
<path d="M117.768 69.8271L113.493 75.3506L106.919 72.992L110.852 78.7647L106.576 84.2877L113.282 82.3322L117.214 88.1049L117.425 81.1229L124.131 79.1674L117.556 76.8088L117.768 69.8271Z" fill="white"/>
<path d="M26.0871 32.6449V167.355C39.7121 182.298 57.8098 193.089 78.2609 197.622V2.37695C57.8094 6.91055 39.7125 17.7016 26.0871 32.6449Z" fill="#D80027"/>
<path d="M45.9973 52.6502L37.2625 46.1432V36.9412L45.9973 30.4346H58.3508L67.0855 36.9412V46.1432L58.3508 52.6502H45.9973Z" fill="white"/>
<path d="M52.1742 30.4346H45.9973L37.2625 36.9412V41.44H52.1742V30.4346Z" fill="#FF9811"/>
<path d="M52.1742 52.6504H58.3508L67.0855 46.1434V41.4492H52.1742V52.6504Z" fill="#FF9811"/>
<path d="M45.9973 169.564L37.2625 163.057V153.856L45.9973 147.349H58.3508L67.0855 153.856V163.057L58.3508 169.564H45.9973Z" fill="white"/>
<path d="M52.1742 147.349H45.9973L37.2625 153.856V158.354H52.1742V147.349Z" fill="#FF9811"/>
<path d="M52.1742 169.564H58.3508L67.0855 163.057V158.363H52.1742V169.564Z" fill="#FF9811"/>
<path d="M45.9973 111.108L37.2625 104.601V95.3991L45.9973 88.8921H58.3508L67.0855 95.3991V104.601L58.3508 111.108H45.9973Z" fill="#496E2D"/>
<path d="M67.3914 125.424H63.5867V121.62H56.9012L52.1738 116.893L47.4469 121.62H40.7613V125.424H36.957V133.033H40.7613V136.837H47.4465L52.1742 141.565L56.9012 136.837H63.5867V133.033H67.3914V125.424Z" fill="#496E2D"/>
<path d="M67.3914 66.9666H63.5867V63.1619H56.9012L52.1738 58.4346L47.4469 63.1619H40.7613V66.9666H36.957V74.5752H40.7613V78.3795H47.4465L52.1742 83.1076L56.9012 78.3795H63.5867V74.5752H67.3914V66.9666Z" fill="#496E2D"/>
<path d="M47.8258 95.6514H56.5215V104.347H47.8258V95.6514Z" fill="#D80027"/>
<path d="M52.1734 75.1167C54.5746 75.1167 56.5211 73.1702 56.5211 70.769C56.5211 68.3679 54.5746 66.4214 52.1734 66.4214C49.7723 66.4214 47.8258 68.3679 47.8258 70.769C47.8258 73.1702 49.7723 75.1167 52.1734 75.1167Z" fill="#D80027"/>
<path d="M52.1734 133.577C54.5746 133.577 56.5211 131.631 56.5211 129.229C56.5211 126.828 54.5746 124.882 52.1734 124.882C49.7723 124.882 47.8258 126.828 47.8258 129.229C47.8258 131.631 49.7723 133.577 52.1734 133.577Z" fill="#D80027"/>
</g>
<path d="M0.5 100C0.5 45.0477 45.0477 0.5 100 0.5C154.952 0.5 199.5 45.0477 199.5 100C199.5 154.952 154.952 199.5 100 199.5C45.0477 199.5 0.5 154.952 0.5 100Z" stroke="#EAEBEE"/>
<defs>
<clipPath id="clip0_67_9316">
<path d="M0 100C0 44.7715 44.7715 0 100 0C155.228 0 200 44.7715 200 100C200 155.228 155.228 200 100 200C44.7715 200 0 155.228 0 100Z" fill="white"/>
</clipPath>
</defs>
</svg>
