<svg width="200" height="200" viewBox="0 0 200 200" fill="none" xmlns="http://www.w3.org/2000/svg">
<g clip-path="url(#clip0_67_9344)">
<path d="M200 100C200 155.228 155.228 200 100 200C44.7719 200 0 155.228 0 100C0 100.024 100 0.0109375 100 0C155.228 0 200 44.7719 200 100Z" fill="#0052B4"/>
<path d="M99.7324 100H100C100 99.9102 100 99.8227 100 99.7324C99.9109 99.8219 99.8219 99.9109 99.7324 100Z" fill="white"/>
<path d="M100 52.1738C100 34.5781 100 23.0488 100 0H99.9832C44.7621 0.009375 0 44.777 0 100H52.1738V70.6207L81.5531 100H99.7328C99.8219 99.9109 99.9109 99.8219 100 99.7324C100 92.9953 100 86.984 100 81.5539L70.6203 52.1738H100Z" fill="white"/>
<path d="M50.5918 13.0435C34.9515 21.9493 21.9488 34.9517 13.0433 50.5919V100H39.1304V39.1313V39.1306H100C100 30.9028 100 23.0646 100 13.0435H50.5918Z" fill="#D80027"/>
<path d="M100 87.7028L64.4707 52.1743H52.1738V52.1751L99.9992 100H100C100 100 100 91.5208 100 87.7028Z" fill="#D80027"/>
<path d="M113.043 52.1738V99.9996C113.043 123.296 143.478 130.435 143.478 130.435C143.478 130.435 173.913 123.296 173.913 99.9996V52.1738H113.043Z" fill="#FFDA44"/>
<path d="M139.13 69.5653C139.13 74.3681 135.238 86.9567 130.435 86.9567C125.632 86.9567 121.739 74.3681 121.739 69.5653C121.739 64.7626 130.435 60.8696 130.435 60.8696C130.435 60.8696 139.13 64.7626 139.13 69.5653Z" fill="#FF9811"/>
<path d="M162.205 79.036C163.608 75.6122 164.7 70.6075 164.7 68.1161C164.7 64.1138 159.482 60.8696 159.482 60.8696C159.482 60.8696 154.264 64.1142 154.264 68.1161C154.264 70.6075 155.356 75.6122 156.759 79.036L153.747 85.8368C155.517 86.5563 157.452 86.9563 159.482 86.9563C161.511 86.9563 163.446 86.5563 165.216 85.8368L162.205 79.036Z" fill="#A2001D"/>
<path d="M136.957 100C136.957 100 132.609 108.696 132.609 117.391H154.348C154.348 108.696 150 100 150 100L143.478 95.6523L136.957 100Z" fill="#6DA544"/>
<path d="M150 99.9999V97.8261C150 94.2245 147.08 91.3042 143.478 91.3042C139.877 91.3042 136.956 94.2241 136.956 97.8261V99.9999H150Z" fill="#D80027"/>
</g>
<path d="M0.5 100C0.5 45.0477 45.0477 0.5 100 0.5C154.952 0.5 199.5 45.0477 199.5 100C199.5 154.952 154.952 199.5 100 199.5C45.0477 199.5 0.5 154.952 0.5 100Z" stroke="#EAEBEE"/>
<defs>
<clipPath id="clip0_67_9344">
<path d="M0 100C0 44.7715 44.7715 0 100 0C155.228 0 200 44.7715 200 100C200 155.228 155.228 200 100 200C44.7715 200 0 155.228 0 100Z" fill="white"/>
</clipPath>
</defs>
</svg>
