<svg width="200" height="200" viewBox="0 0 200 200" fill="none" xmlns="http://www.w3.org/2000/svg">
<g clip-path="url(#clip0_67_9311)">
<path d="M100 200C155.228 200 200 155.228 200 100C200 44.7715 155.228 0 100 0C44.7715 0 0 44.7715 0 100C0 155.228 44.7715 200 100 200Z" fill="#D80027"/>
<path d="M95.9053 81.7134L104.11 93.02L117.398 88.7114L109.18 100.008L117.384 111.315L104.101 106.99L95.8834 118.286L95.892 104.317L82.6084 99.9923L95.8967 95.6837L95.9053 81.7134Z" fill="white"/>
<path d="M73.5133 128.261C57.9055 128.261 45.2523 115.608 45.2523 100C45.2523 84.3923 57.9055 71.7392 73.5133 71.7392C78.3797 71.7392 82.9586 72.97 86.9563 75.136C80.6848 69.0024 72.1078 65.2173 62.6437 65.2173C43.4336 65.2173 27.8613 80.7899 27.8613 99.9997C27.8613 119.209 43.434 134.782 62.6437 134.782C72.1086 134.782 80.6852 130.997 86.9563 124.863C82.9586 127.03 78.3797 128.261 73.5133 128.261Z" fill="white"/>
</g>
<path d="M0.5 100C0.5 45.0477 45.0477 0.5 100 0.5C154.952 0.5 199.5 45.0477 199.5 100C199.5 154.952 154.952 199.5 100 199.5C45.0477 199.5 0.5 154.952 0.5 100Z" stroke="#EAEBEE"/>
<defs>
<clipPath id="clip0_67_9311">
<path d="M0 100C0 44.7715 44.7715 0 100 0C155.228 0 200 44.7715 200 100C200 155.228 155.228 200 100 200C44.7715 200 0 155.228 0 100Z" fill="white"/>
</clipPath>
</defs>
</svg>
