<svg width="200" height="200" viewBox="0 0 200 200" fill="none" xmlns="http://www.w3.org/2000/svg">
<g clip-path="url(#clip0_67_9358)">
<path d="M200 100C200 155.228 155.228 200 100 200C44.7719 200 0 155.228 0 100C0 100.024 100 0.0109375 100 0C155.228 0 200 44.7719 200 100Z" fill="#338AF3"/>
<path d="M47.8262 100H81.5535L52.1738 65.2178L47.8262 78.2611V100Z" fill="#0052B4"/>
<path d="M100 81.5539L65.2176 47.8262H100L100 81.5539Z" fill="#0052B4"/>
<path d="M99.7324 100H100C100 99.9102 100 99.8227 100 99.7324C99.9109 99.8219 99.8219 99.9109 99.7324 100Z" fill="white"/>
<path d="M100 52.1738C100 34.5781 100 23.0484 100 0H99.9836C44.7625 0.009375 0 44.777 0 100H52.1742V70.6207L81.5535 100H99.7332C99.8223 99.9109 99.9113 99.8219 100.001 99.7324C100.001 92.9953 100.001 86.984 100.001 81.5539L70.6203 52.1738H100Z" fill="white"/>
<path d="M50.5918 13.0435C34.9515 21.9493 21.9492 34.9517 13.0433 50.5919V100H39.1304V39.1313V39.1306H100C100 30.9028 100 23.0646 100 13.0435H50.5918Z" fill="#D80027"/>
<path d="M100 87.7028L64.4711 52.1743H52.1742V52.1751L99.9996 100H100C100 100 100 91.5208 100 87.7028Z" fill="#D80027"/>
<path d="M109.143 165.218L111.302 171.861H118.286L112.636 175.966L114.795 182.609L109.143 178.504L103.493 182.609L105.651 175.966L100 171.861H106.984L109.143 165.218Z" fill="#FFDA44"/>
<path d="M164.77 121.739L166.928 128.382H173.913L168.263 132.488L170.422 139.131L164.77 135.026L159.12 139.131L161.278 132.488L155.627 128.382H162.611L164.77 121.739Z" fill="#FFDA44"/>
<path d="M178.708 56.522L180.867 63.1649H187.852L182.201 67.2704L184.359 73.913L178.708 69.8079L173.058 73.913L175.216 67.2704L169.565 63.1649H176.55L178.708 56.522Z" fill="#FFDA44"/>
<path d="M182.161 104.348L184.32 110.991H191.304L185.654 115.096L187.812 121.739L182.161 117.634L176.511 121.739L178.67 115.096L173.018 110.991H180.003L182.161 104.348Z" fill="#FFDA44"/>
<path d="M119.159 149.593L125.383 152.765L130.322 147.826L129.23 154.724L135.453 157.895L128.553 158.988L127.461 165.887L124.291 159.663L117.391 160.757L122.33 155.818L119.159 149.593Z" fill="#FFDA44"/>
<path d="M119.159 123.507L125.383 126.678L130.322 121.739L129.23 128.638L135.453 131.808L128.553 132.901L127.461 139.8L124.291 133.577L117.391 134.67L122.33 129.731L119.159 123.507Z" fill="#FFDA44"/>
<path d="M140.898 140.228L147.122 143.4L152.061 138.461L150.969 145.359L157.192 148.53L150.293 149.623L149.2 156.522L146.03 150.298L139.13 151.391L144.069 146.453L140.898 140.228Z" fill="#FFDA44"/>
<path d="M140.898 84.3765L147.122 87.5476L152.061 82.6089L150.969 89.5073L157.192 92.678L150.293 93.771L149.2 100.67L146.03 94.4464L139.13 95.5394L144.069 90.6007L140.898 84.3765Z" fill="#FFDA44"/>
<path d="M161.967 83.7065L168.191 86.8776L173.13 81.939L172.037 88.8374L178.261 92.0081L171.362 93.1011L170.269 99.9999L167.099 93.7765L160.2 94.8694L165.138 89.9308L161.967 83.7065Z" fill="#FFDA44"/>
</g>
<path d="M0.5 100C0.5 45.0477 45.0477 0.5 100 0.5C154.952 0.5 199.5 45.0477 199.5 100C199.5 154.952 154.952 199.5 100 199.5C45.0477 199.5 0.5 154.952 0.5 100Z" stroke="#EAEBEE"/>
<defs>
<clipPath id="clip0_67_9358">
<path d="M0 100C0 44.7715 44.7715 0 100 0C155.228 0 200 44.7715 200 100C200 155.228 155.228 200 100 200C44.7715 200 0 155.228 0 100Z" fill="white"/>
</clipPath>
</defs>
</svg>
