<svg width="200" height="200" viewBox="0 0 200 200" fill="none" xmlns="http://www.w3.org/2000/svg">
<g clip-path="url(#clip0_67_9380)">
<path d="M174.529 166.666C190.366 148.974 200 125.614 200 99.9998C200 74.3857 190.365 51.0252 174.528 33.333L100 26.0869L25.4719 33.333C9.63477 51.0252 0 74.3857 0 99.9998C0 125.614 9.63438 148.974 25.4715 166.666L100 173.913L174.529 166.666Z" fill="#FFDA44"/>
<path d="M25.4719 33.3332H174.529C156.218 12.8773 129.615 0 100 0C70.3856 0 43.7821 12.8773 25.4719 33.3332Z" fill="black"/>
<path d="M0 100L100 108.696L200 100C200 88.311 197.988 77.0931 194.302 66.6665H5.69844C2.01211 77.0931 0 88.311 0 100H0Z" fill="#D80027"/>
<path d="M5.69844 133.333H194.302C197.988 122.907 200 111.689 200 100H0C0 111.689 2.01211 122.907 5.69844 133.333Z" fill="black"/>
<path d="M174.528 166.667H25.4714C43.7816 187.123 70.3851 200 100 200C129.615 200 156.218 187.123 174.528 166.667Z" fill="#D80027"/>
<path d="M133.37 99.9999C133.37 118.431 118.431 133.369 100 133.369C81.5692 133.369 66.6305 118.431 66.6305 99.9999C66.6305 81.569 81.5692 66.6304 100 66.6304C118.431 66.6304 133.37 81.569 133.37 99.9999Z" fill="white"/>
<path d="M112.225 101.702L100 96.4043C100 96.4043 102.86 86.9109 103.012 86.2613C103.124 85.7867 103.183 85.2918 103.183 84.7832C103.183 82.982 102.453 81.3516 101.273 80.1719L104.347 77.0977C102.38 75.1309 99.6624 73.9141 96.6609 73.9141C93.6593 73.9141 90.9417 75.1305 88.975 77.0977L92.0492 80.1719C90.8687 81.352 90.139 82.9824 90.139 84.7832C90.139 85.4418 90.2386 86.0766 90.4203 86.6762L85.7917 91.3043H94.2042C94.2042 91.3043 90.7261 96.5285 88.8273 100.819C86.9285 105.109 88.8535 110.346 93.2418 112.296L95.7793 113.424L100 117.391V121.739L95.6523 126.087H104.348V117.391L108.316 113.423H116.522C116.561 113.342 116.603 113.262 116.64 113.179C118.59 108.791 116.613 103.652 112.225 101.702Z" fill="black"/>
</g>
<path d="M0.5 100C0.5 45.0477 45.0477 0.5 100 0.5C154.952 0.5 199.5 45.0477 199.5 100C199.5 154.952 154.952 199.5 100 199.5C45.0477 199.5 0.5 154.952 0.5 100Z" stroke="#EAEBEE"/>
<defs>
<clipPath id="clip0_67_9380">
<path d="M0 100C0 44.7715 44.7715 0 100 0C155.228 0 200 44.7715 200 100C200 155.228 155.228 200 100 200C44.7715 200 0 155.228 0 100Z" fill="white"/>
</clipPath>
</defs>
</svg>
