<svg width="200" height="200" viewBox="0 0 200 200" fill="none" xmlns="http://www.w3.org/2000/svg">
<g clip-path="url(#clip0_67_9413)">
<path d="M100 200C155.228 200 200 155.228 200 100C200 44.7715 155.228 0 100 0C44.7715 0 0 44.7715 0 100C0 155.228 44.7715 200 100 200Z" fill="#338AF3"/>
<path d="M99.7109 65.2178C80.5003 65.2178 64.9285 80.7904 64.9285 100C64.9285 119.21 80.5007 134.783 99.7109 134.783C118.92 134.783 134.493 119.21 134.493 100C134.493 80.7904 118.92 65.2178 99.7109 65.2178ZM91.0152 100C91.0152 95.1979 94.9082 91.3045 99.7109 91.3045C104.513 91.3045 108.407 95.1979 108.407 100C108.407 104.803 104.513 108.696 99.7109 108.696C94.9082 108.696 91.0152 104.803 91.0152 100ZM108.727 85.1256C107.377 84.3057 105.906 83.6689 104.348 83.2389V74.3326C108.27 75.0365 111.887 76.6143 114.991 78.8619L108.727 85.1256ZM95.6527 83.09C94.021 83.4803 92.4796 84.1002 91.0632 84.9139L84.7703 78.6209C87.9515 76.3936 91.65 74.8549 95.6527 74.2287V83.09ZM91.0628 115.087C92.4792 115.9 94.0207 116.52 95.6523 116.91V125.771C91.6492 125.146 87.9515 123.606 84.7703 121.379L91.0628 115.087ZM104.348 116.762C105.906 116.331 107.378 115.695 108.727 114.875L114.99 121.139C111.886 123.386 108.27 124.964 104.348 125.668V116.762H104.348V116.762ZM114.797 108.649C115.563 107.315 116.162 105.873 116.554 104.348H125.43C124.777 108.24 123.264 111.837 121.09 114.941L114.797 108.649ZM116.554 95.6525C116.162 94.1271 115.563 92.6861 114.797 91.3525L121.09 85.0596C123.263 88.1639 124.777 91.7607 125.43 95.6521H116.554V95.6525H116.554ZM78.5722 84.7209L84.8359 90.9846C83.9652 92.4182 83.296 93.9869 82.8671 95.6525H73.9914C74.6683 91.6189 76.2695 87.901 78.5722 84.7209ZM73.9914 104.348H82.8671C83.2957 106.013 83.9648 107.582 84.8359 109.016L78.5722 115.279C76.2695 112.099 74.6683 108.382 73.9914 104.348Z" fill="white"/>
<path d="M156.232 100C156.232 84.5391 150.022 70.5309 139.964 60.3262L130.741 69.5492C138.439 77.393 143.189 88.1414 143.189 100C143.189 124.013 123.723 143.478 99.7109 143.478C75.698 143.478 56.2328 124.013 56.2328 100C56.2328 87.9934 61.0988 77.1238 68.9672 69.2563L59.7441 60.0332C49.5156 70.2617 43.1895 84.3922 43.1895 100C43.1895 125.865 60.5633 147.673 84.2777 154.389C81.6777 159.328 82.0738 165.546 85.7879 170.181C90.666 166.271 95.7164 162.224 100.001 158.791C104.285 162.224 109.336 166.271 114.214 170.181C117.964 165.5 118.334 159.203 115.647 154.24C139.102 147.359 156.232 125.682 156.232 100Z" fill="white"/>
</g>
<path d="M0.5 100C0.5 45.0477 45.0477 0.5 100 0.5C154.952 0.5 199.5 45.0477 199.5 100C199.5 154.952 154.952 199.5 100 199.5C45.0477 199.5 0.5 154.952 0.5 100Z" stroke="#EAEBEE"/>
<defs>
<clipPath id="clip0_67_9413">
<path d="M0 100C0 44.7715 44.7715 0 100 0C155.228 0 200 44.7715 200 100C200 155.228 155.228 200 100 200C44.7715 200 0 155.228 0 100Z" fill="white"/>
</clipPath>
</defs>
</svg>
