<svg width="200" height="200" viewBox="0 0 200 200" fill="none" xmlns="http://www.w3.org/2000/svg">
<g clip-path="url(#clip0_67_9396)">
<path d="M100 200C155.228 200 200 155.228 200 100C200 44.7715 155.228 0 100 0C44.7715 0 0 44.7715 0 100C0 155.228 44.7715 200 100 200Z" fill="white"/>
<path d="M20.6718 39.1177C12.8167 49.3376 6.89365 61.1169 3.44482 73.9134H55.4675L20.6718 39.1177Z" fill="#0052B4"/>
<path d="M196.555 73.9135C193.106 61.1174 187.183 49.3381 179.328 39.1182L144.533 73.9135H196.555Z" fill="#0052B4"/>
<path d="M3.44482 126.087C6.89404 138.883 12.8171 150.663 20.6718 160.882L55.4663 126.087H3.44482Z" fill="#0052B4"/>
<path d="M160.882 20.6722C150.662 12.8171 138.883 6.89404 126.087 3.44482V55.4671L160.882 20.6722Z" fill="#0052B4"/>
<path d="M39.1179 179.328C49.3378 187.183 61.1171 193.106 73.9132 196.555V144.533L39.1179 179.328Z" fill="#0052B4"/>
<path d="M73.9128 3.44482C61.1167 6.89404 49.3375 12.8171 39.1179 20.6718L73.9128 55.4667V3.44482Z" fill="#0052B4"/>
<path d="M126.087 196.555C138.883 193.106 150.662 187.183 160.882 179.328L126.087 144.533V196.555Z" fill="#0052B4"/>
<path d="M144.533 126.087L179.328 160.883C187.183 150.663 193.106 138.883 196.555 126.087H144.533Z" fill="#0052B4"/>
<path d="M199.154 86.9566H113.044H113.044V0.846484C108.774 0.290625 104.421 0 100 0C95.5785 0 91.2262 0.290625 86.9566 0.846484V86.9559V86.9563H0.846484C0.290625 91.2262 0 95.5793 0 100C0 104.421 0.290625 108.774 0.846484 113.043H86.9559H86.9563V199.154C91.2262 199.709 95.5785 200 100 200C104.421 200 108.774 199.71 113.043 199.154V113.044V113.044H199.154C199.709 108.774 200 104.421 200 100C200 95.5793 199.709 91.2262 199.154 86.9566Z" fill="#D80027"/>
<path d="M126.087 126.087L170.711 170.711C172.763 168.659 174.721 166.514 176.589 164.291L138.385 126.087H126.087V126.087Z" fill="#D80027"/>
<path d="M73.9129 126.087H73.9121L29.2891 170.71C31.3406 172.763 33.4855 174.721 35.709 176.589L73.9129 138.384V126.087Z" fill="#D80027"/>
<path d="M73.9129 73.9137V73.9129L29.2895 29.2891C27.2372 31.3406 25.2793 33.4855 23.4114 35.709L61.6157 73.9133H73.9129V73.9137Z" fill="#D80027"/>
<path d="M126.087 73.9136L170.711 29.2894C168.659 27.237 166.515 25.2792 164.291 23.4116L126.087 61.6159V73.9136Z" fill="#D80027"/>
</g>
<path d="M0.5 100C0.5 45.0477 45.0477 0.5 100 0.5C154.952 0.5 199.5 45.0477 199.5 100C199.5 154.952 154.952 199.5 100 199.5C45.0477 199.5 0.5 154.952 0.5 100Z" stroke="#EAEBEE"/>
<defs>
<clipPath id="clip0_67_9396">
<path d="M0 100C0 44.7715 44.7715 0 100 0C155.228 0 200 44.7715 200 100C200 155.228 155.228 200 100 200C44.7715 200 0 155.228 0 100Z" fill="white"/>
</clipPath>
</defs>
</svg>
