<svg width="200" height="200" viewBox="0 0 200 200" fill="none" xmlns="http://www.w3.org/2000/svg">
<g clip-path="url(#clip0_67_9391)">
<path d="M100 200C155.228 200 200 155.228 200 100C200 44.7715 155.228 0 100 0C44.7715 0 0 44.7715 0 100C0 155.228 44.7715 200 100 200Z" fill="white"/>
<path d="M56.522 134.782L65.2177 193.781C76.0505 197.801 87.7681 200 100 200C142.996 200 179.651 172.862 193.78 134.782H56.522Z" fill="black"/>
<path d="M56.522 65.2176L65.2177 6.21914C76.0505 2.19922 87.7681 0 100 0C142.996 0 179.651 27.1375 193.78 65.2176H56.522Z" fill="#6DA544"/>
<path d="M0 99.9998C0 142.996 27.1379 179.651 65.2176 193.78V6.21973C27.1379 20.349 0 57.0033 0 99.9998Z" fill="#A2001D"/>
</g>
<path d="M0.5 100C0.5 45.0477 45.0477 0.5 100 0.5C154.952 0.5 199.5 45.0477 199.5 100C199.5 154.952 154.952 199.5 100 199.5C45.0477 199.5 0.5 154.952 0.5 100Z" stroke="#EAEBEE"/>
<defs>
<clipPath id="clip0_67_9391">
<path d="M0 100C0 44.7715 44.7715 0 100 0C155.228 0 200 44.7715 200 100C200 155.228 155.228 200 100 200C44.7715 200 0 155.228 0 100Z" fill="white"/>
</clipPath>
</defs>
</svg>
