<svg width="200" height="200" viewBox="0 0 200 200" fill="none" xmlns="http://www.w3.org/2000/svg">
<g clip-path="url(#clip0_67_9426)">
<path d="M100 200C155.228 200 200 155.228 200 100C200 44.7715 155.228 0 100 0C44.7715 0 0 44.7715 0 100C0 155.228 44.7715 200 100 200Z" fill="white"/>
<path d="M100 73.9128H196.555C194.048 64.6104 190.237 55.8444 185.323 47.8257H100V73.9128Z" fill="#338AF3"/>
<path d="M37.7511 178.261H162.248C171.375 170.992 179.201 162.163 185.322 152.174H14.6772C20.7987 162.163 28.6253 170.992 37.7511 178.261Z" fill="#338AF3"/>
<path d="M100 0V21.7391H162.249C145.167 8.13438 123.535 0 100 0Z" fill="#338AF3"/>
<path d="M100 73.9128H196.555C194.048 64.6104 190.237 55.8444 185.323 47.8257H100V73.9128Z" fill="#338AF3"/>
<path d="M0 100C0 109.026 1.20313 117.769 3.44492 126.087H196.555C198.797 117.769 200 109.026 200 100H0Z" fill="#338AF3"/>
<path d="M86.9565 58.5238L74.7433 64.2687L81.2468 76.0969L67.9851 73.5602L66.3046 86.9566L57.0679 77.1035L47.8304 86.9566L46.1503 73.5602L32.8886 76.0961L39.3917 64.2684L27.1792 58.5238L39.3921 52.7797L32.8886 40.9516L46.1499 43.4883L47.8308 30.0918L57.0679 39.9449L66.305 30.0918L67.9851 43.4883L81.2472 40.9516L74.7436 52.7801L86.9565 58.5238Z" fill="#FFDA44"/>
</g>
<path d="M0.5 100C0.5 45.0477 45.0477 0.5 100 0.5C154.952 0.5 199.5 45.0477 199.5 100C199.5 154.952 154.952 199.5 100 199.5C45.0477 199.5 0.5 154.952 0.5 100Z" stroke="#EAEBEE"/>
<defs>
<clipPath id="clip0_67_9426">
<path d="M0 100C0 44.7715 44.7715 0 100 0C155.228 0 200 44.7715 200 100C200 155.228 155.228 200 100 200C44.7715 200 0 155.228 0 100Z" fill="white"/>
</clipPath>
</defs>
</svg>
