<svg width="200" height="200" viewBox="0 0 200 200" fill="none" xmlns="http://www.w3.org/2000/svg">
<g clip-path="url(#clip0_67_9418)">
<path d="M100 200C155.228 200 200 155.228 200 100C200 44.7715 155.228 0 100 0C44.7715 0 0 44.7715 0 100C0 155.228 44.7715 200 100 200Z" fill="white"/>
<path d="M95.6523 100H200C200 90.9744 198.797 82.2307 196.555 73.9131H95.6523V100Z" fill="#D80027"/>
<path d="M95.6523 47.8264H185.323C179.201 37.8373 171.374 29.008 162.248 21.7393H95.6523V47.8264Z" fill="#D80027"/>
<path d="M99.9999 200C123.535 200 145.166 191.866 162.248 178.261H37.7515C54.8335 191.866 76.4651 200 99.9999 200Z" fill="#D80027"/>
<path d="M14.6772 152.174H185.323C190.237 144.155 194.048 135.389 196.555 126.087H3.44482C5.95146 135.389 9.76279 144.155 14.6772 152.174Z" fill="#D80027"/>
<path d="M46.3219 15.6164H55.4348L46.9582 21.7746L50.1961 31.7391L41.7199 25.5809L33.2437 31.7391L36.0406 23.1309C28.5773 29.3477 22.0359 36.6313 16.6453 44.7469H19.5652L14.1695 48.6668C13.3289 50.0691 12.5227 51.4937 11.75 52.9394L14.3266 60.8695L9.51953 57.3769C8.32461 59.9086 7.23164 62.4973 6.24922 65.1398L9.08789 73.8773H19.5652L11.0887 80.0356L14.3266 90L5.85039 83.8418L0.773047 87.5309C0.264844 91.616 0 95.777 0 100H100C100 44.7719 100 38.2609 100 0C80.2453 0 61.8301 5.73047 46.3219 15.6164ZM50.1961 90L41.7199 83.8418L33.2437 90L36.4816 80.0356L28.0051 73.8773H38.4824L41.7199 63.9129L44.9574 73.8773H55.4348L46.9582 80.0356L50.1961 90ZM46.9582 50.9051L50.1961 60.8695L41.7199 54.7113L33.2437 60.8695L36.4816 50.9051L28.0051 44.7469H38.4824L41.7199 34.7824L44.9574 44.7469H55.4348L46.9582 50.9051ZM86.0656 90L77.5895 83.8418L69.1133 90L72.3512 80.0356L63.8746 73.8773H74.352L77.5895 63.9129L80.827 73.8773H91.3043L82.8277 80.0356L86.0656 90ZM82.8277 50.9051L86.0656 60.8695L77.5895 54.7113L69.1133 60.8695L72.3512 50.9051L63.8746 44.7469H74.352L77.5895 34.7824L80.827 44.7469H91.3043L82.8277 50.9051ZM82.8277 21.7746L86.0656 31.7391L77.5895 25.5809L69.1133 31.7391L72.3512 21.7746L63.8746 15.6164H74.352L77.5895 5.65195L80.827 15.6164H91.3043L82.8277 21.7746Z" fill="#0052B4"/>
</g>
<path d="M0.5 100C0.5 45.0477 45.0477 0.5 100 0.5C154.952 0.5 199.5 45.0477 199.5 100C199.5 154.952 154.952 199.5 100 199.5C45.0477 199.5 0.5 154.952 0.5 100Z" stroke="#EAEBEE"/>
<defs>
<clipPath id="clip0_67_9418">
<path d="M0 100C0 44.7715 44.7715 0 100 0C155.228 0 200 44.7715 200 100C200 155.228 155.228 200 100 200C44.7715 200 0 155.228 0 100Z" fill="white"/>
</clipPath>
</defs>
</svg>
