<svg width="200" height="200" viewBox="0 0 200 200" fill="none" xmlns="http://www.w3.org/2000/svg">
<g clip-path="url(#clip0_67_9436)">
<path d="M4.72188 69.5658C1.65859 79.1627 -0.000390556 89.3865 6.89667e-08 99.9994C-0.000390556 110.613 1.65898 120.837 4.72227 130.434L100 134.783L195.278 130.435C198.341 120.838 200 110.613 200 100C200 89.3869 198.341 79.1627 195.278 69.5654L100 65.2178L4.72188 69.5658Z" fill="white"/>
<path d="M195.277 69.5654L99.9996 65.2178L4.72148 69.5654C3.81367 72.4107 3.03203 75.3119 2.37695 78.2611H197.621C196.966 75.3115 196.185 72.41 195.277 69.5654Z" fill="#D80027"/>
<path d="M2.37793 121.738C3.03223 124.688 3.81387 127.588 4.72168 130.434L4.73106 130.434L99.999 134.782L195.277 130.434C196.185 127.589 196.966 124.688 197.621 121.738H2.37793Z" fill="#D80027"/>
<path d="M99.9995 200C144.615 200 182.4 170.78 195.277 130.435H4.72217C17.5991 170.779 55.3851 200 99.9995 200Z" fill="#6DA544"/>
<path d="M99.9994 3.91644e-09C55.3846 0.000390629 17.5994 29.2203 4.72168 69.5652L195.277 69.5656C182.401 29.2199 144.615 -0.000390621 99.9994 3.91644e-09Z" fill="#338AF3"/>
<path d="M45.6977 41.3051C45.6977 31.9391 52.2801 24.1148 61.0703 22.1953C59.7195 21.9 58.3176 21.7402 56.8777 21.7402C46.0723 21.7402 37.3125 30.4996 37.3125 41.3055C37.3125 52.1113 46.0715 60.8707 56.8777 60.8707C58.3176 60.8707 59.7191 60.7105 61.0703 60.4156C52.2805 58.4953 45.6977 50.6711 45.6977 41.3051Z" fill="white"/>
<path d="M72.6344 50.1982L73.9586 54.2744H78.2445L74.7773 56.7939L76.1016 60.8701L72.6344 58.351L69.1664 60.8701L70.491 56.7939L67.0234 54.2744H71.3094L72.6344 50.1982Z" fill="white"/>
<path d="M86.3143 50.1982L87.6389 54.2744H91.9248L88.4572 56.7939L89.7818 60.8701L86.3143 58.351L82.8467 60.8701L84.1713 56.7939L80.7041 54.2744H84.9896L86.3143 50.1982Z" fill="white"/>
<path d="M99.9942 50.1982L101.318 54.2744H105.605L102.137 56.7939L103.461 60.8701L99.9942 58.351L96.5263 60.8701L97.8513 56.7939L94.3833 54.2744H98.6696L99.9942 50.1982Z" fill="white"/>
<path d="M113.674 50.1982L114.999 54.2744H119.285L115.817 56.7939L117.142 60.8701L113.674 58.351L110.206 60.8701L111.531 56.7939L108.063 54.2744H112.349L113.674 50.1982Z" fill="white"/>
<path d="M127.354 50.1982L128.678 54.2744H132.964L129.497 56.7939L130.822 60.8701L127.354 58.351L123.886 60.8701L125.211 56.7939L121.744 54.2744H126.029L127.354 50.1982Z" fill="white"/>
<path d="M86.3143 35.9688L87.6389 40.0445H91.9248L88.4572 42.5645L89.7818 46.6402L86.3143 44.1211L82.8467 46.6402L84.1713 42.5645L80.7041 40.0445H84.9896L86.3143 35.9688Z" fill="white"/>
<path d="M99.9942 35.9688L101.318 40.0445H105.605L102.137 42.5645L103.461 46.6402L99.9942 44.1211L96.5263 46.6402L97.8513 42.5645L94.3833 40.0445H98.6696L99.9942 35.9688Z" fill="white"/>
<path d="M113.674 35.9688L114.999 40.0445H119.285L115.817 42.5645L117.142 46.6402L113.674 44.1211L110.206 46.6402L111.531 42.5645L108.063 40.0445H112.349L113.674 35.9688Z" fill="white"/>
<path d="M127.354 35.9688L128.678 40.0445H132.964L129.497 42.5645L130.822 46.6402L127.354 44.1211L123.886 46.6402L125.211 42.5645L121.744 40.0445H126.029L127.354 35.9688Z" fill="white"/>
<path d="M99.9942 21.7393L101.318 25.8158H105.605L102.137 28.335L103.461 32.4115L99.9942 29.8924L96.5263 32.4115L97.8513 28.335L94.3833 25.8158H98.6696L99.9942 21.7393Z" fill="white"/>
<path d="M113.674 21.7393L114.999 25.8158H119.285L115.817 28.335L117.142 32.4115L113.674 29.8924L110.206 32.4115L111.531 28.335L108.063 25.8158H112.349L113.674 21.7393Z" fill="white"/>
<path d="M127.354 21.7393L128.678 25.8158H132.964L129.497 28.335L130.822 32.4115L127.354 29.8924L123.886 32.4115L125.211 28.335L121.744 25.8158H126.029L127.354 21.7393Z" fill="white"/>
</g>
<path d="M0.5 100C0.5 45.0477 45.0477 0.5 100 0.5C154.952 0.5 199.5 45.0477 199.5 100C199.5 154.952 154.952 199.5 100 199.5C45.0477 199.5 0.5 154.952 0.5 100Z" stroke="#EAEBEE"/>
<defs>
<clipPath id="clip0_67_9436">
<path d="M0 100C0 44.7715 44.7715 0 100 0C155.228 0 200 44.7715 200 100C200 155.228 155.228 200 100 200C44.7715 200 0 155.228 0 100Z" fill="white"/>
</clipPath>
</defs>
</svg>
