<svg width="200" height="200" viewBox="0 0 200 200" fill="none" xmlns="http://www.w3.org/2000/svg">
<g clip-path="url(#clip0_67_9457)">
<path d="M200 100C200 95.5797 199.71 91.2265 199.153 86.957H86.9555C66.5255 66.5282 29.2876 29.2927 29.2892 29.2896C-9.76307 68.3418 -9.76307 131.658 29.2892 170.711L86.9567 113.044H199.153C199.709 108.774 200 104.421 200 100Z" fill="black"/>
<path d="M199.971 102.274C199.967 102.467 199.962 102.661 199.957 102.854C199.962 102.66 199.966 102.467 199.971 102.274Z" fill="white"/>
<path d="M199.875 105.007C199.866 105.198 199.853 105.389 199.843 105.579C199.853 105.389 199.865 105.198 199.875 105.007Z" fill="white"/>
<path d="M199.74 107.187C199.72 107.468 199.701 107.749 199.678 108.029C199.701 107.749 199.72 107.468 199.74 107.187Z" fill="white"/>
<path d="M199.406 89.1011C199.443 89.4354 199.48 89.7694 199.513 90.1046C199.48 89.769 199.443 89.4354 199.406 89.1011Z" fill="white"/>
<path d="M199.842 94.4209C199.853 94.6115 199.866 94.8018 199.875 94.9928C199.865 94.8018 199.853 94.6111 199.842 94.4209Z" fill="white"/>
<path d="M199.957 97.147C199.962 97.3399 199.966 97.5337 199.971 97.7267C199.966 97.5329 199.962 97.3399 199.957 97.147Z" fill="white"/>
<path d="M199.678 91.9712C199.701 92.2513 199.72 92.5321 199.74 92.813C199.72 92.5321 199.701 92.2513 199.678 91.9712Z" fill="white"/>
<path d="M199.153 86.9561C199.198 87.2987 199.238 87.6432 199.279 87.9865C193.344 38.4234 151.162 0 99.9997 0C72.3849 0 47.3845 11.1933 29.2881 29.2906L86.9536 86.9565H199.153V86.9561Z" fill="#D80027"/>
<path d="M199.153 113.044H86.9536L29.2881 170.71C47.3845 188.806 72.3849 200 99.9997 200C151.162 200 193.344 161.577 199.279 112.013C199.238 112.357 199.197 112.701 199.153 113.044Z" fill="#6DA544"/>
<path d="M199.512 109.896C199.479 110.231 199.442 110.565 199.406 110.899C199.442 110.565 199.48 110.231 199.512 109.896Z" fill="white"/>
<path d="M199.74 92.813C199.778 93.3478 199.813 93.8837 199.842 94.4208C199.812 93.8837 199.778 93.3478 199.74 92.813Z" fill="black"/>
<path d="M199.279 87.9868C199.324 88.3575 199.366 88.729 199.406 89.1009C199.366 88.729 199.323 88.3579 199.279 87.9868Z" fill="black"/>
<path d="M199.513 90.1045C199.574 90.7252 199.629 91.3475 199.678 91.9721C199.629 91.3475 199.574 90.7248 199.513 90.1045Z" fill="black"/>
<path d="M200 100C200 100.761 199.988 101.518 199.971 102.274C199.988 101.518 200 100.76 200 100Z" fill="black"/>
<path d="M199.842 105.579C199.813 106.116 199.778 106.652 199.741 107.187C199.778 106.652 199.812 106.116 199.842 105.579Z" fill="black"/>
<path d="M199.678 108.029C199.629 108.653 199.574 109.275 199.513 109.896C199.574 109.275 199.629 108.653 199.678 108.029Z" fill="black"/>
<path d="M199.406 110.899C199.366 111.271 199.324 111.642 199.279 112.013C199.323 111.642 199.366 111.271 199.406 110.899Z" fill="black"/>
<path d="M199.971 97.7261C199.988 98.4823 200 99.2401 200 99.9999C200 99.2401 199.988 98.4823 199.971 97.7261Z" fill="black"/>
<path d="M199.875 94.9927C199.91 95.7083 199.937 96.4267 199.957 97.1462C199.937 96.4263 199.911 95.7083 199.875 94.9927Z" fill="black"/>
<path d="M199.957 102.854C199.936 103.574 199.91 104.292 199.875 105.008C199.91 104.292 199.937 103.574 199.957 102.854Z" fill="black"/>
<path d="M199.904 95.6162H83.2813L23.3764 35.7202C21.44 37.7624 19.3412 40.614 18.0432 42.6448L75.3317 99.9635L17.9951 157.301C19.1303 159.321 21.6033 162.31 23.3396 164.255L83.2825 104.312H199.918C199.98 102.87 200 101.421 200 99.9642C199.999 98.0119 199.946 96.5724 199.904 95.6162Z" fill="#FFDA44"/>
<path d="M24.2916 121.317V112.941C32.6502 112.941 39.4498 106.141 39.4498 97.7828C39.4498 91.8691 34.6384 87.0582 28.7252 87.0582C24.6967 87.0582 21.4189 90.3355 21.4189 94.3648C21.4189 96.941 23.5146 99.0371 26.0912 99.0371C27.5474 99.0371 28.7322 97.8515 28.7322 96.3953H37.108C37.108 102.471 32.1658 107.413 26.0916 107.413C18.8967 107.413 13.0439 101.559 13.0439 94.3656C13.0439 85.7183 20.0791 78.6836 28.7256 78.6836C39.2576 78.6836 47.8263 87.2523 47.8263 97.7839C47.8259 110.759 37.2685 121.317 24.2916 121.317Z" fill="#FFDA44"/>
</g>
<path d="M0.5 100C0.5 45.0477 45.0477 0.5 100 0.5C154.952 0.5 199.5 45.0477 199.5 100C199.5 154.952 154.952 199.5 100 199.5C45.0477 199.5 0.5 154.952 0.5 100Z" stroke="#EAEBEE"/>
<defs>
<clipPath id="clip0_67_9457">
<path d="M0 100C0 44.7715 44.7715 0 100 0C155.228 0 200 44.7715 200 100C200 155.228 155.228 200 100 200C44.7715 200 0 155.228 0 100Z" fill="white"/>
</clipPath>
</defs>
</svg>
