<svg width="200" height="200" viewBox="0 0 200 200" fill="none" xmlns="http://www.w3.org/2000/svg">
<g clip-path="url(#clip0_67_9488)">
<path d="M190.077 143.478C196.435 130.331 200 115.582 200 100C200 84.4176 196.435 69.6688 190.077 56.5219L100 47.8262L9.92266 56.5219C3.56523 69.6688 0 84.4176 0 100C0 115.582 3.56523 130.331 9.92266 143.478L100 152.174L190.077 143.478Z" fill="#0052B4"/>
<path d="M100 200C139.646 200 173.903 176.928 190.078 143.478H9.92285C26.0979 176.928 60.3541 200 100 200Z" fill="#D80027"/>
<path d="M173.19 119.63L167.908 123.757L170.201 130.054L164.643 126.307L159.361 130.434L161.208 123.99L155.651 120.242L162.35 120.008L164.199 113.565L166.492 119.863L173.19 119.63Z" fill="white"/>
<path d="M159.664 96.2042L156.113 101.889L160.422 107.023L153.918 105.403L150.365 111.086L149.897 104.4L143.394 102.778L149.609 100.266L149.142 93.5796L153.45 98.7151L159.664 96.2042Z" fill="white"/>
<path d="M138.943 78.8164L137.55 85.373L143.354 88.7246L136.688 89.4273L135.295 95.982L132.568 89.8594L125.901 90.559L130.883 86.0738L128.157 79.9512L133.962 83.302L138.943 78.8164Z" fill="white"/>
<path d="M113.524 69.5654L114.458 76.2033L121.058 77.3666L115.034 80.3064L115.967 86.9439L111.311 82.1221L105.285 85.0603L108.433 79.1412L103.776 74.3201L110.378 75.4838L113.524 69.5654Z" fill="white"/>
<path d="M86.4754 69.5654L89.6227 75.4838L96.2227 74.3193L91.5676 79.1424L94.7133 85.0611L88.6891 82.1221L84.032 86.9428L84.966 80.3064L78.9414 77.3682L85.5426 76.2033L86.4754 69.5654Z" fill="white"/>
<path d="M61.0565 78.8164L66.0386 83.302L71.8421 79.9512L69.1167 86.0762L74.0976 90.5605L67.4315 89.8594L64.7042 95.982L63.3124 89.4262L56.646 88.7262L62.4507 85.3738L61.0565 78.8164Z" fill="white"/>
<path d="M40.335 96.204L46.551 98.7149L50.858 93.5806L50.392 100.268L56.6061 102.78L50.1025 104.4L49.6342 111.086L46.0834 105.403L39.5791 107.024L43.8877 101.889L40.335 96.204Z" fill="white"/>
<path d="M26.8101 119.63L33.5101 119.864L35.8015 113.566L37.6511 120.01L44.3491 120.244L38.7921 123.992L40.639 130.435L35.3577 126.308L29.8003 130.056L32.0929 123.757L26.8101 119.63Z" fill="white"/>
<path d="M190.078 56.5219C173.903 23.0723 139.646 0 100 0C60.3541 0 26.0979 23.0723 9.92285 56.5219H190.078Z" fill="#FFDA44"/>
</g>
<path d="M0.5 100C0.5 45.0477 45.0477 0.5 100 0.5C154.952 0.5 199.5 45.0477 199.5 100C199.5 154.952 154.952 199.5 100 199.5C45.0477 199.5 0.5 154.952 0.5 100Z" stroke="#EAEBEE"/>
<defs>
<clipPath id="clip0_67_9488">
<path d="M0 100C0 44.7715 44.7715 0 100 0C155.228 0 200 44.7715 200 100C200 155.228 155.228 200 100 200C44.7715 200 0 155.228 0 100Z" fill="white"/>
</clipPath>
</defs>
</svg>
