<svg width="200" height="200" viewBox="0 0 200 200" fill="none" xmlns="http://www.w3.org/2000/svg">
<g clip-path="url(#clip0_67_9504)">
<path d="M100 200C155.228 200 200 155.228 200 100C200 44.7715 155.228 0 100 0C44.7715 0 0 44.7715 0 100C0 155.228 44.7715 200 100 200Z" fill="#FCFCFC"/>
<path d="M116.984 69.8615C116.984 60.4818 109.38 52.8779 100 52.8779C90.6199 52.8779 83.016 60.4818 83.016 69.8615H45.6523C45.6523 79.0963 53.6969 86.5834 62.9316 86.5834H62.3754C62.3754 95.819 69.8613 103.306 79.0977 103.306C79.0977 111.483 84.9703 118.278 92.7262 119.73L92.6828 119.828H107.318L107.274 119.73C115.03 118.277 120.903 111.483 120.903 103.306C130.139 103.306 137.625 95.819 137.625 86.5834H137.068C146.303 86.5834 154.348 79.0963 154.348 69.8615H116.984Z" fill="#FFDA44"/>
<path d="M92.5339 118.095L82.0034 141.87C87.5597 144.128 93.6327 145.384 100 145.384C106.368 145.384 112.441 144.129 117.997 141.87L107.467 118.095H92.5339Z" fill="#FFDA44"/>
<path d="M78.2607 78.2139V107.468C78.2607 124.108 99.9998 129.207 99.9998 129.207C99.9998 129.207 121.739 124.108 121.739 107.468V78.2139H78.2607Z" fill="white"/>
<path d="M24.2494 100.704L36.0068 133.588L47.642 100.704H56.5217L39.5584 144.182H32.4549L15.3701 100.704H24.2494Z" fill="#338AF3"/>
<path d="M160.869 144.182V100.704H169.32V144.182H160.869Z" fill="#338AF3"/>
<path d="M86.9565 87.6606V123.111C89.9452 125.311 93.1608 126.824 95.6522 127.793V87.6606H86.9565Z" fill="#D80027"/>
<path d="M113.043 87.6606V123.111C110.055 125.311 106.839 126.824 104.348 127.793V87.6606H113.043Z" fill="#D80027"/>
<path d="M78.2607 78.2129H121.739V92.0082H78.2607V78.2129Z" fill="#0052B4"/>
</g>
<path d="M0.5 100C0.5 45.0477 45.0477 0.5 100 0.5C154.952 0.5 199.5 45.0477 199.5 100C199.5 154.952 154.952 199.5 100 199.5C45.0477 199.5 0.5 154.952 0.5 100Z" stroke="#EAEBEE"/>
<defs>
<clipPath id="clip0_67_9504">
<path d="M0 100C0 44.7715 44.7715 0 100 0C155.228 0 200 44.7715 200 100C200 155.228 155.228 200 100 200C44.7715 200 0 155.228 0 100Z" fill="white"/>
</clipPath>
</defs>
</svg>
