<svg width="200" height="200" viewBox="0 0 200 200" fill="none" xmlns="http://www.w3.org/2000/svg">
<g clip-path="url(#clip0_67_9517)">
<path d="M100 200C155.228 200 200 155.228 200 100C200 44.7715 155.228 0 100 0C44.7715 0 0 44.7715 0 100C0 155.228 44.7715 200 100 200Z" fill="white"/>
<path d="M200 100C200 155.228 155.228 200 100 200C44.7719 200 0 155.228 0 100" fill="#496E2D"/>
<path d="M173.052 69.5872C169.476 59.4454 159.813 52.1743 148.448 52.1743H126.087C111.679 52.1743 99.9998 63.854 99.9998 78.2614C99.9998 82.9685 101.253 87.4923 103.434 91.3048C95.1303 91.2368 87.4455 91.3622 82.6084 91.3048C82.6084 81.2439 82.6084 68.4274 82.6084 65.7458L83.6357 64.7185C88.2475 60.1067 86.7096 52.4208 86.7096 52.4208C86.7096 52.4208 79.0244 50.8837 74.4127 55.4954L69.0381 60.87H63.0432C49.8361 60.87 39.1303 71.5763 39.1303 84.7829H56.5217V104.348C56.5217 107.21 57.0986 109.936 58.1412 112.419L52.1736 117.392H43.4779V108.696H34.7822V126.087H73.9127V143.479H65.217V152.174H82.6084V134.783L90.5791 125.218H109.42L117.391 134.783V143.479H108.695V152.174H143.478V104.348C143.478 97.1442 149.317 91.3044 156.521 91.3044C156.706 91.3044 156.89 91.311 157.073 91.3185C156.713 89.9247 156.521 88.4634 156.521 86.9567C156.522 77.6407 163.847 70.036 173.052 69.5872ZM126.087 143.478V125.217H126.812L134.782 134.783V143.478H126.087Z" fill="#D80027"/>
</g>
<path d="M0.5 100C0.5 45.0477 45.0477 0.5 100 0.5C154.952 0.5 199.5 45.0477 199.5 100C199.5 154.952 154.952 199.5 100 199.5C45.0477 199.5 0.5 154.952 0.5 100Z" stroke="#EAEBEE"/>
<defs>
<clipPath id="clip0_67_9517">
<path d="M0 100C0 44.7715 44.7715 0 100 0C155.228 0 200 44.7715 200 100C200 155.228 155.228 200 100 200C44.7715 200 0 155.228 0 100Z" fill="white"/>
</clipPath>
</defs>
</svg>
