<svg width="200" height="200" viewBox="0 0 200 200" fill="none" xmlns="http://www.w3.org/2000/svg">
<g clip-path="url(#clip0_67_9525)">
<path d="M100 200C155.228 200 200 155.228 200 100C200 44.7715 155.228 0 100 0C44.7715 0 0 44.7715 0 100C0 155.228 44.7715 200 100 200Z" fill="#496E2D"/>
<path d="M139.13 100H100V200C111.689 200 122.907 197.988 133.333 194.302L139.13 100Z" fill="#D80027"/>
<path d="M166.667 174.529C187.123 156.218 200 129.614 200 100H160.87L166.667 174.529Z" fill="#FF9811"/>
<path d="M133.333 100V194.302C145.754 189.911 157.048 183.138 166.667 174.529V100H133.333Z" fill="black"/>
<path d="M184.782 65.2177H158.695C158.695 60.4153 154.802 56.522 150 56.522C145.197 56.522 141.304 60.4153 141.304 65.2177H115.217C115.217 70.0204 119.4 73.9134 124.202 73.9134H123.913C123.913 78.7161 127.805 82.6091 132.608 82.6091C132.608 87.4118 136.501 91.3048 141.304 91.3048H158.695C163.498 91.3048 167.391 87.4118 167.391 82.6091C172.193 82.6091 176.087 78.7161 176.087 73.9134H175.797C180.6 73.913 184.782 70.02 184.782 65.2177Z" fill="#FF9811"/>
</g>
<path d="M0.5 100C0.5 45.0477 45.0477 0.5 100 0.5C154.952 0.5 199.5 45.0477 199.5 100C199.5 154.952 154.952 199.5 100 199.5C45.0477 199.5 0.5 154.952 0.5 100Z" stroke="#EAEBEE"/>
<defs>
<clipPath id="clip0_67_9525">
<path d="M0 100C0 44.7715 44.7715 0 100 0C155.228 0 200 44.7715 200 100C200 155.228 155.228 200 100 200C44.7715 200 0 155.228 0 100Z" fill="white"/>
</clipPath>
</defs>
</svg>
