<svg width="200" height="200" viewBox="0 0 200 200" fill="none" xmlns="http://www.w3.org/2000/svg">
<g clip-path="url(#clip0_67_9531)">
<path d="M100 200C155.228 200 200 155.228 200 100C200 44.7715 155.228 0 100 0C44.7715 0 0 44.7715 0 100C0 155.228 44.7715 200 100 200Z" fill="white"/>
<path d="M190.428 57.267C185.348 46.535 178.414 36.8541 170.039 28.6334L99.9999 21.7393L29.9608 28.6338C29.7374 28.8529 29.5194 29.0771 29.2983 29.2986L57.2671 57.2674L99.9999 58.5725L190.428 57.267Z" fill="#FFDA44"/>
<path d="M29.2974 170.703C29.6653 171.071 30.0325 171.439 30.406 171.802L100 178.261L169.593 171.802C178.055 163.599 185.074 153.917 190.225 143.168L60.8692 139.131C49.7392 150.261 36.9017 163.098 29.2974 170.703Z" fill="#FFDA44"/>
<path d="M199.005 85.9002L82.6084 82.6084L99.9998 99.9998C94.8486 105.151 87.1588 112.841 82.6084 117.391L198.944 114.534C199.636 109.788 200 104.937 200 99.9998C200 95.2131 199.656 90.5076 199.005 85.9002Z" fill="black"/>
<path d="M100 0C72.7234 0 48.0023 10.9258 29.9609 28.6336H170.039C151.998 10.9258 127.277 0 100 0Z" fill="#6DA544"/>
<path d="M85.9002 85.9002H199.005C197.578 75.7912 194.642 66.1686 190.428 57.2666H57.2666L85.9002 85.9002Z" fill="#D80027"/>
<path d="M56.832 143.168H190.226C194.489 134.272 197.472 124.649 198.945 114.534H85.4656C74.377 125.623 64.9793 135.021 56.832 143.168Z" fill="#D80027"/>
<path d="M100 200C127.053 200 151.592 189.253 169.593 171.801H30.4067C48.4083 189.253 72.9474 200 100 200Z" fill="#6DA544"/>
<path d="M35.709 23.4116C33.4859 25.2796 31.341 27.2378 29.2891 29.289L100 99.9999L29.2891 170.711C31.3406 172.762 33.4859 174.72 35.709 176.588L112.297 99.9999L35.709 23.4116Z" fill="black"/>
<path d="M40.2053 73.9131L46.6799 93.8412H67.635L50.6826 106.158L57.1576 126.087L40.2053 113.771L23.2525 126.087L29.7283 106.158L12.7764 93.8412H33.7303L40.2053 73.9131Z" fill="#D80027"/>
<path d="M58.015 101.63L41.1408 95.6521C41.1408 95.6521 39.8939 83.9557 39.8186 83.5592C39.2459 80.5424 36.5947 78.2607 33.4111 78.2607C29.8096 78.2607 26.8893 81.1807 26.8893 84.7826C26.8893 85.3799 26.9764 85.9553 27.1268 86.5053L22.3955 91.2682H30.808C30.808 99.9998 24.2924 99.9998 24.2924 108.695L27.9068 117.391H49.6459L53.2693 108.695H53.2678C53.6307 107.861 53.851 107.001 53.942 106.141C57.0654 104.878 58.015 101.63 58.015 101.63Z" fill="#FFDA44"/>
</g>
<path d="M0.5 100C0.5 45.0477 45.0477 0.5 100 0.5C154.952 0.5 199.5 45.0477 199.5 100C199.5 154.952 154.952 199.5 100 199.5C45.0477 199.5 0.5 154.952 0.5 100Z" stroke="#EAEBEE"/>
<defs>
<clipPath id="clip0_67_9531">
<path d="M0 100C0 44.7715 44.7715 0 100 0C155.228 0 200 44.7715 200 100C200 155.228 155.228 200 100 200C44.7715 200 0 155.228 0 100Z" fill="white"/>
</clipPath>
</defs>
</svg>
