<svg width="197" height="39" viewBox="0 0 197 39" fill="none" xmlns="http://www.w3.org/2000/svg">
<path d="M124.982 0.209643C124.921 0.202537 124.875 0.163451 124.875 0.103046C124.875 0.0461947 124.921 0 124.982 0H189.227V39C174.492 18.1889 151.453 3.69179 124.982 0.209643Z" fill="#FF6B00"/>
<path d="M178.628 22.7226C179.062 16.3019 178.923 12.5533 180.021 11.5371C181.037 10.5955 182.871 10.3397 185.987 10.1123C179.151 9.32344 179.314 9.52598 178.628 2.87793C177.942 9.52243 178.106 9.31989 171.27 10.1123C174.382 10.3397 176.216 10.5955 177.235 11.5371C178.33 12.5533 178.191 16.3019 178.628 22.7226Z" fill="white"/>
<path d="M43.2936 24.4032V38.282H47.1311V26.9864C48.4244 25.8778 49.3483 26.2473 51.8924 28.3544L53.4416 24.8829C52.667 24.5524 51.6685 24.1829 50.2295 24.1829C48.7904 24.1829 47.7173 24.8829 47.2021 25.5118L47.0174 25.7321L46.9818 25.6966L47.0174 24.4032H43.2936ZM58.8353 17.0552H54.9979V38.282H58.8353V17.0552ZM25.954 31.3426C25.954 35.2192 28.8321 38.4313 33.4832 38.4313C38.1343 38.4313 41.0124 35.2192 41.0124 31.3426C41.0124 27.4661 38.1343 24.254 33.4832 24.254C28.8321 24.254 25.954 27.4661 25.954 31.3426ZM107.415 24.4032H103.577V38.282H107.415V24.4032ZM105.976 18.1283C104.832 18.1283 103.943 19.013 103.943 20.1571C103.943 21.3013 104.828 22.186 105.976 22.186C107.12 22.186 108.005 21.3013 108.005 20.1571C108.005 19.013 107.12 18.1283 105.976 18.1283ZM109.806 28.2051C109.437 33.4852 117.19 32.2274 116.969 35.4395C116.859 36.7293 115.751 37.1734 114.571 37.1379C112.652 36.9887 111.469 35.8836 110.435 34.6649L109.291 37.2125C110.84 38.0973 112.538 38.5414 114.017 38.6516C117.339 38.8719 120.146 37.4328 120.327 34.2207C120.658 29.2391 112.649 29.8645 112.798 27.3168C112.873 26.2082 114.127 25.6575 115.417 25.7286C116.745 25.8387 117.779 26.5778 118.924 27.6118L119.958 25.3235C118.519 24.6946 117.151 24.3997 115.935 24.2895C112.354 24.0692 109.952 25.9524 109.806 28.2051ZM68.0523 38.577C69.8609 38.577 71.3391 37.948 72.6644 36.9141L72.739 36.9531V38.282H76.2816V17.0552H72.4441V25.5083C71.3746 24.6946 69.7508 24.1794 68.0879 24.1794C65.9844 24.1794 60.9637 25.4692 60.9637 31.5629C60.9673 36.1039 64.9504 38.577 68.0523 38.577ZM93.0918 38.282H94.7156L102.838 19.6419H100.735L95.0887 32.7461L89.5137 19.6419H84.8626L93.0918 38.282ZM161.072 38.282V30.6426C161.072 25.4727 157.124 24.1829 154.797 24.1829C153.134 24.1829 151.73 24.8118 150.33 25.7712L150.256 25.7321V24.4032H146.713V38.282H150.551V27.0965C151.695 26.0981 152.803 25.693 153.763 25.693C155.795 25.693 157.195 27.6508 157.195 29.7899V38.2785H161.072V38.282ZM15.9517 21.4114H13.7736L9.41733 32.668L4.76619 19.713H0.299805L7.20369 38.243H9.30719L13.7736 26.8016L18.2044 38.243H20.3079L27.2118 19.7485H25.1083L20.2724 32.668L15.9517 21.4114ZM36.9547 31.3426C36.9547 34.5547 35.8852 37.0988 33.4868 37.0988C31.0883 37.0988 30.0153 34.5512 30.0153 31.3426C30.0153 28.1305 31.0848 25.5829 33.4868 25.5829C35.8852 25.5829 36.9547 28.1305 36.9547 31.3426ZM129.167 31.3426C129.167 35.2192 132.046 38.4313 136.697 38.4313C141.348 38.4313 144.226 35.2192 144.226 31.3426C144.226 27.4661 141.348 24.254 136.697 24.254C132.046 24.254 129.167 27.4661 129.167 31.3426ZM140.168 31.3426C140.168 34.5547 139.099 37.0988 136.7 37.0988C134.302 37.0988 133.229 34.5512 133.229 31.3426C133.229 28.1305 134.298 25.5829 136.7 25.5829C139.095 25.5829 140.168 28.1305 140.168 31.3426ZM72.4441 27.1712V35.5496C71.4492 36.3988 70.5254 37.0277 69.1219 37.0277C67.4234 37.0277 65.2098 35.5887 65.2098 31.4172C65.2098 26.9118 68.7168 23.6641 72.4441 27.1712Z" fill="#231F20"/>
<path d="M126.652 24.4033H122.814V38.2821H126.652V24.4033Z" fill="#231F20"/>
<path d="M124.858 18.1284C123.714 18.1284 122.829 19.0132 122.829 20.1573C122.829 21.3014 123.714 22.1862 124.858 22.1862C126.002 22.1862 126.887 21.3014 126.887 20.1573C126.887 19.0132 126.002 18.1284 124.858 18.1284Z" fill="#231F20"/>
<path d="M195.901 1.57041C196.274 1.93995 196.462 2.38765 196.462 2.90997C196.462 3.42519 196.277 3.86934 195.908 4.23887C195.538 4.6084 195.094 4.79672 194.575 4.79672C194.05 4.79672 193.602 4.61196 193.229 4.23532C192.859 3.86224 192.671 3.42163 192.671 2.90997C192.671 2.39476 192.856 1.95061 193.229 1.57752C193.602 1.20443 194.046 1.01611 194.568 1.01611C195.084 1.01611 195.524 1.20088 195.901 1.57041ZM195.755 4.08964C196.082 3.76275 196.245 3.36478 196.245 2.89931C196.245 2.44095 196.082 2.04655 195.752 1.71965C195.421 1.39276 195.03 1.22576 194.575 1.22576C194.113 1.22576 193.716 1.39276 193.389 1.7232C193.058 2.05365 192.891 2.44806 192.891 2.90642C192.891 3.36834 193.058 3.76275 193.389 4.08964C193.723 4.41654 194.117 4.57998 194.575 4.57998C195.034 4.57998 195.428 4.41654 195.755 4.08964ZM193.744 1.84046H194.65C194.885 1.84046 195.066 1.8902 195.194 1.99325C195.322 2.09273 195.386 2.23486 195.386 2.41608C195.386 2.56531 195.332 2.68967 195.226 2.79272C195.119 2.89576 194.977 2.95972 194.803 2.98459C194.892 3.01302 194.963 3.05565 195.02 3.10895C195.076 3.16225 195.133 3.23331 195.194 3.3257L195.599 3.94396H195.105L194.789 3.41453C194.7 3.26885 194.629 3.18002 194.572 3.14804C194.515 3.11606 194.44 3.10185 194.341 3.10185H194.17V3.94396H193.744V1.84046ZM194.469 2.81048C194.604 2.81048 194.714 2.78206 194.796 2.7252C194.881 2.66835 194.92 2.57953 194.92 2.46227C194.92 2.24197 194.774 2.13182 194.483 2.13182H194.17V2.80693H194.469V2.81048Z" fill="#231F20"/>
<path d="M165.233 24.3536C165.606 24.7231 165.794 25.1708 165.794 25.6932C165.794 26.2084 165.609 26.6525 165.24 27.0221C164.87 27.3916 164.426 27.5799 163.907 27.5799C163.382 27.5799 162.934 27.3952 162.561 27.0185C162.191 26.6454 162.003 26.2048 162.003 25.6932C162.003 25.178 162.188 24.7338 162.561 24.3607C162.934 23.9876 163.378 23.7993 163.9 23.7993C164.416 23.7993 164.86 23.9841 165.233 24.3536ZM165.087 26.8764C165.414 26.5495 165.577 26.1515 165.577 25.6861C165.577 25.2277 165.414 24.8333 165.084 24.5064C164.753 24.1795 164.362 24.0125 163.907 24.0125C163.446 24.0125 163.048 24.1795 162.721 24.51C162.39 24.8404 162.223 25.2348 162.223 25.6932C162.223 26.1551 162.39 26.5495 162.721 26.8764C163.055 27.2033 163.449 27.3667 163.907 27.3667C164.366 27.3667 164.76 27.2033 165.087 26.8764ZM163.076 24.6272H163.982C164.217 24.6272 164.398 24.677 164.526 24.78C164.654 24.8795 164.718 25.0216 164.718 25.2028C164.718 25.3521 164.664 25.4764 164.558 25.5795C164.451 25.6825 164.309 25.7465 164.135 25.7713C164.224 25.7998 164.295 25.8424 164.352 25.8957C164.408 25.949 164.465 26.0201 164.526 26.1124L164.931 26.7307H164.437L164.121 26.2013C164.032 26.0556 163.961 25.9668 163.904 25.9348C163.847 25.9028 163.772 25.8886 163.673 25.8886H163.502V26.7307H163.076V24.6272ZM163.801 25.5972C163.936 25.5972 164.046 25.5688 164.128 25.512C164.213 25.4551 164.252 25.3663 164.252 25.249C164.252 25.0287 164.106 24.9186 163.815 24.9186H163.502V25.5937H163.801V25.5972Z" fill="#231F20"/>
</svg>
