<svg width="24" height="24" viewBox="0 0 24 24" fill="none" xmlns="http://www.w3.org/2000/svg">
<path d="M0 12C0 5.37258 5.37258 0 12 0C18.6274 0 24 5.37258 24 12C24 18.6274 18.6274 24 12 24C5.37258 24 0 18.6274 0 12Z" fill="#E86100"/>
<path d="M12.0158 19.9972C12.3608 14.8186 12.2448 11.7951 13.1373 10.9726C13.9662 10.2103 15.4556 10.0011 18 9.82624C12.4244 9.19576 12.5605 9.35913 11.9927 4C11.4392 9.33907 11.5753 9.18718 6 9.83198C8.53852 10.0125 10.0338 10.216 10.8652 10.9783C11.7637 11.7979 11.6536 14.8214 12.0245 20" fill="white"/>
</svg>
