<svg width="16" height="16" viewBox="0 0 16 16" fill="none" xmlns="http://www.w3.org/2000/svg">
<path fill-rule="evenodd" clip-rule="evenodd" d="M1.95663 5.6024C2.91062 3.19982 5.25612 1.50007 7.99983 1.5C10.7436 1.5 13.0894 3.19977 14.0434 5.6024C15.0783 5.90852 15.8333 6.86567 15.8333 8C15.8333 9.13433 15.0783 10.0915 14.0434 10.3976C13.0893 12.8002 10.7438 14.5 8 14.5C5.25622 14.5 2.91065 12.8002 1.95663 10.3976C0.921713 10.0915 0.166664 9.13433 0.166664 8C0.166664 6.86567 0.921712 5.90852 1.95663 5.6024ZM5.83317 3.66666C5.83317 3.38644 5.90553 3.11461 6.02395 2.86566L7.73979 2.54812C7.56894 2.60751 7.38557 2.72137 7.22006 2.88689C6.96553 3.14141 6.83317 3.43815 6.83317 3.66667C6.83317 3.89321 6.94382 4.08739 7.15901 4.24259C7.3823 4.40363 7.69425 4.5 7.9999 4.5C8.29703 4.5 8.60894 4.39857 8.83659 4.23081C9.06045 4.06585 9.1665 3.86872 9.1665 3.66667H10.1665C10.1665 4.26461 9.83925 4.73415 9.42981 5.03585C9.02416 5.33477 8.50277 5.5 7.9999 5.5C7.50555 5.5 6.98413 5.34942 6.57405 5.05365C6.15587 4.75205 5.83316 4.27956 5.83317 3.66666ZM7.73979 2.54812L6.02395 2.86566C4.52048 3.44465 3.33511 4.66503 2.80385 6.19222C2.74389 6.36461 2.59475 6.49062 2.41477 6.52098C1.70635 6.64047 1.16666 7.2577 1.16666 8C1.16666 8.7423 1.70635 9.35953 2.41477 9.47902C2.59475 9.50938 2.74389 9.63539 2.80385 9.80778C3.55183 11.958 5.59648 13.5 8 13.5C10.4035 13.5 12.4482 11.958 13.1961 9.80778C13.2561 9.63539 13.4052 9.50938 13.5852 9.47902C14.2936 9.35954 14.8333 8.7423 14.8333 8C14.8333 7.2577 14.2936 6.64046 13.5852 6.52098C13.4052 6.49062 13.2561 6.36461 13.1961 6.19222C12.4482 4.04202 10.4035 2.5 8 2.5L7.73979 2.54812ZM7.73979 2.54812L8 2.5C7.92013 2.50001 7.83161 2.51622 7.73979 2.54812ZM11.0469 10.9919C11.0152 11.0318 10.9475 11.1141 10.8452 11.2208C10.7092 11.3627 10.51 11.5501 10.2522 11.7376C9.73869 12.1111 8.97092 12.4999 7.99982 12.4999C7.02872 12.4999 6.26096 12.1111 5.7474 11.7376C5.48966 11.5501 5.29044 11.3627 5.15445 11.2208C4.95966 11.0176 4.80225 10.792 4.63316 10.5666L5.43316 9.96655C5.71114 10.3372 5.95128 10.6494 6.33558 10.9289C6.73869 11.222 7.30425 11.4999 7.99982 11.4999C8.69539 11.4999 9.26096 11.222 9.66407 10.9289C10.0483 10.6494 10.2885 10.3372 10.5665 9.96655L11.3665 10.5666L11.0469 10.9919ZM11.0469 10.9919C11.0648 10.9919 11.0781 10.9516 11.0469 10.9919V10.9919ZM6.99992 7.30005C6.99992 7.85233 6.5522 8.30005 5.99992 8.30005C5.44763 8.30005 4.99992 7.85233 4.99992 7.30005C4.99992 6.74776 5.44763 6.30005 5.99992 6.30005C6.5522 6.30005 6.99992 6.74776 6.99992 7.30005ZM9.99992 8.30005C10.5522 8.30005 10.9999 7.85233 10.9999 7.30005C10.9999 6.74776 10.5522 6.30005 9.99992 6.30005C9.44763 6.30005 8.99992 6.74776 8.99992 7.30005C8.99992 7.85233 9.44763 8.30005 9.99992 8.30005Z" fill="#17191F"/>
</svg>
