<svg width="16" height="16" viewBox="0 0 16 16" fill="none" xmlns="http://www.w3.org/2000/svg">
<path d="M7.99668 0.840088L8.44786 1.78462C8.96963 2.87696 9.55471 3.76901 10.1342 4.55306C10.3589 4.14336 10.5143 3.6896 10.5846 3.20732L10.6634 2.66699L10.7422 3.20732C10.9975 4.95792 12.3725 6.33288 14.1231 6.58819L14.6634 6.66699L14.1231 6.74579C13.4639 6.84194 12.8579 7.09684 12.345 7.47079C12.8295 8.23769 13.1634 9.04477 13.1634 10.0001C13.1634 12.8536 10.8502 15.1668 7.99668 15.1668C5.14321 15.1668 2.83002 12.8536 2.83002 10.0001C2.83002 8.51947 3.63184 7.39496 4.55408 6.22423C4.66528 6.08307 4.77907 5.94031 4.89483 5.79509C5.75741 4.71294 6.72898 3.49404 7.54551 1.78462L7.99668 0.840088ZM7.99668 3.0908C7.23371 4.46728 6.39163 5.52273 5.67416 6.42201L5.6741 6.42208L5.67405 6.42213C5.5591 6.56622 5.44734 6.70629 5.33962 6.84304C4.4062 8.02797 3.83002 8.90347 3.83002 10.0001C3.83002 12.3013 5.6955 14.1668 7.99668 14.1668C10.2979 14.1668 12.1634 12.3013 12.1634 10.0001C12.1634 9.35046 11.9611 8.7784 11.6022 8.17365C11.1546 8.72147 10.8495 9.39089 10.7422 10.1267L10.6634 10.667L10.5846 10.1267C10.3293 8.37606 8.95432 7.00111 7.20372 6.74579L6.66339 6.66699L7.20372 6.58819C8.10927 6.45612 8.9143 6.02446 9.51585 5.39619C9.01296 4.73164 8.48839 3.97789 7.99668 3.0908ZM8.23197 12.1765C7.5646 12.31 7.05442 12.1142 6.67199 11.775C6.27407 11.4222 6.00707 10.9035 5.89995 10.4177L5.79227 9.92946L4.81574 10.1448L4.92341 10.6331C5.06799 11.2887 5.42684 12.0074 6.00851 12.5232C6.60567 13.0528 7.4288 13.357 8.42808 13.1571L8.91838 13.059L8.72226 12.0785L8.23197 12.1765Z" fill="#17191F"/>
</svg>
