<svg width="16" height="16" viewBox="0 0 16 16" fill="none" xmlns="http://www.w3.org/2000/svg">
<path fill-rule="evenodd" clip-rule="evenodd" d="M6.46794 1.46785C6.87426 1.06153 7.42536 0.833252 8 0.833252C8.57464 0.833252 9.12574 1.06153 9.53206 1.46785C9.93839 1.87418 10.1667 2.42528 10.1667 2.99992V8.91895C10.6814 9.32464 11.0734 9.86803 11.2954 10.4885C11.5484 11.1955 11.5673 11.9651 11.3493 12.6837C11.1313 13.4022 10.6881 14.0316 10.085 14.4789C9.48185 14.9262 8.75088 15.1677 8 15.1677C7.24912 15.1677 6.51815 14.9262 5.91504 14.4789C5.31193 14.0316 4.86866 13.4022 4.6507 12.6837C4.43274 11.9651 4.45164 11.1955 4.70461 10.4885C4.92664 9.86803 5.31864 9.32464 5.83333 8.91895V2.99992C5.83333 2.42528 6.06161 1.87418 6.46794 1.46785ZM8 1.83325C7.69058 1.83325 7.39383 1.95617 7.17504 2.17496C6.95625 2.39375 6.83333 2.6905 6.83333 2.99992V9.17325C6.83333 9.34025 6.74996 9.49622 6.61111 9.58899C6.16515 9.88696 5.82685 10.3204 5.64615 10.8254C5.46546 11.3304 5.45196 11.8801 5.60764 12.3934C5.76333 12.9066 6.07995 13.3562 6.51074 13.6757C6.94153 13.9952 7.46366 14.1677 8 14.1677C8.53634 14.1677 9.05846 13.9952 9.48926 13.6757C9.92005 13.3562 10.2367 12.9066 10.3924 12.3934C10.548 11.8801 10.5345 11.3304 10.3538 10.8254C10.1732 10.3204 9.83485 9.88696 9.38889 9.58899C9.25004 9.49622 9.16667 9.34025 9.16667 9.17325V7.16675L7.5 7.16675V6.16675L9.16667 6.16675V5.16675L7.5 5.16675V4.16675L9.16667 4.16675V2.99992C9.16667 2.6905 9.04375 2.39375 8.82496 2.17496C8.60617 1.95617 8.30942 1.83325 8 1.83325Z" fill="#17191F"/>
</svg>
