<svg width="16" height="16" viewBox="0 0 16 16" fill="none" xmlns="http://www.w3.org/2000/svg">
<path d="M1.63675 3.73136C2.57085 2.74967 3.9895 2.07599 5.5933 1.7422C5.66906 2.0326 5.79678 2.33069 5.99876 2.6C6.40162 3.13715 7.05599 3.5 7.99876 3.5C8.94153 3.5 9.5959 3.13715 9.99876 2.6C10.2007 2.33069 10.3285 2.03261 10.4042 1.74221C12.0275 2.08007 13.4611 2.76613 14.3946 3.76735L13.5194 5.38984C13.3576 5.28992 13.1874 5.19938 13.0215 5.12248C12.6775 4.96307 12.2677 4.82268 11.9362 4.82268H11.4362V5.32268C11.4362 5.99714 11.4787 7.43038 11.614 8.5H7.07873H6.57873V9V9.0043V9.00857V9.01281V9.01702V9.0212V9.02534V9.02946V9.03355V9.0376V9.04163V9.04562V9.04958V9.05352V9.05742V9.0613V9.06514V9.06896V9.07274V9.0765V9.08023V9.08392V9.08759V9.09123V9.09484V9.09842V9.10198V9.1055V9.109V9.11247V9.1159V9.11932V9.1227V9.12606V9.12938V9.13268V9.13595V9.1392V9.14242V9.14561V9.14877V9.15191V9.15501V9.1581V9.16115V9.16418V9.16718V9.17016V9.17311V9.17603V9.17893V9.1818V9.18464V9.18746V9.19025V9.19302V9.19576V9.19848V9.20117V9.20384V9.20648V9.2091V9.21169V9.21425V9.2168V9.21931V9.22181V9.22428V9.22672V9.22914V9.23154V9.23391V9.23626V9.23858V9.24088V9.24316V9.24542V9.24765V9.24986V9.25204V9.2542V9.25634V9.25846V9.26055V9.26262V9.26467V9.2667V9.2687V9.27069V9.27265V9.27458V9.2765V9.2784V9.28027V9.28212V9.28395V9.28576V9.28755V9.28932V9.29106V9.29279V9.29449V9.29617V9.29784V9.29948V9.3011V9.30271V9.30429V9.30585V9.30739V9.30891V9.31042V9.3119V9.31336V9.31481V9.31623V9.31764V9.31903V9.3204V9.32174V9.32308V9.32439V9.32568V9.32696V9.32821V9.32945V9.33067V9.33187V9.33306V9.33423V9.33537V9.33651V9.33762V9.33872V9.3398V9.34086V9.34191V9.34293V9.34395V9.34494V9.34592V9.34688V9.34735V9.34736V9.34738V9.34741V9.34745V9.34749V9.34749V9.34754V9.34755V9.3476V9.34761V9.34766V9.34769V9.34773V9.34777V9.34781V9.34783V9.34786V9.3479V9.34796V9.34799V9.34807V9.34809V9.34819V9.3482V9.34832V9.34832V9.34844V9.34846V9.34856V9.34861V9.3487V9.34876V9.34877V9.34883V9.34894V9.34898V9.34912V9.34913V9.34929V9.34931V9.34945V9.34951V9.34962V9.34967V9.34972V9.34979V9.34994V9.34997V9.35016V9.35017V9.35035V9.35042V9.35054V9.35057V9.35067V9.35074V9.35094V9.35095V9.35116V9.35121V9.35137V9.35145V9.3515V9.35159V9.3518V9.35181V9.35204V9.35211V9.35227V9.35231V9.35243V9.35251V9.35275V9.35276V9.35299V9.35311V9.35316V9.35324V9.35346V9.35349V9.35375V9.35383V9.354V9.354V9.35421V9.35427V9.35453V9.35461V9.3548V9.35481V9.35501V9.35507V9.35535V9.35543V9.35562V9.35563V9.35586V9.35591V9.35619V9.3563V9.3564V9.35647V9.35676V9.35705V9.35718V9.35723V9.35734V9.35764V9.35771V9.35794V9.3582V9.35824V9.35854V9.35868V9.35871V9.35884V9.35914V9.35923V9.3594V9.35945V9.35975V9.35977V9.36006V9.36011V9.36031V9.36037V9.36068V9.36081V9.36088V9.36099V9.3613V9.36145V9.3615V9.36162V9.36193V9.36204V9.36216V9.36224V9.36256V9.36264V9.36282V9.36287V9.36319V9.36326V9.36346V9.3635V9.36382V9.36389V9.36408V9.36413V9.36445V9.36454V9.36469V9.36477V9.36508V9.36519V9.36529V9.36539V9.36571V9.36587V9.36588V9.36602V9.36633V9.36645V9.36656V9.36664V9.36695V9.367V9.36726V9.36755V9.36757V9.36787V9.36798V9.36808V9.36818V9.36848V9.36859V9.36871V9.36878V9.36908V9.36909V9.36938V9.36946V9.36958V9.36967V9.36997V9.37006V9.37022V9.37026V9.37053V9.37055V9.37083V9.37098V9.371V9.37112V9.3714V9.37142V9.37168V9.37179V9.37184V9.37195V9.37222V9.37225V9.37249V9.3726V9.37266V9.37276V9.37302V9.37304V9.37328V9.37342V9.37354V9.37379V9.37379V9.37404V9.37414V9.37426V9.37429V9.37448V9.37453V9.37477V9.37481V9.375V9.37512V9.37513V9.37523V9.37543V9.37545V9.37567V9.37573V9.37589V9.37599V9.37601V9.3761V9.37628V9.37631V9.37651V9.37654V9.37671V9.37679V9.37687V9.3769V9.37703V9.37708V9.37727V9.37744V9.37748V9.37761V9.37768V9.37778V9.37788V9.37794V9.37807V9.37809V9.37824V9.37838V9.37841V9.37851V9.37856V9.37864V9.37869V9.37871V9.37876V9.37885V9.37888V9.37897V9.37899V9.37909V9.3792V9.37928V9.37929V9.37936V9.37938V9.37944V9.37946V9.3795V9.37953V9.37957V9.37959V9.37962V9.37963V9.37964V9.37966V9.37969V9.3797V9.37972V9.37973V9.37976V9.37977V9.37978V9.38058V9.38155V9.38253V9.38353V9.38455V9.38559V9.38664V9.38771V9.38879V9.38989V9.39102V9.39215V9.39331V9.39448V9.39567V9.39688V9.39811V9.39935V9.40062V9.4019V9.4032V9.40452V9.40585V9.40721V9.40858V9.40998V9.41139V9.41282V9.41428V9.41575V9.41724V9.41875V9.42028V9.42182V9.42339V9.42498V9.42659V9.42822V9.42987V9.43154V9.43323V9.43495V9.43668V9.43843V9.44021V9.442V9.44382V9.44566V9.44752V9.4494V9.4513V9.45322V9.45517V9.45714V9.45913V9.46114V9.46317V9.46523V9.46731V9.46941V9.47154V9.47368C6.57873 9.66788 6.52435 10.0316 6.42838 10.5H4.26C4.43128 9.73141 4.59271 8.79498 4.71997 7.92996C4.88344 6.81881 4.99873 5.77015 4.99873 5.32268V4.82268H4.49873C4.16729 4.82268 3.75745 4.96307 3.41348 5.12248C3.22718 5.20882 3.03543 5.31237 2.85637 5.42707L1.63675 3.73136ZM6.58759 1.58154C7.0505 1.52741 7.52302 1.5 7.99873 1.5C8.47446 1.5 8.947 1.52741 9.40992 1.58154C9.36189 1.73104 9.29278 1.87464 9.19876 2C9.00162 2.26285 8.65599 2.5 7.99876 2.5C7.34153 2.5 6.9959 2.26285 6.79876 2C6.70474 1.87464 6.63562 1.73104 6.58759 1.58154ZM3.62373 11.5H6.19909C6.00071 12.2951 5.75333 13.1551 5.52439 13.8419L5.38854 14.2494L5.77097 14.4451C6.35744 14.7452 7.14703 15.0061 7.85191 15.1909C8.54478 15.3726 9.22897 15.5 9.59873 15.5H9.99129L10.0844 15.1187C10.1474 14.861 10.2304 14.4569 10.3187 14.0116C10.4071 14.4569 10.4901 14.861 10.553 15.1187L10.6462 15.5H11.0387C11.5769 15.5 12.3416 15.3778 13.0932 15.1927C13.8477 15.007 14.6388 14.7458 15.2265 14.4451L15.6089 14.2494L15.4731 13.8419C15.3276 13.4054 15.1404 12.8896 14.9525 12.3715L14.9524 12.3713L14.9524 12.3713C14.8182 12.0013 14.6835 11.6301 14.5633 11.2858C14.4156 10.8628 14.2865 10.4723 14.1948 10.1457C14.0988 9.80363 14.0587 9.58189 14.0587 9.47368V9.47154V9.46941V9.46731V9.46523V9.46317V9.46114V9.45913V9.45714V9.45517V9.45322V9.4513V9.4494V9.44752V9.44566V9.44382V9.442V9.44021V9.43843V9.43668V9.43495V9.43323V9.43154V9.42987V9.42822V9.42659V9.42498V9.42339V9.42182V9.42028V9.41875V9.41724V9.41575V9.41428V9.41282V9.41139V9.40998V9.40858V9.40721V9.40585V9.40452V9.4032V9.4019V9.40062V9.39935V9.39811V9.39688V9.39567V9.39448V9.39331V9.39215V9.39102V9.38989V9.38879V9.38771V9.38664V9.38559V9.38455V9.38353V9.38253V9.38155V9.38058V9.37978V9.37977V9.37976V9.37973V9.37972V9.3797V9.37969V9.37966V9.37964V9.37963V9.37962V9.37959V9.37957V9.37953V9.3795V9.37946V9.37944V9.37938V9.37936V9.37929V9.37928V9.37919V9.37909V9.37899V9.37897V9.37888V9.37885V9.37876V9.37871V9.37869V9.37864V9.37856V9.37851V9.37841V9.37838V9.37824V9.37809V9.37807V9.37794V9.37788V9.37778V9.37768V9.37761V9.37748V9.37744V9.37727V9.37708V9.37703V9.3769V9.37687V9.37679V9.37671V9.37654V9.37651V9.37631V9.37628V9.3761V9.37601V9.37599V9.37589V9.37573V9.37567V9.37545V9.37543V9.37523V9.37513V9.37512V9.375V9.37481V9.37477V9.37453V9.37448V9.37429V9.37426V9.37414V9.37404V9.37379V9.37379V9.37354V9.37342V9.37328V9.37304V9.37302V9.37276V9.37266V9.3726V9.37249V9.37225V9.37222V9.37195V9.37184V9.37179V9.37168V9.37142V9.3714V9.37112V9.371V9.37098V9.37083V9.37055V9.37053V9.37026V9.37022V9.37006V9.36997V9.36967V9.36958V9.36946V9.36938V9.36909V9.36908V9.36878V9.36871V9.36859V9.36848V9.36818V9.36808V9.36798V9.36787V9.36757V9.36755V9.36726V9.367V9.36695V9.36664V9.36656V9.36645V9.36633V9.36602V9.36588V9.36587V9.36571V9.36539V9.36529V9.36519V9.36508V9.36477V9.36469V9.36454V9.36445V9.36413V9.36408V9.36389V9.36382V9.3635V9.36346V9.36326V9.36319V9.36287V9.36282V9.36264V9.36256V9.36224V9.36216V9.36204V9.36193V9.36162V9.3615V9.36145V9.3613V9.36099V9.36088V9.36081V9.36068V9.36037V9.36031V9.36011V9.36006V9.35977V9.35975V9.35945V9.3594V9.35923V9.35914V9.35884V9.35871V9.35868V9.35854V9.35824V9.3582V9.35794V9.35771V9.35764V9.35734V9.35723V9.35718V9.35705V9.35676V9.35647V9.3564V9.3563V9.35619V9.35591V9.35586V9.35563V9.35562V9.35543V9.35535V9.35507V9.35501V9.35481V9.3548V9.35461V9.35453V9.35427V9.35421V9.354V9.354V9.35383V9.35375V9.35349V9.35346V9.35324V9.35316V9.35311V9.35299V9.35276V9.35275V9.35251V9.35243V9.35231V9.35227V9.35211V9.35204V9.35181V9.3518V9.35159V9.3515V9.35145V9.35137V9.35121V9.35116V9.35095V9.35094V9.35074V9.35067V9.35057V9.35054V9.35042V9.35035V9.35017V9.35016V9.34997V9.34994V9.34979V9.34972V9.34967V9.34962V9.34951V9.34945V9.34931V9.34929V9.34913V9.34912V9.34898V9.34894V9.34883V9.34877V9.34876V9.3487V9.34861V9.34856V9.34846V9.34844V9.34832V9.34832V9.3482V9.34819V9.34809V9.34807V9.34799V9.34796V9.3479V9.34786V9.34783V9.34781V9.34777V9.34773V9.34769V9.34766V9.34761V9.3476V9.34755V9.34754V9.34749V9.34749V9.34744V9.34741V9.34738V9.34736V9.34735V9.34688V9.34592V9.34494V9.34395V9.34293V9.34191V9.34086V9.3398V9.33872V9.33762V9.33651V9.33537V9.33423V9.33306V9.33187V9.33067V9.32945V9.32821V9.32696V9.32568V9.32439V9.32308V9.32174V9.3204V9.31903V9.31764V9.31623V9.31481V9.31336V9.3119V9.31042V9.30891V9.30739V9.30585V9.30429V9.30271V9.3011V9.29948V9.29784V9.29617V9.29449V9.29279V9.29106V9.28932V9.28755V9.28576V9.28395V9.28212V9.28027V9.2784V9.2765V9.27458V9.27265V9.27069V9.2687V9.2667V9.26467V9.26262V9.26055V9.25846V9.25634V9.2542V9.25204V9.24986V9.24765V9.24542V9.24316V9.24088V9.23858V9.23626V9.23391V9.23154V9.22914V9.22672V9.22428V9.22181V9.21931V9.2168V9.21425V9.21169V9.2091V9.20648V9.20384V9.20117V9.19848V9.19576V9.19302V9.19025V9.18746V9.18464V9.1818V9.17893V9.17603V9.17311V9.17016V9.16718V9.16418V9.16115V9.1581V9.15501V9.15191V9.14877V9.14561V9.14242V9.1392V9.13595V9.13268V9.12938V9.12606V9.1227V9.11932V9.1159V9.11247V9.109V9.1055V9.10198V9.09842V9.09484V9.09123V9.08759V9.08392V9.08023V9.0765V9.07274V9.06896V9.06514V9.0613V9.05742V9.05352V9.04958V9.04562V9.04163V9.0376V9.03355V9.02946V9.02534V9.0212V9.01702V9.01281V9.00857V9.0043V9V8.5H13.5587H12.6225C12.5183 7.74944 12.4653 6.72377 12.4455 5.96208C12.4951 5.98226 12.5471 6.00479 12.601 6.02978C12.8996 6.16819 13.1783 6.34463 13.3463 6.50042L13.8198 6.93928L14.1263 6.3711L15.4388 3.93797L15.5969 3.64492L15.3874 3.38608C13.7971 1.42061 10.8467 0.5 7.99873 0.5C5.15078 0.5 2.20038 1.42061 0.610034 3.38608L0.369995 3.68274L0.592815 3.99254L2.34282 6.42567L2.6734 6.8853L3.08863 6.50042C3.2567 6.34463 3.53531 6.16819 3.83397 6.02978C3.87604 6.01028 3.91692 5.99228 3.95641 5.97572C3.91148 6.44875 3.83284 7.08955 3.73062 7.78441C3.56729 8.89461 3.35189 10.0878 3.14098 10.8698L2.97101 11.5H3.62373ZM7.57854 9.5H13.059C13.0639 9.75665 13.1394 10.0861 13.232 10.416C13.3322 10.7728 13.4694 11.1865 13.6192 11.6155C13.7493 11.9881 13.887 12.3673 14.0215 12.7377L14.0217 12.7382L14.0217 12.7384C14.1465 13.0819 14.2685 13.4179 14.3793 13.7344C13.9358 13.9185 13.3969 14.0881 12.8542 14.2217C12.3309 14.3505 11.8304 14.4394 11.4341 14.4781C11.3573 14.1148 11.2643 13.6397 11.1694 13.1541L11.1663 13.1378L11.1663 13.1378C11.0336 12.4588 10.8972 11.7611 10.8044 11.3813H9.83301C9.74024 11.7611 9.60388 12.4588 9.47118 13.1379L9.46801 13.1541C9.37466 13.6318 9.28323 14.0992 9.2071 14.4602C8.92172 14.4162 8.53542 14.3363 8.10554 14.2236C7.59054 14.0886 7.055 13.9174 6.61086 13.7317C6.82362 13.0537 7.0392 12.2786 7.21203 11.569C7.41288 10.7443 7.57235 9.94444 7.57854 9.5Z" fill="#17191F"/>
</svg>
