<svg width="16" height="16" viewBox="0 0 16 16" fill="none" xmlns="http://www.w3.org/2000/svg">
<path fill-rule="evenodd" clip-rule="evenodd" d="M1.5 1.5H14.5V14.5H1.5V1.5ZM2.5 2.5V13.5H13.5V2.5H2.5ZM7.5 5.33277C7.7989 5.15987 8 4.83669 8 4.46655C8 3.91427 7.55228 3.46655 7 3.46655C6.44772 3.46655 6 3.91427 6 4.46655C6 4.83669 6.2011 5.15987 6.5 5.33277V7.1333V9.13322C6.5 9.40936 6.72386 9.63322 7 9.63322H9.37651L10.5659 11.7146C10.6549 11.8704 10.8206 11.9666 11 11.9666H12.5V10.9666H11.2902L10.1008 8.88515C10.0118 8.72936 9.8461 8.63322 9.66667 8.63322H7.5V7.6333H9.83333V6.6333H7.5V5.33277ZM5.5725 10.8844C4.72636 10.0382 4.72636 8.66637 5.5725 7.82023L5.92605 7.46668L5.21895 6.75957L4.86539 7.11312C3.62873 8.34978 3.62873 10.3548 4.86539 11.5915C6.10205 12.8281 8.10707 12.8281 9.34374 11.5915L9.69729 11.2379L8.99018 10.5308L8.63663 10.8844C7.79049 11.7305 6.41863 11.7305 5.5725 10.8844Z" fill="#17191F"/>
</svg>
