<svg width="16" height="16" viewBox="0 0 16 16" fill="none" xmlns="http://www.w3.org/2000/svg">
<path fill-rule="evenodd" clip-rule="evenodd" d="M1.5 5.62843L4.39219 9H3V14C3 15.1046 3.89543 16 5 16H11C12.1046 16 13 15.1046 13 14V9H11.6078L14.5 5.62843C14.0448 2.44621 11.3081 0 8 0C4.69192 0 1.95518 2.44621 1.5 5.62843ZM2.79671 5.60417L5.7097 9H6.5341L5.41063 5.93601L5.28917 5.73256C5.0266 5.29271 4.54722 4.99995 3.99998 4.99995C3.50734 4.99995 3.07017 5.23744 2.79671 5.60417ZM13.2033 5.6042L10.2903 9H9.46591L10.5894 5.93581L10.7108 5.73256C10.9734 5.29271 11.4527 4.99995 12 4.99995C12.4926 4.99995 12.9298 5.23745 13.2033 5.6042ZM9.70254 5.44981L8.40081 9H7.5992L6.29744 5.44977C6.65023 4.8791 7.28125 4.49995 7.99998 4.49995C8.71872 4.49995 9.34975 4.87912 9.70254 5.44981ZM13.0556 4.23308C12.1731 2.32448 10.2407 1 8 1C5.75935 1 3.82694 2.32447 2.94444 4.23305C3.26512 4.08348 3.62279 3.99995 3.99998 3.99995C4.63555 3.99995 5.21545 4.23727 5.65618 4.62732C6.2056 3.94054 7.05101 3.49995 7.99998 3.49995C8.94894 3.49995 9.79435 3.94054 10.3438 4.62732C10.7845 4.23727 11.3644 3.99995 12 3.99995C12.3772 3.99995 12.7349 4.08349 13.0556 4.23308ZM5 15C4.44772 15 4 14.5523 4 14V10H12V14C12 14.5523 11.5523 15 11 15H5Z" fill="#17191F"/>
</svg>
