<svg width="16" height="16" viewBox="0 0 16 16" fill="none" xmlns="http://www.w3.org/2000/svg">
<path d="M6.81974 4.13092C6.37878 3.81079 5.74072 3.61946 5.0001 3.54123C4.26728 3.46381 3.48075 3.502 2.78601 3.60102C2.26866 3.67476 1.82252 3.77929 1.5 3.88471V11.4426C1.83852 11.3502 2.2286 11.2694 2.64146 11.2076C3.39555 11.0947 4.26342 11.0398 5.09212 11.1054C5.91172 11.1704 6.74263 11.357 7.38301 11.7668C7.4228 11.7923 7.46182 11.8186 7.5 11.8458L7.5 5.52512C7.5 4.8631 7.23531 4.43261 6.81974 4.13092ZM7.40723 3.32169C7.63551 3.48741 7.83558 3.68168 8 3.90533C8.16442 3.68168 8.36449 3.48741 8.59277 3.32169C9.23405 2.85613 10.0697 2.63393 10.8948 2.54676C11.7278 2.45877 12.5992 2.50329 13.3551 2.61103C14.1041 2.71779 14.7769 2.89197 15.2048 3.08408L15.5 3.21662V12.914L14.7952 12.5976C14.4858 12.4587 13.9145 12.3019 13.2105 12.1966C12.514 12.0923 11.724 12.0439 10.9869 12.1023C10.2407 12.1614 9.5979 12.3263 9.15605 12.6091C8.74233 12.8739 8.5 13.2401 8.5 13.7955L8.5 13.9997L8.49747 14.0022C8.32465 14.1737 8.15195 14.2262 8 14.2215C7.84804 14.2262 7.67534 14.1737 7.50252 14.0022L7.5 13.9997L7.5 13.7955C7.5 13.2401 7.25767 12.8739 6.84395 12.6091C6.4021 12.3263 5.75932 12.1614 5.01314 12.1023C4.27605 12.0439 3.48603 12.0923 2.78946 12.1966C2.08546 12.3019 1.51418 12.4587 1.20479 12.5976L0.5 12.914V3.21662L0.795212 3.08408C1.22312 2.89197 1.89588 2.71779 2.64491 2.61103C3.40082 2.50329 4.27219 2.45877 5.10516 2.54676C5.93033 2.63393 6.76595 2.85613 7.40723 3.32169ZM8.61698 11.7668C9.25737 11.357 10.0883 11.1704 10.9079 11.1054C11.7366 11.0398 12.6045 11.0947 13.3585 11.2076C13.7714 11.2694 14.1615 11.3502 14.5 11.4426V3.88471C14.1775 3.77929 13.7313 3.67476 13.214 3.60102C12.5192 3.502 11.7327 3.46381 10.9999 3.54123C10.2593 3.61946 9.62122 3.81079 9.18026 4.13092C8.76469 4.43261 8.5 4.8631 8.5 5.52512L8.5 11.8458C8.53818 11.8186 8.57719 11.7923 8.61698 11.7668ZM2.15752 5.87111C3.89759 5.29348 5.49734 5.33771 6.66858 6.3745L7.33141 5.62573C5.77538 4.24831 3.73876 4.29254 1.84247 4.92204L2.15752 5.87111ZM9.33142 6.3745C10.5027 5.33771 12.1024 5.29348 13.8425 5.87111L14.1575 4.92204C12.2612 4.29254 10.2246 4.24831 8.66859 5.62573L9.33142 6.3745ZM2.15752 7.87111C3.89759 7.29348 5.49734 7.33771 6.66858 8.37451L7.33141 7.62573C5.77538 6.24831 3.73876 6.29254 1.84247 6.92204L2.15752 7.87111Z" fill="#17191F"/>
</svg>
