<svg width="16" height="16" viewBox="0 0 16 16" fill="none" xmlns="http://www.w3.org/2000/svg">
<path fill-rule="evenodd" clip-rule="evenodd" d="M7.99969 0.400146C3.80251 0.400146 0.400024 3.80263 0.400024 7.99982C0.400024 12.197 3.80251 15.5995 7.99969 15.5995C12.1969 15.5995 15.5994 12.197 15.5994 7.99982C15.5994 3.80263 12.1969 0.400146 7.99969 0.400146ZM7.99095 1.40015C7.99386 1.40015 7.99678 1.40015 7.99969 1.40015C8.00254 1.40015 8.00539 1.40015 8.00824 1.40015C8.69479 1.4049 9.44927 1.97668 10.0625 3.20317C10.3523 3.78278 10.5921 4.47717 10.7628 5.25393C9.92429 5.4288 8.98964 5.52763 7.99962 5.52763C7.0096 5.52763 6.07493 5.42879 5.23642 5.25392C5.40708 4.47716 5.64691 3.78278 5.93672 3.20317C6.54995 1.9767 7.30441 1.40492 7.99095 1.40015ZM10.4155 1.85632C10.6152 2.13124 10.7961 2.43436 10.9569 2.75596C11.2825 3.407 11.5456 4.16833 11.732 5.00542C12.1222 4.88497 12.4822 4.74662 12.8063 4.59355C13.0391 4.48362 13.2476 4.3693 13.4327 4.25202C12.6926 3.18118 11.6441 2.33981 10.4155 1.85632ZM13.9371 5.11483C13.7156 5.2538 13.4794 5.3816 13.2333 5.4978C12.8319 5.68736 12.3885 5.85447 11.9112 5.99596C12.0016 6.63583 12.0494 7.30805 12.0494 7.99979C12.0494 8.87136 11.9735 9.71194 11.8322 10.4959C12.184 10.383 12.5101 10.2554 12.8063 10.1155C13.9638 9.56894 14.5204 8.91363 14.5914 8.32597C14.5967 8.21792 14.5994 8.10918 14.5994 7.99982C14.5994 6.9653 14.3613 5.98638 13.9371 5.11483ZM14.0953 10.5339C13.8294 10.7132 13.539 10.8755 13.2333 11.0198C12.7397 11.2529 12.1825 11.4521 11.5769 11.6114C11.4092 12.2076 11.2005 12.7565 10.9569 13.2436C10.7961 13.5653 10.6152 13.8684 10.4155 14.1433C12.0776 13.4892 13.4102 12.1801 14.0953 10.5339ZM5.58366 14.1433C5.38398 13.8683 5.20309 13.5652 5.04229 13.2436C4.79871 12.7565 4.59007 12.2076 4.42236 11.6114C3.81676 11.4521 3.25957 11.2529 2.76589 11.0198C2.46032 10.8755 2.17 10.7133 1.9041 10.534C2.58923 12.1801 3.92171 13.4891 5.58366 14.1433ZM1.40804 8.32799C1.48012 8.91513 2.03673 9.56957 3.1929 10.1155C3.48911 10.2554 3.81525 10.383 4.16699 10.4959C4.02575 9.71193 3.94978 8.87135 3.94978 7.99979C3.94978 7.30805 3.99763 6.63583 4.088 5.99596C3.61072 5.85447 3.16731 5.68735 2.76589 5.4978C2.51988 5.38162 2.28375 5.25384 2.0623 5.1149C1.63804 5.98643 1.40002 6.96533 1.40002 7.99982C1.40002 8.10986 1.40272 8.21927 1.40804 8.32799ZM2.56664 4.25208C2.75172 4.36934 2.96016 4.48364 3.1929 4.59355C3.51706 4.74662 3.87705 4.88497 4.26722 5.00542C4.45362 4.16833 4.71677 3.407 5.04229 2.75596C5.20307 2.43439 5.38394 2.13131 5.58361 1.8564C4.35513 2.33992 3.30668 3.18128 2.56664 4.25208ZM5.06395 6.23943C5.96961 6.42588 6.96262 6.52763 7.99962 6.52763C9.03662 6.52763 10.0296 6.42588 10.9353 6.23943C11.0095 6.79864 11.0494 7.38863 11.0494 7.99979C11.0494 8.99575 10.9433 9.93549 10.7558 10.7774C9.91908 10.9513 8.98688 11.0496 7.99962 11.0496C7.01236 11.0496 6.08015 10.9513 5.24344 10.7774C5.0559 9.93549 4.94978 8.99575 4.94978 7.99979C4.94978 7.38863 4.98974 6.79863 5.06395 6.23943ZM5.54392 11.8509C5.66093 12.1918 5.79265 12.5083 5.93672 12.7964C6.55253 14.028 7.31077 14.5995 7.99961 14.5995C8.68846 14.5995 9.4467 14.028 10.0625 12.7964C10.2066 12.5083 10.3383 12.1918 10.4553 11.8509C9.68307 11.9802 8.85636 12.0496 7.99962 12.0496C7.14288 12.0496 6.31616 11.9802 5.54392 11.8509Z" fill="#17191F"/>
</svg>
