<svg width="16" height="18" viewBox="0 0 16 18" fill="none" xmlns="http://www.w3.org/2000/svg">
<g clip-path="url(#clip0_7448_11376)">
<path d="M8.00513 3.73149C7.76812 3.73348 7.54206 3.69609 7.28072 3.6273L7.51933 2.58681C7.73071 2.64246 7.86986 2.66116 7.99728 2.66009C8.12756 2.659 8.26955 2.63714 8.49121 2.58418L8.70884 3.62993C8.46092 3.68916 8.23926 3.72952 8.00513 3.73149Z" fill="#17191F"/>
<path d="M6.98301 5.77076C7.35628 5.86699 7.67275 5.92026 8.00101 5.91943C8.32837 5.9186 8.64375 5.86399 9.0135 5.77164L8.78645 4.72819C8.45303 4.81147 8.21981 4.84745 7.99866 4.848C7.77841 4.84856 7.54646 4.81401 7.21694 4.72906L6.98301 5.77076Z" fill="#17191F"/>
<path d="M8.00515 8.07773C7.64642 8.08022 7.29867 8.02306 6.88068 7.91301L7.11932 6.87253C7.48917 6.96991 7.75006 7.00805 7.99868 7.00633C8.24964 7.00458 8.51221 6.96217 8.8892 6.87038L9.1108 7.91516C8.70505 8.01396 8.36155 8.07526 8.00515 8.07773Z" fill="#17191F"/>
<path fill-rule="evenodd" clip-rule="evenodd" d="M3.30181 8.14295C3.30061 8.07166 3.3 8.00015 3.3 7.92843C3.3 5.88956 3.78987 4.01857 4.60832 2.64056C5.423 1.26891 6.60996 0.321289 8 0.321289C9.39004 0.321289 10.577 1.26891 11.3917 2.64056C12.2101 4.01857 12.7 5.88956 12.7 7.92843C12.7 8.00015 12.6994 8.07166 12.6982 8.14295C12.7502 8.14171 12.8024 8.1411 12.8546 8.1411H14.8156L14.095 9.69037C13.8998 10.1102 13.3906 11.2562 13.0825 12.1809L13.0572 12.2568C12.7327 13.2314 12.3301 14.4407 11.6131 15.3892C10.8342 16.4196 9.7189 17.1094 8.10963 17.14L8.10461 17.1412H7.8955L7.89048 17.14C6.2812 17.1094 5.16592 16.4196 4.38703 15.3892C3.66999 14.4407 3.26742 13.2314 2.94296 12.2568L2.91767 12.1809C2.60956 11.2562 2.10028 10.1103 1.90498 9.6904L1.18439 8.1411H3.14527C3.19753 8.1411 3.24971 8.14172 3.30181 8.14295ZM4.77755 4.73884C4.90917 4.32991 5.06488 3.94884 5.24066 3.60129C5.34249 3.62749 5.44391 3.64762 5.5486 3.6603C5.78411 3.68883 6.01258 3.67696 6.2792 3.63781L6.14341 2.5763C6.03698 2.59193 5.94893 2.60058 5.87182 2.60349C6.50226 1.8111 7.24569 1.39272 8 1.39272C8.75417 1.39272 9.49747 1.81095 10.1278 2.60306C10.0533 2.59978 9.96842 2.59122 9.86685 2.5763L9.73106 3.63781C9.99767 3.67696 10.2261 3.68883 10.4617 3.6603C10.5632 3.648 10.6617 3.62868 10.7605 3.60361C10.936 3.95096 11.0915 4.33174 11.2229 4.74032C10.9734 4.77756 10.722 4.76952 10.3638 4.71882L10.2328 5.78101C10.7192 5.84987 11.0906 5.85643 11.4917 5.779C11.5623 6.1314 11.6162 6.49808 11.6515 6.87634C11.3516 6.92979 11.0592 6.92539 10.6279 6.86202L10.492 7.92352C10.9601 7.99228 11.3268 8.00501 11.7 7.95173C11.6998 8.05016 11.6983 8.14802 11.6957 8.24528C10.2255 8.51419 8.89243 9.30165 7.99998 10.5835C7.10752 9.30169 5.77443 8.51424 4.30435 8.2453C4.30166 8.14747 4.30021 8.04902 4.30002 7.95C4.67734 8.00529 5.04684 7.99301 5.51994 7.92352L5.38411 6.86202C4.94707 6.92622 4.65279 6.9299 4.34871 6.87422C4.38404 6.49602 4.438 6.12941 4.50868 5.77709C4.91361 5.85654 5.2871 5.85043 5.77742 5.78101L5.64641 4.71882C5.28362 4.77018 5.03027 4.77777 4.77755 4.73884ZM8.00233 16.0697L8.00004 16.0691L7.99776 16.0697C5.27432 16.067 4.54425 13.8759 3.85945 11.8206C3.69254 11.3197 3.47349 10.7658 3.2721 10.2856C3.22878 10.1823 3.18627 10.0823 3.14527 9.98712C3.00163 9.65345 2.87658 9.37716 2.8 9.21252H3.14527C3.4132 9.21252 3.67727 9.23108 3.9356 9.26789C5.40182 9.4768 6.68292 10.2736 7.43324 11.602C7.68771 12.0525 7.88113 12.5642 8.00001 13.1349C8.11888 12.5642 8.31229 12.0525 8.56676 11.602C9.31706 10.2735 10.5982 9.47673 12.0645 9.26786C12.3227 9.23107 12.5867 9.21252 12.8546 9.21252H13.2C13.1234 9.37724 12.9983 9.6537 12.8546 9.98757C12.8137 10.0827 12.7712 10.1824 12.728 10.2856C12.5266 10.7658 12.3076 11.3197 12.1407 11.8206C11.4559 13.8759 10.7258 16.067 8.00233 16.0697Z" fill="#17191F"/>
</g>
<defs>
<clipPath id="clip0_7448_11376">
<rect width="16" height="17.1429" fill="white"/>
</clipPath>
</defs>
</svg>
