<svg width="16" height="16" viewBox="0 0 16 16" fill="none" xmlns="http://www.w3.org/2000/svg">
<path fill-rule="evenodd" clip-rule="evenodd" d="M15.1633 0.169922H14.6634H14.6632H11.4966V1.16992H13.4562L11.3097 3.31637C11.2995 3.32654 11.2899 3.33704 11.2808 3.34783C10.388 2.61192 9.24394 2.16992 7.99662 2.16992C5.14315 2.16992 2.82996 4.48312 2.82996 7.33659C2.82996 10.0214 4.87775 12.2279 7.49661 12.4794V13.8364H5.82994V14.8364H7.49661V15.8365H8.49661V14.8364H10.1633V13.8364H8.49661V12.4794C11.1155 12.2279 13.1633 10.0214 13.1633 7.33659C13.1633 6.08926 12.7213 4.94517 11.9854 4.0524C11.9962 4.04329 12.0067 4.03364 12.0168 4.02348L14.1633 1.87702V3.83659H15.1633V0.169922ZM8.02289 11.5032H7.97036C5.68126 11.489 3.82996 9.62901 3.82996 7.33659C3.82996 5.0354 5.69544 3.16992 7.99662 3.16992C10.2978 3.16992 12.1633 5.0354 12.1633 7.33659C12.1633 9.62901 10.312 11.489 8.02289 11.5032ZM10.4966 6.83643H5.49661V5.83643H10.4966V6.83643ZM5.49661 8.83642H10.4966V7.83643H5.49661V8.83642Z" fill="#17191F"/>
</svg>
