<svg width="16" height="16" viewBox="0 0 16 16" fill="none" xmlns="http://www.w3.org/2000/svg">
<path fill-rule="evenodd" clip-rule="evenodd" d="M8.49998 5.0103L8.50001 1H7.50001L7.5 2.39814C6.82432 1.64704 5.48372 1.08884 3.6 1.89614C3.93492 4.24059 6.35303 4.19423 7.49999 3.77087L7.49998 5.02558C7.48107 5.01377 7.46187 5.00214 7.4424 4.99071C6.94708 4.69988 6.25476 4.5 5.19338 4.5C3.88548 4.5 2.92811 4.9148 2.31169 5.66761C1.71048 6.40185 1.5 7.37824 1.5 8.375C1.5 9.80407 2.03923 11.3131 2.89548 12.4694C3.74735 13.6198 4.97705 14.5 6.39089 14.5C6.82751 14.5 7.21883 14.4489 7.53787 14.3672C7.69224 14.3276 7.84717 14.2765 7.98759 14.2112C8.128 14.2765 8.28293 14.3276 8.4373 14.3672C8.75634 14.4489 9.14766 14.5 9.58427 14.5C9.95139 14.5 10.2551 14.4338 10.4935 14.3482C10.668 14.5161 10.8325 14.6808 10.9807 14.8428C11.2737 15.163 11.5027 15.4722 11.6171 15.7728C11.7315 15.4722 11.9604 15.163 12.2534 14.8428C12.5423 14.5271 12.8934 14.2007 13.2585 13.8614C14.1769 13.0077 15.1836 12.072 15.5091 11.0182C15.5792 10.8007 15.617 10.5685 15.617 10.3273C15.617 9.49236 15.1632 8.76472 14.4916 8.38344C14.548 7.42779 14.3205 6.49049 13.7422 5.76617C13.1079 4.9716 12.1046 4.5 10.7818 4.5C9.72041 4.5 9.02808 4.69988 8.53276 4.9907C8.52175 4.99717 8.51082 5.00371 8.49998 5.0103ZM13.5001 8.10174C13.4725 8.10071 13.4449 8.10019 13.4171 8.10019C13.0352 8.10019 12.676 8.19871 12.363 8.37202C12.0662 8.53635 11.8109 8.76793 11.6171 9.04651C11.4233 8.76792 11.168 8.53633 10.8712 8.37198C10.5582 8.19864 10.199 8.1001 9.81703 8.1001C8.60202 8.1001 7.61707 9.09722 7.61707 10.3272C7.61707 10.5688 7.65505 10.8013 7.7253 11.0191C8.00577 11.9259 8.79043 12.7452 9.58904 13.5C9.58745 13.5 9.58586 13.5 9.58427 13.5C9.22254 13.5 8.91531 13.4573 8.68549 13.3985C8.57052 13.369 8.48066 13.337 8.41591 13.3075C8.35956 13.2819 8.33492 13.264 8.33018 13.2606C8.32912 13.2598 8.32905 13.2598 8.32984 13.2605L7.98758 12.939L7.64524 13.2606C7.64612 13.2598 7.64609 13.2598 7.64499 13.2606C7.64025 13.264 7.61562 13.2819 7.55926 13.3075C7.4945 13.337 7.40464 13.369 7.28967 13.3985C7.05986 13.4573 6.75262 13.5 6.39089 13.5C5.40971 13.5 4.44396 12.8802 3.69914 11.8743C2.9587 10.8744 2.5 9.57093 2.5 8.375C2.5 7.49676 2.68869 6.78565 3.08541 6.30114C3.46692 5.83521 4.10624 5.5 5.19338 5.5C6.12786 5.5 6.63305 5.67513 6.93608 5.85305C7.1645 5.98717 7.28108 6.11177 7.41982 6.26006C7.48532 6.33007 7.55576 6.40536 7.64524 6.48942L7.98758 6.81103L8.32993 6.48942C8.41941 6.40536 8.48985 6.33007 8.55535 6.26006C8.69408 6.11177 8.81066 5.98717 9.03909 5.85305C9.34211 5.67513 9.84731 5.5 10.7818 5.5C11.854 5.5 12.5472 5.87216 12.9607 6.39008C13.3138 6.83235 13.5003 7.428 13.5001 8.10174ZM8.68064 10.7236L8.68071 10.7236L8.67702 10.7122C8.6384 10.5924 8.61707 10.4634 8.61707 10.3272C8.61707 9.6379 9.16584 9.1001 9.81703 9.1001C10.2167 9.1001 10.575 9.29957 10.7961 9.6175L11.617 10.7978L12.438 9.61754C12.6591 9.29963 13.0174 9.10019 13.4171 9.10019C14.0683 9.10019 14.617 9.63799 14.617 10.3273C14.617 10.4633 14.5958 10.5921 14.5573 10.7117L14.5572 10.7116L14.5537 10.723C14.4491 11.0617 14.215 11.4369 13.8487 11.8619C13.484 12.285 13.0448 12.6947 12.5777 13.1289L12.5601 13.1453L12.5601 13.1453C12.2449 13.4383 11.9107 13.7489 11.6171 14.0588C11.3235 13.7489 10.9893 13.4383 10.6741 13.1453L10.6565 13.1289C10.1895 12.6949 9.75041 12.2853 9.38576 11.8623C9.01948 11.4374 8.78538 11.0622 8.68064 10.7236Z" fill="#17191F"/>
</svg>
