<svg width="16" height="16" viewBox="0 0 16 16" fill="none" xmlns="http://www.w3.org/2000/svg">
<path d="M5.21436 0.5H10.7858V1C10.7858 1.18748 10.8912 1.62673 11.1484 2.07694C11.3872 2.49482 11.7101 2.8399 12.0921 3H13C14.3807 3 15.5 4.11929 15.5 5.5V11.5C15.5 12.8807 14.3807 14 13 14H3C1.61929 14 0.5 12.8807 0.5 11.5V5.5C0.5 4.11929 1.61929 3 3 3H3.90789C4.28994 2.8399 4.61282 2.49481 4.85161 2.07693C5.10888 1.62672 5.21432 1.18746 5.21433 0.999974L5.21436 0.5ZM10.2802 2.57307C10.077 2.21751 9.92984 1.83645 9.85121 1.5H6.14886C6.07022 1.83645 5.92304 2.21751 5.71985 2.57307C5.63858 2.71531 5.54481 2.85966 5.43805 3H10.562C10.4552 2.85966 10.3615 2.7153 10.2802 2.57307ZM3 4C2.17157 4 1.5 4.67157 1.5 5.5V11.5C1.5 12.3284 2.17157 13 3 13H13C13.8284 13 14.5 12.3284 14.5 11.5V5.5C14.5 4.67157 13.8284 4 13 4H3ZM7 5.5H9V7.5H11V9.5H9V11.5H7V9.5H5V7.5H7V5.5Z" fill="#17191F"/>
</svg>
