<svg width="16" height="16" viewBox="0 0 16 16" fill="none" xmlns="http://www.w3.org/2000/svg">
<path fill-rule="evenodd" clip-rule="evenodd" d="M3.50003 4.29373V2.6001C3.50003 1.77167 4.1716 1.1001 5.00003 1.1001C5.24898 1.1001 5.48376 1.16074 5.69042 1.26807C5.9471 0.809773 6.43739 0.5 7.00003 0.5C7.50024 0.5 7.94327 0.744848 8.2158 1.12123C8.44398 0.981011 8.71256 0.900146 9.00003 0.900146C9.62671 0.900146 10.1636 1.28445 10.388 1.83024C10.5749 1.74661 10.782 1.7001 11 1.7001C11.8285 1.7001 12.5 2.37167 12.5 3.2001V5.2001C12.5 5.25112 12.4975 5.30155 12.4925 5.35127C12.4662 7.194 12.3529 8.52844 11.8938 9.5973C11.8069 9.7996 11.7161 9.96133 11.6298 10.1149C11.4254 10.4788 11.2468 10.7968 11.2079 11.5H12V15.5H4V11.5H4.53631C4.47439 10.9867 4.25455 10.5821 3.9641 10.0476C3.92287 9.97171 3.88005 9.8929 3.83623 9.81111C3.42659 9.04654 3 8.11296 3 6.59946C3 5.82722 3.08584 4.96436 3.49798 4.29704C3.49866 4.29593 3.49935 4.29483 3.50003 4.29373ZM5.00003 2.1001C5.27617 2.1001 5.50003 2.32396 5.50003 2.6001V3.2192C5.12757 3.23435 4.79431 3.30445 4.50003 3.43012V2.6001C4.50003 2.32396 4.72389 2.1001 5.00003 2.1001ZM5.54096 11.5H10.2075C10.2595 10.4912 10.5689 9.94496 10.7981 9.5404C10.8676 9.41779 10.9297 9.3082 10.975 9.20267C11.2569 8.54626 11.3898 7.74424 11.4509 6.63116C11.3086 6.67595 11.1571 6.7001 11 6.7001C10.4546 6.7001 9.9771 6.40895 9.71457 5.97357C9.63216 6.07202 9.54046 6.16571 9.43934 6.25306C9.05977 6.58091 8.56864 6.80411 7.96987 6.87474C8.01213 6.93921 8.05124 7.00409 8.08736 7.06883C8.38548 7.60313 8.5 8.16164 8.5 8.5H7.5C7.5 8.33836 7.43216 7.9469 7.2141 7.55607C7.00266 7.17712 6.67007 6.8325 6.15633 6.67838L6.44213 5.72009C7.67408 6.08536 8.39665 5.83229 8.78566 5.49628C9.05898 5.2602 9.20548 4.95507 9.25561 4.68266C8.3589 4.62959 7.0759 4.45881 6.37875 4.28454C6.25585 4.25382 6.05843 4.23091 5.80073 4.21937C5.36997 4.20009 5.06424 4.26686 4.84476 4.37144C4.62938 4.47406 4.47044 4.62555 4.3488 4.8225C4.0915 5.23911 4 5.86011 4 6.59946C4 7.88656 4.35037 8.65326 4.71769 9.33884C4.75841 9.41485 4.8004 9.49134 4.84287 9.56871C5.14545 10.1199 5.47259 10.7158 5.54096 11.5ZM9.50003 3.69388V2.40015C9.50003 2.124 9.27617 1.90015 9.00003 1.90015C8.72389 1.90015 8.50003 2.124 8.50003 2.40015V3.61441C8.86522 3.65389 9.21573 3.68241 9.50003 3.69388ZM7.50003 3.48312V2C7.50003 1.72386 7.27617 1.5 7.00003 1.5C6.72389 1.5 6.50003 1.72386 6.50003 2V3.2879C6.54193 3.29589 6.58244 3.30469 6.62125 3.31439C6.85181 3.37203 7.16056 3.43013 7.50003 3.48312ZM11.5 4.00004V3.2001C11.5 2.92396 11.2762 2.7001 11 2.7001C10.7239 2.7001 10.5 2.92396 10.5 3.2001V5.2001C10.5 5.47624 10.7239 5.7001 11 5.7001C11.2468 5.7001 11.4519 5.52126 11.4927 5.28609C11.4982 4.89017 11.5 4.46285 11.5 4.00004ZM5 12.5H11V14.5H5V12.5Z" fill="#17191F"/>
</svg>
