<svg width="16" height="16" viewBox="0 0 16 16" fill="none" xmlns="http://www.w3.org/2000/svg">
<g clip-path="url(#clip0_7448_11333)">
<path fill-rule="evenodd" clip-rule="evenodd" d="M13.2333 5.4978C13.4794 5.3816 13.7156 5.2538 13.9371 5.11483C14.3613 5.98638 14.5994 6.9653 14.5994 7.99982C14.5994 8.10918 14.5967 8.21792 14.5914 8.32597C14.5888 8.34794 14.5855 8.37 14.5814 8.39214L15.5237 9.0767C15.5736 8.72492 15.5994 8.36538 15.5994 7.99982C15.5994 3.80263 12.1969 0.400146 7.99969 0.400146C3.80251 0.400146 0.400024 3.80263 0.400024 7.99982C0.400024 12.197 3.80251 15.5995 7.99969 15.5995C8.35796 15.5995 8.71043 15.5747 9.05549 15.5267L8.69312 14.4115C8.45947 14.5379 8.2258 14.5995 7.99961 14.5995C7.31077 14.5995 6.55253 14.028 5.93672 12.7964C5.79265 12.5083 5.66093 12.1918 5.54392 11.8509C6.29391 11.9764 7.09529 12.0456 7.92565 12.0494L7.59903 11.0442C6.75996 11.0214 5.96608 10.9276 5.24344 10.7774C5.0559 9.93549 4.94978 8.99575 4.94978 7.99979C4.94978 7.38863 4.98974 6.79863 5.06395 6.23943C5.96961 6.42588 6.96262 6.52763 7.99962 6.52763C9.03662 6.52763 10.0296 6.42588 10.9353 6.23943C11.0068 6.77851 11.0465 7.34619 11.0493 7.93388L12.0291 7.22201C12.007 6.8029 11.9673 6.3932 11.9112 5.99596C12.3885 5.85447 12.8319 5.68736 13.2333 5.4978ZM7.99969 1.40015L7.99095 1.40015C7.30441 1.40492 6.54995 1.9767 5.93672 3.20317C5.64691 3.78278 5.40708 4.47716 5.23642 5.25392C6.07493 5.42879 7.0096 5.52763 7.99962 5.52763C8.98964 5.52763 9.92429 5.4288 10.7628 5.25393C10.5921 4.47717 10.3523 3.78278 10.0625 3.20317C9.44927 1.97668 8.69479 1.4049 8.00824 1.40015L7.99969 1.40015ZM10.9569 2.75596C10.7961 2.43436 10.6152 2.13124 10.4155 1.85632C11.6441 2.33981 12.6926 3.18117 13.4327 4.25202C13.2476 4.3693 13.0391 4.48362 12.8063 4.59355C12.4822 4.74662 12.1222 4.88497 11.732 5.00542C11.5456 4.16833 11.2825 3.407 10.9569 2.75596ZM5.04229 13.2436C5.20309 13.5652 5.38398 13.8683 5.58366 14.1432C3.92171 13.4891 2.58923 12.1801 1.9041 10.534C2.17 10.7133 2.46032 10.8755 2.76589 11.0198C3.25957 11.2529 3.81676 11.4521 4.42236 11.6114C4.59007 12.2076 4.79871 12.7565 5.04229 13.2436ZM3.1929 10.1155C2.03673 9.56957 1.48012 8.91513 1.40804 8.32799C1.40272 8.21927 1.40002 8.10986 1.40002 7.99982C1.40002 6.96533 1.63804 5.98643 2.0623 5.1149C2.28375 5.25384 2.51988 5.38162 2.76589 5.4978C3.16731 5.68735 3.61072 5.85447 4.088 5.99596C3.99763 6.63583 3.94978 7.30805 3.94978 7.99979C3.94978 8.87135 4.02575 9.71193 4.16699 10.4959C3.81525 10.383 3.48911 10.2554 3.1929 10.1155ZM3.1929 4.59355C2.96016 4.48364 2.75172 4.36934 2.56664 4.25208C3.30668 3.18128 4.35513 2.33992 5.58361 1.8564C5.38394 2.13131 5.20307 2.43439 5.04229 2.75596C4.71677 3.407 4.45362 4.16833 4.26722 5.00542C3.87705 4.88497 3.51706 4.74662 3.1929 4.59355Z" fill="#17191F"/>
<path d="M12.9703 9.32927L12.5004 8.03706L12.0305 9.32927C11.4155 11.0205 10.1242 11.7503 9.12632 12.121L9.4745 13.0584C10.238 12.7748 11.2133 12.2816 12.0003 11.3564V16H13.0003V11.3562C13.7874 12.2815 14.7628 12.7748 15.5263 13.0584L15.8745 12.121C14.8766 11.7503 13.5853 11.0205 12.9703 9.32927Z" fill="#17191F"/>
</g>
<defs>
<clipPath id="clip0_7448_11333">
<rect width="16" height="16" fill="white"/>
</clipPath>
</defs>
</svg>
