<svg width="16" height="17" viewBox="0 0 16 17" fill="none" xmlns="http://www.w3.org/2000/svg">
<path d="M2.51098 4.89615C2.92297 5.35928 3.63488 5.64282 4.49996 5.64282H13.5V13.1428H4.5C3.86362 13.1428 3.37216 12.9329 3.04105 12.6018C2.70994 12.2707 2.5 11.7792 2.5 11.1428V11.1358V11.1287V11.1215V11.1143V11.1071V11.0998V11.0925V11.0852V5.1526V5.14282C2.5 5.05801 2.50373 4.97577 2.51098 4.89615ZM3.45002 2.30177C3.02201 2.44023 2.64326 2.66745 2.33395 2.97677C1.79006 3.52066 1.5 4.2792 1.5 5.14282V5.1526V11.0852V11.0925V11.0998V11.1071V11.1143V11.1215V11.1287V11.1358V11.1428C1.5 12.0064 1.79006 12.765 2.33395 13.3089C2.87784 13.8528 3.63638 14.1428 4.5 14.1428H14.5V4.64282H11.5V2.14282H4.50939H4.5C4.11545 2.14282 3.76115 2.19885 3.45002 2.30177ZM3.54343 3.3367C3.81171 3.21319 4.13156 3.14282 4.49999 3.14282H4.50939H10.4812H10.4926H10.5V4.64282H4.49996C3.38333 4.64282 3.125 4.11783 3.125 3.89283C3.125 3.75643 3.21993 3.5098 3.54343 3.3367ZM11.5 9.44287C11.5 9.99516 11.0523 10.4429 10.5 10.4429C9.94771 10.4429 9.5 9.99516 9.5 9.44287C9.5 8.89059 9.94771 8.44287 10.5 8.44287C11.0523 8.44287 11.5 8.89059 11.5 9.44287Z" fill="#17191F"/>
</svg>
