<svg width="16" height="17" viewBox="0 0 16 17" fill="none" xmlns="http://www.w3.org/2000/svg">
<path fill-rule="evenodd" clip-rule="evenodd" d="M7.02531 6.50843L4.24153 4.55978L5.72847 2.51319C6.27993 1.75417 7.34228 1.58591 8.10129 2.13737C8.86031 2.68883 9.02857 3.75118 8.47711 4.51019L7.02531 6.50843ZM6.43743 7.31757L4.74327 9.64939C4.19181 10.4084 3.12946 10.5767 2.37044 10.0252C1.61142 9.47375 1.44316 8.4114 1.99462 7.65238L3.65365 5.36893L6.43743 7.31757ZM8.68908 1.32835C7.48325 0.45227 5.79553 0.719577 4.91945 1.9254L1.18561 7.0646C0.309523 8.27042 0.576832 9.95814 1.78266 10.8342C2.98848 11.7103 4.6762 11.443 5.55228 10.2372L9.28613 5.09798C10.1622 3.89215 9.8949 2.20443 8.68908 1.32835ZM12.3993 11.1421C11.766 11.1421 11.1952 10.8745 10.7938 10.4462L14.5052 8.30347C14.5664 8.50558 14.5993 8.71998 14.5993 8.94206C14.5993 10.1571 13.6143 11.1421 12.3993 11.1421ZM10.2934 9.58047C10.2322 9.37842 10.1993 9.16408 10.1993 8.94206C10.1993 7.72704 11.1843 6.74206 12.3993 6.74206C13.0325 6.74206 13.6033 7.00958 14.0046 7.43776L10.2934 9.58047ZM12.3993 12.1421C14.1666 12.1421 15.5993 10.7094 15.5993 8.94206C15.5993 7.17475 14.1666 5.74206 12.3993 5.74206C10.632 5.74206 9.19931 7.17475 9.19931 8.94206C9.19931 10.7094 10.632 12.1421 12.3993 12.1421ZM8.59932 13.342C8.59932 12.5688 7.97252 11.942 7.19932 11.942C6.42612 11.942 5.79932 12.5688 5.79932 13.342C5.79932 14.1152 6.42612 14.742 7.19932 14.742C7.97252 14.742 8.59932 14.1152 8.59932 13.342ZM9.59932 13.342C9.59932 14.6675 8.5248 15.742 7.19932 15.742C5.87383 15.742 4.79932 14.6675 4.79932 13.342C4.79932 12.0165 5.87383 10.942 7.19932 10.942C8.5248 10.942 9.59932 12.0165 9.59932 13.342Z" fill="#17191F"/>
</svg>
