<svg width="63" height="42" viewBox="0 0 63 42" fill="none" xmlns="http://www.w3.org/2000/svg">
<path d="M18.4 0.599609H17.2V1.79961V8.19961V9.39961H18.0064C18.0299 10.7667 18.139 12.2277 18.6441 13.7181C17.9864 13.6411 17.3685 13.5826 16.8 13.543V11.4011H14.56H3.03999H0.799988V13.6411V37.9611V40.2011H3.03999H14.56H16.8V37.9611V35.5178C18.7244 35.9562 20.6894 36.7554 22.8977 37.6535C23.5382 37.914 24.1992 38.1828 24.8855 38.4535C28.572 39.9077 32.8057 41.3211 38.0005 41.3211C43.2043 41.3211 47.218 39.9033 50.709 38.3946C51.4649 38.068 52.1866 37.7425 52.8845 37.4278C55.4672 36.2631 57.7232 35.2458 60.174 34.8602L61.3339 34.6778L61.097 33.5278C60.6734 31.4723 59.6964 29.9629 58.302 28.9071C57.1845 28.061 55.8501 27.5447 54.4315 27.228C57.2123 23.8947 59.0469 20.9186 60.2118 18.0513C61.4178 15.0825 61.885 12.2816 61.9806 9.39961H62.8V8.19961V1.79961V0.599609H61.6H18.4ZM60.4 6.99961H19.6V2.99961H60.4V6.99961ZM57.9882 17.1479C56.8156 20.0345 54.849 23.1474 51.6126 26.8296C50.382 26.736 49.1061 26.7221 47.8372 26.7371C46.9711 26.7474 46.1319 26.7701 45.3056 26.7925C44.7054 26.8088 44.1109 26.8249 43.518 26.8359C43.5937 24.5435 42.223 22.6132 40.3449 21.0846C38.256 19.3844 35.3255 17.9882 32.2268 16.8815C28.6769 15.6137 24.7802 14.6826 21.4269 14.1185C20.6085 12.6096 20.4421 11.0873 20.4085 9.39961L59.5792 9.39965C59.485 12.034 59.055 14.5221 57.9882 17.1479ZM16.8 15.7884C20.4343 16.0603 26.3213 17.151 31.4734 18.991C34.4742 20.0628 37.1297 21.3558 38.9308 22.8218C40.588 24.1707 41.3457 25.5066 41.2744 26.8447C36.1234 26.7789 34.0083 26.0946 29.8358 24.7445L29.8079 24.7355L29.1184 26.8667C33.6421 28.3304 36.0019 29.09 42.1248 29.09C43.183 29.09 44.3145 29.0599 45.4324 29.0302C46.262 29.0081 47.0846 28.9862 47.8637 28.977C49.7565 28.9546 51.5403 29.0011 53.1179 29.2564C54.6982 29.512 55.988 29.9647 56.9499 30.693C57.6458 31.2199 58.2114 31.9218 58.5873 32.8916C56.2647 33.4384 54.0445 34.4421 51.8166 35.4493C51.1529 35.7493 50.4884 36.0497 49.8203 36.3384C46.4523 37.794 42.7641 39.0811 38.0005 39.0811C33.2281 39.0811 29.3069 37.7896 25.7075 36.3698C25.0873 36.1251 24.4704 35.8735 23.8562 35.6229C21.4791 34.6531 19.1404 33.699 16.8 33.2292V15.7884ZM3.03999 13.6411H14.56V37.9611H3.03999V13.6411Z" fill="#17191F"/>
</svg>