<svg width="16" height="18" viewBox="0 0 16 18" fill="none" xmlns="http://www.w3.org/2000/svg">
<path fill-rule="evenodd" clip-rule="evenodd" d="M14.7051 1.77417C14.0272 1.30247 13.3365 1.27917 12.7084 1.54716C12.1114 1.80185 11.5953 2.30688 11.1725 2.84742C10.3235 3.93269 9.70729 5.34942 9.46379 5.94839L9.29464 6.36445L12.9919 8.93696L13.2778 8.60216C13.6895 8.12019 14.6468 6.9408 15.2268 5.6684C15.5157 5.03466 15.7365 4.32416 15.7108 3.63625C15.6838 2.9124 15.383 2.24587 14.7051 1.77417ZM12.8207 7.54034L10.555 5.9639C10.8456 5.30253 11.3332 4.30993 11.9389 3.53566C12.3163 3.05325 12.7041 2.70221 13.0783 2.54258C13.4213 2.39626 13.769 2.4004 14.1605 2.67275C14.5519 2.94509 14.6969 3.28381 14.7116 3.67903C14.7277 4.11019 14.5861 4.63258 14.3283 5.19818C13.9145 6.10595 13.2665 6.98695 12.8207 7.54034Z" fill="#17191F"/>
<path fill-rule="evenodd" clip-rule="evenodd" d="M9.07903 6.95902L8.37569 8.11945C7.74919 9.15308 8.02337 10.5352 8.9881 11.2064C9.95282 11.8777 11.2428 11.5839 11.8693 10.5503L12.5726 9.38983L9.07903 6.95902ZM9.21436 8.70299L9.37307 8.44114L11.1893 9.70487L11.0306 9.96671C10.7049 10.5041 10.0343 10.6568 9.53274 10.3078C9.0312 9.95887 8.88865 9.24035 9.21436 8.70299Z" fill="#17191F"/>
<path fill-rule="evenodd" clip-rule="evenodd" d="M5.91285 4.88006C5.12477 4.50412 4.40118 4.59964 3.79044 5.00299C3.21143 5.38538 2.76343 6.02286 2.41771 6.68479C1.72857 8.00424 1.33075 9.65197 1.15269 10.3895L1.02556 10.9149L5.00066 12.8111L5.26961 12.3751L5.27741 12.3625C5.66825 11.7296 6.5454 10.3092 6.99999 8.87577C7.22804 8.15668 7.3707 7.37237 7.24861 6.65458C7.11984 5.8975 6.70182 5.25642 5.91285 4.88006ZM4.63261 11.4627L2.20699 10.3056C2.40952 9.49355 2.75842 8.22649 3.29037 7.20801C3.60213 6.6111 3.94783 6.15766 4.31516 5.91507C4.65076 5.69343 5.02615 5.6299 5.50611 5.85886C5.98656 6.08804 6.19396 6.43009 6.26482 6.84667C6.34236 7.30255 6.25886 7.88244 6.05316 8.53107C5.70303 9.63511 5.05945 10.7591 4.63261 11.4627Z" fill="#17191F"/>
<path fill-rule="evenodd" clip-rule="evenodd" d="M0.983986 11.2584L0.458724 12.5225C-0.00914592 13.6484 0.463456 14.9675 1.51431 15.4688C2.56516 15.9701 3.79633 15.4637 4.2642 14.3378L4.78946 13.0738L0.983986 11.2584ZM1.37227 12.9582L1.49079 12.673L3.46918 13.6168L3.35066 13.902C3.10742 14.4873 2.46736 14.7506 1.92105 14.49C1.37473 14.2294 1.12903 13.5436 1.37227 12.9582Z" fill="#17191F"/>
</svg>
