<svg width="16" height="17" viewBox="0 0 16 17" fill="none" xmlns="http://www.w3.org/2000/svg">
<path d="M11.6496 1.12775L11.1999 0.202881L10.7503 1.12775C10.3436 1.96426 9.86177 2.55835 9.41809 3.10546C9.3584 3.17907 9.29939 3.25183 9.24135 3.32421C8.77066 3.91124 8.29993 4.54228 8.29993 5.38849C8.29993 6.97516 9.60668 8.24638 11.1999 8.24638C12.7932 8.24638 14.0999 6.97516 14.0999 5.38849C14.0999 4.54228 13.6292 3.91124 13.1585 3.32421C13.1005 3.25191 13.0416 3.17923 12.982 3.1057L12.9818 3.10546C12.5381 2.55835 12.0563 1.96426 11.6496 1.12775ZM9.29993 5.38849C9.29993 4.93246 9.53788 4.55297 10.0215 3.94977C10.076 3.88178 10.133 3.81169 10.1919 3.7392L10.1919 3.73914L10.1919 3.73913L10.192 3.73912C10.4977 3.36281 10.8561 2.92172 11.1999 2.37392C11.5438 2.92173 11.9022 3.36282 12.2079 3.73914L12.208 3.7392C12.2669 3.81169 12.3238 3.88178 12.3783 3.94977C12.862 4.55297 13.0999 4.93246 13.0999 5.38849C13.0999 6.40627 12.2576 7.24638 11.1999 7.24638C10.1422 7.24638 9.29993 6.40627 9.29993 5.38849ZM4.40002 8.66393V12.5795C5.02681 12.6995 5.64976 12.954 6.2574 13.2022C6.40844 13.2639 6.55854 13.3252 6.70751 13.3839C7.59882 13.7355 8.54842 14.0464 9.70004 14.0464C10.8477 14.0464 11.7378 13.7375 12.5677 13.3788C12.7266 13.3101 12.8873 13.2374 13.0497 13.1639L13.0499 13.1638C13.5251 12.9488 14.0161 12.7266 14.5263 12.5767C14.4624 12.4829 14.3874 12.4075 14.3046 12.3448C14.1037 12.1927 13.8206 12.0883 13.4442 12.0274C13.0691 11.9667 12.6386 11.9548 12.1684 11.9604C11.9821 11.9626 11.7785 11.968 11.5711 11.9734H11.5711H11.571L11.5709 11.9734C11.2868 11.981 10.9954 11.9887 10.7311 11.9887C9.16809 11.9887 8.55351 11.7916 7.41177 11.4221L7.71962 10.4707L7.73218 10.4748C8.68937 10.7845 9.19448 10.9479 10.2709 10.9819C10.2145 10.799 10.0697 10.5969 9.79372 10.3723C9.37168 10.0288 8.73483 9.71566 7.99424 9.45116C6.72872 8.99918 5.28544 8.73209 4.40002 8.66393ZM4.40002 7.66148C5.39268 7.7288 6.96409 8.02138 8.33058 8.50942C9.11485 8.78952 9.87449 9.14868 10.425 9.59673C10.8607 9.95141 11.2258 10.4161 11.2902 10.9805C11.3645 10.9786 11.4389 10.9766 11.514 10.9745L11.5144 10.9745C11.7204 10.9689 11.9314 10.9631 12.1566 10.9604C12.6407 10.9547 13.1412 10.9654 13.604 11.0403C14.0656 11.1149 14.5272 11.259 14.9082 11.5475C15.3021 11.8458 15.5737 12.2711 15.6896 12.8337L15.7954 13.3471L15.2776 13.4285C14.6968 13.5199 14.1672 13.7585 13.5268 14.047L13.5268 14.0471C13.349 14.1271 13.1627 14.2111 12.9644 14.2968C12.0796 14.6791 11.0442 15.0464 9.70004 15.0464C8.35986 15.0464 7.27071 14.6811 6.34056 14.3142C6.16211 14.2438 5.99242 14.1749 5.82976 14.1088C5.29799 13.8928 4.84144 13.7073 4.40002 13.6013V14.5464H0.400024V7.34644H4.40002V7.66148ZM1.40002 8.34644V13.5464H3.40002V8.34644H1.40002Z" fill="#17191F"/>
</svg>
