<svg width="16" height="17" viewBox="0 0 16 17" fill="none" xmlns="http://www.w3.org/2000/svg">
<g clip-path="url(#clip0_5787_1163)">
<path fill-rule="evenodd" clip-rule="evenodd" d="M5.00013 0.642822H4.50013V1.14282V3.14282V3.64282H5.00013H5.4358C5.40734 3.8054 5.33777 4.02941 5.22086 4.30798C5.069 4.6698 4.86059 5.07043 4.64013 5.45622C4.30081 6.05003 3.95025 6.57901 3.76599 6.84277H3.40012H2.80012H2.30012V7.84277H2.63852L0.345715 13.1339C0.330098 13.1678 0.318166 13.2037 0.310431 13.2412C0.302508 13.2792 0.299175 13.3175 0.300154 13.3554C0.302286 13.7005 0.391922 14.0372 0.557796 14.3452C0.725227 14.6561 0.965426 14.9292 1.25678 15.1533C1.54804 15.3773 1.88743 15.5503 2.25334 15.6669C2.6194 15.7836 3.0088 15.8428 3.40011 15.8428C3.79143 15.8428 4.18083 15.7836 4.54689 15.6669C4.9128 15.5503 5.25219 15.3773 5.54345 15.1533C5.8348 14.9292 6.075 14.6561 6.24243 14.3452C6.40831 14.0372 6.49794 13.7005 6.50008 13.3554C6.50105 13.3175 6.49772 13.2793 6.4898 13.2412C6.48206 13.2037 6.47013 13.1678 6.45452 13.1339L4.50183 8.62767C4.52642 8.6387 4.55118 8.64918 4.57607 8.65908C4.82334 8.75743 5.1691 8.8286 5.50013 8.70413V9.14282C5.50013 9.97125 6.1717 10.6428 7.00013 10.6428C7.69186 10.6428 8.27423 10.1746 8.44759 9.53778C8.61858 9.60557 8.805 9.64282 9.00013 9.64282C9.38431 9.64282 9.73475 9.49839 10.0001 9.26087C10.2655 9.49839 10.616 9.64282 11.0001 9.64282C11.0198 9.64282 11.0395 9.64244 11.059 9.64169L9.54573 13.1339C9.53011 13.1678 9.51818 13.2037 9.51044 13.2412C9.50252 13.2792 9.49919 13.3175 9.50017 13.3554C9.5023 13.7005 9.59193 14.0372 9.75781 14.3452C9.92524 14.6561 10.1654 14.9292 10.4568 15.1533C10.748 15.3773 11.0874 15.5503 11.4534 15.6669C11.8194 15.7836 12.2088 15.8428 12.6001 15.8428C12.9914 15.8428 13.3808 15.7836 13.7469 15.6669C14.1128 15.5503 14.4522 15.3773 14.7435 15.1533C15.0348 14.9292 15.275 14.6561 15.4424 14.3452C15.6083 14.0372 15.698 13.7005 15.7001 13.3554C15.7011 13.3175 15.6977 13.2793 15.6898 13.2412C15.6821 13.2037 15.6701 13.1678 15.6545 13.1339L13.3617 7.84277H13.7001V6.84277H13.2001H12.6001H12.5001V6.14282C12.5001 5.95684 12.4663 5.77877 12.4044 5.61443C12.4463 5.04169 12.3115 4.57082 12.1688 4.19943C12.1233 4.08121 12.0697 3.95566 12.0244 3.84966C12.0016 3.7963 11.9806 3.74729 11.9642 3.70732C11.9547 3.68437 11.9461 3.66291 11.9383 3.64282H12.0001H12.5001V3.14282V1.14282V0.642822H12.0001H5.00013ZM10.8946 3.64282C10.9272 3.80414 10.9859 3.95766 11.0393 4.08747C11.0671 4.15529 11.093 4.21562 11.1182 4.27416C11.1574 4.3657 11.1949 4.453 11.2353 4.55819C11.2493 4.59457 11.2628 4.63118 11.2758 4.66809C11.1864 4.6515 11.0943 4.64282 11.0001 4.64282C10.616 4.64282 10.2655 4.78725 10.0001 5.02477C9.73475 4.78725 9.38431 4.64282 9.00013 4.64282C8.61595 4.64282 8.26551 4.78725 8.00013 5.02477C7.73475 4.78725 7.3843 4.64282 7.00013 4.64282C6.61219 4.64282 6.25865 4.79009 5.99236 5.03177C6.04589 4.91843 6.09643 4.80578 6.14293 4.69498C6.28781 4.3498 6.4132 3.97783 6.44376 3.64282H10.8946ZM5.50013 2.64282V1.64282H11.5001V2.64282H5.50013ZM9.50013 6.14282V8.14282C9.50013 8.41896 9.27627 8.64282 9.00013 8.64282C8.72398 8.64282 8.50013 8.41896 8.50013 8.14282V6.14282C8.50013 5.86668 8.72398 5.64282 9.00013 5.64282C9.27627 5.64282 9.50013 5.86668 9.50013 6.14282ZM10.5001 8.14282V6.14282C10.5001 5.86668 10.724 5.64282 11.0001 5.64282C11.2763 5.64282 11.5001 5.86668 11.5001 6.14282V8.14282C11.5001 8.41896 11.2763 8.64282 11.0001 8.64282C10.724 8.64282 10.5001 8.41896 10.5001 8.14282ZM7.50013 6.14282V8.14282V9.14282C7.50013 9.41896 7.27627 9.64282 7.00013 9.64282C6.72398 9.64282 6.50013 9.41896 6.50013 9.14282V6.14282C6.50013 5.86668 6.72398 5.64282 7.00013 5.64282C7.27627 5.64282 7.50013 5.86668 7.50013 6.14282ZM5.5132 5.94392C5.50458 6.00899 5.50013 6.07539 5.50013 6.14282V6.84277H4.96767C5.13637 6.57986 5.32507 6.27314 5.50837 5.95237L5.5132 5.94392ZM3.40012 14.0428C3.9779 14.0428 4.73936 13.9372 5.39668 13.8016C5.38596 13.8248 5.3744 13.848 5.36197 13.8711C5.26808 14.0455 5.12525 14.2134 4.93374 14.3607C4.74213 14.5081 4.50827 14.6297 4.2433 14.7141C3.97846 14.7985 3.69167 14.8428 3.40011 14.8428C3.10856 14.8428 2.82177 14.7985 2.55693 14.7141C2.29196 14.6297 2.0581 14.5081 1.86649 14.3607C1.67498 14.2134 1.53215 14.0455 1.43826 13.8711C1.42583 13.848 1.41427 13.8248 1.40355 13.8016C2.06087 13.9372 2.82233 14.0428 3.40012 14.0428ZM5.22674 12.8156C4.6152 12.9434 3.90519 13.0428 3.40012 13.0428C2.89504 13.0428 2.18503 12.9434 1.57349 12.8156L3.40012 8.6003L5.22674 12.8156ZM14.5967 13.8016C14.586 13.8248 14.5744 13.848 14.562 13.8711C14.4681 14.0455 14.3253 14.2134 14.1337 14.3607C13.9421 14.5081 13.7083 14.6297 13.4433 14.7141C13.1785 14.7985 12.8917 14.8428 12.6001 14.8428C12.3086 14.8428 12.0218 14.7985 11.7569 14.7141C11.492 14.6297 11.2581 14.5081 11.0665 14.3607C10.875 14.2134 10.7322 14.0455 10.6383 13.8711C10.6258 13.848 10.6143 13.8248 10.6036 13.8016C11.2609 13.9372 12.0223 14.0428 12.6001 14.0428C13.1779 14.0428 13.9394 13.9372 14.5967 13.8016ZM12.6001 8.6003L14.4267 12.8156C13.8152 12.9434 13.1052 13.0428 12.6001 13.0428C12.0951 13.0428 11.385 12.9434 10.7735 12.8156L12.6001 8.6003Z" fill="#17191F"/>
</g>
<defs>
<clipPath id="clip0_5787_1163">
<rect width="16" height="16" fill="white" transform="translate(0 0.142822)"/>
</clipPath>
</defs>
</svg>
