<svg width="16" height="17" viewBox="0 0 16 17" fill="none" xmlns="http://www.w3.org/2000/svg">
<path fill-rule="evenodd" clip-rule="evenodd" d="M8.05107 0.142822C7.68071 0.883538 7.25362 1.2889 6.9113 2.04284H1.15106V9.44223L0 10.1106L0.502136 10.9754L1.15106 10.5986V11.8428H4.59644L3.56867 15.6113L4.49827 15.9665C5.20184 14.5593 6.61271 13.8429 8.05106 13.8429C9.4894 13.8429 10.9003 14.5593 11.6038 15.9665L12.5334 15.6113L11.5057 11.8428H14.9511V2.04284H9.19083C8.84851 1.2889 8.42143 0.883537 8.05107 0.142822ZM2.15106 10.0179L6.41544 7.54185C6.42722 7.54254 6.43909 7.54289 6.45104 7.54289C6.78241 7.54289 7.05104 7.27426 7.05104 6.94289C7.05104 6.61152 6.78241 6.34289 6.45104 6.34289C6.21503 6.34289 6.01084 6.47916 5.91287 6.67731L2.15106 8.86159V3.04284H13.9511V10.8428H2.15106V10.0179ZM5.63297 11.8428H10.4691L10.9916 13.7586C10.1255 13.1464 9.08356 12.8429 8.05106 12.8429C7.01855 12.8429 5.97661 13.1464 5.11049 13.7586L5.63297 11.8428Z" fill="#17191F"/>
</svg>
