<svg width="16" height="17" viewBox="0 0 16 17" fill="none" xmlns="http://www.w3.org/2000/svg">
<path fill-rule="evenodd" clip-rule="evenodd" d="M8.45121 1.92744L8.00004 0.98291L7.54887 1.92744C6.73234 3.63686 5.76076 4.85576 4.89819 5.93791C4.78243 6.08313 4.66863 6.2259 4.55744 6.36705C3.6352 7.53779 2.83337 8.66229 2.83337 10.143C2.83337 12.9964 5.14657 15.3096 8.00004 15.3096C10.8535 15.3096 13.1667 12.9964 13.1667 10.143C13.1667 8.66229 12.3649 7.53779 11.4426 6.36705C11.3316 6.22609 11.218 6.08352 11.1024 5.9385L11.1019 5.93791C10.2393 4.85576 9.26774 3.63687 8.45121 1.92744ZM3.83337 10.143C3.83337 9.04629 4.40955 8.17079 5.34298 6.98586C5.45071 6.8491 5.56248 6.70901 5.67745 6.5649L5.67751 6.56483C6.39499 5.66555 7.23707 4.6101 8.00004 3.23362C8.76302 4.6101 9.60509 5.66555 10.3226 6.56483L10.3227 6.56497C10.4376 6.70905 10.5494 6.84912 10.6571 6.98586C11.5905 8.17079 12.1667 9.04629 12.1667 10.143C12.1667 12.4441 10.3012 14.3096 8.00004 14.3096C5.69885 14.3096 3.83337 12.4441 3.83337 10.143ZM8.23529 12.3193C7.56793 12.4528 7.05774 12.257 6.67532 11.9179C6.27739 11.565 6.0104 11.0463 5.90327 10.5605L5.7956 10.0723L4.81906 10.2876L4.92674 10.7759C5.07132 11.4315 5.43017 12.1502 6.01183 12.666C6.60899 13.1956 7.43213 13.4998 8.43141 13.2999L8.9217 13.2019L8.72558 12.2213L8.23529 12.3193Z" fill="#17191F"/>
</svg>
