<svg width="16" height="17" viewBox="0 0 16 17" fill="none" xmlns="http://www.w3.org/2000/svg">
<path d="M1.43047 5.46816L1.43059 5.46179C1.45589 3.94468 2.67554 2.74292 4.1513 2.74292C5.06555 2.74292 5.87867 3.20102 6.37508 3.9148L7.19601 5.09522L8.01701 3.91485C8.51342 3.20114 9.3265 2.7431 10.2407 2.7431C11.3959 2.7431 12.3943 3.47958 12.7855 4.52731C12.5311 4.47201 12.2669 4.44287 11.9959 4.44287C9.95248 4.44287 8.29593 6.09942 8.29593 8.14287C8.29593 9.14192 8.69189 10.0485 9.33543 10.7142C9.32068 10.7279 9.30593 10.7416 9.29117 10.7553L9.27243 10.7728C8.6643 11.338 8.04121 11.9171 7.52282 12.4852C7.41171 12.6069 7.302 12.7317 7.19563 12.8594C7.08927 12.7317 6.97957 12.6069 6.86846 12.4852C6.35008 11.9172 5.72699 11.338 5.11886 10.7728L5.1001 10.7553C4.31184 10.0226 3.53644 9.30043 2.88859 8.54724C2.23908 7.79212 1.77574 7.07009 1.5622 6.36471L1.55894 6.35434C1.48795 6.12872 1.44452 5.8898 1.43318 5.64117L1.43307 5.63895C1.43103 5.59617 1.42999 5.55334 1.42999 5.51043C1.42999 5.49569 1.43016 5.48161 1.43047 5.46816ZM13.926 4.98555C13.6738 3.15339 12.12 1.7431 10.2407 1.7431C9.3472 1.7431 8.52726 2.0619 7.8858 2.59327C7.6237 2.81039 7.3914 3.06299 7.19606 3.34384C7.00073 3.06298 6.76845 2.81036 6.50636 2.59323C5.86488 2.06178 5.04487 1.74292 4.1513 1.74292C2.11758 1.74292 0.464927 3.39455 0.430733 5.44512C0.43024 5.46649 0.429993 5.48826 0.429993 5.51043C0.429993 5.56942 0.431414 5.62819 0.434217 5.68675C0.449547 6.02269 0.508342 6.34714 0.60504 6.65447C1.14765 8.44682 2.8588 10.0373 4.41929 11.4878C5.25225 12.262 6.04228 12.9964 6.58876 13.7002C6.85836 14.0474 7.06869 14.3872 7.19564 14.7208C7.32259 14.3872 7.53291 14.0474 7.80252 13.7002C8.34899 12.9964 9.13903 12.262 9.97199 11.4878C10.0249 11.4386 10.0783 11.389 10.1315 11.3395C10.5424 11.5797 11.0038 11.7429 11.4959 11.8094V12.8429H9.89594V13.8429H11.4959V14.9429V15.4429H12.4959V14.9429V13.8429H14.0959V12.8429H12.4959V11.8094C14.3029 11.5653 15.6959 10.0168 15.6959 8.14287C15.6959 6.80667 14.9876 5.6359 13.926 4.98555ZM11.9959 10.8429C10.5048 10.8429 9.29593 9.63404 9.29593 8.14287C9.29593 6.6517 10.5048 5.44287 11.9959 5.44287C13.4871 5.44287 14.6959 6.6517 14.6959 8.14287C14.6959 9.63404 13.4871 10.8429 11.9959 10.8429Z" fill="#17191F"/>
</svg>
