<svg width="228" height="72" viewBox="0 0 228 72" fill="none" xmlns="http://www.w3.org/2000/svg">
<g clip-path="url(#clip0_142_14179)">
<path d="M9.42372 34.6787L9.40397 34.661V34.654L9.42372 34.6787Z" fill="#17191F"/>
<path fill-rule="evenodd" clip-rule="evenodd" d="M45.207 15.845C47.662 15.078 49.982 13.935 52.082 12.455C50.493 14.807 48.365 16.75 45.875 18.125C45.935 18.38 45.993 18.634 46.045 18.894C46.339 20.472 46.48 22.074 46.465 23.678C46.441 25.283 46.259 26.88 45.921 28.45C45.742 29.233 45.523 30.008 45.266 30.77C45.016 31.532 44.728 32.279 44.401 33.012C43.744 34.471 42.943 35.863 42.009 37.163C41.537 37.809 41.039 38.434 40.507 39.027C37.867 42.003 34.503 44.255 30.737 45.565C27.782 46.591 24.639 46.974 21.522 46.685C23.047 46.578 24.56 46.34 26.044 45.975C27.506 45.612 28.933 45.117 30.303 44.495C33.006 43.262 35.451 41.535 37.513 39.405C38.028 38.881 38.515 38.33 38.975 37.757C39.446 37.183 39.879 36.596 40.285 35.984C41.087 34.765 41.772 33.472 42.33 32.125C42.611 31.456 42.859 30.773 43.07 30.079C43.285 29.384 43.464 28.679 43.608 27.967C44.19 25.114 44.228 22.178 43.72 19.312L43.66 19.025C43.431 19.097 43.201 19.155 42.965 19.207C42.7876 19.2464 42.6067 19.2806 42.4228 19.3096C42.7817 22.0512 42.5864 24.8449 41.839 27.524C41.06 30.27 39.734 32.833 37.939 35.058C37.487 35.612 37.008 36.14 36.51 36.655C35.494 37.664 34.381 38.572 33.187 39.366C31.993 40.159 30.721 40.831 29.393 41.374C28.731 41.641 28.049 41.882 27.361 42.078C26.673 42.273 25.978 42.443 25.271 42.573C23.158 42.955 21 43.019 18.868 42.762C18.167 42.671 17.465 42.547 16.771 42.391L16.7192 42.3793C16.8053 42.403 16.8922 42.4262 16.98 42.449C18.252 42.791 19.553 43.008 20.867 43.101C21.522 43.147 22.177 43.16 22.833 43.147C23.489 43.133 24.143 43.088 24.799 43.01C28.819 42.528 32.622 40.934 35.776 38.408C36.849 37.558 37.842 36.613 38.745 35.586C37.255 37.956 35.27 39.981 32.925 41.523C29.93 43.494 26.474 44.661 22.892 44.913C22.175 44.969 21.455 44.987 20.735 44.965C19.292 44.922 17.856 44.734 16.45 44.404C15.747 44.238 15.053 44.036 14.372 43.798C13.664 43.564 13.009 43.29 12.354 42.991C11.043 42.376 9.79697 41.636 8.63097 40.781C7.46697 39.922 6.39297 38.948 5.42597 37.874C3.00097 35.187 1.30897 31.926 0.510966 28.404C0.353966 27.706 0.234966 27.002 0.144966 26.298C-0.200034 23.472 0.0449661 20.606 0.864966 17.878C1.66697 15.196 3.03897 12.718 4.88897 10.61V10.611L4.94097 10.617C4.21497 11.775 3.59197 12.994 3.07997 14.261C2.57497 15.51 2.18897 16.805 1.92697 18.125C1.40297 20.737 1.37597 23.424 1.84797 26.044C1.96197 26.692 2.10797 27.334 2.28697 27.967C2.46397 28.599 2.66697 29.225 2.90297 29.838C3.36997 31.061 3.95397 32.238 4.64597 33.351C4.99397 33.905 5.36097 34.446 5.76097 34.967C5.82002 35.0446 5.87965 35.1218 5.93987 35.1986C6.1092 35.3582 6.28092 35.5154 6.45497 35.67C6.54346 35.748 6.63258 35.8253 6.72232 35.9018C5.83298 34.2569 5.18532 32.4889 4.80397 30.652C4.67197 30 4.56797 29.349 4.50197 28.697C4.466 28.3602 4.43953 28.0228 4.42217 27.6851C4.27273 27.1771 4.14415 26.6623 4.03697 26.142C3.89897 25.496 3.79597 24.844 3.72897 24.186C3.65797 23.522 3.62297 22.854 3.62397 22.186C3.62197 20.846 3.75797 19.509 4.02997 18.197C4.16397 17.536 4.33497 16.884 4.54197 16.242C4.74497 15.603 4.98097 14.971 5.24297 14.352C6.31597 11.88 7.87597 9.64602 9.82997 7.78202C10.32 7.32202 10.835 6.88602 11.37 6.47802C11.902 6.06702 12.456 5.68502 13.029 5.33202C14.173 4.62402 15.388 4.03502 16.653 3.57202C17.269 3.34402 17.924 3.14102 18.579 2.97902C19.227 2.81102 19.883 2.67802 20.545 2.58102C23.186 2.18402 25.881 2.33102 28.463 3.01102C30.8714 3.65162 33.1226 4.7737 35.0793 6.30685C34.0731 5.74704 33.0237 5.26557 31.942 4.86902C28.398 3.57002 24.559 3.28502 20.86 4.04702C20.256 4.17202 19.659 4.32602 19.071 4.51002C18.481 4.69702 17.901 4.91502 17.334 5.16202C16.6734 5.43306 16.0282 5.73951 15.4011 6.07923C15.4556 6.0599 15.5102 6.04083 15.565 6.02202C17.238 5.42202 18.992 5.07702 20.768 4.99902C21.1615 4.96834 21.5577 4.97859 21.9531 4.98882C22.1504 4.99392 22.3475 4.99902 22.544 4.99902C23.137 5.03102 23.728 5.09602 24.314 5.19402C25.487 5.38502 26.638 5.69402 27.748 6.11402C28.859 6.53702 29.926 7.06702 30.933 7.69702C31.3703 7.97802 31.7975 8.2783 32.2101 8.59447C33.1112 9.00825 33.9775 9.49505 34.8 10.0501C34.1521 9.11764 33.4238 8.24318 32.624 7.43702C31.728 6.52702 30.754 5.69602 29.714 4.95302C32.063 6.11502 34.135 7.76402 35.789 9.78902C37.474 11.849 38.714 14.232 39.433 16.789C39.4526 16.8612 39.4719 16.9334 39.491 17.0056C39.9701 16.9577 40.4485 16.9 40.9258 16.8327C40.7308 15.6645 40.4369 14.5137 40.049 13.394C39.605 12.116 39.051 10.88 38.391 9.69802C40.0281 11.7649 41.2226 14.1412 41.9028 16.6811C42.0563 16.6551 42.2097 16.6281 42.363 16.6C42.5212 16.5682 42.6703 16.5307 42.8186 16.4934C42.885 16.4767 42.9512 16.4601 43.018 16.444C42.88 16.014 42.73 15.57 42.566 15.14C42.033 13.78 41.374 12.47 40.6 11.23C40.213 10.611 39.794 10.004 39.348 9.42402C38.902 8.84402 38.43 8.27702 37.932 7.74302C35.919 5.56002 33.515 3.76902 30.841 2.46302C29.484 1.80502 28.07 1.27302 26.614 0.873022C25.14 0.471022 23.634 0.196022 22.112 0.0520216C25.233 -0.155978 28.362 0.306022 31.287 1.40802C34.269 2.52302 36.987 4.24102 39.269 6.45202C39.839 7.00602 40.383 7.58602 40.901 8.19902C41.417 8.80802 41.901 9.44302 42.349 10.103C43.252 11.426 44.018 12.836 44.637 14.313C44.853 14.815 45.037 15.329 45.207 15.845ZM41.2069 19.4297C40.8073 19.4477 40.3985 19.447 39.9839 19.4299C40.0413 19.8531 40.0851 20.2766 40.115 20.7C40.21 22.037 40.169 23.38 39.99 24.708C39.898 25.36 39.774 26.012 39.617 26.663C39.459 27.325 39.266 27.977 39.04 28.619C38.59 29.887 38.014 31.107 37.323 32.262C36.9122 32.9383 36.4632 33.5901 35.9781 34.2146C36.1114 34.0653 36.2431 33.9141 36.373 33.761C36.792 33.266 37.179 32.751 37.553 32.223C38.289 31.154 38.926 30.02 39.453 28.834C39.714 28.234 39.951 27.629 40.154 27.009C40.364 26.391 40.541 25.762 40.685 25.125C41.1209 23.256 41.2953 21.3398 41.2069 19.4297ZM36.8088 17.172C36.6774 16.8539 36.5364 16.5391 36.386 16.228C36.152 15.742 35.894 15.268 35.612 14.808C35.331 14.345 35.029 13.895 34.708 13.465C34.063 12.606 33.339 11.807 32.546 11.08C32.1878 10.7415 31.8032 10.44 31.4344 10.1508L31.306 10.05C30.9 9.73102 30.455 9.42402 29.996 9.14402C29.5429 8.86607 29.0772 8.60989 28.6004 8.37609C28.449 8.35449 28.2975 8.33461 28.1457 8.31644C28.8335 8.67983 29.494 9.09601 30.121 9.56202C30.54 9.88102 30.946 10.213 31.333 10.572C31.6235 10.8393 31.9028 11.1179 32.1708 11.4077C32.665 11.812 33.1335 12.2467 33.574 12.709C34.8226 14.013 35.826 15.5271 36.5382 17.1776C36.6284 17.1761 36.7186 17.1742 36.8088 17.172ZM37.2144 19.1056C37.3073 19.1227 37.4004 19.1393 37.4935 19.1553C37.9686 20.8527 38.1873 22.6142 38.1398 24.3818L38.129 24.448C38.031 25.048 37.906 25.647 37.755 26.233C37.605 26.82 37.415 27.4 37.205 27.973C36.36 30.263 35.088 32.372 33.456 34.191C33.043 34.649 32.606 35.084 32.146 35.495C31.7 35.905 31.228 36.297 30.743 36.668C30.5246 36.8358 30.3028 36.9988 30.0776 37.157C30.6736 36.7269 31.2396 36.2564 31.772 35.749C32.539 35.004 33.232 34.188 33.842 33.311C34.144 32.868 34.426 32.412 34.682 31.943C34.937 31.473 35.173 30.991 35.382 30.496C35.799 29.512 36.113 28.487 36.32 27.439C36.425 26.918 36.504 26.389 36.556 25.862C36.608 25.334 36.628 24.799 36.628 24.265C36.622 23.2093 36.5082 22.1596 36.29 21.1318C36.2776 20.8375 36.2572 20.5435 36.229 20.25C36.1753 19.7809 36.1015 19.3147 36.0081 18.8523C36.1439 18.8842 36.2803 18.9151 36.4171 18.9449C36.7 19.6215 36.9368 20.3171 37.126 21.026C37.376 21.994 37.542 22.982 37.624 23.978H37.67C37.8003 22.3372 37.6453 20.6893 37.2144 19.1056ZM33.91 17.1248C32.6026 17.0503 31.2983 16.9037 30.003 16.685C31.0597 17.2454 32.5815 17.8747 34.2893 18.3905C34.4602 19.0639 34.5847 19.7483 34.662 20.439C34.772 21.387 34.789 22.343 34.715 23.294C34.675 23.77 34.616 24.245 34.538 24.714C34.459 25.184 34.348 25.647 34.217 26.11C33.963 27.032 33.623 27.929 33.201 28.788C32.984 29.218 32.748 29.642 32.499 30.053C32.25 30.463 31.975 30.861 31.68 31.245C30.503 32.805 29.042 34.131 27.375 35.156C26.532 35.672 25.644 36.108 24.72 36.459C23.7968 36.8117 22.8444 37.0829 21.8735 37.2726L21.83 37.274V37.281L21.8735 37.2726C23.9084 37.2018 25.905 36.6976 27.728 35.794C29.605 34.875 31.269 33.579 32.618 31.988C32.958 31.584 33.273 31.168 33.574 30.737C33.6127 30.6811 33.651 30.6249 33.6889 30.5684C33.5806 30.7844 33.4681 30.9996 33.351 31.213C33.115 31.643 32.853 32.041 32.571 32.438C32.014 33.226 31.382 33.96 30.684 34.628C29.996 35.298 29.243 35.898 28.436 36.42C28.034 36.685 27.619 36.929 27.191 37.15C26.765 37.372 26.326 37.574 25.881 37.757C25.2022 38.032 24.5045 38.2577 23.7939 38.4322C23.3374 38.424 22.8856 38.3886 22.433 38.344C21.4 38.232 20.38 38.025 19.386 37.724C18.894 37.574 18.403 37.404 17.931 37.209C17.459 37.013 16.981 36.792 16.521 36.557C15.608 36.079 14.743 35.514 13.939 34.869C13.128 34.234 12.382 33.519 11.711 32.738C11.377 32.347 11.056 31.936 10.761 31.519C10.466 31.102 10.184 30.659 9.92897 30.216C9.41597 29.319 8.99096 28.376 8.65697 27.4C8.32397 26.418 8.07997 25.408 7.92997 24.382C7.68764 22.6626 7.71208 20.9186 8.00157 19.211C8.45718 18.2482 8.99689 17.3262 9.61397 16.457C10.309 15.454 11.101 14.522 11.98 13.674C12.412 13.25 12.871 12.846 13.35 12.462C13.828 12.077 14.326 11.725 14.83 11.386C15.0261 11.2593 15.2244 11.136 15.4248 11.0162C15.8088 10.8257 16.201 10.6512 16.6 10.493C17.053 10.317 17.505 10.155 17.963 10.024C18.423 9.88702 18.888 9.77602 19.359 9.69202C21.249 9.33502 23.19 9.33502 25.081 9.69202C25.551 9.77702 26.018 9.88802 26.477 10.024C26.935 10.154 27.387 10.317 27.833 10.494C28.73 10.845 29.59 11.282 30.403 11.797C30.6439 11.9513 30.8803 12.1127 31.1121 12.2798C31.2039 12.3876 31.2948 12.4964 31.385 12.605C31.5499 12.8081 31.7092 13.0153 31.863 13.2264C31.8199 13.1864 31.7766 13.1466 31.733 13.107C31.9332 13.36 32.1267 13.618 32.3133 13.8808C32.5485 14.243 32.768 14.6154 32.971 14.997C33.201 15.42 33.406 15.855 33.587 16.3C33.7046 16.5712 33.8123 16.8462 33.91 17.1248ZM15.7017 40.4717C18.5216 40.8932 21.4103 40.7182 24.176 39.946C24.3885 39.888 24.5995 39.8258 24.8091 39.7595C24.7127 39.7667 24.6163 39.7736 24.52 39.7805C24.365 39.7916 24.2103 39.8026 24.056 39.8151C23.8221 39.8623 23.587 39.9039 23.351 39.94C22.83 40.023 22.305 40.078 21.778 40.102H20.198C18.101 39.994 16.05 39.452 14.175 38.512C12.3324 37.5907 10.7106 36.2824 9.42372 34.6787C10.1691 35.3447 10.9695 35.9467 11.816 36.479C12.662 37.005 13.554 37.453 14.484 37.815C15.2767 38.1242 16.0921 38.3672 16.9215 38.5423C16.541 38.3815 16.1652 38.2077 15.8 38.024C14.786 37.503 13.825 36.885 12.93 36.18C12.036 35.47 11.217 34.674 10.486 33.8C10.112 33.364 9.77697 32.908 9.45697 32.438C9.13597 31.968 8.83996 31.48 8.57197 30.978C8.02997 29.98 7.59197 28.929 7.26197 27.843C7.10397 27.302 6.95997 26.755 6.86197 26.201C6.76297 25.646 6.68497 25.086 6.63897 24.526C6.60632 24.146 6.58718 23.7656 6.58144 23.3855C6.34572 24.4749 6.20323 25.583 6.15397 26.696C6.1142 27.3053 6.12088 27.9137 6.15338 28.523C6.59563 30.025 7.2152 31.4731 8.00197 32.836C8.62697 33.928 9.35497 34.958 10.178 35.912C11.011 36.881 11.925 37.776 12.911 38.591C10.648 37.28 8.69497 35.502 7.18297 33.377C7.09029 33.2463 6.99932 33.1146 6.91005 32.9819C7.35312 34.5025 7.97851 35.9681 8.77497 37.346C8.80739 37.4023 8.84008 37.4584 8.87303 37.5144C9.14427 37.6924 9.41966 37.8643 9.69897 38.03C11.5651 39.1461 13.5901 39.9692 15.7017 40.4717ZM8.84097 11.947C9.07236 11.6126 9.31475 11.2861 9.56767 10.9679C11.0243 9.69076 12.6853 8.66253 14.483 7.92502C14.985 7.71502 15.496 7.53302 16.017 7.37802C16.528 7.22202 17.052 7.08502 17.583 6.97402C17.8928 6.91012 18.2042 6.85481 18.5168 6.80814C19.4848 6.78536 20.4526 6.84528 21.411 6.98702C21.5151 7.00177 21.619 7.01758 21.7227 7.03444C21.588 7.05188 21.4534 7.07074 21.319 7.09102C20.657 7.18802 20 7.32102 19.353 7.48902C17.392 7.98402 15.519 8.77802 13.802 9.84202C13.229 10.195 12.676 10.578 12.144 10.989C11.607 11.399 11.095 11.842 10.604 12.292C8.64997 14.156 7.08997 16.39 6.01597 18.862C5.87551 19.2115 5.74252 19.5459 5.61809 19.8793C5.68976 19.4398 5.77639 19.0027 5.87797 18.569C6.01597 17.976 6.18697 17.389 6.37697 16.809C6.56697 16.229 6.79597 15.669 7.03197 15.114C7.52997 14.002 8.13597 12.942 8.84097 11.947ZM35.0574 10.4293C35.9448 11.7596 36.6655 13.1894 37.2059 14.6864C37.1073 14.4861 37.0046 14.2876 36.897 14.091C36.615 13.576 36.307 13.074 35.973 12.586C35.307 11.611 34.543 10.706 33.693 9.88702C33.6394 9.83422 33.5854 9.78179 33.5311 9.72975C34.0485 9.9438 34.5576 10.1772 35.0574 10.4293ZM25.3142 8.17671C25.3938 8.17507 25.4735 8.17391 25.5531 8.17321C25.6292 8.2066 25.705 8.24058 25.7804 8.27515C25.6523 8.24617 25.5238 8.21879 25.395 8.19302L25.3142 8.17671Z" fill="#17191F"/>
<path d="M35.0793 6.30685C35.1921 6.3696 35.3043 6.43332 35.416 6.49802L35.383 6.55002C35.2826 6.46785 35.1813 6.38679 35.0793 6.30685Z" fill="#17191F"/>
<path d="M71.945 21.678L69.501 22.049C69.521 21.706 69.471 21.361 69.352 21.039C69.234 20.715 69.049 20.419 68.811 20.169C68.572 19.92 68.285 19.722 67.966 19.589C67.647 19.454 67.304 19.387 66.958 19.389C65.188 19.389 63.786 20.876 63.786 23.366C63.786 26.194 65.484 27.341 67.312 27.341C67.941 27.323 68.556 27.154 69.105 26.851C69.655 26.546 70.123 26.116 70.471 25.595L72.044 27.231C71.5 27.989 70.778 28.604 69.941 29.021C69.104 29.44 68.177 29.648 67.241 29.629C63.577 29.629 61.112 27.25 61.112 23.366C61.112 19.481 63.544 17.109 66.925 17.109C70.622 17.109 71.945 19.709 71.945 21.678Z" fill="#17191F"/>
<path fill-rule="evenodd" clip-rule="evenodd" d="M82.26 29.44C81.853 29.553 81.432 29.61 81.01 29.61C79.797 29.61 79.141 29.147 78.97 28.215C78.69 28.755 77.962 29.61 76.133 29.61C74.305 29.61 73.145 28.664 73.145 27.198C73.145 25.021 75.439 24.48 78.729 24.408H78.839V24.037C78.855 23.828 78.822 23.619 78.745 23.424C78.668 23.23 78.548 23.054 78.395 22.912C78.24 22.77 78.056 22.663 77.855 22.601C77.655 22.538 77.442 22.521 77.235 22.551C76.265 22.551 75.72 22.942 75.72 23.574C75.714 23.69 75.74 23.806 75.799 23.907L73.558 24.278C73.483 24 73.446 23.712 73.446 23.424C73.446 21.756 74.921 20.641 77.346 20.641C79.967 20.641 81.343 21.945 81.343 24.148V27.009C81.343 27.419 81.494 27.589 81.828 27.589C81.938 27.59 82.048 27.57 82.149 27.53L82.26 29.44ZM76.861 27.732C78.093 27.732 78.84 27.1 78.84 26.396V25.692H78.728C76.618 25.745 75.628 26.044 75.628 26.859C75.628 27.439 76.094 27.732 76.861 27.732Z" fill="#17191F"/>
<path d="M88.906 20.622C91.088 20.622 92.196 22.121 92.196 24.109V29.499H89.634V24.559C89.634 23.515 89.116 22.812 88.087 22.812C86.777 22.812 86.219 23.946 86.219 24.962V29.525H83.657V20.733L85.656 20.654C85.837 21.252 85.946 21.869 85.976 22.492H86.049C86.261 21.917 86.653 21.425 87.168 21.089C87.682 20.752 88.291 20.589 88.906 20.622Z" fill="#17191F"/>
<path fill-rule="evenodd" clip-rule="evenodd" d="M102.885 29.44C102.478 29.553 102.056 29.61 101.633 29.61C100.414 29.61 99.766 29.147 99.595 28.215C99.313 28.755 98.585 29.61 96.757 29.61C94.929 29.61 93.769 28.664 93.769 27.198C93.769 25.021 96.063 24.48 99.353 24.408H99.464V24.037C99.479 23.828 99.447 23.619 99.37 23.424C99.292 23.23 99.172 23.054 99.018 22.912C98.865 22.77 98.68 22.663 98.48 22.601C98.279 22.538 98.067 22.521 97.859 22.551C96.889 22.551 96.345 22.942 96.345 23.574C96.338 23.69 96.365 23.806 96.423 23.907L94.175 24.278C94.101 24 94.064 23.712 94.064 23.424C94.064 21.756 95.545 20.641 97.996 20.641C100.618 20.641 101.994 21.945 101.994 24.148V27.009C101.994 27.419 102.145 27.589 102.479 27.589C102.589 27.589 102.698 27.569 102.8 27.53L102.885 29.44ZM97.485 27.732C98.691 27.732 99.438 27.1 99.438 26.396H99.465V25.692H99.353C97.243 25.745 96.253 26.044 96.253 26.859C96.253 27.439 96.718 27.732 97.485 27.732Z" fill="#17191F"/>
<path fill-rule="evenodd" clip-rule="evenodd" d="M110.35 16.354L112.906 16.385V29.5L110.828 29.571C110.699 29.003 110.618 28.426 110.586 27.844H110.533C110.284 28.402 109.869 28.87 109.344 29.186C108.819 29.502 108.209 29.65 107.597 29.611C105.212 29.611 103.698 27.733 103.698 25.152C103.698 22.252 105.487 20.59 107.728 20.59C108.23 20.555 108.733 20.645 109.191 20.852C109.648 21.059 110.047 21.377 110.35 21.776V16.354ZM110.194 26.196C110.295 25.946 110.346 25.681 110.343 25.412V24.819C110.346 24.546 110.293 24.275 110.189 24.022C110.085 23.77 109.931 23.54 109.736 23.348C109.541 23.155 109.309 23.003 109.055 22.901C108.8 22.799 108.527 22.749 108.253 22.753C107.06 22.753 106.286 23.685 106.286 25.151C106.286 26.618 107.073 27.471 108.305 27.471C108.575 27.47 108.842 27.415 109.09 27.311C109.339 27.206 109.565 27.054 109.754 26.863C109.943 26.671 110.093 26.445 110.194 26.196Z" fill="#17191F"/>
<path d="M116.261 19.475C115.84 19.475 115.437 19.308 115.14 19.013C114.842 18.717 114.675 18.316 114.675 17.897C114.675 17.479 114.842 17.077 115.14 16.782C115.437 16.486 115.84 16.32 116.261 16.32C116.475 16.313 116.687 16.349 116.887 16.425C117.087 16.5 117.269 16.615 117.423 16.762C117.578 16.909 117.701 17.085 117.786 17.28C117.871 17.475 117.917 17.685 117.919 17.897C117.919 18.111 117.876 18.322 117.792 18.518C117.708 18.714 117.584 18.891 117.429 19.038C117.274 19.186 117.091 19.301 116.89 19.376C116.689 19.451 116.475 19.484 116.261 19.475Z" fill="#17191F"/>
<path d="M114.95 20.706L117.513 20.628V29.473H114.95V20.706Z" fill="#17191F"/>
<path fill-rule="evenodd" clip-rule="evenodd" d="M128.241 29.44C127.833 29.553 127.412 29.61 126.989 29.61C125.77 29.61 125.121 29.147 124.951 28.215C124.669 28.755 123.942 29.61 122.113 29.61C120.285 29.61 119.125 28.664 119.125 27.198C119.125 25.021 121.419 24.48 124.709 24.408H124.82V24.037C124.835 23.828 124.802 23.619 124.725 23.424C124.648 23.23 124.528 23.054 124.374 22.912C124.22 22.77 124.036 22.663 123.836 22.601C123.635 22.538 123.423 22.521 123.214 22.551C122.244 22.551 121.7 22.942 121.7 23.574C121.694 23.69 121.721 23.806 121.779 23.907L119.531 24.278C119.457 24 119.419 23.712 119.42 23.424C119.42 21.756 120.901 20.641 123.352 20.641C125.973 20.641 127.35 21.945 127.35 24.148V27.009C127.35 27.419 127.5 27.589 127.835 27.589C127.944 27.589 128.053 27.569 128.156 27.53L128.241 29.44ZM122.841 27.732C124.073 27.732 124.82 27.1 124.82 26.396V25.692H124.709C122.598 25.745 121.609 26.044 121.609 26.859C121.609 27.439 122.074 27.732 122.841 27.732Z" fill="#17191F"/>
<path d="M134.886 20.622C137.075 20.622 138.176 22.121 138.176 24.109V29.499H135.614V24.559C135.614 23.515 135.089 22.812 134.067 22.812C132.756 22.812 132.199 23.946 132.199 24.962V29.525H129.637V20.733L131.636 20.654C131.818 21.252 131.925 21.869 131.957 22.492H132.029C132.24 21.917 132.632 21.424 133.147 21.087C133.661 20.751 134.271 20.587 134.886 20.622Z" fill="#17191F"/>
<path d="M154.482 21.678L152.037 22.082C152.058 21.738 152.007 21.394 151.888 21.071C151.77 20.747 151.585 20.451 151.347 20.202C151.108 19.953 150.821 19.755 150.502 19.621C150.183 19.487 149.84 19.419 149.494 19.423C147.718 19.423 146.322 20.909 146.322 23.398C146.322 26.227 148.02 27.374 149.848 27.374C150.477 27.355 151.092 27.187 151.641 26.883C152.191 26.579 152.659 26.148 153.007 25.627L154.58 27.263C154.036 28.022 153.314 28.637 152.477 29.054C151.64 29.473 150.713 29.681 149.776 29.662C146.113 29.662 143.648 27.282 143.648 23.398C143.648 19.514 146.08 17.141 149.455 17.141C153.158 17.109 154.482 19.709 154.482 21.678Z" fill="#17191F"/>
<path fill-rule="evenodd" clip-rule="evenodd" d="M164.057 28.071C163.581 28.595 162.993 29.006 162.336 29.272C161.679 29.538 160.97 29.654 160.262 29.61C157.293 29.61 155.517 27.752 155.517 25.112C155.484 24.515 155.578 23.918 155.792 23.359C156.007 22.8 156.337 22.292 156.762 21.869C157.186 21.445 157.696 21.115 158.257 20.901C158.818 20.686 159.419 20.591 160.02 20.621C162.595 20.621 164.076 22.361 164.076 24.761C164.079 25.073 164.053 25.385 163.998 25.692H158.06C158.145 26.278 158.451 26.81 158.916 27.179C159.381 27.549 159.97 27.728 160.563 27.68C160.994 27.694 161.422 27.61 161.816 27.437C162.21 27.263 162.559 27.003 162.838 26.677L164.057 28.071ZM158.68 23.077C158.316 23.414 158.095 23.876 158.06 24.369H161.737C161.755 24.135 161.724 23.9 161.645 23.679C161.567 23.457 161.443 23.254 161.282 23.083C161.12 22.913 160.924 22.776 160.707 22.685C160.49 22.593 160.256 22.548 160.02 22.551C159.522 22.551 159.044 22.739 158.68 23.077Z" fill="#17191F"/>
<path d="M170.97 20.622C173.166 20.622 174.267 22.121 174.267 24.109V29.499H171.698V24.559C171.698 23.515 171.174 22.812 170.145 22.812C168.834 22.812 168.277 23.946 168.277 24.962V29.525H165.721V20.733L167.72 20.654C167.897 21.253 168.002 21.869 168.034 22.492H168.106C168.319 21.916 168.712 21.424 169.228 21.087C169.744 20.75 170.354 20.587 170.97 20.622Z" fill="#17191F"/>
<path d="M182.839 28.977C182.042 29.431 181.135 29.657 180.218 29.629C177.898 29.629 176.685 28.384 176.685 25.894V22.681H175.342V20.726H176.797V18.256L179.261 18.158V20.726H182.361V22.681H179.261V25.784C179.261 26.957 179.713 27.472 180.703 27.472C181.214 27.484 181.714 27.32 182.118 27.009L182.839 28.977Z" fill="#17191F"/>
<path d="M190.002 20.876L189.347 23.333C189.054 23.121 188.7 23.009 188.338 23.013C187.368 23.013 186.529 23.796 186.529 25.263V29.499H183.966V20.733L185.965 20.654C186.15 21.291 186.257 21.947 186.286 22.61H186.358C186.693 21.495 187.387 20.654 188.711 20.654C189.152 20.641 189.591 20.716 190.002 20.876Z" fill="#17191F"/>
<path fill-rule="evenodd" clip-rule="evenodd" d="M198.889 28.071C198.414 28.595 197.826 29.006 197.168 29.272C196.511 29.538 195.802 29.654 195.094 29.61C192.126 29.61 190.349 27.752 190.349 25.112C190.316 24.515 190.41 23.918 190.625 23.359C190.839 22.8 191.169 22.292 191.594 21.869C192.019 21.445 192.528 21.115 193.089 20.901C193.651 20.686 194.251 20.591 194.852 20.621C197.434 20.621 198.909 22.361 198.909 24.761C198.912 25.073 198.885 25.385 198.83 25.692H192.892C192.977 26.278 193.283 26.81 193.748 27.179C194.213 27.549 194.803 27.728 195.396 27.68C195.827 27.693 196.256 27.61 196.651 27.436C197.045 27.262 197.396 27.004 197.676 26.677L198.889 28.071ZM193.522 23.068C193.153 23.406 192.927 23.871 192.892 24.369H196.602C196.619 24.135 196.587 23.899 196.508 23.679C196.429 23.457 196.304 23.254 196.142 23.083C195.98 22.912 195.784 22.776 195.566 22.685C195.349 22.593 195.114 22.548 194.878 22.551C194.376 22.545 193.891 22.73 193.522 23.068Z" fill="#17191F"/>
<path d="M207.808 19.39C207.741 19.592 207.719 19.805 207.743 20.016V20.733H210.502V22.688H207.743V29.525H205.2V22.662H203.889V20.706H205.2V20.055C205.162 19.551 205.232 19.045 205.407 18.571C205.581 18.097 205.855 17.666 206.21 17.305C206.566 16.945 206.995 16.665 207.468 16.482C207.941 16.3 208.449 16.22 208.955 16.248C209.677 16.233 210.393 16.385 211.046 16.692L210.299 18.732C210 18.512 209.641 18.39 209.27 18.38C209.057 18.372 208.845 18.41 208.648 18.49C208.451 18.572 208.274 18.694 208.129 18.85C207.984 19.005 207.875 19.19 207.808 19.39Z" fill="#17191F"/>
<path fill-rule="evenodd" clip-rule="evenodd" d="M220.359 25.112C220.359 27.719 218.51 29.61 215.725 29.61C212.94 29.61 211.079 27.752 211.079 25.112C211.079 22.472 212.927 20.622 215.725 20.622C218.524 20.622 220.359 22.479 220.359 25.112ZM217.737 25.112C217.737 23.705 216.951 22.701 215.699 22.701C214.447 22.701 213.648 23.704 213.648 25.112C213.648 26.52 214.434 27.53 215.699 27.53C216.964 27.53 217.763 26.546 217.763 25.112H217.737Z" fill="#17191F"/>
<path d="M227.993 20.876L227.338 23.333C227.042 23.121 226.686 23.009 226.322 23.013C225.352 23.013 224.513 23.796 224.513 25.263V29.499H221.958V20.733L223.956 20.654C224.136 21.292 224.241 21.948 224.271 22.61H224.343C224.684 21.495 225.372 20.654 226.702 20.654C227.143 20.641 227.582 20.716 227.993 20.876Z" fill="#17191F"/>
<path d="M71.945 38.03L69.501 38.402C69.521 38.058 69.471 37.714 69.352 37.391C69.234 37.068 69.049 36.771 68.811 36.523C68.572 36.273 68.285 36.075 67.966 35.941C67.647 35.807 67.304 35.739 66.958 35.743C65.188 35.743 63.786 37.229 63.786 39.718C63.786 42.54 65.484 43.694 67.312 43.694C67.941 43.675 68.556 43.507 69.105 43.203C69.655 42.899 70.123 42.468 70.471 41.947L72.044 43.583C71.5 44.342 70.778 44.957 69.941 45.375C69.104 45.793 68.177 46.001 67.241 45.982C63.577 45.982 61.112 43.602 61.112 39.718C61.112 35.834 63.544 33.455 66.925 33.455C70.622 33.455 71.945 36.055 71.945 38.03Z" fill="#17191F"/>
<path d="M78.774 36.968C80.996 36.968 82.097 38.473 82.097 40.461V45.851H79.522V40.904C79.522 39.868 79.017 39.158 77.968 39.158C76.658 39.158 76.1 40.278 76.1 41.315V45.877H73.545V32.731H76.048V38.513H76.1C76.338 38.017 76.72 37.605 77.197 37.329C77.674 37.053 78.224 36.928 78.774 36.968Z" fill="#17191F"/>
<path d="M90.125 37.229L89.47 39.679C89.175 39.472 88.822 39.363 88.46 39.366C87.49 39.366 86.645 40.148 86.645 41.615V45.851H84.09V37.072L86.055 37C86.235 37.638 86.341 38.294 86.37 38.956H86.501C86.835 37.84 87.523 37 88.854 37C89.289 36.988 89.722 37.065 90.125 37.229Z" fill="#17191F"/>
<path d="M92.432 35.853C92.224 35.853 92.017 35.813 91.825 35.733C91.633 35.654 91.458 35.538 91.311 35.391C91.163 35.245 91.046 35.071 90.967 34.88C90.887 34.688 90.847 34.483 90.847 34.276C90.847 34.069 90.887 33.864 90.967 33.672C91.047 33.482 91.163 33.307 91.311 33.161C91.458 33.014 91.633 32.898 91.825 32.819C92.017 32.739 92.224 32.699 92.432 32.699C92.64 32.699 92.847 32.739 93.039 32.819C93.231 32.899 93.406 33.014 93.553 33.161C93.701 33.307 93.818 33.481 93.897 33.672C93.977 33.864 94.018 34.069 94.018 34.276C94.018 34.483 93.977 34.688 93.898 34.88C93.818 35.071 93.701 35.245 93.554 35.391C93.406 35.538 93.231 35.654 93.039 35.733C92.847 35.813 92.64 35.853 92.432 35.853Z" fill="#17191F"/>
<path d="M91.122 37.079L93.677 37.007V45.851H91.121V37.08L91.122 37.079Z" fill="#17191F"/>
<path d="M100.539 39.829C100.538 39.1246 100.015 38.676 99.123 38.676C98.233 38.676 97.813 39.066 97.813 39.588C97.813 40.329 98.7209 40.5135 99.7764 40.7279C101.236 41.0246 102.978 41.3785 102.99 43.342C102.99 44.919 101.548 45.949 99.143 45.949C96.5789 45.949 95.3591 44.9248 95.0604 44.6739L95.027 44.646L96.227 43.108C97.042 43.726 98.022 44.093 99.045 44.163C99.942 44.163 100.355 43.903 100.355 43.512C100.355 42.9466 99.5671 42.7435 98.6209 42.4996C97.1995 42.1331 95.421 41.6747 95.421 39.757C95.421 38.05 96.915 36.987 99.195 36.987C101.325 36.987 102.82 38.011 102.82 39.438C102.822 39.641 102.796 39.842 102.741 40.038L100.486 40.168C100.518 40.058 100.536 39.944 100.539 39.829Z" fill="#17191F"/>
<path d="M111.405 45.33C110.608 45.783 109.701 46.009 108.783 45.982C106.47 45.982 105.251 44.737 105.251 42.247V39.027H103.94V37.072H105.395V34.602L107.866 34.511V37.072H110.966V39.027H107.866V42.13C107.866 43.296 108.311 43.818 109.301 43.818C109.814 43.828 110.316 43.665 110.723 43.355L111.405 45.33Z" fill="#17191F"/>
<path d="M113.751 35.853C113.543 35.853 113.336 35.813 113.144 35.733C112.952 35.654 112.777 35.538 112.63 35.391C112.482 35.245 112.365 35.071 112.286 34.88C112.206 34.688 112.165 34.483 112.165 34.276C112.165 34.069 112.206 33.864 112.286 33.672C112.365 33.482 112.482 33.307 112.63 33.161C112.777 33.014 112.952 32.898 113.144 32.819C113.336 32.739 113.543 32.699 113.751 32.699C113.959 32.699 114.166 32.739 114.358 32.819C114.55 32.899 114.725 33.014 114.872 33.161C115.02 33.307 115.137 33.481 115.216 33.672C115.296 33.864 115.337 34.069 115.337 34.276C115.337 34.483 115.296 34.688 115.216 34.88C115.137 35.071 115.02 35.245 114.872 35.391C114.725 35.538 114.55 35.654 114.358 35.733C114.166 35.813 113.959 35.853 113.751 35.853Z" fill="#17191F"/>
<path d="M112.44 37.079L115.003 37.007V45.851H112.44V37.079Z" fill="#17191F"/>
<path fill-rule="evenodd" clip-rule="evenodd" d="M125.731 45.793C125.323 45.906 124.902 45.963 124.479 45.963C123.267 45.963 122.611 45.493 122.441 44.567C122.159 45.108 121.432 45.962 119.603 45.962C117.775 45.962 116.615 45.011 116.615 43.544C116.615 41.374 118.915 40.833 122.199 40.761H122.31V40.37C122.325 40.161 122.292 39.952 122.215 39.757C122.138 39.563 122.018 39.387 121.864 39.245C121.71 39.103 121.526 38.996 121.326 38.934C121.125 38.871 120.913 38.854 120.704 38.884C119.734 38.884 119.19 39.275 119.19 39.901C119.185 40.019 119.212 40.136 119.269 40.24L117.028 40.611C116.953 40.333 116.916 40.046 116.916 39.757C116.916 38.082 118.391 36.967 120.816 36.967C123.437 36.967 124.813 38.271 124.813 40.481V43.342C124.813 43.752 124.964 43.916 125.298 43.916C125.408 43.916 125.516 43.898 125.62 43.864L125.731 45.793ZM120.331 44.085C121.563 44.085 122.31 43.453 122.31 42.749V42.039H122.199C120.088 42.097 119.099 42.391 119.099 43.212C119.099 43.785 119.564 44.085 120.331 44.085Z" fill="#17191F"/>
<path d="M132.383 36.961C134.565 36.968 135.653 38.474 135.653 40.461V45.851H133.091V40.904C133.091 39.868 132.566 39.158 131.544 39.158C130.233 39.158 129.676 40.292 129.676 41.315V45.878H127.133V37.072L129.132 37C129.315 37.598 129.422 38.215 129.453 38.838H129.525C129.737 38.262 130.128 37.769 130.643 37.431C131.157 37.093 131.767 36.929 132.383 36.961Z" fill="#17191F"/>
<path d="M151.972 38.03L149.527 38.402C149.548 38.058 149.497 37.714 149.378 37.391C149.26 37.068 149.075 36.771 148.837 36.523C148.598 36.273 148.311 36.075 147.992 35.941C147.673 35.807 147.33 35.739 146.984 35.743C145.208 35.743 143.812 37.229 143.812 39.718C143.812 42.54 145.51 43.694 147.338 43.694C147.967 43.675 148.582 43.507 149.131 43.203C149.681 42.899 150.149 42.468 150.497 41.947L152.07 43.583C151.526 44.342 150.804 44.957 149.967 45.375C149.13 45.793 148.203 46.001 147.266 45.982C143.603 45.982 141.138 43.602 141.138 39.718C141.138 35.834 143.57 33.455 146.951 33.455C150.648 33.455 151.972 36.055 151.972 38.03Z" fill="#17191F"/>
<path d="M158.8 36.968C161.022 36.968 162.123 38.473 162.123 40.461V45.851H159.547V40.904C159.547 39.868 159.043 39.158 157.994 39.158C156.684 39.158 156.126 40.278 156.126 41.315V45.877H153.571V32.731H156.074V38.513H156.126C156.364 38.017 156.746 37.605 157.223 37.329C157.7 37.053 158.25 36.928 158.8 36.968Z" fill="#17191F"/>
<path fill-rule="evenodd" clip-rule="evenodd" d="M172.779 45.793C172.372 45.906 171.951 45.963 171.528 45.963C170.315 45.963 169.66 45.493 169.489 44.567C169.214 45.108 168.48 45.962 166.652 45.962C164.823 45.962 163.663 45.011 163.663 43.544C163.663 41.374 165.964 40.833 169.247 40.761H169.358V40.37C169.373 40.161 169.341 39.952 169.264 39.757C169.187 39.563 169.067 39.387 168.913 39.245C168.759 39.103 168.575 38.996 168.374 38.934C168.173 38.871 167.961 38.854 167.753 38.884C166.783 38.884 166.239 39.275 166.239 39.901C166.234 40.019 166.261 40.136 166.318 40.24L164.076 40.611C164.002 40.333 163.964 40.046 163.965 39.757C163.965 38.082 165.439 36.967 167.864 36.967C170.486 36.967 171.862 38.271 171.862 40.481V43.342C171.862 43.752 172.013 43.916 172.347 43.916C172.456 43.916 172.564 43.898 172.668 43.864L172.779 45.793ZM167.379 44.085C168.611 44.085 169.358 43.453 169.358 42.749V42.039H169.247C167.137 42.097 166.147 42.391 166.147 43.212C166.147 43.785 166.612 44.085 167.379 44.085Z" fill="#17191F"/>
<path d="M180.217 37.229L179.562 39.679C179.267 39.472 178.914 39.362 178.553 39.366C177.583 39.366 176.744 40.148 176.744 41.615V45.851H174.182V37.072L176.18 37C176.366 37.637 176.474 38.294 176.502 38.956H176.574C176.908 37.841 177.603 37 178.926 37C179.368 36.987 179.808 37.064 180.217 37.229Z" fill="#17191F"/>
<path d="M182.538 35.853C182.329 35.853 182.123 35.813 181.931 35.733C181.738 35.654 181.563 35.538 181.416 35.391C181.269 35.245 181.152 35.071 181.072 34.88C180.993 34.688 180.952 34.483 180.952 34.276C180.952 34.069 180.993 33.864 181.072 33.672C181.152 33.482 181.269 33.307 181.416 33.161C181.563 33.014 181.738 32.898 181.931 32.819C182.123 32.739 182.329 32.699 182.538 32.699C182.746 32.699 182.952 32.739 183.145 32.819C183.337 32.899 183.512 33.014 183.659 33.161C183.806 33.307 183.923 33.481 184.003 33.672C184.083 33.864 184.124 34.069 184.124 34.276C184.124 34.483 184.083 34.688 184.003 34.88C183.923 35.071 183.806 35.245 183.659 35.391C183.512 35.538 183.337 35.654 183.145 35.733C182.952 35.813 182.746 35.853 182.538 35.853Z" fill="#17191F"/>
<path d="M181.227 37.079L183.789 37.007V45.851H181.227V37.079Z" fill="#17191F"/>
<path d="M192.499 45.33C191.702 45.783 190.795 46.009 189.878 45.982C187.558 45.982 186.345 44.737 186.345 42.247V39.027H185.002V37.072H186.457V34.602L188.927 34.511V37.072H192.014V39.027H188.914V42.13C188.914 43.296 189.36 43.818 190.349 43.818C190.863 43.828 191.364 43.665 191.772 43.355L192.499 45.33Z" fill="#17191F"/>
<path d="M194.839 35.853C194.631 35.853 194.424 35.813 194.232 35.733C194.04 35.654 193.865 35.538 193.717 35.391C193.57 35.245 193.453 35.071 193.374 34.88C193.294 34.688 193.253 34.483 193.253 34.276C193.253 34.069 193.294 33.864 193.374 33.672C193.453 33.482 193.57 33.307 193.717 33.161C193.865 33.014 194.04 32.898 194.232 32.819C194.424 32.739 194.631 32.699 194.839 32.699C195.047 32.699 195.253 32.739 195.446 32.819C195.638 32.899 195.813 33.014 195.96 33.161C196.108 33.307 196.224 33.481 196.304 33.672C196.384 33.864 196.425 34.069 196.425 34.276C196.425 34.483 196.384 34.688 196.304 34.88C196.224 35.071 196.108 35.245 195.96 35.391C195.813 35.538 195.638 35.654 195.446 35.733C195.253 35.813 195.047 35.853 194.839 35.853Z" fill="#17191F"/>
<path d="M193.528 37.079L196.084 37.007V45.851H193.528V37.079Z" fill="#17191F"/>
<path fill-rule="evenodd" clip-rule="evenodd" d="M204.944 43.023L206.157 44.417C205.684 44.943 205.098 45.355 204.441 45.623C203.785 45.891 203.077 46.007 202.369 45.963C199.393 45.963 197.624 44.105 197.624 41.465C197.59 40.867 197.683 40.269 197.897 39.709C198.111 39.149 198.441 38.641 198.866 38.217C199.291 37.793 199.801 37.462 200.362 37.247C200.924 37.032 201.525 36.937 202.126 36.967C204.702 36.967 206.176 38.715 206.176 41.113C206.179 41.423 206.155 41.733 206.104 42.038H200.16C200.245 42.624 200.551 43.156 201.016 43.525C201.481 43.895 202.07 44.074 202.664 44.026C203.095 44.04 203.525 43.957 203.919 43.784C204.314 43.61 204.665 43.35 204.944 43.023ZM200.783 39.427C200.418 39.765 200.195 40.227 200.16 40.722H203.843C203.862 40.488 203.831 40.252 203.752 40.032C203.674 39.81 203.55 39.607 203.388 39.436C203.227 39.265 203.031 39.129 202.814 39.037C202.597 38.946 202.362 38.9 202.126 38.904C201.628 38.902 201.148 39.089 200.783 39.427Z" fill="#17191F"/>
<path d="M212.71 39.829C212.709 39.1246 212.186 38.676 211.288 38.676C210.391 38.676 209.978 39.066 209.978 39.588C209.978 40.329 210.885 40.5135 211.939 40.7279C213.397 41.0246 215.137 41.3785 215.148 43.342C215.148 44.919 213.713 45.949 211.301 45.949C208.711 45.949 207.491 44.9029 207.216 44.6662L207.192 44.646L208.385 43.108C209.202 43.728 210.185 44.094 211.21 44.163C212.108 44.163 212.52 43.903 212.52 43.512C212.52 42.9466 211.733 42.7435 210.788 42.4996C209.368 42.1331 207.592 41.6747 207.592 39.757C207.592 38.05 209.086 36.987 211.36 36.987C213.49 36.987 214.985 38.011 214.985 39.438C214.987 39.64 214.963 39.842 214.913 40.038L212.652 40.168C212.686 40.058 212.706 39.944 212.71 39.829Z" fill="#17191F"/>
<path fill-rule="evenodd" clip-rule="evenodd" d="M63.8 69.66L63.066 71.876H60.72L64.705 61.109H66.756L70.773 71.85H68.414L67.674 69.66H63.8ZM65.726 63.794L64.396 67.861H67.076L65.726 63.794Z" fill="#17191F"/>
<path d="M80.006 68.265C79.986 68.786 79.859 69.297 79.634 69.768C79.409 70.238 79.089 70.658 78.696 71.003C77.843 71.697 76.762 72.053 75.661 72C75.05 72.028 74.439 71.918 73.877 71.676C73.315 71.434 72.816 71.068 72.417 70.606C71.577 69.511 71.159 68.154 71.237 66.779V66.128C71.219 65.187 71.405 64.253 71.782 63.39C72.109 62.645 72.652 62.015 73.342 61.578C74.167 61.108 75.115 60.892 76.064 60.958C77.014 61.022 77.923 61.365 78.676 61.943C79.466 62.671 79.936 63.677 79.986 64.746H77.778C77.782 64.188 77.577 63.649 77.201 63.234C76.777 62.888 76.234 62.72 75.688 62.764C75.367 62.744 75.046 62.806 74.757 62.946C74.467 63.085 74.219 63.296 74.037 63.56C73.619 64.312 73.423 65.166 73.472 66.023V66.838C73.408 67.72 73.592 68.602 74.003 69.386C74.183 69.656 74.43 69.873 74.722 70.015C75.013 70.157 75.338 70.219 75.662 70.195C75.932 70.236 76.21 70.217 76.472 70.138C76.735 70.058 76.976 69.921 77.178 69.737C77.38 69.552 77.538 69.324 77.64 69.071C77.741 68.817 77.784 68.544 77.765 68.271L80.006 68.265Z" fill="#17191F"/>
<path d="M89.856 68.265C89.84 68.784 89.719 69.294 89.499 69.764C89.279 70.234 88.966 70.656 88.579 71.003C87.726 71.696 86.645 72.051 85.544 72C84.932 72.028 84.322 71.918 83.76 71.676C83.198 71.434 82.698 71.068 82.3 70.606C81.46 69.511 81.042 68.154 81.12 66.779V66.128C81.099 65.187 81.285 64.252 81.664 63.39C81.987 62.645 82.528 62.013 83.218 61.578C84.045 61.108 84.993 60.893 85.944 60.958C86.894 61.022 87.804 61.365 88.559 61.943C89.346 62.673 89.816 63.678 89.869 64.746H87.661C87.662 64.189 87.457 63.65 87.084 63.234C86.659 62.89 86.117 62.722 85.57 62.764C85.25 62.744 84.929 62.806 84.64 62.946C84.35 63.085 84.102 63.296 83.919 63.56C83.495 64.31 83.299 65.165 83.355 66.023V66.838C83.293 67.719 83.475 68.601 83.88 69.386C84.06 69.656 84.31 69.873 84.602 70.015C84.894 70.157 85.22 70.219 85.544 70.195C85.815 70.236 86.093 70.217 86.355 70.138C86.618 70.058 86.859 69.921 87.061 69.737C87.263 69.552 87.421 69.324 87.522 69.071C87.624 68.817 87.667 68.544 87.648 68.271L89.856 68.265Z" fill="#17191F"/>
<path fill-rule="evenodd" clip-rule="evenodd" d="M97.236 71.85L95.256 67.907H93.494V71.85H91.292V61.083H95.27C96.317 61.017 97.354 61.32 98.2 61.937C98.545 62.231 98.817 62.6 98.996 63.017C99.174 63.432 99.254 63.884 99.228 64.335C99.252 64.98 99.088 65.619 98.756 66.173C98.404 66.698 97.902 67.107 97.314 67.347L99.608 71.746V71.85H97.236ZM93.527 62.882L93.494 66.115H95.276C95.753 66.149 96.225 65.995 96.587 65.685C96.741 65.533 96.861 65.35 96.939 65.149C97.017 64.949 97.051 64.733 97.039 64.518C97.063 64.078 96.909 63.646 96.613 63.318C96.435 63.162 96.228 63.043 96.003 62.968C95.777 62.893 95.539 62.864 95.303 62.882H93.527Z" fill="#17191F"/>
<path fill-rule="evenodd" clip-rule="evenodd" d="M112.657 71.863L109.354 71.85V61.083H112.63C113.517 61.073 114.39 61.298 115.16 61.735C115.905 62.165 116.51 62.798 116.903 63.56C117.328 64.388 117.542 65.308 117.526 66.238V66.734C117.543 67.658 117.334 68.574 116.916 69.4C116.526 70.157 115.922 70.787 115.18 71.211C114.411 71.646 113.541 71.871 112.657 71.863ZM112.676 62.863L111.562 62.882V70.052H112.63C113.002 70.072 113.374 70.006 113.716 69.857C114.057 69.709 114.359 69.483 114.596 69.197C115.097 68.488 115.344 67.632 115.298 66.767V66.199C115.364 65.32 115.133 64.444 114.642 63.709C114.404 63.425 114.102 63.2 113.761 63.053C113.419 62.906 113.048 62.841 112.676 62.863Z" fill="#17191F"/>
<path d="M121.478 61.083L121.484 71.85H119.269V61.083H121.478Z" fill="#17191F"/>
<path d="M131.374 61.083L131.367 62.882H128.09V71.85H125.882V62.882H122.644V61.083H131.374Z" fill="#17191F"/>
<path fill-rule="evenodd" clip-rule="evenodd" d="M144.376 71.863L141.073 71.85V61.083H144.35C145.236 61.073 146.11 61.298 146.88 61.735C147.625 62.165 148.23 62.798 148.623 63.56C149.048 64.388 149.262 65.308 149.245 66.238V66.734C149.264 67.659 149.052 68.574 148.629 69.4C148.243 70.159 147.642 70.788 146.899 71.211C146.131 71.646 145.26 71.871 144.376 71.863ZM144.396 62.863L143.282 62.882V70.052H144.35C144.722 70.072 145.094 70.006 145.435 69.857C145.777 69.709 146.078 69.483 146.316 69.197C146.817 68.488 147.064 67.632 147.017 66.767V66.199C147.083 65.32 146.853 64.444 146.362 63.709C146.124 63.425 145.822 63.2 145.48 63.053C145.139 62.906 144.767 62.841 144.396 62.863Z" fill="#17191F"/>
<path d="M157.477 61.083L160.229 68.904L162.969 61.083H165.872V71.85H163.657V68.91L163.873 63.827L160.983 71.85H159.469L156.579 63.833L156.802 68.911V71.851H154.593V61.082L157.477 61.083Z" fill="#17191F"/>
<path d="M179.13 61.083L181.882 68.904L184.622 61.083H187.525V71.85H185.31V68.91L185.526 63.827L182.636 71.85H181.122L178.252 63.833L178.474 68.911V71.851H176.266V61.082L179.13 61.083Z" fill="#17191F"/>
<path fill-rule="evenodd" clip-rule="evenodd" d="M196.425 71.035C195.608 71.618 194.616 71.905 193.613 71.85H189.438V61.083H193.187C194.229 61.015 195.267 61.277 196.149 61.833C196.484 62.091 196.751 62.427 196.927 62.81C197.102 63.194 197.182 63.614 197.159 64.035C197.167 64.53 197.025 65.016 196.752 65.43C196.478 65.834 196.084 66.141 195.625 66.31C196.148 66.427 196.613 66.725 196.936 67.15C197.262 67.595 197.43 68.133 197.414 68.683C197.443 69.124 197.369 69.566 197.198 69.975C197.026 70.383 196.761 70.746 196.425 71.035ZM191.667 62.881L191.64 65.593H193.279C194.393 65.593 194.95 65.13 194.95 64.257C194.968 64.06 194.939 63.862 194.865 63.678C194.791 63.495 194.674 63.331 194.524 63.201C194.131 62.961 193.673 62.85 193.213 62.881H191.667ZM194.276 67.221C194.08 67.156 193.871 67.137 193.666 67.164H191.64V70.071H193.534C193.974 70.098 194.407 69.963 194.753 69.693C194.899 69.564 195.014 69.405 195.09 69.227C195.166 69.049 195.201 68.857 195.193 68.663C195.217 68.459 195.195 68.251 195.127 68.057C195.058 67.862 194.946 67.686 194.799 67.541C194.651 67.396 194.473 67.287 194.276 67.221Z" fill="#17191F"/>
<path d="M205.462 65.449L205.488 67.183H201.248V70.071H206.222V71.851H199.013V61.082H206.183V62.881H201.222V65.449H205.462Z" fill="#17191F"/>
<path fill-rule="evenodd" clip-rule="evenodd" d="M213.477 71.85L211.472 67.907H209.709V71.85H207.5V61.083H211.485C212.532 61.017 213.569 61.32 214.414 61.937C214.76 62.231 215.032 62.6 215.211 63.017C215.389 63.432 215.469 63.884 215.443 64.335C215.467 64.98 215.303 65.619 214.971 66.173C214.617 66.697 214.116 67.105 213.53 67.347L215.85 71.746V71.85H213.477ZM212.217 62.968C211.992 62.893 211.754 62.864 211.518 62.882H209.709V66.115H211.491C211.968 66.149 212.44 65.995 212.802 65.685C212.956 65.533 213.076 65.35 213.154 65.149C213.232 64.949 213.266 64.733 213.254 64.518C213.278 64.078 213.125 63.646 212.828 63.318C212.65 63.162 212.443 63.043 212.217 62.968Z" fill="#17191F"/>
<path d="M107.342 67.183H103.101V70.071H108.076V71.851H100.919V61.082H108.062V62.881H103.101V65.449H107.342V67.183Z" fill="#17191F"/>
<path d="M139.061 67.183H134.821V70.071H139.795V71.851H132.586V61.082H139.782V62.881H134.821V65.449H139.061V67.183Z" fill="#17191F"/>
<path d="M174.228 67.183H169.994V70.071H174.975V71.851H167.766V61.082H174.975V62.881H169.994V65.449H174.228V67.183Z" fill="#17191F"/>
</g>
<defs>
<clipPath id="clip0_142_14179">
<rect width="228" height="72" fill="white"/>
</clipPath>
</defs>
</svg>
