<svg width="36" height="24" viewBox="0 0 36 24" fill="none" xmlns="http://www.w3.org/2000/svg">
<g clip-path="url(#clip0_107_9206)">
<rect width="36" height="24" rx="2" fill="#016FD0"/>
<path fill-rule="evenodd" clip-rule="evenodd" d="M27.0839 12.0388L24.6541 15.0597H26.5532L27.9568 13.1757L29.3953 15.0597H31.3218L28.8875 12.001L31.3425 8.94232H29.4911L28.0046 10.8565L26.523 8.94232H24.5962L27.0839 12.0388ZM10.8616 8.94254V15.06H12.3909V10.5524L14.0166 15.06H15.3579L16.979 10.5524V15.06H18.5084V8.94254H16.0936L14.7117 12.8957L13.2958 8.95158L10.8616 8.94254ZM3.42609 15.061L6.05718 8.94357H8.05189L10.6805 15.061H8.92976L8.4468 13.836H5.62454L5.13907 15.061H3.42609ZM7.8909 12.5079L7.03064 10.3673L6.16786 12.5079H7.8909ZM19.5548 15.06V8.94254H24.5453V10.3109H21.1002V11.3573H24.4648V12.6452H21.1002V13.7318H24.5453V15.06H19.5548Z" fill="#016FD0"/>
<path fill-rule="evenodd" clip-rule="evenodd" d="M21.1002 10.3109V11.3573H24.4648V12.6452H21.1002V13.7318H24.5453V15.0599H19.5547V8.94252H24.5453V10.3109H21.1002ZM24.5964 8.94252L24.5962 8.9423H26.523L28.0045 10.8565L29.4911 8.9423H31.3425L28.8874 12.001L31.3218 15.0597H29.3953L27.9567 13.1757L26.5532 15.0597H24.654L27.0839 12.0387L24.5964 8.94252ZM25.4038 11.4468V12.6293L25.8791 12.0384L25.4038 11.4468ZM25.4843 15.9988V15.999H16.04V15.938L16.018 15.999H13.357L13.3299 15.9239V15.999H12.1055L12.106 16H8.29058L7.80763 14.775H6.26245L5.77698 16H2L5.43884 8.00453H8.67042L9.92254 10.9185V8L13.9573 8.01499L14.6999 10.0837L15.4271 8.00349H22.6374L22.6372 8.00328H26.9836L28.0058 9.32396L29.0314 8.00328H33.3002L30.0895 12.0035L33.2692 15.9988H28.9308L27.966 14.7351L27.0246 15.9988H25.4843ZM14.7116 12.8957L13.2958 8.95156L10.8616 8.94252V15.0599H12.3909V10.5524L14.0166 15.0599H15.3578L16.979 10.5524V15.0599H18.5083V8.94252H16.0936L14.7116 12.8957ZM8.05187 8.94355H6.05716L3.42606 15.061H5.13905L5.62452 13.836H8.44678L8.92974 15.061H10.6804L8.05187 8.94355ZM7.03062 10.3673L6.16784 12.5079H7.89088L7.03062 10.3673Z" fill="white"/>
</g>
<defs>
<clipPath id="clip0_107_9206">
<rect width="36" height="24" fill="white"/>
</clipPath>
</defs>
</svg>
