<svg width="185" height="72" viewBox="0 0 185 72" fill="none" xmlns="http://www.w3.org/2000/svg">
<path fill-rule="evenodd" clip-rule="evenodd" d="M173.85 70.7369H63.5785V70.7202H11.6753C5.67664 70.7202 0.77063 66.1113 0.77063 60.3713V11.6286C0.77063 5.88861 5.67664 1.27966 11.6753 1.27966H63.5785V1.26318H173.85C179.687 1.26318 184.421 5.73982 184.421 11.2674V60.7327C184.421 66.259 179.687 70.7369 173.85 70.7369ZM63.5785 2.26466H11.6753C6.1692 2.26466 1.75563 6.48267 1.75563 11.6286V60.3713C1.75563 65.5172 6.1692 69.7352 11.6753 69.7352H63.5785V2.26466ZM44.0173 43.3743H21.4194L20.592 46.0686H26.6198L27.7667 49.8037H37.6699L38.8156 46.0686H44.8446L44.0173 43.3743ZM25.1027 28.2012C24.264 29.3583 23.9242 30.7692 24.1465 32.1802C24.3701 33.5911 25.1343 34.8227 26.2914 35.6602L31.704 39.5861C31.9907 39.7983 32.1815 40.1065 32.2345 40.4564C32.2876 40.8063 32.2029 41.1675 32.0021 41.4543L32.8194 42.0479L35.6741 38.1006C36.3436 37.1785 36.6935 36.0959 36.6935 34.9806C36.6935 34.6951 36.672 34.4185 36.6177 34.133C36.3954 32.722 35.6324 31.4905 34.4741 30.6517L29.0615 26.7157C28.7747 26.5035 28.584 26.1966 28.5196 25.8467C28.5095 25.7709 28.5095 25.6976 28.5095 25.6345C28.5095 25.3578 28.5941 25.0825 28.7634 24.8589L27.9475 24.2653C27.9429 24.2878 25.1027 28.2012 25.1027 28.2012ZM28.3604 12.4042C27.3954 13.7406 26.8851 15.3107 26.8851 16.9338C26.8851 17.3482 26.9179 17.7511 26.9811 18.1642C27.3095 20.2117 28.4135 22.0054 30.0909 23.2155L36.8943 28.1381C37.7975 28.7848 38.3811 29.7511 38.5617 30.8437C38.5933 31.066 38.6147 31.2896 38.6147 31.5006C38.6147 32.3722 38.3381 33.2096 37.8189 33.9309L38.4657 34.4084L43.8253 27.0025C45.0455 25.3263 45.5343 23.2787 45.2059 21.2425C44.8775 19.1936 43.7722 17.3999 42.096 16.1911L33.8804 10.229C33.36 9.85636 33.0202 9.29426 32.9242 8.669C32.8181 8.04247 32.9785 7.40584 33.3499 6.88668L32.7019 6.41931L28.3604 12.4042ZM14.4771 52.0522H20.6665C22.1949 52.0522 23.3937 52.4665 24.1579 53.2307C24.7731 53.8458 25.0699 54.5886 25.0699 55.5006V55.5435C25.0699 57.0492 24.264 57.888 23.3192 58.4185C24.8691 59.0122 25.8139 59.9039 25.8139 61.6976V61.7393C25.8139 64.1797 23.8282 65.3999 20.8244 65.3999H14.4771V52.0522ZM20.04 57.4421C21.3347 57.4421 22.152 57.0176 22.152 56.0311V55.9894C22.152 55.109 21.4611 54.6202 20.2307 54.6202H17.333V57.4421H20.04ZM20.8143 62.8105C22.1091 62.8105 22.8947 62.3557 22.8947 61.3679V61.3263C22.8947 60.4345 22.2253 59.8825 20.7183 59.8825H17.3217V62.8105H20.8143ZM27.0872 52.0522H33.2754C34.8038 52.0522 36.0038 52.4665 36.7667 53.2307C37.3731 53.8458 37.68 54.5886 37.68 55.5006V55.5435C37.68 57.0492 36.8842 57.888 35.9293 58.4185C37.4678 59.0122 38.4227 59.9039 38.4227 61.6976V61.7393C38.4227 64.1797 36.4383 65.3999 33.4333 65.3999H27.0872V52.0522ZM32.6488 57.4421C33.9436 57.4421 34.7608 57.0176 34.7608 56.0311V55.9894C34.7608 55.109 34.0712 54.6202 32.8408 54.6202H29.9419V57.4421H32.6488ZM33.4345 62.8105C34.7293 62.8105 35.5149 62.3557 35.5149 61.3679V61.3263C35.5149 60.4345 34.8455 59.8825 33.3385 59.8825H29.9419V62.8105H33.4345ZM39.7074 52.0522H45.8956C47.424 52.0522 48.624 52.4665 49.3882 53.2307C49.9933 53.8458 50.3002 54.5886 50.3002 55.5006V55.5435C50.3002 57.0492 49.5044 57.888 48.5495 58.4185C50.088 59.0122 51.0429 59.9039 51.0429 61.6976V61.7393C51.0429 64.1797 49.0585 65.3999 46.0547 65.3999H39.7074V52.0522ZM45.2691 57.4421C46.5651 57.4421 47.3811 57.0176 47.3811 56.0311V55.9894C47.3811 55.109 46.6914 54.6202 45.4611 54.6202H42.5621V57.4421H45.2691ZM46.0547 62.8105C47.3495 62.8105 48.1352 62.3557 48.1352 61.3679V61.3263C48.1352 60.4345 47.4657 59.8825 45.96 59.8825H42.5621V62.8105H46.0547ZM52.5827 62.9595C52.5827 63.3511 52.2745 63.6606 51.8716 63.6606C51.4674 63.6606 51.1491 63.3524 51.1491 62.9595C51.1491 62.5781 51.4674 62.2597 51.8716 62.2597C52.2745 62.2597 52.5827 62.5667 52.5827 62.9595ZM51.3297 62.9595C51.3297 63.2677 51.5634 63.5115 51.8716 63.5115C52.1785 63.5115 52.4021 63.2677 52.4021 62.9595C52.4021 62.6513 52.1785 62.3974 51.8716 62.3974C51.5634 62.3974 51.3297 62.6513 51.3297 62.9595ZM51.7541 63.3208H51.5949V62.621C51.6581 62.6096 51.744 62.5995 51.8602 62.5995C51.9878 62.5995 52.0522 62.6197 52.1053 62.6513C52.1469 62.6842 52.1684 62.7372 52.1684 62.8004C52.1684 62.8749 52.1053 62.9393 52.0194 62.9595V62.9696C52.0825 62.9911 52.1255 63.0454 52.1469 63.1402C52.1684 63.2463 52.1785 63.2892 52.2 63.3094H52.0307C52.0143 63.2939 52.0045 63.2524 51.9911 63.1957C51.9871 63.1785 51.9827 63.1599 51.9777 63.1402C51.9663 63.0656 51.9246 63.0341 51.8286 63.0341H51.7541V63.3208ZM51.7655 62.9279H51.84C51.9246 62.9279 51.9992 62.8964 51.9992 62.8218C51.9992 62.7587 51.9562 62.7157 51.8501 62.7157H51.8501C51.8071 62.7157 51.7756 62.7157 51.7655 62.7258V62.9279ZM78.6618 12.3184H81.0176L85.9856 23.9899H83.3204L82.2593 21.3904H77.3557L76.2947 23.9899H73.6938L78.6618 12.3184ZM81.3473 19.1394L79.8063 15.3853L78.2677 19.1407L81.3473 19.1394ZM85.5612 18.2274V18.1971C85.5612 14.8965 88.0446 12.2021 91.6117 12.2021C93.797 12.2021 95.1031 12.9348 96.1844 13.9958L94.5612 15.8615C93.6694 15.0556 92.7574 14.5567 91.6004 14.5567C89.6475 14.5567 88.2353 16.1798 88.2353 18.1643V18.1971C88.2353 20.1803 89.616 21.835 91.6004 21.835C92.9267 21.835 93.7338 21.3045 94.6471 20.4771L96.2703 22.1217C95.0816 23.395 93.7553 24.1908 91.5157 24.1908C88.0976 24.1908 85.5612 21.5584 85.5612 18.2274ZM96.5141 18.2274V18.1971C96.5141 14.8965 98.9987 12.2021 102.565 12.2021C104.751 12.2021 106.057 12.9348 107.14 13.9958L105.515 15.8615C104.624 15.0556 103.712 14.5567 102.554 14.5567C100.602 14.5567 99.1894 16.1798 99.1894 18.1643V18.1971C99.1894 20.1803 100.559 21.835 102.554 21.835C103.881 21.835 104.688 21.3045 105.6 20.4771L107.224 22.1217C106.036 23.395 104.708 24.1908 102.469 24.1908C99.0517 24.1908 96.5153 21.5596 96.5153 18.2287L96.5141 18.2274ZM108.317 12.4043H113.613C115.089 12.4043 116.236 12.8173 116.99 13.5815C117.637 14.2283 117.988 15.1403 117.988 16.2341V16.2657C117.988 18.1327 116.978 19.3099 115.503 19.8619L118.338 24H115.355L112.871 20.2864H110.865V24H108.317V12.4043ZM113.434 18.0266C114.676 18.0266 115.387 17.3697 115.387 16.3819V16.3504C115.387 15.2577 114.623 14.6956 113.381 14.6956H110.842V18.0266H113.432H113.434ZM119.336 12.4043H128.082V14.6741H121.872V17.0299H127.338V19.2998H121.872V21.7301H128.166V24H119.336V12.4043ZM129.482 12.4043H134.003C137.644 12.4043 140.17 14.9078 140.17 18.1643V18.1971C140.17 21.4649 137.655 23.9899 134.003 23.9899H129.482V12.4043ZM134.003 21.6885C136.095 21.6885 137.496 20.2763 137.496 18.2274V18.1971C137.496 16.1381 136.084 14.7057 134.003 14.7057H132.029V21.6973H134.003V21.6885ZM141.604 12.4043H144.152V24H141.604V12.4043ZM148.81 14.7487H145.276V12.3916H154.882V14.7474H151.358V23.9887H148.81V14.7487ZM155.901 12.4043H164.648V14.6741H158.438V17.0299H163.905V19.2998H158.438V21.7301H164.732V24H155.901V12.4043ZM166.048 12.4043H170.569C174.211 12.4043 176.737 14.9078 176.737 18.1643V18.1971C176.737 21.4649 174.221 23.9899 170.569 23.9899H166.048V12.4043ZM170.569 21.6885C172.661 21.6885 174.062 20.2763 174.062 18.2274V18.1971C174.062 16.1381 172.65 14.7057 170.569 14.7057H168.596V21.6973H170.569V21.6885ZM74.1726 36.9866V36.955C74.1726 33.6544 76.6547 30.96 80.2218 30.96C82.4071 30.96 83.7132 31.6927 84.797 32.7537L83.1726 34.6207C82.2808 33.8034 81.3688 33.3158 80.2117 33.3158C78.2589 33.3158 76.8467 34.939 76.8467 36.9234V36.955C76.8467 38.9381 78.2261 40.5929 80.2117 40.5929C81.5381 40.5929 82.3452 40.0636 83.2572 39.2363L84.8816 40.8809C83.693 42.1541 82.3654 42.9499 80.1258 42.9499C76.709 42.9499 74.1713 40.3175 74.1713 36.9878L74.1726 36.9866ZM85.9642 31.1621H88.5107V35.7449H93.2134V31.1621H95.7612V42.7579H93.2134V38.1007H88.5119V42.7579H85.9642V31.1621ZM101.578 31.0763H103.934L108.901 42.7478H106.238L105.177 40.1483H100.272L99.2109 42.7478H96.6088L101.578 31.0763ZM104.262 37.8986L102.724 34.1432L101.185 37.8986H104.262ZM109.751 31.1621H115.047C116.522 31.1621 117.669 31.5752 118.422 32.3394C119.07 32.9874 119.42 33.8994 119.42 34.992V35.0236C119.42 36.8906 118.412 38.0678 116.937 38.6211L119.77 42.7579H116.789L114.304 39.0443H112.298V42.7579H109.751V31.1621ZM114.877 36.7958C116.118 36.7958 116.831 36.139 116.831 35.1512V35.1196C116.831 34.0257 116.066 33.4649 114.825 33.4649H112.287V36.7958H114.877ZM120.884 31.1621H123.432V42.7579H120.884V31.1621ZM128.092 33.5167H124.557V31.1621L133.982 31.1621H136.966L139.736 35.8194L142.549 31.1621H145.446L140.987 38.1322V42.7579H138.441V38.1853L134.164 31.4484V33.5167H130.64V42.7579H128.092V33.5167ZM75.859 60.6998V61.5171H74.0868V52.9971H75.859V56.1587C76.2948 55.5752 76.8885 55.1406 77.8118 55.1406C79.2771 55.1406 80.6577 56.2863 80.6577 58.3768V58.3971C80.6577 60.4876 79.2872 61.6333 77.8118 61.6333C76.8683 61.6333 76.2834 61.1987 75.859 60.6998ZM78.8843 58.3971V58.3768C78.8843 57.336 78.1845 56.6463 77.3558 56.6463C76.5285 56.6463 75.8388 57.3373 75.8388 58.3768V58.3971C75.8388 59.4366 76.5285 60.1276 77.3558 60.1276C78.1845 60.1276 78.8843 59.448 78.8843 58.3971ZM83.0779 60.6998V61.5171H81.3045V52.9971H83.0767V56.1587C83.5125 55.5752 84.1074 55.1406 85.0308 55.1406C86.4961 55.1406 87.8742 56.2863 87.8742 58.3768V58.3971C87.8742 60.4876 86.5062 61.6333 85.0308 61.6333C84.086 61.6333 83.491 61.1987 83.0779 60.6998ZM86.102 58.3971V58.3768C86.102 57.336 85.4022 56.6463 84.5735 56.6463C83.7462 56.6463 83.0552 57.3373 83.0552 58.3768V58.3971C83.0552 59.4366 83.7462 60.1276 84.5735 60.1276C85.4022 60.1276 86.102 59.448 86.102 58.3971ZM90.2944 60.6998V61.5171H88.5222V52.9971H90.2944V56.1587C90.7302 55.5752 91.3238 55.1406 92.2472 55.1406C93.7125 55.1406 95.0918 56.2863 95.0918 58.3768V58.3971C95.0918 60.4876 93.7226 61.6333 92.2472 61.6333C91.2923 61.6333 90.7087 61.1987 90.2944 60.6998ZM93.3196 58.3971V58.3768C93.3196 57.336 92.6186 56.6463 91.7912 56.6463C90.9626 56.6463 90.2742 57.3373 90.2742 58.3768V58.3971C90.2742 59.4366 90.9638 60.1276 91.7899 60.1276C92.6186 60.1276 93.3196 59.448 93.3196 58.3971ZM95.5491 59.6488H97.4375V61.5171H95.5491V59.6488ZM97.7457 58.4185V58.3971C97.7457 56.6034 99.1895 55.1406 101.142 55.1406C103.085 55.1406 104.518 56.5731 104.518 58.3768V58.3971C104.518 60.1907 103.074 61.6547 101.121 61.6547C99.1883 61.6547 97.7457 60.2223 97.7457 58.4185ZM102.767 58.4185V58.3971C102.767 57.4749 102.097 56.6678 101.121 56.6678C100.103 56.6678 99.4977 57.4535 99.4977 58.3768V58.3971C99.4977 59.3192 100.166 60.1276 101.142 60.1276C102.162 60.1276 102.767 59.3419 102.767 58.4185ZM105.144 55.2568H105.145V61.5158H106.916V59.2042C106.916 57.7074 107.638 56.9975 108.816 56.9975H108.912V55.1406C107.861 55.0977 107.278 55.6611 106.916 56.52V55.2568H105.145V55.2556L105.144 55.2568ZM109.273 62.7587L109.878 61.4324C110.515 61.7924 111.162 62.0046 111.99 62.0046C113.2 62.0046 113.774 61.4211 113.774 60.2968V59.9886C113.243 60.6152 112.68 61.008 111.735 61.008C110.27 61.008 108.955 59.9469 108.955 58.0901V58.0686C108.955 56.2017 110.291 55.1507 111.735 55.1507C112.702 55.1507 113.275 55.555 113.752 56.0855V55.2669H115.525V60.1162C115.525 61.2404 115.259 62.0577 114.729 62.5781C114.145 63.1617 113.242 63.4156 112.032 63.4156C111.024 63.4055 110.069 63.1718 109.273 62.7587ZM113.783 58.0787V58.0573C113.783 57.2084 113.116 56.6147 112.254 56.6147C111.395 56.6147 110.739 57.2084 110.739 58.0573V58.0787C110.739 58.9377 111.395 59.5213 112.254 59.5213C113.116 59.5326 113.783 58.9389 113.783 58.0787Z" fill="#17191F"/>
</svg>
