<svg width="244" height="72" viewBox="0 0 244 72" fill="none" xmlns="http://www.w3.org/2000/svg">
<g clip-path="url(#clip0_142_14182)">
<path d="M14.2534 37.3484H11.5606C11.0448 37.3484 10.6534 37.3484 10.3274 37.3903V35.894V33.9762V29.6313C10.3274 29.4179 10.2096 29.304 9.97656 29.2831C9.74485 29.2622 9.53801 29.2831 9.22907 29.2831H7.70136C7.42907 29.2831 7.1607 29.2831 6.89234 29.325C6.62398 29.3669 6.60434 29.4297 6.60434 29.6418V30.0738C6.60434 31.3043 6.6135 32.5624 6.63445 33.8518C6.65408 35.14 6.67896 36.3064 6.70645 37.3484C6.40143 37.3484 6.04143 37.317 5.62252 37.3065C5.20492 37.296 4.76638 37.3065 4.31343 37.3065H2.9127C2.45452 37.3065 2.06179 37.3484 1.70048 37.3484V34.9685V32.328V29.5436V26.8155C1.70048 25.022 1.70048 23.3647 1.6743 21.837C1.64943 20.308 1.64419 18.7907 1.64419 17.2892C2.08274 17.2892 2.48987 17.3206 2.87212 17.3311C3.25438 17.3416 3.65627 17.3311 4.09481 17.3311H5.33321C5.76128 17.3311 6.17365 17.3311 6.57685 17.2892V25.0848C6.57685 25.1765 6.60303 25.2655 6.64885 25.344C6.67503 25.3833 6.7143 25.4147 6.7575 25.4357C6.8007 25.4553 6.84914 25.4619 6.89627 25.4592C7.14368 25.4592 7.41205 25.4854 7.67518 25.4854H9.98179C10.0276 25.492 10.076 25.4867 10.1219 25.4723C10.1664 25.4566 10.2083 25.4318 10.2423 25.3977C10.2763 25.3637 10.3012 25.3231 10.3169 25.2773C10.3326 25.2328 10.3379 25.1843 10.3313 25.1359V24.6162V20.9795V17.3403C10.711 17.3808 11.0945 17.4005 11.4768 17.3979H14.0819C14.4733 17.4005 14.8634 17.3808 15.2535 17.3416C15.2535 19.0565 15.2404 20.7321 15.2116 22.3659V32.3503C15.2116 33.9827 15.2116 35.6715 15.2535 37.4021C14.959 37.3497 14.6343 37.3497 14.252 37.3497L14.2534 37.3484ZM30.6275 34.2302C30.3277 34.992 29.8525 35.6715 29.2398 36.2108C28.6036 36.7344 27.8679 37.1219 27.0785 37.3497C26.1569 37.6194 25.2 37.7503 24.2404 37.7385C21.9299 37.7385 20.2346 37.2031 19.1546 36.1323C18.0746 35.0627 17.5366 33.4905 17.5392 31.4195V31.248V27.1794C17.5392 25.7394 17.5706 24.3203 17.5706 22.9327V19.8878C17.5706 18.9216 17.5706 18.0537 17.5287 17.2892C17.8547 17.2892 18.2055 17.3206 18.5603 17.3311C18.9163 17.3416 19.3352 17.3311 19.7371 17.3311H21.1968C21.672 17.3311 22.1158 17.3311 22.5176 17.2892C22.4967 18.5787 22.481 20.0016 22.4718 21.5608V29.0239C22.4718 29.8604 22.498 30.6812 22.5176 31.4915C22.4915 32.0649 22.6355 32.6331 22.93 33.124C23.1054 33.3151 23.3227 33.463 23.5649 33.5534C23.8071 33.6437 24.0663 33.6751 24.3242 33.6437C24.5768 33.6751 24.8347 33.6437 25.073 33.552C25.3112 33.463 25.5246 33.3164 25.6961 33.124C25.9697 32.6318 26.0993 32.0715 26.0718 31.5072C26.0718 30.6956 26.1032 29.8552 26.1137 28.9663C26.1242 28.0774 26.1137 27.1689 26.1137 26.2277V21.4888C26.1137 19.9296 26.0941 18.5433 26.0561 17.3311C26.4384 17.352 26.8102 17.3625 27.1715 17.3625H29.6627C30.1405 17.3625 30.6105 17.3416 31.0713 17.2997C31.0503 18.2671 31.0346 19.1717 31.0241 20.0121V22.756C31.0241 24.1646 31.0241 25.5941 31.0503 27.059C31.0765 28.5251 31.0804 29.9075 31.0804 31.2166V31.3868C31.1145 32.3555 30.96 33.3216 30.6275 34.2302ZM52.7943 37.3484H49.0071L49.0647 25.6294V25.3964V24.9029V24.6162C49.0647 24.4604 49.0333 24.3832 48.977 24.3832C48.9207 24.3832 48.8736 24.4971 48.8369 24.7157C48.8134 24.878 48.7741 25.039 48.7191 25.1935L48.4913 26.14C48.3368 26.7736 48.1614 27.4595 47.9755 28.2175C47.7896 28.9768 47.5736 29.7308 47.3734 30.5254C47.1718 31.32 46.9649 32.1408 46.7581 32.9682C46.5526 33.7929 46.3562 34.6098 46.186 35.4201C46.186 35.4934 46.1336 35.623 46.0878 35.8102C46.042 35.9974 45.9844 36.1899 45.9281 36.4032C45.8705 36.6153 45.8195 36.813 45.7684 37.0054C45.716 37.1979 45.6899 37.3222 45.6702 37.3798C45.4019 37.3798 45.0615 37.3484 44.6387 37.3379C44.2158 37.3275 43.8074 37.3379 43.3689 37.3379H42.0742C41.6513 37.3379 41.3214 37.3379 41.074 37.3798C41.04 37.262 41.0112 37.1429 40.9915 37.0211C40.9496 36.8392 40.9038 36.6467 40.8475 36.4451C40.7899 36.2422 40.7376 36.0446 40.7022 35.8521C40.6813 35.7251 40.6525 35.6008 40.6145 35.4777C40.2323 33.8047 39.8409 32.1696 39.439 30.5726C39.0358 28.9755 38.6456 27.5027 38.2673 26.1544L38.0356 25.3126C37.8851 24.7209 37.7777 24.4198 37.7214 24.4198C37.6638 24.4198 37.6324 24.4984 37.6324 24.6528L37.6586 25.6203L37.7371 37.3497C37.3536 37.3118 36.9726 37.2921 36.5904 37.2921H34.3256C33.9918 37.2921 33.658 37.3104 33.3255 37.3484C33.3635 35.6754 33.3818 33.9644 33.3818 32.2142V22.1852C33.3818 20.6261 33.3635 18.9989 33.3255 17.3049C33.7837 17.3416 34.2903 17.3625 34.8414 17.3625H38.5985C39.3041 17.3625 39.8867 17.3625 40.3462 17.3049C40.5177 18.0747 40.7088 18.9413 40.9195 19.9035C41.1303 20.8748 41.3424 21.8566 41.5636 22.845C41.7862 23.832 41.9969 24.7877 42.209 25.7027C42.4198 26.6178 42.6056 27.4019 42.7811 28.0565C42.7811 28.135 42.8374 28.3013 42.895 28.5762C42.9512 28.8511 43.0128 29.0959 43.0808 29.4022L43.2667 30.2086C43.323 30.4574 43.3636 30.6144 43.3846 30.6707C43.4055 30.7283 43.416 30.7846 43.4264 30.8422C43.4369 30.8998 43.4566 30.9312 43.4984 30.9312C43.539 30.9312 43.5757 30.8422 43.6123 30.6707C43.6307 30.5136 43.6595 30.3605 43.7 30.2086L43.8846 29.4022C43.954 29.1116 44.0155 28.8367 44.0705 28.5775L44.1844 28.0565C44.3755 27.381 44.5863 26.5864 44.8128 25.6608C45.0406 24.7366 45.2723 23.7849 45.5053 22.8031C45.737 21.8213 45.9582 20.8486 46.1755 19.8878C46.3915 18.9269 46.5944 18.059 46.7646 17.2892C47.2019 17.2892 47.7595 17.3206 48.4403 17.3311H52.1345C52.7171 17.3311 53.259 17.3311 53.7539 17.2892V19.1088C53.7539 19.8197 53.7539 20.5999 53.7224 21.4469C53.6923 22.2939 53.7224 23.188 53.7224 24.1331V32.459C53.7224 34.2563 53.7329 35.8862 53.7539 37.3484H52.7943ZM69.8282 37.3484H67.0647C66.6982 37.3458 66.3342 37.3654 65.9716 37.406C65.8931 36.8863 65.8054 36.3247 65.7032 35.7173C65.5985 35.1086 65.4755 34.543 65.3419 34.0024C65.3053 33.8453 65.249 33.7576 65.1718 33.7275C65.0592 33.6921 64.9427 33.6672 64.8262 33.6542H60.7876C60.6763 33.6568 60.5677 33.6869 60.4721 33.7419C60.4198 33.8008 60.3818 33.8702 60.3582 33.9448C60.2443 34.4069 60.1213 34.958 59.9865 35.6021C59.8529 36.2475 59.7338 36.8496 59.6408 37.406C59.3725 37.406 59.0216 37.3746 58.6093 37.3641H55.9584C55.5041 37.3641 55.1585 37.3641 54.9268 37.406C55.2515 36.0603 55.618 34.5627 56.0147 32.9054C56.4126 31.248 56.8302 29.5436 57.2478 27.7816C57.6654 26.0195 58.083 24.247 58.4967 22.4549C58.9091 20.6614 59.2848 18.9426 59.6264 17.2892H64.5735C65.1403 17.2892 65.7491 17.2892 66.4193 17.2473C66.7427 18.8418 67.1 20.5305 67.4928 22.3135C67.8855 24.0991 68.2809 25.8782 68.6788 27.652C69.082 29.4323 69.4787 31.1643 69.8701 32.8491C70.2628 34.5273 70.6189 36.0341 70.9435 37.3798C70.6752 37.3484 70.289 37.3484 69.8308 37.3484H69.8282ZM64.4426 29.9167C64.4478 29.8735 64.4478 29.8303 64.4426 29.7871C64.44 29.7531 64.44 29.7177 64.4426 29.6824C64.2318 28.571 64.0145 27.4176 63.7985 26.2382C63.5812 25.0587 63.3691 23.9983 63.1832 23.0728C63.1505 22.9615 63.1309 22.8463 63.127 22.7298C63.1178 22.5832 63.0995 22.4379 63.0707 22.2939C63.0091 21.8933 62.9528 21.6917 62.8952 21.6917C62.8376 21.6917 62.8128 21.9038 62.7513 22.3253C62.7513 22.4392 62.7198 22.5583 62.7094 22.684C62.6976 22.8254 62.674 22.9667 62.6374 23.1042C62.4253 24.0297 62.1936 25.0796 61.9357 26.2643C61.6778 27.4491 61.4199 28.6181 61.2026 29.7727C61.2104 29.795 61.2104 29.8211 61.2026 29.8447C61.1974 29.8683 61.1974 29.8931 61.2026 29.918C61.2026 30.0738 61.2955 30.1458 61.4867 30.1458H64.2358C64.4989 30.1458 64.5251 30.0738 64.5251 29.918L64.4426 29.9167ZM85.5622 37.3484H82.6481C82.2292 37.3484 81.8836 37.3484 81.6152 37.3903L81.0589 35.966C80.8219 35.356 80.5575 34.691 80.2695 33.971C79.9815 33.251 79.6765 32.4995 79.3558 31.7206C79.0311 30.9404 78.7274 30.1628 78.4276 29.4703C78.1278 28.7791 77.8961 28.067 77.633 27.4752C77.3712 26.8822 77.184 26.4358 77.0308 26.1033C76.9614 25.9331 76.9051 25.7603 76.8593 25.5836C76.803 25.3807 76.7559 25.2197 76.7153 25.1058C76.6708 25.0142 76.6381 24.9186 76.6171 24.8191C76.5857 24.7052 76.5556 24.6424 76.5137 24.6424C76.4718 24.6424 76.4574 24.7052 76.4574 24.8191V25.0168L76.4875 26.3468L76.5451 37.3484C76.2702 37.3484 75.9613 37.317 75.6052 37.3065C75.2505 37.296 74.8891 37.3065 74.5226 37.3065H73.1559C72.7226 37.3065 72.3705 37.3065 72.123 37.3484C72.123 36.0236 72.1544 34.5627 72.1649 32.963C72.1754 31.3619 72.1649 29.6994 72.1649 27.9688V22.5282C72.1649 20.7243 72.1649 18.9622 72.123 17.2892C72.6035 17.2892 73.0787 17.3206 73.5473 17.3311C74.0173 17.3416 74.4912 17.3311 74.9664 17.3311H76.3488C76.807 17.3311 77.2874 17.3311 77.7822 17.2892L78.3608 18.8078C78.5873 19.4099 78.8347 20.0488 79.1031 20.7243C79.3715 21.3998 79.6503 22.0805 79.9239 22.7717C80.1975 23.4629 80.4659 24.1174 80.7185 24.7209C80.9712 25.3231 81.1819 25.8638 81.3783 26.3259C81.5747 26.7893 81.7082 27.1166 81.8064 27.3038C81.843 27.4019 81.915 27.5839 82.0237 27.8536C82.131 28.1246 82.2201 28.3432 82.2973 28.5199C82.2973 28.5762 82.3379 28.6377 82.3693 28.7071C82.3771 28.7346 82.3942 28.7595 82.4164 28.7778C82.44 28.7961 82.4688 28.804 82.4976 28.8053C82.4976 28.8053 82.529 28.7634 82.5395 28.6744C82.5434 28.605 82.5434 28.533 82.5395 28.4623V27.8392V27.1061L82.4819 17.2892C82.8275 17.2892 83.1626 17.3206 83.5134 17.3311C83.8656 17.3416 84.185 17.3311 84.5463 17.3311H85.7114C86.1094 17.3311 86.5113 17.3311 86.9079 17.2892C86.9079 18.9256 86.8778 20.5685 86.8673 22.2258C86.8569 23.8844 86.8673 25.5522 86.8673 27.2462V32.2979C86.8673 33.971 86.8673 35.6597 86.9079 37.3484H85.5622ZM92.9808 37.3484H90.2775C89.839 37.3484 89.4567 37.3484 89.1386 37.3903V34.7918C89.1386 33.9605 89.1386 33.1397 89.1687 32.3228C89.1988 31.5072 89.1687 30.6707 89.1687 29.8238V24.4918V21.8213C89.1687 20.9429 89.1687 20.1168 89.1373 19.3262C89.1059 18.5368 89.1373 17.86 89.1373 17.3049C89.534 17.3049 89.9424 17.3363 90.36 17.3468C90.7789 17.3573 91.2057 17.3468 91.6442 17.3468H92.9284C93.3526 17.3468 93.7335 17.3468 94.0948 17.3049C94.0739 18.5381 94.0582 20.0056 94.049 21.7061V32.6763C94.049 33.5704 94.049 34.4174 94.0791 35.2185C94.1105 36.0171 94.0791 36.7305 94.0791 37.3641C93.7911 37.3484 93.4206 37.3484 92.9808 37.3484ZM106.94 21.2387H104.976C104.75 21.2387 104.609 21.2387 104.564 21.3225C104.498 21.4783 104.473 21.6472 104.492 21.816C104.492 22.3358 104.465 22.8555 104.465 23.3739V31.4549C104.465 32.5152 104.465 33.5337 104.496 34.5731C104.527 35.6126 104.496 36.5276 104.496 37.427L103.325 37.3484H99.5642C99.5642 35.5406 99.5773 33.5691 99.6061 31.4352C99.6323 29.3014 99.6323 27.1728 99.6061 25.0534V23.3176C99.6061 22.7979 99.6061 22.2467 99.5747 21.7598C99.5956 21.5961 99.5694 21.4299 99.5027 21.2806C99.3849 21.2152 99.2487 21.1903 99.1152 21.2073H97.2262L95.3594 21.2492C95.383 20.9795 95.3934 20.7099 95.3895 20.4376V18.1728C95.3895 17.788 95.3895 17.4974 95.3594 17.3049C97.5561 17.3599 99.7501 17.39 101.942 17.3939C104.201 17.3939 106.45 17.3638 108.689 17.3049C108.689 17.534 108.658 17.8246 108.658 18.1728V20.3093C108.658 20.6549 108.668 20.9717 108.689 21.2597C108.09 21.2387 107.503 21.2387 106.94 21.2387ZM122.37 37.3484H119.619C119.257 37.3458 118.893 37.3654 118.532 37.406C118.453 36.8863 118.361 36.3247 118.258 35.7173C118.155 35.1086 118.032 34.543 117.897 34.0024C117.861 33.8453 117.805 33.7576 117.727 33.7275C117.614 33.6921 117.499 33.6672 117.381 33.6542H113.342C113.231 33.6568 113.124 33.6869 113.028 33.7419C112.976 33.8008 112.937 33.8702 112.914 33.9448C112.8 34.4069 112.676 34.958 112.543 35.6021C112.408 36.2475 112.294 36.8496 112.197 37.406C111.929 37.406 111.582 37.3746 111.165 37.3641H108.518C108.06 37.3641 107.713 37.3641 107.487 37.406C107.817 36.0603 108.178 34.5627 108.58 32.9054C108.983 31.248 109.39 29.5436 109.808 27.7816C110.227 26.0195 110.648 24.247 111.057 22.4549C111.464 20.6614 111.846 18.9426 112.186 17.2892H117.134C117.696 17.2892 118.309 17.2892 118.979 17.2473C119.304 18.8418 119.66 20.5305 120.053 22.3135L121.23 27.652C121.632 29.4323 122.028 31.1643 122.416 32.8491C122.808 34.5273 123.17 36.0341 123.494 37.3798C123.2 37.3484 122.831 37.3484 122.37 37.3484ZM116.984 29.9167C116.988 29.8735 116.988 29.8303 116.984 29.7871C116.98 29.7531 116.98 29.7177 116.984 29.6824C116.777 28.571 116.561 27.4176 116.339 26.2382C116.116 25.0587 115.916 23.9983 115.725 23.0728C115.692 22.9615 115.673 22.8463 115.669 22.7298C115.659 22.5832 115.64 22.4379 115.611 22.2939C115.55 21.8933 115.493 21.6917 115.437 21.6917C115.379 21.6917 115.353 21.9038 115.293 22.3253C115.293 22.4392 115.26 22.5583 115.251 22.684C115.238 22.8254 115.214 22.9667 115.179 23.1042C114.967 24.0297 114.734 25.0796 114.477 26.2643C114.219 27.4491 113.962 28.6181 113.75 29.7727C113.757 29.795 113.757 29.8211 113.75 29.8447V29.918C113.75 30.0738 113.848 30.1458 114.038 30.1458H116.788C116.979 30.1458 117.076 30.0738 117.076 29.918L116.984 29.9167ZM137.123 37.3065H134.415L133.172 37.3484C133.059 36.8287 132.924 36.309 132.785 35.7906C132.646 35.2696 132.496 34.6883 132.352 34.1582C132.208 33.628 132.078 33.1187 131.95 32.6867L131.655 31.6067C131.522 31.159 131.333 30.7323 131.092 30.333C131.014 30.2217 130.909 30.1314 130.786 30.0712C130.663 30.011 130.527 29.9835 130.391 29.99H129.762C129.608 29.99 129.514 29.99 129.487 30.0581C129.446 30.1824 129.431 30.316 129.442 30.4469V34.3192C129.442 35.2853 129.468 36.2933 129.489 37.3484C129.178 37.3484 128.828 37.317 128.426 37.3065C128.024 37.296 127.606 37.3065 127.168 37.3065H125.836L124.645 37.3484C124.679 36.1807 124.697 34.8624 124.701 33.395V28.7948V22.9013C124.701 20.9219 124.701 19.0565 124.659 17.3049C125.177 17.3049 125.692 17.3363 126.152 17.3468C126.61 17.3573 127.142 17.3468 127.698 17.3468H129.762C130.376 17.3468 131.062 17.3154 131.825 17.3154C133.459 17.2211 135.063 17.7814 136.288 18.8732C137.381 19.9139 137.934 21.4259 137.934 23.349C137.939 23.963 137.86 24.5743 137.701 25.1686C137.57 25.6831 137.372 26.1792 137.113 26.644C136.894 27.0288 136.619 27.3797 136.299 27.6821C136.032 27.9465 135.72 28.1612 135.38 28.317C135.283 28.3589 135.183 28.3942 135.081 28.4217C135.034 28.4217 135.008 28.4518 135.008 28.4937C135.016 28.5343 135.03 28.5723 135.052 28.6076C135.075 28.643 135.103 28.6731 135.137 28.6966C135.209 28.7542 135.272 28.8223 135.323 28.8982L135.524 29.1692C135.623 29.3132 135.715 29.4624 135.797 29.6156C135.901 29.808 136.025 30.0633 136.159 30.3801C136.293 30.6969 136.443 31.1067 136.613 31.6107C136.711 31.9183 136.829 32.2914 136.974 32.7339C137.118 33.1763 137.262 33.6594 137.418 34.1791L137.876 35.7683C138.027 36.288 138.171 36.8078 138.305 37.3275C137.911 37.3013 137.517 37.2934 137.123 37.3065ZM132.31 21.5765C131.756 21.168 131.078 20.9638 130.392 21.0005H129.932C129.72 21.0005 129.597 21.0267 129.561 21.0725C129.508 21.1641 129.477 21.2688 129.473 21.3736C129.473 21.7008 129.436 22.0229 129.431 22.341C129.427 22.6578 129.431 22.9798 129.431 23.3071V25.8219C129.419 25.9279 129.446 26.0352 129.504 26.123C129.622 26.1871 129.757 26.212 129.891 26.1963H130.469C132.167 26.1963 133.017 25.3388 133.017 23.6239C133.027 22.6421 132.79 21.9614 132.31 21.5765ZM143.628 37.3484H140.921C140.482 37.3484 140.105 37.3484 139.781 37.3903V34.7918C139.781 33.9605 139.781 33.1397 139.811 32.3228C139.842 31.5072 139.811 30.6707 139.811 29.8238V24.4918V21.8213C139.811 20.9429 139.811 20.1168 139.781 19.3262C139.749 18.5368 139.781 17.86 139.781 17.3049C140.183 17.3049 140.585 17.3363 141.009 17.3468C141.432 17.3573 141.854 17.3468 142.288 17.3468H143.572C143.99 17.3468 144.377 17.3468 144.738 17.3049C144.738 18.5381 144.724 20.0056 144.696 21.7061V32.6763C144.696 33.5704 144.707 34.4174 144.728 35.2185V37.3641C144.444 37.3484 144.067 37.3484 143.628 37.3484ZM160.828 37.3484H158.073C157.71 37.3458 157.346 37.3654 156.985 37.406C156.908 36.8863 156.82 36.3247 156.716 35.7173C156.613 35.1086 156.49 34.543 156.355 34.0024C156.319 33.8453 156.262 33.7576 156.185 33.7275C156.072 33.6921 155.957 33.6672 155.839 33.6542H151.8C151.69 33.6555 151.581 33.6869 151.485 33.7419C151.433 33.8008 151.394 33.8702 151.371 33.9448C151.254 34.4069 151.129 34.958 150.996 35.6021C150.861 36.2475 150.748 36.8287 150.634 37.3484C150.366 37.3484 150.015 37.317 149.603 37.3065H146.951C146.491 37.3065 146.151 37.3065 145.919 37.3484C146.244 36.0027 146.61 34.5064 147.008 32.8478C147.405 31.1904 147.817 29.486 148.24 27.724C148.664 25.9632 149.077 24.1894 149.484 22.3973C149.891 20.6038 150.273 18.885 150.619 17.2316H155.576C156.139 17.2316 156.757 17.2316 157.423 17.191C157.747 18.7842 158.105 20.4729 158.501 22.2572L159.688 27.5944C160.09 29.3747 160.488 31.108 160.879 32.7915C161.272 34.4697 161.627 35.9765 161.953 37.3222C161.658 37.3484 161.287 37.3484 160.828 37.3484ZM155.438 29.9167C155.441 29.8735 155.441 29.8303 155.438 29.7871V29.6824C155.225 28.571 155.009 27.4176 154.792 26.2382C154.576 25.0587 154.364 23.9983 154.173 23.0728C154.143 22.9615 154.123 22.8463 154.117 22.7298C154.11 22.5832 154.09 22.4379 154.059 22.2939C154.003 21.8933 153.946 21.6917 153.889 21.6917C153.833 21.6917 153.801 21.9038 153.745 22.3253C153.745 22.4392 153.713 22.5583 153.704 22.684C153.69 22.8254 153.665 22.9667 153.631 23.1042C153.42 24.0297 153.188 25.0796 152.929 26.2643C152.671 27.4491 152.414 28.6181 152.198 29.7727C152.205 29.795 152.205 29.8211 152.198 29.8447V29.918C152.198 30.0738 152.296 30.1458 152.487 30.1458H155.236C155.504 30.1458 155.525 30.0738 155.525 29.918L155.438 29.9167ZM176.557 37.3484H173.637C173.219 37.3484 172.873 37.3484 172.605 37.3903L172.049 35.966L171.268 33.9448C170.98 33.2248 170.674 32.4747 170.351 31.6944L169.423 29.4441C169.128 28.7215 168.86 28.067 168.607 27.4805C168.354 26.8927 168.163 26.4411 168.009 26.1086C167.941 25.9384 167.884 25.7656 167.839 25.5888C167.782 25.3859 167.73 25.2249 167.695 25.1097C167.649 25.0207 167.615 24.9238 167.596 24.8243C167.565 24.7104 167.528 24.6476 167.493 24.6476C167.456 24.6476 167.437 24.7104 167.437 24.8243V25.022L167.467 26.352L167.544 37.3484C167.276 37.3484 166.961 37.317 166.605 37.3065C166.249 37.296 165.888 37.3065 165.523 37.3065H164.155C163.721 37.3065 163.371 37.3065 163.123 37.3484C163.123 36.0262 163.138 34.5627 163.165 32.963V27.9688V22.5282C163.165 20.7243 163.139 18.9622 163.123 17.2892C163.604 17.2892 164.078 17.3206 164.542 17.3311C165.007 17.3416 165.486 17.3311 165.965 17.3311H167.349C167.807 17.3311 168.282 17.3311 168.782 17.2892C168.937 17.695 169.128 18.199 169.354 18.8078C169.582 19.4152 169.835 20.0488 170.108 20.7243C170.382 21.3998 170.624 22.0805 170.923 22.7717C171.223 23.4629 171.44 24.1174 171.712 24.7209C171.986 25.3231 172.182 25.8638 172.378 26.3259C172.574 26.7893 172.714 27.1166 172.807 27.3038C172.842 27.4019 172.915 27.5839 173.023 27.8536C173.131 28.1246 173.219 28.3432 173.296 28.5199C173.316 28.584 173.339 28.6456 173.368 28.7071C173.376 28.7359 173.392 28.7608 173.415 28.7791C173.439 28.7961 173.468 28.8053 173.498 28.8053C173.498 28.8053 173.529 28.7634 173.538 28.6744C173.544 28.605 173.544 28.533 173.538 28.4623V27.8392V27.1061L173.482 17.2892C173.822 17.2892 174.163 17.3206 174.514 17.3311C174.864 17.3416 175.184 17.3311 175.545 17.3311H176.712C177.108 17.3311 177.511 17.3311 177.908 17.2892C177.908 18.9256 177.873 20.5685 177.862 22.2258C177.852 23.8844 177.862 25.5522 177.862 27.2462V32.2979C177.862 33.971 177.887 35.6597 177.908 37.3484H176.557ZM20.0775 62.8639C20.0369 63.254 19.9859 63.6847 19.9335 64.1638C19.5892 66.9038 18.6179 68.8936 17.0182 70.1333C15.4198 71.3743 13.1838 71.9961 10.3117 72C6.79023 72 4.18907 70.835 2.50688 68.5022C0.826011 66.172 -0.0104977 62.4463 -2.49501e-05 57.3304C-2.49501e-05 52.022 0.811611 48.0974 2.43488 45.5538C4.05816 43.0115 6.6855 41.7404 10.3169 41.7404C13.2584 41.7404 15.4931 42.4107 17.0234 43.7512C18.555 45.0917 19.491 47.0763 19.8353 49.701C19.8877 50.1474 19.944 50.6985 20.0003 51.3583C20.0566 52.0194 20.0827 52.653 20.0827 53.2656V53.4751C18.9176 53.3913 17.6413 53.3494 16.255 53.3494H14.5885C14.0321 53.3494 13.4797 53.3861 12.922 53.411V52.7407C12.922 52.221 12.922 51.6136 12.8867 50.959C12.8644 50.3411 12.7649 49.7285 12.5921 49.1342C12.4468 48.6249 12.1994 48.1523 11.8656 47.7413C11.6875 47.5449 11.4689 47.3878 11.2241 47.287C10.9793 47.1849 10.7162 47.1404 10.4518 47.1548C9.99096 47.1509 9.5367 47.2752 9.14136 47.5135C8.64652 47.8656 8.2839 48.3736 8.10979 48.9574C7.76943 49.9759 7.55343 51.031 7.46441 52.1019C7.28638 53.9097 7.20521 55.7267 7.22223 57.5424C7.22223 59.1592 7.26805 60.5363 7.35183 61.6687C7.39896 62.6073 7.55998 63.5355 7.83096 64.4335C7.99459 65.0396 8.33365 65.5829 8.80623 65.9926C9.27881 66.3317 9.85088 66.5006 10.4308 66.4705C10.9283 66.494 11.4218 66.3631 11.8446 66.0961C12.1994 65.8526 12.4861 65.5201 12.6746 65.1299C12.8749 64.7267 13.0163 64.2961 13.0935 63.8523C13.1747 63.4019 13.2296 62.9464 13.2584 62.4908C13.2846 62.1832 13.3095 61.9135 13.32 61.6739C13.3304 61.4357 13.32 61.1542 13.32 60.8584C14.0727 60.9422 14.8673 61.0037 15.7339 61.0456C16.6006 61.0875 17.4672 61.1084 18.3547 61.1084H19.2266C19.5198 61.1084 19.8118 61.0953 20.1037 61.0665V61.7368C20.1142 62.1125 20.1063 62.4895 20.0775 62.8639ZM41.4393 63.8051C41.1421 65.4703 40.5203 67.0609 39.6078 68.4812C38.8276 69.6581 37.7201 70.5771 36.4267 71.1269C34.9475 71.7068 33.3687 71.983 31.7821 71.9425C30.1457 71.9948 28.5172 71.6715 27.0209 70.9973C25.7315 70.3689 24.6436 69.3897 23.8791 68.1696C23.0086 66.7362 22.4142 65.1496 22.1302 63.4936C21.7558 61.3414 21.583 59.1605 21.6144 56.9769C21.5934 54.7724 21.7544 52.5692 22.0948 50.3922C22.3409 48.727 22.8947 47.1221 23.7312 45.6638C24.4643 44.4123 25.5377 43.4016 26.8246 42.7484C28.351 42.0454 30.0187 41.709 31.6944 41.7666C33.3176 41.7221 34.9305 42.014 36.4359 42.6227C37.7384 43.1961 38.8499 44.1347 39.6393 45.326C40.5478 46.7464 41.163 48.3369 41.4497 50.0021C41.8529 52.2432 42.0401 54.5184 42.0126 56.795C42.0506 59.1448 41.8582 61.4933 41.4393 63.8051ZM34.6974 52.0914C34.6582 51.0572 34.5037 50.0309 34.2393 49.0307C34.1083 48.4456 33.7863 47.9232 33.3255 47.5449C32.8922 47.2648 32.3843 47.126 31.8698 47.1443C31.3082 47.1142 30.7531 47.2687 30.2858 47.5855C29.8237 48.0057 29.5043 48.5621 29.3734 49.176C29.1168 50.1971 28.9702 51.2418 28.9348 52.2943C28.868 53.6243 28.8314 55.3183 28.8314 57.3867C28.8314 59.0675 28.8733 60.4853 28.9558 61.6425C29.0042 62.5929 29.1574 63.5342 29.4139 64.4492C29.5632 65.0475 29.88 65.5881 30.3277 66.007C30.7571 66.3395 31.2886 66.5084 31.8292 66.4862C32.3542 66.5032 32.8699 66.3343 33.2836 66.0083C33.7339 65.5855 34.0586 65.0462 34.2222 64.4492C34.4919 63.5145 34.6503 62.551 34.6974 61.581C34.7799 60.3897 34.8218 58.9288 34.8218 57.1995C34.8218 55.1102 34.7799 53.4083 34.6974 52.0914ZM63.6323 71.3926H59.6552C59.1264 71.3887 58.5975 71.4175 58.0713 71.4751C57.9639 70.7224 57.8291 69.9173 57.6785 69.0271C57.5293 68.1395 57.3486 67.3122 57.164 66.5267C57.1064 66.3042 57.024 66.1746 56.9114 66.134C56.7438 66.0777 56.571 66.0424 56.3956 66.0293C55.9937 65.9952 55.5905 65.9809 55.1873 65.9874H51.6541C51.2784 65.9822 50.904 65.9966 50.5296 66.0293C50.4615 66.0136 50.3921 66.0123 50.3227 66.0254C50.2547 66.0385 50.1892 66.0646 50.1316 66.1039C50.074 66.1432 50.0256 66.1929 49.9876 66.2518C49.9483 66.3107 49.9222 66.3762 49.9104 66.4443C49.7402 67.1211 49.5595 67.9209 49.3632 68.8556C49.1668 69.7916 49.0019 70.6648 48.8474 71.4542C48.4547 71.4542 47.9507 71.4083 47.3 71.3926C46.6507 71.3769 46.0564 71.3926 45.4477 71.3926H43.4513C42.7863 71.3926 42.2862 71.428 41.9563 71.4542C42.4237 69.501 42.9499 67.3214 43.5338 64.9166C44.119 62.5131 44.7159 60.0323 45.3246 57.4757C45.9334 54.919 46.5368 52.3414 47.1351 49.7429C47.7334 47.1443 48.2819 44.6453 48.7806 42.2444H49.7363L50.9419 42.2902H55.9571L58.6394 42.2287C59.1133 44.5458 59.6291 46.9964 60.1867 49.5819C60.7431 52.166 61.3204 54.7502 61.9147 57.3356C62.5038 59.9237 63.0798 62.4306 63.6427 64.8603C64.207 67.2886 64.7227 69.4814 65.1901 71.4384C64.8196 71.4254 64.2999 71.4096 63.6323 71.3926ZM55.8065 60.5979C55.8118 60.535 55.8118 60.4722 55.8065 60.4107C55.8026 60.3622 55.8026 60.3125 55.8065 60.264C55.4976 58.6434 55.1873 56.9756 54.8679 55.2555C54.5485 53.5353 54.2487 52.0076 53.9751 50.6671C53.9267 50.4969 53.8966 50.3228 53.8874 50.1461C53.8769 49.9353 53.8481 49.7246 53.8049 49.5177C53.7225 48.9312 53.64 48.6341 53.5575 48.6341C53.475 48.6341 53.4344 48.947 53.352 49.5596C53.3192 49.7311 53.2996 49.9052 53.2891 50.0793C53.2695 50.2849 53.2342 50.4878 53.1805 50.6867C52.8768 52.0286 52.5416 53.5563 52.1489 55.2764C51.7562 56.9952 51.4224 58.6905 51.0872 60.3688V60.5769C51.0872 60.7995 51.226 60.9147 51.5048 60.9147H55.5238C55.8013 60.9147 55.9414 60.7995 55.9414 60.5769L55.8065 60.5979ZM81.792 67.0517V70.1136C81.792 70.6334 81.792 71.0496 81.8326 71.4123C80.5837 71.3861 79.3217 71.3717 78.0454 71.3717H70.5351C69.3137 71.3717 68.0792 71.3848 66.8304 71.4123C66.8854 68.9878 66.9155 66.5856 66.9181 64.2044V49.6539C66.9181 47.2294 66.8893 44.784 66.8304 42.323C67.4718 42.323 68.0792 42.3622 68.6631 42.3622H72.2736C72.8823 42.3622 73.4806 42.3622 74.0631 42.323C74.0055 44.4005 73.978 46.6076 73.9806 48.9417V60.7602C73.9806 62.2395 74.012 63.6795 74.0435 65.0776C74.0304 65.2033 74.0605 65.3289 74.1259 65.4363C74.1822 65.5043 74.3223 65.541 74.5435 65.541H78.5363C79.6438 65.541 80.7395 65.5122 81.8221 65.4572C81.8221 66.0188 81.8064 66.5529 81.792 67.0517ZM89.2459 71.3913H85.3134C84.6785 71.3913 84.1261 71.428 83.6574 71.4542V67.6814C83.6574 66.4809 83.6574 65.2857 83.698 64.101C83.7399 62.9163 83.698 61.7054 83.698 60.463V52.7617V48.8854C83.698 47.6064 83.698 46.406 83.6574 45.2475C83.6155 44.0889 83.6574 43.1228 83.6574 42.3164C84.2347 42.3439 84.8278 42.3648 85.4378 42.3792H89.1622C89.7709 42.3792 90.3325 42.3426 90.8587 42.3164C90.8273 44.1046 90.8064 46.2332 90.7972 48.7035C90.7868 51.1737 90.7868 53.7382 90.7972 56.3996V64.6312C90.7972 65.935 90.8234 67.1616 90.8326 68.3215C90.843 69.48 90.8326 70.5247 90.8326 71.4384C90.4307 71.428 89.8939 71.4083 89.2446 71.3926L89.2459 71.3913ZM109.422 48.007H106.573C106.238 48.007 106.057 48.0437 105.971 48.1314C105.873 48.3552 105.837 48.6014 105.866 48.8435C105.836 49.5714 105.82 50.3254 105.82 51.1043V62.8443C105.82 64.3824 105.852 65.8735 105.862 67.3279C105.871 68.7836 105.862 70.166 105.862 71.4856C105.312 71.462 104.734 71.4411 104.129 71.4227H100.384C99.7645 71.4227 99.1924 71.4594 98.6649 71.4856C98.6649 68.887 98.7172 65.9979 98.7277 62.8953C98.7369 59.7928 98.7277 56.7059 98.7277 53.6296V51.1148C98.7277 50.3346 98.7277 49.5557 98.6858 48.8121C98.7159 48.5765 98.6806 48.3382 98.5824 48.1209C98.5104 48.0489 98.3245 48.0162 98.0195 48.0162H95.2599C94.5137 48.0162 93.6105 48.0489 92.5579 48.0803C92.5841 47.7989 92.5933 47.4088 92.5933 46.9048V43.5849C92.5933 43.0233 92.5933 42.6083 92.5579 42.3282C95.7456 42.4107 98.928 42.4512 102.106 42.4512C105.391 42.4512 108.657 42.4107 111.908 42.3269C111.944 42.6594 111.944 43.0652 111.944 43.5836V46.7032C111.944 47.2229 111.944 47.6693 111.985 48.0908C111.093 48.0384 110.241 48.0175 109.422 48.007ZM119.326 71.3913H115.395C114.76 71.3913 114.209 71.428 113.739 71.4542V67.6814C113.739 66.477 113.77 65.2857 113.781 64.101C113.791 62.9163 113.781 61.7054 113.781 60.463V52.7617V48.8854C113.781 47.6064 113.781 46.406 113.739 45.2475C113.698 44.0889 113.739 43.1228 113.739 42.3164C114.318 42.3439 114.911 42.3648 115.519 42.3792H119.244C119.852 42.3792 120.414 42.3426 120.935 42.3164C120.909 44.1046 120.888 46.2332 120.874 48.7035C120.86 51.1737 120.86 53.7382 120.874 56.3996V64.6312C120.874 65.935 120.905 67.1616 120.921 68.3215C120.935 69.48 120.921 70.5247 120.921 71.4384L119.326 71.3913ZM143.139 63.8051C142.841 65.4703 142.22 67.0609 141.307 68.4812C140.523 69.6542 139.417 70.5718 138.125 71.1217C136.646 71.7016 135.067 71.9791 133.481 71.9372C131.844 71.9896 130.215 71.6662 128.72 70.9921C127.431 70.3637 126.342 69.3845 125.578 68.1644C124.707 66.731 124.112 65.1443 123.83 63.4883C123.452 61.3375 123.28 59.1553 123.314 56.9717C123.293 54.7672 123.452 52.564 123.793 50.387C124.035 48.7244 124.585 47.1221 125.414 45.6638C126.147 44.4136 127.221 43.4016 128.508 42.7484C130.035 42.0467 131.701 41.7103 133.378 41.7666C135.001 41.7208 136.617 42.0127 138.125 42.6227C139.431 43.1856 140.551 44.1151 141.348 45.2998C142.254 46.7215 142.87 48.3107 143.16 49.9759C143.56 52.2171 143.746 54.4923 143.716 56.7688C143.754 59.1278 143.56 61.4841 143.139 63.8051ZM136.395 52.0914C136.356 51.0572 136.203 50.0309 135.937 49.0307C135.806 48.4469 135.484 47.9232 135.024 47.5449C134.56 47.2752 134.034 47.1365 133.498 47.1443C132.964 47.1522 132.441 47.304 131.985 47.5855C131.522 48.007 131.201 48.5621 131.067 49.176C130.81 50.1971 130.664 51.2418 130.634 52.2943C130.561 53.6243 130.529 55.3183 130.529 57.3867C130.529 59.0675 130.571 60.4853 130.654 61.6425C130.702 62.5929 130.857 63.5342 131.113 64.4492C131.26 65.0475 131.577 65.5894 132.027 66.007C132.454 66.3395 132.984 66.5084 133.522 66.4862C134.05 66.5045 134.567 66.3343 134.983 66.0083C135.432 65.5868 135.755 65.0462 135.916 64.4492C136.19 63.5158 136.351 62.5523 136.395 61.581C136.478 60.3897 136.52 58.9288 136.52 57.1995C136.52 55.1102 136.478 53.4083 136.395 52.0914ZM165.62 71.3913H161.406C160.797 71.3913 160.302 71.428 159.915 71.4542C159.718 70.9344 159.45 70.259 159.104 69.3753C158.759 68.493 158.378 67.5308 157.96 66.4822C157.541 65.431 157.108 64.3458 156.634 63.2121C156.159 62.0798 155.715 60.9932 155.287 59.9433C154.859 58.8947 154.462 57.9483 154.106 57.0961C153.75 56.2438 153.456 55.5775 153.234 55.1062C153.137 54.8654 153.054 54.6219 152.982 54.3731C152.899 54.0773 152.831 53.8534 152.775 53.6767C152.711 53.5445 152.662 53.4044 152.631 53.2604C152.589 53.0902 152.543 53.0065 152.486 53.0065C152.429 53.0065 152.403 53.0889 152.403 53.2604V53.5523L152.445 55.4793L152.527 71.4502C152.135 71.424 151.682 71.4044 151.166 71.3874H147.626C146.998 71.3874 146.486 71.4227 146.079 71.4489C146.104 69.5232 146.123 67.3999 146.14 65.0776C146.159 62.7566 146.159 60.3321 146.14 57.803V49.8987C146.14 47.2543 146.121 44.7212 146.079 42.2955L148.142 42.3583H152.213L154.276 42.2955L155.112 44.4947C155.456 45.3705 155.817 46.2987 156.195 47.2792L157.387 50.2574C157.789 51.2654 158.171 52.2079 158.532 53.085L159.492 55.4126C159.771 56.0828 160.008 56.5606 160.121 56.8355C160.173 56.9769 160.281 57.2414 160.43 57.6367C160.58 58.032 160.714 58.3489 160.828 58.5976C160.853 58.6814 160.89 58.7743 160.93 58.8725C160.944 58.9144 160.968 58.951 161.004 58.9772C161.038 59.0034 161.078 59.0165 161.122 59.0191C161.148 59.0191 161.169 58.9563 161.183 58.8267C161.199 58.6958 161.183 58.5976 161.183 58.5151V57.6105V56.5711L161.095 42.3216L162.567 42.3845H165.728L167.467 42.3216C167.437 44.699 167.413 47.0867 167.4 49.4876C167.386 51.8885 167.386 54.3142 167.4 56.7635V64.101C167.4 66.5294 167.422 68.9734 167.467 71.4332C166.967 71.428 166.353 71.407 165.62 71.3913ZM231.667 71.3822H224.522L236.351 17.284H243.491L231.667 71.3822ZM220.194 71.3822H213.049L224.878 17.284H232.023L220.194 71.3822ZM208.727 71.3822H201.582L213.416 17.284H220.556L208.727 71.3822ZM197.259 71.3822H190.114L201.943 17.284H209.088L197.259 71.3822ZM185.79 71.3822H178.646L190.475 17.284H197.619L185.79 71.3822ZM12.329 4.78084C12.3578 4.65255 12.3748 4.52295 12.3814 4.39073C12.3814 4.24935 12.3526 4.10797 12.2963 3.97706C12.24 3.84615 12.1588 3.72833 12.0554 3.63146C11.952 3.53328 11.8302 3.45866 11.698 3.41023C11.5645 3.3631 11.4231 3.34215 11.2817 3.35132C10.9322 3.39583 10.5944 3.50972 10.2894 3.68906C9.98441 3.8671 9.71867 4.10666 9.5079 4.39073L8.47503 9.16368H7.4487L8.4135 4.77168C8.44885 4.61721 8.46848 4.4575 8.46979 4.2991C8.46979 3.77939 8.07838 3.3631 7.34005 3.3631C6.64492 3.46521 6.01656 3.8383 5.59241 4.40252L4.55954 9.17415H3.52798L4.96798 2.63132H5.99954L5.76783 3.57124C6.01656 3.25313 6.32812 2.99001 6.68419 2.79888C7.03896 2.60906 7.43038 2.49517 7.83096 2.46506C8.98689 2.46506 9.49743 3.28979 9.49743 3.6655V3.70608C9.76318 3.3487 10.1022 3.05153 10.4923 2.83815C10.8824 2.62346 11.3131 2.49648 11.7569 2.46506C11.9755 2.45197 12.1955 2.48339 12.401 2.55932C12.6065 2.63524 12.795 2.75306 12.9534 2.90623C13.1118 3.05808 13.2375 3.24266 13.3213 3.44688C13.4064 3.6511 13.447 3.86972 13.443 4.09095C13.4326 4.27423 13.4103 4.4575 13.3776 4.63684L12.3814 9.17415H11.3485L12.3303 4.78215L12.329 4.78084ZM18.3076 2.46899C18.6833 2.44935 19.059 2.51088 19.4086 2.64703C19.7594 2.78448 20.0762 2.99524 20.3406 3.26361C20.6038 3.53328 20.8093 3.85663 20.9402 4.21008C21.0711 4.56484 21.1274 4.94317 21.1038 5.3215C21.0947 5.62652 21.0606 5.93154 21.0004 6.23132H15.7025V6.54288C15.7025 7.5823 16.4408 8.49081 17.911 8.49081C18.5851 8.49081 19.241 8.26826 19.7777 7.85721L20.1181 8.55888C19.4635 9.05634 18.665 9.32863 17.8442 9.33386C15.8675 9.33386 14.671 8.17924 14.671 6.43292C14.633 5.4223 14.9943 4.43786 15.6763 3.6943C16.3571 2.95073 17.3048 2.51088 18.3076 2.46899ZM20.1914 5.22724C20.2045 4.96543 20.1626 4.70361 20.067 4.46012C19.9715 4.21663 19.8249 3.99539 19.6376 3.81343C19.4504 3.63015 19.2266 3.49139 18.9805 3.40368C18.7357 3.31597 18.4752 3.28193 18.2147 3.3055C17.6269 3.33823 17.0679 3.57255 16.6307 3.96921C16.1934 4.36586 15.9041 4.90259 15.8112 5.48775H20.1652C20.1822 5.40266 20.1914 5.31495 20.1914 5.22724ZM30.7558 4.78084C30.7898 4.65386 30.8081 4.52295 30.8134 4.39073C30.8134 4.24804 30.7846 4.10666 30.7283 3.97575C30.672 3.84484 30.5895 3.72703 30.4861 3.62884C30.3814 3.53197 30.2596 3.45735 30.1261 3.40892C29.9926 3.36179 29.8512 3.34215 29.7085 3.35132C29.359 3.39713 29.0225 3.51233 28.7175 3.69168C28.4125 3.86972 28.1467 4.10797 27.9347 4.39073L26.9018 9.16368H25.8702L26.8246 4.78215C26.8547 4.62637 26.873 4.46797 26.8756 4.30957C26.8756 3.78986 26.4881 3.37357 25.7498 3.37357C25.0547 3.47437 24.4263 3.84746 24.0022 4.41299L22.9706 9.18332H21.939L23.379 2.64179H24.4093L24.1985 3.57124C24.4473 3.25313 24.7601 2.99001 25.1149 2.79888C25.4696 2.60906 25.8611 2.49517 26.2617 2.46506C27.4176 2.46506 27.9281 3.28979 27.9281 3.6655V3.70608C28.1939 3.3487 28.5329 3.05153 28.923 2.83815C29.3131 2.62346 29.7451 2.49648 30.1876 2.46506C30.4062 2.45197 30.6262 2.48339 30.8317 2.55932C31.0372 2.63524 31.2257 2.75306 31.3841 2.90623C31.5425 3.05808 31.6682 3.24266 31.752 3.44688C31.8371 3.6511 31.879 3.86972 31.8737 4.09095C31.8632 4.27423 31.841 4.4575 31.8083 4.63684L30.812 9.17415H29.7805L30.7544 4.78215L30.7558 4.78084ZM33.836 9.17154H32.8045L34.8061 0.13488H35.8377L35.0784 3.56993C35.331 3.2335 35.6544 2.9599 36.0288 2.77139C36.4019 2.58026 36.8129 2.47815 37.2305 2.47423C38.7098 2.47423 39.744 3.46128 39.744 5.16572C39.744 7.29037 38.427 9.32339 36.343 9.32339C35.8913 9.34564 35.441 9.25008 35.0391 9.04193C34.6359 8.8351 34.2929 8.52484 34.0481 8.1439L33.836 9.17154ZM36.8483 3.37226C36.4529 3.39059 36.0667 3.50317 35.7225 3.69692C35.3755 3.89197 35.081 4.16557 34.8585 4.49546L34.2275 7.36892C34.4317 7.70404 34.721 7.97764 35.0653 8.16092C35.4109 8.34419 35.7984 8.42928 36.1885 8.40833C37.6678 8.40833 38.664 6.90681 38.664 5.33721C38.6902 4.13154 37.9217 3.37226 36.8483 3.37226ZM44.4672 2.46899C44.8429 2.44935 45.2186 2.51088 45.5681 2.64703C45.919 2.78448 46.2358 2.99524 46.5002 3.26361C46.7646 3.53328 46.9688 3.85663 47.0998 4.21008C47.2307 4.56484 47.2883 4.94317 47.2634 5.3215C47.2555 5.62783 47.2202 5.93154 47.156 6.23132H41.8634V6.54288C41.8634 7.5823 42.6004 8.49081 44.0653 8.49081C44.7329 8.48557 45.3809 8.26433 45.9111 7.85721L46.2475 8.55888C45.593 9.05634 44.7944 9.32863 43.9723 9.33386C41.9956 9.33386 40.8004 8.17924 40.8004 6.43292C40.7808 5.93023 40.8606 5.42753 41.0347 4.95626C41.2089 4.48368 41.4733 4.05037 41.815 3.68252C42.1553 3.31335 42.5664 3.01619 43.0206 2.80804C43.4762 2.5999 43.9684 2.4847 44.4672 2.46768V2.46899ZM46.351 5.22724C46.364 4.96543 46.3222 4.70361 46.2266 4.46012C46.131 4.21663 45.9844 3.99539 45.7972 3.81343C45.61 3.63015 45.3862 3.49139 45.1414 3.40368C44.8952 3.31597 44.6347 3.28193 44.3755 3.3055C43.7864 3.33692 43.2262 3.57124 42.7876 3.9679C42.3491 4.36455 42.0598 4.90128 41.9655 5.48775H46.3248C46.3392 5.40135 46.3483 5.31495 46.351 5.22724ZM49.5648 2.63001H50.5963L50.3699 3.63277C50.6526 3.26099 51.0205 2.96252 51.4407 2.76484C51.8622 2.56717 52.3243 2.47423 52.7891 2.49386L52.5626 3.53328C52.3924 3.49401 52.2196 3.47699 52.0468 3.48092C51.6737 3.50972 51.3111 3.61968 50.9865 3.80426C50.6592 3.99015 50.379 4.24543 50.163 4.55175L49.1315 9.17284H48.1261L49.5648 2.63001ZM59.904 2.46899C61.7446 2.46899 62.8743 3.64324 62.8743 5.3791C62.8743 7.45663 61.327 9.33255 59.2638 9.33255C57.4049 9.33255 56.2922 8.16877 56.2922 6.43292C56.287 4.37503 57.8042 2.46899 59.904 2.46899ZM59.8726 3.37226C58.3972 3.37226 57.3499 4.84892 57.3499 6.39233C57.3499 7.62288 58.0608 8.42404 59.2835 8.42404C60.7588 8.42404 61.8113 6.94739 61.8113 5.40397C61.8113 4.17343 61.0992 3.37226 59.8726 3.37226ZM65.2372 3.52281H64.1638L64.3654 2.63001H65.4388L65.5462 2.1103C65.8407 0.769789 66.528 -0.0156657 67.6721 -0.0156657C68.0845 -0.0287566 68.4916 0.079898 68.8425 0.295898L68.451 1.02899C68.2468 0.884989 67.9994 0.812989 67.7494 0.82608C67.0948 0.82608 66.7178 1.27379 66.5581 2.10899L66.4494 2.63001H67.7651L67.5792 3.52281H66.2635L65.0003 9.17284H63.9687L65.2372 3.52281ZM71.4999 7.76295L72.4438 3.50841H71.3651L71.5667 2.63001H72.6454L73.0315 0.841789H74.0631L73.6704 2.63001H74.9926L74.791 3.5071H73.4701L72.5825 7.54564C72.5773 7.63597 72.5773 7.7263 72.5825 7.81532C72.5825 8.21066 72.7998 8.42404 73.2279 8.42404C73.4518 8.42535 73.6704 8.35073 73.8471 8.21066L73.9649 9.0223C73.6822 9.23175 73.3366 9.34041 72.9857 9.33386C72.0877 9.33386 71.5104 8.95423 71.5104 8.14259C71.4973 8.01692 71.4934 7.88993 71.4999 7.76295ZM80.2643 4.8751C80.3062 4.72848 80.3336 4.57924 80.3467 4.42739C80.3467 3.66812 79.7694 3.38797 78.9997 3.38797C78.2247 3.46259 77.5073 3.83437 76.9981 4.42739L75.9665 9.18201H74.935L76.9156 0.136189H77.9485L77.1735 3.56993C77.7757 2.92193 78.5965 2.52659 79.4749 2.46375C80.6138 2.46375 81.4097 3.02928 81.4097 4.08441C81.3992 4.26768 81.3718 4.45095 81.3272 4.6303L80.3467 9.16761H79.3414L80.2643 4.8751ZM86.2743 2.46899C86.65 2.44935 87.0244 2.51088 87.3739 2.64703C87.7248 2.78448 88.0416 2.99524 88.306 3.26361C88.5705 3.53328 88.7747 3.85663 88.9069 4.21008C89.0378 4.56484 89.0941 4.94317 89.0705 5.3215C89.0627 5.62783 89.026 5.93154 88.9619 6.23132H83.6692V6.54288C83.6692 7.5823 84.4062 8.49081 85.8724 8.49081C86.5479 8.49081 87.2064 8.26826 87.7444 7.85721L88.0795 8.55888C87.425 9.05634 86.6264 9.32863 85.8043 9.33386C83.8289 9.33386 82.6324 8.17924 82.6324 6.43292C82.6128 5.93284 82.6913 5.43146 82.8641 4.9615C83.0369 4.49023 83.3 4.05823 83.6378 3.69168C83.9755 3.32252 84.384 3.02535 84.8356 2.81459C85.2873 2.60513 85.7769 2.48732 86.2743 2.46899ZM88.1568 5.22724C88.1699 4.96543 88.128 4.70361 88.0324 4.46012C87.9369 4.21663 87.7915 3.99539 87.6043 3.81343C87.4171 3.63015 87.1933 3.49139 86.9472 3.40368C86.7024 3.31597 86.4406 3.28193 86.1814 3.3055C85.5923 3.33692 85.032 3.57124 84.5947 3.9679C84.1562 4.36455 83.8656 4.90128 83.7726 5.48775H88.1319C88.145 5.40135 88.1529 5.31495 88.1568 5.22724Z" fill="#17191F"/>
</g>
<defs>
<clipPath id="clip0_142_14182">
<rect width="244" height="72" fill="white"/>
</clipPath>
</defs>
</svg>
