<svg version="1.1" id="Layer_1" xmlns="http://www.w3.org/2000/svg" xmlns:xlink="http://www.w3.org/1999/xlink" width="228" height="72" viewBox="60 60 1330 372" fill="none">
<path fill="currentColor" opacity="1.000000" stroke="none" 
	d="
M416.749573,141.250397 
	C427.130493,151.628876 437.304626,161.714966 447.337433,171.939713 
	C448.586121,173.212311 449.085663,175.219971 449.932373,176.887009 
	C448.402588,177.600540 446.938385,178.554977 445.333313,178.991989 
	C413.841827,187.566299 382.335938,196.087860 350.826385,204.595688 
	C347.541443,205.482651 344.214844,206.215073 339.450714,207.373413 
	C349.574432,169.457245 359.484894,132.339920 369.674072,94.178589 
	C385.573425,110.076698 401.036499,125.538544 416.749573,141.250397 
z"/>
<path fill="currentColor" opacity="1.000000" stroke="none" 
	d="
M283.286682,170.690063 
	C267.392700,143.171371 251.709991,115.960732 235.765091,88.295135 
	C274.671936,88.295135 313.039032,88.295135 352.231262,88.295135 
	C350.045349,92.457001 348.126953,96.443230 345.917908,100.261299 
	C331.628296,124.959030 317.283020,149.624557 302.934845,174.288330 
	C300.802368,177.953964 298.540100,181.543869 296.371796,185.188965 
	C294.612885,188.145782 293.082764,187.834702 291.502747,185.010849 
	C288.876190,180.316589 286.170380,175.666687 283.286682,170.690063 
z"/>
<path fill="currentColor" opacity="1.000000" stroke="none" 
	d="
M206.250000,108.249992 
	C210.459015,103.997604 214.418045,99.995239 219.041397,95.321289 
	C229.218460,133.233398 239.148880,170.226700 249.406052,208.437241 
	C211.563660,198.314896 174.518127,188.405701 136.313599,178.186478 
	C160.034683,154.465378 183.017334,131.482697 206.250000,108.249992 
z"/>
<path fill="currentColor" opacity="1.000000" stroke="none" 
	d="
M129.999527,284.000000 
	C129.999527,254.543854 129.999527,225.587708 129.999527,195.138245 
	C163.977783,214.753754 197.126755,233.890503 231.286667,253.610886 
	C197.009476,273.426910 163.923828,292.554077 129.999527,312.166077 
	C129.999527,302.298889 129.999527,293.399445 129.999527,284.000000 
z"/>
<path fill="currentColor" opacity="1.000000" stroke="none" 
	d="
M425.112579,358.044006 
	C407.068695,375.716919 389.024811,393.389832 371.073273,410.972260 
	C361.241913,374.661102 351.256866,337.782227 340.908630,299.561890 
	C346.089020,300.655914 349.834503,301.283051 353.491852,302.245300 
	C382.223541,309.804321 410.938843,317.425781 439.657684,325.033783 
	C442.165039,325.697998 444.841492,326.054626 447.096191,327.218842 
	C448.471375,327.928925 449.189453,329.911591 449.822815,331.733032 
	C441.294220,340.010620 433.129700,347.861755 425.048248,355.797424 
	C424.684814,356.154327 425.073914,357.277618 425.112579,358.044006 
z"/>
<path fill="currentColor" opacity="1.000000" stroke="none" 
	d="
M141.999741,328.166840 
	C162.980804,322.445404 183.959869,316.716583 204.943695,311.005341 
	C217.414810,307.610992 229.889816,304.230804 242.372955,300.881012 
	C244.033051,300.435516 245.751434,300.207245 248.312424,299.709290 
	C245.879303,309.092804 243.713852,317.578918 241.476517,326.046051 
	C235.668564,348.026062 229.820435,369.995483 224.008057,391.974365 
	C222.545166,397.506134 221.156311,403.057465 219.109680,408.671783 
	C212.020203,402.692291 205.629196,396.557526 199.038330,390.645538 
	C197.304642,389.090424 194.952469,388.224823 192.884308,387.042542 
	C179.004013,373.265442 165.123718,359.488342 151.077148,345.039917 
	C148.633148,341.104462 146.165298,337.952179 144.152847,334.531952 
	C143.040909,332.642212 142.692383,330.303284 141.999741,328.166840 
z"/>
<path fill="currentColor" opacity="1.000000" stroke="none" 
	d="
M455.956482,308.113464 
	C447.822998,303.695862 439.604126,299.427399 431.574646,294.828217 
	C416.881500,286.412170 402.302032,277.797638 387.671631,269.271973 
	C379.518646,264.520905 371.309937,259.862946 363.222382,255.003189 
	C359.263458,252.624329 359.481964,251.463379 363.493317,249.147751 
	C386.468414,235.884766 409.391083,222.530975 432.376312,209.285645 
	C440.263641,204.740555 448.279999,200.419464 456.693054,196.354355 
	C457.432159,199.181396 457.957947,201.649734 457.962280,204.118973 
	C458.017914,235.746658 458.054565,267.374695 457.909973,299.001831 
	C457.896027,302.041962 456.637360,305.076385 455.956482,308.113464 
z"/>
<path fill="currentColor" opacity="1.000000" stroke="none" 
	d="
M929.000244,189.048248 
	C930.137939,180.870789 931.455566,173.529816 936.390259,166.739380 
	C945.484802,154.224915 969.048645,150.820419 980.326721,160.784622 
	C980.648132,161.068573 981.084961,161.221878 982.000000,161.733597 
	C982.000000,156.348358 982.000000,151.417984 982.000000,146.487610 
	C982.000000,141.520554 982.000000,136.553497 982.000000,131.296844 
	C988.742676,131.296844 995.127563,131.296844 1001.601440,131.296844 
	C1001.750793,131.899002 1001.964539,132.359039 1001.964783,132.819168 
	C1001.980591,162.293167 1001.978943,191.767181 1001.978943,221.620392 
	C995.758057,221.620392 989.694397,221.620392 983.519714,221.620392 
	C983.038818,219.852402 982.519104,217.941452 981.915344,215.721573 
	C971.269592,225.987747 959.425598,224.804642 947.857483,220.178467 
	C934.390930,214.793137 929.858337,203.074814 929.000244,189.048248 
M967.244690,171.999969 
	C964.085693,172.589676 960.561646,172.479218 957.836121,173.900299 
	C949.629883,178.178894 948.488403,186.645233 950.947937,195.716644 
	C952.682007,202.112320 959.278809,207.425888 965.416809,206.880478 
	C974.560547,206.067947 980.563232,202.163559 981.881958,190.915695 
	C982.960388,181.717056 977.400879,173.166214 967.244690,171.999969 
z"/>
<path fill="currentColor" opacity="1.000000" stroke="none" 
	d="
M1184.245605,211.605011 
	C1174.453247,197.375427 1174.931152,178.102676 1185.483643,165.326340 
	C1190.704346,159.005493 1198.402222,155.852722 1206.568115,155.106262 
	C1214.820801,154.351837 1222.944946,155.169556 1229.889160,162.237396 
	C1229.889160,151.423203 1229.889160,141.534897 1229.889160,131.326340 
	C1236.682495,131.326340 1243.070068,131.326340 1249.731201,131.326340 
	C1249.731201,161.349457 1249.731201,191.284622 1249.731201,221.610245 
	C1243.777100,221.610245 1237.710693,221.610245 1231.182983,221.610245 
	C1231.081055,220.086395 1230.966919,218.379852 1230.845093,216.560242 
	C1216.185059,227.667862 1194.311157,224.228241 1184.245605,211.605011 
M1227.609985,198.870926 
	C1228.406494,195.074234 1229.739990,191.297226 1229.880127,187.476486 
	C1230.120117,180.928802 1226.473267,176.131638 1220.791504,173.456879 
	C1215.577271,171.002167 1210.178467,170.824799 1204.927246,174.410599 
	C1199.011108,178.450516 1197.801880,184.105194 1197.964600,190.647079 
	C1198.165771,198.743088 1202.511230,204.158661 1211.169312,206.636398 
	C1216.251465,208.090790 1223.571777,204.763641 1227.609985,198.870926 
z"/>
<path fill="currentColor" opacity="1.000000" stroke="none" 
	d="
M635.317688,171.749664 
	C640.258972,182.788254 644.946777,193.527298 649.676514,204.247879 
	C652.158081,209.872925 654.713013,215.465591 657.482727,221.623932 
	C649.790405,221.623932 642.748108,221.623932 635.384583,221.623932 
	C633.501587,216.941895 631.708191,211.907471 629.406433,207.117310 
	C628.735352,205.720642 626.631470,204.166901 625.154724,204.136688 
	C613.337158,203.894867 601.512451,204.001572 589.657471,204.001572 
	C587.566345,209.095932 585.664307,214.079025 583.439026,218.913269 
	C582.857910,220.175613 581.308411,221.795334 580.138794,221.849564 
	C573.877563,222.139832 567.595825,221.986526 560.771729,221.986526 
	C565.109436,212.049316 569.152954,202.677200 573.284607,193.344070 
	C581.257019,175.334671 589.201721,157.311707 597.415161,139.412399 
	C598.140686,137.831329 600.643372,136.474670 602.518921,136.146149 
	C605.590881,135.608063 608.898743,136.429977 611.976501,135.908188 
	C617.877014,134.907822 620.457275,137.804626 622.497009,142.827377 
	C626.416016,152.477768 630.857056,161.916153 635.317688,171.749664 
M615.072815,173.262909 
	C613.209778,168.505127 611.346680,163.747330 609.017700,157.799667 
	C604.615112,168.364578 600.684265,177.797455 596.550720,187.716766 
	C605.062500,187.716766 612.887634,187.716766 621.360474,187.716766 
	C619.260010,182.823135 617.355164,178.385361 615.072815,173.262909 
z"/>
<path fill="currentColor" opacity="1.000000" stroke="none" 
	d="
M862.780518,163.733276 
	C871.077087,157.065750 880.267334,154.309464 890.464355,155.017502 
	C907.308044,156.187073 921.696411,167.244659 921.994446,186.530624 
	C922.035156,189.163589 922.000000,191.797729 922.000000,194.837921 
	C905.565308,194.837921 889.489502,194.837921 873.320618,194.837921 
	C876.444885,208.272522 891.475586,210.867950 907.548828,200.884125 
	C911.056763,204.610306 914.614258,208.389175 918.221619,212.221008 
	C911.374146,219.620880 903.492798,222.747833 894.201721,223.047211 
	C884.019958,223.375290 874.422668,222.132812 865.637878,216.259445 
	C858.600464,211.554337 854.913025,204.839478 853.166809,197.085678 
	C850.338867,184.528793 854.082031,173.522751 862.780518,163.733276 
M889.228943,170.075577 
	C879.495789,171.009918 873.423889,175.533447 872.831909,182.634247 
	C882.829956,182.634247 892.800171,182.634247 903.221497,182.634247 
	C901.251465,175.450394 896.785217,171.684769 889.228943,170.075577 
z"/>
<path fill="currentColor" opacity="1.000000" stroke="none" 
	d="
M1145.590698,222.995148 
	C1136.934204,222.972122 1128.821289,223.292572 1120.851196,220.145950 
	C1109.307251,215.588379 1101.220825,204.589386 1100.942749,192.546677 
	C1100.738159,183.683197 1101.433716,175.332703 1107.374756,168.007629 
	C1113.330933,160.663956 1120.908936,156.245346 1130.047241,155.171295 
	C1143.094849,153.637741 1157.308350,157.188263 1165.275269,169.778961 
	C1170.096313,177.397934 1170.681396,185.736053 1169.695435,194.798767 
	C1153.609131,194.798767 1137.535889,194.798767 1121.380249,194.798767 
	C1124.093750,208.052933 1139.919556,210.812515 1155.564819,200.839539 
	C1158.501343,204.366791 1161.476562,207.940262 1164.450195,211.512024 
	C1160.359009,218.221161 1154.031860,221.927383 1145.590698,222.995148 
M1149.111938,177.540710 
	C1145.383667,171.652878 1139.202881,169.303558 1131.908203,171.001648 
	C1125.507446,172.491669 1121.956665,176.383804 1121.306152,182.628906 
	C1131.144775,182.628906 1140.983398,182.628906 1151.334351,182.628906 
	C1150.638306,180.797928 1150.131226,179.463928 1149.111938,177.540710 
z"/>
<path fill="currentColor" opacity="1.000000" stroke="none" 
	d="
M724.753906,170.421875 
	C724.045776,171.942032 723.410645,173.560989 722.234924,174.230392 
	C718.122437,176.571716 713.823425,178.585297 709.592712,180.718323 
	C703.448059,169.717712 692.232178,169.997009 685.042114,175.026947 
	C678.384399,179.684433 678.180298,186.865891 679.210571,193.727203 
	C680.130371,199.852585 684.137390,204.303848 690.468262,205.960693 
	C697.734802,207.862366 703.415771,205.703125 708.134460,199.986465 
	C708.939270,199.011414 711.584106,198.558411 712.815125,199.113831 
	C716.950195,200.979431 720.830444,203.410065 725.197144,205.841019 
	C722.175415,214.877792 715.344543,219.910446 706.577148,221.838348 
	C693.527832,224.707840 680.715881,224.001907 669.844849,214.913406 
	C663.793152,209.854004 660.183533,203.326279 658.904419,195.322693 
	C657.504333,186.562576 658.790100,178.517532 663.448547,171.044357 
	C669.630066,161.127869 679.092712,156.291641 690.302795,155.110596 
	C700.680054,154.017334 710.676453,155.681229 718.804138,163.023651 
	C721.034973,165.038925 722.670349,167.713318 724.753906,170.421875 
z"/>
<path fill="currentColor" opacity="1.000000" stroke="none" 
	d="
M757.972168,155.936569 
	C772.086731,152.702026 788.025818,157.047440 795.081787,169.763107 
	C795.523010,170.558334 794.886719,172.793015 794.085266,173.295807 
	C789.810913,175.977249 785.324341,178.320358 780.949951,180.758881 
	C772.998352,170.987717 765.224854,169.285400 756.403625,174.875092 
	C749.282654,179.387344 749.528931,186.382111 750.125488,193.235550 
	C750.690674,199.729080 754.934143,203.915390 760.974670,205.890686 
	C768.062805,208.208527 774.348267,205.801514 779.133728,199.990692 
	C779.937195,199.014954 782.582520,198.558701 783.812500,199.113495 
	C787.948730,200.979050 791.829956,203.409729 796.195801,205.839615 
	C793.256653,214.682327 786.484619,219.855652 778.050781,221.731522 
	C765.132385,224.604843 752.470642,224.111481 741.181702,215.178650 
	C735.263184,210.495422 731.748718,204.524811 730.213867,197.745346 
	C727.230591,184.568314 729.932739,172.360382 741.046875,163.770401 
	C745.743103,160.140778 751.989990,158.517441 757.972168,155.936569 
z"/>
<path fill="currentColor" opacity="1.000000" stroke="none" 
	d="
M659.000305,330.960480 
	C659.000305,334.419617 659.000305,337.386047 659.000305,340.673553 
	C654.660645,340.673553 650.737610,340.673553 645.999634,340.673553 
	C645.999634,335.675781 645.999634,330.584351 645.999634,325.492920 
	C645.999634,320.601562 645.999634,315.710236 645.999634,310.818878 
	C645.672546,310.758026 645.345520,310.697174 645.018433,310.636322 
	C640.697205,317.698242 636.367126,324.754791 632.057800,331.823975 
	C629.223511,336.473389 623.746948,336.409912 620.921692,331.737610 
	C616.944153,325.159729 612.893860,318.625854 608.223389,311.011292 
	C608.223389,321.498993 608.223389,330.836914 608.223389,340.585358 
	C603.380371,340.585358 599.011047,340.585358 594.314697,340.585358 
	C594.314697,321.963226 594.314697,303.376892 594.314697,284.023468 
	C597.868835,284.023468 601.462646,283.900146 605.036316,284.113495 
	C605.888733,284.164337 606.937317,285.178833 607.450073,286.021271 
	C613.844116,296.527039 620.155823,307.082855 626.734192,318.034576 
	C632.086609,309.184204 638.123474,300.883240 642.325500,291.739105 
	C645.892761,283.976349 651.090393,282.918884 659.000305,284.523773 
	C659.000305,299.635376 659.000305,315.051575 659.000305,330.960480 
z"/>
<path fill="currentColor" opacity="1.000000" stroke="none" 
	d="
M1057.590942,206.122253 
	C1057.312622,195.013809 1057.312622,184.245026 1057.312622,173.144012 
	C1053.609985,173.144012 1050.668945,173.144012 1047.364014,173.144012 
	C1047.364014,167.761581 1047.364014,162.700714 1047.364014,157.113495 
	C1050.360229,157.113495 1053.419800,157.113495 1056.819580,157.113495 
	C1056.819580,151.664429 1056.819580,146.722382 1056.819580,141.391296 
	C1063.537476,141.391296 1069.925537,141.391296 1076.848633,141.391296 
	C1076.848633,146.314774 1076.848633,151.376511 1076.848633,156.954895 
	C1082.417603,156.954895 1087.486816,156.954895 1092.765869,156.954895 
	C1092.765869,162.410950 1092.765869,167.345795 1092.765869,172.812286 
	C1087.723389,172.812286 1082.663452,172.812286 1077.011719,172.812286 
	C1077.011719,182.591827 1076.813354,191.860992 1077.098145,201.115311 
	C1077.233887,205.531769 1083.772949,208.394836 1088.838501,206.612564 
	C1089.896973,206.240143 1090.860107,205.597031 1092.385620,204.811813 
	C1094.153442,208.992508 1096.016113,213.050049 1097.509399,217.239243 
	C1097.788330,218.021683 1096.872681,219.735184 1096.024292,220.337387 
	C1085.570801,227.757309 1064.374146,222.475769 1059.079224,211.162445 
	C1058.405273,209.722290 1058.259644,208.034821 1057.590942,206.122253 
z"/>
<path fill="currentColor" opacity="1.000000" stroke="none" 
	d="
M1123.995361,313.064209 
	C1123.998413,303.353485 1123.998413,294.046570 1123.998413,284.371643 
	C1128.705078,284.371643 1133.073242,284.371643 1137.724731,284.371643 
	C1137.724731,303.112427 1137.724731,321.692932 1137.724731,340.253754 
	C1128.455933,342.475830 1125.511841,341.095551 1119.859863,333.778076 
	C1113.473877,325.510315 1106.568237,317.643890 1099.079346,308.628693 
	C1099.079346,320.005890 1099.079346,330.198975 1099.079346,340.691071 
	C1094.288208,340.691071 1090.033203,340.691071 1085.387329,340.691071 
	C1085.387329,322.000183 1085.387329,303.299530 1085.387329,284.829041 
	C1096.053223,280.383514 1100.658569,288.270233 1105.915649,294.728882 
	C1110.890747,300.840973 1115.717041,307.075165 1120.765747,313.124664 
	C1121.291016,313.753937 1122.556763,317.331177 1123.995361,313.064209 
z"/>
<path fill="currentColor" opacity="1.000000" stroke="none" 
	d="
M822.026917,338.699738 
	C822.009338,320.422974 822.009338,302.619598 822.009338,284.890961 
	C830.646545,282.472626 833.498352,283.565918 838.388489,289.682281 
	C845.366089,298.409546 852.674805,306.872040 860.652100,316.416779 
	C860.652100,305.137512 860.652100,294.994080 860.652100,284.428772 
	C865.582825,284.428772 869.954407,284.428772 874.666382,284.428772 
	C874.666382,302.986206 874.666382,321.561676 874.666382,340.169464 
	C866.681396,342.562469 861.973328,340.811096 857.065430,334.433685 
	C850.577698,326.003296 843.736694,317.844696 836.256653,308.590881 
	C836.256653,319.896820 836.256653,330.062653 836.256653,341.795502 
	C831.015198,340.828369 826.529846,340.000732 822.026917,338.699738 
z"/>
<path fill="currentColor" opacity="1.000000" stroke="none" 
	d="
M1264.283569,331.185547 
	C1257.684937,337.737640 1250.271606,341.269623 1241.112549,341.050293 
	C1231.658813,340.823914 1222.195312,341.000000 1212.370239,341.000000 
	C1212.370239,321.978119 1212.370239,303.299408 1212.370239,285.034637 
	C1224.818726,285.034637 1237.306396,283.860382 1249.465698,285.355621 
	C1262.348633,286.939850 1269.726807,297.900635 1270.103149,310.968750 
	C1270.315796,318.348450 1269.010376,324.997589 1264.283569,331.185547 
M1230.582764,295.000458 
	C1229.157104,295.110382 1227.731567,295.220276 1226.419312,295.321442 
	C1226.419312,307.091217 1226.419312,318.432312 1226.419312,330.416016 
	C1232.439819,329.903503 1238.123047,330.013855 1243.506958,328.798096 
	C1249.148682,327.524048 1253.349854,323.874359 1255.133057,317.898041 
	C1256.903076,311.965698 1256.199829,306.645966 1252.275391,301.757263 
	C1246.810791,294.949890 1238.996948,295.534058 1230.582764,295.000458 
z"/>
<path fill="currentColor" opacity="1.000000" stroke="none" 
	d="
M764.504028,295.043762 
	C753.396667,294.215637 746.263062,299.702972 744.520508,307.116180 
	C742.954590,313.777557 743.462097,320.438141 748.967773,325.357910 
	C754.387085,330.200592 760.898804,331.549469 767.795532,328.971771 
	C769.163574,328.460419 770.722351,326.449310 770.851868,325.009216 
	C771.249817,320.584686 770.996826,316.101593 770.996826,311.325684 
	C775.340515,311.325684 779.260193,311.325684 783.949524,311.325684 
	C783.949524,318.974609 783.995850,326.716675 783.868713,334.455902 
	C783.857605,335.134644 782.834351,336.077271 782.068237,336.416595 
	C777.769287,338.320587 773.517700,341.210083 769.040283,341.655548 
	C758.718811,342.682465 748.407471,342.854248 739.500854,335.348480 
	C731.109680,328.276978 727.951416,319.175873 729.256531,309.088684 
	C732.788574,281.789215 763.707642,277.376923 779.883972,288.009552 
	C781.780884,289.256378 783.369324,290.972565 785.366211,292.700867 
	C784.172241,294.062012 783.180969,295.113892 782.277527,296.236481 
	C779.250977,299.997009 776.299377,302.710205 771.597595,298.033386 
	C769.987000,296.431305 767.187561,296.024445 764.504028,295.043762 
z"/>
<path fill="currentColor" opacity="1.000000" stroke="none" 
	d="
M901.561646,306.477905 
	C910.366333,306.799072 918.828735,306.799072 927.642517,306.799072 
	C927.642517,310.735321 927.642517,314.102142 927.642517,317.931580 
	C918.866821,317.931580 910.278320,317.931580 901.348389,317.931580 
	C901.348389,321.959991 901.348389,325.549469 901.348389,329.771790 
	C911.236938,329.771790 921.284424,329.771790 931.659119,329.771790 
	C931.659119,333.638031 931.659119,336.894318 931.659119,340.579926 
	C917.086975,340.579926 902.386658,340.579926 887.341370,340.579926 
	C887.341370,322.024872 887.341370,303.448822 887.341370,284.435547 
	C901.570190,284.435547 915.934143,284.435547 930.651245,284.435547 
	C930.651245,287.623596 930.651245,290.879669 930.651245,294.768585 
	C921.101807,294.768585 911.387146,294.768585 901.219421,294.768585 
	C901.219421,298.973633 901.219421,302.565186 901.561646,306.477905 
z"/>
<path fill="currentColor" opacity="1.000000" stroke="none" 
	d="
M1028.717163,310.648651 
	C1032.240601,302.659882 1035.652954,295.037445 1038.840332,287.322052 
	C1039.861938,284.848938 1041.177246,283.927643 1043.946655,283.920563 
	C1054.813721,283.892609 1054.636108,283.854523 1059.470093,294.861267 
	C1066.117798,309.997406 1073.066528,325.001373 1080.280518,340.932831 
	C1075.236816,340.932831 1070.528320,341.670471 1066.274780,340.599915 
	C1064.349731,340.115326 1062.787109,336.195038 1062.023315,333.554749 
	C1060.851196,329.502533 1058.472656,328.730988 1054.711670,328.926971 
	C1049.235107,329.212372 1043.720581,328.800568 1038.248901,329.128662 
	C1036.670654,329.223267 1034.002686,330.665619 1033.839600,331.782745 
	C1032.419922,341.509735 1025.761230,341.827545 1018.283386,341.002930 
	C1017.471924,340.913452 1016.652710,340.893890 1015.231323,340.803284 
	C1019.749023,330.663086 1024.133911,320.821014 1028.717163,310.648651 
M1050.525269,306.029572 
	C1049.569336,303.887970 1048.613403,301.746368 1047.404785,299.038544 
	C1044.751831,305.600677 1042.353394,311.533020 1039.892456,317.620117 
	C1045.321655,317.620117 1050.014526,317.620117 1055.115234,317.620117 
	C1053.595337,313.661560 1052.257080,310.175842 1050.525269,306.029572 
z"/>
<path fill="currentColor" opacity="1.000000" stroke="none" 
	d="
M697.872253,284.000000 
	C702.127991,283.270721 704.295227,284.801788 705.818909,288.414551 
	C710.781982,300.182831 716.037781,311.827637 721.184875,323.518280 
	C723.679199,329.183563 726.182129,334.845062 728.898010,340.999756 
	C727.025269,340.999756 725.850586,340.846283 724.728638,341.024658 
	C717.443176,342.182983 711.771179,340.777252 710.108521,332.377014 
	C709.522583,329.416534 707.393677,328.842499 704.589844,328.942780 
	C699.105103,329.138947 693.601501,329.165161 688.119324,328.936127 
	C685.033020,328.807190 682.647644,329.632782 682.145020,332.721741 
	C680.857483,340.634399 675.740417,341.981171 668.978088,341.026245 
	C667.679810,340.842957 666.333496,340.999939 664.168701,340.999939 
	C666.046387,336.399902 667.634827,332.214203 669.445496,328.126953 
	C675.285095,314.945404 681.511780,301.924622 686.952209,288.582092 
	C689.254272,282.936401 693.327759,284.109344 697.872253,284.000000 
M693.993225,304.579681 
	C692.241272,308.838898 690.489319,313.098145 688.608765,317.670044 
	C694.248657,317.670044 698.956299,317.670044 704.135498,317.670044 
	C701.520203,311.372742 699.091919,305.525757 696.526733,299.349060 
	C695.617737,301.016876 694.848816,302.427734 693.993225,304.579681 
z"/>
<path fill="currentColor" opacity="1.000000" stroke="none" 
	d="
M1287.990723,302.051514 
	C1290.253784,297.077362 1292.841064,292.615906 1294.445679,287.825256 
	C1295.531738,284.582581 1297.127319,283.776611 1300.164795,283.956024 
	C1303.476562,284.151611 1306.808838,284.000458 1310.380859,284.000458 
	C1318.792725,302.863525 1327.171997,321.653381 1335.714111,340.808685 
	C1330.387085,340.808685 1325.613159,340.808685 1320.822632,340.808685 
	C1320.609131,340.585510 1320.297485,340.402802 1320.204712,340.142303 
	C1316.240479,329.000885 1316.242920,329.000000 1304.585205,329.000000 
	C1299.934326,329.000000 1295.283447,329.000000 1290.753906,329.000000 
	C1285.593384,341.845001 1285.433838,341.943604 1271.888672,340.816376 
	C1271.740356,340.804016 1271.599731,340.697418 1271.046265,340.457153 
	C1276.662720,327.780121 1282.279785,315.102112 1287.990723,302.051514 
M1305.239014,318.000488 
	C1306.888062,318.000488 1308.536987,318.000488 1310.991089,318.000488 
	C1308.373657,311.623474 1305.968262,305.763214 1303.124268,298.834503 
	C1300.188965,305.987793 1297.812012,311.780334 1295.259521,318.000488 
	C1298.724365,318.000488 1301.536621,318.000488 1305.239014,318.000488 
z"/>
<path fill="currentColor" opacity="1.000000" stroke="none" 
	d="
M1196.285400,315.653015 
	C1200.077393,324.010193 1203.670166,332.038330 1207.671875,340.980499 
	C1202.520142,340.980499 1198.266602,341.160065 1194.048584,340.852905 
	C1193.007080,340.777100 1191.738892,339.288055 1191.176514,338.151093 
	C1190.169312,336.114899 1189.930542,333.663055 1188.766968,331.752502 
	C1188.005005,330.501434 1186.209717,329.181183 1184.827271,329.125092 
	C1178.179321,328.855225 1171.509766,328.877380 1164.859619,329.118805 
	C1163.608032,329.164246 1161.927124,330.409027 1161.281860,331.567017 
	C1159.643555,334.507446 1159.122192,339.698212 1156.989746,340.387451 
	C1152.877075,341.716705 1147.961792,340.562683 1142.880737,340.424774 
	C1147.213135,330.719025 1151.500000,321.196533 1155.716919,311.643127 
	C1159.221924,303.702820 1162.686523,295.743988 1166.079102,287.755066 
	C1167.148926,285.235565 1168.459839,283.789917 1171.587036,283.931854 
	C1184.156738,284.502594 1181.035156,281.524994 1186.402710,293.799591 
	C1189.554688,301.007599 1192.853394,308.151337 1196.285400,315.653015 
M1169.418213,317.990448 
	C1173.691162,317.990448 1177.964233,317.990448 1182.916626,317.990448 
	C1180.296265,311.629852 1177.910278,305.838104 1174.949585,298.651459 
	C1172.501831,304.905426 1170.519775,309.808746 1168.696289,314.770416 
	C1168.350586,315.711243 1168.634766,316.883545 1169.418213,317.990448 
z"/>
<path fill="currentColor" opacity="1.000000" stroke="none" 
	d="
M806.000244,193.000000 
	C806.000244,180.546585 806.000244,168.593185 806.000244,156.321136 
	C812.365906,156.321136 818.426025,156.321136 824.805908,156.321136 
	C824.914795,158.261765 825.023254,160.195068 825.160522,162.641586 
	C831.751831,157.102905 839.056946,154.368591 847.748291,155.154129 
	C847.748291,161.134445 847.748291,166.863220 847.748291,172.816849 
	C845.228882,172.943451 842.876465,172.746323 840.671265,173.225998 
	C830.005188,175.546021 826.006531,180.715271 825.999329,191.813782 
	C825.993225,201.296402 825.983765,210.779007 825.966797,220.261612 
	C825.966187,220.586105 825.867188,220.910416 825.751343,221.617218 
	C819.445801,221.617218 813.063416,221.617218 806.000244,221.617218 
	C806.000244,212.324631 806.000244,202.912308 806.000244,193.000000 
z"/>
<path fill="currentColor" opacity="1.000000" stroke="none" 
	d="
M974.414795,337.736206 
	C963.108398,330.210175 959.528259,319.425934 961.229980,307.054810 
	C962.897827,294.929688 972.626099,285.050995 984.996216,283.296661 
	C996.462646,281.670471 1007.703796,283.018616 1015.950256,292.596527 
	C1012.915771,295.651947 1010.132874,298.454041 1007.193542,301.413605 
	C1001.624695,296.670074 995.260498,293.012909 987.048157,295.908539 
	C977.384216,299.316040 973.028687,309.798920 976.762756,319.458496 
	C980.302856,328.615906 992.004578,332.836823 1000.574036,328.178650 
	C1008.588318,323.822296 1009.725342,324.300659 1015.846985,331.822998 
	C1010.829712,342.275604 988.213379,345.915558 974.414795,337.736206 
z"/>
<path fill="currentColor" opacity="1.000000" stroke="none" 
	d="
M1024.104980,222.000092 
	C1021.975647,222.000092 1020.329834,222.000092 1018.342896,222.000092 
	C1018.342896,200.022537 1018.342896,178.313339 1018.342896,156.301086 
	C1024.732544,156.301086 1031.116821,156.301086 1037.751587,156.301086 
	C1037.751587,178.047516 1037.751587,199.639587 1037.751587,222.000092 
	C1033.421143,222.000092 1029.004883,222.000092 1024.104980,222.000092 
z"/>
<path fill="currentColor" opacity="1.000000" stroke="none" 
	d="
M568.000000,301.001953 
	C568.000000,295.209198 568.000000,289.916016 568.000000,284.315491 
	C572.694641,284.315491 576.947754,284.315491 581.603394,284.315491 
	C581.603394,302.976959 581.603394,321.671539 581.603394,340.684418 
	C577.303345,340.684418 573.049438,340.684418 568.000000,340.684418 
	C568.000000,327.652588 568.000000,314.577057 568.000000,301.001953 
z"/>
<path fill="currentColor" opacity="1.000000" stroke="none" 
	d="
M795.000305,293.054810 
	C795.000305,289.929810 795.000305,287.296814 795.000305,284.000000 
	C797.507263,284.000000 799.607483,284.000000 801.707703,284.000000 
	C803.862915,284.000000 806.018127,284.000000 808.586182,284.000000 
	C808.586182,302.941254 808.586182,321.637695 808.586182,340.668579 
	C804.335938,340.668579 800.082214,340.668579 795.000305,340.668579 
	C795.000305,325.018982 795.000305,309.282898 795.000305,293.054810 
z"/>
<path fill="currentColor" opacity="1.000000" stroke="none" 
	d="
M1021.625488,146.833923 
	C1019.507629,144.379318 1016.974976,142.285034 1016.194946,139.668320 
	C1014.555054,134.167160 1016.424988,130.149261 1020.555969,127.873260 
	C1025.864258,124.948608 1033.614624,125.290436 1037.115112,128.603653 
	C1040.322144,131.639099 1041.198486,138.371964 1038.895020,142.278076 
	C1036.028564,147.138824 1029.913452,149.227280 1023.888367,147.414261 
	C1023.270569,147.228378 1022.633057,147.108246 1021.625488,146.833923 
z"/>
<path fill="currentColor" opacity="1.000000" stroke="none" 
	d="
M456.129639,308.455750 
	C456.637360,305.076385 457.896027,302.041962 457.909973,299.001831 
	C458.054565,267.374695 458.017914,235.746658 457.962280,204.118973 
	C457.957947,201.649734 457.432159,199.181396 457.054565,196.297485 
	C457.952850,195.965073 459.070404,195.810898 459.880341,196.238907 
	C460.240112,196.429047 459.997009,197.794205 459.997009,198.626007 
	C459.996124,235.109222 459.992554,271.592438 459.980896,308.075653 
	C459.980743,308.569916 459.873383,309.064117 459.731445,310.287354 
	C458.440338,309.726562 457.371521,309.262299 456.129639,308.455750 
z"/>
<path fill="currentColor" opacity="1.000000" stroke="none" 
	d="
M425.416199,357.910950 
	C425.073914,357.277618 424.684814,356.154327 425.048248,355.797424 
	C433.129700,347.861755 441.294220,340.010620 449.780212,332.051636 
	C449.396301,333.162445 448.878265,334.565247 447.921753,335.535889 
	C440.569092,342.997162 433.131287,350.374573 425.416199,357.910950 
z"/>
<path fill="currentColor" opacity="1.000000" stroke="none" 
	d="
M193.033661,387.344604 
	C194.952469,388.224823 197.304642,389.090424 199.038330,390.645538 
	C205.629196,396.557526 212.020203,402.692291 218.795807,408.897278 
	C217.133530,412.838531 215.449432,409.767120 214.195465,408.592194 
	C209.746567,404.423676 205.513077,400.025024 201.203201,395.708374 
	C198.524963,393.025970 195.856094,390.334229 193.033661,387.344604 
z"/>
<path fill="currentColor" opacity="1.000000" stroke="none" 
	d="
M141.624710,328.117462 
	C142.692383,330.303284 143.040909,332.642212 144.152847,334.531952 
	C146.165298,337.952179 148.633148,341.104462 150.934143,344.741821 
	C147.146164,341.420197 143.284256,337.775787 139.540070,334.014221 
	C136.676590,331.137421 137.495087,329.135223 141.624710,328.117462 
z"/>
</svg>