<svg width="151" height="30" viewBox="0 0 151 30" fill="none" xmlns="http://www.w3.org/2000/svg">
<path d="M95.9092 0.161264C95.8628 0.155798 95.8273 0.125731 95.8273 0.0792662C95.8273 0.0355344 95.8628 0 95.9092 0H145.329V30C133.994 13.9914 116.272 2.83984 95.9092 0.161264Z" fill="#FF6B00"/>
<path d="M137.176 17.479C137.509 12.54 137.403 9.65647 138.247 8.87476C139.029 8.15045 140.439 7.95366 142.836 7.77873C137.577 7.17195 137.703 7.32775 137.176 2.21387C136.648 7.32502 136.774 7.16922 131.515 7.77873C133.909 7.95366 135.32 8.15045 136.104 8.87476C136.946 9.65647 136.839 12.54 137.176 17.479Z" fill="white"/>
<path d="M33.0722 18.7718V29.4479H36.0241V20.7589C37.0189 19.9061 37.7296 20.1904 39.6866 21.8112L40.8783 19.1408C40.2824 18.8866 39.5144 18.6024 38.4074 18.6024C37.3005 18.6024 36.475 19.1408 36.0787 19.6246L35.9366 19.7941L35.9093 19.7667L35.9366 18.7718H33.0722ZM45.0273 13.1195H42.0754V29.4479H45.0273V13.1195ZM19.734 24.1098C19.734 27.0918 21.9479 29.5627 25.5257 29.5627C29.1035 29.5627 31.3174 27.0918 31.3174 24.1098C31.3174 21.1279 29.1035 18.657 25.5257 18.657C21.9479 18.657 19.734 21.1279 19.734 24.1098ZM82.3961 18.7718H79.4442V29.4479H82.3961V18.7718ZM81.2892 13.9449C80.4091 13.9449 79.7258 14.6255 79.7258 15.5056C79.7258 16.3857 80.4063 17.0663 81.2892 17.0663C82.1693 17.0663 82.8498 16.3857 82.8498 15.5056C82.8498 14.6255 82.1693 13.9449 81.2892 13.9449ZM84.2356 21.6964C83.9513 25.758 89.9153 24.7904 89.7458 27.2613C89.6611 28.2534 88.8083 28.5951 87.9009 28.5678C86.4249 28.453 85.5147 27.6029 84.7194 26.6654L83.8393 28.6252C85.031 29.3057 86.3375 29.6474 87.4745 29.7321C90.0301 29.9016 92.1893 28.7946 92.3287 26.3238C92.5829 22.4918 86.4222 22.9728 86.537 21.0131C86.5944 20.1603 87.5592 19.7367 88.5514 19.7913C89.5736 19.8761 90.369 20.4446 91.2491 21.2399L92.0445 19.4798C90.9375 18.996 89.8852 18.7691 88.9504 18.6844C86.1953 18.5149 84.3477 19.9635 84.2356 21.6964ZM52.1173 29.6747C53.5086 29.6747 54.6456 29.1909 55.6651 28.3956L55.7225 28.4256V29.4479H58.4475V13.1195H55.4956V19.6219C54.6729 18.996 53.4238 18.5996 52.1447 18.5996C50.5266 18.5996 46.6645 19.5918 46.6645 24.2793C46.6673 27.7724 49.7312 29.6747 52.1173 29.6747ZM71.3785 29.4479H72.6275L78.8757 15.1093H77.2577L72.9145 25.1895L68.6261 15.1093H65.0483L71.3785 29.4479ZM123.671 29.4479V23.5714C123.671 19.5945 120.634 18.6024 118.844 18.6024C117.565 18.6024 116.485 19.0862 115.408 19.8241L115.351 19.7941V18.7718H112.626V29.4479H115.578V20.8436C116.458 20.0756 117.31 19.764 118.048 19.764C119.612 19.764 120.689 21.27 120.689 22.9154V29.4451H123.671V29.4479ZM12.0399 16.4705H10.3644L7.01348 25.1293L3.43568 15.164H0L5.31068 29.4178H6.92875L10.3644 20.6168L13.7728 29.4178H15.3909L20.7015 15.1913H19.0835L15.3635 25.1293L12.0399 16.4705ZM28.1961 24.1098C28.1961 26.5807 27.3734 28.5377 25.5284 28.5377C23.6835 28.5377 22.8581 26.578 22.8581 24.1098C22.8581 21.639 23.6808 19.6793 25.5284 19.6793C27.3734 19.6793 28.1961 21.639 28.1961 24.1098ZM99.129 24.1098C99.129 27.0918 101.343 29.5627 104.921 29.5627C108.499 29.5627 110.712 27.0918 110.712 24.1098C110.712 21.1279 108.499 18.657 104.921 18.657C101.343 18.657 99.129 21.1279 99.129 24.1098ZM107.591 24.1098C107.591 26.5807 106.768 28.5377 104.923 28.5377C103.079 28.5377 102.253 26.578 102.253 24.1098C102.253 21.639 103.076 19.6793 104.923 19.6793C106.766 19.6793 107.591 21.639 107.591 24.1098ZM55.4956 20.901V27.346C54.7303 27.9992 54.0197 28.483 52.94 28.483C51.6336 28.483 49.9308 27.3761 49.9308 24.1673C49.9308 20.7015 52.6285 18.2033 55.4956 20.901Z" fill="white"/>
<path d="M97.1939 18.7719H94.242V29.4479H97.1939V18.7719Z" fill="white"/>
<path d="M95.8136 13.9449C94.9335 13.9449 94.2529 14.6255 94.2529 15.5056C94.2529 16.3857 94.9335 17.0663 95.8136 17.0663C96.6937 17.0663 97.3743 16.3857 97.3743 15.5056C97.3743 14.6255 96.6937 13.9449 95.8136 13.9449Z" fill="white"/>
<path d="M150.462 1.20812C150.749 1.49238 150.894 1.83677 150.894 2.23855C150.894 2.63487 150.752 2.97652 150.467 3.26078C150.183 3.54504 149.841 3.6899 149.442 3.6899C149.038 3.6899 148.694 3.54778 148.407 3.25805C148.122 2.97106 147.977 2.63214 147.977 2.23855C147.977 1.84223 148.12 1.50058 148.407 1.21359C148.694 0.9266 149.035 0.781738 149.437 0.781738C149.833 0.781738 150.172 0.923866 150.462 1.20812ZM150.35 3.14599C150.601 2.89453 150.727 2.58841 150.727 2.23035C150.727 1.87777 150.601 1.57438 150.347 1.32292C150.093 1.07146 149.792 0.943002 149.442 0.943002C149.087 0.943002 148.781 1.07146 148.53 1.32565C148.275 1.57984 148.147 1.88323 148.147 2.23582C148.147 2.59114 148.275 2.89453 148.53 3.14599C148.786 3.39745 149.09 3.52318 149.442 3.52318C149.795 3.52318 150.098 3.39745 150.35 3.14599ZM148.803 1.41585H149.5C149.68 1.41585 149.82 1.45411 149.918 1.53338C150.016 1.60991 150.066 1.71924 150.066 1.85863C150.066 1.97343 150.025 2.06909 149.943 2.14836C149.861 2.22762 149.751 2.27682 149.617 2.29595C149.686 2.31782 149.74 2.35062 149.784 2.39161C149.828 2.43261 149.872 2.48728 149.918 2.55834L150.23 3.03393H149.85L149.606 2.62667C149.538 2.51461 149.483 2.44628 149.44 2.42168C149.396 2.39708 149.339 2.38615 149.262 2.38615H149.131V3.03393H148.803V1.41585ZM149.36 2.16202C149.464 2.16202 149.549 2.14016 149.612 2.09642C149.677 2.05269 149.708 1.98436 149.708 1.89417C149.708 1.72471 149.596 1.63997 149.371 1.63997H149.131V2.15929H149.36V2.16202Z" fill="white"/>
<path d="M126.871 18.7335C127.158 19.0178 127.303 19.3622 127.303 19.7639C127.303 20.1603 127.161 20.5019 126.877 20.7862C126.593 21.0704 126.251 21.2153 125.852 21.2153C125.447 21.2153 125.103 21.0732 124.816 20.7834C124.532 20.4965 124.387 20.1575 124.387 19.7639C124.387 19.3676 124.529 19.026 124.816 18.739C125.103 18.452 125.445 18.3071 125.846 18.3071C126.243 18.3071 126.584 18.4493 126.871 18.7335ZM126.759 20.6741C127.011 20.4227 127.136 20.1165 127.136 19.7585C127.136 19.4059 127.011 19.1025 126.757 18.851C126.502 18.5996 126.202 18.4711 125.852 18.4711C125.497 18.4711 125.19 18.5996 124.939 18.8538C124.685 19.108 124.556 19.4114 124.556 19.7639C124.556 20.1193 124.685 20.4227 124.939 20.6741C125.196 20.9256 125.499 21.0513 125.852 21.0513C126.204 21.0513 126.508 20.9256 126.759 20.6741ZM125.212 18.944H125.909C126.09 18.944 126.229 18.9822 126.327 19.0615C126.426 19.138 126.475 19.2474 126.475 19.3868C126.475 19.5015 126.434 19.5972 126.352 19.6765C126.27 19.7557 126.161 19.8049 126.027 19.8241C126.095 19.8459 126.15 19.8787 126.194 19.9197C126.237 19.9607 126.281 20.0154 126.327 20.0865L126.639 20.562H126.259L126.016 20.1548C125.948 20.0427 125.893 19.9744 125.849 19.9498C125.805 19.9252 125.748 19.9143 125.671 19.9143H125.54V20.562H125.212V18.944ZM125.77 19.6901C125.874 19.6901 125.958 19.6683 126.021 19.6246C126.087 19.5808 126.117 19.5125 126.117 19.4223C126.117 19.2528 126.005 19.1681 125.781 19.1681H125.54V19.6874H125.77V19.6901Z" fill="white"/>
</svg>
