<svg width="32" height="32" viewBox="0 0 32 32" fill="none" xmlns="http://www.w3.org/2000/svg">
<g clip-path="url(#clip0_3677_68)">
<path opacity="0.3" d="M0 5.81818C0 2.60489 2.60489 0 5.81818 0H26.1818C29.3951 0 32 2.60489 32 5.81818V26.1818C32 29.3951 29.3951 32 26.1818 32H5.81818C2.60489 32 0 29.3951 0 26.1818V5.81818Z" fill="#FF6B00"/>
<path fill-rule="evenodd" clip-rule="evenodd" d="M26.1818 0.727273H5.81818C3.00655 0.727273 0.727273 3.00655 0.727273 5.81818V26.1818C0.727273 28.9935 3.00655 31.2727 5.81818 31.2727H26.1818C28.9935 31.2727 31.2727 28.9935 31.2727 26.1818V5.81818C31.2727 3.00655 28.9935 0.727273 26.1818 0.727273ZM5.81818 0C2.60489 0 0 2.60489 0 5.81818V26.1818C0 29.3951 2.60489 32 5.81818 32H26.1818C29.3951 32 32 29.3951 32 26.1818V5.81818C32 2.60489 29.3951 0 26.1818 0H5.81818Z" fill="#FF6B00"/>
<path fill-rule="evenodd" clip-rule="evenodd" d="M28.6589 31.4479C20.9116 21.9288 11.1413 14.0922 0 8.55707L0 5.81818C0 2.60489 2.60489 0 5.81818 0H26.1818C28.9555 0 31.2758 1.94088 31.8588 4.53859V27.4614C31.462 29.2295 30.2604 30.6932 28.6589 31.4479Z" fill="#FF6B00"/>
<path d="M22.057 20.7619C22.4574 14.8977 22.3293 11.4709 23.3463 10.5411C24.2872 9.6824 25.9809 9.44499 28.8598 9.23922C22.5375 8.51906 22.6897 8.70108 22.057 2.6311C21.4244 8.70503 21.5765 8.51906 15.2543 9.23922C18.1331 9.44499 19.8268 9.6824 20.7677 10.5411C21.7848 11.4709 21.6566 14.8977 22.057 20.7619Z" fill="white"/>
</g>
<defs>
<clipPath id="clip0_3677_68">
<rect width="32" height="32" fill="white"/>
</clipPath>
</defs>
</svg>
