<svg width="36" height="24" viewBox="0 0 36 24" fill="none" xmlns="http://www.w3.org/2000/svg">
<g clip-path="url(#clip0_107_9093)">
<rect x="0.25" y="0.25" width="35.5" height="23.5" rx="1.75" fill="white" stroke="#B6B7BA" stroke-width="0.5"/>
<path d="M21.5502 5.71045H14.5048V18.2898H21.5502V5.71045Z" fill="#F47D20"/>
<path fill-rule="evenodd" clip-rule="evenodd" d="M14.952 12C14.952 9.44822 16.1547 7.17533 18.0274 5.71044C16.6577 4.63933 14.9296 4 13.0513 4C8.6046 4 5 7.58178 5 12C5 16.4184 8.6046 20 13.0513 20C14.9296 20 16.6577 19.3609 18.0274 18.2898C16.1547 16.8249 14.952 14.552 14.952 12Z" fill="#DE1F31"/>
<path fill-rule="evenodd" clip-rule="evenodd" d="M30.8034 16.9573V16.6469H30.7219L30.628 16.8604L30.5338 16.6469H30.4524V16.9573H30.5101V16.7231L30.598 16.9251H30.6577L30.7459 16.7227V16.9573H30.8034ZM30.2867 16.9573V16.6998H30.3911V16.6473H30.125V16.6998H30.2294V16.9573H30.2867ZM31.0548 12C31.0548 16.4184 27.4502 20 23.0035 20C21.1251 20 19.3968 19.3609 18.0273 18.2898C19.9001 16.8249 21.1027 14.552 21.1027 12C21.1027 9.44822 19.9001 7.17533 18.0273 5.71044C19.3968 4.63933 21.1251 4 23.0035 4C27.4502 4 31.0548 7.58178 31.0548 12Z" fill="#F3A837"/>
</g>
<defs>
<clipPath id="clip0_107_9093">
<rect width="36" height="24" fill="white"/>
</clipPath>
</defs>
</svg>
