<svg width="75" height="18" viewBox="0 0 75 18" fill="none" xmlns="http://www.w3.org/2000/svg">
<path d="M28.2409 4.026H24.177C24.0424 4.02592 23.9123 4.07388 23.81 4.16126C23.7077 4.24863 23.64 4.36967 23.619 4.50257L21.9754 14.9234C21.9678 14.9718 21.9708 15.0212 21.9842 15.0683C21.9976 15.1154 22.021 15.159 22.0529 15.1962C22.0847 15.2333 22.1242 15.2631 22.1687 15.2836C22.2132 15.304 22.2616 15.3145 22.3105 15.3144H24.2507C24.3853 15.3145 24.5155 15.2665 24.6178 15.179C24.7201 15.0915 24.7878 14.9703 24.8086 14.8373L25.2519 12.0266C25.2727 11.8937 25.3403 11.7726 25.4425 11.6851C25.5447 11.5976 25.6748 11.5495 25.8093 11.5494H27.0958C29.7728 11.5494 31.3177 10.254 31.7212 7.687C31.903 6.56392 31.7289 5.6815 31.2031 5.06351C30.6255 4.38491 29.601 4.026 28.2409 4.026ZM28.7097 7.832C28.4875 9.29022 27.3733 9.29022 26.296 9.29022H25.6827L26.1129 6.5669C26.1255 6.48722 26.1662 6.41466 26.2275 6.36226C26.2888 6.30986 26.3668 6.28108 26.4475 6.28107H26.7286C27.4624 6.28107 28.1547 6.28107 28.5124 6.69941C28.7257 6.94898 28.7911 7.31978 28.7097 7.832ZM40.3885 7.78505H38.4425C38.3618 7.78505 38.2838 7.81384 38.2225 7.86624C38.1611 7.91863 38.1205 7.9912 38.1079 8.07087L38.0218 8.61518L37.8857 8.4179C37.4644 7.80644 36.5249 7.60203 35.5872 7.60203C33.4367 7.60203 31.6 9.23079 31.2423 11.5156C31.0563 12.6553 31.3207 13.7451 31.9672 14.5051C32.5603 15.2039 33.4088 15.4951 34.4184 15.4951C36.1511 15.4951 37.112 14.3809 37.112 14.3809L37.0252 14.9217C37.0175 14.97 37.0204 15.0195 37.0336 15.0666C37.0468 15.1137 37.0701 15.1575 37.1018 15.1947C37.1336 15.232 37.173 15.262 37.2174 15.2825C37.2619 15.3031 37.3102 15.3138 37.3592 15.3138H39.1121C39.2468 15.3139 39.377 15.2659 39.4793 15.1784C39.5816 15.0909 39.6493 14.9697 39.6701 14.8367L40.7219 8.17605C40.7296 8.12781 40.7268 8.07847 40.7136 8.03143C40.7004 7.98438 40.6772 7.94077 40.6455 7.90359C40.6138 7.86641 40.5744 7.83656 40.53 7.81609C40.4857 7.79563 40.4374 7.78504 40.3885 7.78505ZM37.6759 11.5726C37.4881 12.6844 36.6057 13.4308 35.4803 13.4308C34.9152 13.4308 34.4635 13.2495 34.1736 12.9061C33.886 12.565 33.7766 12.0795 33.8681 11.5388C34.0434 10.4365 34.9407 9.66576 36.0489 9.66576C36.6016 9.66576 37.0508 9.84938 37.3467 10.1958C37.6432 10.5458 37.7609 11.0343 37.6759 11.5726ZM50.753 7.78505H48.7974C48.7052 7.7852 48.6144 7.80784 48.5329 7.85102C48.4514 7.8942 48.3816 7.95661 48.3297 8.03284L45.6325 12.0058L44.4893 8.18793C44.4542 8.07149 44.3825 7.96944 44.2849 7.89688C44.1873 7.82432 44.069 7.78511 43.9473 7.78505H42.0256C41.9717 7.78491 41.9185 7.79765 41.8705 7.82222C41.8224 7.84679 41.781 7.88247 41.7495 7.9263C41.7181 7.97013 41.6976 8.02084 41.6897 8.0742C41.6818 8.12756 41.6867 8.18204 41.7041 8.2331L43.8582 14.5544L41.8331 17.4132C41.7971 17.4639 41.7758 17.5235 41.7714 17.5855C41.767 17.6476 41.7798 17.7096 41.8083 17.7648C41.8369 17.82 41.8801 17.8663 41.9332 17.8987C41.9863 17.931 42.0472 17.9481 42.1094 17.948H44.0626C44.1538 17.9482 44.2437 17.9262 44.3245 17.8839C44.4053 17.8417 44.4747 17.7805 44.5267 17.7056L51.0311 8.31688C51.0663 8.26609 51.087 8.20661 51.0908 8.1449C51.0947 8.08319 51.0816 8.0216 51.053 7.96681C51.0243 7.91202 50.9812 7.86611 50.9283 7.83407C50.8754 7.80203 50.8148 7.78508 50.753 7.78505Z" fill="#253B80"/>
<path d="M57.2275 4.02605H53.163C53.0286 4.0261 52.8986 4.07413 52.7964 4.1615C52.6943 4.24886 52.6266 4.36982 52.6057 4.50261L50.962 14.9235C50.9544 14.9718 50.9573 15.0211 50.9706 15.0682C50.9839 15.1152 51.0072 15.1588 51.0389 15.196C51.0706 15.2331 51.1101 15.263 51.1544 15.2834C51.1988 15.3039 51.2471 15.3145 51.296 15.3145H53.3817C53.4758 15.3144 53.5668 15.2806 53.6382 15.2194C53.7097 15.1582 53.757 15.0735 53.7715 14.9805L54.238 12.0267C54.2588 11.8938 54.3264 11.7727 54.4286 11.6852C54.5308 11.5977 54.6609 11.5496 54.7954 11.5495H56.0813C58.7588 11.5495 60.3032 10.2541 60.7073 7.68705C60.8897 6.56397 60.7144 5.68155 60.1885 5.06356C59.6115 4.38496 58.5877 4.02605 57.2275 4.02605ZM57.6964 7.83204C57.4747 9.29026 56.3606 9.29026 55.2826 9.29026H54.67L55.1008 6.56694C55.1132 6.48726 55.1536 6.41464 55.2149 6.36221C55.2761 6.30979 55.3541 6.28102 55.4348 6.28112H55.7158C56.4491 6.28112 57.142 6.28112 57.4997 6.69945C57.713 6.94903 57.7778 7.31982 57.6964 7.83204ZM69.3746 7.7851H67.4297C67.3491 7.78487 67.271 7.8136 67.2097 7.86605C67.1484 7.9185 67.108 7.99119 67.0958 8.07092L67.0096 8.61523L66.8729 8.41794C66.4516 7.80649 65.5128 7.60208 64.5751 7.60208C62.4246 7.60208 60.5885 9.23084 60.2307 11.5156C60.0453 12.6553 60.3086 13.7451 60.9551 14.5052C61.5493 15.204 62.3967 15.4951 63.4063 15.4951C65.139 15.4951 66.0999 14.381 66.0999 14.381L66.0131 14.9217C66.0054 14.9702 66.0082 15.0197 66.0215 15.0669C66.0348 15.1142 66.0582 15.1579 66.0901 15.1952C66.1219 15.2325 66.1615 15.2625 66.2061 15.2829C66.2507 15.3034 66.2992 15.314 66.3483 15.3139H68.1006C68.2351 15.3138 68.3652 15.2657 68.4674 15.1782C68.5696 15.0907 68.6372 14.9696 68.658 14.8367L69.7104 8.17609C69.7178 8.1277 69.7147 8.07827 69.7013 8.03119C69.6878 7.98411 69.6643 7.9405 69.6324 7.90336C69.6005 7.86621 69.561 7.83641 69.5165 7.81599C69.472 7.79558 69.4236 7.78504 69.3746 7.7851ZM66.662 11.5727C66.4754 12.6845 65.5918 13.4308 64.4663 13.4308C63.9024 13.4308 63.4496 13.2496 63.1597 12.9061C62.872 12.565 62.7639 12.0795 62.8542 11.5388C63.0307 10.4365 63.9268 9.66581 65.035 9.66581C65.5876 9.66581 66.0369 9.84942 66.3328 10.1959C66.6305 10.5459 66.7482 11.0343 66.662 11.5727ZM71.6689 4.31187L70.0009 14.9235C69.9933 14.9718 69.9962 15.0211 70.0095 15.0682C70.0227 15.1152 70.046 15.1588 70.0778 15.196C70.1095 15.2331 70.149 15.263 70.1933 15.2834C70.2377 15.3039 70.286 15.3145 70.3349 15.3145H72.0118C72.2905 15.3145 72.527 15.1125 72.5698 14.8373L74.2146 4.41704C74.2222 4.36874 74.2193 4.31936 74.206 4.27229C74.1928 4.22522 74.1695 4.18158 74.1377 4.14438C74.106 4.10717 74.0666 4.07727 74.0222 4.05674C73.9778 4.03621 73.9295 4.02554 73.8806 4.02545H72.0029C71.9223 4.02574 71.8444 4.05472 71.7832 4.1072C71.722 4.15968 71.6815 4.23224 71.6689 4.31187Z" fill="#179BD7"/>
<path d="M5.09889 17.3396L5.40967 15.3656L4.7174 15.3496H1.41174L3.70901 0.7834C3.71585 0.738893 3.73845 0.698327 3.7727 0.669094C3.80695 0.639862 3.85056 0.623911 3.89559 0.624148H9.4694C11.3198 0.624148 12.5968 1.0092 13.2635 1.76921C13.5761 2.12575 13.7751 2.49833 13.8714 2.90834C13.9724 3.33856 13.9742 3.85256 13.8756 4.47946L13.8684 4.52522V4.92691L14.181 5.10399C14.4196 5.22488 14.6341 5.38841 14.8138 5.5865C15.0812 5.89134 15.2542 6.27877 15.3272 6.7381C15.4027 7.21051 15.3778 7.77264 15.2542 8.40906C15.1115 9.14114 14.881 9.77874 14.5696 10.3005C14.2949 10.7678 13.9255 11.1727 13.4852 11.4889C13.0716 11.7825 12.5802 12.0053 12.0246 12.1479C11.4862 12.2881 10.8724 12.3589 10.1991 12.3589H9.76532C9.45514 12.3589 9.15387 12.4706 8.91737 12.6708C8.6812 12.8732 8.52453 13.1528 8.47526 13.4599L8.44258 13.6376L7.89352 17.1168L7.86856 17.2445C7.86203 17.285 7.85074 17.3052 7.8341 17.3188C7.81798 17.332 7.79787 17.3393 7.77705 17.3396H5.09889Z" fill="#253B80"/>
<path d="M14.4769 4.57153C14.4603 4.6779 14.4413 4.78664 14.4199 4.89836C13.6848 8.67226 11.1701 9.97599 7.95832 9.97599H6.32302C5.93024 9.97599 5.59925 10.2612 5.53805 10.6486L4.70079 15.9586L4.4637 17.4638C4.45425 17.5235 4.45786 17.5845 4.47427 17.6427C4.49067 17.7009 4.51949 17.7548 4.55874 17.8008C4.59799 17.8468 4.64674 17.8837 4.70163 17.909C4.75651 17.9343 4.81623 17.9474 4.87668 17.9475H7.77708C8.12054 17.9475 8.4123 17.6979 8.46638 17.3592L8.4949 17.2118L9.04099 13.7463L9.07605 13.5562C9.12953 13.2163 9.42189 12.9667 9.76535 12.9667H10.1991C13.0092 12.9667 15.209 11.8258 15.852 8.5243C16.1206 7.14511 15.9815 5.99351 15.2708 5.18358C15.0456 4.93304 14.7765 4.72563 14.4769 4.57153Z" fill="#179BD7"/>
<path d="M13.7079 4.2649C13.4732 4.19701 13.2345 4.14401 12.9931 4.10624C12.5161 4.03294 12.0341 3.99777 11.5515 4.00107H7.18277C7.01651 4.00094 6.85569 4.06029 6.72938 4.1684C6.60307 4.27652 6.5196 4.42625 6.49407 4.59053L5.5647 10.4769L5.53796 10.6486C5.56692 10.4612 5.66198 10.2904 5.80596 10.167C5.94994 10.0437 6.13332 9.97588 6.32293 9.97597H7.95823C11.17 9.97597 13.6848 8.67165 14.4198 4.89834C14.4418 4.78663 14.4602 4.67789 14.4769 4.57152C14.2829 4.46981 14.0807 4.38453 13.8725 4.3166C13.8179 4.29849 13.7631 4.28125 13.7079 4.2649Z" fill="#222D65"/>
<path d="M6.49405 4.59054C6.51937 4.42621 6.60279 4.27641 6.72917 4.16835C6.85554 4.06029 7.01648 4.00115 7.18275 4.00167H11.5515C12.069 4.00167 12.5521 4.03554 12.9931 4.10685C13.2914 4.15374 13.5857 4.22387 13.8731 4.31661C14.09 4.38851 14.2914 4.47348 14.4774 4.57153C14.6961 3.17689 14.4756 2.22732 13.7216 1.36748C12.8903 0.420885 11.3898 0.015625 9.46992 0.015625H3.89611C3.50392 0.015625 3.16938 0.300852 3.10877 0.688879L0.787139 15.4048C0.776325 15.4731 0.780439 15.543 0.799198 15.6096C0.817958 15.6761 0.850917 15.7379 0.895808 15.7905C0.9407 15.8431 0.996459 15.8854 1.05925 15.9144C1.12204 15.9434 1.19037 15.9585 1.25955 15.9586H4.70069L5.56469 10.4769L6.49405 4.59054Z" fill="#253B80"/>
</svg>
