<svg width="36" height="24" viewBox="0 0 36 24" fill="none" xmlns="http://www.w3.org/2000/svg">
<g clip-path="url(#clip0_107_9089)">
<rect x="0.25" y="0.25" width="35.5" height="23.5" rx="1.75" fill="white" stroke="#B6B7BA" stroke-width="0.5"/>
<path fill-rule="evenodd" clip-rule="evenodd" d="M16.6657 7.64908L14.8215 16.3538H12.591L14.4359 7.64908H16.6657ZM26.0487 13.2696L27.2227 10.0012L27.8985 13.2696H26.0487ZM28.5373 16.3538H30.6L28.7995 7.64908H26.896C26.4678 7.64908 26.1068 7.90027 25.9466 8.28745L22.6002 16.3538H24.9415L25.4067 15.0534H28.2678L28.5373 16.3538ZM22.7161 13.5116C22.7261 11.2145 19.5698 11.0875 19.5917 10.0612C19.5985 9.74909 19.893 9.41726 20.5376 9.33224C20.8567 9.29018 21.738 9.25754 22.7363 9.72148L23.1282 7.87589C22.5911 7.67901 21.901 7.48987 21.0416 7.48987C18.8374 7.48987 17.2857 8.67322 17.2733 10.3672C17.2586 11.6209 18.3806 12.3195 19.226 12.7364C20.0945 13.1629 20.3858 13.4367 20.3826 13.818C20.3761 14.4024 19.6896 14.6599 19.0477 14.6701C17.9265 14.6876 17.2757 14.364 16.7572 14.1201L16.3534 16.0276C16.874 16.269 17.8359 16.4795 18.8335 16.4899C21.1765 16.4899 22.7088 15.3217 22.7161 13.5116ZM13.4788 7.64908L9.8655 16.3538H7.50813L5.72984 9.40681C5.62187 8.97912 5.52834 8.8221 5.20008 8.64225C4.66392 8.34822 3.77868 8.07264 3 7.90156L3.05252 7.64908H6.84752C7.33103 7.64908 7.76611 7.97381 7.876 8.53646L8.81517 13.5738L11.1363 7.64908H13.4788Z" fill="url(#paint0_linear_107_9089)"/>
</g>
<defs>
<linearGradient id="paint0_linear_107_9089" x1="3" y1="11.9899" x2="30.6" y2="11.9899" gradientUnits="userSpaceOnUse">
<stop stop-color="#231E5D"/>
<stop offset="1" stop-color="#074EA2"/>
</linearGradient>
<clipPath id="clip0_107_9089">
<rect width="36" height="24" fill="white"/>
</clipPath>
</defs>
</svg>
