<svg width="24" height="25" viewBox="0 0 24 25" fill="none" xmlns="http://www.w3.org/2000/svg">
<rect y="0.200195" width="24" height="24" rx="12" fill="#6F57B2"/>
<path fill-rule="evenodd" clip-rule="evenodd" d="M6.38325 9.86702C7.23401 7.70852 9.33791 6.18018 11.7998 6.18018C14.2617 6.18018 16.3656 7.70852 17.2163 9.86702C18.1425 10.1343 18.8198 10.9878 18.8198 12.0002C18.8198 13.0125 18.1425 13.866 17.2163 14.1333C16.3656 16.2918 14.2617 17.8202 11.7998 17.8202C9.33791 17.8202 7.23401 16.2918 6.38325 14.1333C5.45708 13.866 4.77979 13.0125 4.77979 12.0002C4.77979 10.9878 5.45708 10.1343 6.38325 9.86702ZM9.87979 8.10017C9.87979 7.8274 9.95764 7.56292 10.0825 7.32419C8.68708 7.83682 7.58438 8.95627 7.09492 10.3633C7.04455 10.5081 6.91927 10.614 6.76809 10.6395C6.11632 10.7494 5.61979 11.3172 5.61979 12.0002C5.61979 12.6831 6.11632 13.2509 6.76809 13.3609C6.91927 13.3864 7.04455 13.4922 7.09492 13.637C7.77217 15.5839 9.62346 16.9802 11.7998 16.9802C13.9761 16.9802 15.8274 15.5839 16.5047 13.637C16.555 13.4922 16.6803 13.3864 16.8315 13.3609C17.4833 13.2509 17.9798 12.6831 17.9798 12.0002C17.9798 11.3172 17.4833 10.7494 16.8315 10.6395C16.6803 10.614 16.555 10.5081 16.5047 10.3633C15.8274 8.41645 13.9761 7.02018 11.7998 7.02018C11.5838 7.02018 11.3096 7.14436 11.0768 7.37716C10.844 7.60996 10.7198 7.88422 10.7198 8.10018C10.7198 8.31565 10.8257 8.49876 11.0255 8.64284C11.2321 8.79182 11.5191 8.88018 11.7998 8.88018C12.0734 8.88018 12.3604 8.78697 12.5707 8.63206C12.7777 8.47949 12.8798 8.2939 12.8798 8.10018H13.7198C13.7198 8.62645 13.4319 9.04086 13.069 9.30829C12.7092 9.57338 12.2463 9.72018 11.7998 9.72018C11.3606 9.72018 10.8976 9.58628 10.5341 9.32413C10.1639 9.05708 9.87978 8.64019 9.87979 8.10017ZM8.81179 14.3162L9.48379 13.8122C9.72874 14.1388 9.94522 14.4139 10.2843 14.6605C10.6504 14.9268 11.1655 15.1802 11.7998 15.1802C12.4341 15.1802 12.9491 14.9268 13.3153 14.6605C13.6544 14.4139 13.8708 14.1388 14.1158 13.8122L14.7878 14.3162C14.4978 14.7028 14.2031 15.0534 13.8093 15.3398C13.3504 15.6736 12.6655 16.0202 11.7998 16.0202C10.9341 16.0202 10.2491 15.6736 9.79025 15.3398C9.3869 15.0465 9.10539 14.7069 8.81179 14.3162ZM10.3598 11.1002C10.3598 11.3984 10.118 11.6402 9.81981 11.6402C9.52158 11.6402 9.27981 11.3984 9.27981 11.1002C9.27981 10.8019 9.52158 10.5602 9.81981 10.5602C10.118 10.5602 10.3598 10.8019 10.3598 11.1002ZM13.7797 11.6402C14.078 11.6402 14.3197 11.3984 14.3197 11.1002C14.3197 10.8019 14.078 10.5602 13.7797 10.5602C13.4815 10.5602 13.2397 10.8019 13.2397 11.1002C13.2397 11.3984 13.4815 11.6402 13.7797 11.6402Z" fill="white"/>
</svg>
