<svg width="24" height="26" viewBox="0 0 24 26" fill="none" xmlns="http://www.w3.org/2000/svg">
<path d="M0 12C0 5.37257 5.37258 0 12 0C18.6274 0 24 5.37258 24 12V13.1429C24 19.7703 18.6274 25.1429 12 25.1429C5.37258 25.1429 0 19.7703 0 13.1429V12Z" fill="#2BA62B"/>
<g clip-path="url(#clip0_6837_12526)">
<path d="M12.0053 7.73161C11.7683 7.7336 11.5422 7.69622 11.2809 7.62742L11.5195 6.58694C11.7309 6.64258 11.87 6.66129 11.9975 6.66022C12.1277 6.65912 12.2697 6.63726 12.4914 6.5843L12.709 7.63005C12.4611 7.68928 12.2394 7.72964 12.0053 7.73161Z" fill="white"/>
<path d="M10.9832 9.77089C11.3565 9.86711 11.6729 9.92038 12.0012 9.91955C12.3286 9.91873 12.6439 9.86411 13.0137 9.77176L12.7866 8.72831C12.4532 8.81159 12.22 8.84757 11.9988 8.84813C11.7786 8.84868 11.5466 8.81413 11.2171 8.72918L10.9832 9.77089Z" fill="white"/>
<path d="M12.0053 12.0779C11.6466 12.0803 11.2989 12.0232 10.8809 11.9131L11.1195 10.8727C11.4894 10.97 11.7502 11.0082 11.9989 11.0064C12.2498 11.0047 12.5124 10.9623 12.8894 10.8705L13.111 11.9153C12.7052 12.0141 12.3617 12.0754 12.0053 12.0779Z" fill="white"/>
<path fill-rule="evenodd" clip-rule="evenodd" d="M7.302 12.1431C7.30079 12.0718 7.30018 12.0003 7.30018 11.9286C7.30018 9.88968 7.79005 8.0187 8.60851 6.64069C9.42318 5.26903 10.6101 4.32141 12.0002 4.32141C13.3902 4.32141 14.5772 5.26903 15.3919 6.64069C16.2103 8.0187 16.7002 9.88968 16.7002 11.9286C16.7002 12.0003 16.6996 12.0718 16.6984 12.1431C16.7504 12.1418 16.8026 12.1412 16.8548 12.1412H18.8158L18.0952 13.6905C17.9 14.1103 17.3908 15.2563 17.0826 16.181L17.0574 16.257C16.7329 17.2316 16.3303 18.4408 15.6133 19.3893C14.8344 20.4197 13.7191 21.1095 12.1098 21.1402L12.1048 21.1413H11.8957L11.8907 21.1402C10.2814 21.1095 9.1661 20.4197 8.38721 19.3893C7.67017 18.4408 7.2676 17.2316 6.94314 16.2569L6.91785 16.181C6.60975 15.2563 6.10046 14.1104 5.90516 13.6905L5.18457 12.1412H7.14545C7.19771 12.1412 7.24989 12.1418 7.302 12.1431ZM8.77773 8.73896C8.90936 8.33003 9.06506 7.94897 9.24084 7.60141C9.34267 7.62761 9.44409 7.64774 9.54878 7.66042C9.78429 7.68895 10.0128 7.67708 10.2794 7.63793L10.1436 6.57643C10.0372 6.59205 9.94911 6.6007 9.872 6.60361C10.5024 5.81122 11.2459 5.39284 12.0002 5.39284C12.7544 5.39284 13.4977 5.81107 14.128 6.60318C14.0535 6.5999 13.9686 6.59134 13.867 6.57643L13.7312 7.63793C13.9979 7.67708 14.2263 7.68895 14.4618 7.66042C14.5634 7.64812 14.6619 7.6288 14.7607 7.60373C14.9362 7.95108 15.0917 8.33186 15.2231 8.74044C14.9736 8.77769 14.7221 8.76964 14.364 8.71894L14.233 9.78113C14.7194 9.84999 15.0908 9.85655 15.4919 9.77912C15.5625 10.1315 15.6164 10.4982 15.6517 10.8765C15.3517 10.9299 15.0594 10.9255 14.628 10.8621L14.4922 11.9236C14.9603 11.9924 15.327 12.0051 15.7002 11.9518C15.7 12.0503 15.6985 12.1481 15.6958 12.2454C14.2257 12.5143 12.8926 13.3018 12.0002 14.5837C11.1077 13.3018 9.77461 12.5144 8.30453 12.2454C8.30184 12.1476 8.30039 12.0491 8.3002 11.9501C8.67752 12.0054 9.04702 11.9931 9.52012 11.9236L9.3843 10.8621C8.94726 10.9263 8.65297 10.93 8.34889 10.8743C8.38422 10.4961 8.43818 10.1295 8.50886 9.77721C8.91379 9.85666 9.28728 9.85056 9.7776 9.78113L9.64659 8.71894C9.2838 8.77031 9.03045 8.77789 8.77773 8.73896ZM12.0025 20.0698L12.0002 20.0693L11.9979 20.0698C9.2745 20.0671 8.54443 17.876 7.85963 15.8208C7.69272 15.3198 7.47367 14.7659 7.27229 14.2857C7.22896 14.1824 7.18645 14.0825 7.14545 13.9872C7.00182 13.6536 6.87676 13.3773 6.80018 13.2126H7.14545C7.41338 13.2126 7.67746 13.2312 7.93578 13.268C9.402 13.4769 10.6831 14.2737 11.4334 15.6021C11.6879 16.0527 11.8813 16.5643 12.0002 17.135C12.1191 16.5643 12.3125 16.0526 12.5669 15.6021C13.3172 14.2737 14.5984 13.4769 16.0646 13.268C16.3229 13.2312 16.5869 13.2126 16.8548 13.2126H17.2002C17.1236 13.3774 16.9985 13.6538 16.8548 13.9877C16.8138 14.0828 16.7714 14.1825 16.7282 14.2857C16.5268 14.7659 16.3078 15.3198 16.1409 15.8208C15.456 17.876 14.7259 20.0671 12.0025 20.0698Z" fill="white"/>
</g>
<defs>
<clipPath id="clip0_6837_12526">
<rect width="16" height="17.1429" fill="white" transform="translate(4 4)"/>
</clipPath>
</defs>
</svg>
