<svg width="24" height="24" viewBox="0 0 24 24" fill="none" xmlns="http://www.w3.org/2000/svg">
<path d="M0 12C0 5.37258 5.37258 0 12 0C18.6274 0 24 5.37258 24 12C24 18.6274 18.6274 24 12 24C5.37258 24 0 18.6274 0 12Z" fill="#017093"/>
<path d="M9.21436 4.5H14.7858V5C14.7858 5.18748 14.8912 5.62673 15.1484 6.07694C15.3872 6.49482 15.7101 6.8399 16.0921 7H17C18.3807 7 19.5 8.11929 19.5 9.5V15.5C19.5 16.8807 18.3807 18 17 18H7C5.61929 18 4.5 16.8807 4.5 15.5V9.5C4.5 8.11929 5.61929 7 7 7H7.90789C8.28994 6.8399 8.61282 6.49481 8.85161 6.07693C9.10888 5.62672 9.21432 5.18746 9.21433 4.99997L9.21436 4.5ZM14.2802 6.57307C14.077 6.21751 13.9298 5.83645 13.8512 5.5H10.1489C10.0702 5.83645 9.92304 6.21751 9.71985 6.57307C9.63858 6.71531 9.54481 6.85966 9.43805 7H14.562C14.4552 6.85966 14.3615 6.7153 14.2802 6.57307ZM7 8C6.17157 8 5.5 8.67157 5.5 9.5V15.5C5.5 16.3284 6.17157 17 7 17H17C17.8284 17 18.5 16.3284 18.5 15.5V9.5C18.5 8.67157 17.8284 8 17 8H7ZM11 9.5H13V11.5H15V13.5H13V15.5H11V13.5H9V11.5H11V9.5Z" fill="white"/>
</svg>
