<svg width="24" height="24" viewBox="0 0 24 24" fill="none" xmlns="http://www.w3.org/2000/svg">
<path d="M0 12C0 5.37258 5.37258 0 12 0C18.6274 0 24 5.37258 24 12C24 18.6274 18.6274 24 12 24C5.37258 24 0 18.6274 0 12Z" fill="#0098B2"/>
<path fill-rule="evenodd" clip-rule="evenodd" d="M12.4513 5.78462L12.0002 4.84009L11.549 5.78462C10.7325 7.49404 9.76088 8.71294 8.89831 9.79509C8.78255 9.94031 8.66875 10.0831 8.55756 10.2242C7.63532 11.395 6.8335 12.5195 6.8335 14.0001C6.8335 16.8536 9.14669 19.1668 12.0002 19.1668C14.8536 19.1668 17.1668 16.8536 17.1668 14.0001C17.1668 12.5195 16.365 11.395 15.4428 10.2242C15.3317 10.0833 15.2181 9.9407 15.1025 9.79568L15.102 9.79509C14.2394 8.71294 13.2679 7.49404 12.4513 5.78462ZM7.8335 14.0001C7.8335 12.9035 8.40968 12.028 9.3431 10.843C9.45084 10.7063 9.56261 10.5662 9.67758 10.4221L9.67763 10.422C10.3951 9.52273 11.2372 8.46728 12.0002 7.0908C12.7631 8.46728 13.6052 9.52273 14.3227 10.422L14.3228 10.4222C14.4378 10.5662 14.5495 10.7063 14.6572 10.843C15.5906 12.028 16.1668 12.9035 16.1668 14.0001C16.1668 16.3013 14.3013 18.1668 12.0002 18.1668C9.69898 18.1668 7.8335 16.3013 7.8335 14.0001ZM12.2354 16.1765C11.5681 16.31 11.0579 16.1142 10.6754 15.775C10.2775 15.4222 10.0105 14.9035 9.9034 14.4177L9.79572 13.9295L8.81919 14.1448L8.92686 14.6331C9.07144 15.2887 9.43029 16.0074 10.012 16.5232C10.6091 17.0528 11.4322 17.357 12.4315 17.1571L12.9218 17.059L12.7257 16.0785L12.2354 16.1765Z" fill="white"/>
</svg>
